<?xml version="1.0" encoding="utf-8"?>
<!-- Generator: Adobe Illustrator 19.1.0, SVG Export Plug-In . SVG Version: 6.00 Build 0)  -->
<svg version="1.1" id="Layer_1" xmlns="http://www.w3.org/2000/svg" xmlns:xlink="http://www.w3.org/1999/xlink" x="0px" y="0px"
	 viewBox="0 0 100 100" style="enable-background:new 0 0 100 100;" xml:space="preserve">
<style type="text/css">
	.st0{opacity:0.76;fill:url(#SVGID_1_);}
</style>
<linearGradient id="SVGID_1_" gradientUnits="userSpaceOnUse" x1="1.5874" y1="51.0705" x2="91.7061" y2="51.0705" gradientTransform="matrix(-1 0 0 1 96.8307 0)">
	<stop  offset="0" style="stop-color:#FFFFFF"/>
	<stop  offset="1" style="stop-color:#02d3db"/>
</linearGradient>
<polyline class="st0" points="59.2,38.6 74.4,34 85.7,41.1 74.4,34 75.1,16.5 71,4.3 87.1,27 85.7,41.1 81.1,47.9 95.2,66.4
	93.6,71.6 87.1,71.6 87.1,78.6 85.7,82.6 77.2,92 71.5,97.8 53,95.8 32.2,82.6 23.6,66.4 18.6,38.6 34,22.7 47.2,16.5 75.1,16.5
	87.1,27 78.1,4.3 44,4.3 10,9.8 5.1,38.6 10.6,61.1 22.5,60.2 10.6,61.1 32.2,82.6 64.9,49.7 64.9,48.9 81.1,71.6 87.1,71.6
	81.1,71.6 75.1,80.6 85.7,82.6 85.7,97.8 71.5,97.8 75.1,80.6 41.8,72.9 5.1,38.6 18.6,38.6 64.9,48.9 78.2,51.4 81.1,47.9
	77.2,43.4 77.2,51.4 77.2,43.4 64.9,48.9 47.2,16.5 39.5,5.1 34,22.7 10,9.8 "/>
</svg>
