<?xml version="1.0" encoding="utf-8"?>
<!-- Generator: Adobe Illustrator 19.2.0, SVG Export Plug-In . SVG Version: 6.00 Build 0)  -->
<svg version="1.1" id="Layer_1" xmlns="http://www.w3.org/2000/svg" xmlns:xlink="http://www.w3.org/1999/xlink" x="0px" y="0px"
	 viewBox="0 0 300 300" enable-background="new 0 0 300 300" xml:space="preserve">
<g>
	<path opacity="0.2" fill="none" stroke="#EB3B95" stroke-width="35" stroke-linecap="round" stroke-linejoin="round" d="
		M81.2,115.1c-1-18.1-17.1-32.9-16.9-51c23.5,8.5,47.8,17.5,65.5,35.4c22-6.2,46.2-4.4,67,5.1c2.9-7,8.5-12.5,14-17.6
		c10.7-10.1,21.5-20,32.3-30c-1.1,19.9-4,39.7-8.7,59.1c8.7,5.8,11.4,17.4,13.1,27.8c1.9,12.2,3.4,24.8,0.9,37
		c-3.5,17.5-14.9,32.6-28.6,43.8c-9.2,7.5-19.7,13.6-31.1,16.8c-13.4,3.7-27.5,3.2-41.2,1.9c-15.4-1.4-30.7-3.6-45.9-6.7
		c-7.5-1.5-15.2-3.4-21.3-8.1c-7.4-5.7-11.3-14.8-14.8-23.6c-5.3-13.7-10.2-28-10.2-42.7c0-14.7,5.5-30.2,17.3-38.8
		c2.5-1.8,5.4-3.4,7.3-5.9"/>
	<path opacity="0.25" fill="none" stroke="#EB3B95" stroke-width="8.5" stroke-linecap="round" stroke-linejoin="round" d="
		M81.2,115.1c-1-18.1-17.1-32.9-16.9-51c23.5,8.5,47.8,17.5,65.5,35.4c22-6.2,46.2-4.4,67,5.1c2.9-7,8.5-12.5,14-17.6
		c10.7-10.1,21.5-20,32.3-30c-1.1,19.9-4,39.7-8.7,59.1c8.7,5.8,11.4,17.4,13.1,27.8c1.9,12.2,3.4,24.8,0.9,37
		c-3.5,17.5-14.9,32.6-28.6,43.8c-9.2,7.5-19.7,13.6-31.1,16.8c-13.4,3.7-27.5,3.2-41.2,1.9c-15.4-1.4-30.7-3.6-45.9-6.7
		c-7.5-1.5-15.2-3.4-21.3-8.1c-7.4-5.7-11.3-14.8-14.8-23.6c-5.3-13.7-10.2-28-10.2-42.7c0-14.7,5.5-30.2,17.3-38.8
		c2.5-1.8,5.4-3.4,7.3-5.9"/>
	<path opacity="0.3" fill="none" stroke="#EB3B95" stroke-width="5" stroke-linecap="round" stroke-linejoin="round" d="M81.2,115.1
		c-1-18.1-17.1-32.9-16.9-51c23.5,8.5,47.8,17.5,65.5,35.4c22-6.2,46.2-4.4,67,5.1c2.9-7,8.5-12.5,14-17.6
		c10.7-10.1,21.5-20,32.3-30c-1.1,19.9-4,39.7-8.7,59.1c8.7,5.8,11.4,17.4,13.1,27.8c1.9,12.2,3.4,24.8,0.9,37
		c-3.5,17.5-14.9,32.6-28.6,43.8c-9.2,7.5-19.7,13.6-31.1,16.8c-13.4,3.7-27.5,3.2-41.2,1.9c-15.4-1.4-30.7-3.6-45.9-6.7
		c-7.5-1.5-15.2-3.4-21.3-8.1c-7.4-5.7-11.3-14.8-14.8-23.6c-5.3-13.7-10.2-28-10.2-42.7c0-14.7,5.5-30.2,17.3-38.8
		c2.5-1.8,5.4-3.4,7.3-5.9"/>
	<path fill="none" stroke="#ED66A6" stroke-width="7" stroke-linecap="round" stroke-linejoin="round" d="M81.2,115.1
		c-1-18.1-17.1-32.9-16.9-51c23.5,8.5,47.8,17.5,65.5,35.4c22-6.2,46.2-4.4,67,5.1c2.9-7,8.5-12.5,14-17.6
		c10.7-10.1,21.5-20,32.3-30c-1.1,19.9-4,39.7-8.7,59.1c8.7,5.8,11.4,17.4,13.1,27.8c1.9,12.2,3.4,24.8,0.9,37
		c-3.5,17.5-14.9,32.6-28.6,43.8c-9.2,7.5-19.7,13.6-31.1,16.8c-13.4,3.7-27.5,3.2-41.2,1.9c-15.4-1.4-30.7-3.6-45.9-6.7
		c-7.5-1.5-15.2-3.4-21.3-8.1c-7.4-5.7-11.3-14.8-14.8-23.6c-5.3-13.7-10.2-28-10.2-42.7c0-14.7,5.5-30.2,17.3-38.8
		c2.5-1.8,5.4-3.4,7.3-5.9"/>
	<path fill="none" stroke="#F085B5" stroke-width="5.5" stroke-linecap="round" stroke-linejoin="round" d="M81.2,115.1
		c-1-18.1-17.1-32.9-16.9-51c23.5,8.5,47.8,17.5,65.5,35.4c22-6.2,46.2-4.4,67,5.1c2.9-7,8.5-12.5,14-17.6
		c10.7-10.1,21.5-20,32.3-30c-1.1,19.9-4,39.7-8.7,59.1c8.7,5.8,11.4,17.4,13.1,27.8c1.9,12.2,3.4,24.8,0.9,37
		c-3.5,17.5-14.9,32.6-28.6,43.8c-9.2,7.5-19.7,13.6-31.1,16.8c-13.4,3.7-27.5,3.2-41.2,1.9c-15.4-1.4-30.7-3.6-45.9-6.7
		c-7.5-1.5-15.2-3.4-21.3-8.1c-7.4-5.7-11.3-14.8-14.8-23.6c-5.3-13.7-10.2-28-10.2-42.7c0-14.7,5.5-30.2,17.3-38.8
		c2.5-1.8,5.4-3.4,7.3-5.9"/>
	<path fill="none" stroke="#F29FC5" stroke-width="4" stroke-linecap="round" stroke-linejoin="round" d="M81.2,115.1
		c-1-18.1-17.1-32.9-16.9-51c23.5,8.5,47.8,17.5,65.5,35.4c22-6.2,46.2-4.4,67,5.1c2.9-7,8.5-12.5,14-17.6
		c10.7-10.1,21.5-20,32.3-30c-1.1,19.9-4,39.7-8.7,59.1c8.7,5.8,11.4,17.4,13.1,27.8c1.9,12.2,3.4,24.8,0.9,37
		c-3.5,17.5-14.9,32.6-28.6,43.8c-9.2,7.5-19.7,13.6-31.1,16.8c-13.4,3.7-27.5,3.2-41.2,1.9c-15.4-1.4-30.7-3.6-45.9-6.7
		c-7.5-1.5-15.2-3.4-21.3-8.1c-7.4-5.7-11.3-14.8-14.8-23.6c-5.3-13.7-10.2-28-10.2-42.7c0-14.7,5.5-30.2,17.3-38.8
		c2.5-1.8,5.4-3.4,7.3-5.9"/>
	<path fill="none" stroke="#F4B8D4" stroke-width="2.5" stroke-linecap="round" stroke-linejoin="round" d="M81.2,115.1
		c-1-18.1-17.1-32.9-16.9-51c23.5,8.5,47.8,17.5,65.5,35.4c22-6.2,46.2-4.4,67,5.1c2.9-7,8.5-12.5,14-17.6
		c10.7-10.1,21.5-20,32.3-30c-1.1,19.9-4,39.7-8.7,59.1c8.7,5.8,11.4,17.4,13.1,27.8c1.9,12.2,3.4,24.8,0.9,37
		c-3.5,17.5-14.9,32.6-28.6,43.8c-9.2,7.5-19.7,13.6-31.1,16.8c-13.4,3.7-27.5,3.2-41.2,1.9c-15.4-1.4-30.7-3.6-45.9-6.7
		c-7.5-1.5-15.2-3.4-21.3-8.1c-7.4-5.7-11.3-14.8-14.8-23.6c-5.3-13.7-10.2-28-10.2-42.7c0-14.7,5.5-30.2,17.3-38.8
		c2.5-1.8,5.4-3.4,7.3-5.9"/>
	<path fill="none" stroke="#F7D2E4" stroke-linecap="round" stroke-linejoin="round" d="M81.2,115.1c-1-18.1-17.1-32.9-16.9-51
		c23.5,8.5,47.8,17.5,65.5,35.4c22-6.2,46.2-4.4,67,5.1c2.9-7,8.5-12.5,14-17.6c10.7-10.1,21.5-20,32.3-30
		c-1.1,19.9-4,39.7-8.7,59.1c8.7,5.8,11.4,17.4,13.1,27.8c1.9,12.2,3.4,24.8,0.9,37c-3.5,17.5-14.9,32.6-28.6,43.8
		c-9.2,7.5-19.7,13.6-31.1,16.8c-13.4,3.7-27.5,3.2-41.2,1.9c-15.4-1.4-30.7-3.6-45.9-6.7c-7.5-1.5-15.2-3.4-21.3-8.1
		c-7.4-5.7-11.3-14.8-14.8-23.6c-5.3-13.7-10.2-28-10.2-42.7c0-14.7,5.5-30.2,17.3-38.8c2.5-1.8,5.4-3.4,7.3-5.9"/>
</g>
<g>
	<path opacity="0.2" fill="none" stroke="#EB3B95" stroke-width="35" stroke-linecap="round" stroke-linejoin="round" d="
		M114.4,127.8c-4.3-1.8-9.3-0.2-13.1,2.5c-5.5,3.8-9.6,9.9-10.3,16.6c-0.7,6.7,2.3,13.9,8,17.4c4.5,2.7,10.1,3,15.3,2.8
		c4.5-0.2,9.2-0.8,13.1-3.2c2.2-1.4,4-3.3,5.5-5.5c3-4.5,4.5-10.3,3.5-15.6s-4.6-10.3-9.5-12.5c-4.2-1.9-9-1.8-13.5-1.6"/>
	<path opacity="0.25" fill="none" stroke="#EB3B95" stroke-width="8.5" stroke-linecap="round" stroke-linejoin="round" d="
		M114.4,127.8c-4.3-1.8-9.3-0.2-13.1,2.5c-5.5,3.8-9.6,9.9-10.3,16.6c-0.7,6.7,2.3,13.9,8,17.4c4.5,2.7,10.1,3,15.3,2.8
		c4.5-0.2,9.2-0.8,13.1-3.2c2.2-1.4,4-3.3,5.5-5.5c3-4.5,4.5-10.3,3.5-15.6s-4.6-10.3-9.5-12.5c-4.2-1.9-9-1.8-13.5-1.6"/>
	<path opacity="0.3" fill="none" stroke="#EB3B95" stroke-width="5" stroke-linecap="round" stroke-linejoin="round" d="
		M114.4,127.8c-4.3-1.8-9.3-0.2-13.1,2.5c-5.5,3.8-9.6,9.9-10.3,16.6c-0.7,6.7,2.3,13.9,8,17.4c4.5,2.7,10.1,3,15.3,2.8
		c4.5-0.2,9.2-0.8,13.1-3.2c2.2-1.4,4-3.3,5.5-5.5c3-4.5,4.5-10.3,3.5-15.6s-4.6-10.3-9.5-12.5c-4.2-1.9-9-1.8-13.5-1.6"/>
	<path fill="none" stroke="#ED66A6" stroke-width="7" stroke-linecap="round" stroke-linejoin="round" d="M114.4,127.8
		c-4.3-1.8-9.3-0.2-13.1,2.5c-5.5,3.8-9.6,9.9-10.3,16.6c-0.7,6.7,2.3,13.9,8,17.4c4.5,2.7,10.1,3,15.3,2.8
		c4.5-0.2,9.2-0.8,13.1-3.2c2.2-1.4,4-3.3,5.5-5.5c3-4.5,4.5-10.3,3.5-15.6s-4.6-10.3-9.5-12.5c-4.2-1.9-9-1.8-13.5-1.6"/>
	<path fill="none" stroke="#F085B5" stroke-width="5.5" stroke-linecap="round" stroke-linejoin="round" d="M114.4,127.8
		c-4.3-1.8-9.3-0.2-13.1,2.5c-5.5,3.8-9.6,9.9-10.3,16.6c-0.7,6.7,2.3,13.9,8,17.4c4.5,2.7,10.1,3,15.3,2.8
		c4.5-0.2,9.2-0.8,13.1-3.2c2.2-1.4,4-3.3,5.5-5.5c3-4.5,4.5-10.3,3.5-15.6s-4.6-10.3-9.5-12.5c-4.2-1.9-9-1.8-13.5-1.6"/>
	<path fill="none" stroke="#F29FC5" stroke-width="4" stroke-linecap="round" stroke-linejoin="round" d="M114.4,127.8
		c-4.3-1.8-9.3-0.2-13.1,2.5c-5.5,3.8-9.6,9.9-10.3,16.6c-0.7,6.7,2.3,13.9,8,17.4c4.5,2.7,10.1,3,15.3,2.8
		c4.5-0.2,9.2-0.8,13.1-3.2c2.2-1.4,4-3.3,5.5-5.5c3-4.5,4.5-10.3,3.5-15.6s-4.6-10.3-9.5-12.5c-4.2-1.9-9-1.8-13.5-1.6"/>
	<path fill="none" stroke="#F4B8D4" stroke-width="2.5" stroke-linecap="round" stroke-linejoin="round" d="M114.4,127.8
		c-4.3-1.8-9.3-0.2-13.1,2.5c-5.5,3.8-9.6,9.9-10.3,16.6c-0.7,6.7,2.3,13.9,8,17.4c4.5,2.7,10.1,3,15.3,2.8
		c4.5-0.2,9.2-0.8,13.1-3.2c2.2-1.4,4-3.3,5.5-5.5c3-4.5,4.5-10.3,3.5-15.6s-4.6-10.3-9.5-12.5c-4.2-1.9-9-1.8-13.5-1.6"/>
	<path fill="none" stroke="#F7D2E4" stroke-linecap="round" stroke-linejoin="round" d="M114.4,127.8c-4.3-1.8-9.3-0.2-13.1,2.5
		c-5.5,3.8-9.6,9.9-10.3,16.6c-0.7,6.7,2.3,13.9,8,17.4c4.5,2.7,10.1,3,15.3,2.8c4.5-0.2,9.2-0.8,13.1-3.2c2.2-1.4,4-3.3,5.5-5.5
		c3-4.5,4.5-10.3,3.5-15.6s-4.6-10.3-9.5-12.5c-4.2-1.9-9-1.8-13.5-1.6"/>
</g>
<g>
	<path opacity="0.2" fill="none" stroke="#EB3B95" stroke-width="35" stroke-linecap="round" stroke-linejoin="round" d="
		M196.8,128.7c-10.6-1.5-21.2,6.7-23.9,17.2c-0.7,2.5-0.9,5.2-0.4,7.8c1.2,6.1,6.4,10.7,12.2,12.8c3.5,1.3,7.3,1.9,11,1.6
		c7.2-0.5,14.4-4.3,18.2-10.6c3.8-6.3,3.7-15.1-1-20.7c-2.1-2.5-4.8-4.3-7.6-5.9c-3.3-2-7.4-3.9-10.8-2.2"/>
	<path opacity="0.25" fill="none" stroke="#EB3B95" stroke-width="8.5" stroke-linecap="round" stroke-linejoin="round" d="
		M196.8,128.7c-10.6-1.5-21.2,6.7-23.9,17.2c-0.7,2.5-0.9,5.2-0.4,7.8c1.2,6.1,6.4,10.7,12.2,12.8c3.5,1.3,7.3,1.9,11,1.6
		c7.2-0.5,14.4-4.3,18.2-10.6c3.8-6.3,3.7-15.1-1-20.7c-2.1-2.5-4.8-4.3-7.6-5.9c-3.3-2-7.4-3.9-10.8-2.2"/>
	<path opacity="0.3" fill="none" stroke="#EB3B95" stroke-width="5" stroke-linecap="round" stroke-linejoin="round" d="
		M196.8,128.7c-10.6-1.5-21.2,6.7-23.9,17.2c-0.7,2.5-0.9,5.2-0.4,7.8c1.2,6.1,6.4,10.7,12.2,12.8c3.5,1.3,7.3,1.9,11,1.6
		c7.2-0.5,14.4-4.3,18.2-10.6c3.8-6.3,3.7-15.1-1-20.7c-2.1-2.5-4.8-4.3-7.6-5.9c-3.3-2-7.4-3.9-10.8-2.2"/>
	<path fill="none" stroke="#ED66A6" stroke-width="7" stroke-linecap="round" stroke-linejoin="round" d="M196.8,128.7
		c-10.6-1.5-21.2,6.7-23.9,17.2c-0.7,2.5-0.9,5.2-0.4,7.8c1.2,6.1,6.4,10.7,12.2,12.8c3.5,1.3,7.3,1.9,11,1.6
		c7.2-0.5,14.4-4.3,18.2-10.6c3.8-6.3,3.7-15.1-1-20.7c-2.1-2.5-4.8-4.3-7.6-5.9c-3.3-2-7.4-3.9-10.8-2.2"/>
	<path fill="none" stroke="#F085B5" stroke-width="5.5" stroke-linecap="round" stroke-linejoin="round" d="M196.8,128.7
		c-10.6-1.5-21.2,6.7-23.9,17.2c-0.7,2.5-0.9,5.2-0.4,7.8c1.2,6.1,6.4,10.7,12.2,12.8c3.5,1.3,7.3,1.9,11,1.6
		c7.2-0.5,14.4-4.3,18.2-10.6c3.8-6.3,3.7-15.1-1-20.7c-2.1-2.5-4.8-4.3-7.6-5.9c-3.3-2-7.4-3.9-10.8-2.2"/>
	<path fill="none" stroke="#F29FC5" stroke-width="4" stroke-linecap="round" stroke-linejoin="round" d="M196.8,128.7
		c-10.6-1.5-21.2,6.7-23.9,17.2c-0.7,2.5-0.9,5.2-0.4,7.8c1.2,6.1,6.4,10.7,12.2,12.8c3.5,1.3,7.3,1.9,11,1.6
		c7.2-0.5,14.4-4.3,18.2-10.6c3.8-6.3,3.7-15.1-1-20.7c-2.1-2.5-4.8-4.3-7.6-5.9c-3.3-2-7.4-3.9-10.8-2.2"/>
	<path fill="none" stroke="#F4B8D4" stroke-width="2.5" stroke-linecap="round" stroke-linejoin="round" d="M196.8,128.7
		c-10.6-1.5-21.2,6.7-23.9,17.2c-0.7,2.5-0.9,5.2-0.4,7.8c1.2,6.1,6.4,10.7,12.2,12.8c3.5,1.3,7.3,1.9,11,1.6
		c7.2-0.5,14.4-4.3,18.2-10.6c3.8-6.3,3.7-15.1-1-20.7c-2.1-2.5-4.8-4.3-7.6-5.9c-3.3-2-7.4-3.9-10.8-2.2"/>
	<path fill="none" stroke="#F7D2E4" stroke-linecap="round" stroke-linejoin="round" d="M196.8,128.7c-10.6-1.5-21.2,6.7-23.9,17.2
		c-0.7,2.5-0.9,5.2-0.4,7.8c1.2,6.1,6.4,10.7,12.2,12.8c3.5,1.3,7.3,1.9,11,1.6c7.2-0.5,14.4-4.3,18.2-10.6c3.8-6.3,3.7-15.1-1-20.7
		c-2.1-2.5-4.8-4.3-7.6-5.9c-3.3-2-7.4-3.9-10.8-2.2"/>
</g>
<g>
	<path opacity="0.2" fill="none" stroke="#EB3B95" stroke-width="35" stroke-linecap="round" stroke-linejoin="round" d="
		M139.3,185.2c3,4.1,6.4,8,10,11.6c0.8,0.7,1.6,1.5,2.7,1.7c0.8,0.1,1.6-0.2,2.4-0.5c5.2-2.5,8-8.2,9.9-13.7c0.1-0.3,0.2-0.6,0-0.9
		s-0.7,0-0.5,0.3"/>
	<path opacity="0.25" fill="none" stroke="#EB3B95" stroke-width="8.5" stroke-linecap="round" stroke-linejoin="round" d="
		M139.3,185.2c3,4.1,6.4,8,10,11.6c0.8,0.7,1.6,1.5,2.7,1.7c0.8,0.1,1.6-0.2,2.4-0.5c5.2-2.5,8-8.2,9.9-13.7c0.1-0.3,0.2-0.6,0-0.9
		s-0.7,0-0.5,0.3"/>
	<path opacity="0.3" fill="none" stroke="#EB3B95" stroke-width="5" stroke-linecap="round" stroke-linejoin="round" d="
		M139.3,185.2c3,4.1,6.4,8,10,11.6c0.8,0.7,1.6,1.5,2.7,1.7c0.8,0.1,1.6-0.2,2.4-0.5c5.2-2.5,8-8.2,9.9-13.7c0.1-0.3,0.2-0.6,0-0.9
		s-0.7,0-0.5,0.3"/>
	<path fill="none" stroke="#ED66A6" stroke-width="7" stroke-linecap="round" stroke-linejoin="round" d="M139.3,185.2
		c3,4.1,6.4,8,10,11.6c0.8,0.7,1.6,1.5,2.7,1.7c0.8,0.1,1.6-0.2,2.4-0.5c5.2-2.5,8-8.2,9.9-13.7c0.1-0.3,0.2-0.6,0-0.9
		s-0.7,0-0.5,0.3"/>
	<path fill="none" stroke="#F085B5" stroke-width="5.5" stroke-linecap="round" stroke-linejoin="round" d="M139.3,185.2
		c3,4.1,6.4,8,10,11.6c0.8,0.7,1.6,1.5,2.7,1.7c0.8,0.1,1.6-0.2,2.4-0.5c5.2-2.5,8-8.2,9.9-13.7c0.1-0.3,0.2-0.6,0-0.9
		s-0.7,0-0.5,0.3"/>
	<path fill="none" stroke="#F29FC5" stroke-width="4" stroke-linecap="round" stroke-linejoin="round" d="M139.3,185.2
		c3,4.1,6.4,8,10,11.6c0.8,0.7,1.6,1.5,2.7,1.7c0.8,0.1,1.6-0.2,2.4-0.5c5.2-2.5,8-8.2,9.9-13.7c0.1-0.3,0.2-0.6,0-0.9
		s-0.7,0-0.5,0.3"/>
	<path fill="none" stroke="#F4B8D4" stroke-width="2.5" stroke-linecap="round" stroke-linejoin="round" d="M139.3,185.2
		c3,4.1,6.4,8,10,11.6c0.8,0.7,1.6,1.5,2.7,1.7c0.8,0.1,1.6-0.2,2.4-0.5c5.2-2.5,8-8.2,9.9-13.7c0.1-0.3,0.2-0.6,0-0.9
		s-0.7,0-0.5,0.3"/>
	<path fill="none" stroke="#F7D2E4" stroke-linecap="round" stroke-linejoin="round" d="M139.3,185.2c3,4.1,6.4,8,10,11.6
		c0.8,0.7,1.6,1.5,2.7,1.7c0.8,0.1,1.6-0.2,2.4-0.5c5.2-2.5,8-8.2,9.9-13.7c0.1-0.3,0.2-0.6,0-0.9s-0.7,0-0.5,0.3"/>
</g>
<g>
	<path opacity="0.2" fill="none" stroke="#EB3B95" stroke-width="35" stroke-linecap="round" stroke-linejoin="round" d="
		M112.3,219.1c6.2,6.1,16,8,24,4.6s13.6-11.8,13.7-20.6c0.5,8.6,6.4,16.2,13.9,20.1c4.1,2.1,8.8,3.1,13.4,2.5
		c5.9-0.7,11.1-3.8,16.2-6.8c0.3-0.1,0.6-0.3,0.8,0s-0.5,0.4-0.3,0.1"/>
	<path opacity="0.25" fill="none" stroke="#EB3B95" stroke-width="8.5" stroke-linecap="round" stroke-linejoin="round" d="
		M112.3,219.1c6.2,6.1,16,8,24,4.6s13.6-11.8,13.7-20.6c0.5,8.6,6.4,16.2,13.9,20.1c4.1,2.1,8.8,3.1,13.4,2.5
		c5.9-0.7,11.1-3.8,16.2-6.8c0.3-0.1,0.6-0.3,0.8,0s-0.5,0.4-0.3,0.1"/>
	<path opacity="0.3" fill="none" stroke="#EB3B95" stroke-width="5" stroke-linecap="round" stroke-linejoin="round" d="
		M112.3,219.1c6.2,6.1,16,8,24,4.6s13.6-11.8,13.7-20.6c0.5,8.6,6.4,16.2,13.9,20.1c4.1,2.1,8.8,3.1,13.4,2.5
		c5.9-0.7,11.1-3.8,16.2-6.8c0.3-0.1,0.6-0.3,0.8,0s-0.5,0.4-0.3,0.1"/>
	<path fill="none" stroke="#ED66A6" stroke-width="7" stroke-linecap="round" stroke-linejoin="round" d="M112.3,219.1
		c6.2,6.1,16,8,24,4.6s13.6-11.8,13.7-20.6c0.5,8.6,6.4,16.2,13.9,20.1c4.1,2.1,8.8,3.1,13.4,2.5c5.9-0.7,11.1-3.8,16.2-6.8
		c0.3-0.1,0.6-0.3,0.8,0s-0.5,0.4-0.3,0.1"/>
	<path fill="none" stroke="#F085B5" stroke-width="5.5" stroke-linecap="round" stroke-linejoin="round" d="M112.3,219.1
		c6.2,6.1,16,8,24,4.6s13.6-11.8,13.7-20.6c0.5,8.6,6.4,16.2,13.9,20.1c4.1,2.1,8.8,3.1,13.4,2.5c5.9-0.7,11.1-3.8,16.2-6.8
		c0.3-0.1,0.6-0.3,0.8,0s-0.5,0.4-0.3,0.1"/>
	<path fill="none" stroke="#F29FC5" stroke-width="4" stroke-linecap="round" stroke-linejoin="round" d="M112.3,219.1
		c6.2,6.1,16,8,24,4.6s13.6-11.8,13.7-20.6c0.5,8.6,6.4,16.2,13.9,20.1c4.1,2.1,8.8,3.1,13.4,2.5c5.9-0.7,11.1-3.8,16.2-6.8
		c0.3-0.1,0.6-0.3,0.8,0s-0.5,0.4-0.3,0.1"/>
	<path fill="none" stroke="#F4B8D4" stroke-width="2.5" stroke-linecap="round" stroke-linejoin="round" d="M112.3,219.1
		c6.2,6.1,16,8,24,4.6s13.6-11.8,13.7-20.6c0.5,8.6,6.4,16.2,13.9,20.1c4.1,2.1,8.8,3.1,13.4,2.5c5.9-0.7,11.1-3.8,16.2-6.8
		c0.3-0.1,0.6-0.3,0.8,0s-0.5,0.4-0.3,0.1"/>
	<path fill="none" stroke="#F7D2E4" stroke-linecap="round" stroke-linejoin="round" d="M112.3,219.1c6.2,6.1,16,8,24,4.6
		s13.6-11.8,13.7-20.6c0.5,8.6,6.4,16.2,13.9,20.1c4.1,2.1,8.8,3.1,13.4,2.5c5.9-0.7,11.1-3.8,16.2-6.8c0.3-0.1,0.6-0.3,0.8,0
		s-0.5,0.4-0.3,0.1"/>
</g>
<g>
	<path opacity="0.2" fill="none" stroke="#EB3B95" stroke-width="35" stroke-linecap="round" stroke-linejoin="round" d="
		M104.7,188.7c-26.8,0.9-53.6,5.1-79.4,12.5c-0.6,0.2-1.3,0.5-1.3,1.2c0,0.6,1.3,0.3,0.9-0.1"/>
	<path opacity="0.25" fill="none" stroke="#EB3B95" stroke-width="8.5" stroke-linecap="round" stroke-linejoin="round" d="
		M104.7,188.7c-26.8,0.9-53.6,5.1-79.4,12.5c-0.6,0.2-1.3,0.5-1.3,1.2c0,0.6,1.3,0.3,0.9-0.1"/>
	<path opacity="0.3" fill="none" stroke="#EB3B95" stroke-width="5" stroke-linecap="round" stroke-linejoin="round" d="
		M104.7,188.7c-26.8,0.9-53.6,5.1-79.4,12.5c-0.6,0.2-1.3,0.5-1.3,1.2c0,0.6,1.3,0.3,0.9-0.1"/>
	<path fill="none" stroke="#ED66A6" stroke-width="7" stroke-linecap="round" stroke-linejoin="round" d="M104.7,188.7
		c-26.8,0.9-53.6,5.1-79.4,12.5c-0.6,0.2-1.3,0.5-1.3,1.2c0,0.6,1.3,0.3,0.9-0.1"/>
	<path fill="none" stroke="#F085B5" stroke-width="5.5" stroke-linecap="round" stroke-linejoin="round" d="M104.7,188.7
		c-26.8,0.9-53.6,5.1-79.4,12.5c-0.6,0.2-1.3,0.5-1.3,1.2c0,0.6,1.3,0.3,0.9-0.1"/>
	<path fill="none" stroke="#F29FC5" stroke-width="4" stroke-linecap="round" stroke-linejoin="round" d="M104.7,188.7
		c-26.8,0.9-53.6,5.1-79.4,12.5c-0.6,0.2-1.3,0.5-1.3,1.2c0,0.6,1.3,0.3,0.9-0.1"/>
	<path fill="none" stroke="#F4B8D4" stroke-width="2.5" stroke-linecap="round" stroke-linejoin="round" d="M104.7,188.7
		c-26.8,0.9-53.6,5.1-79.4,12.5c-0.6,0.2-1.3,0.5-1.3,1.2c0,0.6,1.3,0.3,0.9-0.1"/>
	<path fill="none" stroke="#F7D2E4" stroke-linecap="round" stroke-linejoin="round" d="M104.7,188.7c-26.8,0.9-53.6,5.1-79.4,12.5
		c-0.6,0.2-1.3,0.5-1.3,1.2c0,0.6,1.3,0.3,0.9-0.1"/>
</g>
<g>
	<path opacity="0.2" fill="none" stroke="#EB3B95" stroke-width="35" stroke-linecap="round" stroke-linejoin="round" d="
		M93.9,199.7c-6.4,3.9-12.7,7.9-19.1,11.8c-12.2,7.6-24.6,15.3-34.6,25.8"/>
	<path opacity="0.25" fill="none" stroke="#EB3B95" stroke-width="8.5" stroke-linecap="round" stroke-linejoin="round" d="
		M93.9,199.7c-6.4,3.9-12.7,7.9-19.1,11.8c-12.2,7.6-24.6,15.3-34.6,25.8"/>
	<path opacity="0.3" fill="none" stroke="#EB3B95" stroke-width="5" stroke-linecap="round" stroke-linejoin="round" d="M93.9,199.7
		c-6.4,3.9-12.7,7.9-19.1,11.8c-12.2,7.6-24.6,15.3-34.6,25.8"/>
	<path fill="none" stroke="#ED66A6" stroke-width="7" stroke-linecap="round" stroke-linejoin="round" d="M93.9,199.7
		c-6.4,3.9-12.7,7.9-19.1,11.8c-12.2,7.6-24.6,15.3-34.6,25.8"/>
	<path fill="none" stroke="#F085B5" stroke-width="5.5" stroke-linecap="round" stroke-linejoin="round" d="M93.9,199.7
		c-6.4,3.9-12.7,7.9-19.1,11.8c-12.2,7.6-24.6,15.3-34.6,25.8"/>
	<path fill="none" stroke="#F29FC5" stroke-width="4" stroke-linecap="round" stroke-linejoin="round" d="M93.9,199.7
		c-6.4,3.9-12.7,7.9-19.1,11.8c-12.2,7.6-24.6,15.3-34.6,25.8"/>
	<path fill="none" stroke="#F4B8D4" stroke-width="2.5" stroke-linecap="round" stroke-linejoin="round" d="M93.9,199.7
		c-6.4,3.9-12.7,7.9-19.1,11.8c-12.2,7.6-24.6,15.3-34.6,25.8"/>
	<path fill="none" stroke="#F7D2E4" stroke-linecap="round" stroke-linejoin="round" d="M93.9,199.7c-6.4,3.9-12.7,7.9-19.1,11.8
		c-12.2,7.6-24.6,15.3-34.6,25.8"/>
</g>
<g>
	<path opacity="0.2" fill="none" stroke="#EB3B95" stroke-width="35" stroke-linecap="round" stroke-linejoin="round" d="
		M93.9,219.1c-7.2,9.2-12,20.3-14,31.9c0.8-0.1,1.3-1.2,0.9-1.9"/>
	<path opacity="0.25" fill="none" stroke="#EB3B95" stroke-width="8.5" stroke-linecap="round" stroke-linejoin="round" d="
		M93.9,219.1c-7.2,9.2-12,20.3-14,31.9c0.8-0.1,1.3-1.2,0.9-1.9"/>
	<path opacity="0.3" fill="none" stroke="#EB3B95" stroke-width="5" stroke-linecap="round" stroke-linejoin="round" d="M93.9,219.1
		c-7.2,9.2-12,20.3-14,31.9c0.8-0.1,1.3-1.2,0.9-1.9"/>
	<path fill="none" stroke="#ED66A6" stroke-width="7" stroke-linecap="round" stroke-linejoin="round" d="M93.9,219.1
		c-7.2,9.2-12,20.3-14,31.9c0.8-0.1,1.3-1.2,0.9-1.9"/>
	<path fill="none" stroke="#F085B5" stroke-width="5.5" stroke-linecap="round" stroke-linejoin="round" d="M93.9,219.1
		c-7.2,9.2-12,20.3-14,31.9c0.8-0.1,1.3-1.2,0.9-1.9"/>
	<path fill="none" stroke="#F29FC5" stroke-width="4" stroke-linecap="round" stroke-linejoin="round" d="M93.9,219.1
		c-7.2,9.2-12,20.3-14,31.9c0.8-0.1,1.3-1.2,0.9-1.9"/>
	<path fill="none" stroke="#F4B8D4" stroke-width="2.5" stroke-linecap="round" stroke-linejoin="round" d="M93.9,219.1
		c-7.2,9.2-12,20.3-14,31.9c0.8-0.1,1.3-1.2,0.9-1.9"/>
	<path fill="none" stroke="#F7D2E4" stroke-linecap="round" stroke-linejoin="round" d="M93.9,219.1c-7.2,9.2-12,20.3-14,31.9
		c0.8-0.1,1.3-1.2,0.9-1.9"/>
</g>
<g>
	<path opacity="0.2" fill="none" stroke="#EB3B95" stroke-width="35" stroke-linecap="round" stroke-linejoin="round" d="
		M189.4,191.2c26.8-12.6,56.1-19.6,85.6-20.2c-0.8,0.5-1.6,1-2.4,1.4"/>
	<path opacity="0.25" fill="none" stroke="#EB3B95" stroke-width="8.5" stroke-linecap="round" stroke-linejoin="round" d="
		M189.4,191.2c26.8-12.6,56.1-19.6,85.6-20.2c-0.8,0.5-1.6,1-2.4,1.4"/>
	<path opacity="0.3" fill="none" stroke="#EB3B95" stroke-width="5" stroke-linecap="round" stroke-linejoin="round" d="
		M189.4,191.2c26.8-12.6,56.1-19.6,85.6-20.2c-0.8,0.5-1.6,1-2.4,1.4"/>
	<path fill="none" stroke="#ED66A6" stroke-width="7" stroke-linecap="round" stroke-linejoin="round" d="M189.4,191.2
		c26.8-12.6,56.1-19.6,85.6-20.2c-0.8,0.5-1.6,1-2.4,1.4"/>
	<path fill="none" stroke="#F085B5" stroke-width="5.5" stroke-linecap="round" stroke-linejoin="round" d="M189.4,191.2
		c26.8-12.6,56.1-19.6,85.6-20.2c-0.8,0.5-1.6,1-2.4,1.4"/>
	<path fill="none" stroke="#F29FC5" stroke-width="4" stroke-linecap="round" stroke-linejoin="round" d="M189.4,191.2
		c26.8-12.6,56.1-19.6,85.6-20.2c-0.8,0.5-1.6,1-2.4,1.4"/>
	<path fill="none" stroke="#F4B8D4" stroke-width="2.5" stroke-linecap="round" stroke-linejoin="round" d="M189.4,191.2
		c26.8-12.6,56.1-19.6,85.6-20.2c-0.8,0.5-1.6,1-2.4,1.4"/>
	<path fill="none" stroke="#F7D2E4" stroke-linecap="round" stroke-linejoin="round" d="M189.4,191.2c26.8-12.6,56.1-19.6,85.6-20.2
		c-0.8,0.5-1.6,1-2.4,1.4"/>
</g>
<g>
	<path opacity="0.2" fill="none" stroke="#EB3B95" stroke-width="35" stroke-linecap="round" stroke-linejoin="round" d="
		M213.5,199.5c0.3-0.4-0.8-0.3-0.6,0.2c0.2,0.5,0.8,0.4,1.3,0.3c16.1-3.5,32.9-2.6,49.3-1.6c5.6,0.3,11.3,0.7,16.5,2.9
		c-1.3,0.1-2.5,0.2-3.8,0.2"/>
	<path opacity="0.25" fill="none" stroke="#EB3B95" stroke-width="8.5" stroke-linecap="round" stroke-linejoin="round" d="
		M213.5,199.5c0.3-0.4-0.8-0.3-0.6,0.2c0.2,0.5,0.8,0.4,1.3,0.3c16.1-3.5,32.9-2.6,49.3-1.6c5.6,0.3,11.3,0.7,16.5,2.9
		c-1.3,0.1-2.5,0.2-3.8,0.2"/>
	<path opacity="0.3" fill="none" stroke="#EB3B95" stroke-width="5" stroke-linecap="round" stroke-linejoin="round" d="
		M213.5,199.5c0.3-0.4-0.8-0.3-0.6,0.2c0.2,0.5,0.8,0.4,1.3,0.3c16.1-3.5,32.9-2.6,49.3-1.6c5.6,0.3,11.3,0.7,16.5,2.9
		c-1.3,0.1-2.5,0.2-3.8,0.2"/>
	<path fill="none" stroke="#ED66A6" stroke-width="7" stroke-linecap="round" stroke-linejoin="round" d="M213.5,199.5
		c0.3-0.4-0.8-0.3-0.6,0.2c0.2,0.5,0.8,0.4,1.3,0.3c16.1-3.5,32.9-2.6,49.3-1.6c5.6,0.3,11.3,0.7,16.5,2.9c-1.3,0.1-2.5,0.2-3.8,0.2
		"/>
	<path fill="none" stroke="#F085B5" stroke-width="5.5" stroke-linecap="round" stroke-linejoin="round" d="M213.5,199.5
		c0.3-0.4-0.8-0.3-0.6,0.2c0.2,0.5,0.8,0.4,1.3,0.3c16.1-3.5,32.9-2.6,49.3-1.6c5.6,0.3,11.3,0.7,16.5,2.9c-1.3,0.1-2.5,0.2-3.8,0.2
		"/>
	<path fill="none" stroke="#F29FC5" stroke-width="4" stroke-linecap="round" stroke-linejoin="round" d="M213.5,199.5
		c0.3-0.4-0.8-0.3-0.6,0.2c0.2,0.5,0.8,0.4,1.3,0.3c16.1-3.5,32.9-2.6,49.3-1.6c5.6,0.3,11.3,0.7,16.5,2.9c-1.3,0.1-2.5,0.2-3.8,0.2
		"/>
	<path fill="none" stroke="#F4B8D4" stroke-width="2.5" stroke-linecap="round" stroke-linejoin="round" d="M213.5,199.5
		c0.3-0.4-0.8-0.3-0.6,0.2c0.2,0.5,0.8,0.4,1.3,0.3c16.1-3.5,32.9-2.6,49.3-1.6c5.6,0.3,11.3,0.7,16.5,2.9c-1.3,0.1-2.5,0.2-3.8,0.2
		"/>
	<path fill="none" stroke="#F7D2E4" stroke-linecap="round" stroke-linejoin="round" d="M213.5,199.5c0.3-0.4-0.8-0.3-0.6,0.2
		c0.2,0.5,0.8,0.4,1.3,0.3c16.1-3.5,32.9-2.6,49.3-1.6c5.6,0.3,11.3,0.7,16.5,2.9c-1.3,0.1-2.5,0.2-3.8,0.2"/>
</g>
<g>
	<path opacity="0.2" fill="none" stroke="#EB3B95" stroke-width="35" stroke-linecap="round" stroke-linejoin="round" d="
		M209.1,214.7c10.6,2.5,21.1,5.5,31.5,8.9c8.6,2.9,17.3,6.1,24.6,11.7c-0.4-0.6-0.7-1.3-1.1-1.9"/>
	<path opacity="0.25" fill="none" stroke="#EB3B95" stroke-width="8.5" stroke-linecap="round" stroke-linejoin="round" d="
		M209.1,214.7c10.6,2.5,21.1,5.5,31.5,8.9c8.6,2.9,17.3,6.1,24.6,11.7c-0.4-0.6-0.7-1.3-1.1-1.9"/>
	<path opacity="0.3" fill="none" stroke="#EB3B95" stroke-width="5" stroke-linecap="round" stroke-linejoin="round" d="
		M209.1,214.7c10.6,2.5,21.1,5.5,31.5,8.9c8.6,2.9,17.3,6.1,24.6,11.7c-0.4-0.6-0.7-1.3-1.1-1.9"/>
	<path fill="none" stroke="#ED66A6" stroke-width="7" stroke-linecap="round" stroke-linejoin="round" d="M209.1,214.7
		c10.6,2.5,21.1,5.5,31.5,8.9c8.6,2.9,17.3,6.1,24.6,11.7c-0.4-0.6-0.7-1.3-1.1-1.9"/>
	<path fill="none" stroke="#F085B5" stroke-width="5.5" stroke-linecap="round" stroke-linejoin="round" d="M209.1,214.7
		c10.6,2.5,21.1,5.5,31.5,8.9c8.6,2.9,17.3,6.1,24.6,11.7c-0.4-0.6-0.7-1.3-1.1-1.9"/>
	<path fill="none" stroke="#F29FC5" stroke-width="4" stroke-linecap="round" stroke-linejoin="round" d="M209.1,214.7
		c10.6,2.5,21.1,5.5,31.5,8.9c8.6,2.9,17.3,6.1,24.6,11.7c-0.4-0.6-0.7-1.3-1.1-1.9"/>
	<path fill="none" stroke="#F4B8D4" stroke-width="2.5" stroke-linecap="round" stroke-linejoin="round" d="M209.1,214.7
		c10.6,2.5,21.1,5.5,31.5,8.9c8.6,2.9,17.3,6.1,24.6,11.7c-0.4-0.6-0.7-1.3-1.1-1.9"/>
	<path fill="none" stroke="#F7D2E4" stroke-linecap="round" stroke-linejoin="round" d="M209.1,214.7c10.6,2.5,21.1,5.5,31.5,8.9
		c8.6,2.9,17.3,6.1,24.6,11.7c-0.4-0.6-0.7-1.3-1.1-1.9"/>
</g>
<g>
	<path opacity="0.2" fill="none" stroke="#EB3B95" stroke-width="35" stroke-linecap="round" stroke-linejoin="round" d="
		M192.5,143.1c-1.2,1.6-2.1,3.4-2.6,5.4c-0.4,1.5-0.5,3.2,0,4.7c0.6,1.5,2,2.7,3.5,2.7c1.3-3.9,1.2-8.2-0.2-12
		c-0.3-0.7-1.3-1.5-1.6-0.7"/>
	<path opacity="0.25" fill="none" stroke="#EB3B95" stroke-width="8.5" stroke-linecap="round" stroke-linejoin="round" d="
		M192.5,143.1c-1.2,1.6-2.1,3.4-2.6,5.4c-0.4,1.5-0.5,3.2,0,4.7c0.6,1.5,2,2.7,3.5,2.7c1.3-3.9,1.2-8.2-0.2-12
		c-0.3-0.7-1.3-1.5-1.6-0.7"/>
	<path opacity="0.3" fill="none" stroke="#EB3B95" stroke-width="5" stroke-linecap="round" stroke-linejoin="round" d="
		M192.5,143.1c-1.2,1.6-2.1,3.4-2.6,5.4c-0.4,1.5-0.5,3.2,0,4.7c0.6,1.5,2,2.7,3.5,2.7c1.3-3.9,1.2-8.2-0.2-12
		c-0.3-0.7-1.3-1.5-1.6-0.7"/>
	<path fill="none" stroke="#ED66A6" stroke-width="7" stroke-linecap="round" stroke-linejoin="round" d="M192.5,143.1
		c-1.2,1.6-2.1,3.4-2.6,5.4c-0.4,1.5-0.5,3.2,0,4.7c0.6,1.5,2,2.7,3.5,2.7c1.3-3.9,1.2-8.2-0.2-12c-0.3-0.7-1.3-1.5-1.6-0.7"/>
	<path fill="none" stroke="#F085B5" stroke-width="5.5" stroke-linecap="round" stroke-linejoin="round" d="M192.5,143.1
		c-1.2,1.6-2.1,3.4-2.6,5.4c-0.4,1.5-0.5,3.2,0,4.7c0.6,1.5,2,2.7,3.5,2.7c1.3-3.9,1.2-8.2-0.2-12c-0.3-0.7-1.3-1.5-1.6-0.7"/>
	<path fill="none" stroke="#F29FC5" stroke-width="4" stroke-linecap="round" stroke-linejoin="round" d="M192.5,143.1
		c-1.2,1.6-2.1,3.4-2.6,5.4c-0.4,1.5-0.5,3.2,0,4.7c0.6,1.5,2,2.7,3.5,2.7c1.3-3.9,1.2-8.2-0.2-12c-0.3-0.7-1.3-1.5-1.6-0.7"/>
	<path fill="none" stroke="#F4B8D4" stroke-width="2.5" stroke-linecap="round" stroke-linejoin="round" d="M192.5,143.1
		c-1.2,1.6-2.1,3.4-2.6,5.4c-0.4,1.5-0.5,3.2,0,4.7c0.6,1.5,2,2.7,3.5,2.7c1.3-3.9,1.2-8.2-0.2-12c-0.3-0.7-1.3-1.5-1.6-0.7"/>
	<path fill="none" stroke="#F7D2E4" stroke-linecap="round" stroke-linejoin="round" d="M192.5,143.1c-1.2,1.6-2.1,3.4-2.6,5.4
		c-0.4,1.5-0.5,3.2,0,4.7c0.6,1.5,2,2.7,3.5,2.7c1.3-3.9,1.2-8.2-0.2-12c-0.3-0.7-1.3-1.5-1.6-0.7"/>
</g>
<g>
	<path opacity="0.2" fill="none" stroke="#EB3B95" stroke-width="35" stroke-linecap="round" stroke-linejoin="round" d="
		M111.9,143.2c-0.5,1.6-1,3.1-1.5,4.7c-0.4,1.2-0.8,2.6-0.4,3.8c0.3,1.2,1.8,2.3,2.9,1.7c0.9-0.5,1.2-1.6,1.3-2.7
		c0.4-3.1,0.1-6.3-0.6-9.3c-0.6,0-1.2,0.5-1.4,1.1"/>
	<path opacity="0.25" fill="none" stroke="#EB3B95" stroke-width="8.5" stroke-linecap="round" stroke-linejoin="round" d="
		M111.9,143.2c-0.5,1.6-1,3.1-1.5,4.7c-0.4,1.2-0.8,2.6-0.4,3.8c0.3,1.2,1.8,2.3,2.9,1.7c0.9-0.5,1.2-1.6,1.3-2.7
		c0.4-3.1,0.1-6.3-0.6-9.3c-0.6,0-1.2,0.5-1.4,1.1"/>
	<path opacity="0.3" fill="none" stroke="#EB3B95" stroke-width="5" stroke-linecap="round" stroke-linejoin="round" d="
		M111.9,143.2c-0.5,1.6-1,3.1-1.5,4.7c-0.4,1.2-0.8,2.6-0.4,3.8c0.3,1.2,1.8,2.3,2.9,1.7c0.9-0.5,1.2-1.6,1.3-2.7
		c0.4-3.1,0.1-6.3-0.6-9.3c-0.6,0-1.2,0.5-1.4,1.1"/>
	<path fill="none" stroke="#ED66A6" stroke-width="7" stroke-linecap="round" stroke-linejoin="round" d="M111.9,143.2
		c-0.5,1.6-1,3.1-1.5,4.7c-0.4,1.2-0.8,2.6-0.4,3.8c0.3,1.2,1.8,2.3,2.9,1.7c0.9-0.5,1.2-1.6,1.3-2.7c0.4-3.1,0.1-6.3-0.6-9.3
		c-0.6,0-1.2,0.5-1.4,1.1"/>
	<path fill="none" stroke="#F085B5" stroke-width="5.5" stroke-linecap="round" stroke-linejoin="round" d="M111.9,143.2
		c-0.5,1.6-1,3.1-1.5,4.7c-0.4,1.2-0.8,2.6-0.4,3.8c0.3,1.2,1.8,2.3,2.9,1.7c0.9-0.5,1.2-1.6,1.3-2.7c0.4-3.1,0.1-6.3-0.6-9.3
		c-0.6,0-1.2,0.5-1.4,1.1"/>
	<path fill="none" stroke="#F29FC5" stroke-width="4" stroke-linecap="round" stroke-linejoin="round" d="M111.9,143.2
		c-0.5,1.6-1,3.1-1.5,4.7c-0.4,1.2-0.8,2.6-0.4,3.8c0.3,1.2,1.8,2.3,2.9,1.7c0.9-0.5,1.2-1.6,1.3-2.7c0.4-3.1,0.1-6.3-0.6-9.3
		c-0.6,0-1.2,0.5-1.4,1.1"/>
	<path fill="none" stroke="#F4B8D4" stroke-width="2.5" stroke-linecap="round" stroke-linejoin="round" d="M111.9,143.2
		c-0.5,1.6-1,3.1-1.5,4.7c-0.4,1.2-0.8,2.6-0.4,3.8c0.3,1.2,1.8,2.3,2.9,1.7c0.9-0.5,1.2-1.6,1.3-2.7c0.4-3.1,0.1-6.3-0.6-9.3
		c-0.6,0-1.2,0.5-1.4,1.1"/>
	<path fill="none" stroke="#F7D2E4" stroke-linecap="round" stroke-linejoin="round" d="M111.9,143.2c-0.5,1.6-1,3.1-1.5,4.7
		c-0.4,1.2-0.8,2.6-0.4,3.8c0.3,1.2,1.8,2.3,2.9,1.7c0.9-0.5,1.2-1.6,1.3-2.7c0.4-3.1,0.1-6.3-0.6-9.3c-0.6,0-1.2,0.5-1.4,1.1"/>
</g>
<g>
	<path opacity="0.2" fill="none" stroke="#EB3B95" stroke-width="35" stroke-linecap="round" stroke-linejoin="round" d="M77.1,91.5
		c9.9,4.6,19.5,9.7,28.8,15.3c0.6,0.4,1.1,1.4,0.5,1.6"/>
	<path opacity="0.25" fill="none" stroke="#EB3B95" stroke-width="8.5" stroke-linecap="round" stroke-linejoin="round" d="
		M77.1,91.5c9.9,4.6,19.5,9.7,28.8,15.3c0.6,0.4,1.1,1.4,0.5,1.6"/>
	<path opacity="0.3" fill="none" stroke="#EB3B95" stroke-width="5" stroke-linecap="round" stroke-linejoin="round" d="M77.1,91.5
		c9.9,4.6,19.5,9.7,28.8,15.3c0.6,0.4,1.1,1.4,0.5,1.6"/>
	<path fill="none" stroke="#ED66A6" stroke-width="7" stroke-linecap="round" stroke-linejoin="round" d="M77.1,91.5
		c9.9,4.6,19.5,9.7,28.8,15.3c0.6,0.4,1.1,1.4,0.5,1.6"/>
	<path fill="none" stroke="#F085B5" stroke-width="5.5" stroke-linecap="round" stroke-linejoin="round" d="M77.1,91.5
		c9.9,4.6,19.5,9.7,28.8,15.3c0.6,0.4,1.1,1.4,0.5,1.6"/>
	<path fill="none" stroke="#F29FC5" stroke-width="4" stroke-linecap="round" stroke-linejoin="round" d="M77.1,91.5
		c9.9,4.6,19.5,9.7,28.8,15.3c0.6,0.4,1.1,1.4,0.5,1.6"/>
	<path fill="none" stroke="#F4B8D4" stroke-width="2.5" stroke-linecap="round" stroke-linejoin="round" d="M77.1,91.5
		c9.9,4.6,19.5,9.7,28.8,15.3c0.6,0.4,1.1,1.4,0.5,1.6"/>
	<path fill="none" stroke="#F7D2E4" stroke-linecap="round" stroke-linejoin="round" d="M77.1,91.5c9.9,4.6,19.5,9.7,28.8,15.3
		c0.6,0.4,1.1,1.4,0.5,1.6"/>
</g>
<g>
	<path opacity="0.2" fill="none" stroke="#EB3B95" stroke-width="35" stroke-linecap="round" stroke-linejoin="round" d="
		M215.4,110.9c6.5-4.8,13-9.6,19.6-14.4c0.3-0.2,0.6-0.5,0.4-0.8c-0.1-0.3-0.7,0.2-0.4,0.2"/>
	<path opacity="0.25" fill="none" stroke="#EB3B95" stroke-width="8.5" stroke-linecap="round" stroke-linejoin="round" d="
		M215.4,110.9c6.5-4.8,13-9.6,19.6-14.4c0.3-0.2,0.6-0.5,0.4-0.8c-0.1-0.3-0.7,0.2-0.4,0.2"/>
	<path opacity="0.3" fill="none" stroke="#EB3B95" stroke-width="5" stroke-linecap="round" stroke-linejoin="round" d="
		M215.4,110.9c6.5-4.8,13-9.6,19.6-14.4c0.3-0.2,0.6-0.5,0.4-0.8c-0.1-0.3-0.7,0.2-0.4,0.2"/>
	<path fill="none" stroke="#ED66A6" stroke-width="7" stroke-linecap="round" stroke-linejoin="round" d="M215.4,110.9
		c6.5-4.8,13-9.6,19.6-14.4c0.3-0.2,0.6-0.5,0.4-0.8c-0.1-0.3-0.7,0.2-0.4,0.2"/>
	<path fill="none" stroke="#F085B5" stroke-width="5.5" stroke-linecap="round" stroke-linejoin="round" d="M215.4,110.9
		c6.5-4.8,13-9.6,19.6-14.4c0.3-0.2,0.6-0.5,0.4-0.8c-0.1-0.3-0.7,0.2-0.4,0.2"/>
	<path fill="none" stroke="#F29FC5" stroke-width="4" stroke-linecap="round" stroke-linejoin="round" d="M215.4,110.9
		c6.5-4.8,13-9.6,19.6-14.4c0.3-0.2,0.6-0.5,0.4-0.8c-0.1-0.3-0.7,0.2-0.4,0.2"/>
	<path fill="none" stroke="#F4B8D4" stroke-width="2.5" stroke-linecap="round" stroke-linejoin="round" d="M215.4,110.9
		c6.5-4.8,13-9.6,19.6-14.4c0.3-0.2,0.6-0.5,0.4-0.8c-0.1-0.3-0.7,0.2-0.4,0.2"/>
	<path fill="none" stroke="#F7D2E4" stroke-linecap="round" stroke-linejoin="round" d="M215.4,110.9c6.5-4.8,13-9.6,19.6-14.4
		c0.3-0.2,0.6-0.5,0.4-0.8c-0.1-0.3-0.7,0.2-0.4,0.2"/>
</g>
<g>
	<path opacity="0.2" fill="none" stroke="#EB3B95" stroke-width="35" stroke-linecap="round" stroke-linejoin="round" d="
		M138.5,226.9c6.5,5.7,16,7.5,24,4.6"/>
	<path opacity="0.25" fill="none" stroke="#EB3B95" stroke-width="8.5" stroke-linecap="round" stroke-linejoin="round" d="
		M138.5,226.9c6.5,5.7,16,7.5,24,4.6"/>
	<path opacity="0.3" fill="none" stroke="#EB3B95" stroke-width="5" stroke-linecap="round" stroke-linejoin="round" d="
		M138.5,226.9c6.5,5.7,16,7.5,24,4.6"/>
	<path fill="none" stroke="#ED66A6" stroke-width="7" stroke-linecap="round" stroke-linejoin="round" d="M138.5,226.9
		c6.5,5.7,16,7.5,24,4.6"/>
	<path fill="none" stroke="#F085B5" stroke-width="5.5" stroke-linecap="round" stroke-linejoin="round" d="M138.5,226.9
		c6.5,5.7,16,7.5,24,4.6"/>
	<path fill="none" stroke="#F29FC5" stroke-width="4" stroke-linecap="round" stroke-linejoin="round" d="M138.5,226.9
		c6.5,5.7,16,7.5,24,4.6"/>
	<path fill="none" stroke="#F4B8D4" stroke-width="2.5" stroke-linecap="round" stroke-linejoin="round" d="M138.5,226.9
		c6.5,5.7,16,7.5,24,4.6"/>
	<path fill="none" stroke="#F7D2E4" stroke-linecap="round" stroke-linejoin="round" d="M138.5,226.9c6.5,5.7,16,7.5,24,4.6"/>
</g>
<g>
	<path opacity="0.2" fill="none" stroke="#EB3B95" stroke-width="35" stroke-linecap="round" stroke-linejoin="round" d="
		M94.9,144.1c9.2-6.2,20.1-9.6,31-9.8"/>
	<path opacity="0.25" fill="none" stroke="#EB3B95" stroke-width="8.5" stroke-linecap="round" stroke-linejoin="round" d="
		M94.9,144.1c9.2-6.2,20.1-9.6,31-9.8"/>
	<path opacity="0.3" fill="none" stroke="#EB3B95" stroke-width="5" stroke-linecap="round" stroke-linejoin="round" d="M94.9,144.1
		c9.2-6.2,20.1-9.6,31-9.8"/>
	<path fill="none" stroke="#ED66A6" stroke-width="7" stroke-linecap="round" stroke-linejoin="round" d="M94.9,144.1
		c9.2-6.2,20.1-9.6,31-9.8"/>
	<path fill="none" stroke="#F085B5" stroke-width="5.5" stroke-linecap="round" stroke-linejoin="round" d="M94.9,144.1
		c9.2-6.2,20.1-9.6,31-9.8"/>
	<path fill="none" stroke="#F29FC5" stroke-width="4" stroke-linecap="round" stroke-linejoin="round" d="M94.9,144.1
		c9.2-6.2,20.1-9.6,31-9.8"/>
	<path fill="none" stroke="#F4B8D4" stroke-width="2.5" stroke-linecap="round" stroke-linejoin="round" d="M94.9,144.1
		c9.2-6.2,20.1-9.6,31-9.8"/>
	<path fill="none" stroke="#F7D2E4" stroke-linecap="round" stroke-linejoin="round" d="M94.9,144.1c9.2-6.2,20.1-9.6,31-9.8"/>
</g>
<g>
	<path opacity="0.2" fill="none" stroke="#EB3B95" stroke-width="35" stroke-linecap="round" stroke-linejoin="round" d="
		M187.9,135.3c9.4,2.4,18.5,6.1,27,11"/>
	<path opacity="0.25" fill="none" stroke="#EB3B95" stroke-width="8.5" stroke-linecap="round" stroke-linejoin="round" d="
		M187.9,135.3c9.4,2.4,18.5,6.1,27,11"/>
	<path opacity="0.3" fill="none" stroke="#EB3B95" stroke-width="5" stroke-linecap="round" stroke-linejoin="round" d="
		M187.9,135.3c9.4,2.4,18.5,6.1,27,11"/>
	<path fill="none" stroke="#ED66A6" stroke-width="7" stroke-linecap="round" stroke-linejoin="round" d="M187.9,135.3
		c9.4,2.4,18.5,6.1,27,11"/>
	<path fill="none" stroke="#F085B5" stroke-width="5.5" stroke-linecap="round" stroke-linejoin="round" d="M187.9,135.3
		c9.4,2.4,18.5,6.1,27,11"/>
	<path fill="none" stroke="#F29FC5" stroke-width="4" stroke-linecap="round" stroke-linejoin="round" d="M187.9,135.3
		c9.4,2.4,18.5,6.1,27,11"/>
	<path fill="none" stroke="#F4B8D4" stroke-width="2.5" stroke-linecap="round" stroke-linejoin="round" d="M187.9,135.3
		c9.4,2.4,18.5,6.1,27,11"/>
	<path fill="none" stroke="#F7D2E4" stroke-linecap="round" stroke-linejoin="round" d="M187.9,135.3c9.4,2.4,18.5,6.1,27,11"/>
</g>
</svg>
