<?xml version="1.0" encoding="utf-8"?>
<!-- Generator: Adobe Illustrator 19.1.0, SVG Export Plug-In . SVG Version: 6.00 Build 0)  -->
<svg version="1.1" id="Layer_1" xmlns="http://www.w3.org/2000/svg" xmlns:xlink="http://www.w3.org/1999/xlink" x="0px" y="0px"
	 viewBox="0 0 300 300" style="enable-background:new 0 0 300 300;" xml:space="preserve">
<path opacity="1.0" fill="none" stroke="#fff" stroke-width="3" stroke-linecap="round" class="st0" d="M93.8,94.5C82.7,77.1,68,62.1,50.8,50.7c2.9,14,4.9,28.1,6,42.4c0.3,3.6,0.5,7.3-0.2,10.9
	c-1,4.9-3.6,9.2-5.5,13.8c-4.9,11.9-4.6,25.2-3.4,38c2.6,26.5,9.6,53.8,27.4,73.5c13.4,14.9,31.8,24.3,50.1,32.2
	c16.7,7.2,36,13.5,52.5,6c13.1-6,21-19.2,28.2-31.7c9.3-16.3,18.6-32.6,28-48.8c10.1-17.6,20.5-37.3,16.3-57.1
	c-2.9-13.8-12.6-25.3-23.8-33.9c-2.6-2-5.3-3.9-7.1-6.7c-2.3-3.6-2.6-8-2.9-12.3c-0.8-13.1-1.7-26.2-2.5-39.3
	c-18.5,10.7-33.3,27.6-41.6,47.3c-26.2-1.9-52.8,1.3-77.8,9.2"/>
<path opacity="1.0" fill="none" stroke="#fff" stroke-width="3" stroke-linecap="round" class="st0" d="M191.8,244.5c-0.3,0.5,1,0.3,0.7-0.2c-0.3-0.5-1-0.5-1.6-0.4c-5.5,1-11.3-1.1-15.8-4.5
	c-4.5-3.4-8-7.9-11.4-12.4c-5-6.5-10.2-13.4-12.9-21.2c-2.9-8.3-1.7-10.8,3.5-16.8c4.3-5,7.2-11.2,8.2-17.8
	c-8.2,0.6-16.4,1.3-24.6,1.9c-1.5,4-2.3,9.3,0,12.9c2.3,3.6,5.3,6.7,7.2,10.6c2.8,6,2.5,12.9,1.7,19.5c-0.6,5-1.5,10-3.6,14.6
	c-4.1,9.3-13.1,16.2-23.2,17.9"/>
<path opacity="1.0" fill="none" stroke="#fff" stroke-width="3" stroke-linecap="round" lass="st0" d="M118.5,138.7c0.7-0.2,1.5-0.4,2.2-0.6c-15.3-6.4-34.3-2.5-45.7,9.5c4.4,5.6,8,11.7,15,13
	c7,1.3,14.4,0.2,20.9-2.7c3.6-1.6,7-3.9,9.3-7.1c2.3-3.2,3.4-7.5,2.1-11.2c-0.3,0.3-0.5,0.6-0.8,0.9"/>
<path opacity="1.0" fill="none" stroke="#fff" stroke-width="3" stroke-linecap="round" class="st0" d="M175.1,136.1c6.9-4.9,16.1-6.5,24.3-4.2c3,0.8,5.8,2.1,8.6,3.3c4.5,2.1,9.3,4.3,12,8.5"/>
<path opacity="1.0" fill="none" stroke="#fff" stroke-width="3" stroke-linecap="round" class="st0" d="M174.1,139.6c0,3.9,2.9,7.2,6.1,9.5c11.9,8.8,29.3,9.2,41.7,1.1"/>
<path opacity="1.0" fill="none" stroke="#fff" stroke-width="3" stroke-linecap="round" class="st0" d="M93.4,140.1c-2.7,2.9-3.5,7.5-1.8,11.1s5.6,6,9.6,5.8c1-0.1,2-0.3,2.8-0.8c0.7-0.4,1.2-1.1,1.7-1.7
	c1.8-2.5,3-5.6,2.4-8.7c-0.5-3-3-5.8-6.1-6.2"/>
<path opacity="1.0" fill="none" stroke="#fff" stroke-width="3" stroke-linecap="round" class="st0" d="M193.3,137.9c-2.4,1.4-4,4-4.2,6.7s1.2,5.5,3.4,7.2c2.7,2,6.6,2.1,9.5,0.4s4.8-4.9,5-8.3c0.1-0.8,0-1.7-0.3-2.4
	c-0.4-0.9-1.2-1.5-1.9-2.1c-2.4-2-5.3-4.1-8.3-3.3"/>
<path opacity="1.0" fill="none" stroke="#fff" stroke-width="3" stroke-linecap="round" class="st0" d="M71,144.6c5.8-6.7,12.9-12.3,20.6-16.5"/>
<path opacity="1.0" fill="none" stroke="#fff" stroke-width="3" stroke-linecap="round" class="st0" d="M203.8,125.1c3.9,2.3,7.8,4.6,11.8,6.9c3.2,1.9,6.7,4.1,8,7.6"/>
<path opacity="1.0" fill="none" stroke="#fff" stroke-width="3" stroke-linecap="round" class="st0" d="M119.9,248.4c-6.2,1.6-13.3-0.1-18-4.5"/>
<path opacity="1.0" fill="none" stroke="#fff" stroke-width="3" stroke-linecap="round" class="st0" d="M189.8,244c5.1-1.2,9.7-4.4,12.6-8.7c1.5-2.2,2.7-5,1.9-7.6"/>
<path opacity="1.0" fill="none" stroke="#fff" stroke-width="3" stroke-linecap="round" class="st0" d="M104.9,188.5c-24.9-6-50.9-5.4-76.4-3.1c-6.3,0.6-12.8,1.3-18.4,4.2c-0.5,0.3-1,0.7-1,1.2s1.2,0.3,0.9-0.1"/>
<path opacity="1.0" fill="none" stroke="#fff" stroke-width="3" stroke-linecap="round" class="st0" d="M95.6,201.9c-15.8,3.6-31.3,8.7-46.2,15.2C38.1,222,26.8,228,18.7,237.3"/>
<path opacity="1.0" fill="none" stroke="#fff" stroke-width="3" stroke-linecap="round" class="st0" d="M87.8,222.5c-9.8,7.3-19.1,15.2-28,23.6c-2,1.9-4.2,4.3-3.9,7c0.5,0.2,1.1,0,1.3-0.4"/>
<path opacity="1.0" fill="none" stroke="#fff" stroke-width="3" stroke-linecap="round" class="st0" d="M195.3,186.7c14.1-8,30.3-11.6,46.4-12.9s32.3-0.3,48.5,0.3c0.9,0,2,0.2,2.2,1.1s-1.6,1.1-1.3,0.3"/>
<path opacity="1.0" fill="none" stroke="#fff" stroke-width="3" stroke-linecap="round" class="st0" d="M209.7,199.9c17.5-1.1,35.4,3.1,50.6,11.8c-1.4-0.1-2.8-0.1-4.2-0.2"/>
<path opacity="1.0" fill="none" stroke="#fff" stroke-width="3" stroke-linecap="round" class="st0" d="M201.6,214.5c4.9-0.1,9.6,1.7,14.2,3.5c11.5,4.5,22.8,9.3,34,14.4"/>
<path opacity="1.0" fill="none" stroke="#fff" stroke-width="3" stroke-linecap="round" class="st0" d="M62.1,103.7c2.2,0.2,4.5,0.4,6.6-0.1c2.2-0.5,4.3-1.7,5.3-3.7c1-1.9,0.7-4.3-0.2-6.3s-2.2-3.7-3.6-5.4
	c-4.5-6-8.4-12.5-11.5-19.3c0.9,6.9,1.9,13.8,3,20.7"/>
<path opacity="1.0" fill="none" stroke="#fff" stroke-width="3" stroke-linecap="round" class="st0" d="M211.7,75.8c-0.8-0.8-0.8-2-0.8-3.2c-0.1-7.2-0.1-14.4-0.2-21.5c-4.1,10-8.8,19.8-14.2,29.2
	c-0.9,1.6-1.8,3.1-2.1,4.9c-0.3,1.8,0.2,3.8,1.7,4.8c0.9,0.6,1.9,0.7,2.9,0.9c3.6,0.5,7.2,1.1,10.8,1.6c0.5,0.1,1,0.1,1.4-0.2
	c0.4-0.3,0.5-0.8,0.5-1.3c0.2-2.5,0.5-5.1,0.7-7.6"/>
<path opacity="1.0" fill="none" stroke="#fff" stroke-width="3" stroke-linecap="round" class="st0" d="M141.9,241.8c2.9,0.2,5.8-0.9,7.8-3c1-1,2-2.3,3.4-2.3c0.8,0,1.5,0.4,2.2,0.7c3.5,1.7,7.6,2.2,11.5,1.5"/>
</svg>
