<?xml version="1.0" encoding="utf-8"?>
<!-- Generator: Adobe Illustrator 19.2.0, SVG Export Plug-In . SVG Version: 6.00 Build 0)  -->
<svg version="1.1" id="Layer_1" xmlns="http://www.w3.org/2000/svg" xmlns:xlink="http://www.w3.org/1999/xlink" x="0px" y="0px"
	 viewBox="0 0 300 300" enable-background="new 0 0 300 300" xml:space="preserve">
<g>
	<path opacity="0.2" fill="none" stroke="#00BAD5" stroke-width="35" stroke-linecap="round" stroke-linejoin="round" d="
		M149.3,83.3c-3.3-4.7-8.9-7.4-14.5-8.3c-5.7-0.9-11.4-0.1-17,1.3c-4.8,1.1-9.8,2.8-12.8,6.7c-3.1,3.8-3.2,10.4,0.9,13
		c-6.8-0.4-13.7-0.9-20.4,0.3s-13.4,4.1-17.7,9.4c-2.3,2.8-3.9,6.4-3.7,10s2.8,7.2,6.4,7.9c-5.1,2.4-10.7,3.4-15.8,5.6
		c-5.2,2.2-10.2,5.9-11.6,11.3c-1.4,5.3,1.1,10.9,4.9,14.8s8.8,6.4,13.7,8.8c-7,2.1-11.9,9.3-12.1,16.6c-0.3,7.3,3.6,14.4,9.3,19
		s13,6.9,20.3,7.4c10.6,0.8,21.9-2.3,29.2-10.1c9.5,10,25.2,11.2,38.7,8.4c4.2-0.9,8.5-2.2,12-4.8s6-6.8,5.6-11.1
		c-0.3-2.9-1.8-5.5-3.3-7.9c-3.3-5.2-7-10.2-11.1-14.9c11.9,3.6,25.1,7,36.3,1.6c3.3,6.1,9.7,10.2,16.5,11.4
		c6.8,1.1,14-0.6,19.9-4.2c6.8-4.1,12.2-10.7,13.7-18.5c1.5-7.8-1.4-16.5-7.9-20.9c7.1,1.1,14.3,2.3,21.3,0.9
		c7-1.4,13.9-5.9,16-12.7c1.1-3.7,0.9-7.6-0.1-11.4c-2.6-9.9-10.2-18.3-19.8-21.8c0.4-5.5-3-10.8-7.6-13.8
		c-4.6-3.1-10.2-4.2-15.7-4.7c-21.8-1.9-44.3,7-59,23.3c2.9-2.8,5-6.5,5-10.5c0.1-4-2.3-8.1-6-9.4c-5.8-2-11.5,2.8-15.8,7.2"/>
	<path opacity="0.25" fill="none" stroke="#00BAD5" stroke-width="8.5" stroke-linecap="round" stroke-linejoin="round" d="
		M149.3,83.3c-3.3-4.7-8.9-7.4-14.5-8.3c-5.7-0.9-11.4-0.1-17,1.3c-4.8,1.1-9.8,2.8-12.8,6.7c-3.1,3.8-3.2,10.4,0.9,13
		c-6.8-0.4-13.7-0.9-20.4,0.3s-13.4,4.1-17.7,9.4c-2.3,2.8-3.9,6.4-3.7,10s2.8,7.2,6.4,7.9c-5.1,2.4-10.7,3.4-15.8,5.6
		c-5.2,2.2-10.2,5.9-11.6,11.3c-1.4,5.3,1.1,10.9,4.9,14.8s8.8,6.4,13.7,8.8c-7,2.1-11.9,9.3-12.1,16.6c-0.3,7.3,3.6,14.4,9.3,19
		s13,6.9,20.3,7.4c10.6,0.8,21.9-2.3,29.2-10.1c9.5,10,25.2,11.2,38.7,8.4c4.2-0.9,8.5-2.2,12-4.8s6-6.8,5.6-11.1
		c-0.3-2.9-1.8-5.5-3.3-7.9c-3.3-5.2-7-10.2-11.1-14.9c11.9,3.6,25.1,7,36.3,1.6c3.3,6.1,9.7,10.2,16.5,11.4
		c6.8,1.1,14-0.6,19.9-4.2c6.8-4.1,12.2-10.7,13.7-18.5c1.5-7.8-1.4-16.5-7.9-20.9c7.1,1.1,14.3,2.3,21.3,0.9
		c7-1.4,13.9-5.9,16-12.7c1.1-3.7,0.9-7.6-0.1-11.4c-2.6-9.9-10.2-18.3-19.8-21.8c0.4-5.5-3-10.8-7.6-13.8
		c-4.6-3.1-10.2-4.2-15.7-4.7c-21.8-1.9-44.3,7-59,23.3c2.9-2.8,5-6.5,5-10.5c0.1-4-2.3-8.1-6-9.4c-5.8-2-11.5,2.8-15.8,7.2"/>
	<path opacity="0.3" fill="none" stroke="#00BAD5" stroke-width="5" stroke-linecap="round" stroke-linejoin="round" d="M149.3,83.3
		c-3.3-4.7-8.9-7.4-14.5-8.3c-5.7-0.9-11.4-0.1-17,1.3c-4.8,1.1-9.8,2.8-12.8,6.7c-3.1,3.8-3.2,10.4,0.9,13
		c-6.8-0.4-13.7-0.9-20.4,0.3s-13.4,4.1-17.7,9.4c-2.3,2.8-3.9,6.4-3.7,10s2.8,7.2,6.4,7.9c-5.1,2.4-10.7,3.4-15.8,5.6
		c-5.2,2.2-10.2,5.9-11.6,11.3c-1.4,5.3,1.1,10.9,4.9,14.8s8.8,6.4,13.7,8.8c-7,2.1-11.9,9.3-12.1,16.6c-0.3,7.3,3.6,14.4,9.3,19
		s13,6.9,20.3,7.4c10.6,0.8,21.9-2.3,29.2-10.1c9.5,10,25.2,11.2,38.7,8.4c4.2-0.9,8.5-2.2,12-4.8s6-6.8,5.6-11.1
		c-0.3-2.9-1.8-5.5-3.3-7.9c-3.3-5.2-7-10.2-11.1-14.9c11.9,3.6,25.1,7,36.3,1.6c3.3,6.1,9.7,10.2,16.5,11.4
		c6.8,1.1,14-0.6,19.9-4.2c6.8-4.1,12.2-10.7,13.7-18.5c1.5-7.8-1.4-16.5-7.9-20.9c7.1,1.1,14.3,2.3,21.3,0.9
		c7-1.4,13.9-5.9,16-12.7c1.1-3.7,0.9-7.6-0.1-11.4c-2.6-9.9-10.2-18.3-19.8-21.8c0.4-5.5-3-10.8-7.6-13.8
		c-4.6-3.1-10.2-4.2-15.7-4.7c-21.8-1.9-44.3,7-59,23.3c2.9-2.8,5-6.5,5-10.5c0.1-4-2.3-8.1-6-9.4c-5.8-2-11.5,2.8-15.8,7.2"/>
	<path fill="none" stroke="#00BBD5" stroke-width="7" stroke-linecap="round" stroke-linejoin="round" d="M149.3,83.3
		c-3.3-4.7-8.9-7.4-14.5-8.3c-5.7-0.9-11.4-0.1-17,1.3c-4.8,1.1-9.8,2.8-12.8,6.7c-3.1,3.8-3.2,10.4,0.9,13
		c-6.8-0.4-13.7-0.9-20.4,0.3s-13.4,4.1-17.7,9.4c-2.3,2.8-3.9,6.4-3.7,10s2.8,7.2,6.4,7.9c-5.1,2.4-10.7,3.4-15.8,5.6
		c-5.2,2.2-10.2,5.9-11.6,11.3c-1.4,5.3,1.1,10.9,4.9,14.8s8.8,6.4,13.7,8.8c-7,2.1-11.9,9.3-12.1,16.6c-0.3,7.3,3.6,14.4,9.3,19
		s13,6.9,20.3,7.4c10.6,0.8,21.9-2.3,29.2-10.1c9.5,10,25.2,11.2,38.7,8.4c4.2-0.9,8.5-2.2,12-4.8s6-6.8,5.6-11.1
		c-0.3-2.9-1.8-5.5-3.3-7.9c-3.3-5.2-7-10.2-11.1-14.9c11.9,3.6,25.1,7,36.3,1.6c3.3,6.1,9.7,10.2,16.5,11.4
		c6.8,1.1,14-0.6,19.9-4.2c6.8-4.1,12.2-10.7,13.7-18.5c1.5-7.8-1.4-16.5-7.9-20.9c7.1,1.1,14.3,2.3,21.3,0.9
		c7-1.4,13.9-5.9,16-12.7c1.1-3.7,0.9-7.6-0.1-11.4c-2.6-9.9-10.2-18.3-19.8-21.8c0.4-5.5-3-10.8-7.6-13.8
		c-4.6-3.1-10.2-4.2-15.7-4.7c-21.8-1.9-44.3,7-59,23.3c2.9-2.8,5-6.5,5-10.5c0.1-4-2.3-8.1-6-9.4c-5.8-2-11.5,2.8-15.8,7.2"/>
	<path fill="none" stroke="#31C2D9" stroke-width="5" stroke-linecap="round" stroke-linejoin="round" d="M149.3,83.3
		c-3.3-4.7-8.9-7.4-14.5-8.3c-5.7-0.9-11.4-0.1-17,1.3c-4.8,1.1-9.8,2.8-12.8,6.7c-3.1,3.8-3.2,10.4,0.9,13
		c-6.8-0.4-13.7-0.9-20.4,0.3s-13.4,4.1-17.7,9.4c-2.3,2.8-3.9,6.4-3.7,10s2.8,7.2,6.4,7.9c-5.1,2.4-10.7,3.4-15.8,5.6
		c-5.2,2.2-10.2,5.9-11.6,11.3c-1.4,5.3,1.1,10.9,4.9,14.8s8.8,6.4,13.7,8.8c-7,2.1-11.9,9.3-12.1,16.6c-0.3,7.3,3.6,14.4,9.3,19
		s13,6.9,20.3,7.4c10.6,0.8,21.9-2.3,29.2-10.1c9.5,10,25.2,11.2,38.7,8.4c4.2-0.9,8.5-2.2,12-4.8s6-6.8,5.6-11.1
		c-0.3-2.9-1.8-5.5-3.3-7.9c-3.3-5.2-7-10.2-11.1-14.9c11.9,3.6,25.1,7,36.3,1.6c3.3,6.1,9.7,10.2,16.5,11.4
		c6.8,1.1,14-0.6,19.9-4.2c6.8-4.1,12.2-10.7,13.7-18.5c1.5-7.8-1.4-16.5-7.9-20.9c7.1,1.1,14.3,2.3,21.3,0.9
		c7-1.4,13.9-5.9,16-12.7c1.1-3.7,0.9-7.6-0.1-11.4c-2.6-9.9-10.2-18.3-19.8-21.8c0.4-5.5-3-10.8-7.6-13.8
		c-4.6-3.1-10.2-4.2-15.7-4.7c-21.8-1.9-44.3,7-59,23.3c2.9-2.8,5-6.5,5-10.5c0.1-4-2.3-8.1-6-9.4c-5.8-2-11.5,2.8-15.8,7.2"/>
	<path fill="none" stroke="#26C0D8" stroke-width="4" stroke-linecap="round" stroke-linejoin="round" d="M149.3,83.3
		c-3.3-4.7-8.9-7.4-14.5-8.3c-5.7-0.9-11.4-0.1-17,1.3c-4.8,1.1-9.8,2.8-12.8,6.7c-3.1,3.8-3.2,10.4,0.9,13
		c-6.8-0.4-13.7-0.9-20.4,0.3s-13.4,4.1-17.7,9.4c-2.3,2.8-3.9,6.4-3.7,10s2.8,7.2,6.4,7.9c-5.1,2.4-10.7,3.4-15.8,5.6
		c-5.2,2.2-10.2,5.9-11.6,11.3c-1.4,5.3,1.1,10.9,4.9,14.8s8.8,6.4,13.7,8.8c-7,2.1-11.9,9.3-12.1,16.6c-0.3,7.3,3.6,14.4,9.3,19
		s13,6.9,20.3,7.4c10.6,0.8,21.9-2.3,29.2-10.1c9.5,10,25.2,11.2,38.7,8.4c4.2-0.9,8.5-2.2,12-4.8s6-6.8,5.6-11.1
		c-0.3-2.9-1.8-5.5-3.3-7.9c-3.3-5.2-7-10.2-11.1-14.9c11.9,3.6,25.1,7,36.3,1.6c3.3,6.1,9.7,10.2,16.5,11.4
		c6.8,1.1,14-0.6,19.9-4.2c6.8-4.1,12.2-10.7,13.7-18.5c1.5-7.8-1.4-16.5-7.9-20.9c7.1,1.1,14.3,2.3,21.3,0.9
		c7-1.4,13.9-5.9,16-12.7c1.1-3.7,0.9-7.6-0.1-11.4c-2.6-9.9-10.2-18.3-19.8-21.8c0.4-5.5-3-10.8-7.6-13.8
		c-4.6-3.1-10.2-4.2-15.7-4.7c-21.8-1.9-44.3,7-59,23.3c2.9-2.8,5-6.5,5-10.5c0.1-4-2.3-8.1-6-9.4c-5.8-2-11.5,2.8-15.8,7.2"/>
	<path fill="none" stroke="#63CAE0" stroke-width="3" stroke-linecap="round" stroke-linejoin="round" d="M149.3,83.3
		c-3.3-4.7-8.9-7.4-14.5-8.3c-5.7-0.9-11.4-0.1-17,1.3c-4.8,1.1-9.8,2.8-12.8,6.7c-3.1,3.8-3.2,10.4,0.9,13
		c-6.8-0.4-13.7-0.9-20.4,0.3s-13.4,4.1-17.7,9.4c-2.3,2.8-3.9,6.4-3.7,10s2.8,7.2,6.4,7.9c-5.1,2.4-10.7,3.4-15.8,5.6
		c-5.2,2.2-10.2,5.9-11.6,11.3c-1.4,5.3,1.1,10.9,4.9,14.8s8.8,6.4,13.7,8.8c-7,2.1-11.9,9.3-12.1,16.6c-0.3,7.3,3.6,14.4,9.3,19
		s13,6.9,20.3,7.4c10.6,0.8,21.9-2.3,29.2-10.1c9.5,10,25.2,11.2,38.7,8.4c4.2-0.9,8.5-2.2,12-4.8s6-6.8,5.6-11.1
		c-0.3-2.9-1.8-5.5-3.3-7.9c-3.3-5.2-7-10.2-11.1-14.9c11.9,3.6,25.1,7,36.3,1.6c3.3,6.1,9.7,10.2,16.5,11.4
		c6.8,1.1,14-0.6,19.9-4.2c6.8-4.1,12.2-10.7,13.7-18.5c1.5-7.8-1.4-16.5-7.9-20.9c7.1,1.1,14.3,2.3,21.3,0.9
		c7-1.4,13.9-5.9,16-12.7c1.1-3.7,0.9-7.6-0.1-11.4c-2.6-9.9-10.2-18.3-19.8-21.8c0.4-5.5-3-10.8-7.6-13.8
		c-4.6-3.1-10.2-4.2-15.7-4.7c-21.8-1.9-44.3,7-59,23.3c2.9-2.8,5-6.5,5-10.5c0.1-4-2.3-8.1-6-9.4c-5.8-2-11.5,2.8-15.8,7.2"/>
	<path fill="none" stroke="#92D7E6" stroke-linecap="round" stroke-linejoin="round" d="M149.3,83.3c-3.3-4.7-8.9-7.4-14.5-8.3
		c-5.7-0.9-11.4-0.1-17,1.3c-4.8,1.1-9.8,2.8-12.8,6.7c-3.1,3.8-3.2,10.4,0.9,13c-6.8-0.4-13.7-0.9-20.4,0.3s-13.4,4.1-17.7,9.4
		c-2.3,2.8-3.9,6.4-3.7,10s2.8,7.2,6.4,7.9c-5.1,2.4-10.7,3.4-15.8,5.6c-5.2,2.2-10.2,5.9-11.6,11.3c-1.4,5.3,1.1,10.9,4.9,14.8
		s8.8,6.4,13.7,8.8c-7,2.1-11.9,9.3-12.1,16.6c-0.3,7.3,3.6,14.4,9.3,19s13,6.9,20.3,7.4c10.6,0.8,21.9-2.3,29.2-10.1
		c9.5,10,25.2,11.2,38.7,8.4c4.2-0.9,8.5-2.2,12-4.8s6-6.8,5.6-11.1c-0.3-2.9-1.8-5.5-3.3-7.9c-3.3-5.2-7-10.2-11.1-14.9
		c11.9,3.6,25.1,7,36.3,1.6c3.3,6.1,9.7,10.2,16.5,11.4c6.8,1.1,14-0.6,19.9-4.2c6.8-4.1,12.2-10.7,13.7-18.5
		c1.5-7.8-1.4-16.5-7.9-20.9c7.1,1.1,14.3,2.3,21.3,0.9c7-1.4,13.9-5.9,16-12.7c1.1-3.7,0.9-7.6-0.1-11.4
		c-2.6-9.9-10.2-18.3-19.8-21.8c0.4-5.5-3-10.8-7.6-13.8c-4.6-3.1-10.2-4.2-15.7-4.7c-21.8-1.9-44.3,7-59,23.3c2.9-2.8,5-6.5,5-10.5
		c0.1-4-2.3-8.1-6-9.4c-5.8-2-11.5,2.8-15.8,7.2"/>
</g>
<g>
	<path opacity="0.2" fill="none" stroke="#00BAD5" stroke-width="35" stroke-linecap="round" stroke-linejoin="round" d="
		M133.2,101.7c-2.8,2.4-4,6.5-2.8,10.1c1.1,3.5,4.5,6.2,8.2,6.5c-0.3,0.4-0.7,0.8-1,1.2"/>
	<path opacity="0.25" fill="none" stroke="#00BAD5" stroke-width="8.5" stroke-linecap="round" stroke-linejoin="round" d="
		M133.2,101.7c-2.8,2.4-4,6.5-2.8,10.1c1.1,3.5,4.5,6.2,8.2,6.5c-0.3,0.4-0.7,0.8-1,1.2"/>
	<path opacity="0.3" fill="none" stroke="#00BAD5" stroke-width="5" stroke-linecap="round" stroke-linejoin="round" d="
		M133.2,101.7c-2.8,2.4-4,6.5-2.8,10.1c1.1,3.5,4.5,6.2,8.2,6.5c-0.3,0.4-0.7,0.8-1,1.2"/>
	<path fill="none" stroke="#00BBD5" stroke-width="7" stroke-linecap="round" stroke-linejoin="round" d="M133.2,101.7
		c-2.8,2.4-4,6.5-2.8,10.1c1.1,3.5,4.5,6.2,8.2,6.5c-0.3,0.4-0.7,0.8-1,1.2"/>
	<path fill="none" stroke="#31C2D9" stroke-width="5" stroke-linecap="round" stroke-linejoin="round" d="M133.2,101.7
		c-2.8,2.4-4,6.5-2.8,10.1c1.1,3.5,4.5,6.2,8.2,6.5c-0.3,0.4-0.7,0.8-1,1.2"/>
	<path fill="none" stroke="#26C0D8" stroke-width="4" stroke-linecap="round" stroke-linejoin="round" d="M133.2,101.7
		c-2.8,2.4-4,6.5-2.8,10.1c1.1,3.5,4.5,6.2,8.2,6.5c-0.3,0.4-0.7,0.8-1,1.2"/>
	<path fill="none" stroke="#63CAE0" stroke-width="3" stroke-linecap="round" stroke-linejoin="round" d="M133.2,101.7
		c-2.8,2.4-4,6.5-2.8,10.1c1.1,3.5,4.5,6.2,8.2,6.5c-0.3,0.4-0.7,0.8-1,1.2"/>
	<path fill="none" stroke="#92D7E6" stroke-linecap="round" stroke-linejoin="round" d="M133.2,101.7c-2.8,2.4-4,6.5-2.8,10.1
		c1.1,3.5,4.5,6.2,8.2,6.5c-0.3,0.4-0.7,0.8-1,1.2"/>
</g>
<g>
	<path opacity="0.2" fill="none" stroke="#00BAD5" stroke-width="35" stroke-linecap="round" stroke-linejoin="round" d="
		M92.5,146.2c4-1,8.3,1.8,10.1,5.5c1.8,3.7,1.7,8.1,0.8,12.2c0-0.5,0-0.9,0-1.4"/>
	<path opacity="0.25" fill="none" stroke="#00BAD5" stroke-width="8.5" stroke-linecap="round" stroke-linejoin="round" d="
		M92.5,146.2c4-1,8.3,1.8,10.1,5.5c1.8,3.7,1.7,8.1,0.8,12.2c0-0.5,0-0.9,0-1.4"/>
	<path opacity="0.3" fill="none" stroke="#00BAD5" stroke-width="5" stroke-linecap="round" stroke-linejoin="round" d="M92.5,146.2
		c4-1,8.3,1.8,10.1,5.5c1.8,3.7,1.7,8.1,0.8,12.2c0-0.5,0-0.9,0-1.4"/>
	<path fill="none" stroke="#00BBD5" stroke-width="7" stroke-linecap="round" stroke-linejoin="round" d="M92.5,146.2
		c4-1,8.3,1.8,10.1,5.5c1.8,3.7,1.7,8.1,0.8,12.2c0-0.5,0-0.9,0-1.4"/>
	<path fill="none" stroke="#31C2D9" stroke-width="5" stroke-linecap="round" stroke-linejoin="round" d="M92.5,146.2
		c4-1,8.3,1.8,10.1,5.5c1.8,3.7,1.7,8.1,0.8,12.2c0-0.5,0-0.9,0-1.4"/>
	<path fill="none" stroke="#26C0D8" stroke-width="4" stroke-linecap="round" stroke-linejoin="round" d="M92.5,146.2
		c4-1,8.3,1.8,10.1,5.5c1.8,3.7,1.7,8.1,0.8,12.2c0-0.5,0-0.9,0-1.4"/>
	<path fill="none" stroke="#63CAE0" stroke-width="3" stroke-linecap="round" stroke-linejoin="round" d="M92.5,146.2
		c4-1,8.3,1.8,10.1,5.5c1.8,3.7,1.7,8.1,0.8,12.2c0-0.5,0-0.9,0-1.4"/>
	<path fill="none" stroke="#92D7E6" stroke-linecap="round" stroke-linejoin="round" d="M92.5,146.2c4-1,8.3,1.8,10.1,5.5
		c1.8,3.7,1.7,8.1,0.8,12.2c0-0.5,0-0.9,0-1.4"/>
</g>
<g>
	<path opacity="0.2" fill="none" stroke="#00BAD5" stroke-width="35" stroke-linecap="round" stroke-linejoin="round" d="
		M192.2,111.7c-1,2.9-1.4,6.2,0.1,8.8c1.5,2.6,5.4,3.9,7.8,2"/>
	<path opacity="0.25" fill="none" stroke="#00BAD5" stroke-width="8.5" stroke-linecap="round" stroke-linejoin="round" d="
		M192.2,111.7c-1,2.9-1.4,6.2,0.1,8.8c1.5,2.6,5.4,3.9,7.8,2"/>
	<path opacity="0.3" fill="none" stroke="#00BAD5" stroke-width="5" stroke-linecap="round" stroke-linejoin="round" d="
		M192.2,111.7c-1,2.9-1.4,6.2,0.1,8.8c1.5,2.6,5.4,3.9,7.8,2"/>
	<path fill="none" stroke="#00BBD5" stroke-width="7" stroke-linecap="round" stroke-linejoin="round" d="M192.2,111.7
		c-1,2.9-1.4,6.2,0.1,8.8c1.5,2.6,5.4,3.9,7.8,2"/>
	<path fill="none" stroke="#31C2D9" stroke-width="5" stroke-linecap="round" stroke-linejoin="round" d="M192.2,111.7
		c-1,2.9-1.4,6.2,0.1,8.8c1.5,2.6,5.4,3.9,7.8,2"/>
	<path fill="none" stroke="#26C0D8" stroke-width="4" stroke-linecap="round" stroke-linejoin="round" d="M192.2,111.7
		c-1,2.9-1.4,6.2,0.1,8.8c1.5,2.6,5.4,3.9,7.8,2"/>
	<path fill="none" stroke="#63CAE0" stroke-width="3" stroke-linecap="round" stroke-linejoin="round" d="M192.2,111.7
		c-1,2.9-1.4,6.2,0.1,8.8c1.5,2.6,5.4,3.9,7.8,2"/>
	<path fill="none" stroke="#92D7E6" stroke-linecap="round" stroke-linejoin="round" d="M192.2,111.7c-1,2.9-1.4,6.2,0.1,8.8
		c1.5,2.6,5.4,3.9,7.8,2"/>
</g>
<g>
	<path opacity="0.2" fill="none" stroke="#00BAD5" stroke-width="35" stroke-linecap="round" stroke-linejoin="round" d="M53.1,42.3
		c-5.4-0.9-11.2,0.6-15.4,4.2c-0.9,0.7-1.7,1.6-2.1,2.7c-0.8,2.4,0.9,5.1,3,6.6c3.8,2.7,8.7,3.2,13.3,3.6c-5.2,2.3-7.3,9.2-5.2,14.5
		c2.1,5.3,7.7,8.6,13.3,9.2s11.3-1.4,16.2-4.3c2.8-1.6,5.4-3.7,7.1-6.5s2.1-6.4,0.4-9.2c5.8,4.8,14.6,3.3,21.3-0.2
		c2.3-1.2,4.7-2.8,5.7-5.2c1.8-4.4-1.6-9.2-5.3-12.3c-8.4-7.1-19.3-11.2-30.3-11.4c-4.5-0.1-9.3,0.6-12.8,3.5
		c-0.9-3.5-5.6-5.5-8.8-3.7c-3.2,1.8-3.9,6.8-1.3,9.4"/>
	<path opacity="0.25" fill="none" stroke="#00BAD5" stroke-width="8.5" stroke-linecap="round" stroke-linejoin="round" d="
		M53.1,42.3c-5.4-0.9-11.2,0.6-15.4,4.2c-0.9,0.7-1.7,1.6-2.1,2.7c-0.8,2.4,0.9,5.1,3,6.6c3.8,2.7,8.7,3.2,13.3,3.6
		c-5.2,2.3-7.3,9.2-5.2,14.5c2.1,5.3,7.7,8.6,13.3,9.2s11.3-1.4,16.2-4.3c2.8-1.6,5.4-3.7,7.1-6.5s2.1-6.4,0.4-9.2
		c5.8,4.8,14.6,3.3,21.3-0.2c2.3-1.2,4.7-2.8,5.7-5.2c1.8-4.4-1.6-9.2-5.3-12.3c-8.4-7.1-19.3-11.2-30.3-11.4
		c-4.5-0.1-9.3,0.6-12.8,3.5c-0.9-3.5-5.6-5.5-8.8-3.7c-3.2,1.8-3.9,6.8-1.3,9.4"/>
	<path opacity="0.3" fill="none" stroke="#00BAD5" stroke-width="5" stroke-linecap="round" stroke-linejoin="round" d="M53.1,42.3
		c-5.4-0.9-11.2,0.6-15.4,4.2c-0.9,0.7-1.7,1.6-2.1,2.7c-0.8,2.4,0.9,5.1,3,6.6c3.8,2.7,8.7,3.2,13.3,3.6c-5.2,2.3-7.3,9.2-5.2,14.5
		c2.1,5.3,7.7,8.6,13.3,9.2s11.3-1.4,16.2-4.3c2.8-1.6,5.4-3.7,7.1-6.5s2.1-6.4,0.4-9.2c5.8,4.8,14.6,3.3,21.3-0.2
		c2.3-1.2,4.7-2.8,5.7-5.2c1.8-4.4-1.6-9.2-5.3-12.3c-8.4-7.1-19.3-11.2-30.3-11.4c-4.5-0.1-9.3,0.6-12.8,3.5
		c-0.9-3.5-5.6-5.5-8.8-3.7c-3.2,1.8-3.9,6.8-1.3,9.4"/>
	<path fill="none" stroke="#00BBD5" stroke-width="7" stroke-linecap="round" stroke-linejoin="round" d="M53.1,42.3
		c-5.4-0.9-11.2,0.6-15.4,4.2c-0.9,0.7-1.7,1.6-2.1,2.7c-0.8,2.4,0.9,5.1,3,6.6c3.8,2.7,8.7,3.2,13.3,3.6c-5.2,2.3-7.3,9.2-5.2,14.5
		c2.1,5.3,7.7,8.6,13.3,9.2s11.3-1.4,16.2-4.3c2.8-1.6,5.4-3.7,7.1-6.5s2.1-6.4,0.4-9.2c5.8,4.8,14.6,3.3,21.3-0.2
		c2.3-1.2,4.7-2.8,5.7-5.2c1.8-4.4-1.6-9.2-5.3-12.3c-8.4-7.1-19.3-11.2-30.3-11.4c-4.5-0.1-9.3,0.6-12.8,3.5
		c-0.9-3.5-5.6-5.5-8.8-3.7c-3.2,1.8-3.9,6.8-1.3,9.4"/>
	<path fill="none" stroke="#31C2D9" stroke-width="5" stroke-linecap="round" stroke-linejoin="round" d="M53.1,42.3
		c-5.4-0.9-11.2,0.6-15.4,4.2c-0.9,0.7-1.7,1.6-2.1,2.7c-0.8,2.4,0.9,5.1,3,6.6c3.8,2.7,8.7,3.2,13.3,3.6c-5.2,2.3-7.3,9.2-5.2,14.5
		c2.1,5.3,7.7,8.6,13.3,9.2s11.3-1.4,16.2-4.3c2.8-1.6,5.4-3.7,7.1-6.5s2.1-6.4,0.4-9.2c5.8,4.8,14.6,3.3,21.3-0.2
		c2.3-1.2,4.7-2.8,5.7-5.2c1.8-4.4-1.6-9.2-5.3-12.3c-8.4-7.1-19.3-11.2-30.3-11.4c-4.5-0.1-9.3,0.6-12.8,3.5
		c-0.9-3.5-5.6-5.5-8.8-3.7c-3.2,1.8-3.9,6.8-1.3,9.4"/>
	<path fill="none" stroke="#26C0D8" stroke-width="4" stroke-linecap="round" stroke-linejoin="round" d="M53.1,42.3
		c-5.4-0.9-11.2,0.6-15.4,4.2c-0.9,0.7-1.7,1.6-2.1,2.7c-0.8,2.4,0.9,5.1,3,6.6c3.8,2.7,8.7,3.2,13.3,3.6c-5.2,2.3-7.3,9.2-5.2,14.5
		c2.1,5.3,7.7,8.6,13.3,9.2s11.3-1.4,16.2-4.3c2.8-1.6,5.4-3.7,7.1-6.5s2.1-6.4,0.4-9.2c5.8,4.8,14.6,3.3,21.3-0.2
		c2.3-1.2,4.7-2.8,5.7-5.2c1.8-4.4-1.6-9.2-5.3-12.3c-8.4-7.1-19.3-11.2-30.3-11.4c-4.5-0.1-9.3,0.6-12.8,3.5
		c-0.9-3.5-5.6-5.5-8.8-3.7c-3.2,1.8-3.9,6.8-1.3,9.4"/>
	<path fill="none" stroke="#63CAE0" stroke-width="3" stroke-linecap="round" stroke-linejoin="round" d="M53.1,42.3
		c-5.4-0.9-11.2,0.6-15.4,4.2c-0.9,0.7-1.7,1.6-2.1,2.7c-0.8,2.4,0.9,5.1,3,6.6c3.8,2.7,8.7,3.2,13.3,3.6c-5.2,2.3-7.3,9.2-5.2,14.5
		c2.1,5.3,7.7,8.6,13.3,9.2s11.3-1.4,16.2-4.3c2.8-1.6,5.4-3.7,7.1-6.5s2.1-6.4,0.4-9.2c5.8,4.8,14.6,3.3,21.3-0.2
		c2.3-1.2,4.7-2.8,5.7-5.2c1.8-4.4-1.6-9.2-5.3-12.3c-8.4-7.1-19.3-11.2-30.3-11.4c-4.5-0.1-9.3,0.6-12.8,3.5
		c-0.9-3.5-5.6-5.5-8.8-3.7c-3.2,1.8-3.9,6.8-1.3,9.4"/>
	<path fill="none" stroke="#92D7E6" stroke-linecap="round" stroke-linejoin="round" d="M53.1,42.3c-5.4-0.9-11.2,0.6-15.4,4.2
		c-0.9,0.7-1.7,1.6-2.1,2.7c-0.8,2.4,0.9,5.1,3,6.6c3.8,2.7,8.7,3.2,13.3,3.6c-5.2,2.3-7.3,9.2-5.2,14.5c2.1,5.3,7.7,8.6,13.3,9.2
		s11.3-1.4,16.2-4.3c2.8-1.6,5.4-3.7,7.1-6.5s2.1-6.4,0.4-9.2c5.8,4.8,14.6,3.3,21.3-0.2c2.3-1.2,4.7-2.8,5.7-5.2
		c1.8-4.4-1.6-9.2-5.3-12.3c-8.4-7.1-19.3-11.2-30.3-11.4c-4.5-0.1-9.3,0.6-12.8,3.5c-0.9-3.5-5.6-5.5-8.8-3.7
		c-3.2,1.8-3.9,6.8-1.3,9.4"/>
</g>
<g>
	<path opacity="0.2" fill="none" stroke="#00BAD5" stroke-width="35" stroke-linecap="round" stroke-linejoin="round" d="
		M204.6,223.8c-5.6-0.9-11.4-0.2-16.6,2.1c-1.2,0.5-2.5,1.2-3.3,2.2c-2.6,3.1-0.6,8.1,2.4,10.8c3.3,3,7.8,4.6,12.3,4.4
		c-4,3.9-6.8,9.8-4.9,15.1c1.3,3.7,4.7,6.4,8.4,7.5s7.8,0.8,11.5-0.2c5.3-1.4,10.7-4.9,11.6-10.3c5.4,4,13.8,2.7,18-2.5
		s4.1-13.3,0.2-18.7c-3.9-5.4-11.1-8.1-17.8-7.1c1.1-6.2-3.8-12.9-10-13.8c-6.3-0.9-12.8,4.2-13.4,10.5"/>
	<path opacity="0.25" fill="none" stroke="#00BAD5" stroke-width="8.5" stroke-linecap="round" stroke-linejoin="round" d="
		M204.6,223.8c-5.6-0.9-11.4-0.2-16.6,2.1c-1.2,0.5-2.5,1.2-3.3,2.2c-2.6,3.1-0.6,8.1,2.4,10.8c3.3,3,7.8,4.6,12.3,4.4
		c-4,3.9-6.8,9.8-4.9,15.1c1.3,3.7,4.7,6.4,8.4,7.5s7.8,0.8,11.5-0.2c5.3-1.4,10.7-4.9,11.6-10.3c5.4,4,13.8,2.7,18-2.5
		s4.1-13.3,0.2-18.7c-3.9-5.4-11.1-8.1-17.8-7.1c1.1-6.2-3.8-12.9-10-13.8c-6.3-0.9-12.8,4.2-13.4,10.5"/>
	<path opacity="0.3" fill="none" stroke="#00BAD5" stroke-width="5" stroke-linecap="round" stroke-linejoin="round" d="
		M204.6,223.8c-5.6-0.9-11.4-0.2-16.6,2.1c-1.2,0.5-2.5,1.2-3.3,2.2c-2.6,3.1-0.6,8.1,2.4,10.8c3.3,3,7.8,4.6,12.3,4.4
		c-4,3.9-6.8,9.8-4.9,15.1c1.3,3.7,4.7,6.4,8.4,7.5s7.8,0.8,11.5-0.2c5.3-1.4,10.7-4.9,11.6-10.3c5.4,4,13.8,2.7,18-2.5
		s4.1-13.3,0.2-18.7c-3.9-5.4-11.1-8.1-17.8-7.1c1.1-6.2-3.8-12.9-10-13.8c-6.3-0.9-12.8,4.2-13.4,10.5"/>
	<path fill="none" stroke="#00BBD5" stroke-width="7" stroke-linecap="round" stroke-linejoin="round" d="M204.6,223.8
		c-5.6-0.9-11.4-0.2-16.6,2.1c-1.2,0.5-2.5,1.2-3.3,2.2c-2.6,3.1-0.6,8.1,2.4,10.8c3.3,3,7.8,4.6,12.3,4.4c-4,3.9-6.8,9.8-4.9,15.1
		c1.3,3.7,4.7,6.4,8.4,7.5s7.8,0.8,11.5-0.2c5.3-1.4,10.7-4.9,11.6-10.3c5.4,4,13.8,2.7,18-2.5s4.1-13.3,0.2-18.7
		c-3.9-5.4-11.1-8.1-17.8-7.1c1.1-6.2-3.8-12.9-10-13.8c-6.3-0.9-12.8,4.2-13.4,10.5"/>
	<path fill="none" stroke="#31C2D9" stroke-width="5" stroke-linecap="round" stroke-linejoin="round" d="M204.6,223.8
		c-5.6-0.9-11.4-0.2-16.6,2.1c-1.2,0.5-2.5,1.2-3.3,2.2c-2.6,3.1-0.6,8.1,2.4,10.8c3.3,3,7.8,4.6,12.3,4.4c-4,3.9-6.8,9.8-4.9,15.1
		c1.3,3.7,4.7,6.4,8.4,7.5s7.8,0.8,11.5-0.2c5.3-1.4,10.7-4.9,11.6-10.3c5.4,4,13.8,2.7,18-2.5s4.1-13.3,0.2-18.7
		c-3.9-5.4-11.1-8.1-17.8-7.1c1.1-6.2-3.8-12.9-10-13.8c-6.3-0.9-12.8,4.2-13.4,10.5"/>
	<path fill="none" stroke="#26C0D8" stroke-width="4" stroke-linecap="round" stroke-linejoin="round" d="M204.6,223.8
		c-5.6-0.9-11.4-0.2-16.6,2.1c-1.2,0.5-2.5,1.2-3.3,2.2c-2.6,3.1-0.6,8.1,2.4,10.8c3.3,3,7.8,4.6,12.3,4.4c-4,3.9-6.8,9.8-4.9,15.1
		c1.3,3.7,4.7,6.4,8.4,7.5s7.8,0.8,11.5-0.2c5.3-1.4,10.7-4.9,11.6-10.3c5.4,4,13.8,2.7,18-2.5s4.1-13.3,0.2-18.7
		c-3.9-5.4-11.1-8.1-17.8-7.1c1.1-6.2-3.8-12.9-10-13.8c-6.3-0.9-12.8,4.2-13.4,10.5"/>
	<path fill="none" stroke="#63CAE0" stroke-width="3" stroke-linecap="round" stroke-linejoin="round" d="M204.6,223.8
		c-5.6-0.9-11.4-0.2-16.6,2.1c-1.2,0.5-2.5,1.2-3.3,2.2c-2.6,3.1-0.6,8.1,2.4,10.8c3.3,3,7.8,4.6,12.3,4.4c-4,3.9-6.8,9.8-4.9,15.1
		c1.3,3.7,4.7,6.4,8.4,7.5s7.8,0.8,11.5-0.2c5.3-1.4,10.7-4.9,11.6-10.3c5.4,4,13.8,2.7,18-2.5s4.1-13.3,0.2-18.7
		c-3.9-5.4-11.1-8.1-17.8-7.1c1.1-6.2-3.8-12.9-10-13.8c-6.3-0.9-12.8,4.2-13.4,10.5"/>
	<path fill="none" stroke="#92D7E6" stroke-linecap="round" stroke-linejoin="round" d="M204.6,223.8c-5.6-0.9-11.4-0.2-16.6,2.1
		c-1.2,0.5-2.5,1.2-3.3,2.2c-2.6,3.1-0.6,8.1,2.4,10.8c3.3,3,7.8,4.6,12.3,4.4c-4,3.9-6.8,9.8-4.9,15.1c1.3,3.7,4.7,6.4,8.4,7.5
		s7.8,0.8,11.5-0.2c5.3-1.4,10.7-4.9,11.6-10.3c5.4,4,13.8,2.7,18-2.5s4.1-13.3,0.2-18.7c-3.9-5.4-11.1-8.1-17.8-7.1
		c1.1-6.2-3.8-12.9-10-13.8c-6.3-0.9-12.8,4.2-13.4,10.5"/>
</g>
<g>
	<path opacity="0.2" fill="none" stroke="#00BAD5" stroke-width="35" stroke-linecap="round" stroke-linejoin="round" d="M72,237.1
		c-1.1-0.7-2.4-1.1-3.6-0.9c-2,0.4-3.3,2.7-3.1,4.7c0.2,2.1,1.7,3.8,3.4,4.9c1.7,1.1,3.8,1.7,5.8,2.2c-2.9,2.5-2.4,7.7,0.6,10.1
		c3,2.4,7.6,2.1,10.7-0.2c3.1-2.3,4.6-6.2,4.7-10.1c0.4,1.3,2.3,1.5,3.4,0.6c1-0.9,1.3-2.3,1.3-3.7c0-5.8-4.9-11.1-10.6-11.6
		c-1.7-0.2-3.4,0-5,0.3c-1.8,0.2-3.6,0.4-5.4,0.7c-1,0.1-2.2,0.4-2.6,1.3c-0.1,0.3-0.2,0.7-0.5,0.7c-0.3,0.1-0.2-0.6,0-0.4"/>
	<path opacity="0.25" fill="none" stroke="#00BAD5" stroke-width="8.5" stroke-linecap="round" stroke-linejoin="round" d="
		M72,237.1c-1.1-0.7-2.4-1.1-3.6-0.9c-2,0.4-3.3,2.7-3.1,4.7c0.2,2.1,1.7,3.8,3.4,4.9c1.7,1.1,3.8,1.7,5.8,2.2
		c-2.9,2.5-2.4,7.7,0.6,10.1c3,2.4,7.6,2.1,10.7-0.2c3.1-2.3,4.6-6.2,4.7-10.1c0.4,1.3,2.3,1.5,3.4,0.6c1-0.9,1.3-2.3,1.3-3.7
		c0-5.8-4.9-11.1-10.6-11.6c-1.7-0.2-3.4,0-5,0.3c-1.8,0.2-3.6,0.4-5.4,0.7c-1,0.1-2.2,0.4-2.6,1.3c-0.1,0.3-0.2,0.7-0.5,0.7
		c-0.3,0.1-0.2-0.6,0-0.4"/>
	<path opacity="0.3" fill="none" stroke="#00BAD5" stroke-width="5" stroke-linecap="round" stroke-linejoin="round" d="M72,237.1
		c-1.1-0.7-2.4-1.1-3.6-0.9c-2,0.4-3.3,2.7-3.1,4.7c0.2,2.1,1.7,3.8,3.4,4.9c1.7,1.1,3.8,1.7,5.8,2.2c-2.9,2.5-2.4,7.7,0.6,10.1
		c3,2.4,7.6,2.1,10.7-0.2c3.1-2.3,4.6-6.2,4.7-10.1c0.4,1.3,2.3,1.5,3.4,0.6c1-0.9,1.3-2.3,1.3-3.7c0-5.8-4.9-11.1-10.6-11.6
		c-1.7-0.2-3.4,0-5,0.3c-1.8,0.2-3.6,0.4-5.4,0.7c-1,0.1-2.2,0.4-2.6,1.3c-0.1,0.3-0.2,0.7-0.5,0.7c-0.3,0.1-0.2-0.6,0-0.4"/>
	<path fill="none" stroke="#00BBD5" stroke-width="7" stroke-linecap="round" stroke-linejoin="round" d="M72,237.1
		c-1.1-0.7-2.4-1.1-3.6-0.9c-2,0.4-3.3,2.7-3.1,4.7c0.2,2.1,1.7,3.8,3.4,4.9c1.7,1.1,3.8,1.7,5.8,2.2c-2.9,2.5-2.4,7.7,0.6,10.1
		c3,2.4,7.6,2.1,10.7-0.2c3.1-2.3,4.6-6.2,4.7-10.1c0.4,1.3,2.3,1.5,3.4,0.6c1-0.9,1.3-2.3,1.3-3.7c0-5.8-4.9-11.1-10.6-11.6
		c-1.7-0.2-3.4,0-5,0.3c-1.8,0.2-3.6,0.4-5.4,0.7c-1,0.1-2.2,0.4-2.6,1.3c-0.1,0.3-0.2,0.7-0.5,0.7c-0.3,0.1-0.2-0.6,0-0.4"/>
	<path fill="none" stroke="#31C2D9" stroke-width="5" stroke-linecap="round" stroke-linejoin="round" d="M72,237.1
		c-1.1-0.7-2.4-1.1-3.6-0.9c-2,0.4-3.3,2.7-3.1,4.7c0.2,2.1,1.7,3.8,3.4,4.9c1.7,1.1,3.8,1.7,5.8,2.2c-2.9,2.5-2.4,7.7,0.6,10.1
		c3,2.4,7.6,2.1,10.7-0.2c3.1-2.3,4.6-6.2,4.7-10.1c0.4,1.3,2.3,1.5,3.4,0.6c1-0.9,1.3-2.3,1.3-3.7c0-5.8-4.9-11.1-10.6-11.6
		c-1.7-0.2-3.4,0-5,0.3c-1.8,0.2-3.6,0.4-5.4,0.7c-1,0.1-2.2,0.4-2.6,1.3c-0.1,0.3-0.2,0.7-0.5,0.7c-0.3,0.1-0.2-0.6,0-0.4"/>
	<path fill="none" stroke="#26C0D8" stroke-width="4" stroke-linecap="round" stroke-linejoin="round" d="M72,237.1
		c-1.1-0.7-2.4-1.1-3.6-0.9c-2,0.4-3.3,2.7-3.1,4.7c0.2,2.1,1.7,3.8,3.4,4.9c1.7,1.1,3.8,1.7,5.8,2.2c-2.9,2.5-2.4,7.7,0.6,10.1
		c3,2.4,7.6,2.1,10.7-0.2c3.1-2.3,4.6-6.2,4.7-10.1c0.4,1.3,2.3,1.5,3.4,0.6c1-0.9,1.3-2.3,1.3-3.7c0-5.8-4.9-11.1-10.6-11.6
		c-1.7-0.2-3.4,0-5,0.3c-1.8,0.2-3.6,0.4-5.4,0.7c-1,0.1-2.2,0.4-2.6,1.3c-0.1,0.3-0.2,0.7-0.5,0.7c-0.3,0.1-0.2-0.6,0-0.4"/>
	<path fill="none" stroke="#63CAE0" stroke-width="3" stroke-linecap="round" stroke-linejoin="round" d="M72,237.1
		c-1.1-0.7-2.4-1.1-3.6-0.9c-2,0.4-3.3,2.7-3.1,4.7c0.2,2.1,1.7,3.8,3.4,4.9c1.7,1.1,3.8,1.7,5.8,2.2c-2.9,2.5-2.4,7.7,0.6,10.1
		c3,2.4,7.6,2.1,10.7-0.2c3.1-2.3,4.6-6.2,4.7-10.1c0.4,1.3,2.3,1.5,3.4,0.6c1-0.9,1.3-2.3,1.3-3.7c0-5.8-4.9-11.1-10.6-11.6
		c-1.7-0.2-3.4,0-5,0.3c-1.8,0.2-3.6,0.4-5.4,0.7c-1,0.1-2.2,0.4-2.6,1.3c-0.1,0.3-0.2,0.7-0.5,0.7c-0.3,0.1-0.2-0.6,0-0.4"/>
	<path fill="none" stroke="#92D7E6" stroke-linecap="round" stroke-linejoin="round" d="M72,237.1c-1.1-0.7-2.4-1.1-3.6-0.9
		c-2,0.4-3.3,2.7-3.1,4.7c0.2,2.1,1.7,3.8,3.4,4.9c1.7,1.1,3.8,1.7,5.8,2.2c-2.9,2.5-2.4,7.7,0.6,10.1c3,2.4,7.6,2.1,10.7-0.2
		c3.1-2.3,4.6-6.2,4.7-10.1c0.4,1.3,2.3,1.5,3.4,0.6c1-0.9,1.3-2.3,1.3-3.7c0-5.8-4.9-11.1-10.6-11.6c-1.7-0.2-3.4,0-5,0.3
		c-1.8,0.2-3.6,0.4-5.4,0.7c-1,0.1-2.2,0.4-2.6,1.3c-0.1,0.3-0.2,0.7-0.5,0.7c-0.3,0.1-0.2-0.6,0-0.4"/>
</g>
</svg>
