<?xml version="1.0" encoding="utf-8"?>
<!-- Generator: Adobe Illustrator 19.2.0, SVG Export Plug-In . SVG Version: 6.00 Build 0)  -->
<svg version="1.1" id="Layer_1" xmlns="http://www.w3.org/2000/svg" xmlns:xlink="http://www.w3.org/1999/xlink" x="0px" y="0px"
	 viewBox="0 0 300 300" enable-background="new 0 0 300 300" xml:space="preserve">
<g>
	<path opacity="0.2" fill="none" stroke="#00BAD5" stroke-width="10" stroke-linecap="round" stroke-linejoin="round" d="M87.3,68.1
		C71.3,66.6,55.4,75,44.4,87.7s-17.7,29.6-21.3,46.9c-3.9,18.5-4.2,39,4.8,55.2c5.9,10.7,17.9,19,28.3,14.1
		c6.9-3.2,11.1-11.4,12.5-19.6c1.4-8.2,0.6-16.6,0.5-24.9c-0.2-17.8,2.9-35.6,9.1-51.9c-8.4,36.2-7.2,75.1,3.3,110.7
		c2.8,9.6,6.5,19.1,12.4,26.8c5.7,7.4,13.3,12.7,21.4,16.6c23.4,11.3,50.4,10.5,75.2,3.9c15.2-4.1,30.9-11.1,39.8-25.4
		c4.2-6.8,6.6-14.9,8.5-22.9c4.3-18.3,6.4-37.4,4.2-56.1c-2.2-18.7-9-37.1-20.9-50.6c13.5,17.8,27.5,36.5,32.5,59.2
		c1,4.7,1.7,9.7,3.8,13.9s6.2,7.8,10.6,7.4c3.9-0.4,7-3.9,8.5-7.9c1.5-4,1.6-8.4,1.5-12.7c-0.1-16-1.7-32.6-8.8-46.5
		c-4-7.9-9.6-14.7-15.8-20.6C235,84.3,210,73.7,184.7,68.5s-51.3-5.4-77-5.5c-6.8,0-14.1,0.1-19.4,4.8"/>
	<path opacity="0.25" fill="none" stroke="#00BAD5" stroke-width="8.5" stroke-linecap="round" stroke-linejoin="round" d="
		M87.3,68.1C71.3,66.6,55.4,75,44.4,87.7s-17.7,29.6-21.3,46.9c-3.9,18.5-4.2,39,4.8,55.2c5.9,10.7,17.9,19,28.3,14.1
		c6.9-3.2,11.1-11.4,12.5-19.6c1.4-8.2,0.6-16.6,0.5-24.9c-0.2-17.8,2.9-35.6,9.1-51.9c-8.4,36.2-7.2,75.1,3.3,110.7
		c2.8,9.6,6.5,19.1,12.4,26.8c5.7,7.4,13.3,12.7,21.4,16.6c23.4,11.3,50.4,10.5,75.2,3.9c15.2-4.1,30.9-11.1,39.8-25.4
		c4.2-6.8,6.6-14.9,8.5-22.9c4.3-18.3,6.4-37.4,4.2-56.1c-2.2-18.7-9-37.1-20.9-50.6c13.5,17.8,27.5,36.5,32.5,59.2
		c1,4.7,1.7,9.7,3.8,13.9s6.2,7.8,10.6,7.4c3.9-0.4,7-3.9,8.5-7.9c1.5-4,1.6-8.4,1.5-12.7c-0.1-16-1.7-32.6-8.8-46.5
		c-4-7.9-9.6-14.7-15.8-20.6C235,84.3,210,73.7,184.7,68.5s-51.3-5.4-77-5.5c-6.8,0-14.1,0.1-19.4,4.8"/>
	<path opacity="0.3" fill="none" stroke="#00BAD5" stroke-width="5" stroke-linecap="round" stroke-linejoin="round" d="M87.3,68.1
		C71.3,66.6,55.4,75,44.4,87.7s-17.7,29.6-21.3,46.9c-3.9,18.5-4.2,39,4.8,55.2c5.9,10.7,17.9,19,28.3,14.1
		c6.9-3.2,11.1-11.4,12.5-19.6c1.4-8.2,0.6-16.6,0.5-24.9c-0.2-17.8,2.9-35.6,9.1-51.9c-8.4,36.2-7.2,75.1,3.3,110.7
		c2.8,9.6,6.5,19.1,12.4,26.8c5.7,7.4,13.3,12.7,21.4,16.6c23.4,11.3,50.4,10.5,75.2,3.9c15.2-4.1,30.9-11.1,39.8-25.4
		c4.2-6.8,6.6-14.9,8.5-22.9c4.3-18.3,6.4-37.4,4.2-56.1c-2.2-18.7-9-37.1-20.9-50.6c13.5,17.8,27.5,36.5,32.5,59.2
		c1,4.7,1.7,9.7,3.8,13.9s6.2,7.8,10.6,7.4c3.9-0.4,7-3.9,8.5-7.9c1.5-4,1.6-8.4,1.5-12.7c-0.1-16-1.7-32.6-8.8-46.5
		c-4-7.9-9.6-14.7-15.8-20.6C235,84.3,210,73.7,184.7,68.5s-51.3-5.4-77-5.5c-6.8,0-14.1,0.1-19.4,4.8"/>
	<path fill="none" stroke="#00BBD5" stroke-width="7" stroke-linecap="round" stroke-linejoin="round" d="M87.3,68.1
		C71.3,66.6,55.4,75,44.4,87.7s-17.7,29.6-21.3,46.9c-3.9,18.5-4.2,39,4.8,55.2c5.9,10.7,17.9,19,28.3,14.1
		c6.9-3.2,11.1-11.4,12.5-19.6c1.4-8.2,0.6-16.6,0.5-24.9c-0.2-17.8,2.9-35.6,9.1-51.9c-8.4,36.2-7.2,75.1,3.3,110.7
		c2.8,9.6,6.5,19.1,12.4,26.8c5.7,7.4,13.3,12.7,21.4,16.6c23.4,11.3,50.4,10.5,75.2,3.9c15.2-4.1,30.9-11.1,39.8-25.4
		c4.2-6.8,6.6-14.9,8.5-22.9c4.3-18.3,6.4-37.4,4.2-56.1c-2.2-18.7-9-37.1-20.9-50.6c13.5,17.8,27.5,36.5,32.5,59.2
		c1,4.7,1.7,9.7,3.8,13.9s6.2,7.8,10.6,7.4c3.9-0.4,7-3.9,8.5-7.9c1.5-4,1.6-8.4,1.5-12.7c-0.1-16-1.7-32.6-8.8-46.5
		c-4-7.9-9.6-14.7-15.8-20.6C235,84.3,210,73.7,184.7,68.5s-51.3-5.4-77-5.5c-6.8,0-14.1,0.1-19.4,4.8"/>
	<path fill="none" stroke="#31C2D9" stroke-width="5" stroke-linecap="round" stroke-linejoin="round" d="M87.3,68.1
		C71.3,66.6,55.4,75,44.4,87.7s-17.7,29.6-21.3,46.9c-3.9,18.5-4.2,39,4.8,55.2c5.9,10.7,17.9,19,28.3,14.1
		c6.9-3.2,11.1-11.4,12.5-19.6c1.4-8.2,0.6-16.6,0.5-24.9c-0.2-17.8,2.9-35.6,9.1-51.9c-8.4,36.2-7.2,75.1,3.3,110.7
		c2.8,9.6,6.5,19.1,12.4,26.8c5.7,7.4,13.3,12.7,21.4,16.6c23.4,11.3,50.4,10.5,75.2,3.9c15.2-4.1,30.9-11.1,39.8-25.4
		c4.2-6.8,6.6-14.9,8.5-22.9c4.3-18.3,6.4-37.4,4.2-56.1c-2.2-18.7-9-37.1-20.9-50.6c13.5,17.8,27.5,36.5,32.5,59.2
		c1,4.7,1.7,9.7,3.8,13.9s6.2,7.8,10.6,7.4c3.9-0.4,7-3.9,8.5-7.9c1.5-4,1.6-8.4,1.5-12.7c-0.1-16-1.7-32.6-8.8-46.5
		c-4-7.9-9.6-14.7-15.8-20.6C235,84.3,210,73.7,184.7,68.5s-51.3-5.4-77-5.5c-6.8,0-14.1,0.1-19.4,4.8"/>
	<path fill="none" stroke="#26C0D8" stroke-width="4" stroke-linecap="round" stroke-linejoin="round" d="M87.3,68.1
		C71.3,66.6,55.4,75,44.4,87.7s-17.7,29.6-21.3,46.9c-3.9,18.5-4.2,39,4.8,55.2c5.9,10.7,17.9,19,28.3,14.1
		c6.9-3.2,11.1-11.4,12.5-19.6c1.4-8.2,0.6-16.6,0.5-24.9c-0.2-17.8,2.9-35.6,9.1-51.9c-8.4,36.2-7.2,75.1,3.3,110.7
		c2.8,9.6,6.5,19.1,12.4,26.8c5.7,7.4,13.3,12.7,21.4,16.6c23.4,11.3,50.4,10.5,75.2,3.9c15.2-4.1,30.9-11.1,39.8-25.4
		c4.2-6.8,6.6-14.9,8.5-22.9c4.3-18.3,6.4-37.4,4.2-56.1c-2.2-18.7-9-37.1-20.9-50.6c13.5,17.8,27.5,36.5,32.5,59.2
		c1,4.7,1.7,9.7,3.8,13.9s6.2,7.8,10.6,7.4c3.9-0.4,7-3.9,8.5-7.9c1.5-4,1.6-8.4,1.5-12.7c-0.1-16-1.7-32.6-8.8-46.5
		c-4-7.9-9.6-14.7-15.8-20.6C235,84.3,210,73.7,184.7,68.5s-51.3-5.4-77-5.5c-6.8,0-14.1,0.1-19.4,4.8"/>
	<path fill="none" stroke="#63CAE0" stroke-width="3" stroke-linecap="round" stroke-linejoin="round" d="M87.3,68.1
		C71.3,66.6,55.4,75,44.4,87.7s-17.7,29.6-21.3,46.9c-3.9,18.5-4.2,39,4.8,55.2c5.9,10.7,17.9,19,28.3,14.1
		c6.9-3.2,11.1-11.4,12.5-19.6c1.4-8.2,0.6-16.6,0.5-24.9c-0.2-17.8,2.9-35.6,9.1-51.9c-8.4,36.2-7.2,75.1,3.3,110.7
		c2.8,9.6,6.5,19.1,12.4,26.8c5.7,7.4,13.3,12.7,21.4,16.6c23.4,11.3,50.4,10.5,75.2,3.9c15.2-4.1,30.9-11.1,39.8-25.4
		c4.2-6.8,6.6-14.9,8.5-22.9c4.3-18.3,6.4-37.4,4.2-56.1c-2.2-18.7-9-37.1-20.9-50.6c13.5,17.8,27.5,36.5,32.5,59.2
		c1,4.7,1.7,9.7,3.8,13.9s6.2,7.8,10.6,7.4c3.9-0.4,7-3.9,8.5-7.9c1.5-4,1.6-8.4,1.5-12.7c-0.1-16-1.7-32.6-8.8-46.5
		c-4-7.9-9.6-14.7-15.8-20.6C235,84.3,210,73.7,184.7,68.5s-51.3-5.4-77-5.5c-6.8,0-14.1,0.1-19.4,4.8"/>
	<path fill="none" stroke="#92D7E6" stroke-linecap="round" stroke-linejoin="round" d="M87.3,68.1C71.3,66.6,55.4,75,44.4,87.7
		s-17.7,29.6-21.3,46.9c-3.9,18.5-4.2,39,4.8,55.2c5.9,10.7,17.9,19,28.3,14.1c6.9-3.2,11.1-11.4,12.5-19.6
		c1.4-8.2,0.6-16.6,0.5-24.9c-0.2-17.8,2.9-35.6,9.1-51.9c-8.4,36.2-7.2,75.1,3.3,110.7c2.8,9.6,6.5,19.1,12.4,26.8
		c5.7,7.4,13.3,12.7,21.4,16.6c23.4,11.3,50.4,10.5,75.2,3.9c15.2-4.1,30.9-11.1,39.8-25.4c4.2-6.8,6.6-14.9,8.5-22.9
		c4.3-18.3,6.4-37.4,4.2-56.1c-2.2-18.7-9-37.1-20.9-50.6c13.5,17.8,27.5,36.5,32.5,59.2c1,4.7,1.7,9.7,3.8,13.9s6.2,7.8,10.6,7.4
		c3.9-0.4,7-3.9,8.5-7.9c1.5-4,1.6-8.4,1.5-12.7c-0.1-16-1.7-32.6-8.8-46.5c-4-7.9-9.6-14.7-15.8-20.6C235,84.3,210,73.7,184.7,68.5
		s-51.3-5.4-77-5.5c-6.8,0-14.1,0.1-19.4,4.8"/>
</g>
<g>
	<path opacity="0.2" fill="none" stroke="#00BAD5" stroke-width="10" stroke-linecap="round" stroke-linejoin="round" d="
		M99.6,132.3c-2.1,6.9-4.1,14-4,21.3s2.9,14.9,8.6,18.7c1.6,1,3.4,1.7,5.2,2.3c9.6,2.8,20.6,0.4,27.5-7.5s8.5-21.3,2.5-30
		c-2.4-3.6-5.9-6.2-9.5-8.2c-10-5.4-22.8-5.7-31.8,1.5"/>
	<path opacity="0.25" fill="none" stroke="#00BAD5" stroke-width="8.5" stroke-linecap="round" stroke-linejoin="round" d="
		M99.6,132.3c-2.1,6.9-4.1,14-4,21.3s2.9,14.9,8.6,18.7c1.6,1,3.4,1.7,5.2,2.3c9.6,2.8,20.6,0.4,27.5-7.5s8.5-21.3,2.5-30
		c-2.4-3.6-5.9-6.2-9.5-8.2c-10-5.4-22.8-5.7-31.8,1.5"/>
	<path opacity="0.3" fill="none" stroke="#00BAD5" stroke-width="5" stroke-linecap="round" stroke-linejoin="round" d="M99.6,132.3
		c-2.1,6.9-4.1,14-4,21.3s2.9,14.9,8.6,18.7c1.6,1,3.4,1.7,5.2,2.3c9.6,2.8,20.6,0.4,27.5-7.5s8.5-21.3,2.5-30
		c-2.4-3.6-5.9-6.2-9.5-8.2c-10-5.4-22.8-5.7-31.8,1.5"/>
	<path fill="none" stroke="#00BBD5" stroke-width="7" stroke-linecap="round" stroke-linejoin="round" d="M99.6,132.3
		c-2.1,6.9-4.1,14-4,21.3s2.9,14.9,8.6,18.7c1.6,1,3.4,1.7,5.2,2.3c9.6,2.8,20.6,0.4,27.5-7.5s8.5-21.3,2.5-30
		c-2.4-3.6-5.9-6.2-9.5-8.2c-10-5.4-22.8-5.7-31.8,1.5"/>
	<path fill="none" stroke="#31C2D9" stroke-width="5" stroke-linecap="round" stroke-linejoin="round" d="M99.6,132.3
		c-2.1,6.9-4.1,14-4,21.3s2.9,14.9,8.6,18.7c1.6,1,3.4,1.7,5.2,2.3c9.6,2.8,20.6,0.4,27.5-7.5s8.5-21.3,2.5-30
		c-2.4-3.6-5.9-6.2-9.5-8.2c-10-5.4-22.8-5.7-31.8,1.5"/>
	<path fill="none" stroke="#26C0D8" stroke-width="4" stroke-linecap="round" stroke-linejoin="round" d="M99.6,132.3
		c-2.1,6.9-4.1,14-4,21.3s2.9,14.9,8.6,18.7c1.6,1,3.4,1.7,5.2,2.3c9.6,2.8,20.6,0.4,27.5-7.5s8.5-21.3,2.5-30
		c-2.4-3.6-5.9-6.2-9.5-8.2c-10-5.4-22.8-5.7-31.8,1.5"/>
	<path fill="none" stroke="#63CAE0" stroke-width="3" stroke-linecap="round" stroke-linejoin="round" d="M99.6,132.3
		c-2.1,6.9-4.1,14-4,21.3s2.9,14.9,8.6,18.7c1.6,1,3.4,1.7,5.2,2.3c9.6,2.8,20.6,0.4,27.5-7.5s8.5-21.3,2.5-30
		c-2.4-3.6-5.9-6.2-9.5-8.2c-10-5.4-22.8-5.7-31.8,1.5"/>
	<path fill="none" stroke="#92D7E6" stroke-linecap="round" stroke-linejoin="round" d="M99.6,132.3c-2.1,6.9-4.1,14-4,21.3
		s2.9,14.9,8.6,18.7c1.6,1,3.4,1.7,5.2,2.3c9.6,2.8,20.6,0.4,27.5-7.5s8.5-21.3,2.5-30c-2.4-3.6-5.9-6.2-9.5-8.2
		c-10-5.4-22.8-5.7-31.8,1.5"/>
</g>
<g>
	<path opacity="0.2" fill="none" stroke="#00BAD5" stroke-width="10" stroke-linecap="round" stroke-linejoin="round" d="M182.8,120
		c-11.3,5.7-17.5,21.5-13.5,34.5c1.4,4.6,3.9,8.8,6.8,12.5c3,3.7,6.5,7,10.7,9c10.6,5,24.4-0.9,29.2-12.6c1.2-3,1.9-6.3,1.6-9.5
		c-0.4-4.1-2.4-7.8-4.5-11.2c-4-6.4-8.7-12.5-14.5-16.8s-13-7-20-6.1"/>
	<path opacity="0.25" fill="none" stroke="#00BAD5" stroke-width="8.5" stroke-linecap="round" stroke-linejoin="round" d="
		M182.8,120c-11.3,5.7-17.5,21.5-13.5,34.5c1.4,4.6,3.9,8.8,6.8,12.5c3,3.7,6.5,7,10.7,9c10.6,5,24.4-0.9,29.2-12.6
		c1.2-3,1.9-6.3,1.6-9.5c-0.4-4.1-2.4-7.8-4.5-11.2c-4-6.4-8.7-12.5-14.5-16.8s-13-7-20-6.1"/>
	<path opacity="0.3" fill="none" stroke="#00BAD5" stroke-width="5" stroke-linecap="round" stroke-linejoin="round" d="M182.8,120
		c-11.3,5.7-17.5,21.5-13.5,34.5c1.4,4.6,3.9,8.8,6.8,12.5c3,3.7,6.5,7,10.7,9c10.6,5,24.4-0.9,29.2-12.6c1.2-3,1.9-6.3,1.6-9.5
		c-0.4-4.1-2.4-7.8-4.5-11.2c-4-6.4-8.7-12.5-14.5-16.8s-13-7-20-6.1"/>
	<path fill="none" stroke="#00BBD5" stroke-width="7" stroke-linecap="round" stroke-linejoin="round" d="M182.8,120
		c-11.3,5.7-17.5,21.5-13.5,34.5c1.4,4.6,3.9,8.8,6.8,12.5c3,3.7,6.5,7,10.7,9c10.6,5,24.4-0.9,29.2-12.6c1.2-3,1.9-6.3,1.6-9.5
		c-0.4-4.1-2.4-7.8-4.5-11.2c-4-6.4-8.7-12.5-14.5-16.8s-13-7-20-6.1"/>
	<path fill="none" stroke="#31C2D9" stroke-width="5" stroke-linecap="round" stroke-linejoin="round" d="M182.8,120
		c-11.3,5.7-17.5,21.5-13.5,34.5c1.4,4.6,3.9,8.8,6.8,12.5c3,3.7,6.5,7,10.7,9c10.6,5,24.4-0.9,29.2-12.6c1.2-3,1.9-6.3,1.6-9.5
		c-0.4-4.1-2.4-7.8-4.5-11.2c-4-6.4-8.7-12.5-14.5-16.8s-13-7-20-6.1"/>
	<path fill="none" stroke="#26C0D8" stroke-width="4" stroke-linecap="round" stroke-linejoin="round" d="M182.8,120
		c-11.3,5.7-17.5,21.5-13.5,34.5c1.4,4.6,3.9,8.8,6.8,12.5c3,3.7,6.5,7,10.7,9c10.6,5,24.4-0.9,29.2-12.6c1.2-3,1.9-6.3,1.6-9.5
		c-0.4-4.1-2.4-7.8-4.5-11.2c-4-6.4-8.7-12.5-14.5-16.8s-13-7-20-6.1"/>
	<path fill="none" stroke="#63CAE0" stroke-width="3" stroke-linecap="round" stroke-linejoin="round" d="M182.8,120
		c-11.3,5.7-17.5,21.5-13.5,34.5c1.4,4.6,3.9,8.8,6.8,12.5c3,3.7,6.5,7,10.7,9c10.6,5,24.4-0.9,29.2-12.6c1.2-3,1.9-6.3,1.6-9.5
		c-0.4-4.1-2.4-7.8-4.5-11.2c-4-6.4-8.7-12.5-14.5-16.8s-13-7-20-6.1"/>
	<path fill="none" stroke="#92D7E6" stroke-linecap="round" stroke-linejoin="round" d="M182.8,120c-11.3,5.7-17.5,21.5-13.5,34.5
		c1.4,4.6,3.9,8.8,6.8,12.5c3,3.7,6.5,7,10.7,9c10.6,5,24.4-0.9,29.2-12.6c1.2-3,1.9-6.3,1.6-9.5c-0.4-4.1-2.4-7.8-4.5-11.2
		c-4-6.4-8.7-12.5-14.5-16.8s-13-7-20-6.1"/>
</g>
<g>
	<path opacity="0.2" fill="none" stroke="#00BAD5" stroke-width="10" stroke-linecap="round" stroke-linejoin="round" d="
		M192.6,138.8c-1.1-0.7-2.6-0.2-3.5,0.7c-0.9,1-1.4,2.4-1.8,3.7c-0.4,1.2-0.8,2.5-0.5,3.7c0.4,1.5,1.8,2.3,3.2,2.5
		c2.5,0.4,5.1-1,6.3-3.4c1.2-2.4,0.7-5.8-1.2-7.6c-1.9-1.8-5.1-1.7-6.8,0.3"/>
	<path opacity="0.25" fill="none" stroke="#00BAD5" stroke-width="8.5" stroke-linecap="round" stroke-linejoin="round" d="
		M192.6,138.8c-1.1-0.7-2.6-0.2-3.5,0.7c-0.9,1-1.4,2.4-1.8,3.7c-0.4,1.2-0.8,2.5-0.5,3.7c0.4,1.5,1.8,2.3,3.2,2.5
		c2.5,0.4,5.1-1,6.3-3.4c1.2-2.4,0.7-5.8-1.2-7.6c-1.9-1.8-5.1-1.7-6.8,0.3"/>
	<path opacity="0.3" fill="none" stroke="#00BAD5" stroke-width="5" stroke-linecap="round" stroke-linejoin="round" d="
		M192.6,138.8c-1.1-0.7-2.6-0.2-3.5,0.7c-0.9,1-1.4,2.4-1.8,3.7c-0.4,1.2-0.8,2.5-0.5,3.7c0.4,1.5,1.8,2.3,3.2,2.5
		c2.5,0.4,5.1-1,6.3-3.4c1.2-2.4,0.7-5.8-1.2-7.6c-1.9-1.8-5.1-1.7-6.8,0.3"/>
	<path fill="none" stroke="#00BBD5" stroke-width="7" stroke-linecap="round" stroke-linejoin="round" d="M192.6,138.8
		c-1.1-0.7-2.6-0.2-3.5,0.7c-0.9,1-1.4,2.4-1.8,3.7c-0.4,1.2-0.8,2.5-0.5,3.7c0.4,1.5,1.8,2.3,3.2,2.5c2.5,0.4,5.1-1,6.3-3.4
		c1.2-2.4,0.7-5.8-1.2-7.6c-1.9-1.8-5.1-1.7-6.8,0.3"/>
	<path fill="none" stroke="#31C2D9" stroke-width="5" stroke-linecap="round" stroke-linejoin="round" d="M192.6,138.8
		c-1.1-0.7-2.6-0.2-3.5,0.7c-0.9,1-1.4,2.4-1.8,3.7c-0.4,1.2-0.8,2.5-0.5,3.7c0.4,1.5,1.8,2.3,3.2,2.5c2.5,0.4,5.1-1,6.3-3.4
		c1.2-2.4,0.7-5.8-1.2-7.6c-1.9-1.8-5.1-1.7-6.8,0.3"/>
	<path fill="none" stroke="#26C0D8" stroke-width="4" stroke-linecap="round" stroke-linejoin="round" d="M192.6,138.8
		c-1.1-0.7-2.6-0.2-3.5,0.7c-0.9,1-1.4,2.4-1.8,3.7c-0.4,1.2-0.8,2.5-0.5,3.7c0.4,1.5,1.8,2.3,3.2,2.5c2.5,0.4,5.1-1,6.3-3.4
		c1.2-2.4,0.7-5.8-1.2-7.6c-1.9-1.8-5.1-1.7-6.8,0.3"/>
	<path fill="none" stroke="#63CAE0" stroke-width="3" stroke-linecap="round" stroke-linejoin="round" d="M192.6,138.8
		c-1.1-0.7-2.6-0.2-3.5,0.7c-0.9,1-1.4,2.4-1.8,3.7c-0.4,1.2-0.8,2.5-0.5,3.7c0.4,1.5,1.8,2.3,3.2,2.5c2.5,0.4,5.1-1,6.3-3.4
		c1.2-2.4,0.7-5.8-1.2-7.6c-1.9-1.8-5.1-1.7-6.8,0.3"/>
	<path fill="none" stroke="#92D7E6" stroke-linecap="round" stroke-linejoin="round" d="M192.6,138.8c-1.1-0.7-2.6-0.2-3.5,0.7
		c-0.9,1-1.4,2.4-1.8,3.7c-0.4,1.2-0.8,2.5-0.5,3.7c0.4,1.5,1.8,2.3,3.2,2.5c2.5,0.4,5.1-1,6.3-3.4c1.2-2.4,0.7-5.8-1.2-7.6
		c-1.9-1.8-5.1-1.7-6.8,0.3"/>
</g>
<g>
	<path opacity="0.2" fill="none" stroke="#00BAD5" stroke-width="10" stroke-linecap="round" stroke-linejoin="round" d="
		M109.7,142.8c-0.9,1.5-0.6,3.6,0.2,5c0.9,1.5,2.3,2.5,3.8,3.2c2.4,1.2,5.5,1.6,7.4-0.4c1.3-1.4,1.6-3.6,1.1-5.5s-1.9-3.4-3.5-4.2
		c-1.5-0.8-3.2-1.1-4.7-0.4c-1.5,0.6-2.8,2.2-2.8,4"/>
	<path opacity="0.25" fill="none" stroke="#00BAD5" stroke-width="8.5" stroke-linecap="round" stroke-linejoin="round" d="
		M109.7,142.8c-0.9,1.5-0.6,3.6,0.2,5c0.9,1.5,2.3,2.5,3.8,3.2c2.4,1.2,5.5,1.6,7.4-0.4c1.3-1.4,1.6-3.6,1.1-5.5s-1.9-3.4-3.5-4.2
		c-1.5-0.8-3.2-1.1-4.7-0.4c-1.5,0.6-2.8,2.2-2.8,4"/>
	<path opacity="0.3" fill="none" stroke="#00BAD5" stroke-width="5" stroke-linecap="round" stroke-linejoin="round" d="
		M109.7,142.8c-0.9,1.5-0.6,3.6,0.2,5c0.9,1.5,2.3,2.5,3.8,3.2c2.4,1.2,5.5,1.6,7.4-0.4c1.3-1.4,1.6-3.6,1.1-5.5s-1.9-3.4-3.5-4.2
		c-1.5-0.8-3.2-1.1-4.7-0.4c-1.5,0.6-2.8,2.2-2.8,4"/>
	<path fill="none" stroke="#00BBD5" stroke-width="7" stroke-linecap="round" stroke-linejoin="round" d="M109.7,142.8
		c-0.9,1.5-0.6,3.6,0.2,5c0.9,1.5,2.3,2.5,3.8,3.2c2.4,1.2,5.5,1.6,7.4-0.4c1.3-1.4,1.6-3.6,1.1-5.5s-1.9-3.4-3.5-4.2
		c-1.5-0.8-3.2-1.1-4.7-0.4c-1.5,0.6-2.8,2.2-2.8,4"/>
	<path fill="none" stroke="#31C2D9" stroke-width="5" stroke-linecap="round" stroke-linejoin="round" d="M109.7,142.8
		c-0.9,1.5-0.6,3.6,0.2,5c0.9,1.5,2.3,2.5,3.8,3.2c2.4,1.2,5.5,1.6,7.4-0.4c1.3-1.4,1.6-3.6,1.1-5.5s-1.9-3.4-3.5-4.2
		c-1.5-0.8-3.2-1.1-4.7-0.4c-1.5,0.6-2.8,2.2-2.8,4"/>
	<path fill="none" stroke="#26C0D8" stroke-width="4" stroke-linecap="round" stroke-linejoin="round" d="M109.7,142.8
		c-0.9,1.5-0.6,3.6,0.2,5c0.9,1.5,2.3,2.5,3.8,3.2c2.4,1.2,5.5,1.6,7.4-0.4c1.3-1.4,1.6-3.6,1.1-5.5s-1.9-3.4-3.5-4.2
		c-1.5-0.8-3.2-1.1-4.7-0.4c-1.5,0.6-2.8,2.2-2.8,4"/>
	<path fill="none" stroke="#63CAE0" stroke-width="3" stroke-linecap="round" stroke-linejoin="round" d="M109.7,142.8
		c-0.9,1.5-0.6,3.6,0.2,5c0.9,1.5,2.3,2.5,3.8,3.2c2.4,1.2,5.5,1.6,7.4-0.4c1.3-1.4,1.6-3.6,1.1-5.5s-1.9-3.4-3.5-4.2
		c-1.5-0.8-3.2-1.1-4.7-0.4c-1.5,0.6-2.8,2.2-2.8,4"/>
	<path fill="none" stroke="#92D7E6" stroke-linecap="round" stroke-linejoin="round" d="M109.7,142.8c-0.9,1.5-0.6,3.6,0.2,5
		c0.9,1.5,2.3,2.5,3.8,3.2c2.4,1.2,5.5,1.6,7.4-0.4c1.3-1.4,1.6-3.6,1.1-5.5s-1.9-3.4-3.5-4.2c-1.5-0.8-3.2-1.1-4.7-0.4
		c-1.5,0.6-2.8,2.2-2.8,4"/>
</g>
<g>
	<path opacity="0.2" fill="none" stroke="#00BAD5" stroke-width="10" stroke-linecap="round" stroke-linejoin="round" d="
		M172.7,122.1c6.4-10.1,17.2-16.6,28.4-16.9"/>
	<path opacity="0.25" fill="none" stroke="#00BAD5" stroke-width="8.5" stroke-linecap="round" stroke-linejoin="round" d="
		M172.7,122.1c6.4-10.1,17.2-16.6,28.4-16.9"/>
	<path opacity="0.3" fill="none" stroke="#00BAD5" stroke-width="5" stroke-linecap="round" stroke-linejoin="round" d="
		M172.7,122.1c6.4-10.1,17.2-16.6,28.4-16.9"/>
	<path fill="none" stroke="#00BBD5" stroke-width="7" stroke-linecap="round" stroke-linejoin="round" d="M172.7,122.1
		c6.4-10.1,17.2-16.6,28.4-16.9"/>
	<path fill="none" stroke="#31C2D9" stroke-width="5" stroke-linecap="round" stroke-linejoin="round" d="M172.7,122.1
		c6.4-10.1,17.2-16.6,28.4-16.9"/>
	<path fill="none" stroke="#26C0D8" stroke-width="4" stroke-linecap="round" stroke-linejoin="round" d="M172.7,122.1
		c6.4-10.1,17.2-16.6,28.4-16.9"/>
	<path fill="none" stroke="#63CAE0" stroke-width="3" stroke-linecap="round" stroke-linejoin="round" d="M172.7,122.1
		c6.4-10.1,17.2-16.6,28.4-16.9"/>
	<path fill="none" stroke="#92D7E6" stroke-linecap="round" stroke-linejoin="round" d="M172.7,122.1c6.4-10.1,17.2-16.6,28.4-16.9"
		/>
</g>
<g>
	<path opacity="0.2" fill="none" stroke="#00BAD5" stroke-width="10" stroke-linecap="round" stroke-linejoin="round" d="M93,131.1
		c2.1-9.6,8-18,15.8-22.8c0.3-0.2,0.6-0.3,0.9-0.2c0.3,0.1,0.5,0.7,0.2,0.8"/>
	<path opacity="0.25" fill="none" stroke="#00BAD5" stroke-width="8.5" stroke-linecap="round" stroke-linejoin="round" d="
		M93,131.1c2.1-9.6,8-18,15.8-22.8c0.3-0.2,0.6-0.3,0.9-0.2c0.3,0.1,0.5,0.7,0.2,0.8"/>
	<path opacity="0.3" fill="none" stroke="#00BAD5" stroke-width="5" stroke-linecap="round" stroke-linejoin="round" d="M93,131.1
		c2.1-9.6,8-18,15.8-22.8c0.3-0.2,0.6-0.3,0.9-0.2c0.3,0.1,0.5,0.7,0.2,0.8"/>
	<path fill="none" stroke="#00BBD5" stroke-width="7" stroke-linecap="round" stroke-linejoin="round" d="M93,131.1
		c2.1-9.6,8-18,15.8-22.8c0.3-0.2,0.6-0.3,0.9-0.2c0.3,0.1,0.5,0.7,0.2,0.8"/>
	<path fill="none" stroke="#31C2D9" stroke-width="5" stroke-linecap="round" stroke-linejoin="round" d="M93,131.1
		c2.1-9.6,8-18,15.8-22.8c0.3-0.2,0.6-0.3,0.9-0.2c0.3,0.1,0.5,0.7,0.2,0.8"/>
	<path fill="none" stroke="#26C0D8" stroke-width="4" stroke-linecap="round" stroke-linejoin="round" d="M93,131.1
		c2.1-9.6,8-18,15.8-22.8c0.3-0.2,0.6-0.3,0.9-0.2c0.3,0.1,0.5,0.7,0.2,0.8"/>
	<path fill="none" stroke="#63CAE0" stroke-width="3" stroke-linecap="round" stroke-linejoin="round" d="M93,131.1
		c2.1-9.6,8-18,15.8-22.8c0.3-0.2,0.6-0.3,0.9-0.2c0.3,0.1,0.5,0.7,0.2,0.8"/>
	<path fill="none" stroke="#92D7E6" stroke-linecap="round" stroke-linejoin="round" d="M93,131.1c2.1-9.6,8-18,15.8-22.8
		c0.3-0.2,0.6-0.3,0.9-0.2c0.3,0.1,0.5,0.7,0.2,0.8"/>
</g>
<g>
	<path opacity="0.2" fill="none" stroke="#00BAD5" stroke-width="10" stroke-linecap="round" stroke-linejoin="round" d="
		M141.6,199.4c-1.2,7.6,1.6,15.6,6.4,21.2c3.5,4,8.1,6.9,13.1,7.1c8.5,0.3,15.6-7,20.5-14.7c2.7-4.3,5.2-9.8,3.3-14.7
		c-1.6-4.1-5.8-6.1-9.7-7.6c-6.2-2.3-12.7-4.2-19.2-3.3s-12.9,5.2-15,12.1"/>
	<path opacity="0.25" fill="none" stroke="#00BAD5" stroke-width="8.5" stroke-linecap="round" stroke-linejoin="round" d="
		M141.6,199.4c-1.2,7.6,1.6,15.6,6.4,21.2c3.5,4,8.1,6.9,13.1,7.1c8.5,0.3,15.6-7,20.5-14.7c2.7-4.3,5.2-9.8,3.3-14.7
		c-1.6-4.1-5.8-6.1-9.7-7.6c-6.2-2.3-12.7-4.2-19.2-3.3s-12.9,5.2-15,12.1"/>
	<path opacity="0.3" fill="none" stroke="#00BAD5" stroke-width="5" stroke-linecap="round" stroke-linejoin="round" d="
		M141.6,199.4c-1.2,7.6,1.6,15.6,6.4,21.2c3.5,4,8.1,6.9,13.1,7.1c8.5,0.3,15.6-7,20.5-14.7c2.7-4.3,5.2-9.8,3.3-14.7
		c-1.6-4.1-5.8-6.1-9.7-7.6c-6.2-2.3-12.7-4.2-19.2-3.3s-12.9,5.2-15,12.1"/>
	<path fill="none" stroke="#00BBD5" stroke-width="7" stroke-linecap="round" stroke-linejoin="round" d="M141.6,199.4
		c-1.2,7.6,1.6,15.6,6.4,21.2c3.5,4,8.1,6.9,13.1,7.1c8.5,0.3,15.6-7,20.5-14.7c2.7-4.3,5.2-9.8,3.3-14.7c-1.6-4.1-5.8-6.1-9.7-7.6
		c-6.2-2.3-12.7-4.2-19.2-3.3s-12.9,5.2-15,12.1"/>
	<path fill="none" stroke="#31C2D9" stroke-width="5" stroke-linecap="round" stroke-linejoin="round" d="M141.6,199.4
		c-1.2,7.6,1.6,15.6,6.4,21.2c3.5,4,8.1,6.9,13.1,7.1c8.5,0.3,15.6-7,20.5-14.7c2.7-4.3,5.2-9.8,3.3-14.7c-1.6-4.1-5.8-6.1-9.7-7.6
		c-6.2-2.3-12.7-4.2-19.2-3.3s-12.9,5.2-15,12.1"/>
	<path fill="none" stroke="#26C0D8" stroke-width="4" stroke-linecap="round" stroke-linejoin="round" d="M141.6,199.4
		c-1.2,7.6,1.6,15.6,6.4,21.2c3.5,4,8.1,6.9,13.1,7.1c8.5,0.3,15.6-7,20.5-14.7c2.7-4.3,5.2-9.8,3.3-14.7c-1.6-4.1-5.8-6.1-9.7-7.6
		c-6.2-2.3-12.7-4.2-19.2-3.3s-12.9,5.2-15,12.1"/>
	<path fill="none" stroke="#63CAE0" stroke-width="3" stroke-linecap="round" stroke-linejoin="round" d="M141.6,199.4
		c-1.2,7.6,1.6,15.6,6.4,21.2c3.5,4,8.1,6.9,13.1,7.1c8.5,0.3,15.6-7,20.5-14.7c2.7-4.3,5.2-9.8,3.3-14.7c-1.6-4.1-5.8-6.1-9.7-7.6
		c-6.2-2.3-12.7-4.2-19.2-3.3s-12.9,5.2-15,12.1"/>
	<path fill="none" stroke="#92D7E6" stroke-linecap="round" stroke-linejoin="round" d="M141.6,199.4c-1.2,7.6,1.6,15.6,6.4,21.2
		c3.5,4,8.1,6.9,13.1,7.1c8.5,0.3,15.6-7,20.5-14.7c2.7-4.3,5.2-9.8,3.3-14.7c-1.6-4.1-5.8-6.1-9.7-7.6c-6.2-2.3-12.7-4.2-19.2-3.3
		s-12.9,5.2-15,12.1"/>
</g>
<g>
	<path opacity="0.2" fill="none" stroke="#00BAD5" stroke-width="10" stroke-linecap="round" stroke-linejoin="round" d="
		M98.7,225.6c3.5,9.6,10.1,17.8,18.3,22.9c7.9,4.8,17.4,6.7,26,3.8c8.6-2.9,15.9-10.9,17.6-20.7c0.6,4.3,3.4,8.1,6.8,10.2
		c3.4,2.1,7.4,2.9,11.4,3.2c8.9,0.6,17.9-1.2,25.9-5.5c5.5-3,10.5-7.2,13.8-12.8s4.5-13,2.4-19.3"/>
	<path opacity="0.25" fill="none" stroke="#00BAD5" stroke-width="8.5" stroke-linecap="round" stroke-linejoin="round" d="
		M98.7,225.6c3.5,9.6,10.1,17.8,18.3,22.9c7.9,4.8,17.4,6.7,26,3.8c8.6-2.9,15.9-10.9,17.6-20.7c0.6,4.3,3.4,8.1,6.8,10.2
		c3.4,2.1,7.4,2.9,11.4,3.2c8.9,0.6,17.9-1.2,25.9-5.5c5.5-3,10.5-7.2,13.8-12.8s4.5-13,2.4-19.3"/>
	<path opacity="0.3" fill="none" stroke="#00BAD5" stroke-width="5" stroke-linecap="round" stroke-linejoin="round" d="M98.7,225.6
		c3.5,9.6,10.1,17.8,18.3,22.9c7.9,4.8,17.4,6.7,26,3.8c8.6-2.9,15.9-10.9,17.6-20.7c0.6,4.3,3.4,8.1,6.8,10.2
		c3.4,2.1,7.4,2.9,11.4,3.2c8.9,0.6,17.9-1.2,25.9-5.5c5.5-3,10.5-7.2,13.8-12.8s4.5-13,2.4-19.3"/>
	<path fill="none" stroke="#00BBD5" stroke-width="7" stroke-linecap="round" stroke-linejoin="round" d="M98.7,225.6
		c3.5,9.6,10.1,17.8,18.3,22.9c7.9,4.8,17.4,6.7,26,3.8c8.6-2.9,15.9-10.9,17.6-20.7c0.6,4.3,3.4,8.1,6.8,10.2
		c3.4,2.1,7.4,2.9,11.4,3.2c8.9,0.6,17.9-1.2,25.9-5.5c5.5-3,10.5-7.2,13.8-12.8s4.5-13,2.4-19.3"/>
	<path fill="none" stroke="#31C2D9" stroke-width="5" stroke-linecap="round" stroke-linejoin="round" d="M98.7,225.6
		c3.5,9.6,10.1,17.8,18.3,22.9c7.9,4.8,17.4,6.7,26,3.8c8.6-2.9,15.9-10.9,17.6-20.7c0.6,4.3,3.4,8.1,6.8,10.2
		c3.4,2.1,7.4,2.9,11.4,3.2c8.9,0.6,17.9-1.2,25.9-5.5c5.5-3,10.5-7.2,13.8-12.8s4.5-13,2.4-19.3"/>
	<path fill="none" stroke="#26C0D8" stroke-width="4" stroke-linecap="round" stroke-linejoin="round" d="M98.7,225.6
		c3.5,9.6,10.1,17.8,18.3,22.9c7.9,4.8,17.4,6.7,26,3.8c8.6-2.9,15.9-10.9,17.6-20.7c0.6,4.3,3.4,8.1,6.8,10.2
		c3.4,2.1,7.4,2.9,11.4,3.2c8.9,0.6,17.9-1.2,25.9-5.5c5.5-3,10.5-7.2,13.8-12.8s4.5-13,2.4-19.3"/>
	<path fill="none" stroke="#63CAE0" stroke-width="3" stroke-linecap="round" stroke-linejoin="round" d="M98.7,225.6
		c3.5,9.6,10.1,17.8,18.3,22.9c7.9,4.8,17.4,6.7,26,3.8c8.6-2.9,15.9-10.9,17.6-20.7c0.6,4.3,3.4,8.1,6.8,10.2
		c3.4,2.1,7.4,2.9,11.4,3.2c8.9,0.6,17.9-1.2,25.9-5.5c5.5-3,10.5-7.2,13.8-12.8s4.5-13,2.4-19.3"/>
	<path fill="none" stroke="#92D7E6" stroke-linecap="round" stroke-linejoin="round" d="M98.7,225.6c3.5,9.6,10.1,17.8,18.3,22.9
		c7.9,4.8,17.4,6.7,26,3.8c8.6-2.9,15.9-10.9,17.6-20.7c0.6,4.3,3.4,8.1,6.8,10.2c3.4,2.1,7.4,2.9,11.4,3.2
		c8.9,0.6,17.9-1.2,25.9-5.5c5.5-3,10.5-7.2,13.8-12.8s4.5-13,2.4-19.3"/>
</g>
</svg>
