<?xml version="1.0" encoding="utf-8"?>
<!-- Generator: Adobe Illustrator 19.1.0, SVG Export Plug-In . SVG Version: 6.00 Build 0)  -->
<svg version="1.1" id="Layer_1" xmlns="http://www.w3.org/2000/svg" xmlns:xlink="http://www.w3.org/1999/xlink" x="0px" y="0px"
	 viewBox="0 0 300 300" style="enable-background:new 0 0 300 300;" xml:space="preserve">
<path opacity="1.0" fill="none" stroke="#fff" stroke-width="3" stroke-linecap="round" class="st0" d="M93.2,67c-8.7-18.6-22.8-34.6-40.1-45.5c9.5,26.5,5.1,55.6,3.8,83.7c-0.6,14.7-0.4,29.3,0.8,44
	c1.1,13.3,3,26.9,9.1,38.7c8.3,16.2,23.4,27.6,36.9,39.9c12.6,11.4,24.2,23.9,34.6,37.4c3.1,4.1,6.3,8.3,10.8,10.8
	c5.8,3.1,13.1,2.6,19.1-0.2c6-2.8,10.8-7.6,14.9-12.8c12.8-16.5,18.7-37.2,28.8-55.6c5.3-9.6,11.6-18.4,17-27.9
	c7.9-14,13.5-29.3,16.6-45.1c3.3-16.9,3.4-35.2-4.2-50.6c-3.6-7.2-8.7-13.6-12.1-20.9c-7-14.9-6.3-32.1-5.4-48.5
	c-12.2,10.2-22.8,22.3-31.4,35.7c-1.6,2.6-3.3,5.3-5.9,6.9c-5.4,3.3-12.3,0.8-18.3-1c-15.9-4.5-32.9-2.4-49.3-0.3
	C109,57,97.7,59.1,92,67.4c0.2-1.7,0.5-3.4,0.7-5.1"/>
<path opacity="1.0" fill="none" stroke="#fff" stroke-width="3" stroke-linecap="round" class="st0" d="M67,79.5c1-13.3,0.1-26.8-2.7-39.9c5.8,12.1,11.7,24.2,17.5,36.3c0.2,0.5,0.5,1,0.5,1.6c0,1-0.7,1.8-1.4,2.5
	c-7.6,8.1-13.1,18.2-15.5,29c0-0.9,0.1-1.9,0.1-2.8"/>
<path opacity="1.0" fill="none" stroke="#fff" stroke-width="3" stroke-linecap="round" class="st0" d="M222.3,70.9c-4.3-12.6-6.8-25.9-7.4-39.2c-2.5,5.9-5,11.8-7.6,17.8c-1,2.3-1.9,4.6-2.4,7
	c-1.2,7.4,3,14.6,8.3,19.8c5.3,5.2,11.8,9.2,17,14.5c-0.4-0.5-0.7-0.9-1.1-1.4"/>
<path opacity="1.0" fill="none" stroke="#fff" stroke-width="3" stroke-linecap="round" class="st0" d="M134.8,172.8c2.8,6.5,6.6,12.6,11.1,18.1c1.8,2.2,3.8,4.3,6.2,5.7c2.4,1.4,5.4,2.1,8.1,1.3
	c2.9-0.9,5-3.3,6.8-5.7c4.8-6.4,8.7-13.4,11.4-20.9c0.4-1.1,0.8-2.3,0.6-3.5c-0.5-2.9-4-4-6.9-4.4c-8-1-16.1-0.7-24.1-0.4
	c-3.1,0.1-6.2,0.2-9,1.6s-5,4.2-4.6,7.3"/>
<path opacity="1.0" fill="none" stroke="#fff" stroke-width="3" stroke-linecap="round" class="st0" d="M126.7,247.5c5.3,2.4,11.8-0.2,15.7-4.6c3.8-4.4,5.6-10.2,7.3-15.7c2.6-8.5,5.2-17.1,7.8-25.6
	c0.1-0.3,0.3-0.6,0.6-0.6c0.3,0,0.1,0.6-0.1,0.4c2,12.1,9.6,23.3,17.4,32.7c2.3,2.8,4.7,5.6,7.8,7.5c3.1,1.9,7.2,2.6,10.4,0.9"/>
<path opacity="1.0" fill="none" stroke="#fff" stroke-width="3" stroke-linecap="round" class="st0" d="M116.6,112.3c0.7,0,0-1-0.7-1.1c-6.1-0.7-12.3,1.2-17.5,4.4c-5.2,3.2-9.5,7.8-13.1,12.7
	c11.4,4.1,25.1,2.2,31.7-7.9c0.4-0.7,0.7-1.8-0.1-2"/>
<path opacity="1.0" fill="none" stroke="#fff" stroke-width="3" stroke-linecap="round" class="st0" d="M101.8,118c-2.4-0.1-4.5,2.4-4.2,4.7c0.3,2.4,2.8,4.2,5.2,3.9s4.3-2.5,4.5-4.9c0.1-1.1-0.2-2.3-1-3.1
	c-0.8-0.8-2.1-1.1-3.1-0.5"/>
<path opacity="1.0" fill="none" stroke="#fff" stroke-width="3" stroke-linecap="round" class="st0" d="M174.9,113.4c10.4-4.8,24.1-1.2,30.8,8.1"/>
<path opacity="1.0" fill="none" stroke="#fff" stroke-width="3" stroke-linecap="round" class="st0" d="M175.8,120.1c0.8,4,3.8,7.3,7.3,9.2c3.6,1.9,7.7,2.6,11.7,2.9c3.9,0.2,7.8,0,11.7-0.7"/>
<path opacity="1.0" fill="none" stroke="#fff" stroke-width="3" stroke-linecap="round" class="st0" d="M187.4,116.7c-3.2,1.6-4.1,6.5-1.7,9.2c2.4,2.7,7.3,2.4,9.3-0.6c2-3,0.5-7.7-2.9-8.9c-0.8-0.3-1.8-0.3-2.3,0.4"
	/>
<path opacity="1.0" fill="none" stroke="#fff" stroke-width="3" stroke-linecap="round" class="st0" d="M84.5,116.4c5.7-3.4,10.9-7.6,15.5-12.3c2.9-2.9,6.1-6.4,10.3-6.2c0.4,0,0.8,0,1-0.3s-0.6-0.5-0.5-0.2"/>
<path opacity="1.0" fill="none" stroke="#fff" stroke-width="3" stroke-linecap="round" class="st0" d="M183.6,100.9c9.5,0.1,19,2.2,27.7,6"/>
<path opacity="1.0" fill="none" stroke="#fff" stroke-width="3" stroke-linecap="round" class="st0" d="M134.9,131.7c-0.3,8.4-0.8,16.8-1.7,25.2c0.4-2,0.8-4,1.2-6.1"/>
<path opacity="1.0" fill="none" stroke="#fff" stroke-width="3" stroke-linecap="round" class="st0" d="M173.9,153.4c-2.4-1-3.3-3.8-4-6.3c-0.8-3.1-1.7-6.1-2.5-9.2"/>
</svg>
