<?xml version="1.0" encoding="utf-8"?>
<!-- Generator: Adobe Illustrator 19.1.0, SVG Export Plug-In . SVG Version: 6.00 Build 0)  -->
<svg version="1.1" id="Layer_1" xmlns="http://www.w3.org/2000/svg" xmlns:xlink="http://www.w3.org/1999/xlink" x="0px" y="0px"
	 viewBox="0 0 300 300" style="enable-background:new 0 0 300 300;" xml:space="preserve">
<circle opacity="1.0" fill="none" stroke="#fff" stroke-width="3" stroke-linecap="round" class="st0" cx="62.3" cy="140.5" r="53.8"/>
<path opacity="1.0" fill="none" stroke="#fff" stroke-width="3" stroke-linecap="round" class="st0" d="M185.2,145.2c-0.1-1.5-0.2-3.1-0.2-4.7c0-29.7,24.1-53.8,53.8-53.8s53.8,24.1,53.8,53.8
	c0,29.7-24.1,53.8-53.8,53.8c-22.3,0-42.8-14.2-50.5-35.1c-1.6-4.3-1.5-11.2-4.7-14.2c-3.9-3.7-15.7-4.6-20.9-5.5
	c-15.3-2.5-31-2-46.1,1.6"/>
<path opacity="1.0" fill="none" stroke="#fff" stroke-width="3" stroke-linecap="round" class="st0" d="M62.8,95.3c-12.2,1.5-23.6,8.4-31.1,18.1s-11.4,22.1-11.5,34.5c0,8.4,1.8,17,6.2,24.2
	c8.1,13.1,24.2,19.7,39.7,19.7c7.3,0,14.9-1.3,21.1-5.2c5.2-3.3,9.1-8.2,12.1-13.6c8-14.2,9.6-32.4,1.8-46.7S75.5,103.2,60,108
	c-5.2,1.6-9.9,4.5-13.9,8.3c-10.6,9.9-15.5,26-10.8,39.6c4.7,13.7,19.7,23.5,33.9,21.1c14.3-2.5,25.3-18.1,21.5-32.1
	c-1.2-4.3-3.5-8.1-6.3-11.5c-5.5-6.6-14-11.7-22.4-9.9c-2.8,0.6-5.3,1.9-7.5,3.7c-5.7,4.6-8.9,12.4-7.3,19.5s8,13.1,15.3,13.5
	s14.6-5.3,15.5-12.6c0.2-1.8,0.1-3.8-0.8-5.4c-1.4-2.8-4.4-4.4-7.4-5.1c-2.9-0.7-6-0.6-8.5,1s-3.9,4.9-2.7,7.6
	c1.2,2.7,5.5,3.5,7.2,1.1"/>
<path opacity="1.0" fill="none" stroke="#fff" stroke-width="3" stroke-linecap="round" class="st0" d="M230.6,91.9c-20.4,7.1-34.9,28.6-33.7,50.2c1.2,21.6,18,41.4,39.1,46.1c8.8,2,18.5,1.4,26.4-3
	c7-4,12.2-10.8,15.4-18.2c8-18.7,3.3-42.2-11.5-56.3c-3.7-3.5-7.9-6.5-12.8-8c-11.9-3.7-25.3,2.4-32.7,12.3
	c-3.8,5.1-6.4,11.1-6.8,17.4c-0.7,9.9,4.1,20,12.3,25.6s19.3,6.6,28.3,2.4c3.5-1.6,6.8-4.1,9-7.3c4.9-7.2,3.9-17.2-0.4-24.8
	c-3.2-5.7-8.2-10.6-14.4-12.7c-6.2-2.1-13.6-1.1-18.4,3.4c-6.9,6.4-5.9,19.3,1.9,24.5c3.6,2.4,8.3,3.2,12.2,1.5
	c4-1.7,6.8-6,6.2-10.2c-0.6-4.2-5.1-7.7-9.3-6.7c-2.1,0.5-4,2.1-4.4,4.2s0.8,4.5,2.9,5"/>
</svg>
