<?xml version="1.0" encoding="utf-8"?>
<!-- Generator: Adobe Illustrator 19.2.0, SVG Export Plug-In . SVG Version: 6.00 Build 0)  -->
<svg version="1.1" id="Layer_1" xmlns="http://www.w3.org/2000/svg" xmlns:xlink="http://www.w3.org/1999/xlink" x="0px" y="0px"
	 viewBox="0 0 300 300" enable-background="new 0 0 300 300" xml:space="preserve">
<g>
	<path opacity="1.0" fill="none" stroke="#fff" stroke-width="3" stroke-linecap="round" stroke-linejoin="round" d="
		M125.5,198.8c-11.2,2-23.2-0.1-33.3-4.5c-10.1-4.4-18.5-10.9-25.7-18.1c-6.2-6.2-11.9-13.4-11.9-21.4c-0.1-10.5,9.4-19.4,14.6-29
		c5.4-10,6.2-21.2,7-32c1.2-17.2,1.7-36.1-11.9-49.5c25.9,14.8,52,32.6,60.3,57.2c1.5-27,3-54,4.5-80.9
		c24.2,31.5,39.9,67.2,45.6,103.9C177,100.7,190,78.3,205,57.7c-4,14.3-5.2,29-3.6,43.5c17.3-19.6,54.1-21.1,75.3-38
		c-14.6,19-29.3,38.1-43.9,57.1c-8.1,10.5-16.4,21.6-17.8,33.9c-1.2,11,2.8,23.5-5.8,32.1c-6.2,6.1-16.7,7.9-26.4,9.3
		c-14,2-28,4.1-42,6.1"/>
</g>
<g>
	<path opacity="1.0" fill="none" stroke="#fff" stroke-width="3" stroke-linecap="round" stroke-linejoin="round" d="
		M135.4,181.8c-4,0.1-7.6-1.9-10.8-3.9c-14.1-8.7-27.1-19.5-32-33.1c-3.2-9.1-2.6-18.8-5.5-27.9c11.7,14.4,28.7,26.1,48.2,33.2
		c3.1-6,5.1-12.4,5.9-18.8"/>
</g>
<g>
	<path opacity="1.0" fill="none" stroke="#fff" stroke-width="3" stroke-linecap="round" stroke-linejoin="round" d="
		M164.3,181.7c18.4-14.7,30.4-34.3,33.6-54.8c0.2-1.5,0.6-3.2,2.4-3.8"/>
</g>
<g>
	<path opacity="1.0" fill="none" stroke="#fff" stroke-width="3" stroke-linecap="round" stroke-linejoin="round" d="
		M96.3,205.2c-24.3,0-48.5-2.1-72.3-6.1c0.4,10.5,0.9,21,1.3,31.4c0.1,2.3,0.3,4.7,2.1,6.5c3.9,3.6,11.2,1.4,16.5-0.9
		c27-11.8,57.2-18.9,88-20.5"/>
</g>
<g>
	<path opacity="1.0" fill="none" stroke="#fff" stroke-width="3" stroke-linecap="round" stroke-linejoin="round" d="
		M118.9,226.8c18.8,13.1,32.2,31.1,37.6,50.6c0.2,0.6,0.5,1.4,1.2,1.5c0.4,0.1,0.8,0,1.2-0.1c10.8-2.7,21.7-5.5,32.5-8.2
		c0.1-16.7-22.4-29.3-22.8-46c0-1.1-0.7-2.7-2-2.3"/>
</g>
<g>
	<path opacity="1.0" fill="none" stroke="#fff" stroke-width="3" stroke-linecap="round" stroke-linejoin="round" d="
		M187.7,230.7c26.4,0.7,52.6,4.4,77.7,10.8c1.9-14.5,4.8-28.8,8.9-43c-25.2,2.3-50.3,5.1-75.3,8.3"/>
</g>
</svg>
