<?xml version="1.0" encoding="utf-8"?>
<!-- Generator: Adobe Illustrator 19.2.0, SVG Export Plug-In . SVG Version: 6.00 Build 0)  -->
<svg version="1.1" id="Layer_1" xmlns="http://www.w3.org/2000/svg" xmlns:xlink="http://www.w3.org/1999/xlink" x="0px" y="0px"
	 viewBox="0 0 300 300" enable-background="new 0 0 300 300" xml:space="preserve">
<g>
	<path opacity="1.0" fill="none" stroke="#fff" stroke-width="3" stroke-linecap="round" stroke-linejoin="round" d="
		M192.7,124.4c3-9.8,18.8-10.1,23.4-19.3c-14.1,2.7-28.6-0.4-42.8-2c-12.7-1.5-25.4-1.8-38.2-1c-2.7,0.2-5.5,0.4-7.9,1.7
		c-4.3,2.2-6.3,7-9.4,10.6c-8.4,9.6-23.2,9.6-35.7,12.5c-25.8,6.1-46.4,29.4-48.9,55.3c-0.1,0.6-0.1,1.2,0.3,1.6
		c0.5,0.6,1.5,0.6,2.3,0.5c12.2-1.8,24.3-3.5,36.5-5.3c-7.5,3.9-15.7,6.6-24.1,8.1c5.5,12,19.8,18.3,33.2,18s26.1-5.9,37.8-12.3
		c0.5,7.1-4.1,13.4-7,19.9c-4.9,10.8-5.5,23.3-1.7,34.5c14.2-0.8,21.9-17.2,35-22.7c4.5-1.9,9.5-2.4,14.1-4.1
		c13.5-5.1,20.8-21.9,15.2-34.9c13.6-1.9,27.4-2.4,41.1-1.7c1.8,0.1,3.7,0.2,5.2,1.1c2.1,1.2,3.3,3.4,4.6,5.4
		c4.3,6.4,11.2,10.8,16.3,16.6c2.8,3.2,5,6.8,8,9.8c6.9,7.1,16.9,10.4,26.5,13.4c-7.3-7.2-4.5-19.3-7.8-28.9
		c-1.7-4.9-5-9.1-7.8-13.6c-4.2-6.9-7-14.6-8.2-22.6c-0.2-1.4-0.4-2.8-0.1-4.2c1.2-5.3,8.2-6.8,12.4-10.4c3.6-3.2,5-8.1,6.3-12.7
		c1.9-7,3.7-14,5.6-21c0.5-1.8,0.6-4.2-1.2-4.8c-0.8-0.3-1.7,0-2.5,0.4c-7.5,3.1-13,9.6-20.1,13.4c-6.8,3.6-14.8,4.5-22.5,5
		c-18.1,1-36.3-0.6-54-4.7"/>
</g>
<g>
	<path opacity="1.0" fill="none" stroke="#fff" stroke-width="3" stroke-linecap="round" stroke-linejoin="round" d="
		M75.4,155.4c-2.6,0.8-2.6,4.7-0.6,6.6s4.9,2.1,7.6,2.3c0.8,0.1,1.7,0.1,2.4-0.2c0.9-0.4,1.5-1.4,1.9-2.4c1.2-2.5,2.4-5.6,0.6-7.7
		c-1.2-1.5-3.5-1.8-5.4-2c-1.7-0.2-3.5-0.3-5.1,0.2c-1.6,0.5-3.1,2-3,3.6c0,0.5-0.6,1.3-0.7,0.8"/>
</g>
<g>
	<path opacity="1.0" fill="none" stroke="#fff" stroke-width="3" stroke-linecap="round" stroke-linejoin="round" d="
		M110.1,162.4c1.3,3.8,2.2,8,1.5,12s-3.1,7.9-6.8,9.6"/>
</g>
<g>
	<path opacity="1.0" fill="none" stroke="#fff" stroke-width="3" stroke-linecap="round" stroke-linejoin="round" d="
		M168.4,186.5c1.2-2-0.7-4.3-2.5-5.9c-3.5-3-7.1-6.1-11.2-8.3c-4.1-2.2-8.8-3.7-13.5-3.2c1,8.4,0,17.3,0,25.7
		c0,5.3-0.8,11.4-5.4,14.2"/>
</g>
<g>
	<path opacity="1.0" fill="none" stroke="#fff" stroke-width="3" stroke-linecap="round" stroke-linejoin="round" d="
		M131.6,125.4c4.8-2.4,9.7-4.9,15.1-5.3c3.9-0.3,7.8,0.5,11.6,1.3c3.5,0.7,7,1.5,10.5,2.2c1.2,0.3,2.5,0.5,3.5,1.2"/>
</g>
<g>
	<path opacity="1.0" fill="none" stroke="#fff" stroke-width="3" stroke-linecap="round" stroke-linejoin="round" d="M212,156.9
		c5.6,2.5,12.1,0.9,17.9-0.8c10.6-3.2,21-7.2,31-11.9"/>
</g>
<g>
	<path opacity="1.0" fill="none" stroke="#fff" stroke-width="3" stroke-linecap="round" stroke-linejoin="round" d="M233.2,174
		c4,4.2,8,8.4,11.9,12.6c1.8,1.9,3.7,4,4.1,6.6"/>
</g>
<g>
	<path opacity="1.0" fill="none" stroke="#fff" stroke-width="3" stroke-linecap="round" stroke-linejoin="round" d="
		M25.6,127.8c-2.1,1.3-3.3,3.7-3.1,6.1c0.2,2.4,1.9,4.6,4.2,5.4c4,1.5,8.6-1.1,10.6-4.8c1.3-2.4,1.8-5.6,0-7.6
		c-1.7-2-4.8-2.3-7.5-2.3c-2.1,0-4.7,0.3-5.3,2.2"/>
</g>
<g>
	<path opacity="1.0" fill="none" stroke="#fff" stroke-width="3" stroke-linecap="round" stroke-linejoin="round" d="M43.5,77.7
		c-3,0.6-5.7,2.3-7.3,4.8c-1,1.5-1.7,3.3-1.6,5.2c0.3,4.1,4.3,7,8.4,7.8c3.5,0.7,7.3,0.2,10.4-1.7c3-1.9,5.2-5.2,5.4-8.7
		c0-0.9,0-1.8-0.5-2.6c-0.7-1.3-2-2.1-3.4-2.8c-3.4-1.8-7.3-3.6-11-2.6"/>
</g>
<g>
	<path opacity="1.0" fill="none" stroke="#fff" stroke-width="3" stroke-linecap="round" stroke-linejoin="round" d="
		M104.4,34.5C97.9,33.5,91.2,34,85,36.1c-3.1,1.1-6.2,2.6-8,5.3c-1.8,2.8-1.8,6.4-1.6,9.7c0.2,3.5,0.8,7.3,2.9,10.1
		c2,2.7,5.3,4.3,8.6,4.9s6.8,0.3,10.2-0.2c3.8-0.6,7.7-1.6,10.9-3.7c3.2-2.1,5.8-5.5,6.2-9.2c0.3-3.2-1-6.3-2.5-9.2
		c-1.7-3.2-3.8-6.4-7-8.2c-0.3-0.1-0.6-0.3-0.8,0c-0.2,0.2,0.4,0.5,0.3,0.2"/>
</g>
</svg>
