<?xml version="1.0" encoding="utf-8"?>
<!-- Generator: Adobe Illustrator 19.2.0, SVG Export Plug-In . SVG Version: 6.00 Build 0)  -->
<svg version="1.1" id="Layer_1" xmlns="http://www.w3.org/2000/svg" xmlns:xlink="http://www.w3.org/1999/xlink" x="0px" y="0px"
	 viewBox="0 0 300 300" enable-background="new 0 0 300 300" xml:space="preserve">
<g>
	<path opacity="0.2" fill="none" stroke="#0073BC" stroke-width="35" stroke-linecap="round" stroke-linejoin="round" d="
		M236.4,32.3c-6.4-3.3-13.5-4.7-20.6-5.7c-39.1-5.7-79.2-3.4-117.4,6.8C97.2,33.7,96,34,95,34.8c-1.8,1.5-2.3,4-2.7,6.4
		c-1.4,7.5-3.9,15.2-9.4,20.2c-4.3,3.9-9.9,5.7-15.4,7.4c-5.7,1.8-11.3,3.6-17,5.4c-1.3-3.8-5.6-5.8-9.5-5.7s-7.6,1.9-11.2,3.6
		c-1.5,0.8-3.2,1.6-3.9,3.2c-0.9,1.9,0,4.1,0.8,6.1c5,11.8,10.1,23.7,15.1,35.5c0.6,1.4,1.2,2.8,2.4,3.7c1.5,1,3.4,1,5.2,0.8
		c4.6-0.5,9.2-1.6,13.6-3.3c3.6-1.3,7.4-3.6,8.1-7.4c0.9-5.1-4.5-9.2-5.4-14.3c9.5-7.1,20.5-11.9,32.1-14c9.5-1.7,20.7-1.1,27.1,6.4
		c6.7,7.7,12.9,14.8,18.4,23.5c3.6,5.7,7.2,11.4,9.9,17.6c4,8.9,6.3,18.5,8.8,27.9c10.4,39.3,25,77.2,39.6,115.1
		c0.5,1.2,1,2.4,1.9,3.3c1.9,1.9,5,1.5,7.6,1c13.4-2.8,26.3-7.5,38.4-14c0.6-0.3,1.3-0.7,1.5-1.4c0.2-0.6,0-1.3-0.3-2
		c-6.5-15.8-19.4-28-27.4-43.1c-4.4-8.4-7.3-17.5-11.4-26.1c-3.4-7.1-7.6-13.9-10.1-21.4c-2.6-7.6-3.3-15.7-5.3-23.5
		c-2.6-10.4-7.3-20.2-9.9-30.6c-1.8-7.3-2.6-14.9-2.4-22.4c0.1-3.2-6.4-4.4-9.5-3.5c-8.9,2.6-17.8,5.2-26.7,7.8
		c-1.1-1.9,1.5-3.9,3.6-4.5c12.4-3.9,24.7-7.8,37.1-11.7c-0.5-5.5-5.2-9.5-8.4-14c-3.1-4.3-5-9.4-5.4-14.7c-0.1-1.7-0.1-3.4,0.7-4.9
		c1.3-2.3,4.1-3.1,6.7-3.7c21.6-4.6,44.1-5,65.9-1.1"/>
	<path opacity="0.25" fill="none" stroke="#0073BC" stroke-width="8.5" stroke-linecap="round" stroke-linejoin="round" d="
		M236.4,32.3c-6.4-3.3-13.5-4.7-20.6-5.7c-39.1-5.7-79.2-3.4-117.4,6.8C97.2,33.7,96,34,95,34.8c-1.8,1.5-2.3,4-2.7,6.4
		c-1.4,7.5-3.9,15.2-9.4,20.2c-4.3,3.9-9.9,5.7-15.4,7.4c-5.7,1.8-11.3,3.6-17,5.4c-1.3-3.8-5.6-5.8-9.5-5.7s-7.6,1.9-11.2,3.6
		c-1.5,0.8-3.2,1.6-3.9,3.2c-0.9,1.9,0,4.1,0.8,6.1c5,11.8,10.1,23.7,15.1,35.5c0.6,1.4,1.2,2.8,2.4,3.7c1.5,1,3.4,1,5.2,0.8
		c4.6-0.5,9.2-1.6,13.6-3.3c3.6-1.3,7.4-3.6,8.1-7.4c0.9-5.1-4.5-9.2-5.4-14.3c9.5-7.1,20.5-11.9,32.1-14c9.5-1.7,20.7-1.1,27.1,6.4
		c6.7,7.7,12.9,14.8,18.4,23.5c3.6,5.7,7.2,11.4,9.9,17.6c4,8.9,6.3,18.5,8.8,27.9c10.4,39.3,25,77.2,39.6,115.1
		c0.5,1.2,1,2.4,1.9,3.3c1.9,1.9,5,1.5,7.6,1c13.4-2.8,26.3-7.5,38.4-14c0.6-0.3,1.3-0.7,1.5-1.4c0.2-0.6,0-1.3-0.3-2
		c-6.5-15.8-19.4-28-27.4-43.1c-4.4-8.4-7.3-17.5-11.4-26.1c-3.4-7.1-7.6-13.9-10.1-21.4c-2.6-7.6-3.3-15.7-5.3-23.5
		c-2.6-10.4-7.3-20.2-9.9-30.6c-1.8-7.3-2.6-14.9-2.4-22.4c0.1-3.2-6.4-4.4-9.5-3.5c-8.9,2.6-17.8,5.2-26.7,7.8
		c-1.1-1.9,1.5-3.9,3.6-4.5c12.4-3.9,24.7-7.8,37.1-11.7c-0.5-5.5-5.2-9.5-8.4-14c-3.1-4.3-5-9.4-5.4-14.7c-0.1-1.7-0.1-3.4,0.7-4.9
		c1.3-2.3,4.1-3.1,6.7-3.7c21.6-4.6,44.1-5,65.9-1.1"/>
	<path opacity="0.3" fill="none" stroke="#0073BC" stroke-width="5" stroke-linecap="round" stroke-linejoin="round" d="M236.4,32.3
		c-6.4-3.3-13.5-4.7-20.6-5.7c-39.1-5.7-79.2-3.4-117.4,6.8C97.2,33.7,96,34,95,34.8c-1.8,1.5-2.3,4-2.7,6.4
		c-1.4,7.5-3.9,15.2-9.4,20.2c-4.3,3.9-9.9,5.7-15.4,7.4c-5.7,1.8-11.3,3.6-17,5.4c-1.3-3.8-5.6-5.8-9.5-5.7s-7.6,1.9-11.2,3.6
		c-1.5,0.8-3.2,1.6-3.9,3.2c-0.9,1.9,0,4.1,0.8,6.1c5,11.8,10.1,23.7,15.1,35.5c0.6,1.4,1.2,2.8,2.4,3.7c1.5,1,3.4,1,5.2,0.8
		c4.6-0.5,9.2-1.6,13.6-3.3c3.6-1.3,7.4-3.6,8.1-7.4c0.9-5.1-4.5-9.2-5.4-14.3c9.5-7.1,20.5-11.9,32.1-14c9.5-1.7,20.7-1.1,27.1,6.4
		c6.7,7.7,12.9,14.8,18.4,23.5c3.6,5.7,7.2,11.4,9.9,17.6c4,8.9,6.3,18.5,8.8,27.9c10.4,39.3,25,77.2,39.6,115.1
		c0.5,1.2,1,2.4,1.9,3.3c1.9,1.9,5,1.5,7.6,1c13.4-2.8,26.3-7.5,38.4-14c0.6-0.3,1.3-0.7,1.5-1.4c0.2-0.6,0-1.3-0.3-2
		c-6.5-15.8-19.4-28-27.4-43.1c-4.4-8.4-7.3-17.5-11.4-26.1c-3.4-7.1-7.6-13.9-10.1-21.4c-2.6-7.6-3.3-15.7-5.3-23.5
		c-2.6-10.4-7.3-20.2-9.9-30.6c-1.8-7.3-2.6-14.9-2.4-22.4c0.1-3.2-6.4-4.4-9.5-3.5c-8.9,2.6-17.8,5.2-26.7,7.8
		c-1.1-1.9,1.5-3.9,3.6-4.5c12.4-3.9,24.7-7.8,37.1-11.7c-0.5-5.5-5.2-9.5-8.4-14c-3.1-4.3-5-9.4-5.4-14.7c-0.1-1.7-0.1-3.4,0.7-4.9
		c1.3-2.3,4.1-3.1,6.7-3.7c21.6-4.6,44.1-5,65.9-1.1"/>
	<path fill="none" stroke="#2C80C3" stroke-width="7" stroke-linecap="round" stroke-linejoin="round" d="M236.4,32.3
		c-6.4-3.3-13.5-4.7-20.6-5.7c-39.1-5.7-79.2-3.4-117.4,6.8C97.2,33.7,96,34,95,34.8c-1.8,1.5-2.3,4-2.7,6.4
		c-1.4,7.5-3.9,15.2-9.4,20.2c-4.3,3.9-9.9,5.7-15.4,7.4c-5.7,1.8-11.3,3.6-17,5.4c-1.3-3.8-5.6-5.8-9.5-5.7s-7.6,1.9-11.2,3.6
		c-1.5,0.8-3.2,1.6-3.9,3.2c-0.9,1.9,0,4.1,0.8,6.1c5,11.8,10.1,23.7,15.1,35.5c0.6,1.4,1.2,2.8,2.4,3.7c1.5,1,3.4,1,5.2,0.8
		c4.6-0.5,9.2-1.6,13.6-3.3c3.6-1.3,7.4-3.6,8.1-7.4c0.9-5.1-4.5-9.2-5.4-14.3c9.5-7.1,20.5-11.9,32.1-14c9.5-1.7,20.7-1.1,27.1,6.4
		c6.7,7.7,12.9,14.8,18.4,23.5c3.6,5.7,7.2,11.4,9.9,17.6c4,8.9,6.3,18.5,8.8,27.9c10.4,39.3,25,77.2,39.6,115.1
		c0.5,1.2,1,2.4,1.9,3.3c1.9,1.9,5,1.5,7.6,1c13.4-2.8,26.3-7.5,38.4-14c0.6-0.3,1.3-0.7,1.5-1.4c0.2-0.6,0-1.3-0.3-2
		c-6.5-15.8-19.4-28-27.4-43.1c-4.4-8.4-7.3-17.5-11.4-26.1c-3.4-7.1-7.6-13.9-10.1-21.4c-2.6-7.6-3.3-15.7-5.3-23.5
		c-2.6-10.4-7.3-20.2-9.9-30.6c-1.8-7.3-2.6-14.9-2.4-22.4c0.1-3.2-6.4-4.4-9.5-3.5c-8.9,2.6-17.8,5.2-26.7,7.8
		c-1.1-1.9,1.5-3.9,3.6-4.5c12.4-3.9,24.7-7.8,37.1-11.7c-0.5-5.5-5.2-9.5-8.4-14c-3.1-4.3-5-9.4-5.4-14.7c-0.1-1.7-0.1-3.4,0.7-4.9
		c1.3-2.3,4.1-3.1,6.7-3.7c21.6-4.6,44.1-5,65.9-1.1"/>
	<path fill="none" stroke="#4F8CCA" stroke-width="5.5" stroke-linecap="round" stroke-linejoin="round" d="M236.4,32.3
		c-6.4-3.3-13.5-4.7-20.6-5.7c-39.1-5.7-79.2-3.4-117.4,6.8C97.2,33.7,96,34,95,34.8c-1.8,1.5-2.3,4-2.7,6.4
		c-1.4,7.5-3.9,15.2-9.4,20.2c-4.3,3.9-9.9,5.7-15.4,7.4c-5.7,1.8-11.3,3.6-17,5.4c-1.3-3.8-5.6-5.8-9.5-5.7s-7.6,1.9-11.2,3.6
		c-1.5,0.8-3.2,1.6-3.9,3.2c-0.9,1.9,0,4.1,0.8,6.1c5,11.8,10.1,23.7,15.1,35.5c0.6,1.4,1.2,2.8,2.4,3.7c1.5,1,3.4,1,5.2,0.8
		c4.6-0.5,9.2-1.6,13.6-3.3c3.6-1.3,7.4-3.6,8.1-7.4c0.9-5.1-4.5-9.2-5.4-14.3c9.5-7.1,20.5-11.9,32.1-14c9.5-1.7,20.7-1.1,27.1,6.4
		c6.7,7.7,12.9,14.8,18.4,23.5c3.6,5.7,7.2,11.4,9.9,17.6c4,8.9,6.3,18.5,8.8,27.9c10.4,39.3,25,77.2,39.6,115.1
		c0.5,1.2,1,2.4,1.9,3.3c1.9,1.9,5,1.5,7.6,1c13.4-2.8,26.3-7.5,38.4-14c0.6-0.3,1.3-0.7,1.5-1.4c0.2-0.6,0-1.3-0.3-2
		c-6.5-15.8-19.4-28-27.4-43.1c-4.4-8.4-7.3-17.5-11.4-26.1c-3.4-7.1-7.6-13.9-10.1-21.4c-2.6-7.6-3.3-15.7-5.3-23.5
		c-2.6-10.4-7.3-20.2-9.9-30.6c-1.8-7.3-2.6-14.9-2.4-22.4c0.1-3.2-6.4-4.4-9.5-3.5c-8.9,2.6-17.8,5.2-26.7,7.8
		c-1.1-1.9,1.5-3.9,3.6-4.5c12.4-3.9,24.7-7.8,37.1-11.7c-0.5-5.5-5.2-9.5-8.4-14c-3.1-4.3-5-9.4-5.4-14.7c-0.1-1.7-0.1-3.4,0.7-4.9
		c1.3-2.3,4.1-3.1,6.7-3.7c21.6-4.6,44.1-5,65.9-1.1"/>
	<path fill="none" stroke="#709CD2" stroke-width="4" stroke-linecap="round" stroke-linejoin="round" d="M236.4,32.3
		c-6.4-3.3-13.5-4.7-20.6-5.7c-39.1-5.7-79.2-3.4-117.4,6.8C97.2,33.7,96,34,95,34.8c-1.8,1.5-2.3,4-2.7,6.4
		c-1.4,7.5-3.9,15.2-9.4,20.2c-4.3,3.9-9.9,5.7-15.4,7.4c-5.7,1.8-11.3,3.6-17,5.4c-1.3-3.8-5.6-5.8-9.5-5.7s-7.6,1.9-11.2,3.6
		c-1.5,0.8-3.2,1.6-3.9,3.2c-0.9,1.9,0,4.1,0.8,6.1c5,11.8,10.1,23.7,15.1,35.5c0.6,1.4,1.2,2.8,2.4,3.7c1.5,1,3.4,1,5.2,0.8
		c4.6-0.5,9.2-1.6,13.6-3.3c3.6-1.3,7.4-3.6,8.1-7.4c0.9-5.1-4.5-9.2-5.4-14.3c9.5-7.1,20.5-11.9,32.1-14c9.5-1.7,20.7-1.1,27.1,6.4
		c6.7,7.7,12.9,14.8,18.4,23.5c3.6,5.7,7.2,11.4,9.9,17.6c4,8.9,6.3,18.5,8.8,27.9c10.4,39.3,25,77.2,39.6,115.1
		c0.5,1.2,1,2.4,1.9,3.3c1.9,1.9,5,1.5,7.6,1c13.4-2.8,26.3-7.5,38.4-14c0.6-0.3,1.3-0.7,1.5-1.4c0.2-0.6,0-1.3-0.3-2
		c-6.5-15.8-19.4-28-27.4-43.1c-4.4-8.4-7.3-17.5-11.4-26.1c-3.4-7.1-7.6-13.9-10.1-21.4c-2.6-7.6-3.3-15.7-5.3-23.5
		c-2.6-10.4-7.3-20.2-9.9-30.6c-1.8-7.3-2.6-14.9-2.4-22.4c0.1-3.2-6.4-4.4-9.5-3.5c-8.9,2.6-17.8,5.2-26.7,7.8
		c-1.1-1.9,1.5-3.9,3.6-4.5c12.4-3.9,24.7-7.8,37.1-11.7c-0.5-5.5-5.2-9.5-8.4-14c-3.1-4.3-5-9.4-5.4-14.7c-0.1-1.7-0.1-3.4,0.7-4.9
		c1.3-2.3,4.1-3.1,6.7-3.7c21.6-4.6,44.1-5,65.9-1.1"/>
	<path fill="none" stroke="#85A9D9" stroke-width="3" stroke-linecap="round" stroke-linejoin="round" d="M236.4,32.3
		c-6.4-3.3-13.5-4.7-20.6-5.7c-39.1-5.7-79.2-3.4-117.4,6.8C97.2,33.7,96,34,95,34.8c-1.8,1.5-2.3,4-2.7,6.4
		c-1.4,7.5-3.9,15.2-9.4,20.2c-4.3,3.9-9.9,5.7-15.4,7.4c-5.7,1.8-11.3,3.6-17,5.4c-1.3-3.8-5.6-5.8-9.5-5.7s-7.6,1.9-11.2,3.6
		c-1.5,0.8-3.2,1.6-3.9,3.2c-0.9,1.9,0,4.1,0.8,6.1c5,11.8,10.1,23.7,15.1,35.5c0.6,1.4,1.2,2.8,2.4,3.7c1.5,1,3.4,1,5.2,0.8
		c4.6-0.5,9.2-1.6,13.6-3.3c3.6-1.3,7.4-3.6,8.1-7.4c0.9-5.1-4.5-9.2-5.4-14.3c9.5-7.1,20.5-11.9,32.1-14c9.5-1.7,20.7-1.1,27.1,6.4
		c6.7,7.7,12.9,14.8,18.4,23.5c3.6,5.7,7.2,11.4,9.9,17.6c4,8.9,6.3,18.5,8.8,27.9c10.4,39.3,25,77.2,39.6,115.1
		c0.5,1.2,1,2.4,1.9,3.3c1.9,1.9,5,1.5,7.6,1c13.4-2.8,26.3-7.5,38.4-14c0.6-0.3,1.3-0.7,1.5-1.4c0.2-0.6,0-1.3-0.3-2
		c-6.5-15.8-19.4-28-27.4-43.1c-4.4-8.4-7.3-17.5-11.4-26.1c-3.4-7.1-7.6-13.9-10.1-21.4c-2.6-7.6-3.3-15.7-5.3-23.5
		c-2.6-10.4-7.3-20.2-9.9-30.6c-1.8-7.3-2.6-14.9-2.4-22.4c0.1-3.2-6.4-4.4-9.5-3.5c-8.9,2.6-17.8,5.2-26.7,7.8
		c-1.1-1.9,1.5-3.9,3.6-4.5c12.4-3.9,24.7-7.8,37.1-11.7c-0.5-5.5-5.2-9.5-8.4-14c-3.1-4.3-5-9.4-5.4-14.7c-0.1-1.7-0.1-3.4,0.7-4.9
		c1.3-2.3,4.1-3.1,6.7-3.7c21.6-4.6,44.1-5,65.9-1.1"/>
	<path fill="none" stroke="#A3BCE2" stroke-linecap="round" stroke-linejoin="round" d="M236.4,32.3c-6.4-3.3-13.5-4.7-20.6-5.7
		c-39.1-5.7-79.2-3.4-117.4,6.8C97.2,33.7,96,34,95,34.8c-1.8,1.5-2.3,4-2.7,6.4c-1.4,7.5-3.9,15.2-9.4,20.2
		c-4.3,3.9-9.9,5.7-15.4,7.4c-5.7,1.8-11.3,3.6-17,5.4c-1.3-3.8-5.6-5.8-9.5-5.7s-7.6,1.9-11.2,3.6c-1.5,0.8-3.2,1.6-3.9,3.2
		c-0.9,1.9,0,4.1,0.8,6.1c5,11.8,10.1,23.7,15.1,35.5c0.6,1.4,1.2,2.8,2.4,3.7c1.5,1,3.4,1,5.2,0.8c4.6-0.5,9.2-1.6,13.6-3.3
		c3.6-1.3,7.4-3.6,8.1-7.4c0.9-5.1-4.5-9.2-5.4-14.3c9.5-7.1,20.5-11.9,32.1-14c9.5-1.7,20.7-1.1,27.1,6.4
		c6.7,7.7,12.9,14.8,18.4,23.5c3.6,5.7,7.2,11.4,9.9,17.6c4,8.9,6.3,18.5,8.8,27.9c10.4,39.3,25,77.2,39.6,115.1
		c0.5,1.2,1,2.4,1.9,3.3c1.9,1.9,5,1.5,7.6,1c13.4-2.8,26.3-7.5,38.4-14c0.6-0.3,1.3-0.7,1.5-1.4c0.2-0.6,0-1.3-0.3-2
		c-6.5-15.8-19.4-28-27.4-43.1c-4.4-8.4-7.3-17.5-11.4-26.1c-3.4-7.1-7.6-13.9-10.1-21.4c-2.6-7.6-3.3-15.7-5.3-23.5
		c-2.6-10.4-7.3-20.2-9.9-30.6c-1.8-7.3-2.6-14.9-2.4-22.4c0.1-3.2-6.4-4.4-9.5-3.5c-8.9,2.6-17.8,5.2-26.7,7.8
		c-1.1-1.9,1.5-3.9,3.6-4.5c12.4-3.9,24.7-7.8,37.1-11.7c-0.5-5.5-5.2-9.5-8.4-14c-3.1-4.3-5-9.4-5.4-14.7c-0.1-1.7-0.1-3.4,0.7-4.9
		c1.3-2.3,4.1-3.1,6.7-3.7c21.6-4.6,44.1-5,65.9-1.1"/>
</g>
</svg>
