<?xml version="1.0" encoding="utf-8"?>
<!-- Generator: Adobe Illustrator 19.2.0, SVG Export Plug-In . SVG Version: 6.00 Build 0)  -->
<svg version="1.1" id="Layer_1" xmlns="http://www.w3.org/2000/svg" xmlns:xlink="http://www.w3.org/1999/xlink" x="0px" y="0px"
	 viewBox="0 0 300 300" enable-background="new 0 0 300 300" xml:space="preserve">
<g>
	<path opacity="0.2" fill="none" stroke="#0073BC" stroke-width="10" stroke-linecap="round" stroke-linejoin="round" d="
		M252.4,29.5c-6.4-3.6-13.6-5-20.7-6.2c-39.2-6.2-79.5-3.7-117.7,7.3c-1.2,0.3-2.5,0.7-3.4,1.6c-1.8,1.6-2.3,4.3-2.7,6.8
		c-1.4,8-3.9,16.3-9.5,21.7c-4.3,4.2-10,6.1-15.4,8c-5.7,1.9-11.4,3.9-17,5.8c-1.3-4.1-5.6-6.3-9.6-6.2c-3.9,0.1-7.6,2-11.2,3.9
		c-1.5,0.8-3.2,1.8-3.9,3.5c-0.9,2.1,0,4.4,0.8,6.5c5.1,12.8,10.1,25.5,15.2,38.3c0.6,1.5,1.2,3.1,2.5,4c1.5,1.1,3.4,1,5.2,0.8
		c4.6-0.6,9.2-1.8,13.6-3.5c3.6-1.4,7.4-3.9,8.1-8c0.9-5.5-4.5-9.9-5.4-15.4c9.5-7.6,20.6-12.9,32.2-15.1c9.6-1.9,20.7-1.1,27.2,6.9
		c6.7,8.3,12.9,15.9,18.4,25.3c3.6,6.1,7.2,12.3,10,18.9c4,9.6,6.3,19.9,8.8,30.1c10.4,42.3,25.1,83.2,39.7,124
		c0.5,1.3,1,2.6,1.9,3.6c1.9,2,5,1.6,7.6,1c13.4-3,26.4-8.1,38.5-15.1c0.6-0.4,1.3-0.8,1.5-1.5c0.2-0.7,0-1.5-0.3-2.1
		c-6.5-17.1-19.4-30.2-27.5-46.4c-4.5-9-7.3-18.9-11.4-28.1c-3.4-7.7-7.6-15-10.2-23.1c-2.6-8.2-3.3-16.9-5.3-25.3
		c-2.6-11.2-7.3-21.7-9.9-32.9c-1.8-7.9-2.6-16-2.4-24.1c0.1-3.5-6.5-4.7-9.5-3.7c-8.9,2.8-17.8,5.6-26.7,8.4
		c-1.2-2.1,1.5-4.2,3.6-4.9c12.4-4.2,24.8-8.4,37.2-12.6c-0.6-5.9-5.2-10.2-8.4-15c-3.1-4.6-5-10.2-5.4-15.9
		c-0.1-1.8-0.1-3.7,0.7-5.3c1.3-2.5,4.1-3.4,6.7-4c21.7-5,44.2-5.4,66.1-1.2"/>
	<path opacity="0.25" fill="none" stroke="#0073BC" stroke-width="8.5" stroke-linecap="round" stroke-linejoin="round" d="
		M252.4,29.5c-6.4-3.6-13.6-5-20.7-6.2c-39.2-6.2-79.5-3.7-117.7,7.3c-1.2,0.3-2.5,0.7-3.4,1.6c-1.8,1.6-2.3,4.3-2.7,6.8
		c-1.4,8-3.9,16.3-9.5,21.7c-4.3,4.2-10,6.1-15.4,8c-5.7,1.9-11.4,3.9-17,5.8c-1.3-4.1-5.6-6.3-9.6-6.2c-3.9,0.1-7.6,2-11.2,3.9
		c-1.5,0.8-3.2,1.8-3.9,3.5c-0.9,2.1,0,4.4,0.8,6.5c5.1,12.8,10.1,25.5,15.2,38.3c0.6,1.5,1.2,3.1,2.5,4c1.5,1.1,3.4,1,5.2,0.8
		c4.6-0.6,9.2-1.8,13.6-3.5c3.6-1.4,7.4-3.9,8.1-8c0.9-5.5-4.5-9.9-5.4-15.4c9.5-7.6,20.6-12.9,32.2-15.1c9.6-1.9,20.7-1.1,27.2,6.9
		c6.7,8.3,12.9,15.9,18.4,25.3c3.6,6.1,7.2,12.3,10,18.9c4,9.6,6.3,19.9,8.8,30.1c10.4,42.3,25.1,83.2,39.7,124
		c0.5,1.3,1,2.6,1.9,3.6c1.9,2,5,1.6,7.6,1c13.4-3,26.4-8.1,38.5-15.1c0.6-0.4,1.3-0.8,1.5-1.5c0.2-0.7,0-1.5-0.3-2.1
		c-6.5-17.1-19.4-30.2-27.5-46.4c-4.5-9-7.3-18.9-11.4-28.1c-3.4-7.7-7.6-15-10.2-23.1c-2.6-8.2-3.3-16.9-5.3-25.3
		c-2.6-11.2-7.3-21.7-9.9-32.9c-1.8-7.9-2.6-16-2.4-24.1c0.1-3.5-6.5-4.7-9.5-3.7c-8.9,2.8-17.8,5.6-26.7,8.4
		c-1.2-2.1,1.5-4.2,3.6-4.9c12.4-4.2,24.8-8.4,37.2-12.6c-0.6-5.9-5.2-10.2-8.4-15c-3.1-4.6-5-10.2-5.4-15.9
		c-0.1-1.8-0.1-3.7,0.7-5.3c1.3-2.5,4.1-3.4,6.7-4c21.7-5,44.2-5.4,66.1-1.2"/>
	<path opacity="0.3" fill="none" stroke="#0073BC" stroke-width="5" stroke-linecap="round" stroke-linejoin="round" d="M252.4,29.5
		c-6.4-3.6-13.6-5-20.7-6.2c-39.2-6.2-79.5-3.7-117.7,7.3c-1.2,0.3-2.5,0.7-3.4,1.6c-1.8,1.6-2.3,4.3-2.7,6.8
		c-1.4,8-3.9,16.3-9.5,21.7c-4.3,4.2-10,6.1-15.4,8c-5.7,1.9-11.4,3.9-17,5.8c-1.3-4.1-5.6-6.3-9.6-6.2c-3.9,0.1-7.6,2-11.2,3.9
		c-1.5,0.8-3.2,1.8-3.9,3.5c-0.9,2.1,0,4.4,0.8,6.5c5.1,12.8,10.1,25.5,15.2,38.3c0.6,1.5,1.2,3.1,2.5,4c1.5,1.1,3.4,1,5.2,0.8
		c4.6-0.6,9.2-1.8,13.6-3.5c3.6-1.4,7.4-3.9,8.1-8c0.9-5.5-4.5-9.9-5.4-15.4c9.5-7.6,20.6-12.9,32.2-15.1c9.6-1.9,20.7-1.1,27.2,6.9
		c6.7,8.3,12.9,15.9,18.4,25.3c3.6,6.1,7.2,12.3,10,18.9c4,9.6,6.3,19.9,8.8,30.1c10.4,42.3,25.1,83.2,39.7,124
		c0.5,1.3,1,2.6,1.9,3.6c1.9,2,5,1.6,7.6,1c13.4-3,26.4-8.1,38.5-15.1c0.6-0.4,1.3-0.8,1.5-1.5c0.2-0.7,0-1.5-0.3-2.1
		c-6.5-17.1-19.4-30.2-27.5-46.4c-4.5-9-7.3-18.9-11.4-28.1c-3.4-7.7-7.6-15-10.2-23.1c-2.6-8.2-3.3-16.9-5.3-25.3
		c-2.6-11.2-7.3-21.7-9.9-32.9c-1.8-7.9-2.6-16-2.4-24.1c0.1-3.5-6.5-4.7-9.5-3.7c-8.9,2.8-17.8,5.6-26.7,8.4
		c-1.2-2.1,1.5-4.2,3.6-4.9c12.4-4.2,24.8-8.4,37.2-12.6c-0.6-5.9-5.2-10.2-8.4-15c-3.1-4.6-5-10.2-5.4-15.9
		c-0.1-1.8-0.1-3.7,0.7-5.3c1.3-2.5,4.1-3.4,6.7-4c21.7-5,44.2-5.4,66.1-1.2"/>
	<path fill="none" stroke="#2C80C3" stroke-width="7" stroke-linecap="round" stroke-linejoin="round" d="M252.4,29.5
		c-6.4-3.6-13.6-5-20.7-6.2c-39.2-6.2-79.5-3.7-117.7,7.3c-1.2,0.3-2.5,0.7-3.4,1.6c-1.8,1.6-2.3,4.3-2.7,6.8
		c-1.4,8-3.9,16.3-9.5,21.7c-4.3,4.2-10,6.1-15.4,8c-5.7,1.9-11.4,3.9-17,5.8c-1.3-4.1-5.6-6.3-9.6-6.2c-3.9,0.1-7.6,2-11.2,3.9
		c-1.5,0.8-3.2,1.8-3.9,3.5c-0.9,2.1,0,4.4,0.8,6.5c5.1,12.8,10.1,25.5,15.2,38.3c0.6,1.5,1.2,3.1,2.5,4c1.5,1.1,3.4,1,5.2,0.8
		c4.6-0.6,9.2-1.8,13.6-3.5c3.6-1.4,7.4-3.9,8.1-8c0.9-5.5-4.5-9.9-5.4-15.4c9.5-7.6,20.6-12.9,32.2-15.1c9.6-1.9,20.7-1.1,27.2,6.9
		c6.7,8.3,12.9,15.9,18.4,25.3c3.6,6.1,7.2,12.3,10,18.9c4,9.6,6.3,19.9,8.8,30.1c10.4,42.3,25.1,83.2,39.7,124
		c0.5,1.3,1,2.6,1.9,3.6c1.9,2,5,1.6,7.6,1c13.4-3,26.4-8.1,38.5-15.1c0.6-0.4,1.3-0.8,1.5-1.5c0.2-0.7,0-1.5-0.3-2.1
		c-6.5-17.1-19.4-30.2-27.5-46.4c-4.5-9-7.3-18.9-11.4-28.1c-3.4-7.7-7.6-15-10.2-23.1c-2.6-8.2-3.3-16.9-5.3-25.3
		c-2.6-11.2-7.3-21.7-9.9-32.9c-1.8-7.9-2.6-16-2.4-24.1c0.1-3.5-6.5-4.7-9.5-3.7c-8.9,2.8-17.8,5.6-26.7,8.4
		c-1.2-2.1,1.5-4.2,3.6-4.9c12.4-4.2,24.8-8.4,37.2-12.6c-0.6-5.9-5.2-10.2-8.4-15c-3.1-4.6-5-10.2-5.4-15.9
		c-0.1-1.8-0.1-3.7,0.7-5.3c1.3-2.5,4.1-3.4,6.7-4c21.7-5,44.2-5.4,66.1-1.2"/>
	<path fill="none" stroke="#4F8CCA" stroke-width="5.5" stroke-linecap="round" stroke-linejoin="round" d="M252.4,29.5
		c-6.4-3.6-13.6-5-20.7-6.2c-39.2-6.2-79.5-3.7-117.7,7.3c-1.2,0.3-2.5,0.7-3.4,1.6c-1.8,1.6-2.3,4.3-2.7,6.8
		c-1.4,8-3.9,16.3-9.5,21.7c-4.3,4.2-10,6.1-15.4,8c-5.7,1.9-11.4,3.9-17,5.8c-1.3-4.1-5.6-6.3-9.6-6.2c-3.9,0.1-7.6,2-11.2,3.9
		c-1.5,0.8-3.2,1.8-3.9,3.5c-0.9,2.1,0,4.4,0.8,6.5c5.1,12.8,10.1,25.5,15.2,38.3c0.6,1.5,1.2,3.1,2.5,4c1.5,1.1,3.4,1,5.2,0.8
		c4.6-0.6,9.2-1.8,13.6-3.5c3.6-1.4,7.4-3.9,8.1-8c0.9-5.5-4.5-9.9-5.4-15.4c9.5-7.6,20.6-12.9,32.2-15.1c9.6-1.9,20.7-1.1,27.2,6.9
		c6.7,8.3,12.9,15.9,18.4,25.3c3.6,6.1,7.2,12.3,10,18.9c4,9.6,6.3,19.9,8.8,30.1c10.4,42.3,25.1,83.2,39.7,124
		c0.5,1.3,1,2.6,1.9,3.6c1.9,2,5,1.6,7.6,1c13.4-3,26.4-8.1,38.5-15.1c0.6-0.4,1.3-0.8,1.5-1.5c0.2-0.7,0-1.5-0.3-2.1
		c-6.5-17.1-19.4-30.2-27.5-46.4c-4.5-9-7.3-18.9-11.4-28.1c-3.4-7.7-7.6-15-10.2-23.1c-2.6-8.2-3.3-16.9-5.3-25.3
		c-2.6-11.2-7.3-21.7-9.9-32.9c-1.8-7.9-2.6-16-2.4-24.1c0.1-3.5-6.5-4.7-9.5-3.7c-8.9,2.8-17.8,5.6-26.7,8.4
		c-1.2-2.1,1.5-4.2,3.6-4.9c12.4-4.2,24.8-8.4,37.2-12.6c-0.6-5.9-5.2-10.2-8.4-15c-3.1-4.6-5-10.2-5.4-15.9
		c-0.1-1.8-0.1-3.7,0.7-5.3c1.3-2.5,4.1-3.4,6.7-4c21.7-5,44.2-5.4,66.1-1.2"/>
	<path fill="none" stroke="#709CD2" stroke-width="4" stroke-linecap="round" stroke-linejoin="round" d="M252.4,29.5
		c-6.4-3.6-13.6-5-20.7-6.2c-39.2-6.2-79.5-3.7-117.7,7.3c-1.2,0.3-2.5,0.7-3.4,1.6c-1.8,1.6-2.3,4.3-2.7,6.8
		c-1.4,8-3.9,16.3-9.5,21.7c-4.3,4.2-10,6.1-15.4,8c-5.7,1.9-11.4,3.9-17,5.8c-1.3-4.1-5.6-6.3-9.6-6.2c-3.9,0.1-7.6,2-11.2,3.9
		c-1.5,0.8-3.2,1.8-3.9,3.5c-0.9,2.1,0,4.4,0.8,6.5c5.1,12.8,10.1,25.5,15.2,38.3c0.6,1.5,1.2,3.1,2.5,4c1.5,1.1,3.4,1,5.2,0.8
		c4.6-0.6,9.2-1.8,13.6-3.5c3.6-1.4,7.4-3.9,8.1-8c0.9-5.5-4.5-9.9-5.4-15.4c9.5-7.6,20.6-12.9,32.2-15.1c9.6-1.9,20.7-1.1,27.2,6.9
		c6.7,8.3,12.9,15.9,18.4,25.3c3.6,6.1,7.2,12.3,10,18.9c4,9.6,6.3,19.9,8.8,30.1c10.4,42.3,25.1,83.2,39.7,124
		c0.5,1.3,1,2.6,1.9,3.6c1.9,2,5,1.6,7.6,1c13.4-3,26.4-8.1,38.5-15.1c0.6-0.4,1.3-0.8,1.5-1.5c0.2-0.7,0-1.5-0.3-2.1
		c-6.5-17.1-19.4-30.2-27.5-46.4c-4.5-9-7.3-18.9-11.4-28.1c-3.4-7.7-7.6-15-10.2-23.1c-2.6-8.2-3.3-16.9-5.3-25.3
		c-2.6-11.2-7.3-21.7-9.9-32.9c-1.8-7.9-2.6-16-2.4-24.1c0.1-3.5-6.5-4.7-9.5-3.7c-8.9,2.8-17.8,5.6-26.7,8.4
		c-1.2-2.1,1.5-4.2,3.6-4.9c12.4-4.2,24.8-8.4,37.2-12.6c-0.6-5.9-5.2-10.2-8.4-15c-3.1-4.6-5-10.2-5.4-15.9
		c-0.1-1.8-0.1-3.7,0.7-5.3c1.3-2.5,4.1-3.4,6.7-4c21.7-5,44.2-5.4,66.1-1.2"/>
	<path fill="none" stroke="#85A9D9" stroke-width="3" stroke-linecap="round" stroke-linejoin="round" d="M252.4,29.5
		c-6.4-3.6-13.6-5-20.7-6.2c-39.2-6.2-79.5-3.7-117.7,7.3c-1.2,0.3-2.5,0.7-3.4,1.6c-1.8,1.6-2.3,4.3-2.7,6.8
		c-1.4,8-3.9,16.3-9.5,21.7c-4.3,4.2-10,6.1-15.4,8c-5.7,1.9-11.4,3.9-17,5.8c-1.3-4.1-5.6-6.3-9.6-6.2c-3.9,0.1-7.6,2-11.2,3.9
		c-1.5,0.8-3.2,1.8-3.9,3.5c-0.9,2.1,0,4.4,0.8,6.5c5.1,12.8,10.1,25.5,15.2,38.3c0.6,1.5,1.2,3.1,2.5,4c1.5,1.1,3.4,1,5.2,0.8
		c4.6-0.6,9.2-1.8,13.6-3.5c3.6-1.4,7.4-3.9,8.1-8c0.9-5.5-4.5-9.9-5.4-15.4c9.5-7.6,20.6-12.9,32.2-15.1c9.6-1.9,20.7-1.1,27.2,6.9
		c6.7,8.3,12.9,15.9,18.4,25.3c3.6,6.1,7.2,12.3,10,18.9c4,9.6,6.3,19.9,8.8,30.1c10.4,42.3,25.1,83.2,39.7,124
		c0.5,1.3,1,2.6,1.9,3.6c1.9,2,5,1.6,7.6,1c13.4-3,26.4-8.1,38.5-15.1c0.6-0.4,1.3-0.8,1.5-1.5c0.2-0.7,0-1.5-0.3-2.1
		c-6.5-17.1-19.4-30.2-27.5-46.4c-4.5-9-7.3-18.9-11.4-28.1c-3.4-7.7-7.6-15-10.2-23.1c-2.6-8.2-3.3-16.9-5.3-25.3
		c-2.6-11.2-7.3-21.7-9.9-32.9c-1.8-7.9-2.6-16-2.4-24.1c0.1-3.5-6.5-4.7-9.5-3.7c-8.9,2.8-17.8,5.6-26.7,8.4
		c-1.2-2.1,1.5-4.2,3.6-4.9c12.4-4.2,24.8-8.4,37.2-12.6c-0.6-5.9-5.2-10.2-8.4-15c-3.1-4.6-5-10.2-5.4-15.9
		c-0.1-1.8-0.1-3.7,0.7-5.3c1.3-2.5,4.1-3.4,6.7-4c21.7-5,44.2-5.4,66.1-1.2"/>
	<path fill="none" stroke="#A3BCE2" stroke-linecap="round" stroke-linejoin="round" d="M252.4,29.5c-6.4-3.6-13.6-5-20.7-6.2
		c-39.2-6.2-79.5-3.7-117.7,7.3c-1.2,0.3-2.5,0.7-3.4,1.6c-1.8,1.6-2.3,4.3-2.7,6.8c-1.4,8-3.9,16.3-9.5,21.7
		c-4.3,4.2-10,6.1-15.4,8c-5.7,1.9-11.4,3.9-17,5.8c-1.3-4.1-5.6-6.3-9.6-6.2c-3.9,0.1-7.6,2-11.2,3.9c-1.5,0.8-3.2,1.8-3.9,3.5
		c-0.9,2.1,0,4.4,0.8,6.5c5.1,12.8,10.1,25.5,15.2,38.3c0.6,1.5,1.2,3.1,2.5,4c1.5,1.1,3.4,1,5.2,0.8c4.6-0.6,9.2-1.8,13.6-3.5
		c3.6-1.4,7.4-3.9,8.1-8c0.9-5.5-4.5-9.9-5.4-15.4c9.5-7.6,20.6-12.9,32.2-15.1c9.6-1.9,20.7-1.1,27.2,6.9
		c6.7,8.3,12.9,15.9,18.4,25.3c3.6,6.1,7.2,12.3,10,18.9c4,9.6,6.3,19.9,8.8,30.1c10.4,42.3,25.1,83.2,39.7,124
		c0.5,1.3,1,2.6,1.9,3.6c1.9,2,5,1.6,7.6,1c13.4-3,26.4-8.1,38.5-15.1c0.6-0.4,1.3-0.8,1.5-1.5c0.2-0.7,0-1.5-0.3-2.1
		c-6.5-17.1-19.4-30.2-27.5-46.4c-4.5-9-7.3-18.9-11.4-28.1c-3.4-7.7-7.6-15-10.2-23.1c-2.6-8.2-3.3-16.9-5.3-25.3
		c-2.6-11.2-7.3-21.7-9.9-32.9c-1.8-7.9-2.6-16-2.4-24.1c0.1-3.5-6.5-4.7-9.5-3.7c-8.9,2.8-17.8,5.6-26.7,8.4
		c-1.2-2.1,1.5-4.2,3.6-4.9c12.4-4.2,24.8-8.4,37.2-12.6c-0.6-5.9-5.2-10.2-8.4-15c-3.1-4.6-5-10.2-5.4-15.9
		c-0.1-1.8-0.1-3.7,0.7-5.3c1.3-2.5,4.1-3.4,6.7-4c21.7-5,44.2-5.4,66.1-1.2"/>
</g>
</svg>
