<?xml version="1.0" encoding="utf-8"?>
<!-- Generator: Adobe Illustrator 19.1.0, SVG Export Plug-In . SVG Version: 6.00 Build 0)  -->
<svg version="1.1" id="Layer_1" xmlns="http://www.w3.org/2000/svg" xmlns:xlink="http://www.w3.org/1999/xlink" x="0px" y="0px"
	 viewBox="0 0 200 110" style="enable-background:new 0 0 200 110;" xml:space="preserve">
<style type="text/css">
	.st0{fill:#354444;}
</style>
<g>
	<g>
		<g>
			<polygon class="st0" points="189,76.9 189,73.9 193.5,72.6 196.9,59.1 192.7,55 192.7,55 195.5,40.7 193.1,38.6 197.9,27 
				190,16.8 190.8,13.6 180.1,2.7 169.1,5.6 164.4,2.8 160.4,5.1 155.4,1.8 142.2,8.3 141.8,15.3 134.4,11.4 123.1,18.6 123.2,17.7 
				107.7,6.6 96.1,11.8 84,7 79.5,10.5 78.9,5.1 77,4.3 77,4.3 72.3,0.6 66.7,2.9 66.4,5 66.3,5.1 60.9,3 59,4.4 54.3,4.4 54.1,4.1 
				46.9,4.1 46.2,5.4 46.1,5.4 42.8,11.2 36.9,1.1 14.6,1.1 3.4,20.5 7.9,28.3 4.6,34 9.3,42.2 6.5,42.2 1.3,51.2 4.6,57 2.7,60.3 
				3.2,61.1 1,65 5.4,72.6 2.8,74.2 2.8,77.6 2.8,77.8 2.8,77.9 2.9,80.5 3.2,80.7 2.8,81 4.2,90.5 2.8,92 5.3,100.9 14.2,103.1 
				18.9,105 28.8,97 27.4,88.7 28.9,89.5 29.8,96.1 51.2,104.9 54.2,102.6 68.3,108.4 75.5,102.9 84.3,108.2 104.2,97 104.3,95.8 
				108.9,98.5 109,98.5 109.4,100.6 131.2,107.8 139.6,100.2 149.5,105.2 157,100.3 163.7,104.4 169.6,101.1 176,107.7 193.2,103.2 
				198,86 			"/>
		</g>
	</g>
</g>
</svg>
