<?xml version="1.0" encoding="utf-8"?>
<!-- Generator: Adobe Illustrator 19.2.0, SVG Export Plug-In . SVG Version: 6.00 Build 0)  -->
<svg version="1.1" id="Layer_1" xmlns="http://www.w3.org/2000/svg" xmlns:xlink="http://www.w3.org/1999/xlink" x="0px" y="0px"
	 viewBox="0 0 300 300" enable-background="new 0 0 300 300" xml:space="preserve">
<g>
	<g>
		
			<path opacity="0.2" fill="none" stroke="#EB2D3B" stroke-width="10" stroke-linecap="round" stroke-linejoin="round" enable-background="new    " d="
			M32.8,141.7c25.7-10.9,46.6-31.4,72.6-41.3c1.8-0.7,3.6-1.3,5.5-1.2c2.1,0.2,4,1.2,5.8,2.3c6.4,3.7,12.8,7.4,19.2,11.1
			c1.8,1,3.6,2.1,5.7,2.2c2,0.1,3.9-0.7,5.6-1.6c5.5-2.8,10.4-6.6,14.4-11.2c2.7-3,5.5-6.7,9.5-6.8c1.7-0.1,3.3,0.5,4.9,1.1
			c24.8,9.3,49.7,18.6,74.5,27.9c2.7,1,15.9,4.1,16.6,6.9c0.8,3.4-7.6,8.7-9.7,10.5c-9.5,8-19.6,15.2-30.2,21.6
			c-11.4,6.9-23.4,12.8-35.7,17.8c-9.6,3.9-19.6,7.3-29.9,8.2c-10.6,0.9-21.2-0.9-31.6-3.2c-30.2-6.6-59.6-17.1-90.2-21.7
			c6.5-2.5,10.6-3.8,17.1-6.3c5.5-2.1,11-4.3,16.7-5.4c9.3-1.9,18.8-1.1,28.2-0.8c39,1.4,77.9-4.2,116.5-9.8
			c8.6-1.2,17.3-2.5,25.4-5.7"/>
		
			<path opacity="0.25" fill="none" stroke="#EB2D3B" stroke-width="8.5" stroke-linecap="round" stroke-linejoin="round" enable-background="new    " d="
			M32.8,141.7c25.7-10.9,46.6-31.4,72.6-41.3c1.8-0.7,3.6-1.3,5.5-1.2c2.1,0.2,4,1.2,5.8,2.3c6.4,3.7,12.8,7.4,19.2,11.1
			c1.8,1,3.6,2.1,5.7,2.2c2,0.1,3.9-0.7,5.6-1.6c5.5-2.8,10.4-6.6,14.4-11.2c2.7-3,5.5-6.7,9.5-6.8c1.7-0.1,3.3,0.5,4.9,1.1
			c24.8,9.3,49.7,18.6,74.5,27.9c2.7,1,15.9,4.1,16.6,6.9c0.8,3.4-7.6,8.7-9.7,10.5c-9.5,8-19.6,15.2-30.2,21.6
			c-11.4,6.9-23.4,12.8-35.7,17.8c-9.6,3.9-19.6,7.3-29.9,8.2c-10.6,0.9-21.2-0.9-31.6-3.2c-30.2-6.6-59.6-17.1-90.2-21.7
			c6.5-2.5,10.6-3.8,17.1-6.3c5.5-2.1,11-4.3,16.7-5.4c9.3-1.9,18.8-1.1,28.2-0.8c39,1.4,77.9-4.2,116.5-9.8
			c8.6-1.2,17.3-2.5,25.4-5.7"/>
		
			<path opacity="0.3" fill="none" stroke="#EB2D3B" stroke-width="5" stroke-linecap="round" stroke-linejoin="round" enable-background="new    " d="
			M32.8,141.7c25.7-10.9,46.6-31.4,72.6-41.3c1.8-0.7,3.6-1.3,5.5-1.2c2.1,0.2,4,1.2,5.8,2.3c6.4,3.7,12.8,7.4,19.2,11.1
			c1.8,1,3.6,2.1,5.7,2.2c2,0.1,3.9-0.7,5.6-1.6c5.5-2.8,10.4-6.6,14.4-11.2c2.7-3,5.5-6.7,9.5-6.8c1.7-0.1,3.3,0.5,4.9,1.1
			c24.8,9.3,49.7,18.6,74.5,27.9c2.7,1,15.9,4.1,16.6,6.9c0.8,3.4-7.6,8.7-9.7,10.5c-9.5,8-19.6,15.2-30.2,21.6
			c-11.4,6.9-23.4,12.8-35.7,17.8c-9.6,3.9-19.6,7.3-29.9,8.2c-10.6,0.9-21.2-0.9-31.6-3.2c-30.2-6.6-59.6-17.1-90.2-21.7
			c6.5-2.5,10.6-3.8,17.1-6.3c5.5-2.1,11-4.3,16.7-5.4c9.3-1.9,18.8-1.1,28.2-0.8c39,1.4,77.9-4.2,116.5-9.8
			c8.6-1.2,17.3-2.5,25.4-5.7"/>
		<path fill="none" stroke="#EC4747" stroke-width="7" stroke-linecap="round" stroke-linejoin="round" d="M32.8,141.7
			c25.7-10.9,46.6-31.4,72.6-41.3c1.8-0.7,3.6-1.3,5.5-1.2c2.1,0.2,4,1.2,5.8,2.3c6.4,3.7,12.8,7.4,19.2,11.1c1.8,1,3.6,2.1,5.7,2.2
			c2,0.1,3.9-0.7,5.6-1.6c5.5-2.8,10.4-6.6,14.4-11.2c2.7-3,5.5-6.7,9.5-6.8c1.7-0.1,3.3,0.5,4.9,1.1c24.8,9.3,49.7,18.6,74.5,27.9
			c2.7,1,15.9,4.1,16.6,6.9c0.8,3.4-7.6,8.7-9.7,10.5c-9.5,8-19.6,15.2-30.2,21.6c-11.4,6.9-23.4,12.8-35.7,17.8
			c-9.6,3.9-19.6,7.3-29.9,8.2c-10.6,0.9-21.2-0.9-31.6-3.2c-30.2-6.6-59.6-17.1-90.2-21.7c6.5-2.5,10.6-3.8,17.1-6.3
			c5.5-2.1,11-4.3,16.7-5.4c9.3-1.9,18.8-1.1,28.2-0.8c39,1.4,77.9-4.2,116.5-9.8c8.6-1.2,17.3-2.5,25.4-5.7"/>
		<path fill="none" stroke="#F07062" stroke-width="5.5" stroke-linecap="round" stroke-linejoin="round" d="M32.8,141.7
			c25.7-10.9,46.6-31.4,72.6-41.3c1.8-0.7,3.6-1.3,5.5-1.2c2.1,0.2,4,1.2,5.8,2.3c6.4,3.7,12.8,7.4,19.2,11.1c1.8,1,3.6,2.1,5.7,2.2
			c2,0.1,3.9-0.7,5.6-1.6c5.5-2.8,10.4-6.6,14.4-11.2c2.7-3,5.5-6.7,9.5-6.8c1.7-0.1,3.3,0.5,4.9,1.1c24.8,9.3,49.7,18.6,74.5,27.9
			c2.7,1,15.9,4.1,16.6,6.9c0.8,3.4-7.6,8.7-9.7,10.5c-9.5,8-19.6,15.2-30.2,21.6c-11.4,6.9-23.4,12.8-35.7,17.8
			c-9.6,3.9-19.6,7.3-29.9,8.2c-10.6,0.9-21.2-0.9-31.6-3.2c-30.2-6.6-59.6-17.1-90.2-21.7c6.5-2.5,10.6-3.8,17.1-6.3
			c5.5-2.1,11-4.3,16.7-5.4c9.3-1.9,18.8-1.1,28.2-0.8c39,1.4,77.9-4.2,116.5-9.8c8.6-1.2,17.3-2.5,25.4-5.7"/>
		<path fill="none" stroke="#F38B7A" stroke-width="4" stroke-linecap="round" stroke-linejoin="round" d="M32.8,141.7
			c25.7-10.9,46.6-31.4,72.6-41.3c1.8-0.7,3.6-1.3,5.5-1.2c2.1,0.2,4,1.2,5.8,2.3c6.4,3.7,12.8,7.4,19.2,11.1c1.8,1,3.6,2.1,5.7,2.2
			c2,0.1,3.9-0.7,5.6-1.6c5.5-2.8,10.4-6.6,14.4-11.2c2.7-3,5.5-6.7,9.5-6.8c1.7-0.1,3.3,0.5,4.9,1.1c24.8,9.3,49.7,18.6,74.5,27.9
			c2.7,1,15.9,4.1,16.6,6.9c0.8,3.4-7.6,8.7-9.7,10.5c-9.5,8-19.6,15.2-30.2,21.6c-11.4,6.9-23.4,12.8-35.7,17.8
			c-9.6,3.9-19.6,7.3-29.9,8.2c-10.6,0.9-21.2-0.9-31.6-3.2c-30.2-6.6-59.6-17.1-90.2-21.7c6.5-2.5,10.6-3.8,17.1-6.3
			c5.5-2.1,11-4.3,16.7-5.4c9.3-1.9,18.8-1.1,28.2-0.8c39,1.4,77.9-4.2,116.5-9.8c8.6-1.2,17.3-2.5,25.4-5.7"/>
		<path fill="none" stroke="#F6A594" stroke-width="2.5" stroke-linecap="round" stroke-linejoin="round" d="M32.8,141.7
			c25.7-10.9,46.6-31.4,72.6-41.3c1.8-0.7,3.6-1.3,5.5-1.2c2.1,0.2,4,1.2,5.8,2.3c6.4,3.7,12.8,7.4,19.2,11.1c1.8,1,3.6,2.1,5.7,2.2
			c2,0.1,3.9-0.7,5.6-1.6c5.5-2.8,10.4-6.6,14.4-11.2c2.7-3,5.5-6.7,9.5-6.8c1.7-0.1,3.3,0.5,4.9,1.1c24.8,9.3,49.7,18.6,74.5,27.9
			c2.7,1,15.9,4.1,16.6,6.9c0.8,3.4-7.6,8.7-9.7,10.5c-9.5,8-19.6,15.2-30.2,21.6c-11.4,6.9-23.4,12.8-35.7,17.8
			c-9.6,3.9-19.6,7.3-29.9,8.2c-10.6,0.9-21.2-0.9-31.6-3.2c-30.2-6.6-59.6-17.1-90.2-21.7c6.5-2.5,10.6-3.8,17.1-6.3
			c5.5-2.1,11-4.3,16.7-5.4c9.3-1.9,18.8-1.1,28.2-0.8c39,1.4,77.9-4.2,116.5-9.8c8.6-1.2,17.3-2.5,25.4-5.7"/>
		<path fill="none" stroke="#FAC7B9" stroke-linecap="round" stroke-linejoin="round" d="M32.8,141.7c25.7-10.9,46.6-31.4,72.6-41.3
			c1.8-0.7,3.6-1.3,5.5-1.2c2.1,0.2,4,1.2,5.8,2.3c6.4,3.7,12.8,7.4,19.2,11.1c1.8,1,3.6,2.1,5.7,2.2c2,0.1,3.9-0.7,5.6-1.6
			c5.5-2.8,10.4-6.6,14.4-11.2c2.7-3,5.5-6.7,9.5-6.8c1.7-0.1,3.3,0.5,4.9,1.1c24.8,9.3,49.7,18.6,74.5,27.9
			c2.7,1,15.9,4.1,16.6,6.9c0.8,3.4-7.6,8.7-9.7,10.5c-9.5,8-19.6,15.2-30.2,21.6c-11.4,6.9-23.4,12.8-35.7,17.8
			c-9.6,3.9-19.6,7.3-29.9,8.2c-10.6,0.9-21.2-0.9-31.6-3.2c-30.2-6.6-59.6-17.1-90.2-21.7c6.5-2.5,10.6-3.8,17.1-6.3
			c5.5-2.1,11-4.3,16.7-5.4c9.3-1.9,18.8-1.1,28.2-0.8c39,1.4,77.9-4.2,116.5-9.8c8.6-1.2,17.3-2.5,25.4-5.7"/>
	</g>
	<g opacity="0.2">
		<path fill="none" stroke="#EB2D3B" stroke-width="20" stroke-linecap="round" stroke-linejoin="round" d="M32.8,141.7
			c25.7-10.9,46.6-31.4,72.6-41.3c1.8-0.7,3.6-1.3,5.5-1.2c2.1,0.2,4,1.2,5.8,2.3c6.4,3.7,12.8,7.4,19.2,11.1c1.8,1,3.6,2.1,5.7,2.2
			c2,0.1,3.9-0.7,5.6-1.6c5.5-2.8,10.4-6.6,14.4-11.2c2.7-3,5.5-6.7,9.5-6.8c1.7-0.1,3.3,0.5,4.9,1.1c24.8,9.3,49.7,18.6,74.5,27.9
			c2.7,1,15.9,4.1,16.6,6.9c0.8,3.4-7.6,8.7-9.7,10.5c-9.5,8-19.6,15.2-30.2,21.6c-11.4,6.9-23.4,12.8-35.7,17.8
			c-9.6,3.9-19.6,7.3-29.9,8.2c-10.6,0.9-21.2-0.9-31.6-3.2c-30.2-6.6-59.6-17.1-90.2-21.7c6.5-2.5,10.6-3.8,17.1-6.3
			c5.5-2.1,11-4.3,16.7-5.4c9.3-1.9,18.8-1.1,28.2-0.8c39,1.4,77.9-4.2,116.5-9.8c8.6-1.2,17.3-2.5,25.4-5.7"/>
		<path fill="none" stroke="#EB2D3B" stroke-width="20" stroke-linecap="round" stroke-linejoin="round" d="M32.8,141.7
			c25.7-10.9,46.6-31.4,72.6-41.3c1.8-0.7,3.6-1.3,5.5-1.2c2.1,0.2,4,1.2,5.8,2.3c6.4,3.7,12.8,7.4,19.2,11.1c1.8,1,3.6,2.1,5.7,2.2
			c2,0.1,3.9-0.7,5.6-1.6c5.5-2.8,10.4-6.6,14.4-11.2c2.7-3,5.5-6.7,9.5-6.8c1.7-0.1,3.3,0.5,4.9,1.1c24.8,9.3,49.7,18.6,74.5,27.9
			c2.7,1,15.9,4.1,16.6,6.9c0.8,3.4-7.6,8.7-9.7,10.5c-9.5,8-19.6,15.2-30.2,21.6c-11.4,6.9-23.4,12.8-35.7,17.8
			c-9.6,3.9-19.6,7.3-29.9,8.2c-10.6,0.9-21.2-0.9-31.6-3.2c-30.2-6.6-59.6-17.1-90.2-21.7c6.5-2.5,10.6-3.8,17.1-6.3
			c5.5-2.1,11-4.3,16.7-5.4c9.3-1.9,18.8-1.1,28.2-0.8c39,1.4,77.9-4.2,116.5-9.8c8.6-1.2,17.3-2.5,25.4-5.7"/>
		<path fill="none" stroke="#EB2D3B" stroke-width="20" stroke-linecap="round" stroke-linejoin="round" d="M32.8,141.7
			c25.7-10.9,46.6-31.4,72.6-41.3c1.8-0.7,3.6-1.3,5.5-1.2c2.1,0.2,4,1.2,5.8,2.3c6.4,3.7,12.8,7.4,19.2,11.1c1.8,1,3.6,2.1,5.7,2.2
			c2,0.1,3.9-0.7,5.6-1.6c5.5-2.8,10.4-6.6,14.4-11.2c2.7-3,5.5-6.7,9.5-6.8c1.7-0.1,3.3,0.5,4.9,1.1c24.8,9.3,49.7,18.6,74.5,27.9
			c2.7,1,15.9,4.1,16.6,6.9c0.8,3.4-7.6,8.7-9.7,10.5c-9.5,8-19.6,15.2-30.2,21.6c-11.4,6.9-23.4,12.8-35.7,17.8
			c-9.6,3.9-19.6,7.3-29.9,8.2c-10.6,0.9-21.2-0.9-31.6-3.2c-30.2-6.6-59.6-17.1-90.2-21.7c6.5-2.5,10.6-3.8,17.1-6.3
			c5.5-2.1,11-4.3,16.7-5.4c9.3-1.9,18.8-1.1,28.2-0.8c39,1.4,77.9-4.2,116.5-9.8c8.6-1.2,17.3-2.5,25.4-5.7"/>
		<path fill="none" stroke="#EB2D3B" stroke-width="20" stroke-linecap="round" stroke-linejoin="round" d="M32.8,141.7
			c25.7-10.9,46.6-31.4,72.6-41.3c1.8-0.7,3.6-1.3,5.5-1.2c2.1,0.2,4,1.2,5.8,2.3c6.4,3.7,12.8,7.4,19.2,11.1c1.8,1,3.6,2.1,5.7,2.2
			c2,0.1,3.9-0.7,5.6-1.6c5.5-2.8,10.4-6.6,14.4-11.2c2.7-3,5.5-6.7,9.5-6.8c1.7-0.1,3.3,0.5,4.9,1.1c24.8,9.3,49.7,18.6,74.5,27.9
			c2.7,1,15.9,4.1,16.6,6.9c0.8,3.4-7.6,8.7-9.7,10.5c-9.5,8-19.6,15.2-30.2,21.6c-11.4,6.9-23.4,12.8-35.7,17.8
			c-9.6,3.9-19.6,7.3-29.9,8.2c-10.6,0.9-21.2-0.9-31.6-3.2c-30.2-6.6-59.6-17.1-90.2-21.7c6.5-2.5,10.6-3.8,17.1-6.3
			c5.5-2.1,11-4.3,16.7-5.4c9.3-1.9,18.8-1.1,28.2-0.8c39,1.4,77.9-4.2,116.5-9.8c8.6-1.2,17.3-2.5,25.4-5.7"/>
		<path fill="none" stroke="#EB2D3B" stroke-width="20" stroke-linecap="round" stroke-linejoin="round" d="M32.8,141.7
			c25.7-10.9,46.6-31.4,72.6-41.3c1.8-0.7,3.6-1.3,5.5-1.2c2.1,0.2,4,1.2,5.8,2.3c6.4,3.7,12.8,7.4,19.2,11.1c1.8,1,3.6,2.1,5.7,2.2
			c2,0.1,3.9-0.7,5.6-1.6c5.5-2.8,10.4-6.6,14.4-11.2c2.7-3,5.5-6.7,9.5-6.8c1.7-0.1,3.3,0.5,4.9,1.1c24.8,9.3,49.7,18.6,74.5,27.9
			c2.7,1,15.9,4.1,16.6,6.9c0.8,3.4-7.6,8.7-9.7,10.5c-9.5,8-19.6,15.2-30.2,21.6c-11.4,6.9-23.4,12.8-35.7,17.8
			c-9.6,3.9-19.6,7.3-29.9,8.2c-10.6,0.9-21.2-0.9-31.6-3.2c-30.2-6.6-59.6-17.1-90.2-21.7c6.5-2.5,10.6-3.8,17.1-6.3
			c5.5-2.1,11-4.3,16.7-5.4c9.3-1.9,18.8-1.1,28.2-0.8c39,1.4,77.9-4.2,116.5-9.8c8.6-1.2,17.3-2.5,25.4-5.7"/>
		<path fill="none" stroke="#EB2D3B" stroke-width="20" stroke-linecap="round" stroke-linejoin="round" d="M32.8,141.7
			c25.7-10.9,46.6-31.4,72.6-41.3c1.8-0.7,3.6-1.3,5.5-1.2c2.1,0.2,4,1.2,5.8,2.3c6.4,3.7,12.8,7.4,19.2,11.1c1.8,1,3.6,2.1,5.7,2.2
			c2,0.1,3.9-0.7,5.6-1.6c5.5-2.8,10.4-6.6,14.4-11.2c2.7-3,5.5-6.7,9.5-6.8c1.7-0.1,3.3,0.5,4.9,1.1c24.8,9.3,49.7,18.6,74.5,27.9
			c2.7,1,15.9,4.1,16.6,6.9c0.8,3.4-7.6,8.7-9.7,10.5c-9.5,8-19.6,15.2-30.2,21.6c-11.4,6.9-23.4,12.8-35.7,17.8
			c-9.6,3.9-19.6,7.3-29.9,8.2c-10.6,0.9-21.2-0.9-31.6-3.2c-30.2-6.6-59.6-17.1-90.2-21.7c6.5-2.5,10.6-3.8,17.1-6.3
			c5.5-2.1,11-4.3,16.7-5.4c9.3-1.9,18.8-1.1,28.2-0.8c39,1.4,77.9-4.2,116.5-9.8c8.6-1.2,17.3-2.5,25.4-5.7"/>
		<path fill="none" stroke="#EB2D3B" stroke-width="20" stroke-linecap="round" stroke-linejoin="round" d="M32.8,141.7
			c25.7-10.9,46.6-31.4,72.6-41.3c1.8-0.7,3.6-1.3,5.5-1.2c2.1,0.2,4,1.2,5.8,2.3c6.4,3.7,12.8,7.4,19.2,11.1c1.8,1,3.6,2.1,5.7,2.2
			c2,0.1,3.9-0.7,5.6-1.6c5.5-2.8,10.4-6.6,14.4-11.2c2.7-3,5.5-6.7,9.5-6.8c1.7-0.1,3.3,0.5,4.9,1.1c24.8,9.3,49.7,18.6,74.5,27.9
			c2.7,1,15.9,4.1,16.6,6.9c0.8,3.4-7.6,8.7-9.7,10.5c-9.5,8-19.6,15.2-30.2,21.6c-11.4,6.9-23.4,12.8-35.7,17.8
			c-9.6,3.9-19.6,7.3-29.9,8.2c-10.6,0.9-21.2-0.9-31.6-3.2c-30.2-6.6-59.6-17.1-90.2-21.7c6.5-2.5,10.6-3.8,17.1-6.3
			c5.5-2.1,11-4.3,16.7-5.4c9.3-1.9,18.8-1.1,28.2-0.8c39,1.4,77.9-4.2,116.5-9.8c8.6-1.2,17.3-2.5,25.4-5.7"/>
		<path fill="none" stroke="#EB2D3B" stroke-width="20" stroke-linecap="round" stroke-linejoin="round" d="M32.8,141.7
			c25.7-10.9,46.6-31.4,72.6-41.3c1.8-0.7,3.6-1.3,5.5-1.2c2.1,0.2,4,1.2,5.8,2.3c6.4,3.7,12.8,7.4,19.2,11.1c1.8,1,3.6,2.1,5.7,2.2
			c2,0.1,3.9-0.7,5.6-1.6c5.5-2.8,10.4-6.6,14.4-11.2c2.7-3,5.5-6.7,9.5-6.8c1.7-0.1,3.3,0.5,4.9,1.1c24.8,9.3,49.7,18.6,74.5,27.9
			c2.7,1,15.9,4.1,16.6,6.9c0.8,3.4-7.6,8.7-9.7,10.5c-9.5,8-19.6,15.2-30.2,21.6c-11.4,6.9-23.4,12.8-35.7,17.8
			c-9.6,3.9-19.6,7.3-29.9,8.2c-10.6,0.9-21.2-0.9-31.6-3.2c-30.2-6.6-59.6-17.1-90.2-21.7c6.5-2.5,10.6-3.8,17.1-6.3
			c5.5-2.1,11-4.3,16.7-5.4c9.3-1.9,18.8-1.1,28.2-0.8c39,1.4,77.9-4.2,116.5-9.8c8.6-1.2,17.3-2.5,25.4-5.7"/>
	</g>
	<g opacity="0.25">
		<path fill="none" stroke="#EB2D3B" stroke-width="8.5" stroke-linecap="round" stroke-linejoin="round" d="M32.8,141.7
			c25.7-10.9,46.6-31.4,72.6-41.3c1.8-0.7,3.6-1.3,5.5-1.2c2.1,0.2,4,1.2,5.8,2.3c6.4,3.7,12.8,7.4,19.2,11.1c1.8,1,3.6,2.1,5.7,2.2
			c2,0.1,3.9-0.7,5.6-1.6c5.5-2.8,10.4-6.6,14.4-11.2c2.7-3,5.5-6.7,9.5-6.8c1.7-0.1,3.3,0.5,4.9,1.1c24.8,9.3,49.7,18.6,74.5,27.9
			c2.7,1,15.9,4.1,16.6,6.9c0.8,3.4-7.6,8.7-9.7,10.5c-9.5,8-19.6,15.2-30.2,21.6c-11.4,6.9-23.4,12.8-35.7,17.8
			c-9.6,3.9-19.6,7.3-29.9,8.2c-10.6,0.9-21.2-0.9-31.6-3.2c-30.2-6.6-59.6-17.1-90.2-21.7c6.5-2.5,10.6-3.8,17.1-6.3
			c5.5-2.1,11-4.3,16.7-5.4c9.3-1.9,18.8-1.1,28.2-0.8c39,1.4,77.9-4.2,116.5-9.8c8.6-1.2,17.3-2.5,25.4-5.7"/>
		<path fill="none" stroke="#EB2D3B" stroke-width="8.5" stroke-linecap="round" stroke-linejoin="round" d="M32.8,141.7
			c25.7-10.9,46.6-31.4,72.6-41.3c1.8-0.7,3.6-1.3,5.5-1.2c2.1,0.2,4,1.2,5.8,2.3c6.4,3.7,12.8,7.4,19.2,11.1c1.8,1,3.6,2.1,5.7,2.2
			c2,0.1,3.9-0.7,5.6-1.6c5.5-2.8,10.4-6.6,14.4-11.2c2.7-3,5.5-6.7,9.5-6.8c1.7-0.1,3.3,0.5,4.9,1.1c24.8,9.3,49.7,18.6,74.5,27.9
			c2.7,1,15.9,4.1,16.6,6.9c0.8,3.4-7.6,8.7-9.7,10.5c-9.5,8-19.6,15.2-30.2,21.6c-11.4,6.9-23.4,12.8-35.7,17.8
			c-9.6,3.9-19.6,7.3-29.9,8.2c-10.6,0.9-21.2-0.9-31.6-3.2c-30.2-6.6-59.6-17.1-90.2-21.7c6.5-2.5,10.6-3.8,17.1-6.3
			c5.5-2.1,11-4.3,16.7-5.4c9.3-1.9,18.8-1.1,28.2-0.8c39,1.4,77.9-4.2,116.5-9.8c8.6-1.2,17.3-2.5,25.4-5.7"/>
		<path fill="none" stroke="#EB2D3B" stroke-width="8.5" stroke-linecap="round" stroke-linejoin="round" d="M32.8,141.7
			c25.7-10.9,46.6-31.4,72.6-41.3c1.8-0.7,3.6-1.3,5.5-1.2c2.1,0.2,4,1.2,5.8,2.3c6.4,3.7,12.8,7.4,19.2,11.1c1.8,1,3.6,2.1,5.7,2.2
			c2,0.1,3.9-0.7,5.6-1.6c5.5-2.8,10.4-6.6,14.4-11.2c2.7-3,5.5-6.7,9.5-6.8c1.7-0.1,3.3,0.5,4.9,1.1c24.8,9.3,49.7,18.6,74.5,27.9
			c2.7,1,15.9,4.1,16.6,6.9c0.8,3.4-7.6,8.7-9.7,10.5c-9.5,8-19.6,15.2-30.2,21.6c-11.4,6.9-23.4,12.8-35.7,17.8
			c-9.6,3.9-19.6,7.3-29.9,8.2c-10.6,0.9-21.2-0.9-31.6-3.2c-30.2-6.6-59.6-17.1-90.2-21.7c6.5-2.5,10.6-3.8,17.1-6.3
			c5.5-2.1,11-4.3,16.7-5.4c9.3-1.9,18.8-1.1,28.2-0.8c39,1.4,77.9-4.2,116.5-9.8c8.6-1.2,17.3-2.5,25.4-5.7"/>
		<path fill="none" stroke="#EB2D3B" stroke-width="8.5" stroke-linecap="round" stroke-linejoin="round" d="M32.8,141.7
			c25.7-10.9,46.6-31.4,72.6-41.3c1.8-0.7,3.6-1.3,5.5-1.2c2.1,0.2,4,1.2,5.8,2.3c6.4,3.7,12.8,7.4,19.2,11.1c1.8,1,3.6,2.1,5.7,2.2
			c2,0.1,3.9-0.7,5.6-1.6c5.5-2.8,10.4-6.6,14.4-11.2c2.7-3,5.5-6.7,9.5-6.8c1.7-0.1,3.3,0.5,4.9,1.1c24.8,9.3,49.7,18.6,74.5,27.9
			c2.7,1,15.9,4.1,16.6,6.9c0.8,3.4-7.6,8.7-9.7,10.5c-9.5,8-19.6,15.2-30.2,21.6c-11.4,6.9-23.4,12.8-35.7,17.8
			c-9.6,3.9-19.6,7.3-29.9,8.2c-10.6,0.9-21.2-0.9-31.6-3.2c-30.2-6.6-59.6-17.1-90.2-21.7c6.5-2.5,10.6-3.8,17.1-6.3
			c5.5-2.1,11-4.3,16.7-5.4c9.3-1.9,18.8-1.1,28.2-0.8c39,1.4,77.9-4.2,116.5-9.8c8.6-1.2,17.3-2.5,25.4-5.7"/>
		<path fill="none" stroke="#EB2D3B" stroke-width="8.5" stroke-linecap="round" stroke-linejoin="round" d="M32.8,141.7
			c25.7-10.9,46.6-31.4,72.6-41.3c1.8-0.7,3.6-1.3,5.5-1.2c2.1,0.2,4,1.2,5.8,2.3c6.4,3.7,12.8,7.4,19.2,11.1c1.8,1,3.6,2.1,5.7,2.2
			c2,0.1,3.9-0.7,5.6-1.6c5.5-2.8,10.4-6.6,14.4-11.2c2.7-3,5.5-6.7,9.5-6.8c1.7-0.1,3.3,0.5,4.9,1.1c24.8,9.3,49.7,18.6,74.5,27.9
			c2.7,1,15.9,4.1,16.6,6.9c0.8,3.4-7.6,8.7-9.7,10.5c-9.5,8-19.6,15.2-30.2,21.6c-11.4,6.9-23.4,12.8-35.7,17.8
			c-9.6,3.9-19.6,7.3-29.9,8.2c-10.6,0.9-21.2-0.9-31.6-3.2c-30.2-6.6-59.6-17.1-90.2-21.7c6.5-2.5,10.6-3.8,17.1-6.3
			c5.5-2.1,11-4.3,16.7-5.4c9.3-1.9,18.8-1.1,28.2-0.8c39,1.4,77.9-4.2,116.5-9.8c8.6-1.2,17.3-2.5,25.4-5.7"/>
		<path fill="none" stroke="#EB2D3B" stroke-width="8.5" stroke-linecap="round" stroke-linejoin="round" d="M32.8,141.7
			c25.7-10.9,46.6-31.4,72.6-41.3c1.8-0.7,3.6-1.3,5.5-1.2c2.1,0.2,4,1.2,5.8,2.3c6.4,3.7,12.8,7.4,19.2,11.1c1.8,1,3.6,2.1,5.7,2.2
			c2,0.1,3.9-0.7,5.6-1.6c5.5-2.8,10.4-6.6,14.4-11.2c2.7-3,5.5-6.7,9.5-6.8c1.7-0.1,3.3,0.5,4.9,1.1c24.8,9.3,49.7,18.6,74.5,27.9
			c2.7,1,15.9,4.1,16.6,6.9c0.8,3.4-7.6,8.7-9.7,10.5c-9.5,8-19.6,15.2-30.2,21.6c-11.4,6.9-23.4,12.8-35.7,17.8
			c-9.6,3.9-19.6,7.3-29.9,8.2c-10.6,0.9-21.2-0.9-31.6-3.2c-30.2-6.6-59.6-17.1-90.2-21.7c6.5-2.5,10.6-3.8,17.1-6.3
			c5.5-2.1,11-4.3,16.7-5.4c9.3-1.9,18.8-1.1,28.2-0.8c39,1.4,77.9-4.2,116.5-9.8c8.6-1.2,17.3-2.5,25.4-5.7"/>
		<path fill="none" stroke="#EB2D3B" stroke-width="8.5" stroke-linecap="round" stroke-linejoin="round" d="M32.8,141.7
			c25.7-10.9,46.6-31.4,72.6-41.3c1.8-0.7,3.6-1.3,5.5-1.2c2.1,0.2,4,1.2,5.8,2.3c6.4,3.7,12.8,7.4,19.2,11.1c1.8,1,3.6,2.1,5.7,2.2
			c2,0.1,3.9-0.7,5.6-1.6c5.5-2.8,10.4-6.6,14.4-11.2c2.7-3,5.5-6.7,9.5-6.8c1.7-0.1,3.3,0.5,4.9,1.1c24.8,9.3,49.7,18.6,74.5,27.9
			c2.7,1,15.9,4.1,16.6,6.9c0.8,3.4-7.6,8.7-9.7,10.5c-9.5,8-19.6,15.2-30.2,21.6c-11.4,6.9-23.4,12.8-35.7,17.8
			c-9.6,3.9-19.6,7.3-29.9,8.2c-10.6,0.9-21.2-0.9-31.6-3.2c-30.2-6.6-59.6-17.1-90.2-21.7c6.5-2.5,10.6-3.8,17.1-6.3
			c5.5-2.1,11-4.3,16.7-5.4c9.3-1.9,18.8-1.1,28.2-0.8c39,1.4,77.9-4.2,116.5-9.8c8.6-1.2,17.3-2.5,25.4-5.7"/>
		<path fill="none" stroke="#EB2D3B" stroke-width="8.5" stroke-linecap="round" stroke-linejoin="round" d="M32.8,141.7
			c25.7-10.9,46.6-31.4,72.6-41.3c1.8-0.7,3.6-1.3,5.5-1.2c2.1,0.2,4,1.2,5.8,2.3c6.4,3.7,12.8,7.4,19.2,11.1c1.8,1,3.6,2.1,5.7,2.2
			c2,0.1,3.9-0.7,5.6-1.6c5.5-2.8,10.4-6.6,14.4-11.2c2.7-3,5.5-6.7,9.5-6.8c1.7-0.1,3.3,0.5,4.9,1.1c24.8,9.3,49.7,18.6,74.5,27.9
			c2.7,1,15.9,4.1,16.6,6.9c0.8,3.4-7.6,8.7-9.7,10.5c-9.5,8-19.6,15.2-30.2,21.6c-11.4,6.9-23.4,12.8-35.7,17.8
			c-9.6,3.9-19.6,7.3-29.9,8.2c-10.6,0.9-21.2-0.9-31.6-3.2c-30.2-6.6-59.6-17.1-90.2-21.7c6.5-2.5,10.6-3.8,17.1-6.3
			c5.5-2.1,11-4.3,16.7-5.4c9.3-1.9,18.8-1.1,28.2-0.8c39,1.4,77.9-4.2,116.5-9.8c8.6-1.2,17.3-2.5,25.4-5.7"/>
	</g>
	<g opacity="0.3">
		<path fill="none" stroke="#EB2D3B" stroke-width="5" stroke-linecap="round" stroke-linejoin="round" d="M32.8,141.7
			c25.7-10.9,46.6-31.4,72.6-41.3c1.8-0.7,3.6-1.3,5.5-1.2c2.1,0.2,4,1.2,5.8,2.3c6.4,3.7,12.8,7.4,19.2,11.1c1.8,1,3.6,2.1,5.7,2.2
			c2,0.1,3.9-0.7,5.6-1.6c5.5-2.8,10.4-6.6,14.4-11.2c2.7-3,5.5-6.7,9.5-6.8c1.7-0.1,3.3,0.5,4.9,1.1c24.8,9.3,49.7,18.6,74.5,27.9
			c2.7,1,15.9,4.1,16.6,6.9c0.8,3.4-7.6,8.7-9.7,10.5c-9.5,8-19.6,15.2-30.2,21.6c-11.4,6.9-23.4,12.8-35.7,17.8
			c-9.6,3.9-19.6,7.3-29.9,8.2c-10.6,0.9-21.2-0.9-31.6-3.2c-30.2-6.6-59.6-17.1-90.2-21.7c6.5-2.5,10.6-3.8,17.1-6.3
			c5.5-2.1,11-4.3,16.7-5.4c9.3-1.9,18.8-1.1,28.2-0.8c39,1.4,77.9-4.2,116.5-9.8c8.6-1.2,17.3-2.5,25.4-5.7"/>
		<path fill="none" stroke="#EB2D3B" stroke-width="5" stroke-linecap="round" stroke-linejoin="round" d="M32.8,141.7
			c25.7-10.9,46.6-31.4,72.6-41.3c1.8-0.7,3.6-1.3,5.5-1.2c2.1,0.2,4,1.2,5.8,2.3c6.4,3.7,12.8,7.4,19.2,11.1c1.8,1,3.6,2.1,5.7,2.2
			c2,0.1,3.9-0.7,5.6-1.6c5.5-2.8,10.4-6.6,14.4-11.2c2.7-3,5.5-6.7,9.5-6.8c1.7-0.1,3.3,0.5,4.9,1.1c24.8,9.3,49.7,18.6,74.5,27.9
			c2.7,1,15.9,4.1,16.6,6.9c0.8,3.4-7.6,8.7-9.7,10.5c-9.5,8-19.6,15.2-30.2,21.6c-11.4,6.9-23.4,12.8-35.7,17.8
			c-9.6,3.9-19.6,7.3-29.9,8.2c-10.6,0.9-21.2-0.9-31.6-3.2c-30.2-6.6-59.6-17.1-90.2-21.7c6.5-2.5,10.6-3.8,17.1-6.3
			c5.5-2.1,11-4.3,16.7-5.4c9.3-1.9,18.8-1.1,28.2-0.8c39,1.4,77.9-4.2,116.5-9.8c8.6-1.2,17.3-2.5,25.4-5.7"/>
		<path fill="none" stroke="#EB2D3B" stroke-width="5" stroke-linecap="round" stroke-linejoin="round" d="M32.8,141.7
			c25.7-10.9,46.6-31.4,72.6-41.3c1.8-0.7,3.6-1.3,5.5-1.2c2.1,0.2,4,1.2,5.8,2.3c6.4,3.7,12.8,7.4,19.2,11.1c1.8,1,3.6,2.1,5.7,2.2
			c2,0.1,3.9-0.7,5.6-1.6c5.5-2.8,10.4-6.6,14.4-11.2c2.7-3,5.5-6.7,9.5-6.8c1.7-0.1,3.3,0.5,4.9,1.1c24.8,9.3,49.7,18.6,74.5,27.9
			c2.7,1,15.9,4.1,16.6,6.9c0.8,3.4-7.6,8.7-9.7,10.5c-9.5,8-19.6,15.2-30.2,21.6c-11.4,6.9-23.4,12.8-35.7,17.8
			c-9.6,3.9-19.6,7.3-29.9,8.2c-10.6,0.9-21.2-0.9-31.6-3.2c-30.2-6.6-59.6-17.1-90.2-21.7c6.5-2.5,10.6-3.8,17.1-6.3
			c5.5-2.1,11-4.3,16.7-5.4c9.3-1.9,18.8-1.1,28.2-0.8c39,1.4,77.9-4.2,116.5-9.8c8.6-1.2,17.3-2.5,25.4-5.7"/>
		<path fill="none" stroke="#EB2D3B" stroke-width="5" stroke-linecap="round" stroke-linejoin="round" d="M32.8,141.7
			c25.7-10.9,46.6-31.4,72.6-41.3c1.8-0.7,3.6-1.3,5.5-1.2c2.1,0.2,4,1.2,5.8,2.3c6.4,3.7,12.8,7.4,19.2,11.1c1.8,1,3.6,2.1,5.7,2.2
			c2,0.1,3.9-0.7,5.6-1.6c5.5-2.8,10.4-6.6,14.4-11.2c2.7-3,5.5-6.7,9.5-6.8c1.7-0.1,3.3,0.5,4.9,1.1c24.8,9.3,49.7,18.6,74.5,27.9
			c2.7,1,15.9,4.1,16.6,6.9c0.8,3.4-7.6,8.7-9.7,10.5c-9.5,8-19.6,15.2-30.2,21.6c-11.4,6.9-23.4,12.8-35.7,17.8
			c-9.6,3.9-19.6,7.3-29.9,8.2c-10.6,0.9-21.2-0.9-31.6-3.2c-30.2-6.6-59.6-17.1-90.2-21.7c6.5-2.5,10.6-3.8,17.1-6.3
			c5.5-2.1,11-4.3,16.7-5.4c9.3-1.9,18.8-1.1,28.2-0.8c39,1.4,77.9-4.2,116.5-9.8c8.6-1.2,17.3-2.5,25.4-5.7"/>
		<path fill="none" stroke="#EB2D3B" stroke-width="5" stroke-linecap="round" stroke-linejoin="round" d="M32.8,141.7
			c25.7-10.9,46.6-31.4,72.6-41.3c1.8-0.7,3.6-1.3,5.5-1.2c2.1,0.2,4,1.2,5.8,2.3c6.4,3.7,12.8,7.4,19.2,11.1c1.8,1,3.6,2.1,5.7,2.2
			c2,0.1,3.9-0.7,5.6-1.6c5.5-2.8,10.4-6.6,14.4-11.2c2.7-3,5.5-6.7,9.5-6.8c1.7-0.1,3.3,0.5,4.9,1.1c24.8,9.3,49.7,18.6,74.5,27.9
			c2.7,1,15.9,4.1,16.6,6.9c0.8,3.4-7.6,8.7-9.7,10.5c-9.5,8-19.6,15.2-30.2,21.6c-11.4,6.9-23.4,12.8-35.7,17.8
			c-9.6,3.9-19.6,7.3-29.9,8.2c-10.6,0.9-21.2-0.9-31.6-3.2c-30.2-6.6-59.6-17.1-90.2-21.7c6.5-2.5,10.6-3.8,17.1-6.3
			c5.5-2.1,11-4.3,16.7-5.4c9.3-1.9,18.8-1.1,28.2-0.8c39,1.4,77.9-4.2,116.5-9.8c8.6-1.2,17.3-2.5,25.4-5.7"/>
		<path fill="none" stroke="#EB2D3B" stroke-width="5" stroke-linecap="round" stroke-linejoin="round" d="M32.8,141.7
			c25.7-10.9,46.6-31.4,72.6-41.3c1.8-0.7,3.6-1.3,5.5-1.2c2.1,0.2,4,1.2,5.8,2.3c6.4,3.7,12.8,7.4,19.2,11.1c1.8,1,3.6,2.1,5.7,2.2
			c2,0.1,3.9-0.7,5.6-1.6c5.5-2.8,10.4-6.6,14.4-11.2c2.7-3,5.5-6.7,9.5-6.8c1.7-0.1,3.3,0.5,4.9,1.1c24.8,9.3,49.7,18.6,74.5,27.9
			c2.7,1,15.9,4.1,16.6,6.9c0.8,3.4-7.6,8.7-9.7,10.5c-9.5,8-19.6,15.2-30.2,21.6c-11.4,6.9-23.4,12.8-35.7,17.8
			c-9.6,3.9-19.6,7.3-29.9,8.2c-10.6,0.9-21.2-0.9-31.6-3.2c-30.2-6.6-59.6-17.1-90.2-21.7c6.5-2.5,10.6-3.8,17.1-6.3
			c5.5-2.1,11-4.3,16.7-5.4c9.3-1.9,18.8-1.1,28.2-0.8c39,1.4,77.9-4.2,116.5-9.8c8.6-1.2,17.3-2.5,25.4-5.7"/>
		<path fill="none" stroke="#EB2D3B" stroke-width="5" stroke-linecap="round" stroke-linejoin="round" d="M32.8,141.7
			c25.7-10.9,46.6-31.4,72.6-41.3c1.8-0.7,3.6-1.3,5.5-1.2c2.1,0.2,4,1.2,5.8,2.3c6.4,3.7,12.8,7.4,19.2,11.1c1.8,1,3.6,2.1,5.7,2.2
			c2,0.1,3.9-0.7,5.6-1.6c5.5-2.8,10.4-6.6,14.4-11.2c2.7-3,5.5-6.7,9.5-6.8c1.7-0.1,3.3,0.5,4.9,1.1c24.8,9.3,49.7,18.6,74.5,27.9
			c2.7,1,15.9,4.1,16.6,6.9c0.8,3.4-7.6,8.7-9.7,10.5c-9.5,8-19.6,15.2-30.2,21.6c-11.4,6.9-23.4,12.8-35.7,17.8
			c-9.6,3.9-19.6,7.3-29.9,8.2c-10.6,0.9-21.2-0.9-31.6-3.2c-30.2-6.6-59.6-17.1-90.2-21.7c6.5-2.5,10.6-3.8,17.1-6.3
			c5.5-2.1,11-4.3,16.7-5.4c9.3-1.9,18.8-1.1,28.2-0.8c39,1.4,77.9-4.2,116.5-9.8c8.6-1.2,17.3-2.5,25.4-5.7"/>
		<path fill="none" stroke="#EB2D3B" stroke-width="5" stroke-linecap="round" stroke-linejoin="round" d="M32.8,141.7
			c25.7-10.9,46.6-31.4,72.6-41.3c1.8-0.7,3.6-1.3,5.5-1.2c2.1,0.2,4,1.2,5.8,2.3c6.4,3.7,12.8,7.4,19.2,11.1c1.8,1,3.6,2.1,5.7,2.2
			c2,0.1,3.9-0.7,5.6-1.6c5.5-2.8,10.4-6.6,14.4-11.2c2.7-3,5.5-6.7,9.5-6.8c1.7-0.1,3.3,0.5,4.9,1.1c24.8,9.3,49.7,18.6,74.5,27.9
			c2.7,1,15.9,4.1,16.6,6.9c0.8,3.4-7.6,8.7-9.7,10.5c-9.5,8-19.6,15.2-30.2,21.6c-11.4,6.9-23.4,12.8-35.7,17.8
			c-9.6,3.9-19.6,7.3-29.9,8.2c-10.6,0.9-21.2-0.9-31.6-3.2c-30.2-6.6-59.6-17.1-90.2-21.7c6.5-2.5,10.6-3.8,17.1-6.3
			c5.5-2.1,11-4.3,16.7-5.4c9.3-1.9,18.8-1.1,28.2-0.8c39,1.4,77.9-4.2,116.5-9.8c8.6-1.2,17.3-2.5,25.4-5.7"/>
	</g>
	<g>
		<path fill="none" stroke="#EC4747" stroke-width="7" stroke-linecap="round" stroke-linejoin="round" d="M32.8,141.7
			c25.7-10.9,46.6-31.4,72.6-41.3c1.8-0.7,3.6-1.3,5.5-1.2c2.1,0.2,4,1.2,5.8,2.3c6.4,3.7,12.8,7.4,19.2,11.1c1.8,1,3.6,2.1,5.7,2.2
			c2,0.1,3.9-0.7,5.6-1.6c5.5-2.8,10.4-6.6,14.4-11.2c2.7-3,5.5-6.7,9.5-6.8c1.7-0.1,3.3,0.5,4.9,1.1c24.8,9.3,49.7,18.6,74.5,27.9
			c2.7,1,15.9,4.1,16.6,6.9c0.8,3.4-7.6,8.7-9.7,10.5c-9.5,8-19.6,15.2-30.2,21.6c-11.4,6.9-23.4,12.8-35.7,17.8
			c-9.6,3.9-19.6,7.3-29.9,8.2c-10.6,0.9-21.2-0.9-31.6-3.2c-30.2-6.6-59.6-17.1-90.2-21.7c6.5-2.5,10.6-3.8,17.1-6.3
			c5.5-2.1,11-4.3,16.7-5.4c9.3-1.9,18.8-1.1,28.2-0.8c39,1.4,77.9-4.2,116.5-9.8c8.6-1.2,17.3-2.5,25.4-5.7"/>
		<path fill="none" stroke="#EC4747" stroke-width="7" stroke-linecap="round" stroke-linejoin="round" d="M32.8,141.7
			c25.7-10.9,46.6-31.4,72.6-41.3c1.8-0.7,3.6-1.3,5.5-1.2c2.1,0.2,4,1.2,5.8,2.3c6.4,3.7,12.8,7.4,19.2,11.1c1.8,1,3.6,2.1,5.7,2.2
			c2,0.1,3.9-0.7,5.6-1.6c5.5-2.8,10.4-6.6,14.4-11.2c2.7-3,5.5-6.7,9.5-6.8c1.7-0.1,3.3,0.5,4.9,1.1c24.8,9.3,49.7,18.6,74.5,27.9
			c2.7,1,15.9,4.1,16.6,6.9c0.8,3.4-7.6,8.7-9.7,10.5c-9.5,8-19.6,15.2-30.2,21.6c-11.4,6.9-23.4,12.8-35.7,17.8
			c-9.6,3.9-19.6,7.3-29.9,8.2c-10.6,0.9-21.2-0.9-31.6-3.2c-30.2-6.6-59.6-17.1-90.2-21.7c6.5-2.5,10.6-3.8,17.1-6.3
			c5.5-2.1,11-4.3,16.7-5.4c9.3-1.9,18.8-1.1,28.2-0.8c39,1.4,77.9-4.2,116.5-9.8c8.6-1.2,17.3-2.5,25.4-5.7"/>
		<path fill="none" stroke="#EC4747" stroke-width="7" stroke-linecap="round" stroke-linejoin="round" d="M32.8,141.7
			c25.7-10.9,46.6-31.4,72.6-41.3c1.8-0.7,3.6-1.3,5.5-1.2c2.1,0.2,4,1.2,5.8,2.3c6.4,3.7,12.8,7.4,19.2,11.1c1.8,1,3.6,2.1,5.7,2.2
			c2,0.1,3.9-0.7,5.6-1.6c5.5-2.8,10.4-6.6,14.4-11.2c2.7-3,5.5-6.7,9.5-6.8c1.7-0.1,3.3,0.5,4.9,1.1c24.8,9.3,49.7,18.6,74.5,27.9
			c2.7,1,15.9,4.1,16.6,6.9c0.8,3.4-7.6,8.7-9.7,10.5c-9.5,8-19.6,15.2-30.2,21.6c-11.4,6.9-23.4,12.8-35.7,17.8
			c-9.6,3.9-19.6,7.3-29.9,8.2c-10.6,0.9-21.2-0.9-31.6-3.2c-30.2-6.6-59.6-17.1-90.2-21.7c6.5-2.5,10.6-3.8,17.1-6.3
			c5.5-2.1,11-4.3,16.7-5.4c9.3-1.9,18.8-1.1,28.2-0.8c39,1.4,77.9-4.2,116.5-9.8c8.6-1.2,17.3-2.5,25.4-5.7"/>
		<path fill="none" stroke="#EC4747" stroke-width="7" stroke-linecap="round" stroke-linejoin="round" d="M32.8,141.7
			c25.7-10.9,46.6-31.4,72.6-41.3c1.8-0.7,3.6-1.3,5.5-1.2c2.1,0.2,4,1.2,5.8,2.3c6.4,3.7,12.8,7.4,19.2,11.1c1.8,1,3.6,2.1,5.7,2.2
			c2,0.1,3.9-0.7,5.6-1.6c5.5-2.8,10.4-6.6,14.4-11.2c2.7-3,5.5-6.7,9.5-6.8c1.7-0.1,3.3,0.5,4.9,1.1c24.8,9.3,49.7,18.6,74.5,27.9
			c2.7,1,15.9,4.1,16.6,6.9c0.8,3.4-7.6,8.7-9.7,10.5c-9.5,8-19.6,15.2-30.2,21.6c-11.4,6.9-23.4,12.8-35.7,17.8
			c-9.6,3.9-19.6,7.3-29.9,8.2c-10.6,0.9-21.2-0.9-31.6-3.2c-30.2-6.6-59.6-17.1-90.2-21.7c6.5-2.5,10.6-3.8,17.1-6.3
			c5.5-2.1,11-4.3,16.7-5.4c9.3-1.9,18.8-1.1,28.2-0.8c39,1.4,77.9-4.2,116.5-9.8c8.6-1.2,17.3-2.5,25.4-5.7"/>
		<path fill="none" stroke="#EC4747" stroke-width="7" stroke-linecap="round" stroke-linejoin="round" d="M32.8,141.7
			c25.7-10.9,46.6-31.4,72.6-41.3c1.8-0.7,3.6-1.3,5.5-1.2c2.1,0.2,4,1.2,5.8,2.3c6.4,3.7,12.8,7.4,19.2,11.1c1.8,1,3.6,2.1,5.7,2.2
			c2,0.1,3.9-0.7,5.6-1.6c5.5-2.8,10.4-6.6,14.4-11.2c2.7-3,5.5-6.7,9.5-6.8c1.7-0.1,3.3,0.5,4.9,1.1c24.8,9.3,49.7,18.6,74.5,27.9
			c2.7,1,15.9,4.1,16.6,6.9c0.8,3.4-7.6,8.7-9.7,10.5c-9.5,8-19.6,15.2-30.2,21.6c-11.4,6.9-23.4,12.8-35.7,17.8
			c-9.6,3.9-19.6,7.3-29.9,8.2c-10.6,0.9-21.2-0.9-31.6-3.2c-30.2-6.6-59.6-17.1-90.2-21.7c6.5-2.5,10.6-3.8,17.1-6.3
			c5.5-2.1,11-4.3,16.7-5.4c9.3-1.9,18.8-1.1,28.2-0.8c39,1.4,77.9-4.2,116.5-9.8c8.6-1.2,17.3-2.5,25.4-5.7"/>
		<path fill="none" stroke="#EC4747" stroke-width="7" stroke-linecap="round" stroke-linejoin="round" d="M32.8,141.7
			c25.7-10.9,46.6-31.4,72.6-41.3c1.8-0.7,3.6-1.3,5.5-1.2c2.1,0.2,4,1.2,5.8,2.3c6.4,3.7,12.8,7.4,19.2,11.1c1.8,1,3.6,2.1,5.7,2.2
			c2,0.1,3.9-0.7,5.6-1.6c5.5-2.8,10.4-6.6,14.4-11.2c2.7-3,5.5-6.7,9.5-6.8c1.7-0.1,3.3,0.5,4.9,1.1c24.8,9.3,49.7,18.6,74.5,27.9
			c2.7,1,15.9,4.1,16.6,6.9c0.8,3.4-7.6,8.7-9.7,10.5c-9.5,8-19.6,15.2-30.2,21.6c-11.4,6.9-23.4,12.8-35.7,17.8
			c-9.6,3.9-19.6,7.3-29.9,8.2c-10.6,0.9-21.2-0.9-31.6-3.2c-30.2-6.6-59.6-17.1-90.2-21.7c6.5-2.5,10.6-3.8,17.1-6.3
			c5.5-2.1,11-4.3,16.7-5.4c9.3-1.9,18.8-1.1,28.2-0.8c39,1.4,77.9-4.2,116.5-9.8c8.6-1.2,17.3-2.5,25.4-5.7"/>
		<path fill="none" stroke="#EC4747" stroke-width="7" stroke-linecap="round" stroke-linejoin="round" d="M32.8,141.7
			c25.7-10.9,46.6-31.4,72.6-41.3c1.8-0.7,3.6-1.3,5.5-1.2c2.1,0.2,4,1.2,5.8,2.3c6.4,3.7,12.8,7.4,19.2,11.1c1.8,1,3.6,2.1,5.7,2.2
			c2,0.1,3.9-0.7,5.6-1.6c5.5-2.8,10.4-6.6,14.4-11.2c2.7-3,5.5-6.7,9.5-6.8c1.7-0.1,3.3,0.5,4.9,1.1c24.8,9.3,49.7,18.6,74.5,27.9
			c2.7,1,15.9,4.1,16.6,6.9c0.8,3.4-7.6,8.7-9.7,10.5c-9.5,8-19.6,15.2-30.2,21.6c-11.4,6.9-23.4,12.8-35.7,17.8
			c-9.6,3.9-19.6,7.3-29.9,8.2c-10.6,0.9-21.2-0.9-31.6-3.2c-30.2-6.6-59.6-17.1-90.2-21.7c6.5-2.5,10.6-3.8,17.1-6.3
			c5.5-2.1,11-4.3,16.7-5.4c9.3-1.9,18.8-1.1,28.2-0.8c39,1.4,77.9-4.2,116.5-9.8c8.6-1.2,17.3-2.5,25.4-5.7"/>
		<path fill="none" stroke="#EC4747" stroke-width="7" stroke-linecap="round" stroke-linejoin="round" d="M32.8,141.7
			c25.7-10.9,46.6-31.4,72.6-41.3c1.8-0.7,3.6-1.3,5.5-1.2c2.1,0.2,4,1.2,5.8,2.3c6.4,3.7,12.8,7.4,19.2,11.1c1.8,1,3.6,2.1,5.7,2.2
			c2,0.1,3.9-0.7,5.6-1.6c5.5-2.8,10.4-6.6,14.4-11.2c2.7-3,5.5-6.7,9.5-6.8c1.7-0.1,3.3,0.5,4.9,1.1c24.8,9.3,49.7,18.6,74.5,27.9
			c2.7,1,15.9,4.1,16.6,6.9c0.8,3.4-7.6,8.7-9.7,10.5c-9.5,8-19.6,15.2-30.2,21.6c-11.4,6.9-23.4,12.8-35.7,17.8
			c-9.6,3.9-19.6,7.3-29.9,8.2c-10.6,0.9-21.2-0.9-31.6-3.2c-30.2-6.6-59.6-17.1-90.2-21.7c6.5-2.5,10.6-3.8,17.1-6.3
			c5.5-2.1,11-4.3,16.7-5.4c9.3-1.9,18.8-1.1,28.2-0.8c39,1.4,77.9-4.2,116.5-9.8c8.6-1.2,17.3-2.5,25.4-5.7"/>
	</g>
	<g>
		<path fill="none" stroke="#F07062" stroke-width="5.5" stroke-linecap="round" stroke-linejoin="round" d="M32.8,141.7
			c25.7-10.9,46.6-31.4,72.6-41.3c1.8-0.7,3.6-1.3,5.5-1.2c2.1,0.2,4,1.2,5.8,2.3c6.4,3.7,12.8,7.4,19.2,11.1c1.8,1,3.6,2.1,5.7,2.2
			c2,0.1,3.9-0.7,5.6-1.6c5.5-2.8,10.4-6.6,14.4-11.2c2.7-3,5.5-6.7,9.5-6.8c1.7-0.1,3.3,0.5,4.9,1.1c24.8,9.3,49.7,18.6,74.5,27.9
			c2.7,1,15.9,4.1,16.6,6.9c0.8,3.4-7.6,8.7-9.7,10.5c-9.5,8-19.6,15.2-30.2,21.6c-11.4,6.9-23.4,12.8-35.7,17.8
			c-9.6,3.9-19.6,7.3-29.9,8.2c-10.6,0.9-21.2-0.9-31.6-3.2c-30.2-6.6-59.6-17.1-90.2-21.7c6.5-2.5,10.6-3.8,17.1-6.3
			c5.5-2.1,11-4.3,16.7-5.4c9.3-1.9,18.8-1.1,28.2-0.8c39,1.4,77.9-4.2,116.5-9.8c8.6-1.2,17.3-2.5,25.4-5.7"/>
		<path fill="none" stroke="#F07062" stroke-width="5.5" stroke-linecap="round" stroke-linejoin="round" d="M32.8,141.7
			c25.7-10.9,46.6-31.4,72.6-41.3c1.8-0.7,3.6-1.3,5.5-1.2c2.1,0.2,4,1.2,5.8,2.3c6.4,3.7,12.8,7.4,19.2,11.1c1.8,1,3.6,2.1,5.7,2.2
			c2,0.1,3.9-0.7,5.6-1.6c5.5-2.8,10.4-6.6,14.4-11.2c2.7-3,5.5-6.7,9.5-6.8c1.7-0.1,3.3,0.5,4.9,1.1c24.8,9.3,49.7,18.6,74.5,27.9
			c2.7,1,15.9,4.1,16.6,6.9c0.8,3.4-7.6,8.7-9.7,10.5c-9.5,8-19.6,15.2-30.2,21.6c-11.4,6.9-23.4,12.8-35.7,17.8
			c-9.6,3.9-19.6,7.3-29.9,8.2c-10.6,0.9-21.2-0.9-31.6-3.2c-30.2-6.6-59.6-17.1-90.2-21.7c6.5-2.5,10.6-3.8,17.1-6.3
			c5.5-2.1,11-4.3,16.7-5.4c9.3-1.9,18.8-1.1,28.2-0.8c39,1.4,77.9-4.2,116.5-9.8c8.6-1.2,17.3-2.5,25.4-5.7"/>
		<path fill="none" stroke="#F07062" stroke-width="5.5" stroke-linecap="round" stroke-linejoin="round" d="M32.8,141.7
			c25.7-10.9,46.6-31.4,72.6-41.3c1.8-0.7,3.6-1.3,5.5-1.2c2.1,0.2,4,1.2,5.8,2.3c6.4,3.7,12.8,7.4,19.2,11.1c1.8,1,3.6,2.1,5.7,2.2
			c2,0.1,3.9-0.7,5.6-1.6c5.5-2.8,10.4-6.6,14.4-11.2c2.7-3,5.5-6.7,9.5-6.8c1.7-0.1,3.3,0.5,4.9,1.1c24.8,9.3,49.7,18.6,74.5,27.9
			c2.7,1,15.9,4.1,16.6,6.9c0.8,3.4-7.6,8.7-9.7,10.5c-9.5,8-19.6,15.2-30.2,21.6c-11.4,6.9-23.4,12.8-35.7,17.8
			c-9.6,3.9-19.6,7.3-29.9,8.2c-10.6,0.9-21.2-0.9-31.6-3.2c-30.2-6.6-59.6-17.1-90.2-21.7c6.5-2.5,10.6-3.8,17.1-6.3
			c5.5-2.1,11-4.3,16.7-5.4c9.3-1.9,18.8-1.1,28.2-0.8c39,1.4,77.9-4.2,116.5-9.8c8.6-1.2,17.3-2.5,25.4-5.7"/>
		<path fill="none" stroke="#F07062" stroke-width="5.5" stroke-linecap="round" stroke-linejoin="round" d="M32.8,141.7
			c25.7-10.9,46.6-31.4,72.6-41.3c1.8-0.7,3.6-1.3,5.5-1.2c2.1,0.2,4,1.2,5.8,2.3c6.4,3.7,12.8,7.4,19.2,11.1c1.8,1,3.6,2.1,5.7,2.2
			c2,0.1,3.9-0.7,5.6-1.6c5.5-2.8,10.4-6.6,14.4-11.2c2.7-3,5.5-6.7,9.5-6.8c1.7-0.1,3.3,0.5,4.9,1.1c24.8,9.3,49.7,18.6,74.5,27.9
			c2.7,1,15.9,4.1,16.6,6.9c0.8,3.4-7.6,8.7-9.7,10.5c-9.5,8-19.6,15.2-30.2,21.6c-11.4,6.9-23.4,12.8-35.7,17.8
			c-9.6,3.9-19.6,7.3-29.9,8.2c-10.6,0.9-21.2-0.9-31.6-3.2c-30.2-6.6-59.6-17.1-90.2-21.7c6.5-2.5,10.6-3.8,17.1-6.3
			c5.5-2.1,11-4.3,16.7-5.4c9.3-1.9,18.8-1.1,28.2-0.8c39,1.4,77.9-4.2,116.5-9.8c8.6-1.2,17.3-2.5,25.4-5.7"/>
		<path fill="none" stroke="#F07062" stroke-width="5.5" stroke-linecap="round" stroke-linejoin="round" d="M32.8,141.7
			c25.7-10.9,46.6-31.4,72.6-41.3c1.8-0.7,3.6-1.3,5.5-1.2c2.1,0.2,4,1.2,5.8,2.3c6.4,3.7,12.8,7.4,19.2,11.1c1.8,1,3.6,2.1,5.7,2.2
			c2,0.1,3.9-0.7,5.6-1.6c5.5-2.8,10.4-6.6,14.4-11.2c2.7-3,5.5-6.7,9.5-6.8c1.7-0.1,3.3,0.5,4.9,1.1c24.8,9.3,49.7,18.6,74.5,27.9
			c2.7,1,15.9,4.1,16.6,6.9c0.8,3.4-7.6,8.7-9.7,10.5c-9.5,8-19.6,15.2-30.2,21.6c-11.4,6.9-23.4,12.8-35.7,17.8
			c-9.6,3.9-19.6,7.3-29.9,8.2c-10.6,0.9-21.2-0.9-31.6-3.2c-30.2-6.6-59.6-17.1-90.2-21.7c6.5-2.5,10.6-3.8,17.1-6.3
			c5.5-2.1,11-4.3,16.7-5.4c9.3-1.9,18.8-1.1,28.2-0.8c39,1.4,77.9-4.2,116.5-9.8c8.6-1.2,17.3-2.5,25.4-5.7"/>
		<path fill="none" stroke="#F07062" stroke-width="5.5" stroke-linecap="round" stroke-linejoin="round" d="M32.8,141.7
			c25.7-10.9,46.6-31.4,72.6-41.3c1.8-0.7,3.6-1.3,5.5-1.2c2.1,0.2,4,1.2,5.8,2.3c6.4,3.7,12.8,7.4,19.2,11.1c1.8,1,3.6,2.1,5.7,2.2
			c2,0.1,3.9-0.7,5.6-1.6c5.5-2.8,10.4-6.6,14.4-11.2c2.7-3,5.5-6.7,9.5-6.8c1.7-0.1,3.3,0.5,4.9,1.1c24.8,9.3,49.7,18.6,74.5,27.9
			c2.7,1,15.9,4.1,16.6,6.9c0.8,3.4-7.6,8.7-9.7,10.5c-9.5,8-19.6,15.2-30.2,21.6c-11.4,6.9-23.4,12.8-35.7,17.8
			c-9.6,3.9-19.6,7.3-29.9,8.2c-10.6,0.9-21.2-0.9-31.6-3.2c-30.2-6.6-59.6-17.1-90.2-21.7c6.5-2.5,10.6-3.8,17.1-6.3
			c5.5-2.1,11-4.3,16.7-5.4c9.3-1.9,18.8-1.1,28.2-0.8c39,1.4,77.9-4.2,116.5-9.8c8.6-1.2,17.3-2.5,25.4-5.7"/>
		<path fill="none" stroke="#F07062" stroke-width="5.5" stroke-linecap="round" stroke-linejoin="round" d="M32.8,141.7
			c25.7-10.9,46.6-31.4,72.6-41.3c1.8-0.7,3.6-1.3,5.5-1.2c2.1,0.2,4,1.2,5.8,2.3c6.4,3.7,12.8,7.4,19.2,11.1c1.8,1,3.6,2.1,5.7,2.2
			c2,0.1,3.9-0.7,5.6-1.6c5.5-2.8,10.4-6.6,14.4-11.2c2.7-3,5.5-6.7,9.5-6.8c1.7-0.1,3.3,0.5,4.9,1.1c24.8,9.3,49.7,18.6,74.5,27.9
			c2.7,1,15.9,4.1,16.6,6.9c0.8,3.4-7.6,8.7-9.7,10.5c-9.5,8-19.6,15.2-30.2,21.6c-11.4,6.9-23.4,12.8-35.7,17.8
			c-9.6,3.9-19.6,7.3-29.9,8.2c-10.6,0.9-21.2-0.9-31.6-3.2c-30.2-6.6-59.6-17.1-90.2-21.7c6.5-2.5,10.6-3.8,17.1-6.3
			c5.5-2.1,11-4.3,16.7-5.4c9.3-1.9,18.8-1.1,28.2-0.8c39,1.4,77.9-4.2,116.5-9.8c8.6-1.2,17.3-2.5,25.4-5.7"/>
		<path fill="none" stroke="#F07062" stroke-width="5.5" stroke-linecap="round" stroke-linejoin="round" d="M32.8,141.7
			c25.7-10.9,46.6-31.4,72.6-41.3c1.8-0.7,3.6-1.3,5.5-1.2c2.1,0.2,4,1.2,5.8,2.3c6.4,3.7,12.8,7.4,19.2,11.1c1.8,1,3.6,2.1,5.7,2.2
			c2,0.1,3.9-0.7,5.6-1.6c5.5-2.8,10.4-6.6,14.4-11.2c2.7-3,5.5-6.7,9.5-6.8c1.7-0.1,3.3,0.5,4.9,1.1c24.8,9.3,49.7,18.6,74.5,27.9
			c2.7,1,15.9,4.1,16.6,6.9c0.8,3.4-7.6,8.7-9.7,10.5c-9.5,8-19.6,15.2-30.2,21.6c-11.4,6.9-23.4,12.8-35.7,17.8
			c-9.6,3.9-19.6,7.3-29.9,8.2c-10.6,0.9-21.2-0.9-31.6-3.2c-30.2-6.6-59.6-17.1-90.2-21.7c6.5-2.5,10.6-3.8,17.1-6.3
			c5.5-2.1,11-4.3,16.7-5.4c9.3-1.9,18.8-1.1,28.2-0.8c39,1.4,77.9-4.2,116.5-9.8c8.6-1.2,17.3-2.5,25.4-5.7"/>
	</g>
	<g>
		<path fill="none" stroke="#F38B7A" stroke-width="4" stroke-linecap="round" stroke-linejoin="round" d="M32.8,141.7
			c25.7-10.9,46.6-31.4,72.6-41.3c1.8-0.7,3.6-1.3,5.5-1.2c2.1,0.2,4,1.2,5.8,2.3c6.4,3.7,12.8,7.4,19.2,11.1c1.8,1,3.6,2.1,5.7,2.2
			c2,0.1,3.9-0.7,5.6-1.6c5.5-2.8,10.4-6.6,14.4-11.2c2.7-3,5.5-6.7,9.5-6.8c1.7-0.1,3.3,0.5,4.9,1.1c24.8,9.3,49.7,18.6,74.5,27.9
			c2.7,1,15.9,4.1,16.6,6.9c0.8,3.4-7.6,8.7-9.7,10.5c-9.5,8-19.6,15.2-30.2,21.6c-11.4,6.9-23.4,12.8-35.7,17.8
			c-9.6,3.9-19.6,7.3-29.9,8.2c-10.6,0.9-21.2-0.9-31.6-3.2c-30.2-6.6-59.6-17.1-90.2-21.7c6.5-2.5,10.6-3.8,17.1-6.3
			c5.5-2.1,11-4.3,16.7-5.4c9.3-1.9,18.8-1.1,28.2-0.8c39,1.4,77.9-4.2,116.5-9.8c8.6-1.2,17.3-2.5,25.4-5.7"/>
		<path fill="none" stroke="#F38B7A" stroke-width="4" stroke-linecap="round" stroke-linejoin="round" d="M32.8,141.7
			c25.7-10.9,46.6-31.4,72.6-41.3c1.8-0.7,3.6-1.3,5.5-1.2c2.1,0.2,4,1.2,5.8,2.3c6.4,3.7,12.8,7.4,19.2,11.1c1.8,1,3.6,2.1,5.7,2.2
			c2,0.1,3.9-0.7,5.6-1.6c5.5-2.8,10.4-6.6,14.4-11.2c2.7-3,5.5-6.7,9.5-6.8c1.7-0.1,3.3,0.5,4.9,1.1c24.8,9.3,49.7,18.6,74.5,27.9
			c2.7,1,15.9,4.1,16.6,6.9c0.8,3.4-7.6,8.7-9.7,10.5c-9.5,8-19.6,15.2-30.2,21.6c-11.4,6.9-23.4,12.8-35.7,17.8
			c-9.6,3.9-19.6,7.3-29.9,8.2c-10.6,0.9-21.2-0.9-31.6-3.2c-30.2-6.6-59.6-17.1-90.2-21.7c6.5-2.5,10.6-3.8,17.1-6.3
			c5.5-2.1,11-4.3,16.7-5.4c9.3-1.9,18.8-1.1,28.2-0.8c39,1.4,77.9-4.2,116.5-9.8c8.6-1.2,17.3-2.5,25.4-5.7"/>
		<path fill="none" stroke="#F38B7A" stroke-width="4" stroke-linecap="round" stroke-linejoin="round" d="M32.8,141.7
			c25.7-10.9,46.6-31.4,72.6-41.3c1.8-0.7,3.6-1.3,5.5-1.2c2.1,0.2,4,1.2,5.8,2.3c6.4,3.7,12.8,7.4,19.2,11.1c1.8,1,3.6,2.1,5.7,2.2
			c2,0.1,3.9-0.7,5.6-1.6c5.5-2.8,10.4-6.6,14.4-11.2c2.7-3,5.5-6.7,9.5-6.8c1.7-0.1,3.3,0.5,4.9,1.1c24.8,9.3,49.7,18.6,74.5,27.9
			c2.7,1,15.9,4.1,16.6,6.9c0.8,3.4-7.6,8.7-9.7,10.5c-9.5,8-19.6,15.2-30.2,21.6c-11.4,6.9-23.4,12.8-35.7,17.8
			c-9.6,3.9-19.6,7.3-29.9,8.2c-10.6,0.9-21.2-0.9-31.6-3.2c-30.2-6.6-59.6-17.1-90.2-21.7c6.5-2.5,10.6-3.8,17.1-6.3
			c5.5-2.1,11-4.3,16.7-5.4c9.3-1.9,18.8-1.1,28.2-0.8c39,1.4,77.9-4.2,116.5-9.8c8.6-1.2,17.3-2.5,25.4-5.7"/>
		<path fill="none" stroke="#F38B7A" stroke-width="4" stroke-linecap="round" stroke-linejoin="round" d="M32.8,141.7
			c25.7-10.9,46.6-31.4,72.6-41.3c1.8-0.7,3.6-1.3,5.5-1.2c2.1,0.2,4,1.2,5.8,2.3c6.4,3.7,12.8,7.4,19.2,11.1c1.8,1,3.6,2.1,5.7,2.2
			c2,0.1,3.9-0.7,5.6-1.6c5.5-2.8,10.4-6.6,14.4-11.2c2.7-3,5.5-6.7,9.5-6.8c1.7-0.1,3.3,0.5,4.9,1.1c24.8,9.3,49.7,18.6,74.5,27.9
			c2.7,1,15.9,4.1,16.6,6.9c0.8,3.4-7.6,8.7-9.7,10.5c-9.5,8-19.6,15.2-30.2,21.6c-11.4,6.9-23.4,12.8-35.7,17.8
			c-9.6,3.9-19.6,7.3-29.9,8.2c-10.6,0.9-21.2-0.9-31.6-3.2c-30.2-6.6-59.6-17.1-90.2-21.7c6.5-2.5,10.6-3.8,17.1-6.3
			c5.5-2.1,11-4.3,16.7-5.4c9.3-1.9,18.8-1.1,28.2-0.8c39,1.4,77.9-4.2,116.5-9.8c8.6-1.2,17.3-2.5,25.4-5.7"/>
		<path fill="none" stroke="#F38B7A" stroke-width="4" stroke-linecap="round" stroke-linejoin="round" d="M32.8,141.7
			c25.7-10.9,46.6-31.4,72.6-41.3c1.8-0.7,3.6-1.3,5.5-1.2c2.1,0.2,4,1.2,5.8,2.3c6.4,3.7,12.8,7.4,19.2,11.1c1.8,1,3.6,2.1,5.7,2.2
			c2,0.1,3.9-0.7,5.6-1.6c5.5-2.8,10.4-6.6,14.4-11.2c2.7-3,5.5-6.7,9.5-6.8c1.7-0.1,3.3,0.5,4.9,1.1c24.8,9.3,49.7,18.6,74.5,27.9
			c2.7,1,15.9,4.1,16.6,6.9c0.8,3.4-7.6,8.7-9.7,10.5c-9.5,8-19.6,15.2-30.2,21.6c-11.4,6.9-23.4,12.8-35.7,17.8
			c-9.6,3.9-19.6,7.3-29.9,8.2c-10.6,0.9-21.2-0.9-31.6-3.2c-30.2-6.6-59.6-17.1-90.2-21.7c6.5-2.5,10.6-3.8,17.1-6.3
			c5.5-2.1,11-4.3,16.7-5.4c9.3-1.9,18.8-1.1,28.2-0.8c39,1.4,77.9-4.2,116.5-9.8c8.6-1.2,17.3-2.5,25.4-5.7"/>
		<path fill="none" stroke="#F38B7A" stroke-width="4" stroke-linecap="round" stroke-linejoin="round" d="M32.8,141.7
			c25.7-10.9,46.6-31.4,72.6-41.3c1.8-0.7,3.6-1.3,5.5-1.2c2.1,0.2,4,1.2,5.8,2.3c6.4,3.7,12.8,7.4,19.2,11.1c1.8,1,3.6,2.1,5.7,2.2
			c2,0.1,3.9-0.7,5.6-1.6c5.5-2.8,10.4-6.6,14.4-11.2c2.7-3,5.5-6.7,9.5-6.8c1.7-0.1,3.3,0.5,4.9,1.1c24.8,9.3,49.7,18.6,74.5,27.9
			c2.7,1,15.9,4.1,16.6,6.9c0.8,3.4-7.6,8.7-9.7,10.5c-9.5,8-19.6,15.2-30.2,21.6c-11.4,6.9-23.4,12.8-35.7,17.8
			c-9.6,3.9-19.6,7.3-29.9,8.2c-10.6,0.9-21.2-0.9-31.6-3.2c-30.2-6.6-59.6-17.1-90.2-21.7c6.5-2.5,10.6-3.8,17.1-6.3
			c5.5-2.1,11-4.3,16.7-5.4c9.3-1.9,18.8-1.1,28.2-0.8c39,1.4,77.9-4.2,116.5-9.8c8.6-1.2,17.3-2.5,25.4-5.7"/>
		<path fill="none" stroke="#F38B7A" stroke-width="4" stroke-linecap="round" stroke-linejoin="round" d="M32.8,141.7
			c25.7-10.9,46.6-31.4,72.6-41.3c1.8-0.7,3.6-1.3,5.5-1.2c2.1,0.2,4,1.2,5.8,2.3c6.4,3.7,12.8,7.4,19.2,11.1c1.8,1,3.6,2.1,5.7,2.2
			c2,0.1,3.9-0.7,5.6-1.6c5.5-2.8,10.4-6.6,14.4-11.2c2.7-3,5.5-6.7,9.5-6.8c1.7-0.1,3.3,0.5,4.9,1.1c24.8,9.3,49.7,18.6,74.5,27.9
			c2.7,1,15.9,4.1,16.6,6.9c0.8,3.4-7.6,8.7-9.7,10.5c-9.5,8-19.6,15.2-30.2,21.6c-11.4,6.9-23.4,12.8-35.7,17.8
			c-9.6,3.9-19.6,7.3-29.9,8.2c-10.6,0.9-21.2-0.9-31.6-3.2c-30.2-6.6-59.6-17.1-90.2-21.7c6.5-2.5,10.6-3.8,17.1-6.3
			c5.5-2.1,11-4.3,16.7-5.4c9.3-1.9,18.8-1.1,28.2-0.8c39,1.4,77.9-4.2,116.5-9.8c8.6-1.2,17.3-2.5,25.4-5.7"/>
		<path fill="none" stroke="#F38B7A" stroke-width="4" stroke-linecap="round" stroke-linejoin="round" d="M32.8,141.7
			c25.7-10.9,46.6-31.4,72.6-41.3c1.8-0.7,3.6-1.3,5.5-1.2c2.1,0.2,4,1.2,5.8,2.3c6.4,3.7,12.8,7.4,19.2,11.1c1.8,1,3.6,2.1,5.7,2.2
			c2,0.1,3.9-0.7,5.6-1.6c5.5-2.8,10.4-6.6,14.4-11.2c2.7-3,5.5-6.7,9.5-6.8c1.7-0.1,3.3,0.5,4.9,1.1c24.8,9.3,49.7,18.6,74.5,27.9
			c2.7,1,15.9,4.1,16.6,6.9c0.8,3.4-7.6,8.7-9.7,10.5c-9.5,8-19.6,15.2-30.2,21.6c-11.4,6.9-23.4,12.8-35.7,17.8
			c-9.6,3.9-19.6,7.3-29.9,8.2c-10.6,0.9-21.2-0.9-31.6-3.2c-30.2-6.6-59.6-17.1-90.2-21.7c6.5-2.5,10.6-3.8,17.1-6.3
			c5.5-2.1,11-4.3,16.7-5.4c9.3-1.9,18.8-1.1,28.2-0.8c39,1.4,77.9-4.2,116.5-9.8c8.6-1.2,17.3-2.5,25.4-5.7"/>
	</g>
	<g>
		<path fill="none" stroke="#F6A594" stroke-width="2.5" stroke-linecap="round" stroke-linejoin="round" d="M32.8,141.7
			c25.7-10.9,46.6-31.4,72.6-41.3c1.8-0.7,3.6-1.3,5.5-1.2c2.1,0.2,4,1.2,5.8,2.3c6.4,3.7,12.8,7.4,19.2,11.1c1.8,1,3.6,2.1,5.7,2.2
			c2,0.1,3.9-0.7,5.6-1.6c5.5-2.8,10.4-6.6,14.4-11.2c2.7-3,5.5-6.7,9.5-6.8c1.7-0.1,3.3,0.5,4.9,1.1c24.8,9.3,49.7,18.6,74.5,27.9
			c2.7,1,15.9,4.1,16.6,6.9c0.8,3.4-7.6,8.7-9.7,10.5c-9.5,8-19.6,15.2-30.2,21.6c-11.4,6.9-23.4,12.8-35.7,17.8
			c-9.6,3.9-19.6,7.3-29.9,8.2c-10.6,0.9-21.2-0.9-31.6-3.2c-30.2-6.6-59.6-17.1-90.2-21.7c6.5-2.5,10.6-3.8,17.1-6.3
			c5.5-2.1,11-4.3,16.7-5.4c9.3-1.9,18.8-1.1,28.2-0.8c39,1.4,77.9-4.2,116.5-9.8c8.6-1.2,17.3-2.5,25.4-5.7"/>
		<path fill="none" stroke="#F6A594" stroke-width="2.5" stroke-linecap="round" stroke-linejoin="round" d="M32.8,141.7
			c25.7-10.9,46.6-31.4,72.6-41.3c1.8-0.7,3.6-1.3,5.5-1.2c2.1,0.2,4,1.2,5.8,2.3c6.4,3.7,12.8,7.4,19.2,11.1c1.8,1,3.6,2.1,5.7,2.2
			c2,0.1,3.9-0.7,5.6-1.6c5.5-2.8,10.4-6.6,14.4-11.2c2.7-3,5.5-6.7,9.5-6.8c1.7-0.1,3.3,0.5,4.9,1.1c24.8,9.3,49.7,18.6,74.5,27.9
			c2.7,1,15.9,4.1,16.6,6.9c0.8,3.4-7.6,8.7-9.7,10.5c-9.5,8-19.6,15.2-30.2,21.6c-11.4,6.9-23.4,12.8-35.7,17.8
			c-9.6,3.9-19.6,7.3-29.9,8.2c-10.6,0.9-21.2-0.9-31.6-3.2c-30.2-6.6-59.6-17.1-90.2-21.7c6.5-2.5,10.6-3.8,17.1-6.3
			c5.5-2.1,11-4.3,16.7-5.4c9.3-1.9,18.8-1.1,28.2-0.8c39,1.4,77.9-4.2,116.5-9.8c8.6-1.2,17.3-2.5,25.4-5.7"/>
		<path fill="none" stroke="#F6A594" stroke-width="2.5" stroke-linecap="round" stroke-linejoin="round" d="M32.8,141.7
			c25.7-10.9,46.6-31.4,72.6-41.3c1.8-0.7,3.6-1.3,5.5-1.2c2.1,0.2,4,1.2,5.8,2.3c6.4,3.7,12.8,7.4,19.2,11.1c1.8,1,3.6,2.1,5.7,2.2
			c2,0.1,3.9-0.7,5.6-1.6c5.5-2.8,10.4-6.6,14.4-11.2c2.7-3,5.5-6.7,9.5-6.8c1.7-0.1,3.3,0.5,4.9,1.1c24.8,9.3,49.7,18.6,74.5,27.9
			c2.7,1,15.9,4.1,16.6,6.9c0.8,3.4-7.6,8.7-9.7,10.5c-9.5,8-19.6,15.2-30.2,21.6c-11.4,6.9-23.4,12.8-35.7,17.8
			c-9.6,3.9-19.6,7.3-29.9,8.2c-10.6,0.9-21.2-0.9-31.6-3.2c-30.2-6.6-59.6-17.1-90.2-21.7c6.5-2.5,10.6-3.8,17.1-6.3
			c5.5-2.1,11-4.3,16.7-5.4c9.3-1.9,18.8-1.1,28.2-0.8c39,1.4,77.9-4.2,116.5-9.8c8.6-1.2,17.3-2.5,25.4-5.7"/>
		<path fill="none" stroke="#F6A594" stroke-width="2.5" stroke-linecap="round" stroke-linejoin="round" d="M32.8,141.7
			c25.7-10.9,46.6-31.4,72.6-41.3c1.8-0.7,3.6-1.3,5.5-1.2c2.1,0.2,4,1.2,5.8,2.3c6.4,3.7,12.8,7.4,19.2,11.1c1.8,1,3.6,2.1,5.7,2.2
			c2,0.1,3.9-0.7,5.6-1.6c5.5-2.8,10.4-6.6,14.4-11.2c2.7-3,5.5-6.7,9.5-6.8c1.7-0.1,3.3,0.5,4.9,1.1c24.8,9.3,49.7,18.6,74.5,27.9
			c2.7,1,15.9,4.1,16.6,6.9c0.8,3.4-7.6,8.7-9.7,10.5c-9.5,8-19.6,15.2-30.2,21.6c-11.4,6.9-23.4,12.8-35.7,17.8
			c-9.6,3.9-19.6,7.3-29.9,8.2c-10.6,0.9-21.2-0.9-31.6-3.2c-30.2-6.6-59.6-17.1-90.2-21.7c6.5-2.5,10.6-3.8,17.1-6.3
			c5.5-2.1,11-4.3,16.7-5.4c9.3-1.9,18.8-1.1,28.2-0.8c39,1.4,77.9-4.2,116.5-9.8c8.6-1.2,17.3-2.5,25.4-5.7"/>
		<path fill="none" stroke="#F6A594" stroke-width="2.5" stroke-linecap="round" stroke-linejoin="round" d="M32.8,141.7
			c25.7-10.9,46.6-31.4,72.6-41.3c1.8-0.7,3.6-1.3,5.5-1.2c2.1,0.2,4,1.2,5.8,2.3c6.4,3.7,12.8,7.4,19.2,11.1c1.8,1,3.6,2.1,5.7,2.2
			c2,0.1,3.9-0.7,5.6-1.6c5.5-2.8,10.4-6.6,14.4-11.2c2.7-3,5.5-6.7,9.5-6.8c1.7-0.1,3.3,0.5,4.9,1.1c24.8,9.3,49.7,18.6,74.5,27.9
			c2.7,1,15.9,4.1,16.6,6.9c0.8,3.4-7.6,8.7-9.7,10.5c-9.5,8-19.6,15.2-30.2,21.6c-11.4,6.9-23.4,12.8-35.7,17.8
			c-9.6,3.9-19.6,7.3-29.9,8.2c-10.6,0.9-21.2-0.9-31.6-3.2c-30.2-6.6-59.6-17.1-90.2-21.7c6.5-2.5,10.6-3.8,17.1-6.3
			c5.5-2.1,11-4.3,16.7-5.4c9.3-1.9,18.8-1.1,28.2-0.8c39,1.4,77.9-4.2,116.5-9.8c8.6-1.2,17.3-2.5,25.4-5.7"/>
		<path fill="none" stroke="#F6A594" stroke-width="2.5" stroke-linecap="round" stroke-linejoin="round" d="M32.8,141.7
			c25.7-10.9,46.6-31.4,72.6-41.3c1.8-0.7,3.6-1.3,5.5-1.2c2.1,0.2,4,1.2,5.8,2.3c6.4,3.7,12.8,7.4,19.2,11.1c1.8,1,3.6,2.1,5.7,2.2
			c2,0.1,3.9-0.7,5.6-1.6c5.5-2.8,10.4-6.6,14.4-11.2c2.7-3,5.5-6.7,9.5-6.8c1.7-0.1,3.3,0.5,4.9,1.1c24.8,9.3,49.7,18.6,74.5,27.9
			c2.7,1,15.9,4.1,16.6,6.9c0.8,3.4-7.6,8.7-9.7,10.5c-9.5,8-19.6,15.2-30.2,21.6c-11.4,6.9-23.4,12.8-35.7,17.8
			c-9.6,3.9-19.6,7.3-29.9,8.2c-10.6,0.9-21.2-0.9-31.6-3.2c-30.2-6.6-59.6-17.1-90.2-21.7c6.5-2.5,10.6-3.8,17.1-6.3
			c5.5-2.1,11-4.3,16.7-5.4c9.3-1.9,18.8-1.1,28.2-0.8c39,1.4,77.9-4.2,116.5-9.8c8.6-1.2,17.3-2.5,25.4-5.7"/>
		<path fill="none" stroke="#F6A594" stroke-width="2.5" stroke-linecap="round" stroke-linejoin="round" d="M32.8,141.7
			c25.7-10.9,46.6-31.4,72.6-41.3c1.8-0.7,3.6-1.3,5.5-1.2c2.1,0.2,4,1.2,5.8,2.3c6.4,3.7,12.8,7.4,19.2,11.1c1.8,1,3.6,2.1,5.7,2.2
			c2,0.1,3.9-0.7,5.6-1.6c5.5-2.8,10.4-6.6,14.4-11.2c2.7-3,5.5-6.7,9.5-6.8c1.7-0.1,3.3,0.5,4.9,1.1c24.8,9.3,49.7,18.6,74.5,27.9
			c2.7,1,15.9,4.1,16.6,6.9c0.8,3.4-7.6,8.7-9.7,10.5c-9.5,8-19.6,15.2-30.2,21.6c-11.4,6.9-23.4,12.8-35.7,17.8
			c-9.6,3.9-19.6,7.3-29.9,8.2c-10.6,0.9-21.2-0.9-31.6-3.2c-30.2-6.6-59.6-17.1-90.2-21.7c6.5-2.5,10.6-3.8,17.1-6.3
			c5.5-2.1,11-4.3,16.7-5.4c9.3-1.9,18.8-1.1,28.2-0.8c39,1.4,77.9-4.2,116.5-9.8c8.6-1.2,17.3-2.5,25.4-5.7"/>
		<path fill="none" stroke="#F6A594" stroke-width="2.5" stroke-linecap="round" stroke-linejoin="round" d="M32.8,141.7
			c25.7-10.9,46.6-31.4,72.6-41.3c1.8-0.7,3.6-1.3,5.5-1.2c2.1,0.2,4,1.2,5.8,2.3c6.4,3.7,12.8,7.4,19.2,11.1c1.8,1,3.6,2.1,5.7,2.2
			c2,0.1,3.9-0.7,5.6-1.6c5.5-2.8,10.4-6.6,14.4-11.2c2.7-3,5.5-6.7,9.5-6.8c1.7-0.1,3.3,0.5,4.9,1.1c24.8,9.3,49.7,18.6,74.5,27.9
			c2.7,1,15.9,4.1,16.6,6.9c0.8,3.4-7.6,8.7-9.7,10.5c-9.5,8-19.6,15.2-30.2,21.6c-11.4,6.9-23.4,12.8-35.7,17.8
			c-9.6,3.9-19.6,7.3-29.9,8.2c-10.6,0.9-21.2-0.9-31.6-3.2c-30.2-6.6-59.6-17.1-90.2-21.7c6.5-2.5,10.6-3.8,17.1-6.3
			c5.5-2.1,11-4.3,16.7-5.4c9.3-1.9,18.8-1.1,28.2-0.8c39,1.4,77.9-4.2,116.5-9.8c8.6-1.2,17.3-2.5,25.4-5.7"/>
	</g>
	<g>
		<path fill="none" stroke="#FAC7B9" stroke-linecap="round" stroke-linejoin="round" d="M32.8,141.7c25.7-10.9,46.6-31.4,72.6-41.3
			c1.8-0.7,3.6-1.3,5.5-1.2c2.1,0.2,4,1.2,5.8,2.3c6.4,3.7,12.8,7.4,19.2,11.1c1.8,1,3.6,2.1,5.7,2.2c2,0.1,3.9-0.7,5.6-1.6
			c5.5-2.8,10.4-6.6,14.4-11.2c2.7-3,5.5-6.7,9.5-6.8c1.7-0.1,3.3,0.5,4.9,1.1c24.8,9.3,49.7,18.6,74.5,27.9
			c2.7,1,15.9,4.1,16.6,6.9c0.8,3.4-7.6,8.7-9.7,10.5c-9.5,8-19.6,15.2-30.2,21.6c-11.4,6.9-23.4,12.8-35.7,17.8
			c-9.6,3.9-19.6,7.3-29.9,8.2c-10.6,0.9-21.2-0.9-31.6-3.2c-30.2-6.6-59.6-17.1-90.2-21.7c6.5-2.5,10.6-3.8,17.1-6.3
			c5.5-2.1,11-4.3,16.7-5.4c9.3-1.9,18.8-1.1,28.2-0.8c39,1.4,77.9-4.2,116.5-9.8c8.6-1.2,17.3-2.5,25.4-5.7"/>
		<path fill="none" stroke="#FAC7B9" stroke-linecap="round" stroke-linejoin="round" d="M32.8,141.7c25.7-10.9,46.6-31.4,72.6-41.3
			c1.8-0.7,3.6-1.3,5.5-1.2c2.1,0.2,4,1.2,5.8,2.3c6.4,3.7,12.8,7.4,19.2,11.1c1.8,1,3.6,2.1,5.7,2.2c2,0.1,3.9-0.7,5.6-1.6
			c5.5-2.8,10.4-6.6,14.4-11.2c2.7-3,5.5-6.7,9.5-6.8c1.7-0.1,3.3,0.5,4.9,1.1c24.8,9.3,49.7,18.6,74.5,27.9
			c2.7,1,15.9,4.1,16.6,6.9c0.8,3.4-7.6,8.7-9.7,10.5c-9.5,8-19.6,15.2-30.2,21.6c-11.4,6.9-23.4,12.8-35.7,17.8
			c-9.6,3.9-19.6,7.3-29.9,8.2c-10.6,0.9-21.2-0.9-31.6-3.2c-30.2-6.6-59.6-17.1-90.2-21.7c6.5-2.5,10.6-3.8,17.1-6.3
			c5.5-2.1,11-4.3,16.7-5.4c9.3-1.9,18.8-1.1,28.2-0.8c39,1.4,77.9-4.2,116.5-9.8c8.6-1.2,17.3-2.5,25.4-5.7"/>
		<path fill="none" stroke="#FAC7B9" stroke-linecap="round" stroke-linejoin="round" d="M32.8,141.7c25.7-10.9,46.6-31.4,72.6-41.3
			c1.8-0.7,3.6-1.3,5.5-1.2c2.1,0.2,4,1.2,5.8,2.3c6.4,3.7,12.8,7.4,19.2,11.1c1.8,1,3.6,2.1,5.7,2.2c2,0.1,3.9-0.7,5.6-1.6
			c5.5-2.8,10.4-6.6,14.4-11.2c2.7-3,5.5-6.7,9.5-6.8c1.7-0.1,3.3,0.5,4.9,1.1c24.8,9.3,49.7,18.6,74.5,27.9
			c2.7,1,15.9,4.1,16.6,6.9c0.8,3.4-7.6,8.7-9.7,10.5c-9.5,8-19.6,15.2-30.2,21.6c-11.4,6.9-23.4,12.8-35.7,17.8
			c-9.6,3.9-19.6,7.3-29.9,8.2c-10.6,0.9-21.2-0.9-31.6-3.2c-30.2-6.6-59.6-17.1-90.2-21.7c6.5-2.5,10.6-3.8,17.1-6.3
			c5.5-2.1,11-4.3,16.7-5.4c9.3-1.9,18.8-1.1,28.2-0.8c39,1.4,77.9-4.2,116.5-9.8c8.6-1.2,17.3-2.5,25.4-5.7"/>
		<path fill="none" stroke="#FAC7B9" stroke-linecap="round" stroke-linejoin="round" d="M32.8,141.7c25.7-10.9,46.6-31.4,72.6-41.3
			c1.8-0.7,3.6-1.3,5.5-1.2c2.1,0.2,4,1.2,5.8,2.3c6.4,3.7,12.8,7.4,19.2,11.1c1.8,1,3.6,2.1,5.7,2.2c2,0.1,3.9-0.7,5.6-1.6
			c5.5-2.8,10.4-6.6,14.4-11.2c2.7-3,5.5-6.7,9.5-6.8c1.7-0.1,3.3,0.5,4.9,1.1c24.8,9.3,49.7,18.6,74.5,27.9
			c2.7,1,15.9,4.1,16.6,6.9c0.8,3.4-7.6,8.7-9.7,10.5c-9.5,8-19.6,15.2-30.2,21.6c-11.4,6.9-23.4,12.8-35.7,17.8
			c-9.6,3.9-19.6,7.3-29.9,8.2c-10.6,0.9-21.2-0.9-31.6-3.2c-30.2-6.6-59.6-17.1-90.2-21.7c6.5-2.5,10.6-3.8,17.1-6.3
			c5.5-2.1,11-4.3,16.7-5.4c9.3-1.9,18.8-1.1,28.2-0.8c39,1.4,77.9-4.2,116.5-9.8c8.6-1.2,17.3-2.5,25.4-5.7"/>
		<path fill="none" stroke="#FAC7B9" stroke-linecap="round" stroke-linejoin="round" d="M32.8,141.7c25.7-10.9,46.6-31.4,72.6-41.3
			c1.8-0.7,3.6-1.3,5.5-1.2c2.1,0.2,4,1.2,5.8,2.3c6.4,3.7,12.8,7.4,19.2,11.1c1.8,1,3.6,2.1,5.7,2.2c2,0.1,3.9-0.7,5.6-1.6
			c5.5-2.8,10.4-6.6,14.4-11.2c2.7-3,5.5-6.7,9.5-6.8c1.7-0.1,3.3,0.5,4.9,1.1c24.8,9.3,49.7,18.6,74.5,27.9
			c2.7,1,15.9,4.1,16.6,6.9c0.8,3.4-7.6,8.7-9.7,10.5c-9.5,8-19.6,15.2-30.2,21.6c-11.4,6.9-23.4,12.8-35.7,17.8
			c-9.6,3.9-19.6,7.3-29.9,8.2c-10.6,0.9-21.2-0.9-31.6-3.2c-30.2-6.6-59.6-17.1-90.2-21.7c6.5-2.5,10.6-3.8,17.1-6.3
			c5.5-2.1,11-4.3,16.7-5.4c9.3-1.9,18.8-1.1,28.2-0.8c39,1.4,77.9-4.2,116.5-9.8c8.6-1.2,17.3-2.5,25.4-5.7"/>
		<path fill="none" stroke="#FAC7B9" stroke-linecap="round" stroke-linejoin="round" d="M32.8,141.7c25.7-10.9,46.6-31.4,72.6-41.3
			c1.8-0.7,3.6-1.3,5.5-1.2c2.1,0.2,4,1.2,5.8,2.3c6.4,3.7,12.8,7.4,19.2,11.1c1.8,1,3.6,2.1,5.7,2.2c2,0.1,3.9-0.7,5.6-1.6
			c5.5-2.8,10.4-6.6,14.4-11.2c2.7-3,5.5-6.7,9.5-6.8c1.7-0.1,3.3,0.5,4.9,1.1c24.8,9.3,49.7,18.6,74.5,27.9
			c2.7,1,15.9,4.1,16.6,6.9c0.8,3.4-7.6,8.7-9.7,10.5c-9.5,8-19.6,15.2-30.2,21.6c-11.4,6.9-23.4,12.8-35.7,17.8
			c-9.6,3.9-19.6,7.3-29.9,8.2c-10.6,0.9-21.2-0.9-31.6-3.2c-30.2-6.6-59.6-17.1-90.2-21.7c6.5-2.5,10.6-3.8,17.1-6.3
			c5.5-2.1,11-4.3,16.7-5.4c9.3-1.9,18.8-1.1,28.2-0.8c39,1.4,77.9-4.2,116.5-9.8c8.6-1.2,17.3-2.5,25.4-5.7"/>
		<path fill="none" stroke="#FAC7B9" stroke-linecap="round" stroke-linejoin="round" d="M32.8,141.7c25.7-10.9,46.6-31.4,72.6-41.3
			c1.8-0.7,3.6-1.3,5.5-1.2c2.1,0.2,4,1.2,5.8,2.3c6.4,3.7,12.8,7.4,19.2,11.1c1.8,1,3.6,2.1,5.7,2.2c2,0.1,3.9-0.7,5.6-1.6
			c5.5-2.8,10.4-6.6,14.4-11.2c2.7-3,5.5-6.7,9.5-6.8c1.7-0.1,3.3,0.5,4.9,1.1c24.8,9.3,49.7,18.6,74.5,27.9
			c2.7,1,15.9,4.1,16.6,6.9c0.8,3.4-7.6,8.7-9.7,10.5c-9.5,8-19.6,15.2-30.2,21.6c-11.4,6.9-23.4,12.8-35.7,17.8
			c-9.6,3.9-19.6,7.3-29.9,8.2c-10.6,0.9-21.2-0.9-31.6-3.2c-30.2-6.6-59.6-17.1-90.2-21.7c6.5-2.5,10.6-3.8,17.1-6.3
			c5.5-2.1,11-4.3,16.7-5.4c9.3-1.9,18.8-1.1,28.2-0.8c39,1.4,77.9-4.2,116.5-9.8c8.6-1.2,17.3-2.5,25.4-5.7"/>
		<path fill="none" stroke="#FAC7B9" stroke-linecap="round" stroke-linejoin="round" d="M32.8,141.7c25.7-10.9,46.6-31.4,72.6-41.3
			c1.8-0.7,3.6-1.3,5.5-1.2c2.1,0.2,4,1.2,5.8,2.3c6.4,3.7,12.8,7.4,19.2,11.1c1.8,1,3.6,2.1,5.7,2.2c2,0.1,3.9-0.7,5.6-1.6
			c5.5-2.8,10.4-6.6,14.4-11.2c2.7-3,5.5-6.7,9.5-6.8c1.7-0.1,3.3,0.5,4.9,1.1c24.8,9.3,49.7,18.6,74.5,27.9
			c2.7,1,15.9,4.1,16.6,6.9c0.8,3.4-7.6,8.7-9.7,10.5c-9.5,8-19.6,15.2-30.2,21.6c-11.4,6.9-23.4,12.8-35.7,17.8
			c-9.6,3.9-19.6,7.3-29.9,8.2c-10.6,0.9-21.2-0.9-31.6-3.2c-30.2-6.6-59.6-17.1-90.2-21.7c6.5-2.5,10.6-3.8,17.1-6.3
			c5.5-2.1,11-4.3,16.7-5.4c9.3-1.9,18.8-1.1,28.2-0.8c39,1.4,77.9-4.2,116.5-9.8c8.6-1.2,17.3-2.5,25.4-5.7"/>
	</g>
</g>
</svg>
