<?xml version="1.0" encoding="utf-8"?>
<!-- Generator: Adobe Illustrator 19.1.0, SVG Export Plug-In . SVG Version: 6.00 Build 0)  -->
<svg version="1.1" id="Layer_1" xmlns="http://www.w3.org/2000/svg" xmlns:xlink="http://www.w3.org/1999/xlink" x="0px" y="0px"
	 viewBox="0 0 300 300" style="enable-background:new 0 0 300 300;" xml:space="preserve">
<line opacity="1.0" fill="none" stroke="#fff" stroke-width="3" stroke-linecap="round" class="st0" x1="53.9" y1="61.3" x2="145.8" y2="139.8"/>
<line opacity="1.0" fill="none" stroke="#fff" stroke-width="3" stroke-linecap="round" class="st0" x1="145.8" y1="139.8" x2="238.1" y2="61.3"/>
<line opacity="1.0" fill="none" stroke="#fff" stroke-width="3" stroke-linecap="round" class="st0" x1="53.9" y1="61.3" x2="238.1" y2="61.3"/>
<line opacity="1.0" fill="none" stroke="#fff" stroke-width="3" stroke-linecap="round" class="st0" x1="145.8" y1="139.8" x2="145.8" y2="256.6"/>
<line opacity="1.0" fill="none" stroke="#fff" stroke-width="3" stroke-linecap="round" class="st0" x1="145.8" y1="256.6" x2="67.3" y2="269.5"/>
<line opacity="1.0" fill="none" stroke="#fff" stroke-width="3" stroke-linecap="round" class="st0" x1="67.3" y1="269.5" x2="222.3" y2="269.5"/>
<line opacity="1.0" fill="none" stroke="#fff" stroke-width="3" stroke-linecap="round" class="st0" x1="222.3" y1="269.5" x2="145.8" y2="256.6"/>
<line opacity="1.0" fill="none" stroke="#fff" stroke-width="3" stroke-linecap="round" class="st0" x1="150" y1="109.7" x2="222.3" y2="20.7"/>
<line opacity="1.0" fill="none" stroke="#fff" stroke-width="3" stroke-linecap="round" class="st0" x1="152.9" y1="112.5" x2="225.2" y2="24.5"/>
<line opacity="1.0" fill="none" stroke="#fff" stroke-width="3" stroke-linecap="round" class="st0" x1="222.3" y1="20.7" x2="225.2" y2="24.5"/>
<path opacity="1.0" fill="none" stroke="#fff" stroke-width="3" stroke-linecap="round" class="st0" d="M150.9,109.5c-3.7-2-8.7-0.9-11.7,2.1s-4.2,7.5-3.9,11.8c0.1,0.9,0.2,1.8,0.6,2.5c0.8,1.4,2.4,2.1,3.9,2.4
	c5.3,1.2,11.5-1.1,13.9-5.9c2.5-4.8,0.1-11.8-5-13.4"/>
</svg>
