<?xml version="1.0" encoding="utf-8"?>
<!-- Generator: Adobe Illustrator 19.2.0, SVG Export Plug-In . SVG Version: 6.00 Build 0)  -->
<svg version="1.1" id="Layer_1" xmlns="http://www.w3.org/2000/svg" xmlns:xlink="http://www.w3.org/1999/xlink" x="0px" y="0px"
	 viewBox="0 0 1200 2400" style="enable-background:new 0 0 1200 2400;" xml:space="preserve">
<style type="text/css">
	.st0{fill:none;stroke:#000000;stroke-miterlimit:10;}
</style>
<path class="st0" d="M1202.7,2400H-1.7V112.3C7.1,98.9,22.1,91,36.4,83.7c23.4-11.9,46.7-23.8,70.1-35.8c7.9-4.1,16.1-8.2,24.9-9.3
	c6.3-0.8,12.7-0.1,19.1,0.3c9.9,0.6,19.8,0.4,29.7,0.1c6-0.1,11.9-0.3,17.9-0.4c12.4-0.3,24.8-0.6,37.2-0.9
	c50.4-1.2,100.9-2.4,151.3-3.6c38.4-0.9,76.8-1.8,115.1-1.6c40.1,0.2,80.3,1.6,120.4,3c7.6,0.3,15.2,0.5,22.8,0.8
	c25.8,0.9,51.7,1.8,77.5,2.7c19.2,0.7,38.5,1.3,57.7,2c28,1,56.1,2,84.1,2.9c44.1,1.5,88.3,3.1,132.4,4.6c27.7,1,55.6,2,82.6,8.5
	c11.4,2.7,22.8,6.6,32.3,13.5c7.1,5.1,13.5,12.1,22.1,13.7c7.3,1.4,14.7-1.5,22.1-2.7c17.5-2.8,36.3,4.9,46.8,19.2V2400z"/>
</svg>
