<?xml version="1.0" encoding="utf-8"?>
<!-- Generator: Adobe Illustrator 19.2.0, SVG Export Plug-In . SVG Version: 6.00 Build 0)  -->
<svg version="1.1" id="Layer_1" xmlns="http://www.w3.org/2000/svg" xmlns:xlink="http://www.w3.org/1999/xlink" x="0px" y="0px"
	 viewBox="0 0 300 300" enable-background="new 0 0 300 300" xml:space="preserve">
<g>
	<path opacity="0.2" fill="none" stroke="#B2D339" stroke-width="10" stroke-linecap="round" stroke-linejoin="round" d="
		M55.6,133.7c-7.3,3.1-14.2,7.2-20.4,12.2c-2,1.6-4.1,3.7-3.9,6.3c0.2,3,3.6,4.8,6.5,5.6c7.4,1.9,15.3,0.9,22.5-1.6
		c7.2-2.5,13.8-6.6,20-10.9c3.7-2.6,7.5-5.6,9.5-9.7c0.7-1.5,1.1-3.4,0.2-4.7c-0.5-0.6-1.2-1.1-1.9-1.4c-6.6-3.3-14.5-1.3-21.5,0.7
		c-3.4,1-6.8,1.9-10.2,2.9"/>
	<path opacity="0.25" fill="none" stroke="#B2D339" stroke-width="8.5" stroke-linecap="round" stroke-linejoin="round" d="
		M55.6,133.7c-7.3,3.1-14.2,7.2-20.4,12.2c-2,1.6-4.1,3.7-3.9,6.3c0.2,3,3.6,4.8,6.5,5.6c7.4,1.9,15.3,0.9,22.5-1.6
		c7.2-2.5,13.8-6.6,20-10.9c3.7-2.6,7.5-5.6,9.5-9.7c0.7-1.5,1.1-3.4,0.2-4.7c-0.5-0.6-1.2-1.1-1.9-1.4c-6.6-3.3-14.5-1.3-21.5,0.7
		c-3.4,1-6.8,1.9-10.2,2.9"/>
	<path opacity="0.3" fill="none" stroke="#B2D339" stroke-width="5" stroke-linecap="round" stroke-linejoin="round" d="M55.6,133.7
		c-7.3,3.1-14.2,7.2-20.4,12.2c-2,1.6-4.1,3.7-3.9,6.3c0.2,3,3.6,4.8,6.5,5.6c7.4,1.9,15.3,0.9,22.5-1.6c7.2-2.5,13.8-6.6,20-10.9
		c3.7-2.6,7.5-5.6,9.5-9.7c0.7-1.5,1.1-3.4,0.2-4.7c-0.5-0.6-1.2-1.1-1.9-1.4c-6.6-3.3-14.5-1.3-21.5,0.7c-3.4,1-6.8,1.9-10.2,2.9"
		/>
	<path fill="none" stroke="#B2D339" stroke-width="7" stroke-linecap="round" stroke-linejoin="round" d="M55.6,133.7
		c-7.3,3.1-14.2,7.2-20.4,12.2c-2,1.6-4.1,3.7-3.9,6.3c0.2,3,3.6,4.8,6.5,5.6c7.4,1.9,15.3,0.9,22.5-1.6c7.2-2.5,13.8-6.6,20-10.9
		c3.7-2.6,7.5-5.6,9.5-9.7c0.7-1.5,1.1-3.4,0.2-4.7c-0.5-0.6-1.2-1.1-1.9-1.4c-6.6-3.3-14.5-1.3-21.5,0.7c-3.4,1-6.8,1.9-10.2,2.9"
		/>
	<path fill="none" stroke="#C3DB69" stroke-width="5.5" stroke-linecap="round" stroke-linejoin="round" d="M55.6,133.7
		c-7.3,3.1-14.2,7.2-20.4,12.2c-2,1.6-4.1,3.7-3.9,6.3c0.2,3,3.6,4.8,6.5,5.6c7.4,1.9,15.3,0.9,22.5-1.6c7.2-2.5,13.8-6.6,20-10.9
		c3.7-2.6,7.5-5.6,9.5-9.7c0.7-1.5,1.1-3.4,0.2-4.7c-0.5-0.6-1.2-1.1-1.9-1.4c-6.6-3.3-14.5-1.3-21.5,0.7c-3.4,1-6.8,1.9-10.2,2.9"
		/>
	<path fill="none" stroke="#D2E392" stroke-width="4" stroke-linecap="round" stroke-linejoin="round" d="M55.6,133.7
		c-7.3,3.1-14.2,7.2-20.4,12.2c-2,1.6-4.1,3.7-3.9,6.3c0.2,3,3.6,4.8,6.5,5.6c7.4,1.9,15.3,0.9,22.5-1.6c7.2-2.5,13.8-6.6,20-10.9
		c3.7-2.6,7.5-5.6,9.5-9.7c0.7-1.5,1.1-3.4,0.2-4.7c-0.5-0.6-1.2-1.1-1.9-1.4c-6.6-3.3-14.5-1.3-21.5,0.7c-3.4,1-6.8,1.9-10.2,2.9"
		/>
	<path fill="none" stroke="#DEEBB1" stroke-width="2.5" stroke-linecap="round" stroke-linejoin="round" d="M55.6,133.7
		c-7.3,3.1-14.2,7.2-20.4,12.2c-2,1.6-4.1,3.7-3.9,6.3c0.2,3,3.6,4.8,6.5,5.6c7.4,1.9,15.3,0.9,22.5-1.6c7.2-2.5,13.8-6.6,20-10.9
		c3.7-2.6,7.5-5.6,9.5-9.7c0.7-1.5,1.1-3.4,0.2-4.7c-0.5-0.6-1.2-1.1-1.9-1.4c-6.6-3.3-14.5-1.3-21.5,0.7c-3.4,1-6.8,1.9-10.2,2.9"
		/>
	<path fill="none" stroke="#EAF2CE" stroke-linecap="round" stroke-linejoin="round" d="M55.6,133.7c-7.3,3.1-14.2,7.2-20.4,12.2
		c-2,1.6-4.1,3.7-3.9,6.3c0.2,3,3.6,4.8,6.5,5.6c7.4,1.9,15.3,0.9,22.5-1.6c7.2-2.5,13.8-6.6,20-10.9c3.7-2.6,7.5-5.6,9.5-9.7
		c0.7-1.5,1.1-3.4,0.2-4.7c-0.5-0.6-1.2-1.1-1.9-1.4c-6.6-3.3-14.5-1.3-21.5,0.7c-3.4,1-6.8,1.9-10.2,2.9"/>
</g>
<g>
	<path opacity="0.2" fill="none" stroke="#B2D339" stroke-width="10" stroke-linecap="round" stroke-linejoin="round" d="
		M62.3,160.7c26.3,34.9,48,73.3,64.2,113.9c-0.7-0.9-1.3-1.7-2-2.6"/>
	<path opacity="0.25" fill="none" stroke="#B2D339" stroke-width="8.5" stroke-linecap="round" stroke-linejoin="round" d="
		M62.3,160.7c26.3,34.9,48,73.3,64.2,113.9c-0.7-0.9-1.3-1.7-2-2.6"/>
	<path opacity="0.3" fill="none" stroke="#B2D339" stroke-width="5" stroke-linecap="round" stroke-linejoin="round" d="M62.3,160.7
		c26.3,34.9,48,73.3,64.2,113.9c-0.7-0.9-1.3-1.7-2-2.6"/>
	<path fill="none" stroke="#B2D339" stroke-width="7" stroke-linecap="round" stroke-linejoin="round" d="M62.3,160.7
		c26.3,34.9,48,73.3,64.2,113.9c-0.7-0.9-1.3-1.7-2-2.6"/>
	<path fill="none" stroke="#C3DB69" stroke-width="5.5" stroke-linecap="round" stroke-linejoin="round" d="M62.3,160.7
		c26.3,34.9,48,73.3,64.2,113.9c-0.7-0.9-1.3-1.7-2-2.6"/>
	<path fill="none" stroke="#D2E392" stroke-width="4" stroke-linecap="round" stroke-linejoin="round" d="M62.3,160.7
		c26.3,34.9,48,73.3,64.2,113.9c-0.7-0.9-1.3-1.7-2-2.6"/>
	<path fill="none" stroke="#DEEBB1" stroke-width="2.5" stroke-linecap="round" stroke-linejoin="round" d="M62.3,160.7
		c26.3,34.9,48,73.3,64.2,113.9c-0.7-0.9-1.3-1.7-2-2.6"/>
	<path fill="none" stroke="#EAF2CE" stroke-linecap="round" stroke-linejoin="round" d="M62.3,160.7c26.3,34.9,48,73.3,64.2,113.9
		c-0.7-0.9-1.3-1.7-2-2.6"/>
</g>
<g>
	<path opacity="0.2" fill="none" stroke="#B2D339" stroke-width="10" stroke-linecap="round" stroke-linejoin="round" d="
		M74.7,154.6c4,20,16,37.3,26.5,54.7c9.2,15.2,17.6,30.9,25,47.1"/>
	<path opacity="0.25" fill="none" stroke="#B2D339" stroke-width="8.5" stroke-linecap="round" stroke-linejoin="round" d="
		M74.7,154.6c4,20,16,37.3,26.5,54.7c9.2,15.2,17.6,30.9,25,47.1"/>
	<path opacity="0.3" fill="none" stroke="#B2D339" stroke-width="5" stroke-linecap="round" stroke-linejoin="round" d="M74.7,154.6
		c4,20,16,37.3,26.5,54.7c9.2,15.2,17.6,30.9,25,47.1"/>
	<path fill="none" stroke="#B2D339" stroke-width="7" stroke-linecap="round" stroke-linejoin="round" d="M74.7,154.6
		c4,20,16,37.3,26.5,54.7c9.2,15.2,17.6,30.9,25,47.1"/>
	<path fill="none" stroke="#C3DB69" stroke-width="5.5" stroke-linecap="round" stroke-linejoin="round" d="M74.7,154.6
		c4,20,16,37.3,26.5,54.7c9.2,15.2,17.6,30.9,25,47.1"/>
	<path fill="none" stroke="#D2E392" stroke-width="4" stroke-linecap="round" stroke-linejoin="round" d="M74.7,154.6
		c4,20,16,37.3,26.5,54.7c9.2,15.2,17.6,30.9,25,47.1"/>
	<path fill="none" stroke="#DEEBB1" stroke-width="2.5" stroke-linecap="round" stroke-linejoin="round" d="M74.7,154.6
		c4,20,16,37.3,26.5,54.7c9.2,15.2,17.6,30.9,25,47.1"/>
	<path fill="none" stroke="#EAF2CE" stroke-linecap="round" stroke-linejoin="round" d="M74.7,154.6c4,20,16,37.3,26.5,54.7
		c9.2,15.2,17.6,30.9,25,47.1"/>
</g>
<g>
	<path opacity="0.2" fill="none" stroke="#B2D339" stroke-width="10" stroke-linecap="round" stroke-linejoin="round" d="
		M123.4,49.6c-7.4,2.3-14.7,5.3-21.6,8.9c-6.2,3.2-12.7,7.8-14,14.7c-0.5,2.6,0.1,5.6,2.2,7.3c1.3,1,3,1.4,4.7,1.5
		c6.5,0.6,12.8-1.4,19-3.4c9.7-3.2,19.4-6.8,27.6-12.8c2.5-1.8,5.1-4.8,4-7.7c-0.5-1.3-1.7-2.2-2.9-3c-5-3.2-11-5-16.9-5"/>
	<path opacity="0.25" fill="none" stroke="#B2D339" stroke-width="8.5" stroke-linecap="round" stroke-linejoin="round" d="
		M123.4,49.6c-7.4,2.3-14.7,5.3-21.6,8.9c-6.2,3.2-12.7,7.8-14,14.7c-0.5,2.6,0.1,5.6,2.2,7.3c1.3,1,3,1.4,4.7,1.5
		c6.5,0.6,12.8-1.4,19-3.4c9.7-3.2,19.4-6.8,27.6-12.8c2.5-1.8,5.1-4.8,4-7.7c-0.5-1.3-1.7-2.2-2.9-3c-5-3.2-11-5-16.9-5"/>
	<path opacity="0.3" fill="none" stroke="#B2D339" stroke-width="5" stroke-linecap="round" stroke-linejoin="round" d="M123.4,49.6
		c-7.4,2.3-14.7,5.3-21.6,8.9c-6.2,3.2-12.7,7.8-14,14.7c-0.5,2.6,0.1,5.6,2.2,7.3c1.3,1,3,1.4,4.7,1.5c6.5,0.6,12.8-1.4,19-3.4
		c9.7-3.2,19.4-6.8,27.6-12.8c2.5-1.8,5.1-4.8,4-7.7c-0.5-1.3-1.7-2.2-2.9-3c-5-3.2-11-5-16.9-5"/>
	<path fill="none" stroke="#B2D339" stroke-width="7" stroke-linecap="round" stroke-linejoin="round" d="M123.4,49.6
		c-7.4,2.3-14.7,5.3-21.6,8.9c-6.2,3.2-12.7,7.8-14,14.7c-0.5,2.6,0.1,5.6,2.2,7.3c1.3,1,3,1.4,4.7,1.5c6.5,0.6,12.8-1.4,19-3.4
		c9.7-3.2,19.4-6.8,27.6-12.8c2.5-1.8,5.1-4.8,4-7.7c-0.5-1.3-1.7-2.2-2.9-3c-5-3.2-11-5-16.9-5"/>
	<path fill="none" stroke="#C3DB69" stroke-width="5.5" stroke-linecap="round" stroke-linejoin="round" d="M123.4,49.6
		c-7.4,2.3-14.7,5.3-21.6,8.9c-6.2,3.2-12.7,7.8-14,14.7c-0.5,2.6,0.1,5.6,2.2,7.3c1.3,1,3,1.4,4.7,1.5c6.5,0.6,12.8-1.4,19-3.4
		c9.7-3.2,19.4-6.8,27.6-12.8c2.5-1.8,5.1-4.8,4-7.7c-0.5-1.3-1.7-2.2-2.9-3c-5-3.2-11-5-16.9-5"/>
	<path fill="none" stroke="#D2E392" stroke-width="4" stroke-linecap="round" stroke-linejoin="round" d="M123.4,49.6
		c-7.4,2.3-14.7,5.3-21.6,8.9c-6.2,3.2-12.7,7.8-14,14.7c-0.5,2.6,0.1,5.6,2.2,7.3c1.3,1,3,1.4,4.7,1.5c6.5,0.6,12.8-1.4,19-3.4
		c9.7-3.2,19.4-6.8,27.6-12.8c2.5-1.8,5.1-4.8,4-7.7c-0.5-1.3-1.7-2.2-2.9-3c-5-3.2-11-5-16.9-5"/>
	<path fill="none" stroke="#DEEBB1" stroke-width="2.5" stroke-linecap="round" stroke-linejoin="round" d="M123.4,49.6
		c-7.4,2.3-14.7,5.3-21.6,8.9c-6.2,3.2-12.7,7.8-14,14.7c-0.5,2.6,0.1,5.6,2.2,7.3c1.3,1,3,1.4,4.7,1.5c6.5,0.6,12.8-1.4,19-3.4
		c9.7-3.2,19.4-6.8,27.6-12.8c2.5-1.8,5.1-4.8,4-7.7c-0.5-1.3-1.7-2.2-2.9-3c-5-3.2-11-5-16.9-5"/>
	<path fill="none" stroke="#EAF2CE" stroke-linecap="round" stroke-linejoin="round" d="M123.4,49.6c-7.4,2.3-14.7,5.3-21.6,8.9
		c-6.2,3.2-12.7,7.8-14,14.7c-0.5,2.6,0.1,5.6,2.2,7.3c1.3,1,3,1.4,4.7,1.5c6.5,0.6,12.8-1.4,19-3.4c9.7-3.2,19.4-6.8,27.6-12.8
		c2.5-1.8,5.1-4.8,4-7.7c-0.5-1.3-1.7-2.2-2.9-3c-5-3.2-11-5-16.9-5"/>
</g>
<g>
	<path opacity="0.2" fill="none" stroke="#B2D339" stroke-width="10" stroke-linecap="round" stroke-linejoin="round" d="M117.5,81
		c19.4,19.8,32.9,44.6,44,69.9s20.2,51.6,32.2,76.6c-0.6-0.6-1.2-1.2-1.8-1.9"/>
	<path opacity="0.25" fill="none" stroke="#B2D339" stroke-width="8.5" stroke-linecap="round" stroke-linejoin="round" d="
		M117.5,81c19.4,19.8,32.9,44.6,44,69.9s20.2,51.6,32.2,76.6c-0.6-0.6-1.2-1.2-1.8-1.9"/>
	<path opacity="0.3" fill="none" stroke="#B2D339" stroke-width="5" stroke-linecap="round" stroke-linejoin="round" d="M117.5,81
		c19.4,19.8,32.9,44.6,44,69.9s20.2,51.6,32.2,76.6c-0.6-0.6-1.2-1.2-1.8-1.9"/>
	<path fill="none" stroke="#B2D339" stroke-width="7" stroke-linecap="round" stroke-linejoin="round" d="M117.5,81
		c19.4,19.8,32.9,44.6,44,69.9s20.2,51.6,32.2,76.6c-0.6-0.6-1.2-1.2-1.8-1.9"/>
	<path fill="none" stroke="#C3DB69" stroke-width="5.5" stroke-linecap="round" stroke-linejoin="round" d="M117.5,81
		c19.4,19.8,32.9,44.6,44,69.9s20.2,51.6,32.2,76.6c-0.6-0.6-1.2-1.2-1.8-1.9"/>
	<path fill="none" stroke="#D2E392" stroke-width="4" stroke-linecap="round" stroke-linejoin="round" d="M117.5,81
		c19.4,19.8,32.9,44.6,44,69.9s20.2,51.6,32.2,76.6c-0.6-0.6-1.2-1.2-1.8-1.9"/>
	<path fill="none" stroke="#DEEBB1" stroke-width="2.5" stroke-linecap="round" stroke-linejoin="round" d="M117.5,81
		c19.4,19.8,32.9,44.6,44,69.9s20.2,51.6,32.2,76.6c-0.6-0.6-1.2-1.2-1.8-1.9"/>
	<path fill="none" stroke="#EAF2CE" stroke-linecap="round" stroke-linejoin="round" d="M117.5,81c19.4,19.8,32.9,44.6,44,69.9
		s20.2,51.6,32.2,76.6c-0.6-0.6-1.2-1.2-1.8-1.9"/>
</g>
<g>
	<path opacity="0.2" fill="none" stroke="#B2D339" stroke-width="10" stroke-linecap="round" stroke-linejoin="round" d="
		M133.8,75.6c13.2,22.1,25.1,45.2,35.3,68.8"/>
	<path opacity="0.25" fill="none" stroke="#B2D339" stroke-width="8.5" stroke-linecap="round" stroke-linejoin="round" d="
		M133.8,75.6c13.2,22.1,25.1,45.2,35.3,68.8"/>
	<path opacity="0.3" fill="none" stroke="#B2D339" stroke-width="5" stroke-linecap="round" stroke-linejoin="round" d="M133.8,75.6
		c13.2,22.1,25.1,45.2,35.3,68.8"/>
	<path fill="none" stroke="#B2D339" stroke-width="7" stroke-linecap="round" stroke-linejoin="round" d="M133.8,75.6
		c13.2,22.1,25.1,45.2,35.3,68.8"/>
	<path fill="none" stroke="#C3DB69" stroke-width="5.5" stroke-linecap="round" stroke-linejoin="round" d="M133.8,75.6
		c13.2,22.1,25.1,45.2,35.3,68.8"/>
	<path fill="none" stroke="#D2E392" stroke-width="4" stroke-linecap="round" stroke-linejoin="round" d="M133.8,75.6
		c13.2,22.1,25.1,45.2,35.3,68.8"/>
	<path fill="none" stroke="#DEEBB1" stroke-width="2.5" stroke-linecap="round" stroke-linejoin="round" d="M133.8,75.6
		c13.2,22.1,25.1,45.2,35.3,68.8"/>
	<path fill="none" stroke="#EAF2CE" stroke-linecap="round" stroke-linejoin="round" d="M133.8,75.6c13.2,22.1,25.1,45.2,35.3,68.8"
		/>
</g>
<g>
	<path opacity="0.2" fill="none" stroke="#B2D339" stroke-width="10" stroke-linecap="round" stroke-linejoin="round" d="
		M211.9,60.2c-8.6,2.3-16.9,5.9-24.4,10.7c-1.6,1-3.3,2.3-3.7,4.1c-0.5,3,2.6,5.3,5.5,6.3c8.1,2.8,17.1,1.9,25.5,0.2
		c9.4-1.9,19-5,26.1-11.5c1.5-1.3,2.9-2.9,3.5-4.7c0.7-1.9,0.6-4.1-0.8-5.6c-1-1.1-2.4-1.6-3.8-2c-9.6-2.8-20.1-2.1-29.3,1.9"/>
	<path opacity="0.25" fill="none" stroke="#B2D339" stroke-width="8.5" stroke-linecap="round" stroke-linejoin="round" d="
		M211.9,60.2c-8.6,2.3-16.9,5.9-24.4,10.7c-1.6,1-3.3,2.3-3.7,4.1c-0.5,3,2.6,5.3,5.5,6.3c8.1,2.8,17.1,1.9,25.5,0.2
		c9.4-1.9,19-5,26.1-11.5c1.5-1.3,2.9-2.9,3.5-4.7c0.7-1.9,0.6-4.1-0.8-5.6c-1-1.1-2.4-1.6-3.8-2c-9.6-2.8-20.1-2.1-29.3,1.9"/>
	<path opacity="0.3" fill="none" stroke="#B2D339" stroke-width="5" stroke-linecap="round" stroke-linejoin="round" d="M211.9,60.2
		c-8.6,2.3-16.9,5.9-24.4,10.7c-1.6,1-3.3,2.3-3.7,4.1c-0.5,3,2.6,5.3,5.5,6.3c8.1,2.8,17.1,1.9,25.5,0.2c9.4-1.9,19-5,26.1-11.5
		c1.5-1.3,2.9-2.9,3.5-4.7c0.7-1.9,0.6-4.1-0.8-5.6c-1-1.1-2.4-1.6-3.8-2c-9.6-2.8-20.1-2.1-29.3,1.9"/>
	<path fill="none" stroke="#B2D339" stroke-width="7" stroke-linecap="round" stroke-linejoin="round" d="M211.9,60.2
		c-8.6,2.3-16.9,5.9-24.4,10.7c-1.6,1-3.3,2.3-3.7,4.1c-0.5,3,2.6,5.3,5.5,6.3c8.1,2.8,17.1,1.9,25.5,0.2c9.4-1.9,19-5,26.1-11.5
		c1.5-1.3,2.9-2.9,3.5-4.7c0.7-1.9,0.6-4.1-0.8-5.6c-1-1.1-2.4-1.6-3.8-2c-9.6-2.8-20.1-2.1-29.3,1.9"/>
	<path fill="none" stroke="#C3DB69" stroke-width="5.5" stroke-linecap="round" stroke-linejoin="round" d="M211.9,60.2
		c-8.6,2.3-16.9,5.9-24.4,10.7c-1.6,1-3.3,2.3-3.7,4.1c-0.5,3,2.6,5.3,5.5,6.3c8.1,2.8,17.1,1.9,25.5,0.2c9.4-1.9,19-5,26.1-11.5
		c1.5-1.3,2.9-2.9,3.5-4.7c0.7-1.9,0.6-4.1-0.8-5.6c-1-1.1-2.4-1.6-3.8-2c-9.6-2.8-20.1-2.1-29.3,1.9"/>
	<path fill="none" stroke="#D2E392" stroke-width="4" stroke-linecap="round" stroke-linejoin="round" d="M211.9,60.2
		c-8.6,2.3-16.9,5.9-24.4,10.7c-1.6,1-3.3,2.3-3.7,4.1c-0.5,3,2.6,5.3,5.5,6.3c8.1,2.8,17.1,1.9,25.5,0.2c9.4-1.9,19-5,26.1-11.5
		c1.5-1.3,2.9-2.9,3.5-4.7c0.7-1.9,0.6-4.1-0.8-5.6c-1-1.1-2.4-1.6-3.8-2c-9.6-2.8-20.1-2.1-29.3,1.9"/>
	<path fill="none" stroke="#DEEBB1" stroke-width="2.5" stroke-linecap="round" stroke-linejoin="round" d="M211.9,60.2
		c-8.6,2.3-16.9,5.9-24.4,10.7c-1.6,1-3.3,2.3-3.7,4.1c-0.5,3,2.6,5.3,5.5,6.3c8.1,2.8,17.1,1.9,25.5,0.2c9.4-1.9,19-5,26.1-11.5
		c1.5-1.3,2.9-2.9,3.5-4.7c0.7-1.9,0.6-4.1-0.8-5.6c-1-1.1-2.4-1.6-3.8-2c-9.6-2.8-20.1-2.1-29.3,1.9"/>
	<path fill="none" stroke="#EAF2CE" stroke-linecap="round" stroke-linejoin="round" d="M211.9,60.2c-8.6,2.3-16.9,5.9-24.4,10.7
		c-1.6,1-3.3,2.3-3.7,4.1c-0.5,3,2.6,5.3,5.5,6.3c8.1,2.8,17.1,1.9,25.5,0.2c9.4-1.9,19-5,26.1-11.5c1.5-1.3,2.9-2.9,3.5-4.7
		c0.7-1.9,0.6-4.1-0.8-5.6c-1-1.1-2.4-1.6-3.8-2c-9.6-2.8-20.1-2.1-29.3,1.9"/>
</g>
<g>
	<path opacity="0.2" fill="none" stroke="#B2D339" stroke-width="10" stroke-linecap="round" stroke-linejoin="round" d="M213,86.5
		c17.9,40.5,31.7,82.9,41,126.3c-0.5-0.9-1-1.8-1.5-2.8"/>
	<path opacity="0.25" fill="none" stroke="#B2D339" stroke-width="8.5" stroke-linecap="round" stroke-linejoin="round" d="
		M213,86.5c17.9,40.5,31.7,82.9,41,126.3c-0.5-0.9-1-1.8-1.5-2.8"/>
	<path opacity="0.3" fill="none" stroke="#B2D339" stroke-width="5" stroke-linecap="round" stroke-linejoin="round" d="M213,86.5
		c17.9,40.5,31.7,82.9,41,126.3c-0.5-0.9-1-1.8-1.5-2.8"/>
	<path fill="none" stroke="#B2D339" stroke-width="7" stroke-linecap="round" stroke-linejoin="round" d="M213,86.5
		c17.9,40.5,31.7,82.9,41,126.3c-0.5-0.9-1-1.8-1.5-2.8"/>
	<path fill="none" stroke="#C3DB69" stroke-width="5.5" stroke-linecap="round" stroke-linejoin="round" d="M213,86.5
		c17.9,40.5,31.7,82.9,41,126.3c-0.5-0.9-1-1.8-1.5-2.8"/>
	<path fill="none" stroke="#D2E392" stroke-width="4" stroke-linecap="round" stroke-linejoin="round" d="M213,86.5
		c17.9,40.5,31.7,82.9,41,126.3c-0.5-0.9-1-1.8-1.5-2.8"/>
	<path fill="none" stroke="#DEEBB1" stroke-width="2.5" stroke-linecap="round" stroke-linejoin="round" d="M213,86.5
		c17.9,40.5,31.7,82.9,41,126.3c-0.5-0.9-1-1.8-1.5-2.8"/>
	<path fill="none" stroke="#EAF2CE" stroke-linecap="round" stroke-linejoin="round" d="M213,86.5c17.9,40.5,31.7,82.9,41,126.3
		c-0.5-0.9-1-1.8-1.5-2.8"/>
</g>
<g>
	<path opacity="0.2" fill="none" stroke="#B2D339" stroke-width="10" stroke-linecap="round" stroke-linejoin="round" d="
		M228.3,83.9c1.3,17.5,5.9,34.7,13.5,50.5c-0.1-0.4-0.2-0.9-0.3-1.3"/>
	<path opacity="0.25" fill="none" stroke="#B2D339" stroke-width="8.5" stroke-linecap="round" stroke-linejoin="round" d="
		M228.3,83.9c1.3,17.5,5.9,34.7,13.5,50.5c-0.1-0.4-0.2-0.9-0.3-1.3"/>
	<path opacity="0.3" fill="none" stroke="#B2D339" stroke-width="5" stroke-linecap="round" stroke-linejoin="round" d="M228.3,83.9
		c1.3,17.5,5.9,34.7,13.5,50.5c-0.1-0.4-0.2-0.9-0.3-1.3"/>
	<path fill="none" stroke="#B2D339" stroke-width="7" stroke-linecap="round" stroke-linejoin="round" d="M228.3,83.9
		c1.3,17.5,5.9,34.7,13.5,50.5c-0.1-0.4-0.2-0.9-0.3-1.3"/>
	<path fill="none" stroke="#C3DB69" stroke-width="5.5" stroke-linecap="round" stroke-linejoin="round" d="M228.3,83.9
		c1.3,17.5,5.9,34.7,13.5,50.5c-0.1-0.4-0.2-0.9-0.3-1.3"/>
	<path fill="none" stroke="#D2E392" stroke-width="4" stroke-linecap="round" stroke-linejoin="round" d="M228.3,83.9
		c1.3,17.5,5.9,34.7,13.5,50.5c-0.1-0.4-0.2-0.9-0.3-1.3"/>
	<path fill="none" stroke="#DEEBB1" stroke-width="2.5" stroke-linecap="round" stroke-linejoin="round" d="M228.3,83.9
		c1.3,17.5,5.9,34.7,13.5,50.5c-0.1-0.4-0.2-0.9-0.3-1.3"/>
	<path fill="none" stroke="#EAF2CE" stroke-linecap="round" stroke-linejoin="round" d="M228.3,83.9c1.3,17.5,5.9,34.7,13.5,50.5
		c-0.1-0.4-0.2-0.9-0.3-1.3"/>
</g>
</svg>
