<?xml version="1.0" encoding="utf-8"?>
<!-- Generator: Adobe Illustrator 19.2.0, SVG Export Plug-In . SVG Version: 6.00 Build 0)  -->
<svg version="1.1" id="Layer_1" xmlns="http://www.w3.org/2000/svg" xmlns:xlink="http://www.w3.org/1999/xlink" x="0px" y="0px"
	 viewBox="0 0 300 300" enable-background="new 0 0 300 300" xml:space="preserve">
<g>
	<g>
		
			<rect x="79.5" y="79.8" opacity="0.2" fill="none" stroke="#F18CB9" stroke-width="7" stroke-linecap="round" stroke-linejoin="round" enable-background="new    " width="142.2" height="142.2"/>
		
			<rect x="79.5" y="79.8" opacity="0.25" fill="none" stroke="#ED7AB0" stroke-width="6" stroke-linecap="round" stroke-linejoin="round" enable-background="new    " width="142.2" height="142.2"/>
		
			<rect x="79.5" y="79.8" opacity="0.3" fill="none" stroke="#EB60A3" stroke-width="5" stroke-linecap="round" stroke-linejoin="round" enable-background="new    " width="142.2" height="142.2"/>
		
			<rect x="79.5" y="79.8" fill="none" stroke="#E93E95" stroke-width="4" stroke-linecap="round" stroke-linejoin="round" width="142.2" height="142.2"/>
		
			<rect x="79.5" y="79.8" fill="none" stroke="#ED669F" stroke-width="3.25" stroke-linecap="round" stroke-linejoin="round" width="142.2" height="142.2"/>
		
			<rect x="79.5" y="79.8" fill="none" stroke="#EF7CA8" stroke-width="2.5" stroke-linecap="round" stroke-linejoin="round" width="142.2" height="142.2"/>
		
			<rect x="79.5" y="79.8" fill="none" stroke="#F292B4" stroke-width="1.65" stroke-linecap="round" stroke-linejoin="round" width="142.2" height="142.2"/>
		
			<rect x="79.5" y="79.8" fill="none" stroke="#F5B3D0" stroke-width="0.65" stroke-linecap="round" stroke-linejoin="round" width="142.2" height="142.2"/>
	</g>
	<g opacity="0.2">
		
			<rect x="79.5" y="79.8" fill="none" stroke="#B2D339" stroke-width="10" stroke-linecap="round" stroke-linejoin="round" width="142.2" height="142.2"/>
		
			<rect x="79.5" y="79.8" fill="none" stroke="#B2D339" stroke-width="10" stroke-linecap="round" stroke-linejoin="round" width="142.2" height="142.2"/>
		
			<rect x="79.5" y="79.8" fill="none" stroke="#B2D339" stroke-width="10" stroke-linecap="round" stroke-linejoin="round" width="142.2" height="142.2"/>
		
			<rect x="79.5" y="79.8" fill="none" stroke="#B2D339" stroke-width="10" stroke-linecap="round" stroke-linejoin="round" width="142.2" height="142.2"/>
		
			<rect x="79.5" y="79.8" fill="none" stroke="#B2D339" stroke-width="10" stroke-linecap="round" stroke-linejoin="round" width="142.2" height="142.2"/>
		
			<rect x="79.5" y="79.8" fill="none" stroke="#B2D339" stroke-width="10" stroke-linecap="round" stroke-linejoin="round" width="142.2" height="142.2"/>
		
			<rect x="79.5" y="79.8" fill="none" stroke="#B2D339" stroke-width="10" stroke-linecap="round" stroke-linejoin="round" width="142.2" height="142.2"/>
		
			<rect x="79.5" y="79.8" fill="none" stroke="#B2D339" stroke-width="10" stroke-linecap="round" stroke-linejoin="round" width="142.2" height="142.2"/>
	</g>
	<g opacity="0.25">
		
			<rect x="79.5" y="79.8" fill="none" stroke="#B2D339" stroke-width="8.5" stroke-linecap="round" stroke-linejoin="round" width="142.2" height="142.2"/>
		
			<rect x="79.5" y="79.8" fill="none" stroke="#B2D339" stroke-width="8.5" stroke-linecap="round" stroke-linejoin="round" width="142.2" height="142.2"/>
		
			<rect x="79.5" y="79.8" fill="none" stroke="#B2D339" stroke-width="8.5" stroke-linecap="round" stroke-linejoin="round" width="142.2" height="142.2"/>
		
			<rect x="79.5" y="79.8" fill="none" stroke="#B2D339" stroke-width="8.5" stroke-linecap="round" stroke-linejoin="round" width="142.2" height="142.2"/>
		
			<rect x="79.5" y="79.8" fill="none" stroke="#B2D339" stroke-width="8.5" stroke-linecap="round" stroke-linejoin="round" width="142.2" height="142.2"/>
		
			<rect x="79.5" y="79.8" fill="none" stroke="#B2D339" stroke-width="8.5" stroke-linecap="round" stroke-linejoin="round" width="142.2" height="142.2"/>
		
			<rect x="79.5" y="79.8" fill="none" stroke="#B2D339" stroke-width="8.5" stroke-linecap="round" stroke-linejoin="round" width="142.2" height="142.2"/>
		
			<rect x="79.5" y="79.8" fill="none" stroke="#B2D339" stroke-width="8.5" stroke-linecap="round" stroke-linejoin="round" width="142.2" height="142.2"/>
	</g>
	<g opacity="0.3">
		
			<rect x="79.5" y="79.8" fill="none" stroke="#B2D339" stroke-width="5" stroke-linecap="round" stroke-linejoin="round" width="142.2" height="142.2"/>
		
			<rect x="79.5" y="79.8" fill="none" stroke="#B2D339" stroke-width="5" stroke-linecap="round" stroke-linejoin="round" width="142.2" height="142.2"/>
		
			<rect x="79.5" y="79.8" fill="none" stroke="#B2D339" stroke-width="5" stroke-linecap="round" stroke-linejoin="round" width="142.2" height="142.2"/>
		
			<rect x="79.5" y="79.8" fill="none" stroke="#B2D339" stroke-width="5" stroke-linecap="round" stroke-linejoin="round" width="142.2" height="142.2"/>
		
			<rect x="79.5" y="79.8" fill="none" stroke="#B2D339" stroke-width="5" stroke-linecap="round" stroke-linejoin="round" width="142.2" height="142.2"/>
		
			<rect x="79.5" y="79.8" fill="none" stroke="#B2D339" stroke-width="5" stroke-linecap="round" stroke-linejoin="round" width="142.2" height="142.2"/>
		
			<rect x="79.5" y="79.8" fill="none" stroke="#B2D339" stroke-width="5" stroke-linecap="round" stroke-linejoin="round" width="142.2" height="142.2"/>
		
			<rect x="79.5" y="79.8" fill="none" stroke="#B2D339" stroke-width="5" stroke-linecap="round" stroke-linejoin="round" width="142.2" height="142.2"/>
	</g>
	<g>
		
			<rect x="79.5" y="79.8" fill="none" stroke="#B2D339" stroke-width="7" stroke-linecap="round" stroke-linejoin="round" width="142.2" height="142.2"/>
		
			<rect x="79.5" y="79.8" fill="none" stroke="#B2D339" stroke-width="7" stroke-linecap="round" stroke-linejoin="round" width="142.2" height="142.2"/>
		
			<rect x="79.5" y="79.8" fill="none" stroke="#B2D339" stroke-width="7" stroke-linecap="round" stroke-linejoin="round" width="142.2" height="142.2"/>
		
			<rect x="79.5" y="79.8" fill="none" stroke="#B2D339" stroke-width="7" stroke-linecap="round" stroke-linejoin="round" width="142.2" height="142.2"/>
		
			<rect x="79.5" y="79.8" fill="none" stroke="#B2D339" stroke-width="7" stroke-linecap="round" stroke-linejoin="round" width="142.2" height="142.2"/>
		
			<rect x="79.5" y="79.8" fill="none" stroke="#B2D339" stroke-width="7" stroke-linecap="round" stroke-linejoin="round" width="142.2" height="142.2"/>
		
			<rect x="79.5" y="79.8" fill="none" stroke="#B2D339" stroke-width="7" stroke-linecap="round" stroke-linejoin="round" width="142.2" height="142.2"/>
		
			<rect x="79.5" y="79.8" fill="none" stroke="#B2D339" stroke-width="7" stroke-linecap="round" stroke-linejoin="round" width="142.2" height="142.2"/>
	</g>
	<g>
		
			<rect x="79.5" y="79.8" fill="none" stroke="#C3DB69" stroke-width="5.5" stroke-linecap="round" stroke-linejoin="round" width="142.2" height="142.2"/>
		
			<rect x="79.5" y="79.8" fill="none" stroke="#C3DB69" stroke-width="5.5" stroke-linecap="round" stroke-linejoin="round" width="142.2" height="142.2"/>
		
			<rect x="79.5" y="79.8" fill="none" stroke="#C3DB69" stroke-width="5.5" stroke-linecap="round" stroke-linejoin="round" width="142.2" height="142.2"/>
		
			<rect x="79.5" y="79.8" fill="none" stroke="#C3DB69" stroke-width="5.5" stroke-linecap="round" stroke-linejoin="round" width="142.2" height="142.2"/>
		
			<rect x="79.5" y="79.8" fill="none" stroke="#C3DB69" stroke-width="5.5" stroke-linecap="round" stroke-linejoin="round" width="142.2" height="142.2"/>
		
			<rect x="79.5" y="79.8" fill="none" stroke="#C3DB69" stroke-width="5.5" stroke-linecap="round" stroke-linejoin="round" width="142.2" height="142.2"/>
		
			<rect x="79.5" y="79.8" fill="none" stroke="#C3DB69" stroke-width="5.5" stroke-linecap="round" stroke-linejoin="round" width="142.2" height="142.2"/>
		
			<rect x="79.5" y="79.8" fill="none" stroke="#C3DB69" stroke-width="5.5" stroke-linecap="round" stroke-linejoin="round" width="142.2" height="142.2"/>
	</g>
	<g>
		
			<rect x="79.5" y="79.8" fill="none" stroke="#D2E392" stroke-width="4" stroke-linecap="round" stroke-linejoin="round" width="142.2" height="142.2"/>
		
			<rect x="79.5" y="79.8" fill="none" stroke="#D2E392" stroke-width="4" stroke-linecap="round" stroke-linejoin="round" width="142.2" height="142.2"/>
		
			<rect x="79.5" y="79.8" fill="none" stroke="#D2E392" stroke-width="4" stroke-linecap="round" stroke-linejoin="round" width="142.2" height="142.2"/>
		
			<rect x="79.5" y="79.8" fill="none" stroke="#D2E392" stroke-width="4" stroke-linecap="round" stroke-linejoin="round" width="142.2" height="142.2"/>
		
			<rect x="79.5" y="79.8" fill="none" stroke="#D2E392" stroke-width="4" stroke-linecap="round" stroke-linejoin="round" width="142.2" height="142.2"/>
		
			<rect x="79.5" y="79.8" fill="none" stroke="#D2E392" stroke-width="4" stroke-linecap="round" stroke-linejoin="round" width="142.2" height="142.2"/>
		
			<rect x="79.5" y="79.8" fill="none" stroke="#D2E392" stroke-width="4" stroke-linecap="round" stroke-linejoin="round" width="142.2" height="142.2"/>
		
			<rect x="79.5" y="79.8" fill="none" stroke="#D2E392" stroke-width="4" stroke-linecap="round" stroke-linejoin="round" width="142.2" height="142.2"/>
	</g>
	<g>
		
			<rect x="79.5" y="79.8" fill="none" stroke="#DEEBB1" stroke-width="2.5" stroke-linecap="round" stroke-linejoin="round" width="142.2" height="142.2"/>
		
			<rect x="79.5" y="79.8" fill="none" stroke="#DEEBB1" stroke-width="2.5" stroke-linecap="round" stroke-linejoin="round" width="142.2" height="142.2"/>
		
			<rect x="79.5" y="79.8" fill="none" stroke="#DEEBB1" stroke-width="2.5" stroke-linecap="round" stroke-linejoin="round" width="142.2" height="142.2"/>
		
			<rect x="79.5" y="79.8" fill="none" stroke="#DEEBB1" stroke-width="2.5" stroke-linecap="round" stroke-linejoin="round" width="142.2" height="142.2"/>
		
			<rect x="79.5" y="79.8" fill="none" stroke="#DEEBB1" stroke-width="2.5" stroke-linecap="round" stroke-linejoin="round" width="142.2" height="142.2"/>
		
			<rect x="79.5" y="79.8" fill="none" stroke="#DEEBB1" stroke-width="2.5" stroke-linecap="round" stroke-linejoin="round" width="142.2" height="142.2"/>
		
			<rect x="79.5" y="79.8" fill="none" stroke="#DEEBB1" stroke-width="2.5" stroke-linecap="round" stroke-linejoin="round" width="142.2" height="142.2"/>
		
			<rect x="79.5" y="79.8" fill="none" stroke="#DEEBB1" stroke-width="2.5" stroke-linecap="round" stroke-linejoin="round" width="142.2" height="142.2"/>
	</g>
	<g>
		
			<rect x="79.5" y="79.8" fill="none" stroke="#EAF2CE" stroke-linecap="round" stroke-linejoin="round" width="142.2" height="142.2"/>
		
			<rect x="79.5" y="79.8" fill="none" stroke="#EAF2CE" stroke-linecap="round" stroke-linejoin="round" width="142.2" height="142.2"/>
		
			<rect x="79.5" y="79.8" fill="none" stroke="#EAF2CE" stroke-linecap="round" stroke-linejoin="round" width="142.2" height="142.2"/>
		
			<rect x="79.5" y="79.8" fill="none" stroke="#EAF2CE" stroke-linecap="round" stroke-linejoin="round" width="142.2" height="142.2"/>
		
			<rect x="79.5" y="79.8" fill="none" stroke="#EAF2CE" stroke-linecap="round" stroke-linejoin="round" width="142.2" height="142.2"/>
		
			<rect x="79.5" y="79.8" fill="none" stroke="#EAF2CE" stroke-linecap="round" stroke-linejoin="round" width="142.2" height="142.2"/>
		
			<rect x="79.5" y="79.8" fill="none" stroke="#EAF2CE" stroke-linecap="round" stroke-linejoin="round" width="142.2" height="142.2"/>
		
			<rect x="79.5" y="79.8" fill="none" stroke="#EAF2CE" stroke-linecap="round" stroke-linejoin="round" width="142.2" height="142.2"/>
	</g>
</g>
<g>
	<g>
		
			<path opacity="0.2" fill="none" stroke="#F18CB9" stroke-width="7" stroke-linecap="round" stroke-linejoin="round" enable-background="new    " d="
			M79.5,221.5L221.7,79.8L79.5,221.5z"/>
		
			<path opacity="0.25" fill="none" stroke="#ED7AB0" stroke-width="6" stroke-linecap="round" stroke-linejoin="round" enable-background="new    " d="
			M79.5,221.5L221.7,79.8L79.5,221.5z"/>
		
			<path opacity="0.3" fill="none" stroke="#EB60A3" stroke-width="5" stroke-linecap="round" stroke-linejoin="round" enable-background="new    " d="
			M79.5,221.5L221.7,79.8L79.5,221.5z"/>
		<path fill="none" stroke="#E93E95" stroke-width="4" stroke-linecap="round" stroke-linejoin="round" d="M79.5,221.5L221.7,79.8
			L79.5,221.5z"/>
		<path fill="none" stroke="#ED669F" stroke-width="3.25" stroke-linecap="round" stroke-linejoin="round" d="M79.5,221.5
			L221.7,79.8L79.5,221.5z"/>
		<path fill="none" stroke="#EF7CA8" stroke-width="2.5" stroke-linecap="round" stroke-linejoin="round" d="M79.5,221.5L221.7,79.8
			L79.5,221.5z"/>
		<path fill="none" stroke="#F292B4" stroke-width="1.65" stroke-linecap="round" stroke-linejoin="round" d="M79.5,221.5
			L221.7,79.8L79.5,221.5z"/>
		<path fill="none" stroke="#F5B3D0" stroke-width="0.65" stroke-linecap="round" stroke-linejoin="round" d="M79.5,221.5
			L221.7,79.8L79.5,221.5z"/>
	</g>
	<g opacity="0.2">
		<path fill="none" stroke="#B2D339" stroke-width="10" stroke-linecap="round" stroke-linejoin="round" d="M79.5,221.5L221.7,79.8
			L79.5,221.5z"/>
		<path fill="none" stroke="#B2D339" stroke-width="10" stroke-linecap="round" stroke-linejoin="round" d="M79.5,221.5L221.7,79.8
			L79.5,221.5z"/>
		<path fill="none" stroke="#B2D339" stroke-width="10" stroke-linecap="round" stroke-linejoin="round" d="M79.5,221.5L221.7,79.8
			L79.5,221.5z"/>
		<path fill="none" stroke="#B2D339" stroke-width="10" stroke-linecap="round" stroke-linejoin="round" d="M79.5,221.5L221.7,79.8
			L79.5,221.5z"/>
		<path fill="none" stroke="#B2D339" stroke-width="10" stroke-linecap="round" stroke-linejoin="round" d="M79.5,221.5L221.7,79.8
			L79.5,221.5z"/>
		<path fill="none" stroke="#B2D339" stroke-width="10" stroke-linecap="round" stroke-linejoin="round" d="M79.5,221.5L221.7,79.8
			L79.5,221.5z"/>
		<path fill="none" stroke="#B2D339" stroke-width="10" stroke-linecap="round" stroke-linejoin="round" d="M79.5,221.5L221.7,79.8
			L79.5,221.5z"/>
		<path fill="none" stroke="#B2D339" stroke-width="10" stroke-linecap="round" stroke-linejoin="round" d="M79.5,221.5L221.7,79.8
			L79.5,221.5z"/>
	</g>
	<g opacity="0.25">
		<path fill="none" stroke="#B2D339" stroke-width="8.5" stroke-linecap="round" stroke-linejoin="round" d="M79.5,221.5L221.7,79.8
			L79.5,221.5z"/>
		<path fill="none" stroke="#B2D339" stroke-width="8.5" stroke-linecap="round" stroke-linejoin="round" d="M79.5,221.5L221.7,79.8
			L79.5,221.5z"/>
		<path fill="none" stroke="#B2D339" stroke-width="8.5" stroke-linecap="round" stroke-linejoin="round" d="M79.5,221.5L221.7,79.8
			L79.5,221.5z"/>
		<path fill="none" stroke="#B2D339" stroke-width="8.5" stroke-linecap="round" stroke-linejoin="round" d="M79.5,221.5L221.7,79.8
			L79.5,221.5z"/>
		<path fill="none" stroke="#B2D339" stroke-width="8.5" stroke-linecap="round" stroke-linejoin="round" d="M79.5,221.5L221.7,79.8
			L79.5,221.5z"/>
		<path fill="none" stroke="#B2D339" stroke-width="8.5" stroke-linecap="round" stroke-linejoin="round" d="M79.5,221.5L221.7,79.8
			L79.5,221.5z"/>
		<path fill="none" stroke="#B2D339" stroke-width="8.5" stroke-linecap="round" stroke-linejoin="round" d="M79.5,221.5L221.7,79.8
			L79.5,221.5z"/>
		<path fill="none" stroke="#B2D339" stroke-width="8.5" stroke-linecap="round" stroke-linejoin="round" d="M79.5,221.5L221.7,79.8
			L79.5,221.5z"/>
	</g>
	<g opacity="0.3">
		<path fill="none" stroke="#B2D339" stroke-width="5" stroke-linecap="round" stroke-linejoin="round" d="M79.5,221.5L221.7,79.8
			L79.5,221.5z"/>
		<path fill="none" stroke="#B2D339" stroke-width="5" stroke-linecap="round" stroke-linejoin="round" d="M79.5,221.5L221.7,79.8
			L79.5,221.5z"/>
		<path fill="none" stroke="#B2D339" stroke-width="5" stroke-linecap="round" stroke-linejoin="round" d="M79.5,221.5L221.7,79.8
			L79.5,221.5z"/>
		<path fill="none" stroke="#B2D339" stroke-width="5" stroke-linecap="round" stroke-linejoin="round" d="M79.5,221.5L221.7,79.8
			L79.5,221.5z"/>
		<path fill="none" stroke="#B2D339" stroke-width="5" stroke-linecap="round" stroke-linejoin="round" d="M79.5,221.5L221.7,79.8
			L79.5,221.5z"/>
		<path fill="none" stroke="#B2D339" stroke-width="5" stroke-linecap="round" stroke-linejoin="round" d="M79.5,221.5L221.7,79.8
			L79.5,221.5z"/>
		<path fill="none" stroke="#B2D339" stroke-width="5" stroke-linecap="round" stroke-linejoin="round" d="M79.5,221.5L221.7,79.8
			L79.5,221.5z"/>
		<path fill="none" stroke="#B2D339" stroke-width="5" stroke-linecap="round" stroke-linejoin="round" d="M79.5,221.5L221.7,79.8
			L79.5,221.5z"/>
	</g>
	<g>
		<path fill="none" stroke="#B2D339" stroke-width="7" stroke-linecap="round" stroke-linejoin="round" d="M79.5,221.5L221.7,79.8
			L79.5,221.5z"/>
		<path fill="none" stroke="#B2D339" stroke-width="7" stroke-linecap="round" stroke-linejoin="round" d="M79.5,221.5L221.7,79.8
			L79.5,221.5z"/>
		<path fill="none" stroke="#B2D339" stroke-width="7" stroke-linecap="round" stroke-linejoin="round" d="M79.5,221.5L221.7,79.8
			L79.5,221.5z"/>
		<path fill="none" stroke="#B2D339" stroke-width="7" stroke-linecap="round" stroke-linejoin="round" d="M79.5,221.5L221.7,79.8
			L79.5,221.5z"/>
		<path fill="none" stroke="#B2D339" stroke-width="7" stroke-linecap="round" stroke-linejoin="round" d="M79.5,221.5L221.7,79.8
			L79.5,221.5z"/>
		<path fill="none" stroke="#B2D339" stroke-width="7" stroke-linecap="round" stroke-linejoin="round" d="M79.5,221.5L221.7,79.8
			L79.5,221.5z"/>
		<path fill="none" stroke="#B2D339" stroke-width="7" stroke-linecap="round" stroke-linejoin="round" d="M79.5,221.5L221.7,79.8
			L79.5,221.5z"/>
		<path fill="none" stroke="#B2D339" stroke-width="7" stroke-linecap="round" stroke-linejoin="round" d="M79.5,221.5L221.7,79.8
			L79.5,221.5z"/>
	</g>
	<g>
		<path fill="none" stroke="#C3DB69" stroke-width="5.5" stroke-linecap="round" stroke-linejoin="round" d="M79.5,221.5L221.7,79.8
			L79.5,221.5z"/>
		<path fill="none" stroke="#C3DB69" stroke-width="5.5" stroke-linecap="round" stroke-linejoin="round" d="M79.5,221.5L221.7,79.8
			L79.5,221.5z"/>
		<path fill="none" stroke="#C3DB69" stroke-width="5.5" stroke-linecap="round" stroke-linejoin="round" d="M79.5,221.5L221.7,79.8
			L79.5,221.5z"/>
		<path fill="none" stroke="#C3DB69" stroke-width="5.5" stroke-linecap="round" stroke-linejoin="round" d="M79.5,221.5L221.7,79.8
			L79.5,221.5z"/>
		<path fill="none" stroke="#C3DB69" stroke-width="5.5" stroke-linecap="round" stroke-linejoin="round" d="M79.5,221.5L221.7,79.8
			L79.5,221.5z"/>
		<path fill="none" stroke="#C3DB69" stroke-width="5.5" stroke-linecap="round" stroke-linejoin="round" d="M79.5,221.5L221.7,79.8
			L79.5,221.5z"/>
		<path fill="none" stroke="#C3DB69" stroke-width="5.5" stroke-linecap="round" stroke-linejoin="round" d="M79.5,221.5L221.7,79.8
			L79.5,221.5z"/>
		<path fill="none" stroke="#C3DB69" stroke-width="5.5" stroke-linecap="round" stroke-linejoin="round" d="M79.5,221.5L221.7,79.8
			L79.5,221.5z"/>
	</g>
	<g>
		<path fill="none" stroke="#D2E392" stroke-width="4" stroke-linecap="round" stroke-linejoin="round" d="M79.5,221.5L221.7,79.8
			L79.5,221.5z"/>
		<path fill="none" stroke="#D2E392" stroke-width="4" stroke-linecap="round" stroke-linejoin="round" d="M79.5,221.5L221.7,79.8
			L79.5,221.5z"/>
		<path fill="none" stroke="#D2E392" stroke-width="4" stroke-linecap="round" stroke-linejoin="round" d="M79.5,221.5L221.7,79.8
			L79.5,221.5z"/>
		<path fill="none" stroke="#D2E392" stroke-width="4" stroke-linecap="round" stroke-linejoin="round" d="M79.5,221.5L221.7,79.8
			L79.5,221.5z"/>
		<path fill="none" stroke="#D2E392" stroke-width="4" stroke-linecap="round" stroke-linejoin="round" d="M79.5,221.5L221.7,79.8
			L79.5,221.5z"/>
		<path fill="none" stroke="#D2E392" stroke-width="4" stroke-linecap="round" stroke-linejoin="round" d="M79.5,221.5L221.7,79.8
			L79.5,221.5z"/>
		<path fill="none" stroke="#D2E392" stroke-width="4" stroke-linecap="round" stroke-linejoin="round" d="M79.5,221.5L221.7,79.8
			L79.5,221.5z"/>
		<path fill="none" stroke="#D2E392" stroke-width="4" stroke-linecap="round" stroke-linejoin="round" d="M79.5,221.5L221.7,79.8
			L79.5,221.5z"/>
	</g>
	<g>
		<path fill="none" stroke="#DEEBB1" stroke-width="2.5" stroke-linecap="round" stroke-linejoin="round" d="M79.5,221.5L221.7,79.8
			L79.5,221.5z"/>
		<path fill="none" stroke="#DEEBB1" stroke-width="2.5" stroke-linecap="round" stroke-linejoin="round" d="M79.5,221.5L221.7,79.8
			L79.5,221.5z"/>
		<path fill="none" stroke="#DEEBB1" stroke-width="2.5" stroke-linecap="round" stroke-linejoin="round" d="M79.5,221.5L221.7,79.8
			L79.5,221.5z"/>
		<path fill="none" stroke="#DEEBB1" stroke-width="2.5" stroke-linecap="round" stroke-linejoin="round" d="M79.5,221.5L221.7,79.8
			L79.5,221.5z"/>
		<path fill="none" stroke="#DEEBB1" stroke-width="2.5" stroke-linecap="round" stroke-linejoin="round" d="M79.5,221.5L221.7,79.8
			L79.5,221.5z"/>
		<path fill="none" stroke="#DEEBB1" stroke-width="2.5" stroke-linecap="round" stroke-linejoin="round" d="M79.5,221.5L221.7,79.8
			L79.5,221.5z"/>
		<path fill="none" stroke="#DEEBB1" stroke-width="2.5" stroke-linecap="round" stroke-linejoin="round" d="M79.5,221.5L221.7,79.8
			L79.5,221.5z"/>
		<path fill="none" stroke="#DEEBB1" stroke-width="2.5" stroke-linecap="round" stroke-linejoin="round" d="M79.5,221.5L221.7,79.8
			L79.5,221.5z"/>
	</g>
	<g>
		<path fill="none" stroke="#EAF2CE" stroke-linecap="round" stroke-linejoin="round" d="M79.5,221.5L221.7,79.8L79.5,221.5z"/>
		<path fill="none" stroke="#EAF2CE" stroke-linecap="round" stroke-linejoin="round" d="M79.5,221.5L221.7,79.8L79.5,221.5z"/>
		<path fill="none" stroke="#EAF2CE" stroke-linecap="round" stroke-linejoin="round" d="M79.5,221.5L221.7,79.8L79.5,221.5z"/>
		<path fill="none" stroke="#EAF2CE" stroke-linecap="round" stroke-linejoin="round" d="M79.5,221.5L221.7,79.8L79.5,221.5z"/>
		<path fill="none" stroke="#EAF2CE" stroke-linecap="round" stroke-linejoin="round" d="M79.5,221.5L221.7,79.8L79.5,221.5z"/>
		<path fill="none" stroke="#EAF2CE" stroke-linecap="round" stroke-linejoin="round" d="M79.5,221.5L221.7,79.8L79.5,221.5z"/>
		<path fill="none" stroke="#EAF2CE" stroke-linecap="round" stroke-linejoin="round" d="M79.5,221.5L221.7,79.8L79.5,221.5z"/>
		<path fill="none" stroke="#EAF2CE" stroke-linecap="round" stroke-linejoin="round" d="M79.5,221.5L221.7,79.8L79.5,221.5z"/>
	</g>
</g>
</svg>
