<?xml version="1.0" encoding="utf-8"?>
<!-- Generator: Adobe Illustrator 19.2.0, SVG Export Plug-In . SVG Version: 6.00 Build 0)  -->
<svg version="1.1" id="Layer_1" xmlns="http://www.w3.org/2000/svg" xmlns:xlink="http://www.w3.org/1999/xlink" x="0px" y="0px"
	 viewBox="0 0 300 300" enable-background="new 0 0 300 300" xml:space="preserve">
<g>
	<g>

			<path opacity="1.0" fill="none" stroke="#fff" stroke-width="3" stroke-linecap="round" stroke-linejoin="round" enable-background="new    " d="
			M116.3,105.4c-11.5-5.4-25.1-4.7-37-0.4c-11.9,4.3-22.3,12-31.9,20.3c0-12.5,6.5-24.5,16-32.6S85.2,80.3,97.6,79
			C76.3,68.9,53.3,62.2,29.8,59.5c8.8-6.5,20.4-7.4,31.3-7.6c20.8-0.4,42.1,0.9,61.4,8.5c-7.5-14.5-17-28-28.1-39.9
			c22,2.9,42.5,16.1,54.3,34.9c5.7-12.6,11.8-25,18.2-37.3c4.1,14,6.7,28.5,7.7,43.1c17.8-22.7,52.3-30.1,77.8-16.8
			c-29.5,3.7-57.9,15.6-81.3,34c24.1,3.3,46.5,17.9,59.2,38.7c-9.1-6.7-20.6-9.1-31.7-10.6c-14-2-28.1-2.9-42.3-3
			c-2.1,0-4.3,0.1-6.1,1.2c-2.9,1.8-3.6,5.6-3.9,9c-4.6,44.1,1.7,89.3,18.3,130.4c3.8,9.4,8.2,18.9,9.3,29c0.2,1.7,0.3,3.5-0.6,5
			c-0.9,1.6-2.7,2.6-4.4,3.3c-13.3,5.9-28.5,7.7-42.8,4.9c-2.3-0.4-4.7-1.1-6-3c-1.1-1.6-1.2-3.6-1.2-5.5
			c-0.2-8.6-0.4-17.2-0.6-25.8c-0.6-27-1.3-54,0.6-80.9c1.3-18.2,3.6-37.3-3.5-54.1"/>
	</g>
</g>
</svg>
