<?xml version="1.0" encoding="utf-8"?>
<!-- Generator: Adobe Illustrator 19.2.0, SVG Export Plug-In . SVG Version: 6.00 Build 0)  -->
<svg version="1.1" id="Layer_1" xmlns="http://www.w3.org/2000/svg" xmlns:xlink="http://www.w3.org/1999/xlink" x="0px" y="0px"
	 viewBox="0 0 195 275" enable-background="new 0 0 195 275" xml:space="preserve">
<g>
	<path opacity="0.2" fill="none" stroke="#009E4D" stroke-width="10" stroke-linecap="round" stroke-linejoin="round" d="M47,104.3
		c-10.5,5.1-19.2,13.2-29.7,18.3c5.9-19.7,22.5-35.7,42.3-41.1c-13.4-16-29.4-29.8-47.3-40.6C32.7,43.6,49.1,59.4,69,65
		c-5-15.1-7.5-31-7.3-46.9C70.1,31.9,78.6,45.8,87,59.6c9.7-14.1,19.5-28.3,29.2-42.4c-5.4,15-6.4,31.4-3.1,47
		c20-10.9,41.5-19.1,63.7-24.2c-19.7,9.1-36.5,24.1-47.7,42.6c10.9-3.5,23.1-2.4,33.2,3.1c10,5.5,17.7,15.2,20.6,26.2
		c-17-11.9-39.3-15.9-59.4-10.6c-4.8,1.2-9.7,3.2-12.5,7.3c-2.1,3.1-2.6,7.1-2.9,10.9c-1,13.9,0.4,27.9,1.8,41.9
		c2.1,20.9,4.3,41.9,8.6,62.5c1.3,6.1,2.8,12.2,5.7,17.7c1.7,3.3,4,6.3,5.2,9.7c1.3,3.5,1.4,7.6-0.8,10.6c-3.1,4-9,4-14.1,3.7
		c-5.3-0.4-10.6-0.8-15.8-1.2c-1.2-0.1-2.5-0.2-3.5-0.9c-1.9-1.4-1.9-4.1-1.6-6.5c3.4-35.3,0.9-71.5-3.6-106.7
		c-1.8-13.9-4.3-27.9-2.3-41.8c-4.1-7.2-14.7-7.1-22.7-9.3c-3-0.8-6.7-0.7-9.5,0.6s-5.5,3.1-8.5,3.8L47,104.3z"/>
	<path opacity="0.25" fill="none" stroke="#009E4D" stroke-width="8.5" stroke-linecap="round" stroke-linejoin="round" d="
		M47,104.3c-10.5,5.1-19.2,13.2-29.7,18.3c5.9-19.7,22.5-35.7,42.3-41.1c-13.4-16-29.4-29.8-47.3-40.6C32.7,43.6,49.1,59.4,69,65
		c-5-15.1-7.5-31-7.3-46.9C70.1,31.9,78.6,45.8,87,59.6c9.7-14.1,19.5-28.3,29.2-42.4c-5.4,15-6.4,31.4-3.1,47
		c20-10.9,41.5-19.1,63.7-24.2c-19.7,9.1-36.5,24.1-47.7,42.6c10.9-3.5,23.1-2.4,33.2,3.1c10,5.5,17.7,15.2,20.6,26.2
		c-17-11.9-39.3-15.9-59.4-10.6c-4.8,1.2-9.7,3.2-12.5,7.3c-2.1,3.1-2.6,7.1-2.9,10.9c-1,13.9,0.4,27.9,1.8,41.9
		c2.1,20.9,4.3,41.9,8.6,62.5c1.3,6.1,2.8,12.2,5.7,17.7c1.7,3.3,4,6.3,5.2,9.7c1.3,3.5,1.4,7.6-0.8,10.6c-3.1,4-9,4-14.1,3.7
		c-5.3-0.4-10.6-0.8-15.8-1.2c-1.2-0.1-2.5-0.2-3.5-0.9c-1.9-1.4-1.9-4.1-1.6-6.5c3.4-35.3,0.9-71.5-3.6-106.7
		c-1.8-13.9-4.3-27.9-2.3-41.8c-4.1-7.2-14.7-7.1-22.7-9.3c-3-0.8-6.7-0.7-9.5,0.6s-5.5,3.1-8.5,3.8L47,104.3z"/>
	<path opacity="0.3" fill="none" stroke="#009E4D" stroke-width="5" stroke-linecap="round" stroke-linejoin="round" d="M47,104.3
		c-10.5,5.1-19.2,13.2-29.7,18.3c5.9-19.7,22.5-35.7,42.3-41.1c-13.4-16-29.4-29.8-47.3-40.6C32.7,43.6,49.1,59.4,69,65
		c-5-15.1-7.5-31-7.3-46.9C70.1,31.9,78.6,45.8,87,59.6c9.7-14.1,19.5-28.3,29.2-42.4c-5.4,15-6.4,31.4-3.1,47
		c20-10.9,41.5-19.1,63.7-24.2c-19.7,9.1-36.5,24.1-47.7,42.6c10.9-3.5,23.1-2.4,33.2,3.1c10,5.5,17.7,15.2,20.6,26.2
		c-17-11.9-39.3-15.9-59.4-10.6c-4.8,1.2-9.7,3.2-12.5,7.3c-2.1,3.1-2.6,7.1-2.9,10.9c-1,13.9,0.4,27.9,1.8,41.9
		c2.1,20.9,4.3,41.9,8.6,62.5c1.3,6.1,2.8,12.2,5.7,17.7c1.7,3.3,4,6.3,5.2,9.7c1.3,3.5,1.4,7.6-0.8,10.6c-3.1,4-9,4-14.1,3.7
		c-5.3-0.4-10.6-0.8-15.8-1.2c-1.2-0.1-2.5-0.2-3.5-0.9c-1.9-1.4-1.9-4.1-1.6-6.5c3.4-35.3,0.9-71.5-3.6-106.7
		c-1.8-13.9-4.3-27.9-2.3-41.8c-4.1-7.2-14.7-7.1-22.7-9.3c-3-0.8-6.7-0.7-9.5,0.6s-5.5,3.1-8.5,3.8L47,104.3z"/>
	<path fill="none" stroke="#00A355" stroke-width="7" stroke-linecap="round" stroke-linejoin="round" d="M47,104.3
		c-10.5,5.1-19.2,13.2-29.7,18.3c5.9-19.7,22.5-35.7,42.3-41.1c-13.4-16-29.4-29.8-47.3-40.6C32.7,43.6,49.1,59.4,69,65
		c-5-15.1-7.5-31-7.3-46.9C70.1,31.9,78.6,45.8,87,59.6c9.7-14.1,19.5-28.3,29.2-42.4c-5.4,15-6.4,31.4-3.1,47
		c20-10.9,41.5-19.1,63.7-24.2c-19.7,9.1-36.5,24.1-47.7,42.6c10.9-3.5,23.1-2.4,33.2,3.1c10,5.5,17.7,15.2,20.6,26.2
		c-17-11.9-39.3-15.9-59.4-10.6c-4.8,1.2-9.7,3.2-12.5,7.3c-2.1,3.1-2.6,7.1-2.9,10.9c-1,13.9,0.4,27.9,1.8,41.9
		c2.1,20.9,4.3,41.9,8.6,62.5c1.3,6.1,2.8,12.2,5.7,17.7c1.7,3.3,4,6.3,5.2,9.7c1.3,3.5,1.4,7.6-0.8,10.6c-3.1,4-9,4-14.1,3.7
		c-5.3-0.4-10.6-0.8-15.8-1.2c-1.2-0.1-2.5-0.2-3.5-0.9c-1.9-1.4-1.9-4.1-1.6-6.5c3.4-35.3,0.9-71.5-3.6-106.7
		c-1.8-13.9-4.3-27.9-2.3-41.8c-4.1-7.2-14.7-7.1-22.7-9.3c-3-0.8-6.7-0.7-9.5,0.6s-5.5,3.1-8.5,3.8L47,104.3z"/>
	<path fill="none" stroke="#3CAD6A" stroke-width="5.5" stroke-linecap="round" stroke-linejoin="round" d="M47,104.3
		c-10.5,5.1-19.2,13.2-29.7,18.3c5.9-19.7,22.5-35.7,42.3-41.1c-13.4-16-29.4-29.8-47.3-40.6C32.7,43.6,49.1,59.4,69,65
		c-5-15.1-7.5-31-7.3-46.9C70.1,31.9,78.6,45.8,87,59.6c9.7-14.1,19.5-28.3,29.2-42.4c-5.4,15-6.4,31.4-3.1,47
		c20-10.9,41.5-19.1,63.7-24.2c-19.7,9.1-36.5,24.1-47.7,42.6c10.9-3.5,23.1-2.4,33.2,3.1c10,5.5,17.7,15.2,20.6,26.2
		c-17-11.9-39.3-15.9-59.4-10.6c-4.8,1.2-9.7,3.2-12.5,7.3c-2.1,3.1-2.6,7.1-2.9,10.9c-1,13.9,0.4,27.9,1.8,41.9
		c2.1,20.9,4.3,41.9,8.6,62.5c1.3,6.1,2.8,12.2,5.7,17.7c1.7,3.3,4,6.3,5.2,9.7c1.3,3.5,1.4,7.6-0.8,10.6c-3.1,4-9,4-14.1,3.7
		c-5.3-0.4-10.6-0.8-15.8-1.2c-1.2-0.1-2.5-0.2-3.5-0.9c-1.9-1.4-1.9-4.1-1.6-6.5c3.4-35.3,0.9-71.5-3.6-106.7
		c-1.8-13.9-4.3-27.9-2.3-41.8c-4.1-7.2-14.7-7.1-22.7-9.3c-3-0.8-6.7-0.7-9.5,0.6s-5.5,3.1-8.5,3.8L47,104.3z"/>
	<path fill="none" stroke="#6CB984" stroke-width="4" stroke-linecap="round" stroke-linejoin="round" d="M47,104.3
		c-10.5,5.1-19.2,13.2-29.7,18.3c5.9-19.7,22.5-35.7,42.3-41.1c-13.4-16-29.4-29.8-47.3-40.6C32.7,43.6,49.1,59.4,69,65
		c-5-15.1-7.5-31-7.3-46.9C70.1,31.9,78.6,45.8,87,59.6c9.7-14.1,19.5-28.3,29.2-42.4c-5.4,15-6.4,31.4-3.1,47
		c20-10.9,41.5-19.1,63.7-24.2c-19.7,9.1-36.5,24.1-47.7,42.6c10.9-3.5,23.1-2.4,33.2,3.1c10,5.5,17.7,15.2,20.6,26.2
		c-17-11.9-39.3-15.9-59.4-10.6c-4.8,1.2-9.7,3.2-12.5,7.3c-2.1,3.1-2.6,7.1-2.9,10.9c-1,13.9,0.4,27.9,1.8,41.9
		c2.1,20.9,4.3,41.9,8.6,62.5c1.3,6.1,2.8,12.2,5.7,17.7c1.7,3.3,4,6.3,5.2,9.7c1.3,3.5,1.4,7.6-0.8,10.6c-3.1,4-9,4-14.1,3.7
		c-5.3-0.4-10.6-0.8-15.8-1.2c-1.2-0.1-2.5-0.2-3.5-0.9c-1.9-1.4-1.9-4.1-1.6-6.5c3.4-35.3,0.9-71.5-3.6-106.7
		c-1.8-13.9-4.3-27.9-2.3-41.8c-4.1-7.2-14.7-7.1-22.7-9.3c-3-0.8-6.7-0.7-9.5,0.6s-5.5,3.1-8.5,3.8L47,104.3z"/>
	<path fill="none" stroke="#8FC69C" stroke-width="2.5" stroke-linecap="round" stroke-linejoin="round" d="M47,104.3
		c-10.5,5.1-19.2,13.2-29.7,18.3c5.9-19.7,22.5-35.7,42.3-41.1c-13.4-16-29.4-29.8-47.3-40.6C32.7,43.6,49.1,59.4,69,65
		c-5-15.1-7.5-31-7.3-46.9C70.1,31.9,78.6,45.8,87,59.6c9.7-14.1,19.5-28.3,29.2-42.4c-5.4,15-6.4,31.4-3.1,47
		c20-10.9,41.5-19.1,63.7-24.2c-19.7,9.1-36.5,24.1-47.7,42.6c10.9-3.5,23.1-2.4,33.2,3.1c10,5.5,17.7,15.2,20.6,26.2
		c-17-11.9-39.3-15.9-59.4-10.6c-4.8,1.2-9.7,3.2-12.5,7.3c-2.1,3.1-2.6,7.1-2.9,10.9c-1,13.9,0.4,27.9,1.8,41.9
		c2.1,20.9,4.3,41.9,8.6,62.5c1.3,6.1,2.8,12.2,5.7,17.7c1.7,3.3,4,6.3,5.2,9.7c1.3,3.5,1.4,7.6-0.8,10.6c-3.1,4-9,4-14.1,3.7
		c-5.3-0.4-10.6-0.8-15.8-1.2c-1.2-0.1-2.5-0.2-3.5-0.9c-1.9-1.4-1.9-4.1-1.6-6.5c3.4-35.3,0.9-71.5-3.6-106.7
		c-1.8-13.9-4.3-27.9-2.3-41.8c-4.1-7.2-14.7-7.1-22.7-9.3c-3-0.8-6.7-0.7-9.5,0.6s-5.5,3.1-8.5,3.8L47,104.3z"/>
	<path fill="none" stroke="#B6D8BF" stroke-linecap="round" stroke-linejoin="round" d="M47,104.3c-10.5,5.1-19.2,13.2-29.7,18.3
		c5.9-19.7,22.5-35.7,42.3-41.1c-13.4-16-29.4-29.8-47.3-40.6C32.7,43.6,49.1,59.4,69,65c-5-15.1-7.5-31-7.3-46.9
		C70.1,31.9,78.6,45.8,87,59.6c9.7-14.1,19.5-28.3,29.2-42.4c-5.4,15-6.4,31.4-3.1,47c20-10.9,41.5-19.1,63.7-24.2
		c-19.7,9.1-36.5,24.1-47.7,42.6c10.9-3.5,23.1-2.4,33.2,3.1c10,5.5,17.7,15.2,20.6,26.2c-17-11.9-39.3-15.9-59.4-10.6
		c-4.8,1.2-9.7,3.2-12.5,7.3c-2.1,3.1-2.6,7.1-2.9,10.9c-1,13.9,0.4,27.9,1.8,41.9c2.1,20.9,4.3,41.9,8.6,62.5
		c1.3,6.1,2.8,12.2,5.7,17.7c1.7,3.3,4,6.3,5.2,9.7c1.3,3.5,1.4,7.6-0.8,10.6c-3.1,4-9,4-14.1,3.7c-5.3-0.4-10.6-0.8-15.8-1.2
		c-1.2-0.1-2.5-0.2-3.5-0.9c-1.9-1.4-1.9-4.1-1.6-6.5c3.4-35.3,0.9-71.5-3.6-106.7c-1.8-13.9-4.3-27.9-2.3-41.8
		c-4.1-7.2-14.7-7.1-22.7-9.3c-3-0.8-6.7-0.7-9.5,0.6s-5.5,3.1-8.5,3.8L47,104.3z"/>
</g>
</svg>
