<?xml version="1.0" encoding="utf-8"?>
<!-- Generator: Adobe Illustrator 19.2.0, SVG Export Plug-In . SVG Version: 6.00 Build 0)  -->
<svg version="1.1" id="Layer_1" xmlns="http://www.w3.org/2000/svg" xmlns:xlink="http://www.w3.org/1999/xlink" x="0px" y="0px"
	 viewBox="0 0 300 300" style="enable-background:new 0 0 300 300;" xml:space="preserve">
<ellipse opacity="1.0" fill="none" stroke="#fff" stroke-width="3" stroke-linecap="round" class="st0" cx="150" cy="150" rx="141.2" ry="137.3"/>
<line opacity="1.0" fill="none" stroke="#fff" stroke-width="3" stroke-linecap="round" class="st0" x1="175" y1="76.5" x2="221" y2="75.5"/>
<line opacity="1.0" fill="none" stroke="#fff" stroke-width="3" stroke-linecap="round" class="st0" x1="202.5" y1="110.5" x2="237" y2="110.5"/>
<line opacity="1.0" fill="none" stroke="#fff" stroke-width="3" stroke-linecap="round" class="st0" x1="109.2" y1="76" x2="95.5" y2="50.5"/>
<line opacity="1.0" fill="none" stroke="#fff" stroke-width="3" stroke-linecap="round" class="st0" x1="95" y1="101.5" x2="70" y2="95"/>
<line opacity="1.0" fill="none" stroke="#fff" stroke-width="3" stroke-linecap="round" class="st0" x1="80.5" y1="128" x2="35" y2="128"/>
<polyline opacity="1.0" fill="none" stroke="#fff" stroke-width="3" stroke-linecap="round" class="st0" points="136.1,82.4 195,171 195,255.5 112.5,255.5 112.5,171 153.8,255.5 195,171 148.5,36 74,171 224,171
	148.5,36 112.5,171 171.8,103.5 224,171 195,255.5 112.5,255.5 74,171 "/>
</svg>
