<?xml version="1.0" encoding="utf-8"?>
<!-- Generator: Adobe Illustrator 19.2.0, SVG Export Plug-In . SVG Version: 6.00 Build 0)  -->
<svg version="1.1" id="Layer_1" xmlns="http://www.w3.org/2000/svg" xmlns:xlink="http://www.w3.org/1999/xlink" x="0px" y="0px"
	 viewBox="0 0 300 300" enable-background="new 0 0 300 300" xml:space="preserve">
<g>
	<path opacity="0.2" fill="none" stroke="#FFD773" stroke-width="35" stroke-linecap="round" stroke-linejoin="round" d="
		M142.9,82.4c-20.2-1-39.7,13.5-46.7,32.9s-2.2,42.3,10.6,58.4s32.8,25.2,53,26.5c12.9,0.8,26.2-1.5,37.4-8
		c11.2-6.5,20.3-17.4,23.4-30.3c1.5-6.3,1.6-13,1.6-19.5c0-3,0-6.1-0.7-9c-0.9-3.6-2.8-6.8-4.7-9.9c-5-8.3-10.2-16.8-17.6-22.8
		c-4.3-3.5-9.3-6.2-14.4-8.4c-13.8-6.1-28.8-9.5-43.8-10"/>
	<path opacity="0.25" fill="none" stroke="#FFE095" stroke-width="8.5" stroke-linecap="round" stroke-linejoin="round" d="
		M142.9,82.4c-20.2-1-39.7,13.5-46.7,32.9s-2.2,42.3,10.6,58.4s32.8,25.2,53,26.5c12.9,0.8,26.2-1.5,37.4-8
		c11.2-6.5,20.3-17.4,23.4-30.3c1.5-6.3,1.6-13,1.6-19.5c0-3,0-6.1-0.7-9c-0.9-3.6-2.8-6.8-4.7-9.9c-5-8.3-10.2-16.8-17.6-22.8
		c-4.3-3.5-9.3-6.2-14.4-8.4c-13.8-6.1-28.8-9.5-43.8-10"/>
	<path opacity="0.3" fill="none" stroke="#FFD25C" stroke-width="5" stroke-linecap="round" stroke-linejoin="round" d="M142.9,82.4
		c-20.2-1-39.7,13.5-46.7,32.9s-2.2,42.3,10.6,58.4s32.8,25.2,53,26.5c12.9,0.8,26.2-1.5,37.4-8c11.2-6.5,20.3-17.4,23.4-30.3
		c1.5-6.3,1.6-13,1.6-19.5c0-3,0-6.1-0.7-9c-0.9-3.6-2.8-6.8-4.7-9.9c-5-8.3-10.2-16.8-17.6-22.8c-4.3-3.5-9.3-6.2-14.4-8.4
		c-13.8-6.1-28.8-9.5-43.8-10"/>
	<path fill="none" stroke="#FFD876" stroke-width="7" stroke-linecap="round" stroke-linejoin="round" d="M142.9,82.4
		c-20.2-1-39.7,13.5-46.7,32.9s-2.2,42.3,10.6,58.4s32.8,25.2,53,26.5c12.9,0.8,26.2-1.5,37.4-8c11.2-6.5,20.3-17.4,23.4-30.3
		c1.5-6.3,1.6-13,1.6-19.5c0-3,0-6.1-0.7-9c-0.9-3.6-2.8-6.8-4.7-9.9c-5-8.3-10.2-16.8-17.6-22.8c-4.3-3.5-9.3-6.2-14.4-8.4
		c-13.8-6.1-28.8-9.5-43.8-10"/>
	<path fill="none" stroke="#FFDD8B" stroke-width="5" stroke-linecap="round" stroke-linejoin="round" d="M142.9,82.4
		c-20.2-1-39.7,13.5-46.7,32.9s-2.2,42.3,10.6,58.4s32.8,25.2,53,26.5c12.9,0.8,26.2-1.5,37.4-8c11.2-6.5,20.3-17.4,23.4-30.3
		c1.5-6.3,1.6-13,1.6-19.5c0-3,0-6.1-0.7-9c-0.9-3.6-2.8-6.8-4.7-9.9c-5-8.3-10.2-16.8-17.6-22.8c-4.3-3.5-9.3-6.2-14.4-8.4
		c-13.8-6.1-28.8-9.5-43.8-10"/>
	<path fill="none" stroke="#FFE49E" stroke-width="4" stroke-linecap="round" stroke-linejoin="round" d="M142.9,82.4
		c-20.2-1-39.7,13.5-46.7,32.9s-2.2,42.3,10.6,58.4s32.8,25.2,53,26.5c12.9,0.8,26.2-1.5,37.4-8c11.2-6.5,20.3-17.4,23.4-30.3
		c1.5-6.3,1.6-13,1.6-19.5c0-3,0-6.1-0.7-9c-0.9-3.6-2.8-6.8-4.7-9.9c-5-8.3-10.2-16.8-17.6-22.8c-4.3-3.5-9.3-6.2-14.4-8.4
		c-13.8-6.1-28.8-9.5-43.8-10"/>
	<path fill="none" stroke="#FFEAB3" stroke-width="3" stroke-linecap="round" stroke-linejoin="round" d="M142.9,82.4
		c-20.2-1-39.7,13.5-46.7,32.9s-2.2,42.3,10.6,58.4s32.8,25.2,53,26.5c12.9,0.8,26.2-1.5,37.4-8c11.2-6.5,20.3-17.4,23.4-30.3
		c1.5-6.3,1.6-13,1.6-19.5c0-3,0-6.1-0.7-9c-0.9-3.6-2.8-6.8-4.7-9.9c-5-8.3-10.2-16.8-17.6-22.8c-4.3-3.5-9.3-6.2-14.4-8.4
		c-13.8-6.1-28.8-9.5-43.8-10"/>
	<path fill="none" stroke="#FFF0C3" stroke-linecap="round" stroke-linejoin="round" d="M142.9,82.4c-20.2-1-39.7,13.5-46.7,32.9
		s-2.2,42.3,10.6,58.4s32.8,25.2,53,26.5c12.9,0.8,26.2-1.5,37.4-8c11.2-6.5,20.3-17.4,23.4-30.3c1.5-6.3,1.6-13,1.6-19.5
		c0-3,0-6.1-0.7-9c-0.9-3.6-2.8-6.8-4.7-9.9c-5-8.3-10.2-16.8-17.6-22.8c-4.3-3.5-9.3-6.2-14.4-8.4c-13.8-6.1-28.8-9.5-43.8-10"/>
</g>
<g>
	<path opacity="0.2" fill="none" stroke="#FFD773" stroke-width="35" stroke-linecap="round" stroke-linejoin="round" d="
		M122.5,71.1c-6.2-12.2-12.2-24.5-17.8-37"/>
	<path opacity="0.25" fill="none" stroke="#FFE095" stroke-width="8.5" stroke-linecap="round" stroke-linejoin="round" d="
		M122.5,71.1c-6.2-12.2-12.2-24.5-17.8-37"/>
	<path opacity="0.3" fill="none" stroke="#FFD25C" stroke-width="5" stroke-linecap="round" stroke-linejoin="round" d="M122.5,71.1
		c-6.2-12.2-12.2-24.5-17.8-37"/>
	<path fill="none" stroke="#FFD876" stroke-width="7" stroke-linecap="round" stroke-linejoin="round" d="M122.5,71.1
		c-6.2-12.2-12.2-24.5-17.8-37"/>
	<path fill="none" stroke="#FFDD8B" stroke-width="5" stroke-linecap="round" stroke-linejoin="round" d="M122.5,71.1
		c-6.2-12.2-12.2-24.5-17.8-37"/>
	<path fill="none" stroke="#FFE49E" stroke-width="4" stroke-linecap="round" stroke-linejoin="round" d="M122.5,71.1
		c-6.2-12.2-12.2-24.5-17.8-37"/>
	<path fill="none" stroke="#FFEAB3" stroke-width="3" stroke-linecap="round" stroke-linejoin="round" d="M122.5,71.1
		c-6.2-12.2-12.2-24.5-17.8-37"/>
	<path fill="none" stroke="#FFF0C3" stroke-linecap="round" stroke-linejoin="round" d="M122.5,71.1c-6.2-12.2-12.2-24.5-17.8-37"/>
</g>
<g>
	<path opacity="0.2" fill="none" stroke="#FFD773" stroke-width="35" stroke-linecap="round" stroke-linejoin="round" d="M89.1,95
		c-15.2-6.3-30.4-12.4-45.7-18.3"/>
	<path opacity="0.25" fill="none" stroke="#FFE095" stroke-width="8.5" stroke-linecap="round" stroke-linejoin="round" d="M89.1,95
		c-15.2-6.3-30.4-12.4-45.7-18.3"/>
	<path opacity="0.3" fill="none" stroke="#FFD25C" stroke-width="5" stroke-linecap="round" stroke-linejoin="round" d="M89.1,95
		c-15.2-6.3-30.4-12.4-45.7-18.3"/>
	<path fill="none" stroke="#FFD876" stroke-width="7" stroke-linecap="round" stroke-linejoin="round" d="M89.1,95
		c-15.2-6.3-30.4-12.4-45.7-18.3"/>
	<path fill="none" stroke="#FFDD8B" stroke-width="5" stroke-linecap="round" stroke-linejoin="round" d="M89.1,95
		c-15.2-6.3-30.4-12.4-45.7-18.3"/>
	<path fill="none" stroke="#FFE49E" stroke-width="4" stroke-linecap="round" stroke-linejoin="round" d="M89.1,95
		c-15.2-6.3-30.4-12.4-45.7-18.3"/>
	<path fill="none" stroke="#FFEAB3" stroke-width="3" stroke-linecap="round" stroke-linejoin="round" d="M89.1,95
		c-15.2-6.3-30.4-12.4-45.7-18.3"/>
	<path fill="none" stroke="#FFF0C3" stroke-linecap="round" stroke-linejoin="round" d="M89.1,95c-15.2-6.3-30.4-12.4-45.7-18.3"/>
</g>
<g>
	<path opacity="0.2" fill="none" stroke="#FFD773" stroke-width="35" stroke-linecap="round" stroke-linejoin="round" d="
		M73.5,139.6c-16.5-2.1-33.1-4.1-49.6-6.2c-0.3,0-0.7-0.1-0.8-0.4c-0.1-0.3,0.4-0.7,0.5-0.3"/>
	<path opacity="0.25" fill="none" stroke="#FFE095" stroke-width="8.5" stroke-linecap="round" stroke-linejoin="round" d="
		M73.5,139.6c-16.5-2.1-33.1-4.1-49.6-6.2c-0.3,0-0.7-0.1-0.8-0.4c-0.1-0.3,0.4-0.7,0.5-0.3"/>
	<path opacity="0.3" fill="none" stroke="#FFD25C" stroke-width="5" stroke-linecap="round" stroke-linejoin="round" d="M73.5,139.6
		c-16.5-2.1-33.1-4.1-49.6-6.2c-0.3,0-0.7-0.1-0.8-0.4c-0.1-0.3,0.4-0.7,0.5-0.3"/>
	<path fill="none" stroke="#FFD876" stroke-width="7" stroke-linecap="round" stroke-linejoin="round" d="M73.5,139.6
		c-16.5-2.1-33.1-4.1-49.6-6.2c-0.3,0-0.7-0.1-0.8-0.4c-0.1-0.3,0.4-0.7,0.5-0.3"/>
	<path fill="none" stroke="#FFDD8B" stroke-width="5" stroke-linecap="round" stroke-linejoin="round" d="M73.5,139.6
		c-16.5-2.1-33.1-4.1-49.6-6.2c-0.3,0-0.7-0.1-0.8-0.4c-0.1-0.3,0.4-0.7,0.5-0.3"/>
	<path fill="none" stroke="#FFE49E" stroke-width="4" stroke-linecap="round" stroke-linejoin="round" d="M73.5,139.6
		c-16.5-2.1-33.1-4.1-49.6-6.2c-0.3,0-0.7-0.1-0.8-0.4c-0.1-0.3,0.4-0.7,0.5-0.3"/>
	<path fill="none" stroke="#FFEAB3" stroke-width="3" stroke-linecap="round" stroke-linejoin="round" d="M73.5,139.6
		c-16.5-2.1-33.1-4.1-49.6-6.2c-0.3,0-0.7-0.1-0.8-0.4c-0.1-0.3,0.4-0.7,0.5-0.3"/>
	<path fill="none" stroke="#FFF0C3" stroke-linecap="round" stroke-linejoin="round" d="M73.5,139.6c-16.5-2.1-33.1-4.1-49.6-6.2
		c-0.3,0-0.7-0.1-0.8-0.4c-0.1-0.3,0.4-0.7,0.5-0.3"/>
</g>
<g>
	<path opacity="0.2" fill="none" stroke="#FFD773" stroke-width="35" stroke-linecap="round" stroke-linejoin="round" d="
		M86.2,176.1c-1.2-0.5-2.5,0-3.6,0.6c-14.1,7-27.8,14.7-41.1,23.1c-1.5,0.9-3.2,1.6-4.9,2c-0.4,0.1-0.6,0.7-0.3,0.9s0.8-0.3,0.5-0.6
		"/>
	<path opacity="0.25" fill="none" stroke="#FFE095" stroke-width="8.5" stroke-linecap="round" stroke-linejoin="round" d="
		M86.2,176.1c-1.2-0.5-2.5,0-3.6,0.6c-14.1,7-27.8,14.7-41.1,23.1c-1.5,0.9-3.2,1.6-4.9,2c-0.4,0.1-0.6,0.7-0.3,0.9s0.8-0.3,0.5-0.6
		"/>
	<path opacity="0.3" fill="none" stroke="#FFD25C" stroke-width="5" stroke-linecap="round" stroke-linejoin="round" d="M86.2,176.1
		c-1.2-0.5-2.5,0-3.6,0.6c-14.1,7-27.8,14.7-41.1,23.1c-1.5,0.9-3.2,1.6-4.9,2c-0.4,0.1-0.6,0.7-0.3,0.9s0.8-0.3,0.5-0.6"/>
	<path fill="none" stroke="#FFD876" stroke-width="7" stroke-linecap="round" stroke-linejoin="round" d="M86.2,176.1
		c-1.2-0.5-2.5,0-3.6,0.6c-14.1,7-27.8,14.7-41.1,23.1c-1.5,0.9-3.2,1.6-4.9,2c-0.4,0.1-0.6,0.7-0.3,0.9s0.8-0.3,0.5-0.6"/>
	<path fill="none" stroke="#FFDD8B" stroke-width="5" stroke-linecap="round" stroke-linejoin="round" d="M86.2,176.1
		c-1.2-0.5-2.5,0-3.6,0.6c-14.1,7-27.8,14.7-41.1,23.1c-1.5,0.9-3.2,1.6-4.9,2c-0.4,0.1-0.6,0.7-0.3,0.9s0.8-0.3,0.5-0.6"/>
	<path fill="none" stroke="#FFE49E" stroke-width="4" stroke-linecap="round" stroke-linejoin="round" d="M86.2,176.1
		c-1.2-0.5-2.5,0-3.6,0.6c-14.1,7-27.8,14.7-41.1,23.1c-1.5,0.9-3.2,1.6-4.9,2c-0.4,0.1-0.6,0.7-0.3,0.9s0.8-0.3,0.5-0.6"/>
	<path fill="none" stroke="#FFEAB3" stroke-width="3" stroke-linecap="round" stroke-linejoin="round" d="M86.2,176.1
		c-1.2-0.5-2.5,0-3.6,0.6c-14.1,7-27.8,14.7-41.1,23.1c-1.5,0.9-3.2,1.6-4.9,2c-0.4,0.1-0.6,0.7-0.3,0.9s0.8-0.3,0.5-0.6"/>
	<path fill="none" stroke="#FFF0C3" stroke-linecap="round" stroke-linejoin="round" d="M86.2,176.1c-1.2-0.5-2.5,0-3.6,0.6
		c-14.1,7-27.8,14.7-41.1,23.1c-1.5,0.9-3.2,1.6-4.9,2c-0.4,0.1-0.6,0.7-0.3,0.9s0.8-0.3,0.5-0.6"/>
</g>
<g>
	<path opacity="0.2" fill="none" stroke="#FFD773" stroke-width="35" stroke-linecap="round" stroke-linejoin="round" d="
		M115.3,205.7c-7.2,10.3-13.2,21.5-18,33.2c-2.4,5.8-4.5,11.9-8,17.1c0.5-0.8,0.9-1.5,1.4-2.3"/>
	<path opacity="0.25" fill="none" stroke="#FFE095" stroke-width="8.5" stroke-linecap="round" stroke-linejoin="round" d="
		M115.3,205.7c-7.2,10.3-13.2,21.5-18,33.2c-2.4,5.8-4.5,11.9-8,17.1c0.5-0.8,0.9-1.5,1.4-2.3"/>
	<path opacity="0.3" fill="none" stroke="#FFD25C" stroke-width="5" stroke-linecap="round" stroke-linejoin="round" d="
		M115.3,205.7c-7.2,10.3-13.2,21.5-18,33.2c-2.4,5.8-4.5,11.9-8,17.1c0.5-0.8,0.9-1.5,1.4-2.3"/>
	<path fill="none" stroke="#FFD876" stroke-width="7" stroke-linecap="round" stroke-linejoin="round" d="M115.3,205.7
		c-7.2,10.3-13.2,21.5-18,33.2c-2.4,5.8-4.5,11.9-8,17.1c0.5-0.8,0.9-1.5,1.4-2.3"/>
	<path fill="none" stroke="#FFDD8B" stroke-width="5" stroke-linecap="round" stroke-linejoin="round" d="M115.3,205.7
		c-7.2,10.3-13.2,21.5-18,33.2c-2.4,5.8-4.5,11.9-8,17.1c0.5-0.8,0.9-1.5,1.4-2.3"/>
	<path fill="none" stroke="#FFE49E" stroke-width="4" stroke-linecap="round" stroke-linejoin="round" d="M115.3,205.7
		c-7.2,10.3-13.2,21.5-18,33.2c-2.4,5.8-4.5,11.9-8,17.1c0.5-0.8,0.9-1.5,1.4-2.3"/>
	<path fill="none" stroke="#FFEAB3" stroke-width="3" stroke-linecap="round" stroke-linejoin="round" d="M115.3,205.7
		c-7.2,10.3-13.2,21.5-18,33.2c-2.4,5.8-4.5,11.9-8,17.1c0.5-0.8,0.9-1.5,1.4-2.3"/>
	<path fill="none" stroke="#FFF0C3" stroke-linecap="round" stroke-linejoin="round" d="M115.3,205.7c-7.2,10.3-13.2,21.5-18,33.2
		c-2.4,5.8-4.5,11.9-8,17.1c0.5-0.8,0.9-1.5,1.4-2.3"/>
</g>
<g>
	<path opacity="0.2" fill="none" stroke="#FFD773" stroke-width="35" stroke-linecap="round" stroke-linejoin="round" d="
		M161.6,216.6c2.8,16.2,6.8,32.2,11.8,47.9c0-0.7-0.1-1.5-0.1-2.2"/>
	<path opacity="0.25" fill="none" stroke="#FFE095" stroke-width="8.5" stroke-linecap="round" stroke-linejoin="round" d="
		M161.6,216.6c2.8,16.2,6.8,32.2,11.8,47.9c0-0.7-0.1-1.5-0.1-2.2"/>
	<path opacity="0.3" fill="none" stroke="#FFD25C" stroke-width="5" stroke-linecap="round" stroke-linejoin="round" d="
		M161.6,216.6c2.8,16.2,6.8,32.2,11.8,47.9c0-0.7-0.1-1.5-0.1-2.2"/>
	<path fill="none" stroke="#FFD876" stroke-width="7" stroke-linecap="round" stroke-linejoin="round" d="M161.6,216.6
		c2.8,16.2,6.8,32.2,11.8,47.9c0-0.7-0.1-1.5-0.1-2.2"/>
	<path fill="none" stroke="#FFDD8B" stroke-width="5" stroke-linecap="round" stroke-linejoin="round" d="M161.6,216.6
		c2.8,16.2,6.8,32.2,11.8,47.9c0-0.7-0.1-1.5-0.1-2.2"/>
	<path fill="none" stroke="#FFE49E" stroke-width="4" stroke-linecap="round" stroke-linejoin="round" d="M161.6,216.6
		c2.8,16.2,6.8,32.2,11.8,47.9c0-0.7-0.1-1.5-0.1-2.2"/>
	<path fill="none" stroke="#FFEAB3" stroke-width="3" stroke-linecap="round" stroke-linejoin="round" d="M161.6,216.6
		c2.8,16.2,6.8,32.2,11.8,47.9c0-0.7-0.1-1.5-0.1-2.2"/>
	<path fill="none" stroke="#FFF0C3" stroke-linecap="round" stroke-linejoin="round" d="M161.6,216.6c2.8,16.2,6.8,32.2,11.8,47.9
		c0-0.7-0.1-1.5-0.1-2.2"/>
</g>
<g>
	<path opacity="0.2" fill="none" stroke="#FFD773" stroke-width="35" stroke-linecap="round" stroke-linejoin="round" d="
		M213.6,205.9c3.5,8,10.2,14,16.2,20.4c7.9,8.5,14.6,18.2,19.8,28.6c-0.5-0.9-1-1.8-1.6-2.7"/>
	<path opacity="0.25" fill="none" stroke="#FFE095" stroke-width="8.5" stroke-linecap="round" stroke-linejoin="round" d="
		M213.6,205.9c3.5,8,10.2,14,16.2,20.4c7.9,8.5,14.6,18.2,19.8,28.6c-0.5-0.9-1-1.8-1.6-2.7"/>
	<path opacity="0.3" fill="none" stroke="#FFD25C" stroke-width="5" stroke-linecap="round" stroke-linejoin="round" d="
		M213.6,205.9c3.5,8,10.2,14,16.2,20.4c7.9,8.5,14.6,18.2,19.8,28.6c-0.5-0.9-1-1.8-1.6-2.7"/>
	<path fill="none" stroke="#FFD876" stroke-width="7" stroke-linecap="round" stroke-linejoin="round" d="M213.6,205.9
		c3.5,8,10.2,14,16.2,20.4c7.9,8.5,14.6,18.2,19.8,28.6c-0.5-0.9-1-1.8-1.6-2.7"/>
	<path fill="none" stroke="#FFDD8B" stroke-width="5" stroke-linecap="round" stroke-linejoin="round" d="M213.6,205.9
		c3.5,8,10.2,14,16.2,20.4c7.9,8.5,14.6,18.2,19.8,28.6c-0.5-0.9-1-1.8-1.6-2.7"/>
	<path fill="none" stroke="#FFE49E" stroke-width="4" stroke-linecap="round" stroke-linejoin="round" d="M213.6,205.9
		c3.5,8,10.2,14,16.2,20.4c7.9,8.5,14.6,18.2,19.8,28.6c-0.5-0.9-1-1.8-1.6-2.7"/>
	<path fill="none" stroke="#FFEAB3" stroke-width="3" stroke-linecap="round" stroke-linejoin="round" d="M213.6,205.9
		c3.5,8,10.2,14,16.2,20.4c7.9,8.5,14.6,18.2,19.8,28.6c-0.5-0.9-1-1.8-1.6-2.7"/>
	<path fill="none" stroke="#FFF0C3" stroke-linecap="round" stroke-linejoin="round" d="M213.6,205.9c3.5,8,10.2,14,16.2,20.4
		c7.9,8.5,14.6,18.2,19.8,28.6c-0.5-0.9-1-1.8-1.6-2.7"/>
</g>
<g>
	<path opacity="0.2" fill="none" stroke="#FFD773" stroke-width="35" stroke-linecap="round" stroke-linejoin="round" d="
		M233.5,166.8c14.7,1.9,29.4,4.1,44.1,6.5"/>
	<path opacity="0.25" fill="none" stroke="#FFE095" stroke-width="8.5" stroke-linecap="round" stroke-linejoin="round" d="
		M233.5,166.8c14.7,1.9,29.4,4.1,44.1,6.5"/>
	<path opacity="0.3" fill="none" stroke="#FFD25C" stroke-width="5" stroke-linecap="round" stroke-linejoin="round" d="
		M233.5,166.8c14.7,1.9,29.4,4.1,44.1,6.5"/>
	<path fill="none" stroke="#FFD876" stroke-width="7" stroke-linecap="round" stroke-linejoin="round" d="M233.5,166.8
		c14.7,1.9,29.4,4.1,44.1,6.5"/>
	<path fill="none" stroke="#FFDD8B" stroke-width="5" stroke-linecap="round" stroke-linejoin="round" d="M233.5,166.8
		c14.7,1.9,29.4,4.1,44.1,6.5"/>
	<path fill="none" stroke="#FFE49E" stroke-width="4" stroke-linecap="round" stroke-linejoin="round" d="M233.5,166.8
		c14.7,1.9,29.4,4.1,44.1,6.5"/>
	<path fill="none" stroke="#FFEAB3" stroke-width="3" stroke-linecap="round" stroke-linejoin="round" d="M233.5,166.8
		c14.7,1.9,29.4,4.1,44.1,6.5"/>
	<path fill="none" stroke="#FFF0C3" stroke-linecap="round" stroke-linejoin="round" d="M233.5,166.8c14.7,1.9,29.4,4.1,44.1,6.5"/>
</g>
<g>
	<path opacity="0.2" fill="none" stroke="#FFD773" stroke-width="35" stroke-linecap="round" stroke-linejoin="round" d="M233,117.1
		c0.1-1.2,1.4-1.9,2.5-2.3c14-5.3,28.3-10,42.7-13.9"/>
	<path opacity="0.25" fill="none" stroke="#FFE095" stroke-width="8.5" stroke-linecap="round" stroke-linejoin="round" d="
		M233,117.1c0.1-1.2,1.4-1.9,2.5-2.3c14-5.3,28.3-10,42.7-13.9"/>
	<path opacity="0.3" fill="none" stroke="#FFD25C" stroke-width="5" stroke-linecap="round" stroke-linejoin="round" d="M233,117.1
		c0.1-1.2,1.4-1.9,2.5-2.3c14-5.3,28.3-10,42.7-13.9"/>
	<path fill="none" stroke="#FFD876" stroke-width="7" stroke-linecap="round" stroke-linejoin="round" d="M233,117.1
		c0.1-1.2,1.4-1.9,2.5-2.3c14-5.3,28.3-10,42.7-13.9"/>
	<path fill="none" stroke="#FFDD8B" stroke-width="5" stroke-linecap="round" stroke-linejoin="round" d="M233,117.1
		c0.1-1.2,1.4-1.9,2.5-2.3c14-5.3,28.3-10,42.7-13.9"/>
	<path fill="none" stroke="#FFE49E" stroke-width="4" stroke-linecap="round" stroke-linejoin="round" d="M233,117.1
		c0.1-1.2,1.4-1.9,2.5-2.3c14-5.3,28.3-10,42.7-13.9"/>
	<path fill="none" stroke="#FFEAB3" stroke-width="3" stroke-linecap="round" stroke-linejoin="round" d="M233,117.1
		c0.1-1.2,1.4-1.9,2.5-2.3c14-5.3,28.3-10,42.7-13.9"/>
	<path fill="none" stroke="#FFF0C3" stroke-linecap="round" stroke-linejoin="round" d="M233,117.1c0.1-1.2,1.4-1.9,2.5-2.3
		c14-5.3,28.3-10,42.7-13.9"/>
</g>
<g>
	<path opacity="0.2" fill="none" stroke="#FFD773" stroke-width="35" stroke-linecap="round" stroke-linejoin="round" d="
		M203.2,81.2c14.7-10.7,29-21.9,43-33.6c-0.7-0.1-1.3-0.1-2-0.2"/>
	<path opacity="0.25" fill="none" stroke="#FFE095" stroke-width="8.5" stroke-linecap="round" stroke-linejoin="round" d="
		M203.2,81.2c14.7-10.7,29-21.9,43-33.6c-0.7-0.1-1.3-0.1-2-0.2"/>
	<path opacity="0.3" fill="none" stroke="#FFD25C" stroke-width="5" stroke-linecap="round" stroke-linejoin="round" d="M203.2,81.2
		c14.7-10.7,29-21.9,43-33.6c-0.7-0.1-1.3-0.1-2-0.2"/>
	<path fill="none" stroke="#FFD876" stroke-width="7" stroke-linecap="round" stroke-linejoin="round" d="M203.2,81.2
		c14.7-10.7,29-21.9,43-33.6c-0.7-0.1-1.3-0.1-2-0.2"/>
	<path fill="none" stroke="#FFDD8B" stroke-width="5" stroke-linecap="round" stroke-linejoin="round" d="M203.2,81.2
		c14.7-10.7,29-21.9,43-33.6c-0.7-0.1-1.3-0.1-2-0.2"/>
	<path fill="none" stroke="#FFE49E" stroke-width="4" stroke-linecap="round" stroke-linejoin="round" d="M203.2,81.2
		c14.7-10.7,29-21.9,43-33.6c-0.7-0.1-1.3-0.1-2-0.2"/>
	<path fill="none" stroke="#FFEAB3" stroke-width="3" stroke-linecap="round" stroke-linejoin="round" d="M203.2,81.2
		c14.7-10.7,29-21.9,43-33.6c-0.7-0.1-1.3-0.1-2-0.2"/>
	<path fill="none" stroke="#FFF0C3" stroke-linecap="round" stroke-linejoin="round" d="M203.2,81.2c14.7-10.7,29-21.9,43-33.6
		c-0.7-0.1-1.3-0.1-2-0.2"/>
</g>
<g>
	<path opacity="0.2" fill="none" stroke="#FFD773" stroke-width="35" stroke-linecap="round" stroke-linejoin="round" d="M167.8,67
		c5-14.7,7.5-30.4,7.4-46"/>
	<path opacity="0.25" fill="none" stroke="#FFE095" stroke-width="8.5" stroke-linecap="round" stroke-linejoin="round" d="
		M167.8,67c5-14.7,7.5-30.4,7.4-46"/>
	<path opacity="0.3" fill="none" stroke="#FFD25C" stroke-width="5" stroke-linecap="round" stroke-linejoin="round" d="M167.8,67
		c5-14.7,7.5-30.4,7.4-46"/>
	<path fill="none" stroke="#FFD876" stroke-width="7" stroke-linecap="round" stroke-linejoin="round" d="M167.8,67
		c5-14.7,7.5-30.4,7.4-46"/>
	<path fill="none" stroke="#FFDD8B" stroke-width="5" stroke-linecap="round" stroke-linejoin="round" d="M167.8,67
		c5-14.7,7.5-30.4,7.4-46"/>
	<path fill="none" stroke="#FFE49E" stroke-width="4" stroke-linecap="round" stroke-linejoin="round" d="M167.8,67
		c5-14.7,7.5-30.4,7.4-46"/>
	<path fill="none" stroke="#FFEAB3" stroke-width="3" stroke-linecap="round" stroke-linejoin="round" d="M167.8,67
		c5-14.7,7.5-30.4,7.4-46"/>
	<path fill="none" stroke="#FFF0C3" stroke-linecap="round" stroke-linejoin="round" d="M167.8,67c5-14.7,7.5-30.4,7.4-46"/>
</g>
<g>
	<path opacity="0.2" fill="none" stroke="#FFD773" stroke-width="35" stroke-linecap="round" stroke-linejoin="round" d="M148,85.8
		c-12.2-1.2-24.9,3.9-33,13.4s-11.2,23.1-8.3,35.3c2.4,10.1,8.8,19,16.9,25.2c8.1,6.2,18,9.9,28,11.5c10.2,1.6,21.2,1,30.2-4.3
		c8.9-5.3,15.2-16.2,13.1-26.6c-1.3-6.2-5.2-11.4-9.1-16.2c-3.7-4.5-7.5-9.1-12.4-12.1c-10.4-6.3-24.2-4.2-34.5,2.3
		c-6.4,4-12.2,11.1-10.8,18.6c1.5,7.8,10.1,12,17.9,12.7c9.6,0.9,20.7-2.9,24-12.1c-0.9-0.4-1.7-0.8-2.6-1.1"/>
	<path opacity="0.25" fill="none" stroke="#FFE095" stroke-width="8.5" stroke-linecap="round" stroke-linejoin="round" d="
		M148,85.8c-12.2-1.2-24.9,3.9-33,13.4s-11.2,23.1-8.3,35.3c2.4,10.1,8.8,19,16.9,25.2c8.1,6.2,18,9.9,28,11.5
		c10.2,1.6,21.2,1,30.2-4.3c8.9-5.3,15.2-16.2,13.1-26.6c-1.3-6.2-5.2-11.4-9.1-16.2c-3.7-4.5-7.5-9.1-12.4-12.1
		c-10.4-6.3-24.2-4.2-34.5,2.3c-6.4,4-12.2,11.1-10.8,18.6c1.5,7.8,10.1,12,17.9,12.7c9.6,0.9,20.7-2.9,24-12.1
		c-0.9-0.4-1.7-0.8-2.6-1.1"/>
	<path opacity="0.3" fill="none" stroke="#FFD25C" stroke-width="5" stroke-linecap="round" stroke-linejoin="round" d="M148,85.8
		c-12.2-1.2-24.9,3.9-33,13.4s-11.2,23.1-8.3,35.3c2.4,10.1,8.8,19,16.9,25.2c8.1,6.2,18,9.9,28,11.5c10.2,1.6,21.2,1,30.2-4.3
		c8.9-5.3,15.2-16.2,13.1-26.6c-1.3-6.2-5.2-11.4-9.1-16.2c-3.7-4.5-7.5-9.1-12.4-12.1c-10.4-6.3-24.2-4.2-34.5,2.3
		c-6.4,4-12.2,11.1-10.8,18.6c1.5,7.8,10.1,12,17.9,12.7c9.6,0.9,20.7-2.9,24-12.1c-0.9-0.4-1.7-0.8-2.6-1.1"/>
	<path fill="none" stroke="#FFD876" stroke-width="7" stroke-linecap="round" stroke-linejoin="round" d="M148,85.8
		c-12.2-1.2-24.9,3.9-33,13.4s-11.2,23.1-8.3,35.3c2.4,10.1,8.8,19,16.9,25.2c8.1,6.2,18,9.9,28,11.5c10.2,1.6,21.2,1,30.2-4.3
		c8.9-5.3,15.2-16.2,13.1-26.6c-1.3-6.2-5.2-11.4-9.1-16.2c-3.7-4.5-7.5-9.1-12.4-12.1c-10.4-6.3-24.2-4.2-34.5,2.3
		c-6.4,4-12.2,11.1-10.8,18.6c1.5,7.8,10.1,12,17.9,12.7c9.6,0.9,20.7-2.9,24-12.1c-0.9-0.4-1.7-0.8-2.6-1.1"/>
	<path fill="none" stroke="#FFDD8B" stroke-width="5" stroke-linecap="round" stroke-linejoin="round" d="M148,85.8
		c-12.2-1.2-24.9,3.9-33,13.4s-11.2,23.1-8.3,35.3c2.4,10.1,8.8,19,16.9,25.2c8.1,6.2,18,9.9,28,11.5c10.2,1.6,21.2,1,30.2-4.3
		c8.9-5.3,15.2-16.2,13.1-26.6c-1.3-6.2-5.2-11.4-9.1-16.2c-3.7-4.5-7.5-9.1-12.4-12.1c-10.4-6.3-24.2-4.2-34.5,2.3
		c-6.4,4-12.2,11.1-10.8,18.6c1.5,7.8,10.1,12,17.9,12.7c9.6,0.9,20.7-2.9,24-12.1c-0.9-0.4-1.7-0.8-2.6-1.1"/>
	<path fill="none" stroke="#FFE49E" stroke-width="4" stroke-linecap="round" stroke-linejoin="round" d="M148,85.8
		c-12.2-1.2-24.9,3.9-33,13.4s-11.2,23.1-8.3,35.3c2.4,10.1,8.8,19,16.9,25.2c8.1,6.2,18,9.9,28,11.5c10.2,1.6,21.2,1,30.2-4.3
		c8.9-5.3,15.2-16.2,13.1-26.6c-1.3-6.2-5.2-11.4-9.1-16.2c-3.7-4.5-7.5-9.1-12.4-12.1c-10.4-6.3-24.2-4.2-34.5,2.3
		c-6.4,4-12.2,11.1-10.8,18.6c1.5,7.8,10.1,12,17.9,12.7c9.6,0.9,20.7-2.9,24-12.1c-0.9-0.4-1.7-0.8-2.6-1.1"/>
	<path fill="none" stroke="#FFEAB3" stroke-width="3" stroke-linecap="round" stroke-linejoin="round" d="M148,85.8
		c-12.2-1.2-24.9,3.9-33,13.4s-11.2,23.1-8.3,35.3c2.4,10.1,8.8,19,16.9,25.2c8.1,6.2,18,9.9,28,11.5c10.2,1.6,21.2,1,30.2-4.3
		c8.9-5.3,15.2-16.2,13.1-26.6c-1.3-6.2-5.2-11.4-9.1-16.2c-3.7-4.5-7.5-9.1-12.4-12.1c-10.4-6.3-24.2-4.2-34.5,2.3
		c-6.4,4-12.2,11.1-10.8,18.6c1.5,7.8,10.1,12,17.9,12.7c9.6,0.9,20.7-2.9,24-12.1c-0.9-0.4-1.7-0.8-2.6-1.1"/>
	<path fill="none" stroke="#FFF0C3" stroke-linecap="round" stroke-linejoin="round" d="M148,85.8c-12.2-1.2-24.9,3.9-33,13.4
		s-11.2,23.1-8.3,35.3c2.4,10.1,8.8,19,16.9,25.2c8.1,6.2,18,9.9,28,11.5c10.2,1.6,21.2,1,30.2-4.3c8.9-5.3,15.2-16.2,13.1-26.6
		c-1.3-6.2-5.2-11.4-9.1-16.2c-3.7-4.5-7.5-9.1-12.4-12.1c-10.4-6.3-24.2-4.2-34.5,2.3c-6.4,4-12.2,11.1-10.8,18.6
		c1.5,7.8,10.1,12,17.9,12.7c9.6,0.9,20.7-2.9,24-12.1c-0.9-0.4-1.7-0.8-2.6-1.1"/>
</g>
</svg>
