<?xml version="1.0" encoding="utf-8"?>
<!-- Generator: Adobe Illustrator 19.1.0, SVG Export Plug-In . SVG Version: 6.00 Build 0)  -->
<svg version="1.1" id="Layer_1" xmlns="http://www.w3.org/2000/svg" xmlns:xlink="http://www.w3.org/1999/xlink" x="0px" y="0px"
	 viewBox="0 0 150.9 70.3" style="enable-background:new 0 0 150.9 70.3;" xml:space="preserve">
<g>
	<path opacity="1.0" fill="none" stroke="#fff" stroke-width="3" stroke-linecap="round" stroke-linejoin="round" class="st0" d="M74.3,19.2l40-1.2l30.8,39.6h-30.8V17.9L88.7,6.6l25.6,11.4l0,0L96.5,57.5l7.7,6.8h7l8.2-6.8l-8.2,6.8
		l-1.3-6.8h3.5L29.5,15.4L6.4,35.5L60.6,31V6l-31.1,9.3L6.4,35.5v22h107.9L60.6,6v25L6.4,57.5h8.5c0.4,0,0.9,0.1,1.2,0.4l8.3,6.4h9
		l6.5-6.8H29.5l-5.1,6.8L79.9,19c0,0-16-10.3-18.3-12.9c-0.7-0.9,28.6,0.5,27.2,0.5"/>
</g>
</svg>
