<svg xmlns="http://www.w3.org/2000/svg" viewBox="0 0 300 300"><path fill="none" stroke="#fff" stroke-width="3" stroke-linecap="round" stroke-linejoin="round" d="M142.9 82.4c-20.2-1-39.7 13.5-46.7 32.9s-2.2 42.3 10.6 58.4 32.8 25.2 53 26.5c12.9.8 26.2-1.5 37.4-8s20.3-17.4 23.4-30.3c1.5-6.3 1.6-13 1.6-19.5 0-3 0-6.1-.7-9-.9-3.6-2.8-6.8-4.7-9.9-5-8.3-10.2-16.8-17.6-22.8-4.3-3.5-9.3-6.2-14.4-8.4-13.8-6.1-28.8-9.5-43.8-10M122.5 71.1c-6.2-12.2-12.2-24.5-17.8-37M89.1 95c-15.2-6.3-30.4-12.4-45.7-18.3M73.5 139.6c-16.5-2.1-33.1-4.1-49.6-6.2-.3 0-.7-.1-.8-.4-.1-.3.4-.7.5-.3M86.2 176.1c-1.2-.5-2.5 0-3.6.6-14.1 7-27.8 14.7-41.1 23.1-1.5.9-3.2 1.6-4.9 2-.4.1-.6.7-.3.9s.8-.3.5-.6M115.3 205.7c-7.2 10.3-13.2 21.5-18 33.2-2.4 5.8-4.5 11.9-8 17.1.5-.8.9-1.5 1.4-2.3M161.6 216.6c2.8 16.2 6.8 32.2 11.8 47.9 0-.7-.1-1.5-.1-2.2M213.6 205.9c3.5 8 10.2 14 16.2 20.4 7.9 8.5 14.6 18.2 19.8 28.6-.5-.9-1-1.8-1.6-2.7M233.5 166.8c14.7 1.9 29.4 4.1 44.1 6.5M233 117.1c.1-1.2 1.4-1.9 2.5-2.3 14-5.3 28.3-10 42.7-13.9M203.2 81.2c14.7-10.7 29-21.9 43-33.6-.7-.1-1.3-.1-2-.2M167.8 67c5-14.7 7.5-30.4 7.4-46"/><path fill="none" stroke="#fff" stroke-width="3" stroke-linecap="round" stroke-linejoin="round" d="M148 85.8c-12.2-1.2-24.9 3.9-33 13.4s-11.2 23.1-8.3 35.3c2.4 10.1 8.8 19 16.9 25.2 8.1 6.2 18 9.9 28 11.5 10.2 1.6 21.2 1 30.2-4.3 8.9-5.3 15.2-16.2 13.1-26.6-1.3-6.2-5.2-11.4-9.1-16.2-3.7-4.5-7.5-9.1-12.4-12.1-10.4-6.3-24.2-4.2-34.5 2.3-6.4 4-12.2 11.1-10.8 18.6 1.5 7.8 10.1 12 17.9 12.7 9.6.9 20.7-2.9 24-12.1-.9-.4-1.7-.8-2.6-1.1"/></svg>