<svg id="Layer_1" xmlns="http://www.w3.org/2000/svg" viewBox="0 0 42 41.2"><style>.Chartreuse_x0020_Neon{fill:none;stroke:#b0d35a;stroke-width:7;stroke-linecap:round;stroke-linejoin:round}.st0{opacity:.2;stroke:#b0d35a;stroke-width:7}.st0,.st1{fill:none;stroke-linecap:round;stroke-linejoin:round}.st1{opacity:.25;stroke:#bad64d;stroke-width:6}.st2{opacity:.3;stroke-width:5}.st2,.st3{fill:none;stroke:#b2d339;stroke-linecap:round;stroke-linejoin:round}.st3{stroke-width:4}.st4{stroke:#bdd756;stroke-width:3.25}.st4,.st5{fill:none;stroke-linecap:round;stroke-linejoin:round}.st5{stroke:#cbdf7f;stroke-width:2.5}.st6{stroke:#d6e59a;stroke-width:1.65}.st6,.st7{fill:none;stroke-linecap:round;stroke-linejoin:round}.st7{stroke:#dfecc1;stroke-width:.65}</style><path class="st0" d="M5.5 4.8H37v31.5H5.5z"/><path class="st1" d="M5.5 4.8H37v31.5H5.5z"/><path class="st2" d="M5.5 4.8H37v31.5H5.5z"/><path class="st3" d="M5.5 4.8H37v31.5H5.5z"/><path class="st4" d="M5.5 4.8H37v31.5H5.5z"/><path class="st5" d="M5.5 4.8H37v31.5H5.5z"/><path class="st6" d="M5.5 4.8H37v31.5H5.5z"/><path class="st7" d="M5.5 4.8H37v31.5H5.5z"/><g><path class="st0" d="M5.5 36.2L37 4.8 5.5 36.2z"/><path class="st1" d="M5.5 36.2L37 4.8 5.5 36.2z"/><path class="st2" d="M5.5 36.2L37 4.8 5.5 36.2z"/><path class="st3" d="M5.5 36.2L37 4.8 5.5 36.2z"/><path class="st4" d="M5.5 36.2L37 4.8 5.5 36.2z"/><path class="st5" d="M5.5 36.2L37 4.8 5.5 36.2z"/><path class="st6" d="M5.5 36.2L37 4.8 5.5 36.2z"/><path class="st7" d="M5.5 36.2L37 4.8 5.5 36.2z"/></g></svg>