<svg id="Layer_1" xmlns="http://www.w3.org/2000/svg" viewBox="0 0 200 110"><style>.st0{fill:#354444}</style><path class="st0" d="M189 76.9v-3l4.5-1.3 3.4-13.5-4.2-4.1 2.8-14.3-2.4-2.1 4.8-11.6-7.9-10.2.8-3.2-10.7-10.9-11 2.9-4.7-2.8-4 2.3-5-3.3-13.2 6.5-.4 7-7.4-3.9-11.3 7.2.1-.9-15.5-11.1-11.6 5.2L84 7l-4.5 3.5-.6-5.4-1.9-.8L72.3.6l-5.6 2.3-.3 2.1-.1.1L60.9 3 59 4.4h-4.7l-.2-.3h-7.2l-.7 1.3h-.1l-3.3 5.8-5.9-10.1H14.6L3.4 20.5l4.5 7.8L4.6 34l4.7 8.2H6.5l-5.2 9L4.6 57l-1.9 3.3.5.8L1 65l4.4 7.6-2.6 1.6v3.7l.1 2.6.3.2-.4.3 1.4 9.5L2.8 92l2.5 8.9 8.9 2.2 4.7 1.9 9.9-8-1.4-8.3 1.5.8.9 6.6 21.4 8.8 3-2.3 14.1 5.8 7.2-5.5 8.8 5.3L104.2 97l.1-1.2 4.6 2.7h.1l.4 2.1 21.8 7.2 8.4-7.6 9.9 5 7.5-4.9 6.7 4.1 5.9-3.3 6.4 6.6 17.2-4.5L198 86z"/></svg>