<svg xmlns="http://www.w3.org/2000/svg" viewBox="0 0 300 300"><g fill="none" stroke-linecap="round" stroke-linejoin="round"><path opacity=".2" stroke="#009E4D" stroke-width="10" d="M116.3 105.4c-11.5-5.4-25.1-4.7-37-.4-11.9 4.3-22.3 12-31.9 20.3 0-12.5 6.5-24.5 16-32.6S85.2 80.3 97.6 79C76.3 68.9 53.3 62.2 29.8 59.5c8.8-6.5 20.4-7.4 31.3-7.6 20.8-.4 42.1.9 61.4 8.5-7.5-14.5-17-28-28.1-39.9 22 2.9 42.5 16.1 54.3 34.9 5.7-12.6 11.8-25 18.2-37.3 4.1 14 6.7 28.5 7.7 43.1 17.8-22.7 52.3-30.1 77.8-16.8-29.5 3.7-57.9 15.6-81.3 34 24.1 3.3 46.5 17.9 59.2 38.7-9.1-6.7-20.6-9.1-31.7-10.6-14-2-28.1-2.9-42.3-3-2.1 0-4.3.1-6.1 1.2-2.9 1.8-3.6 5.6-3.9 9-4.6 44.1 1.7 89.3 18.3 130.4 3.8 9.4 8.2 18.9 9.3 29 .2 1.7.3 3.5-.6 5-.9 1.6-2.7 2.6-4.4 3.3-13.3 5.9-28.5 7.7-42.8 4.9-2.3-.4-4.7-1.1-6-3-1.1-1.6-1.2-3.6-1.2-5.5l-.6-25.8c-.6-27-1.3-54 .6-80.9 1.3-18.2 3.6-37.3-3.5-54.1"/><path opacity=".25" stroke="#009E4D" stroke-width="8.5" d="M116.3 105.4c-11.5-5.4-25.1-4.7-37-.4-11.9 4.3-22.3 12-31.9 20.3 0-12.5 6.5-24.5 16-32.6S85.2 80.3 97.6 79C76.3 68.9 53.3 62.2 29.8 59.5c8.8-6.5 20.4-7.4 31.3-7.6 20.8-.4 42.1.9 61.4 8.5-7.5-14.5-17-28-28.1-39.9 22 2.9 42.5 16.1 54.3 34.9 5.7-12.6 11.8-25 18.2-37.3 4.1 14 6.7 28.5 7.7 43.1 17.8-22.7 52.3-30.1 77.8-16.8-29.5 3.7-57.9 15.6-81.3 34 24.1 3.3 46.5 17.9 59.2 38.7-9.1-6.7-20.6-9.1-31.7-10.6-14-2-28.1-2.9-42.3-3-2.1 0-4.3.1-6.1 1.2-2.9 1.8-3.6 5.6-3.9 9-4.6 44.1 1.7 89.3 18.3 130.4 3.8 9.4 8.2 18.9 9.3 29 .2 1.7.3 3.5-.6 5-.9 1.6-2.7 2.6-4.4 3.3-13.3 5.9-28.5 7.7-42.8 4.9-2.3-.4-4.7-1.1-6-3-1.1-1.6-1.2-3.6-1.2-5.5l-.6-25.8c-.6-27-1.3-54 .6-80.9 1.3-18.2 3.6-37.3-3.5-54.1"/><path opacity=".3" stroke="#009E4D" stroke-width="5" d="M116.3 105.4c-11.5-5.4-25.1-4.7-37-.4-11.9 4.3-22.3 12-31.9 20.3 0-12.5 6.5-24.5 16-32.6S85.2 80.3 97.6 79C76.3 68.9 53.3 62.2 29.8 59.5c8.8-6.5 20.4-7.4 31.3-7.6 20.8-.4 42.1.9 61.4 8.5-7.5-14.5-17-28-28.1-39.9 22 2.9 42.5 16.1 54.3 34.9 5.7-12.6 11.8-25 18.2-37.3 4.1 14 6.7 28.5 7.7 43.1 17.8-22.7 52.3-30.1 77.8-16.8-29.5 3.7-57.9 15.6-81.3 34 24.1 3.3 46.5 17.9 59.2 38.7-9.1-6.7-20.6-9.1-31.7-10.6-14-2-28.1-2.9-42.3-3-2.1 0-4.3.1-6.1 1.2-2.9 1.8-3.6 5.6-3.9 9-4.6 44.1 1.7 89.3 18.3 130.4 3.8 9.4 8.2 18.9 9.3 29 .2 1.7.3 3.5-.6 5-.9 1.6-2.7 2.6-4.4 3.3-13.3 5.9-28.5 7.7-42.8 4.9-2.3-.4-4.7-1.1-6-3-1.1-1.6-1.2-3.6-1.2-5.5l-.6-25.8c-.6-27-1.3-54 .6-80.9 1.3-18.2 3.6-37.3-3.5-54.1"/><path stroke="#00A355" stroke-width="7" d="M116.3 105.4c-11.5-5.4-25.1-4.7-37-.4-11.9 4.3-22.3 12-31.9 20.3 0-12.5 6.5-24.5 16-32.6S85.2 80.3 97.6 79C76.3 68.9 53.3 62.2 29.8 59.5c8.8-6.5 20.4-7.4 31.3-7.6 20.8-.4 42.1.9 61.4 8.5-7.5-14.5-17-28-28.1-39.9 22 2.9 42.5 16.1 54.3 34.9 5.7-12.6 11.8-25 18.2-37.3 4.1 14 6.7 28.5 7.7 43.1 17.8-22.7 52.3-30.1 77.8-16.8-29.5 3.7-57.9 15.6-81.3 34 24.1 3.3 46.5 17.9 59.2 38.7-9.1-6.7-20.6-9.1-31.7-10.6-14-2-28.1-2.9-42.3-3-2.1 0-4.3.1-6.1 1.2-2.9 1.8-3.6 5.6-3.9 9-4.6 44.1 1.7 89.3 18.3 130.4 3.8 9.4 8.2 18.9 9.3 29 .2 1.7.3 3.5-.6 5-.9 1.6-2.7 2.6-4.4 3.3-13.3 5.9-28.5 7.7-42.8 4.9-2.3-.4-4.7-1.1-6-3-1.1-1.6-1.2-3.6-1.2-5.5l-.6-25.8c-.6-27-1.3-54 .6-80.9 1.3-18.2 3.6-37.3-3.5-54.1"/><path stroke="#3CAD6A" stroke-width="5.5" d="M116.3 105.4c-11.5-5.4-25.1-4.7-37-.4-11.9 4.3-22.3 12-31.9 20.3 0-12.5 6.5-24.5 16-32.6S85.2 80.3 97.6 79C76.3 68.9 53.3 62.2 29.8 59.5c8.8-6.5 20.4-7.4 31.3-7.6 20.8-.4 42.1.9 61.4 8.5-7.5-14.5-17-28-28.1-39.9 22 2.9 42.5 16.1 54.3 34.9 5.7-12.6 11.8-25 18.2-37.3 4.1 14 6.7 28.5 7.7 43.1 17.8-22.7 52.3-30.1 77.8-16.8-29.5 3.7-57.9 15.6-81.3 34 24.1 3.3 46.5 17.9 59.2 38.7-9.1-6.7-20.6-9.1-31.7-10.6-14-2-28.1-2.9-42.3-3-2.1 0-4.3.1-6.1 1.2-2.9 1.8-3.6 5.6-3.9 9-4.6 44.1 1.7 89.3 18.3 130.4 3.8 9.4 8.2 18.9 9.3 29 .2 1.7.3 3.5-.6 5-.9 1.6-2.7 2.6-4.4 3.3-13.3 5.9-28.5 7.7-42.8 4.9-2.3-.4-4.7-1.1-6-3-1.1-1.6-1.2-3.6-1.2-5.5l-.6-25.8c-.6-27-1.3-54 .6-80.9 1.3-18.2 3.6-37.3-3.5-54.1"/><path stroke="#6CB984" stroke-width="4" d="M116.3 105.4c-11.5-5.4-25.1-4.7-37-.4-11.9 4.3-22.3 12-31.9 20.3 0-12.5 6.5-24.5 16-32.6S85.2 80.3 97.6 79C76.3 68.9 53.3 62.2 29.8 59.5c8.8-6.5 20.4-7.4 31.3-7.6 20.8-.4 42.1.9 61.4 8.5-7.5-14.5-17-28-28.1-39.9 22 2.9 42.5 16.1 54.3 34.9 5.7-12.6 11.8-25 18.2-37.3 4.1 14 6.7 28.5 7.7 43.1 17.8-22.7 52.3-30.1 77.8-16.8-29.5 3.7-57.9 15.6-81.3 34 24.1 3.3 46.5 17.9 59.2 38.7-9.1-6.7-20.6-9.1-31.7-10.6-14-2-28.1-2.9-42.3-3-2.1 0-4.3.1-6.1 1.2-2.9 1.8-3.6 5.6-3.9 9-4.6 44.1 1.7 89.3 18.3 130.4 3.8 9.4 8.2 18.9 9.3 29 .2 1.7.3 3.5-.6 5-.9 1.6-2.7 2.6-4.4 3.3-13.3 5.9-28.5 7.7-42.8 4.9-2.3-.4-4.7-1.1-6-3-1.1-1.6-1.2-3.6-1.2-5.5l-.6-25.8c-.6-27-1.3-54 .6-80.9 1.3-18.2 3.6-37.3-3.5-54.1"/><path stroke="#8FC69C" stroke-width="2.5" d="M116.3 105.4c-11.5-5.4-25.1-4.7-37-.4-11.9 4.3-22.3 12-31.9 20.3 0-12.5 6.5-24.5 16-32.6S85.2 80.3 97.6 79C76.3 68.9 53.3 62.2 29.8 59.5c8.8-6.5 20.4-7.4 31.3-7.6 20.8-.4 42.1.9 61.4 8.5-7.5-14.5-17-28-28.1-39.9 22 2.9 42.5 16.1 54.3 34.9 5.7-12.6 11.8-25 18.2-37.3 4.1 14 6.7 28.5 7.7 43.1 17.8-22.7 52.3-30.1 77.8-16.8-29.5 3.7-57.9 15.6-81.3 34 24.1 3.3 46.5 17.9 59.2 38.7-9.1-6.7-20.6-9.1-31.7-10.6-14-2-28.1-2.9-42.3-3-2.1 0-4.3.1-6.1 1.2-2.9 1.8-3.6 5.6-3.9 9-4.6 44.1 1.7 89.3 18.3 130.4 3.8 9.4 8.2 18.9 9.3 29 .2 1.7.3 3.5-.6 5-.9 1.6-2.7 2.6-4.4 3.3-13.3 5.9-28.5 7.7-42.8 4.9-2.3-.4-4.7-1.1-6-3-1.1-1.6-1.2-3.6-1.2-5.5l-.6-25.8c-.6-27-1.3-54 .6-80.9 1.3-18.2 3.6-37.3-3.5-54.1"/><path stroke="#B6D8BF" d="M116.3 105.4c-11.5-5.4-25.1-4.7-37-.4-11.9 4.3-22.3 12-31.9 20.3 0-12.5 6.5-24.5 16-32.6S85.2 80.3 97.6 79C76.3 68.9 53.3 62.2 29.8 59.5c8.8-6.5 20.4-7.4 31.3-7.6 20.8-.4 42.1.9 61.4 8.5-7.5-14.5-17-28-28.1-39.9 22 2.9 42.5 16.1 54.3 34.9 5.7-12.6 11.8-25 18.2-37.3 4.1 14 6.7 28.5 7.7 43.1 17.8-22.7 52.3-30.1 77.8-16.8-29.5 3.7-57.9 15.6-81.3 34 24.1 3.3 46.5 17.9 59.2 38.7-9.1-6.7-20.6-9.1-31.7-10.6-14-2-28.1-2.9-42.3-3-2.1 0-4.3.1-6.1 1.2-2.9 1.8-3.6 5.6-3.9 9-4.6 44.1 1.7 89.3 18.3 130.4 3.8 9.4 8.2 18.9 9.3 29 .2 1.7.3 3.5-.6 5-.9 1.6-2.7 2.6-4.4 3.3-13.3 5.9-28.5 7.7-42.8 4.9-2.3-.4-4.7-1.1-6-3-1.1-1.6-1.2-3.6-1.2-5.5l-.6-25.8c-.6-27-1.3-54 .6-80.9 1.3-18.2 3.6-37.3-3.5-54.1"/><g opacity=".2" stroke="#B2D339" stroke-width="20"><path d="M116.3 105.4c-11.5-5.4-25.1-4.7-37-.4-11.9 4.3-22.3 12-31.9 20.3 0-12.5 6.5-24.5 16-32.6S85.2 80.3 97.6 79C76.3 68.9 53.3 62.2 29.8 59.5c8.8-6.5 20.4-7.4 31.3-7.6 20.8-.4 42.1.9 61.4 8.5-7.5-14.5-17-28-28.1-39.9 22 2.9 42.5 16.1 54.3 34.9 5.7-12.6 11.8-25 18.2-37.3 4.1 14 6.7 28.5 7.7 43.1 17.8-22.7 52.3-30.1 77.8-16.8-29.5 3.7-57.9 15.6-81.3 34 24.1 3.3 46.5 17.9 59.2 38.7-9.1-6.7-20.6-9.1-31.7-10.6-14-2-28.1-2.9-42.3-3-2.1 0-4.3.1-6.1 1.2-2.9 1.8-3.6 5.6-3.9 9-4.6 44.1 1.7 89.3 18.3 130.4 3.8 9.4 8.2 18.9 9.3 29 .2 1.7.3 3.5-.6 5-.9 1.6-2.7 2.6-4.4 3.3-13.3 5.9-28.5 7.7-42.8 4.9-2.3-.4-4.7-1.1-6-3-1.1-1.6-1.2-3.6-1.2-5.5l-.6-25.8c-.6-27-1.3-54 .6-80.9 1.3-18.2 3.6-37.3-3.5-54.1"/><path d="M116.3 105.4c-11.5-5.4-25.1-4.7-37-.4-11.9 4.3-22.3 12-31.9 20.3 0-12.5 6.5-24.5 16-32.6S85.2 80.3 97.6 79C76.3 68.9 53.3 62.2 29.8 59.5c8.8-6.5 20.4-7.4 31.3-7.6 20.8-.4 42.1.9 61.4 8.5-7.5-14.5-17-28-28.1-39.9 22 2.9 42.5 16.1 54.3 34.9 5.7-12.6 11.8-25 18.2-37.3 4.1 14 6.7 28.5 7.7 43.1 17.8-22.7 52.3-30.1 77.8-16.8-29.5 3.7-57.9 15.6-81.3 34 24.1 3.3 46.5 17.9 59.2 38.7-9.1-6.7-20.6-9.1-31.7-10.6-14-2-28.1-2.9-42.3-3-2.1 0-4.3.1-6.1 1.2-2.9 1.8-3.6 5.6-3.9 9-4.6 44.1 1.7 89.3 18.3 130.4 3.8 9.4 8.2 18.9 9.3 29 .2 1.7.3 3.5-.6 5-.9 1.6-2.7 2.6-4.4 3.3-13.3 5.9-28.5 7.7-42.8 4.9-2.3-.4-4.7-1.1-6-3-1.1-1.6-1.2-3.6-1.2-5.5l-.6-25.8c-.6-27-1.3-54 .6-80.9 1.3-18.2 3.6-37.3-3.5-54.1"/><path d="M116.3 105.4c-11.5-5.4-25.1-4.7-37-.4-11.9 4.3-22.3 12-31.9 20.3 0-12.5 6.5-24.5 16-32.6S85.2 80.3 97.6 79C76.3 68.9 53.3 62.2 29.8 59.5c8.8-6.5 20.4-7.4 31.3-7.6 20.8-.4 42.1.9 61.4 8.5-7.5-14.5-17-28-28.1-39.9 22 2.9 42.5 16.1 54.3 34.9 5.7-12.6 11.8-25 18.2-37.3 4.1 14 6.7 28.5 7.7 43.1 17.8-22.7 52.3-30.1 77.8-16.8-29.5 3.7-57.9 15.6-81.3 34 24.1 3.3 46.5 17.9 59.2 38.7-9.1-6.7-20.6-9.1-31.7-10.6-14-2-28.1-2.9-42.3-3-2.1 0-4.3.1-6.1 1.2-2.9 1.8-3.6 5.6-3.9 9-4.6 44.1 1.7 89.3 18.3 130.4 3.8 9.4 8.2 18.9 9.3 29 .2 1.7.3 3.5-.6 5-.9 1.6-2.7 2.6-4.4 3.3-13.3 5.9-28.5 7.7-42.8 4.9-2.3-.4-4.7-1.1-6-3-1.1-1.6-1.2-3.6-1.2-5.5l-.6-25.8c-.6-27-1.3-54 .6-80.9 1.3-18.2 3.6-37.3-3.5-54.1"/><path d="M116.3 105.4c-11.5-5.4-25.1-4.7-37-.4-11.9 4.3-22.3 12-31.9 20.3 0-12.5 6.5-24.5 16-32.6S85.2 80.3 97.6 79C76.3 68.9 53.3 62.2 29.8 59.5c8.8-6.5 20.4-7.4 31.3-7.6 20.8-.4 42.1.9 61.4 8.5-7.5-14.5-17-28-28.1-39.9 22 2.9 42.5 16.1 54.3 34.9 5.7-12.6 11.8-25 18.2-37.3 4.1 14 6.7 28.5 7.7 43.1 17.8-22.7 52.3-30.1 77.8-16.8-29.5 3.7-57.9 15.6-81.3 34 24.1 3.3 46.5 17.9 59.2 38.7-9.1-6.7-20.6-9.1-31.7-10.6-14-2-28.1-2.9-42.3-3-2.1 0-4.3.1-6.1 1.2-2.9 1.8-3.6 5.6-3.9 9-4.6 44.1 1.7 89.3 18.3 130.4 3.8 9.4 8.2 18.9 9.3 29 .2 1.7.3 3.5-.6 5-.9 1.6-2.7 2.6-4.4 3.3-13.3 5.9-28.5 7.7-42.8 4.9-2.3-.4-4.7-1.1-6-3-1.1-1.6-1.2-3.6-1.2-5.5l-.6-25.8c-.6-27-1.3-54 .6-80.9 1.3-18.2 3.6-37.3-3.5-54.1"/><path d="M116.3 105.4c-11.5-5.4-25.1-4.7-37-.4-11.9 4.3-22.3 12-31.9 20.3 0-12.5 6.5-24.5 16-32.6S85.2 80.3 97.6 79C76.3 68.9 53.3 62.2 29.8 59.5c8.8-6.5 20.4-7.4 31.3-7.6 20.8-.4 42.1.9 61.4 8.5-7.5-14.5-17-28-28.1-39.9 22 2.9 42.5 16.1 54.3 34.9 5.7-12.6 11.8-25 18.2-37.3 4.1 14 6.7 28.5 7.7 43.1 17.8-22.7 52.3-30.1 77.8-16.8-29.5 3.7-57.9 15.6-81.3 34 24.1 3.3 46.5 17.9 59.2 38.7-9.1-6.7-20.6-9.1-31.7-10.6-14-2-28.1-2.9-42.3-3-2.1 0-4.3.1-6.1 1.2-2.9 1.8-3.6 5.6-3.9 9-4.6 44.1 1.7 89.3 18.3 130.4 3.8 9.4 8.2 18.9 9.3 29 .2 1.7.3 3.5-.6 5-.9 1.6-2.7 2.6-4.4 3.3-13.3 5.9-28.5 7.7-42.8 4.9-2.3-.4-4.7-1.1-6-3-1.1-1.6-1.2-3.6-1.2-5.5l-.6-25.8c-.6-27-1.3-54 .6-80.9 1.3-18.2 3.6-37.3-3.5-54.1"/><path d="M116.3 105.4c-11.5-5.4-25.1-4.7-37-.4-11.9 4.3-22.3 12-31.9 20.3 0-12.5 6.5-24.5 16-32.6S85.2 80.3 97.6 79C76.3 68.9 53.3 62.2 29.8 59.5c8.8-6.5 20.4-7.4 31.3-7.6 20.8-.4 42.1.9 61.4 8.5-7.5-14.5-17-28-28.1-39.9 22 2.9 42.5 16.1 54.3 34.9 5.7-12.6 11.8-25 18.2-37.3 4.1 14 6.7 28.5 7.7 43.1 17.8-22.7 52.3-30.1 77.8-16.8-29.5 3.7-57.9 15.6-81.3 34 24.1 3.3 46.5 17.9 59.2 38.7-9.1-6.7-20.6-9.1-31.7-10.6-14-2-28.1-2.9-42.3-3-2.1 0-4.3.1-6.1 1.2-2.9 1.8-3.6 5.6-3.9 9-4.6 44.1 1.7 89.3 18.3 130.4 3.8 9.4 8.2 18.9 9.3 29 .2 1.7.3 3.5-.6 5-.9 1.6-2.7 2.6-4.4 3.3-13.3 5.9-28.5 7.7-42.8 4.9-2.3-.4-4.7-1.1-6-3-1.1-1.6-1.2-3.6-1.2-5.5l-.6-25.8c-.6-27-1.3-54 .6-80.9 1.3-18.2 3.6-37.3-3.5-54.1"/><path d="M116.3 105.4c-11.5-5.4-25.1-4.7-37-.4-11.9 4.3-22.3 12-31.9 20.3 0-12.5 6.5-24.5 16-32.6S85.2 80.3 97.6 79C76.3 68.9 53.3 62.2 29.8 59.5c8.8-6.5 20.4-7.4 31.3-7.6 20.8-.4 42.1.9 61.4 8.5-7.5-14.5-17-28-28.1-39.9 22 2.9 42.5 16.1 54.3 34.9 5.7-12.6 11.8-25 18.2-37.3 4.1 14 6.7 28.5 7.7 43.1 17.8-22.7 52.3-30.1 77.8-16.8-29.5 3.7-57.9 15.6-81.3 34 24.1 3.3 46.5 17.9 59.2 38.7-9.1-6.7-20.6-9.1-31.7-10.6-14-2-28.1-2.9-42.3-3-2.1 0-4.3.1-6.1 1.2-2.9 1.8-3.6 5.6-3.9 9-4.6 44.1 1.7 89.3 18.3 130.4 3.8 9.4 8.2 18.9 9.3 29 .2 1.7.3 3.5-.6 5-.9 1.6-2.7 2.6-4.4 3.3-13.3 5.9-28.5 7.7-42.8 4.9-2.3-.4-4.7-1.1-6-3-1.1-1.6-1.2-3.6-1.2-5.5l-.6-25.8c-.6-27-1.3-54 .6-80.9 1.3-18.2 3.6-37.3-3.5-54.1"/><path d="M116.3 105.4c-11.5-5.4-25.1-4.7-37-.4-11.9 4.3-22.3 12-31.9 20.3 0-12.5 6.5-24.5 16-32.6S85.2 80.3 97.6 79C76.3 68.9 53.3 62.2 29.8 59.5c8.8-6.5 20.4-7.4 31.3-7.6 20.8-.4 42.1.9 61.4 8.5-7.5-14.5-17-28-28.1-39.9 22 2.9 42.5 16.1 54.3 34.9 5.7-12.6 11.8-25 18.2-37.3 4.1 14 6.7 28.5 7.7 43.1 17.8-22.7 52.3-30.1 77.8-16.8-29.5 3.7-57.9 15.6-81.3 34 24.1 3.3 46.5 17.9 59.2 38.7-9.1-6.7-20.6-9.1-31.7-10.6-14-2-28.1-2.9-42.3-3-2.1 0-4.3.1-6.1 1.2-2.9 1.8-3.6 5.6-3.9 9-4.6 44.1 1.7 89.3 18.3 130.4 3.8 9.4 8.2 18.9 9.3 29 .2 1.7.3 3.5-.6 5-.9 1.6-2.7 2.6-4.4 3.3-13.3 5.9-28.5 7.7-42.8 4.9-2.3-.4-4.7-1.1-6-3-1.1-1.6-1.2-3.6-1.2-5.5l-.6-25.8c-.6-27-1.3-54 .6-80.9 1.3-18.2 3.6-37.3-3.5-54.1"/></g><g opacity=".25" stroke="#B2D339" stroke-width="8.5"><path d="M116.3 105.4c-11.5-5.4-25.1-4.7-37-.4-11.9 4.3-22.3 12-31.9 20.3 0-12.5 6.5-24.5 16-32.6S85.2 80.3 97.6 79C76.3 68.9 53.3 62.2 29.8 59.5c8.8-6.5 20.4-7.4 31.3-7.6 20.8-.4 42.1.9 61.4 8.5-7.5-14.5-17-28-28.1-39.9 22 2.9 42.5 16.1 54.3 34.9 5.7-12.6 11.8-25 18.2-37.3 4.1 14 6.7 28.5 7.7 43.1 17.8-22.7 52.3-30.1 77.8-16.8-29.5 3.7-57.9 15.6-81.3 34 24.1 3.3 46.5 17.9 59.2 38.7-9.1-6.7-20.6-9.1-31.7-10.6-14-2-28.1-2.9-42.3-3-2.1 0-4.3.1-6.1 1.2-2.9 1.8-3.6 5.6-3.9 9-4.6 44.1 1.7 89.3 18.3 130.4 3.8 9.4 8.2 18.9 9.3 29 .2 1.7.3 3.5-.6 5-.9 1.6-2.7 2.6-4.4 3.3-13.3 5.9-28.5 7.7-42.8 4.9-2.3-.4-4.7-1.1-6-3-1.1-1.6-1.2-3.6-1.2-5.5l-.6-25.8c-.6-27-1.3-54 .6-80.9 1.3-18.2 3.6-37.3-3.5-54.1"/><path d="M116.3 105.4c-11.5-5.4-25.1-4.7-37-.4-11.9 4.3-22.3 12-31.9 20.3 0-12.5 6.5-24.5 16-32.6S85.2 80.3 97.6 79C76.3 68.9 53.3 62.2 29.8 59.5c8.8-6.5 20.4-7.4 31.3-7.6 20.8-.4 42.1.9 61.4 8.5-7.5-14.5-17-28-28.1-39.9 22 2.9 42.5 16.1 54.3 34.9 5.7-12.6 11.8-25 18.2-37.3 4.1 14 6.7 28.5 7.7 43.1 17.8-22.7 52.3-30.1 77.8-16.8-29.5 3.7-57.9 15.6-81.3 34 24.1 3.3 46.5 17.9 59.2 38.7-9.1-6.7-20.6-9.1-31.7-10.6-14-2-28.1-2.9-42.3-3-2.1 0-4.3.1-6.1 1.2-2.9 1.8-3.6 5.6-3.9 9-4.6 44.1 1.7 89.3 18.3 130.4 3.8 9.4 8.2 18.9 9.3 29 .2 1.7.3 3.5-.6 5-.9 1.6-2.7 2.6-4.4 3.3-13.3 5.9-28.5 7.7-42.8 4.9-2.3-.4-4.7-1.1-6-3-1.1-1.6-1.2-3.6-1.2-5.5l-.6-25.8c-.6-27-1.3-54 .6-80.9 1.3-18.2 3.6-37.3-3.5-54.1"/><path d="M116.3 105.4c-11.5-5.4-25.1-4.7-37-.4-11.9 4.3-22.3 12-31.9 20.3 0-12.5 6.5-24.5 16-32.6S85.2 80.3 97.6 79C76.3 68.9 53.3 62.2 29.8 59.5c8.8-6.5 20.4-7.4 31.3-7.6 20.8-.4 42.1.9 61.4 8.5-7.5-14.5-17-28-28.1-39.9 22 2.9 42.5 16.1 54.3 34.9 5.7-12.6 11.8-25 18.2-37.3 4.1 14 6.7 28.5 7.7 43.1 17.8-22.7 52.3-30.1 77.8-16.8-29.5 3.7-57.9 15.6-81.3 34 24.1 3.3 46.5 17.9 59.2 38.7-9.1-6.7-20.6-9.1-31.7-10.6-14-2-28.1-2.9-42.3-3-2.1 0-4.3.1-6.1 1.2-2.9 1.8-3.6 5.6-3.9 9-4.6 44.1 1.7 89.3 18.3 130.4 3.8 9.4 8.2 18.9 9.3 29 .2 1.7.3 3.5-.6 5-.9 1.6-2.7 2.6-4.4 3.3-13.3 5.9-28.5 7.7-42.8 4.9-2.3-.4-4.7-1.1-6-3-1.1-1.6-1.2-3.6-1.2-5.5l-.6-25.8c-.6-27-1.3-54 .6-80.9 1.3-18.2 3.6-37.3-3.5-54.1"/><path d="M116.3 105.4c-11.5-5.4-25.1-4.7-37-.4-11.9 4.3-22.3 12-31.9 20.3 0-12.5 6.5-24.5 16-32.6S85.2 80.3 97.6 79C76.3 68.9 53.3 62.2 29.8 59.5c8.8-6.5 20.4-7.4 31.3-7.6 20.8-.4 42.1.9 61.4 8.5-7.5-14.5-17-28-28.1-39.9 22 2.9 42.5 16.1 54.3 34.9 5.7-12.6 11.8-25 18.2-37.3 4.1 14 6.7 28.5 7.7 43.1 17.8-22.7 52.3-30.1 77.8-16.8-29.5 3.7-57.9 15.6-81.3 34 24.1 3.3 46.5 17.9 59.2 38.7-9.1-6.7-20.6-9.1-31.7-10.6-14-2-28.1-2.9-42.3-3-2.1 0-4.3.1-6.1 1.2-2.9 1.8-3.6 5.6-3.9 9-4.6 44.1 1.7 89.3 18.3 130.4 3.8 9.4 8.2 18.9 9.3 29 .2 1.7.3 3.5-.6 5-.9 1.6-2.7 2.6-4.4 3.3-13.3 5.9-28.5 7.7-42.8 4.9-2.3-.4-4.7-1.1-6-3-1.1-1.6-1.2-3.6-1.2-5.5l-.6-25.8c-.6-27-1.3-54 .6-80.9 1.3-18.2 3.6-37.3-3.5-54.1"/><path d="M116.3 105.4c-11.5-5.4-25.1-4.7-37-.4-11.9 4.3-22.3 12-31.9 20.3 0-12.5 6.5-24.5 16-32.6S85.2 80.3 97.6 79C76.3 68.9 53.3 62.2 29.8 59.5c8.8-6.5 20.4-7.4 31.3-7.6 20.8-.4 42.1.9 61.4 8.5-7.5-14.5-17-28-28.1-39.9 22 2.9 42.5 16.1 54.3 34.9 5.7-12.6 11.8-25 18.2-37.3 4.1 14 6.7 28.5 7.7 43.1 17.8-22.7 52.3-30.1 77.8-16.8-29.5 3.7-57.9 15.6-81.3 34 24.1 3.3 46.5 17.9 59.2 38.7-9.1-6.7-20.6-9.1-31.7-10.6-14-2-28.1-2.9-42.3-3-2.1 0-4.3.1-6.1 1.2-2.9 1.8-3.6 5.6-3.9 9-4.6 44.1 1.7 89.3 18.3 130.4 3.8 9.4 8.2 18.9 9.3 29 .2 1.7.3 3.5-.6 5-.9 1.6-2.7 2.6-4.4 3.3-13.3 5.9-28.5 7.7-42.8 4.9-2.3-.4-4.7-1.1-6-3-1.1-1.6-1.2-3.6-1.2-5.5l-.6-25.8c-.6-27-1.3-54 .6-80.9 1.3-18.2 3.6-37.3-3.5-54.1"/><path d="M116.3 105.4c-11.5-5.4-25.1-4.7-37-.4-11.9 4.3-22.3 12-31.9 20.3 0-12.5 6.5-24.5 16-32.6S85.2 80.3 97.6 79C76.3 68.9 53.3 62.2 29.8 59.5c8.8-6.5 20.4-7.4 31.3-7.6 20.8-.4 42.1.9 61.4 8.5-7.5-14.5-17-28-28.1-39.9 22 2.9 42.5 16.1 54.3 34.9 5.7-12.6 11.8-25 18.2-37.3 4.1 14 6.7 28.5 7.7 43.1 17.8-22.7 52.3-30.1 77.8-16.8-29.5 3.7-57.9 15.6-81.3 34 24.1 3.3 46.5 17.9 59.2 38.7-9.1-6.7-20.6-9.1-31.7-10.6-14-2-28.1-2.9-42.3-3-2.1 0-4.3.1-6.1 1.2-2.9 1.8-3.6 5.6-3.9 9-4.6 44.1 1.7 89.3 18.3 130.4 3.8 9.4 8.2 18.9 9.3 29 .2 1.7.3 3.5-.6 5-.9 1.6-2.7 2.6-4.4 3.3-13.3 5.9-28.5 7.7-42.8 4.9-2.3-.4-4.7-1.1-6-3-1.1-1.6-1.2-3.6-1.2-5.5l-.6-25.8c-.6-27-1.3-54 .6-80.9 1.3-18.2 3.6-37.3-3.5-54.1"/><path d="M116.3 105.4c-11.5-5.4-25.1-4.7-37-.4-11.9 4.3-22.3 12-31.9 20.3 0-12.5 6.5-24.5 16-32.6S85.2 80.3 97.6 79C76.3 68.9 53.3 62.2 29.8 59.5c8.8-6.5 20.4-7.4 31.3-7.6 20.8-.4 42.1.9 61.4 8.5-7.5-14.5-17-28-28.1-39.9 22 2.9 42.5 16.1 54.3 34.9 5.7-12.6 11.8-25 18.2-37.3 4.1 14 6.7 28.5 7.7 43.1 17.8-22.7 52.3-30.1 77.8-16.8-29.5 3.7-57.9 15.6-81.3 34 24.1 3.3 46.5 17.9 59.2 38.7-9.1-6.7-20.6-9.1-31.7-10.6-14-2-28.1-2.9-42.3-3-2.1 0-4.3.1-6.1 1.2-2.9 1.8-3.6 5.6-3.9 9-4.6 44.1 1.7 89.3 18.3 130.4 3.8 9.4 8.2 18.9 9.3 29 .2 1.7.3 3.5-.6 5-.9 1.6-2.7 2.6-4.4 3.3-13.3 5.9-28.5 7.7-42.8 4.9-2.3-.4-4.7-1.1-6-3-1.1-1.6-1.2-3.6-1.2-5.5l-.6-25.8c-.6-27-1.3-54 .6-80.9 1.3-18.2 3.6-37.3-3.5-54.1"/><path d="M116.3 105.4c-11.5-5.4-25.1-4.7-37-.4-11.9 4.3-22.3 12-31.9 20.3 0-12.5 6.5-24.5 16-32.6S85.2 80.3 97.6 79C76.3 68.9 53.3 62.2 29.8 59.5c8.8-6.5 20.4-7.4 31.3-7.6 20.8-.4 42.1.9 61.4 8.5-7.5-14.5-17-28-28.1-39.9 22 2.9 42.5 16.1 54.3 34.9 5.7-12.6 11.8-25 18.2-37.3 4.1 14 6.7 28.5 7.7 43.1 17.8-22.7 52.3-30.1 77.8-16.8-29.5 3.7-57.9 15.6-81.3 34 24.1 3.3 46.5 17.9 59.2 38.7-9.1-6.7-20.6-9.1-31.7-10.6-14-2-28.1-2.9-42.3-3-2.1 0-4.3.1-6.1 1.2-2.9 1.8-3.6 5.6-3.9 9-4.6 44.1 1.7 89.3 18.3 130.4 3.8 9.4 8.2 18.9 9.3 29 .2 1.7.3 3.5-.6 5-.9 1.6-2.7 2.6-4.4 3.3-13.3 5.9-28.5 7.7-42.8 4.9-2.3-.4-4.7-1.1-6-3-1.1-1.6-1.2-3.6-1.2-5.5l-.6-25.8c-.6-27-1.3-54 .6-80.9 1.3-18.2 3.6-37.3-3.5-54.1"/></g><g opacity=".3" stroke="#B2D339" stroke-width="5"><path d="M116.3 105.4c-11.5-5.4-25.1-4.7-37-.4-11.9 4.3-22.3 12-31.9 20.3 0-12.5 6.5-24.5 16-32.6S85.2 80.3 97.6 79C76.3 68.9 53.3 62.2 29.8 59.5c8.8-6.5 20.4-7.4 31.3-7.6 20.8-.4 42.1.9 61.4 8.5-7.5-14.5-17-28-28.1-39.9 22 2.9 42.5 16.1 54.3 34.9 5.7-12.6 11.8-25 18.2-37.3 4.1 14 6.7 28.5 7.7 43.1 17.8-22.7 52.3-30.1 77.8-16.8-29.5 3.7-57.9 15.6-81.3 34 24.1 3.3 46.5 17.9 59.2 38.7-9.1-6.7-20.6-9.1-31.7-10.6-14-2-28.1-2.9-42.3-3-2.1 0-4.3.1-6.1 1.2-2.9 1.8-3.6 5.6-3.9 9-4.6 44.1 1.7 89.3 18.3 130.4 3.8 9.4 8.2 18.9 9.3 29 .2 1.7.3 3.5-.6 5-.9 1.6-2.7 2.6-4.4 3.3-13.3 5.9-28.5 7.7-42.8 4.9-2.3-.4-4.7-1.1-6-3-1.1-1.6-1.2-3.6-1.2-5.5l-.6-25.8c-.6-27-1.3-54 .6-80.9 1.3-18.2 3.6-37.3-3.5-54.1"/><path d="M116.3 105.4c-11.5-5.4-25.1-4.7-37-.4-11.9 4.3-22.3 12-31.9 20.3 0-12.5 6.5-24.5 16-32.6S85.2 80.3 97.6 79C76.3 68.9 53.3 62.2 29.8 59.5c8.8-6.5 20.4-7.4 31.3-7.6 20.8-.4 42.1.9 61.4 8.5-7.5-14.5-17-28-28.1-39.9 22 2.9 42.5 16.1 54.3 34.9 5.7-12.6 11.8-25 18.2-37.3 4.1 14 6.7 28.5 7.7 43.1 17.8-22.7 52.3-30.1 77.8-16.8-29.5 3.7-57.9 15.6-81.3 34 24.1 3.3 46.5 17.9 59.2 38.7-9.1-6.7-20.6-9.1-31.7-10.6-14-2-28.1-2.9-42.3-3-2.1 0-4.3.1-6.1 1.2-2.9 1.8-3.6 5.6-3.9 9-4.6 44.1 1.7 89.3 18.3 130.4 3.8 9.4 8.2 18.9 9.3 29 .2 1.7.3 3.5-.6 5-.9 1.6-2.7 2.6-4.4 3.3-13.3 5.9-28.5 7.7-42.8 4.9-2.3-.4-4.7-1.1-6-3-1.1-1.6-1.2-3.6-1.2-5.5l-.6-25.8c-.6-27-1.3-54 .6-80.9 1.3-18.2 3.6-37.3-3.5-54.1"/><path d="M116.3 105.4c-11.5-5.4-25.1-4.7-37-.4-11.9 4.3-22.3 12-31.9 20.3 0-12.5 6.5-24.5 16-32.6S85.2 80.3 97.6 79C76.3 68.9 53.3 62.2 29.8 59.5c8.8-6.5 20.4-7.4 31.3-7.6 20.8-.4 42.1.9 61.4 8.5-7.5-14.5-17-28-28.1-39.9 22 2.9 42.5 16.1 54.3 34.9 5.7-12.6 11.8-25 18.2-37.3 4.1 14 6.7 28.5 7.7 43.1 17.8-22.7 52.3-30.1 77.8-16.8-29.5 3.7-57.9 15.6-81.3 34 24.1 3.3 46.5 17.9 59.2 38.7-9.1-6.7-20.6-9.1-31.7-10.6-14-2-28.1-2.9-42.3-3-2.1 0-4.3.1-6.1 1.2-2.9 1.8-3.6 5.6-3.9 9-4.6 44.1 1.7 89.3 18.3 130.4 3.8 9.4 8.2 18.9 9.3 29 .2 1.7.3 3.5-.6 5-.9 1.6-2.7 2.6-4.4 3.3-13.3 5.9-28.5 7.7-42.8 4.9-2.3-.4-4.7-1.1-6-3-1.1-1.6-1.2-3.6-1.2-5.5l-.6-25.8c-.6-27-1.3-54 .6-80.9 1.3-18.2 3.6-37.3-3.5-54.1"/><path d="M116.3 105.4c-11.5-5.4-25.1-4.7-37-.4-11.9 4.3-22.3 12-31.9 20.3 0-12.5 6.5-24.5 16-32.6S85.2 80.3 97.6 79C76.3 68.9 53.3 62.2 29.8 59.5c8.8-6.5 20.4-7.4 31.3-7.6 20.8-.4 42.1.9 61.4 8.5-7.5-14.5-17-28-28.1-39.9 22 2.9 42.5 16.1 54.3 34.9 5.7-12.6 11.8-25 18.2-37.3 4.1 14 6.7 28.5 7.7 43.1 17.8-22.7 52.3-30.1 77.8-16.8-29.5 3.7-57.9 15.6-81.3 34 24.1 3.3 46.5 17.9 59.2 38.7-9.1-6.7-20.6-9.1-31.7-10.6-14-2-28.1-2.9-42.3-3-2.1 0-4.3.1-6.1 1.2-2.9 1.8-3.6 5.6-3.9 9-4.6 44.1 1.7 89.3 18.3 130.4 3.8 9.4 8.2 18.9 9.3 29 .2 1.7.3 3.5-.6 5-.9 1.6-2.7 2.6-4.4 3.3-13.3 5.9-28.5 7.7-42.8 4.9-2.3-.4-4.7-1.1-6-3-1.1-1.6-1.2-3.6-1.2-5.5l-.6-25.8c-.6-27-1.3-54 .6-80.9 1.3-18.2 3.6-37.3-3.5-54.1"/><path d="M116.3 105.4c-11.5-5.4-25.1-4.7-37-.4-11.9 4.3-22.3 12-31.9 20.3 0-12.5 6.5-24.5 16-32.6S85.2 80.3 97.6 79C76.3 68.9 53.3 62.2 29.8 59.5c8.8-6.5 20.4-7.4 31.3-7.6 20.8-.4 42.1.9 61.4 8.5-7.5-14.5-17-28-28.1-39.9 22 2.9 42.5 16.1 54.3 34.9 5.7-12.6 11.8-25 18.2-37.3 4.1 14 6.7 28.5 7.7 43.1 17.8-22.7 52.3-30.1 77.8-16.8-29.5 3.7-57.9 15.6-81.3 34 24.1 3.3 46.5 17.9 59.2 38.7-9.1-6.7-20.6-9.1-31.7-10.6-14-2-28.1-2.9-42.3-3-2.1 0-4.3.1-6.1 1.2-2.9 1.8-3.6 5.6-3.9 9-4.6 44.1 1.7 89.3 18.3 130.4 3.8 9.4 8.2 18.9 9.3 29 .2 1.7.3 3.5-.6 5-.9 1.6-2.7 2.6-4.4 3.3-13.3 5.9-28.5 7.7-42.8 4.9-2.3-.4-4.7-1.1-6-3-1.1-1.6-1.2-3.6-1.2-5.5l-.6-25.8c-.6-27-1.3-54 .6-80.9 1.3-18.2 3.6-37.3-3.5-54.1"/><path d="M116.3 105.4c-11.5-5.4-25.1-4.7-37-.4-11.9 4.3-22.3 12-31.9 20.3 0-12.5 6.5-24.5 16-32.6S85.2 80.3 97.6 79C76.3 68.9 53.3 62.2 29.8 59.5c8.8-6.5 20.4-7.4 31.3-7.6 20.8-.4 42.1.9 61.4 8.5-7.5-14.5-17-28-28.1-39.9 22 2.9 42.5 16.1 54.3 34.9 5.7-12.6 11.8-25 18.2-37.3 4.1 14 6.7 28.5 7.7 43.1 17.8-22.7 52.3-30.1 77.8-16.8-29.5 3.7-57.9 15.6-81.3 34 24.1 3.3 46.5 17.9 59.2 38.7-9.1-6.7-20.6-9.1-31.7-10.6-14-2-28.1-2.9-42.3-3-2.1 0-4.3.1-6.1 1.2-2.9 1.8-3.6 5.6-3.9 9-4.6 44.1 1.7 89.3 18.3 130.4 3.8 9.4 8.2 18.9 9.3 29 .2 1.7.3 3.5-.6 5-.9 1.6-2.7 2.6-4.4 3.3-13.3 5.9-28.5 7.7-42.8 4.9-2.3-.4-4.7-1.1-6-3-1.1-1.6-1.2-3.6-1.2-5.5l-.6-25.8c-.6-27-1.3-54 .6-80.9 1.3-18.2 3.6-37.3-3.5-54.1"/><path d="M116.3 105.4c-11.5-5.4-25.1-4.7-37-.4-11.9 4.3-22.3 12-31.9 20.3 0-12.5 6.5-24.5 16-32.6S85.2 80.3 97.6 79C76.3 68.9 53.3 62.2 29.8 59.5c8.8-6.5 20.4-7.4 31.3-7.6 20.8-.4 42.1.9 61.4 8.5-7.5-14.5-17-28-28.1-39.9 22 2.9 42.5 16.1 54.3 34.9 5.7-12.6 11.8-25 18.2-37.3 4.1 14 6.7 28.5 7.7 43.1 17.8-22.7 52.3-30.1 77.8-16.8-29.5 3.7-57.9 15.6-81.3 34 24.1 3.3 46.5 17.9 59.2 38.7-9.1-6.7-20.6-9.1-31.7-10.6-14-2-28.1-2.9-42.3-3-2.1 0-4.3.1-6.1 1.2-2.9 1.8-3.6 5.6-3.9 9-4.6 44.1 1.7 89.3 18.3 130.4 3.8 9.4 8.2 18.9 9.3 29 .2 1.7.3 3.5-.6 5-.9 1.6-2.7 2.6-4.4 3.3-13.3 5.9-28.5 7.7-42.8 4.9-2.3-.4-4.7-1.1-6-3-1.1-1.6-1.2-3.6-1.2-5.5l-.6-25.8c-.6-27-1.3-54 .6-80.9 1.3-18.2 3.6-37.3-3.5-54.1"/><path d="M116.3 105.4c-11.5-5.4-25.1-4.7-37-.4-11.9 4.3-22.3 12-31.9 20.3 0-12.5 6.5-24.5 16-32.6S85.2 80.3 97.6 79C76.3 68.9 53.3 62.2 29.8 59.5c8.8-6.5 20.4-7.4 31.3-7.6 20.8-.4 42.1.9 61.4 8.5-7.5-14.5-17-28-28.1-39.9 22 2.9 42.5 16.1 54.3 34.9 5.7-12.6 11.8-25 18.2-37.3 4.1 14 6.7 28.5 7.7 43.1 17.8-22.7 52.3-30.1 77.8-16.8-29.5 3.7-57.9 15.6-81.3 34 24.1 3.3 46.5 17.9 59.2 38.7-9.1-6.7-20.6-9.1-31.7-10.6-14-2-28.1-2.9-42.3-3-2.1 0-4.3.1-6.1 1.2-2.9 1.8-3.6 5.6-3.9 9-4.6 44.1 1.7 89.3 18.3 130.4 3.8 9.4 8.2 18.9 9.3 29 .2 1.7.3 3.5-.6 5-.9 1.6-2.7 2.6-4.4 3.3-13.3 5.9-28.5 7.7-42.8 4.9-2.3-.4-4.7-1.1-6-3-1.1-1.6-1.2-3.6-1.2-5.5l-.6-25.8c-.6-27-1.3-54 .6-80.9 1.3-18.2 3.6-37.3-3.5-54.1"/></g><g stroke="#B2D339" stroke-width="7"><path d="M116.3 105.4c-11.5-5.4-25.1-4.7-37-.4-11.9 4.3-22.3 12-31.9 20.3 0-12.5 6.5-24.5 16-32.6S85.2 80.3 97.6 79C76.3 68.9 53.3 62.2 29.8 59.5c8.8-6.5 20.4-7.4 31.3-7.6 20.8-.4 42.1.9 61.4 8.5-7.5-14.5-17-28-28.1-39.9 22 2.9 42.5 16.1 54.3 34.9 5.7-12.6 11.8-25 18.2-37.3 4.1 14 6.7 28.5 7.7 43.1 17.8-22.7 52.3-30.1 77.8-16.8-29.5 3.7-57.9 15.6-81.3 34 24.1 3.3 46.5 17.9 59.2 38.7-9.1-6.7-20.6-9.1-31.7-10.6-14-2-28.1-2.9-42.3-3-2.1 0-4.3.1-6.1 1.2-2.9 1.8-3.6 5.6-3.9 9-4.6 44.1 1.7 89.3 18.3 130.4 3.8 9.4 8.2 18.9 9.3 29 .2 1.7.3 3.5-.6 5-.9 1.6-2.7 2.6-4.4 3.3-13.3 5.9-28.5 7.7-42.8 4.9-2.3-.4-4.7-1.1-6-3-1.1-1.6-1.2-3.6-1.2-5.5l-.6-25.8c-.6-27-1.3-54 .6-80.9 1.3-18.2 3.6-37.3-3.5-54.1"/><path d="M116.3 105.4c-11.5-5.4-25.1-4.7-37-.4-11.9 4.3-22.3 12-31.9 20.3 0-12.5 6.5-24.5 16-32.6S85.2 80.3 97.6 79C76.3 68.9 53.3 62.2 29.8 59.5c8.8-6.5 20.4-7.4 31.3-7.6 20.8-.4 42.1.9 61.4 8.5-7.5-14.5-17-28-28.1-39.9 22 2.9 42.5 16.1 54.3 34.9 5.7-12.6 11.8-25 18.2-37.3 4.1 14 6.7 28.5 7.7 43.1 17.8-22.7 52.3-30.1 77.8-16.8-29.5 3.7-57.9 15.6-81.3 34 24.1 3.3 46.5 17.9 59.2 38.7-9.1-6.7-20.6-9.1-31.7-10.6-14-2-28.1-2.9-42.3-3-2.1 0-4.3.1-6.1 1.2-2.9 1.8-3.6 5.6-3.9 9-4.6 44.1 1.7 89.3 18.3 130.4 3.8 9.4 8.2 18.9 9.3 29 .2 1.7.3 3.5-.6 5-.9 1.6-2.7 2.6-4.4 3.3-13.3 5.9-28.5 7.7-42.8 4.9-2.3-.4-4.7-1.1-6-3-1.1-1.6-1.2-3.6-1.2-5.5l-.6-25.8c-.6-27-1.3-54 .6-80.9 1.3-18.2 3.6-37.3-3.5-54.1"/><path d="M116.3 105.4c-11.5-5.4-25.1-4.7-37-.4-11.9 4.3-22.3 12-31.9 20.3 0-12.5 6.5-24.5 16-32.6S85.2 80.3 97.6 79C76.3 68.9 53.3 62.2 29.8 59.5c8.8-6.5 20.4-7.4 31.3-7.6 20.8-.4 42.1.9 61.4 8.5-7.5-14.5-17-28-28.1-39.9 22 2.9 42.5 16.1 54.3 34.9 5.7-12.6 11.8-25 18.2-37.3 4.1 14 6.7 28.5 7.7 43.1 17.8-22.7 52.3-30.1 77.8-16.8-29.5 3.7-57.9 15.6-81.3 34 24.1 3.3 46.5 17.9 59.2 38.7-9.1-6.7-20.6-9.1-31.7-10.6-14-2-28.1-2.9-42.3-3-2.1 0-4.3.1-6.1 1.2-2.9 1.8-3.6 5.6-3.9 9-4.6 44.1 1.7 89.3 18.3 130.4 3.8 9.4 8.2 18.9 9.3 29 .2 1.7.3 3.5-.6 5-.9 1.6-2.7 2.6-4.4 3.3-13.3 5.9-28.5 7.7-42.8 4.9-2.3-.4-4.7-1.1-6-3-1.1-1.6-1.2-3.6-1.2-5.5l-.6-25.8c-.6-27-1.3-54 .6-80.9 1.3-18.2 3.6-37.3-3.5-54.1"/><path d="M116.3 105.4c-11.5-5.4-25.1-4.7-37-.4-11.9 4.3-22.3 12-31.9 20.3 0-12.5 6.5-24.5 16-32.6S85.2 80.3 97.6 79C76.3 68.9 53.3 62.2 29.8 59.5c8.8-6.5 20.4-7.4 31.3-7.6 20.8-.4 42.1.9 61.4 8.5-7.5-14.5-17-28-28.1-39.9 22 2.9 42.5 16.1 54.3 34.9 5.7-12.6 11.8-25 18.2-37.3 4.1 14 6.7 28.5 7.7 43.1 17.8-22.7 52.3-30.1 77.8-16.8-29.5 3.7-57.9 15.6-81.3 34 24.1 3.3 46.5 17.9 59.2 38.7-9.1-6.7-20.6-9.1-31.7-10.6-14-2-28.1-2.9-42.3-3-2.1 0-4.3.1-6.1 1.2-2.9 1.8-3.6 5.6-3.9 9-4.6 44.1 1.7 89.3 18.3 130.4 3.8 9.4 8.2 18.9 9.3 29 .2 1.7.3 3.5-.6 5-.9 1.6-2.7 2.6-4.4 3.3-13.3 5.9-28.5 7.7-42.8 4.9-2.3-.4-4.7-1.1-6-3-1.1-1.6-1.2-3.6-1.2-5.5l-.6-25.8c-.6-27-1.3-54 .6-80.9 1.3-18.2 3.6-37.3-3.5-54.1"/><path d="M116.3 105.4c-11.5-5.4-25.1-4.7-37-.4-11.9 4.3-22.3 12-31.9 20.3 0-12.5 6.5-24.5 16-32.6S85.2 80.3 97.6 79C76.3 68.9 53.3 62.2 29.8 59.5c8.8-6.5 20.4-7.4 31.3-7.6 20.8-.4 42.1.9 61.4 8.5-7.5-14.5-17-28-28.1-39.9 22 2.9 42.5 16.1 54.3 34.9 5.7-12.6 11.8-25 18.2-37.3 4.1 14 6.7 28.5 7.7 43.1 17.8-22.7 52.3-30.1 77.8-16.8-29.5 3.7-57.9 15.6-81.3 34 24.1 3.3 46.5 17.9 59.2 38.7-9.1-6.7-20.6-9.1-31.7-10.6-14-2-28.1-2.9-42.3-3-2.1 0-4.3.1-6.1 1.2-2.9 1.8-3.6 5.6-3.9 9-4.6 44.1 1.7 89.3 18.3 130.4 3.8 9.4 8.2 18.9 9.3 29 .2 1.7.3 3.5-.6 5-.9 1.6-2.7 2.6-4.4 3.3-13.3 5.9-28.5 7.7-42.8 4.9-2.3-.4-4.7-1.1-6-3-1.1-1.6-1.2-3.6-1.2-5.5l-.6-25.8c-.6-27-1.3-54 .6-80.9 1.3-18.2 3.6-37.3-3.5-54.1"/><path d="M116.3 105.4c-11.5-5.4-25.1-4.7-37-.4-11.9 4.3-22.3 12-31.9 20.3 0-12.5 6.5-24.5 16-32.6S85.2 80.3 97.6 79C76.3 68.9 53.3 62.2 29.8 59.5c8.8-6.5 20.4-7.4 31.3-7.6 20.8-.4 42.1.9 61.4 8.5-7.5-14.5-17-28-28.1-39.9 22 2.9 42.5 16.1 54.3 34.9 5.7-12.6 11.8-25 18.2-37.3 4.1 14 6.7 28.5 7.7 43.1 17.8-22.7 52.3-30.1 77.8-16.8-29.5 3.7-57.9 15.6-81.3 34 24.1 3.3 46.5 17.9 59.2 38.7-9.1-6.7-20.6-9.1-31.7-10.6-14-2-28.1-2.9-42.3-3-2.1 0-4.3.1-6.1 1.2-2.9 1.8-3.6 5.6-3.9 9-4.6 44.1 1.7 89.3 18.3 130.4 3.8 9.4 8.2 18.9 9.3 29 .2 1.7.3 3.5-.6 5-.9 1.6-2.7 2.6-4.4 3.3-13.3 5.9-28.5 7.7-42.8 4.9-2.3-.4-4.7-1.1-6-3-1.1-1.6-1.2-3.6-1.2-5.5l-.6-25.8c-.6-27-1.3-54 .6-80.9 1.3-18.2 3.6-37.3-3.5-54.1"/><path d="M116.3 105.4c-11.5-5.4-25.1-4.7-37-.4-11.9 4.3-22.3 12-31.9 20.3 0-12.5 6.5-24.5 16-32.6S85.2 80.3 97.6 79C76.3 68.9 53.3 62.2 29.8 59.5c8.8-6.5 20.4-7.4 31.3-7.6 20.8-.4 42.1.9 61.4 8.5-7.5-14.5-17-28-28.1-39.9 22 2.9 42.5 16.1 54.3 34.9 5.7-12.6 11.8-25 18.2-37.3 4.1 14 6.7 28.5 7.7 43.1 17.8-22.7 52.3-30.1 77.8-16.8-29.5 3.7-57.9 15.6-81.3 34 24.1 3.3 46.5 17.9 59.2 38.7-9.1-6.7-20.6-9.1-31.7-10.6-14-2-28.1-2.9-42.3-3-2.1 0-4.3.1-6.1 1.2-2.9 1.8-3.6 5.6-3.9 9-4.6 44.1 1.7 89.3 18.3 130.4 3.8 9.4 8.2 18.9 9.3 29 .2 1.7.3 3.5-.6 5-.9 1.6-2.7 2.6-4.4 3.3-13.3 5.9-28.5 7.7-42.8 4.9-2.3-.4-4.7-1.1-6-3-1.1-1.6-1.2-3.6-1.2-5.5l-.6-25.8c-.6-27-1.3-54 .6-80.9 1.3-18.2 3.6-37.3-3.5-54.1"/><path d="M116.3 105.4c-11.5-5.4-25.1-4.7-37-.4-11.9 4.3-22.3 12-31.9 20.3 0-12.5 6.5-24.5 16-32.6S85.2 80.3 97.6 79C76.3 68.9 53.3 62.2 29.8 59.5c8.8-6.5 20.4-7.4 31.3-7.6 20.8-.4 42.1.9 61.4 8.5-7.5-14.5-17-28-28.1-39.9 22 2.9 42.5 16.1 54.3 34.9 5.7-12.6 11.8-25 18.2-37.3 4.1 14 6.7 28.5 7.7 43.1 17.8-22.7 52.3-30.1 77.8-16.8-29.5 3.7-57.9 15.6-81.3 34 24.1 3.3 46.5 17.9 59.2 38.7-9.1-6.7-20.6-9.1-31.7-10.6-14-2-28.1-2.9-42.3-3-2.1 0-4.3.1-6.1 1.2-2.9 1.8-3.6 5.6-3.9 9-4.6 44.1 1.7 89.3 18.3 130.4 3.8 9.4 8.2 18.9 9.3 29 .2 1.7.3 3.5-.6 5-.9 1.6-2.7 2.6-4.4 3.3-13.3 5.9-28.5 7.7-42.8 4.9-2.3-.4-4.7-1.1-6-3-1.1-1.6-1.2-3.6-1.2-5.5l-.6-25.8c-.6-27-1.3-54 .6-80.9 1.3-18.2 3.6-37.3-3.5-54.1"/></g><g stroke="#C3DB69" stroke-width="5.5"><path d="M116.3 105.4c-11.5-5.4-25.1-4.7-37-.4-11.9 4.3-22.3 12-31.9 20.3 0-12.5 6.5-24.5 16-32.6S85.2 80.3 97.6 79C76.3 68.9 53.3 62.2 29.8 59.5c8.8-6.5 20.4-7.4 31.3-7.6 20.8-.4 42.1.9 61.4 8.5-7.5-14.5-17-28-28.1-39.9 22 2.9 42.5 16.1 54.3 34.9 5.7-12.6 11.8-25 18.2-37.3 4.1 14 6.7 28.5 7.7 43.1 17.8-22.7 52.3-30.1 77.8-16.8-29.5 3.7-57.9 15.6-81.3 34 24.1 3.3 46.5 17.9 59.2 38.7-9.1-6.7-20.6-9.1-31.7-10.6-14-2-28.1-2.9-42.3-3-2.1 0-4.3.1-6.1 1.2-2.9 1.8-3.6 5.6-3.9 9-4.6 44.1 1.7 89.3 18.3 130.4 3.8 9.4 8.2 18.9 9.3 29 .2 1.7.3 3.5-.6 5-.9 1.6-2.7 2.6-4.4 3.3-13.3 5.9-28.5 7.7-42.8 4.9-2.3-.4-4.7-1.1-6-3-1.1-1.6-1.2-3.6-1.2-5.5l-.6-25.8c-.6-27-1.3-54 .6-80.9 1.3-18.2 3.6-37.3-3.5-54.1"/><path d="M116.3 105.4c-11.5-5.4-25.1-4.7-37-.4-11.9 4.3-22.3 12-31.9 20.3 0-12.5 6.5-24.5 16-32.6S85.2 80.3 97.6 79C76.3 68.9 53.3 62.2 29.8 59.5c8.8-6.5 20.4-7.4 31.3-7.6 20.8-.4 42.1.9 61.4 8.5-7.5-14.5-17-28-28.1-39.9 22 2.9 42.5 16.1 54.3 34.9 5.7-12.6 11.8-25 18.2-37.3 4.1 14 6.7 28.5 7.7 43.1 17.8-22.7 52.3-30.1 77.8-16.8-29.5 3.7-57.9 15.6-81.3 34 24.1 3.3 46.5 17.9 59.2 38.7-9.1-6.7-20.6-9.1-31.7-10.6-14-2-28.1-2.9-42.3-3-2.1 0-4.3.1-6.1 1.2-2.9 1.8-3.6 5.6-3.9 9-4.6 44.1 1.7 89.3 18.3 130.4 3.8 9.4 8.2 18.9 9.3 29 .2 1.7.3 3.5-.6 5-.9 1.6-2.7 2.6-4.4 3.3-13.3 5.9-28.5 7.7-42.8 4.9-2.3-.4-4.7-1.1-6-3-1.1-1.6-1.2-3.6-1.2-5.5l-.6-25.8c-.6-27-1.3-54 .6-80.9 1.3-18.2 3.6-37.3-3.5-54.1"/><path d="M116.3 105.4c-11.5-5.4-25.1-4.7-37-.4-11.9 4.3-22.3 12-31.9 20.3 0-12.5 6.5-24.5 16-32.6S85.2 80.3 97.6 79C76.3 68.9 53.3 62.2 29.8 59.5c8.8-6.5 20.4-7.4 31.3-7.6 20.8-.4 42.1.9 61.4 8.5-7.5-14.5-17-28-28.1-39.9 22 2.9 42.5 16.1 54.3 34.9 5.7-12.6 11.8-25 18.2-37.3 4.1 14 6.7 28.5 7.7 43.1 17.8-22.7 52.3-30.1 77.8-16.8-29.5 3.7-57.9 15.6-81.3 34 24.1 3.3 46.5 17.9 59.2 38.7-9.1-6.7-20.6-9.1-31.7-10.6-14-2-28.1-2.9-42.3-3-2.1 0-4.3.1-6.1 1.2-2.9 1.8-3.6 5.6-3.9 9-4.6 44.1 1.7 89.3 18.3 130.4 3.8 9.4 8.2 18.9 9.3 29 .2 1.7.3 3.5-.6 5-.9 1.6-2.7 2.6-4.4 3.3-13.3 5.9-28.5 7.7-42.8 4.9-2.3-.4-4.7-1.1-6-3-1.1-1.6-1.2-3.6-1.2-5.5l-.6-25.8c-.6-27-1.3-54 .6-80.9 1.3-18.2 3.6-37.3-3.5-54.1"/><path d="M116.3 105.4c-11.5-5.4-25.1-4.7-37-.4-11.9 4.3-22.3 12-31.9 20.3 0-12.5 6.5-24.5 16-32.6S85.2 80.3 97.6 79C76.3 68.9 53.3 62.2 29.8 59.5c8.8-6.5 20.4-7.4 31.3-7.6 20.8-.4 42.1.9 61.4 8.5-7.5-14.5-17-28-28.1-39.9 22 2.9 42.5 16.1 54.3 34.9 5.7-12.6 11.8-25 18.2-37.3 4.1 14 6.7 28.5 7.7 43.1 17.8-22.7 52.3-30.1 77.8-16.8-29.5 3.7-57.9 15.6-81.3 34 24.1 3.3 46.5 17.9 59.2 38.7-9.1-6.7-20.6-9.1-31.7-10.6-14-2-28.1-2.9-42.3-3-2.1 0-4.3.1-6.1 1.2-2.9 1.8-3.6 5.6-3.9 9-4.6 44.1 1.7 89.3 18.3 130.4 3.8 9.4 8.2 18.9 9.3 29 .2 1.7.3 3.5-.6 5-.9 1.6-2.7 2.6-4.4 3.3-13.3 5.9-28.5 7.7-42.8 4.9-2.3-.4-4.7-1.1-6-3-1.1-1.6-1.2-3.6-1.2-5.5l-.6-25.8c-.6-27-1.3-54 .6-80.9 1.3-18.2 3.6-37.3-3.5-54.1"/><path d="M116.3 105.4c-11.5-5.4-25.1-4.7-37-.4-11.9 4.3-22.3 12-31.9 20.3 0-12.5 6.5-24.5 16-32.6S85.2 80.3 97.6 79C76.3 68.9 53.3 62.2 29.8 59.5c8.8-6.5 20.4-7.4 31.3-7.6 20.8-.4 42.1.9 61.4 8.5-7.5-14.5-17-28-28.1-39.9 22 2.9 42.5 16.1 54.3 34.9 5.7-12.6 11.8-25 18.2-37.3 4.1 14 6.7 28.5 7.7 43.1 17.8-22.7 52.3-30.1 77.8-16.8-29.5 3.7-57.9 15.6-81.3 34 24.1 3.3 46.5 17.9 59.2 38.7-9.1-6.7-20.6-9.1-31.7-10.6-14-2-28.1-2.9-42.3-3-2.1 0-4.3.1-6.1 1.2-2.9 1.8-3.6 5.6-3.9 9-4.6 44.1 1.7 89.3 18.3 130.4 3.8 9.4 8.2 18.9 9.3 29 .2 1.7.3 3.5-.6 5-.9 1.6-2.7 2.6-4.4 3.3-13.3 5.9-28.5 7.7-42.8 4.9-2.3-.4-4.7-1.1-6-3-1.1-1.6-1.2-3.6-1.2-5.5l-.6-25.8c-.6-27-1.3-54 .6-80.9 1.3-18.2 3.6-37.3-3.5-54.1"/><path d="M116.3 105.4c-11.5-5.4-25.1-4.7-37-.4-11.9 4.3-22.3 12-31.9 20.3 0-12.5 6.5-24.5 16-32.6S85.2 80.3 97.6 79C76.3 68.9 53.3 62.2 29.8 59.5c8.8-6.5 20.4-7.4 31.3-7.6 20.8-.4 42.1.9 61.4 8.5-7.5-14.5-17-28-28.1-39.9 22 2.9 42.5 16.1 54.3 34.9 5.7-12.6 11.8-25 18.2-37.3 4.1 14 6.7 28.5 7.7 43.1 17.8-22.7 52.3-30.1 77.8-16.8-29.5 3.7-57.9 15.6-81.3 34 24.1 3.3 46.5 17.9 59.2 38.7-9.1-6.7-20.6-9.1-31.7-10.6-14-2-28.1-2.9-42.3-3-2.1 0-4.3.1-6.1 1.2-2.9 1.8-3.6 5.6-3.9 9-4.6 44.1 1.7 89.3 18.3 130.4 3.8 9.4 8.2 18.9 9.3 29 .2 1.7.3 3.5-.6 5-.9 1.6-2.7 2.6-4.4 3.3-13.3 5.9-28.5 7.7-42.8 4.9-2.3-.4-4.7-1.1-6-3-1.1-1.6-1.2-3.6-1.2-5.5l-.6-25.8c-.6-27-1.3-54 .6-80.9 1.3-18.2 3.6-37.3-3.5-54.1"/><path d="M116.3 105.4c-11.5-5.4-25.1-4.7-37-.4-11.9 4.3-22.3 12-31.9 20.3 0-12.5 6.5-24.5 16-32.6S85.2 80.3 97.6 79C76.3 68.9 53.3 62.2 29.8 59.5c8.8-6.5 20.4-7.4 31.3-7.6 20.8-.4 42.1.9 61.4 8.5-7.5-14.5-17-28-28.1-39.9 22 2.9 42.5 16.1 54.3 34.9 5.7-12.6 11.8-25 18.2-37.3 4.1 14 6.7 28.5 7.7 43.1 17.8-22.7 52.3-30.1 77.8-16.8-29.5 3.7-57.9 15.6-81.3 34 24.1 3.3 46.5 17.9 59.2 38.7-9.1-6.7-20.6-9.1-31.7-10.6-14-2-28.1-2.9-42.3-3-2.1 0-4.3.1-6.1 1.2-2.9 1.8-3.6 5.6-3.9 9-4.6 44.1 1.7 89.3 18.3 130.4 3.8 9.4 8.2 18.9 9.3 29 .2 1.7.3 3.5-.6 5-.9 1.6-2.7 2.6-4.4 3.3-13.3 5.9-28.5 7.7-42.8 4.9-2.3-.4-4.7-1.1-6-3-1.1-1.6-1.2-3.6-1.2-5.5l-.6-25.8c-.6-27-1.3-54 .6-80.9 1.3-18.2 3.6-37.3-3.5-54.1"/><path d="M116.3 105.4c-11.5-5.4-25.1-4.7-37-.4-11.9 4.3-22.3 12-31.9 20.3 0-12.5 6.5-24.5 16-32.6S85.2 80.3 97.6 79C76.3 68.9 53.3 62.2 29.8 59.5c8.8-6.5 20.4-7.4 31.3-7.6 20.8-.4 42.1.9 61.4 8.5-7.5-14.5-17-28-28.1-39.9 22 2.9 42.5 16.1 54.3 34.9 5.7-12.6 11.8-25 18.2-37.3 4.1 14 6.7 28.5 7.7 43.1 17.8-22.7 52.3-30.1 77.8-16.8-29.5 3.7-57.9 15.6-81.3 34 24.1 3.3 46.5 17.9 59.2 38.7-9.1-6.7-20.6-9.1-31.7-10.6-14-2-28.1-2.9-42.3-3-2.1 0-4.3.1-6.1 1.2-2.9 1.8-3.6 5.6-3.9 9-4.6 44.1 1.7 89.3 18.3 130.4 3.8 9.4 8.2 18.9 9.3 29 .2 1.7.3 3.5-.6 5-.9 1.6-2.7 2.6-4.4 3.3-13.3 5.9-28.5 7.7-42.8 4.9-2.3-.4-4.7-1.1-6-3-1.1-1.6-1.2-3.6-1.2-5.5l-.6-25.8c-.6-27-1.3-54 .6-80.9 1.3-18.2 3.6-37.3-3.5-54.1"/></g><g stroke="#D2E392" stroke-width="4"><path d="M116.3 105.4c-11.5-5.4-25.1-4.7-37-.4-11.9 4.3-22.3 12-31.9 20.3 0-12.5 6.5-24.5 16-32.6S85.2 80.3 97.6 79C76.3 68.9 53.3 62.2 29.8 59.5c8.8-6.5 20.4-7.4 31.3-7.6 20.8-.4 42.1.9 61.4 8.5-7.5-14.5-17-28-28.1-39.9 22 2.9 42.5 16.1 54.3 34.9 5.7-12.6 11.8-25 18.2-37.3 4.1 14 6.7 28.5 7.7 43.1 17.8-22.7 52.3-30.1 77.8-16.8-29.5 3.7-57.9 15.6-81.3 34 24.1 3.3 46.5 17.9 59.2 38.7-9.1-6.7-20.6-9.1-31.7-10.6-14-2-28.1-2.9-42.3-3-2.1 0-4.3.1-6.1 1.2-2.9 1.8-3.6 5.6-3.9 9-4.6 44.1 1.7 89.3 18.3 130.4 3.8 9.4 8.2 18.9 9.3 29 .2 1.7.3 3.5-.6 5-.9 1.6-2.7 2.6-4.4 3.3-13.3 5.9-28.5 7.7-42.8 4.9-2.3-.4-4.7-1.1-6-3-1.1-1.6-1.2-3.6-1.2-5.5l-.6-25.8c-.6-27-1.3-54 .6-80.9 1.3-18.2 3.6-37.3-3.5-54.1"/><path d="M116.3 105.4c-11.5-5.4-25.1-4.7-37-.4-11.9 4.3-22.3 12-31.9 20.3 0-12.5 6.5-24.5 16-32.6S85.2 80.3 97.6 79C76.3 68.9 53.3 62.2 29.8 59.5c8.8-6.5 20.4-7.4 31.3-7.6 20.8-.4 42.1.9 61.4 8.5-7.5-14.5-17-28-28.1-39.9 22 2.9 42.5 16.1 54.3 34.9 5.7-12.6 11.8-25 18.2-37.3 4.1 14 6.7 28.5 7.7 43.1 17.8-22.7 52.3-30.1 77.8-16.8-29.5 3.7-57.9 15.6-81.3 34 24.1 3.3 46.5 17.9 59.2 38.7-9.1-6.7-20.6-9.1-31.7-10.6-14-2-28.1-2.9-42.3-3-2.1 0-4.3.1-6.1 1.2-2.9 1.8-3.6 5.6-3.9 9-4.6 44.1 1.7 89.3 18.3 130.4 3.8 9.4 8.2 18.9 9.3 29 .2 1.7.3 3.5-.6 5-.9 1.6-2.7 2.6-4.4 3.3-13.3 5.9-28.5 7.7-42.8 4.9-2.3-.4-4.7-1.1-6-3-1.1-1.6-1.2-3.6-1.2-5.5l-.6-25.8c-.6-27-1.3-54 .6-80.9 1.3-18.2 3.6-37.3-3.5-54.1"/><path d="M116.3 105.4c-11.5-5.4-25.1-4.7-37-.4-11.9 4.3-22.3 12-31.9 20.3 0-12.5 6.5-24.5 16-32.6S85.2 80.3 97.6 79C76.3 68.9 53.3 62.2 29.8 59.5c8.8-6.5 20.4-7.4 31.3-7.6 20.8-.4 42.1.9 61.4 8.5-7.5-14.5-17-28-28.1-39.9 22 2.9 42.5 16.1 54.3 34.9 5.7-12.6 11.8-25 18.2-37.3 4.1 14 6.7 28.5 7.7 43.1 17.8-22.7 52.3-30.1 77.8-16.8-29.5 3.7-57.9 15.6-81.3 34 24.1 3.3 46.5 17.9 59.2 38.7-9.1-6.7-20.6-9.1-31.7-10.6-14-2-28.1-2.9-42.3-3-2.1 0-4.3.1-6.1 1.2-2.9 1.8-3.6 5.6-3.9 9-4.6 44.1 1.7 89.3 18.3 130.4 3.8 9.4 8.2 18.9 9.3 29 .2 1.7.3 3.5-.6 5-.9 1.6-2.7 2.6-4.4 3.3-13.3 5.9-28.5 7.7-42.8 4.9-2.3-.4-4.7-1.1-6-3-1.1-1.6-1.2-3.6-1.2-5.5l-.6-25.8c-.6-27-1.3-54 .6-80.9 1.3-18.2 3.6-37.3-3.5-54.1"/><path d="M116.3 105.4c-11.5-5.4-25.1-4.7-37-.4-11.9 4.3-22.3 12-31.9 20.3 0-12.5 6.5-24.5 16-32.6S85.2 80.3 97.6 79C76.3 68.9 53.3 62.2 29.8 59.5c8.8-6.5 20.4-7.4 31.3-7.6 20.8-.4 42.1.9 61.4 8.5-7.5-14.5-17-28-28.1-39.9 22 2.9 42.5 16.1 54.3 34.9 5.7-12.6 11.8-25 18.2-37.3 4.1 14 6.7 28.5 7.7 43.1 17.8-22.7 52.3-30.1 77.8-16.8-29.5 3.7-57.9 15.6-81.3 34 24.1 3.3 46.5 17.9 59.2 38.7-9.1-6.7-20.6-9.1-31.7-10.6-14-2-28.1-2.9-42.3-3-2.1 0-4.3.1-6.1 1.2-2.9 1.8-3.6 5.6-3.9 9-4.6 44.1 1.7 89.3 18.3 130.4 3.8 9.4 8.2 18.9 9.3 29 .2 1.7.3 3.5-.6 5-.9 1.6-2.7 2.6-4.4 3.3-13.3 5.9-28.5 7.7-42.8 4.9-2.3-.4-4.7-1.1-6-3-1.1-1.6-1.2-3.6-1.2-5.5l-.6-25.8c-.6-27-1.3-54 .6-80.9 1.3-18.2 3.6-37.3-3.5-54.1"/><path d="M116.3 105.4c-11.5-5.4-25.1-4.7-37-.4-11.9 4.3-22.3 12-31.9 20.3 0-12.5 6.5-24.5 16-32.6S85.2 80.3 97.6 79C76.3 68.9 53.3 62.2 29.8 59.5c8.8-6.5 20.4-7.4 31.3-7.6 20.8-.4 42.1.9 61.4 8.5-7.5-14.5-17-28-28.1-39.9 22 2.9 42.5 16.1 54.3 34.9 5.7-12.6 11.8-25 18.2-37.3 4.1 14 6.7 28.5 7.7 43.1 17.8-22.7 52.3-30.1 77.8-16.8-29.5 3.7-57.9 15.6-81.3 34 24.1 3.3 46.5 17.9 59.2 38.7-9.1-6.7-20.6-9.1-31.7-10.6-14-2-28.1-2.9-42.3-3-2.1 0-4.3.1-6.1 1.2-2.9 1.8-3.6 5.6-3.9 9-4.6 44.1 1.7 89.3 18.3 130.4 3.8 9.4 8.2 18.9 9.3 29 .2 1.7.3 3.5-.6 5-.9 1.6-2.7 2.6-4.4 3.3-13.3 5.9-28.5 7.7-42.8 4.9-2.3-.4-4.7-1.1-6-3-1.1-1.6-1.2-3.6-1.2-5.5l-.6-25.8c-.6-27-1.3-54 .6-80.9 1.3-18.2 3.6-37.3-3.5-54.1"/><path d="M116.3 105.4c-11.5-5.4-25.1-4.7-37-.4-11.9 4.3-22.3 12-31.9 20.3 0-12.5 6.5-24.5 16-32.6S85.2 80.3 97.6 79C76.3 68.9 53.3 62.2 29.8 59.5c8.8-6.5 20.4-7.4 31.3-7.6 20.8-.4 42.1.9 61.4 8.5-7.5-14.5-17-28-28.1-39.9 22 2.9 42.5 16.1 54.3 34.9 5.7-12.6 11.8-25 18.2-37.3 4.1 14 6.7 28.5 7.7 43.1 17.8-22.7 52.3-30.1 77.8-16.8-29.5 3.7-57.9 15.6-81.3 34 24.1 3.3 46.5 17.9 59.2 38.7-9.1-6.7-20.6-9.1-31.7-10.6-14-2-28.1-2.9-42.3-3-2.1 0-4.3.1-6.1 1.2-2.9 1.8-3.6 5.6-3.9 9-4.6 44.1 1.7 89.3 18.3 130.4 3.8 9.4 8.2 18.9 9.3 29 .2 1.7.3 3.5-.6 5-.9 1.6-2.7 2.6-4.4 3.3-13.3 5.9-28.5 7.7-42.8 4.9-2.3-.4-4.7-1.1-6-3-1.1-1.6-1.2-3.6-1.2-5.5l-.6-25.8c-.6-27-1.3-54 .6-80.9 1.3-18.2 3.6-37.3-3.5-54.1"/><path d="M116.3 105.4c-11.5-5.4-25.1-4.7-37-.4-11.9 4.3-22.3 12-31.9 20.3 0-12.5 6.5-24.5 16-32.6S85.2 80.3 97.6 79C76.3 68.9 53.3 62.2 29.8 59.5c8.8-6.5 20.4-7.4 31.3-7.6 20.8-.4 42.1.9 61.4 8.5-7.5-14.5-17-28-28.1-39.9 22 2.9 42.5 16.1 54.3 34.9 5.7-12.6 11.8-25 18.2-37.3 4.1 14 6.7 28.5 7.7 43.1 17.8-22.7 52.3-30.1 77.8-16.8-29.5 3.7-57.9 15.6-81.3 34 24.1 3.3 46.5 17.9 59.2 38.7-9.1-6.7-20.6-9.1-31.7-10.6-14-2-28.1-2.9-42.3-3-2.1 0-4.3.1-6.1 1.2-2.9 1.8-3.6 5.6-3.9 9-4.6 44.1 1.7 89.3 18.3 130.4 3.8 9.4 8.2 18.9 9.3 29 .2 1.7.3 3.5-.6 5-.9 1.6-2.7 2.6-4.4 3.3-13.3 5.9-28.5 7.7-42.8 4.9-2.3-.4-4.7-1.1-6-3-1.1-1.6-1.2-3.6-1.2-5.5l-.6-25.8c-.6-27-1.3-54 .6-80.9 1.3-18.2 3.6-37.3-3.5-54.1"/><path d="M116.3 105.4c-11.5-5.4-25.1-4.7-37-.4-11.9 4.3-22.3 12-31.9 20.3 0-12.5 6.5-24.5 16-32.6S85.2 80.3 97.6 79C76.3 68.9 53.3 62.2 29.8 59.5c8.8-6.5 20.4-7.4 31.3-7.6 20.8-.4 42.1.9 61.4 8.5-7.5-14.5-17-28-28.1-39.9 22 2.9 42.5 16.1 54.3 34.9 5.7-12.6 11.8-25 18.2-37.3 4.1 14 6.7 28.5 7.7 43.1 17.8-22.7 52.3-30.1 77.8-16.8-29.5 3.7-57.9 15.6-81.3 34 24.1 3.3 46.5 17.9 59.2 38.7-9.1-6.7-20.6-9.1-31.7-10.6-14-2-28.1-2.9-42.3-3-2.1 0-4.3.1-6.1 1.2-2.9 1.8-3.6 5.6-3.9 9-4.6 44.1 1.7 89.3 18.3 130.4 3.8 9.4 8.2 18.9 9.3 29 .2 1.7.3 3.5-.6 5-.9 1.6-2.7 2.6-4.4 3.3-13.3 5.9-28.5 7.7-42.8 4.9-2.3-.4-4.7-1.1-6-3-1.1-1.6-1.2-3.6-1.2-5.5l-.6-25.8c-.6-27-1.3-54 .6-80.9 1.3-18.2 3.6-37.3-3.5-54.1"/></g><g stroke="#DEEBB1" stroke-width="2.5"><path d="M116.3 105.4c-11.5-5.4-25.1-4.7-37-.4-11.9 4.3-22.3 12-31.9 20.3 0-12.5 6.5-24.5 16-32.6S85.2 80.3 97.6 79C76.3 68.9 53.3 62.2 29.8 59.5c8.8-6.5 20.4-7.4 31.3-7.6 20.8-.4 42.1.9 61.4 8.5-7.5-14.5-17-28-28.1-39.9 22 2.9 42.5 16.1 54.3 34.9 5.7-12.6 11.8-25 18.2-37.3 4.1 14 6.7 28.5 7.7 43.1 17.8-22.7 52.3-30.1 77.8-16.8-29.5 3.7-57.9 15.6-81.3 34 24.1 3.3 46.5 17.9 59.2 38.7-9.1-6.7-20.6-9.1-31.7-10.6-14-2-28.1-2.9-42.3-3-2.1 0-4.3.1-6.1 1.2-2.9 1.8-3.6 5.6-3.9 9-4.6 44.1 1.7 89.3 18.3 130.4 3.8 9.4 8.2 18.9 9.3 29 .2 1.7.3 3.5-.6 5-.9 1.6-2.7 2.6-4.4 3.3-13.3 5.9-28.5 7.7-42.8 4.9-2.3-.4-4.7-1.1-6-3-1.1-1.6-1.2-3.6-1.2-5.5l-.6-25.8c-.6-27-1.3-54 .6-80.9 1.3-18.2 3.6-37.3-3.5-54.1"/><path d="M116.3 105.4c-11.5-5.4-25.1-4.7-37-.4-11.9 4.3-22.3 12-31.9 20.3 0-12.5 6.5-24.5 16-32.6S85.2 80.3 97.6 79C76.3 68.9 53.3 62.2 29.8 59.5c8.8-6.5 20.4-7.4 31.3-7.6 20.8-.4 42.1.9 61.4 8.5-7.5-14.5-17-28-28.1-39.9 22 2.9 42.5 16.1 54.3 34.9 5.7-12.6 11.8-25 18.2-37.3 4.1 14 6.7 28.5 7.7 43.1 17.8-22.7 52.3-30.1 77.8-16.8-29.5 3.7-57.9 15.6-81.3 34 24.1 3.3 46.5 17.9 59.2 38.7-9.1-6.7-20.6-9.1-31.7-10.6-14-2-28.1-2.9-42.3-3-2.1 0-4.3.1-6.1 1.2-2.9 1.8-3.6 5.6-3.9 9-4.6 44.1 1.7 89.3 18.3 130.4 3.8 9.4 8.2 18.9 9.3 29 .2 1.7.3 3.5-.6 5-.9 1.6-2.7 2.6-4.4 3.3-13.3 5.9-28.5 7.7-42.8 4.9-2.3-.4-4.7-1.1-6-3-1.1-1.6-1.2-3.6-1.2-5.5l-.6-25.8c-.6-27-1.3-54 .6-80.9 1.3-18.2 3.6-37.3-3.5-54.1"/><path d="M116.3 105.4c-11.5-5.4-25.1-4.7-37-.4-11.9 4.3-22.3 12-31.9 20.3 0-12.5 6.5-24.5 16-32.6S85.2 80.3 97.6 79C76.3 68.9 53.3 62.2 29.8 59.5c8.8-6.5 20.4-7.4 31.3-7.6 20.8-.4 42.1.9 61.4 8.5-7.5-14.5-17-28-28.1-39.9 22 2.9 42.5 16.1 54.3 34.9 5.7-12.6 11.8-25 18.2-37.3 4.1 14 6.7 28.5 7.7 43.1 17.8-22.7 52.3-30.1 77.8-16.8-29.5 3.7-57.9 15.6-81.3 34 24.1 3.3 46.5 17.9 59.2 38.7-9.1-6.7-20.6-9.1-31.7-10.6-14-2-28.1-2.9-42.3-3-2.1 0-4.3.1-6.1 1.2-2.9 1.8-3.6 5.6-3.9 9-4.6 44.1 1.7 89.3 18.3 130.4 3.8 9.4 8.2 18.9 9.3 29 .2 1.7.3 3.5-.6 5-.9 1.6-2.7 2.6-4.4 3.3-13.3 5.9-28.5 7.7-42.8 4.9-2.3-.4-4.7-1.1-6-3-1.1-1.6-1.2-3.6-1.2-5.5l-.6-25.8c-.6-27-1.3-54 .6-80.9 1.3-18.2 3.6-37.3-3.5-54.1"/><path d="M116.3 105.4c-11.5-5.4-25.1-4.7-37-.4-11.9 4.3-22.3 12-31.9 20.3 0-12.5 6.5-24.5 16-32.6S85.2 80.3 97.6 79C76.3 68.9 53.3 62.2 29.8 59.5c8.8-6.5 20.4-7.4 31.3-7.6 20.8-.4 42.1.9 61.4 8.5-7.5-14.5-17-28-28.1-39.9 22 2.9 42.5 16.1 54.3 34.9 5.7-12.6 11.8-25 18.2-37.3 4.1 14 6.7 28.5 7.7 43.1 17.8-22.7 52.3-30.1 77.8-16.8-29.5 3.7-57.9 15.6-81.3 34 24.1 3.3 46.5 17.9 59.2 38.7-9.1-6.7-20.6-9.1-31.7-10.6-14-2-28.1-2.9-42.3-3-2.1 0-4.3.1-6.1 1.2-2.9 1.8-3.6 5.6-3.9 9-4.6 44.1 1.7 89.3 18.3 130.4 3.8 9.4 8.2 18.9 9.3 29 .2 1.7.3 3.5-.6 5-.9 1.6-2.7 2.6-4.4 3.3-13.3 5.9-28.5 7.7-42.8 4.9-2.3-.4-4.7-1.1-6-3-1.1-1.6-1.2-3.6-1.2-5.5l-.6-25.8c-.6-27-1.3-54 .6-80.9 1.3-18.2 3.6-37.3-3.5-54.1"/><path d="M116.3 105.4c-11.5-5.4-25.1-4.7-37-.4-11.9 4.3-22.3 12-31.9 20.3 0-12.5 6.5-24.5 16-32.6S85.2 80.3 97.6 79C76.3 68.9 53.3 62.2 29.8 59.5c8.8-6.5 20.4-7.4 31.3-7.6 20.8-.4 42.1.9 61.4 8.5-7.5-14.5-17-28-28.1-39.9 22 2.9 42.5 16.1 54.3 34.9 5.7-12.6 11.8-25 18.2-37.3 4.1 14 6.7 28.5 7.7 43.1 17.8-22.7 52.3-30.1 77.8-16.8-29.5 3.7-57.9 15.6-81.3 34 24.1 3.3 46.5 17.9 59.2 38.7-9.1-6.7-20.6-9.1-31.7-10.6-14-2-28.1-2.9-42.3-3-2.1 0-4.3.1-6.1 1.2-2.9 1.8-3.6 5.6-3.9 9-4.6 44.1 1.7 89.3 18.3 130.4 3.8 9.4 8.2 18.9 9.3 29 .2 1.7.3 3.5-.6 5-.9 1.6-2.7 2.6-4.4 3.3-13.3 5.9-28.5 7.7-42.8 4.9-2.3-.4-4.7-1.1-6-3-1.1-1.6-1.2-3.6-1.2-5.5l-.6-25.8c-.6-27-1.3-54 .6-80.9 1.3-18.2 3.6-37.3-3.5-54.1"/><path d="M116.3 105.4c-11.5-5.4-25.1-4.7-37-.4-11.9 4.3-22.3 12-31.9 20.3 0-12.5 6.5-24.5 16-32.6S85.2 80.3 97.6 79C76.3 68.9 53.3 62.2 29.8 59.5c8.8-6.5 20.4-7.4 31.3-7.6 20.8-.4 42.1.9 61.4 8.5-7.5-14.5-17-28-28.1-39.9 22 2.9 42.5 16.1 54.3 34.9 5.7-12.6 11.8-25 18.2-37.3 4.1 14 6.7 28.5 7.7 43.1 17.8-22.7 52.3-30.1 77.8-16.8-29.5 3.7-57.9 15.6-81.3 34 24.1 3.3 46.5 17.9 59.2 38.7-9.1-6.7-20.6-9.1-31.7-10.6-14-2-28.1-2.9-42.3-3-2.1 0-4.3.1-6.1 1.2-2.9 1.8-3.6 5.6-3.9 9-4.6 44.1 1.7 89.3 18.3 130.4 3.8 9.4 8.2 18.9 9.3 29 .2 1.7.3 3.5-.6 5-.9 1.6-2.7 2.6-4.4 3.3-13.3 5.9-28.5 7.7-42.8 4.9-2.3-.4-4.7-1.1-6-3-1.1-1.6-1.2-3.6-1.2-5.5l-.6-25.8c-.6-27-1.3-54 .6-80.9 1.3-18.2 3.6-37.3-3.5-54.1"/><path d="M116.3 105.4c-11.5-5.4-25.1-4.7-37-.4-11.9 4.3-22.3 12-31.9 20.3 0-12.5 6.5-24.5 16-32.6S85.2 80.3 97.6 79C76.3 68.9 53.3 62.2 29.8 59.5c8.8-6.5 20.4-7.4 31.3-7.6 20.8-.4 42.1.9 61.4 8.5-7.5-14.5-17-28-28.1-39.9 22 2.9 42.5 16.1 54.3 34.9 5.7-12.6 11.8-25 18.2-37.3 4.1 14 6.7 28.5 7.7 43.1 17.8-22.7 52.3-30.1 77.8-16.8-29.5 3.7-57.9 15.6-81.3 34 24.1 3.3 46.5 17.9 59.2 38.7-9.1-6.7-20.6-9.1-31.7-10.6-14-2-28.1-2.9-42.3-3-2.1 0-4.3.1-6.1 1.2-2.9 1.8-3.6 5.6-3.9 9-4.6 44.1 1.7 89.3 18.3 130.4 3.8 9.4 8.2 18.9 9.3 29 .2 1.7.3 3.5-.6 5-.9 1.6-2.7 2.6-4.4 3.3-13.3 5.9-28.5 7.7-42.8 4.9-2.3-.4-4.7-1.1-6-3-1.1-1.6-1.2-3.6-1.2-5.5l-.6-25.8c-.6-27-1.3-54 .6-80.9 1.3-18.2 3.6-37.3-3.5-54.1"/><path d="M116.3 105.4c-11.5-5.4-25.1-4.7-37-.4-11.9 4.3-22.3 12-31.9 20.3 0-12.5 6.5-24.5 16-32.6S85.2 80.3 97.6 79C76.3 68.9 53.3 62.2 29.8 59.5c8.8-6.5 20.4-7.4 31.3-7.6 20.8-.4 42.1.9 61.4 8.5-7.5-14.5-17-28-28.1-39.9 22 2.9 42.5 16.1 54.3 34.9 5.7-12.6 11.8-25 18.2-37.3 4.1 14 6.7 28.5 7.7 43.1 17.8-22.7 52.3-30.1 77.8-16.8-29.5 3.7-57.9 15.6-81.3 34 24.1 3.3 46.5 17.9 59.2 38.7-9.1-6.7-20.6-9.1-31.7-10.6-14-2-28.1-2.9-42.3-3-2.1 0-4.3.1-6.1 1.2-2.9 1.8-3.6 5.6-3.9 9-4.6 44.1 1.7 89.3 18.3 130.4 3.8 9.4 8.2 18.9 9.3 29 .2 1.7.3 3.5-.6 5-.9 1.6-2.7 2.6-4.4 3.3-13.3 5.9-28.5 7.7-42.8 4.9-2.3-.4-4.7-1.1-6-3-1.1-1.6-1.2-3.6-1.2-5.5l-.6-25.8c-.6-27-1.3-54 .6-80.9 1.3-18.2 3.6-37.3-3.5-54.1"/></g><g stroke="#EAF2CE"><path d="M116.3 105.4c-11.5-5.4-25.1-4.7-37-.4-11.9 4.3-22.3 12-31.9 20.3 0-12.5 6.5-24.5 16-32.6S85.2 80.3 97.6 79C76.3 68.9 53.3 62.2 29.8 59.5c8.8-6.5 20.4-7.4 31.3-7.6 20.8-.4 42.1.9 61.4 8.5-7.5-14.5-17-28-28.1-39.9 22 2.9 42.5 16.1 54.3 34.9 5.7-12.6 11.8-25 18.2-37.3 4.1 14 6.7 28.5 7.7 43.1 17.8-22.7 52.3-30.1 77.8-16.8-29.5 3.7-57.9 15.6-81.3 34 24.1 3.3 46.5 17.9 59.2 38.7-9.1-6.7-20.6-9.1-31.7-10.6-14-2-28.1-2.9-42.3-3-2.1 0-4.3.1-6.1 1.2-2.9 1.8-3.6 5.6-3.9 9-4.6 44.1 1.7 89.3 18.3 130.4 3.8 9.4 8.2 18.9 9.3 29 .2 1.7.3 3.5-.6 5-.9 1.6-2.7 2.6-4.4 3.3-13.3 5.9-28.5 7.7-42.8 4.9-2.3-.4-4.7-1.1-6-3-1.1-1.6-1.2-3.6-1.2-5.5l-.6-25.8c-.6-27-1.3-54 .6-80.9 1.3-18.2 3.6-37.3-3.5-54.1"/><path d="M116.3 105.4c-11.5-5.4-25.1-4.7-37-.4-11.9 4.3-22.3 12-31.9 20.3 0-12.5 6.5-24.5 16-32.6S85.2 80.3 97.6 79C76.3 68.9 53.3 62.2 29.8 59.5c8.8-6.5 20.4-7.4 31.3-7.6 20.8-.4 42.1.9 61.4 8.5-7.5-14.5-17-28-28.1-39.9 22 2.9 42.5 16.1 54.3 34.9 5.7-12.6 11.8-25 18.2-37.3 4.1 14 6.7 28.5 7.7 43.1 17.8-22.7 52.3-30.1 77.8-16.8-29.5 3.7-57.9 15.6-81.3 34 24.1 3.3 46.5 17.9 59.2 38.7-9.1-6.7-20.6-9.1-31.7-10.6-14-2-28.1-2.9-42.3-3-2.1 0-4.3.1-6.1 1.2-2.9 1.8-3.6 5.6-3.9 9-4.6 44.1 1.7 89.3 18.3 130.4 3.8 9.4 8.2 18.9 9.3 29 .2 1.7.3 3.5-.6 5-.9 1.6-2.7 2.6-4.4 3.3-13.3 5.9-28.5 7.7-42.8 4.9-2.3-.4-4.7-1.1-6-3-1.1-1.6-1.2-3.6-1.2-5.5l-.6-25.8c-.6-27-1.3-54 .6-80.9 1.3-18.2 3.6-37.3-3.5-54.1"/><path d="M116.3 105.4c-11.5-5.4-25.1-4.7-37-.4-11.9 4.3-22.3 12-31.9 20.3 0-12.5 6.5-24.5 16-32.6S85.2 80.3 97.6 79C76.3 68.9 53.3 62.2 29.8 59.5c8.8-6.5 20.4-7.4 31.3-7.6 20.8-.4 42.1.9 61.4 8.5-7.5-14.5-17-28-28.1-39.9 22 2.9 42.5 16.1 54.3 34.9 5.7-12.6 11.8-25 18.2-37.3 4.1 14 6.7 28.5 7.7 43.1 17.8-22.7 52.3-30.1 77.8-16.8-29.5 3.7-57.9 15.6-81.3 34 24.1 3.3 46.5 17.9 59.2 38.7-9.1-6.7-20.6-9.1-31.7-10.6-14-2-28.1-2.9-42.3-3-2.1 0-4.3.1-6.1 1.2-2.9 1.8-3.6 5.6-3.9 9-4.6 44.1 1.7 89.3 18.3 130.4 3.8 9.4 8.2 18.9 9.3 29 .2 1.7.3 3.5-.6 5-.9 1.6-2.7 2.6-4.4 3.3-13.3 5.9-28.5 7.7-42.8 4.9-2.3-.4-4.7-1.1-6-3-1.1-1.6-1.2-3.6-1.2-5.5l-.6-25.8c-.6-27-1.3-54 .6-80.9 1.3-18.2 3.6-37.3-3.5-54.1"/><path d="M116.3 105.4c-11.5-5.4-25.1-4.7-37-.4-11.9 4.3-22.3 12-31.9 20.3 0-12.5 6.5-24.5 16-32.6S85.2 80.3 97.6 79C76.3 68.9 53.3 62.2 29.8 59.5c8.8-6.5 20.4-7.4 31.3-7.6 20.8-.4 42.1.9 61.4 8.5-7.5-14.5-17-28-28.1-39.9 22 2.9 42.5 16.1 54.3 34.9 5.7-12.6 11.8-25 18.2-37.3 4.1 14 6.7 28.5 7.7 43.1 17.8-22.7 52.3-30.1 77.8-16.8-29.5 3.7-57.9 15.6-81.3 34 24.1 3.3 46.5 17.9 59.2 38.7-9.1-6.7-20.6-9.1-31.7-10.6-14-2-28.1-2.9-42.3-3-2.1 0-4.3.1-6.1 1.2-2.9 1.8-3.6 5.6-3.9 9-4.6 44.1 1.7 89.3 18.3 130.4 3.8 9.4 8.2 18.9 9.3 29 .2 1.7.3 3.5-.6 5-.9 1.6-2.7 2.6-4.4 3.3-13.3 5.9-28.5 7.7-42.8 4.9-2.3-.4-4.7-1.1-6-3-1.1-1.6-1.2-3.6-1.2-5.5l-.6-25.8c-.6-27-1.3-54 .6-80.9 1.3-18.2 3.6-37.3-3.5-54.1"/><path d="M116.3 105.4c-11.5-5.4-25.1-4.7-37-.4-11.9 4.3-22.3 12-31.9 20.3 0-12.5 6.5-24.5 16-32.6S85.2 80.3 97.6 79C76.3 68.9 53.3 62.2 29.8 59.5c8.8-6.5 20.4-7.4 31.3-7.6 20.8-.4 42.1.9 61.4 8.5-7.5-14.5-17-28-28.1-39.9 22 2.9 42.5 16.1 54.3 34.9 5.7-12.6 11.8-25 18.2-37.3 4.1 14 6.7 28.5 7.7 43.1 17.8-22.7 52.3-30.1 77.8-16.8-29.5 3.7-57.9 15.6-81.3 34 24.1 3.3 46.5 17.9 59.2 38.7-9.1-6.7-20.6-9.1-31.7-10.6-14-2-28.1-2.9-42.3-3-2.1 0-4.3.1-6.1 1.2-2.9 1.8-3.6 5.6-3.9 9-4.6 44.1 1.7 89.3 18.3 130.4 3.8 9.4 8.2 18.9 9.3 29 .2 1.7.3 3.5-.6 5-.9 1.6-2.7 2.6-4.4 3.3-13.3 5.9-28.5 7.7-42.8 4.9-2.3-.4-4.7-1.1-6-3-1.1-1.6-1.2-3.6-1.2-5.5l-.6-25.8c-.6-27-1.3-54 .6-80.9 1.3-18.2 3.6-37.3-3.5-54.1"/><path d="M116.3 105.4c-11.5-5.4-25.1-4.7-37-.4-11.9 4.3-22.3 12-31.9 20.3 0-12.5 6.5-24.5 16-32.6S85.2 80.3 97.6 79C76.3 68.9 53.3 62.2 29.8 59.5c8.8-6.5 20.4-7.4 31.3-7.6 20.8-.4 42.1.9 61.4 8.5-7.5-14.5-17-28-28.1-39.9 22 2.9 42.5 16.1 54.3 34.9 5.7-12.6 11.8-25 18.2-37.3 4.1 14 6.7 28.5 7.7 43.1 17.8-22.7 52.3-30.1 77.8-16.8-29.5 3.7-57.9 15.6-81.3 34 24.1 3.3 46.5 17.9 59.2 38.7-9.1-6.7-20.6-9.1-31.7-10.6-14-2-28.1-2.9-42.3-3-2.1 0-4.3.1-6.1 1.2-2.9 1.8-3.6 5.6-3.9 9-4.6 44.1 1.7 89.3 18.3 130.4 3.8 9.4 8.2 18.9 9.3 29 .2 1.7.3 3.5-.6 5-.9 1.6-2.7 2.6-4.4 3.3-13.3 5.9-28.5 7.7-42.8 4.9-2.3-.4-4.7-1.1-6-3-1.1-1.6-1.2-3.6-1.2-5.5l-.6-25.8c-.6-27-1.3-54 .6-80.9 1.3-18.2 3.6-37.3-3.5-54.1"/><path d="M116.3 105.4c-11.5-5.4-25.1-4.7-37-.4-11.9 4.3-22.3 12-31.9 20.3 0-12.5 6.5-24.5 16-32.6S85.2 80.3 97.6 79C76.3 68.9 53.3 62.2 29.8 59.5c8.8-6.5 20.4-7.4 31.3-7.6 20.8-.4 42.1.9 61.4 8.5-7.5-14.5-17-28-28.1-39.9 22 2.9 42.5 16.1 54.3 34.9 5.7-12.6 11.8-25 18.2-37.3 4.1 14 6.7 28.5 7.7 43.1 17.8-22.7 52.3-30.1 77.8-16.8-29.5 3.7-57.9 15.6-81.3 34 24.1 3.3 46.5 17.9 59.2 38.7-9.1-6.7-20.6-9.1-31.7-10.6-14-2-28.1-2.9-42.3-3-2.1 0-4.3.1-6.1 1.2-2.9 1.8-3.6 5.6-3.9 9-4.6 44.1 1.7 89.3 18.3 130.4 3.8 9.4 8.2 18.9 9.3 29 .2 1.7.3 3.5-.6 5-.9 1.6-2.7 2.6-4.4 3.3-13.3 5.9-28.5 7.7-42.8 4.9-2.3-.4-4.7-1.1-6-3-1.1-1.6-1.2-3.6-1.2-5.5l-.6-25.8c-.6-27-1.3-54 .6-80.9 1.3-18.2 3.6-37.3-3.5-54.1"/><path d="M116.3 105.4c-11.5-5.4-25.1-4.7-37-.4-11.9 4.3-22.3 12-31.9 20.3 0-12.5 6.5-24.5 16-32.6S85.2 80.3 97.6 79C76.3 68.9 53.3 62.2 29.8 59.5c8.8-6.5 20.4-7.4 31.3-7.6 20.8-.4 42.1.9 61.4 8.5-7.5-14.5-17-28-28.1-39.9 22 2.9 42.5 16.1 54.3 34.9 5.7-12.6 11.8-25 18.2-37.3 4.1 14 6.7 28.5 7.7 43.1 17.8-22.7 52.3-30.1 77.8-16.8-29.5 3.7-57.9 15.6-81.3 34 24.1 3.3 46.5 17.9 59.2 38.7-9.1-6.7-20.6-9.1-31.7-10.6-14-2-28.1-2.9-42.3-3-2.1 0-4.3.1-6.1 1.2-2.9 1.8-3.6 5.6-3.9 9-4.6 44.1 1.7 89.3 18.3 130.4 3.8 9.4 8.2 18.9 9.3 29 .2 1.7.3 3.5-.6 5-.9 1.6-2.7 2.6-4.4 3.3-13.3 5.9-28.5 7.7-42.8 4.9-2.3-.4-4.7-1.1-6-3-1.1-1.6-1.2-3.6-1.2-5.5l-.6-25.8c-.6-27-1.3-54 .6-80.9 1.3-18.2 3.6-37.3-3.5-54.1"/></g></g></svg>