<svg xmlns="http://www.w3.org/2000/svg" viewBox="0 0 300 300"><path fill="none" stroke="#fff" stroke-width="3" stroke-linecap="round" stroke-linejoin="round" d="M32.8 141.7c25.7-10.9 46.6-31.4 72.6-41.3 1.8-.7 3.6-1.3 5.5-1.2 2.1.2 4 1.2 5.8 2.3l19.2 11.1c1.8 1 3.6 2.1 5.7 2.2 2 .1 3.9-.7 5.6-1.6 5.5-2.8 10.4-6.6 14.4-11.2 2.7-3 5.5-6.7 9.5-6.8 1.7-.1 3.3.5 4.9 1.1 24.8 9.3 49.7 18.6 74.5 27.9 2.7 1 15.9 4.1 16.6 6.9.8 3.4-7.6 8.7-9.7 10.5-9.5 8-19.6 15.2-30.2 21.6-11.4 6.9-23.4 12.8-35.7 17.8-9.6 3.9-19.6 7.3-29.9 8.2-10.6.9-21.2-.9-31.6-3.2-30.2-6.6-59.6-17.1-90.2-21.7 6.5-2.5 10.6-3.8 17.1-6.3 5.5-2.1 11-4.3 16.7-5.4 9.3-1.9 18.8-1.1 28.2-.8 39 1.4 77.9-4.2 116.5-9.8 8.6-1.2 17.3-2.5 25.4-5.7"/></svg>