<svg xmlns="http://www.w3.org/2000/svg" viewBox="0 0 300 300"><path fill="none" stroke="#fff" stroke-width="3" stroke-linecap="round" stroke-linejoin="round" d="M55.6 133.7c-7.3 3.1-14.2 7.2-20.4 12.2-2 1.6-4.1 3.7-3.9 6.3.2 3 3.6 4.8 6.5 5.6 7.4 1.9 15.3.9 22.5-1.6 7.2-2.5 13.8-6.6 20-10.9 3.7-2.6 7.5-5.6 9.5-9.7.7-1.5 1.1-3.4.2-4.7-.5-.6-1.2-1.1-1.9-1.4-6.6-3.3-14.5-1.3-21.5.7-3.4 1-6.8 1.9-10.2 2.9M62.3 160.7c26.3 34.9 48 73.3 64.2 113.9-.7-.9-1.3-1.7-2-2.6M74.7 154.6c4 20 16 37.3 26.5 54.7 9.2 15.2 17.6 30.9 25 47.1M123.4 49.6c-7.4 2.3-14.7 5.3-21.6 8.9-6.2 3.2-12.7 7.8-14 14.7-.5 2.6.1 5.6 2.2 7.3 1.3 1 3 1.4 4.7 1.5 6.5.6 12.8-1.4 19-3.4 9.7-3.2 19.4-6.8 27.6-12.8 2.5-1.8 5.1-4.8 4-7.7-.5-1.3-1.7-2.2-2.9-3-5-3.2-11-5-16.9-5M117.5 81c19.4 19.8 32.9 44.6 44 69.9s20.2 51.6 32.2 76.6c-.6-.6-1.2-1.2-1.8-1.9M133.8 75.6c13.2 22.1 25.1 45.2 35.3 68.8M211.9 60.2c-8.6 2.3-16.9 5.9-24.4 10.7-1.6 1-3.3 2.3-3.7 4.1-.5 3 2.6 5.3 5.5 6.3 8.1 2.8 17.1 1.9 25.5.2 9.4-1.9 19-5 26.1-11.5 1.5-1.3 2.9-2.9 3.5-4.7.7-1.9.6-4.1-.8-5.6-1-1.1-2.4-1.6-3.8-2-9.6-2.8-20.1-2.1-29.3 1.9M213 86.5c17.9 40.5 31.7 82.9 41 126.3-.5-.9-1-1.8-1.5-2.8M228.3 83.9c1.3 17.5 5.9 34.7 13.5 50.5-.1-.4-.2-.9-.3-1.3"/></svg>