<svg xmlns="http://www.w3.org/2000/svg" viewBox="0 0 300 300"><path fill="none" stroke="#fff" stroke-width="3" stroke-linecap="round" stroke-linejoin="round" d="M81.2 115.1c-1-18.1-17.1-32.9-16.9-51 23.5 8.5 47.8 17.5 65.5 35.4 22-6.2 46.2-4.4 67 5.1 2.9-7 8.5-12.5 14-17.6 10.7-10.1 21.5-20 32.3-30-1.1 19.9-4 39.7-8.7 59.1 8.7 5.8 11.4 17.4 13.1 27.8 1.9 12.2 3.4 24.8.9 37-3.5 17.5-14.9 32.6-28.6 43.8-9.2 7.5-19.7 13.6-31.1 16.8-13.4 3.7-27.5 3.2-41.2 1.9-15.4-1.4-30.7-3.6-45.9-6.7-7.5-1.5-15.2-3.4-21.3-8.1-7.4-5.7-11.3-14.8-14.8-23.6-5.3-13.7-10.2-28-10.2-42.7 0-14.7 5.5-30.2 17.3-38.8 2.5-1.8 5.4-3.4 7.3-5.9"/><path fill="none" stroke="#fff" stroke-width="3" stroke-linecap="round" stroke-linejoin="round" d="M114.4 127.8c-4.3-1.8-9.3-.2-13.1 2.5-5.5 3.8-9.6 9.9-10.3 16.6-.7 6.7 2.3 13.9 8 17.4 4.5 2.7 10.1 3 15.3 2.8 4.5-.2 9.2-.8 13.1-3.2 2.2-1.4 4-3.3 5.5-5.5 3-4.5 4.5-10.3 3.5-15.6s-4.6-10.3-9.5-12.5c-4.2-1.9-9-1.8-13.5-1.6M196.8 128.7c-10.6-1.5-21.2 6.7-23.9 17.2-.7 2.5-.9 5.2-.4 7.8 1.2 6.1 6.4 10.7 12.2 12.8 3.5 1.3 7.3 1.9 11 1.6 7.2-.5 14.4-4.3 18.2-10.6 3.8-6.3 3.7-15.1-1-20.7-2.1-2.5-4.8-4.3-7.6-5.9-3.3-2-7.4-3.9-10.8-2.2M139.3 185.2c3 4.1 6.4 8 10 11.6.8.7 1.6 1.5 2.7 1.7.8.1 1.6-.2 2.4-.5 5.2-2.5 8-8.2 9.9-13.7.1-.3.2-.6 0-.9s-.7 0-.5.3M112.3 219.1c6.2 6.1 16 8 24 4.6s13.6-11.8 13.7-20.6c.5 8.6 6.4 16.2 13.9 20.1 4.1 2.1 8.8 3.1 13.4 2.5 5.9-.7 11.1-3.8 16.2-6.8.3-.1.6-.3.8 0s-.5.4-.3.1M104.7 188.7c-26.8.9-53.6 5.1-79.4 12.5-.6.2-1.3.5-1.3 1.2 0 .6 1.3.3.9-.1M93.9 199.7c-6.4 3.9-12.7 7.9-19.1 11.8-12.2 7.6-24.6 15.3-34.6 25.8M93.9 219.1c-7.2 9.2-12 20.3-14 31.9.8-.1 1.3-1.2.9-1.9M189.4 191.2c26.8-12.6 56.1-19.6 85.6-20.2-.8.5-1.6 1-2.4 1.4M213.5 199.5c.3-.4-.8-.3-.6.2.2.5.8.4 1.3.3 16.1-3.5 32.9-2.6 49.3-1.6 5.6.3 11.3.7 16.5 2.9-1.3.1-2.5.2-3.8.2M209.1 214.7c10.6 2.5 21.1 5.5 31.5 8.9 8.6 2.9 17.3 6.1 24.6 11.7-.4-.6-.7-1.3-1.1-1.9"/><path fill="none" stroke="#fff" stroke-width="3" stroke-linecap="round" stroke-linejoin="round" d="M192.5 143.1c-1.2 1.6-2.1 3.4-2.6 5.4-.4 1.5-.5 3.2 0 4.7.6 1.5 2 2.7 3.5 2.7 1.3-3.9 1.2-8.2-.2-12-.3-.7-1.3-1.5-1.6-.7M111.9 143.2c-.5 1.6-1 3.1-1.5 4.7-.4 1.2-.8 2.6-.4 3.8.3 1.2 1.8 2.3 2.9 1.7.9-.5 1.2-1.6 1.3-2.7.4-3.1.1-6.3-.6-9.3-.6 0-1.2.5-1.4 1.1M77.1 91.5c9.9 4.6 19.5 9.7 28.8 15.3.6.4 1.1 1.4.5 1.6M215.4 110.9c6.5-4.8 13-9.6 19.6-14.4.3-.2.6-.5.4-.8-.1-.3-.7.2-.4.2M138.5 226.9c6.5 5.7 16 7.5 24 4.6M94.9 144.1c9.2-6.2 20.1-9.6 31-9.8M187.9 135.3c9.4 2.4 18.5 6.1 27 11"/></svg>