<svg xmlns="http://www.w3.org/2000/svg" viewBox="0 0 181.9 148"><style>.st0{display:none}.st1{fill:#6bccdf}.st2{fill:none;stroke:#070707;stroke-miterlimit:10}.st3{fill:#fbad18}.st4{fill:#434f66}</style><g id="Layer_3"><g id="XMLID_1_"><path class="st1" d="M53.1 27l-23.4 2.5-4.1 4.8-6.4-25.5.1-.1z"/><path class="st2" d="M91.2 23l-38.1 4-23.4 2.5M29.7 29.5l-4.1 4.8-7.7 9.2-9.2 11M17.9 43.5L8.7 3M8.7 3l10.6 5.7L53.1 27M25.6 34.3L19.2 8.8"/></g><g id="XMLID_3_"><path class="st3" d="M82.2 38v35.5H46.7l-9-30z"/><path class="st2" d="M37.7 43.5l9 30M46.7 73.5h35.5M82.2 73.5V38M82.2 38l-44.5 5.5"/></g><path class="st2" d="M42.2 94.5l-39.5-6M42.2 104.5l-28.9 9M50.2 113.5l-22.4 30M91.2 98l-13 15.5M78.2 113.5l-21.5-7.8M56.7 105.7L50.2 98M173.7 54.7v43.5l-41.5 31h-41v-.2h-41L8.7 98V54.5"/><g id="XMLID_2_"><path class="st1" d="M163.1 8.9l.1.2-6.5 25.5-4-4.9-23.4-2.5z"/><path class="st2" d="M91.2 23.2l38.1 4 23.4 2.5M152.7 29.7l4 4.9 7.8 9.2 9.2 10.9M164.5 43.8l9.2-40.6"/><path class="st2" d="M173.7 3.2l-10.6 5.7-33.8 18.3M156.7 34.6l6.5-25.5"/></g><g id="XMLID_4_"><path class="st3" d="M144.7 43.8l-9 29.9h-35.5V38.2z"/><path class="st2" d="M144.7 43.8l-9 29.9M135.7 73.7h-35.5M100.2 73.7V38.2M100.2 38.2l44.5 5.6"/></g><path class="st2" d="M140.2 94.7l39.5-6M140.2 104.7l28.9 9M132.2 113.7l22.4 30"/><g id="XMLID_5_"><path class="st4" d="M108.2 78.7l-8 16-8.9 3.5-.1-.2-9-3.5-8-16h17v.2z"/><path class="st2" d="M91.2 78.5h-17M74.2 78.5l8 16M82.2 94.5l9 3.5M91.2 78.7h17M108.2 78.7l-8 16M100.2 94.7l-8.9 3.5h-.1"/></g><path class="st2" d="M91.2 98.2l13 15.5M104.2 113.7l21.5-7.7M125.7 106l6.5-7.8"/></g></svg>