<svg xmlns="http://www.w3.org/2000/svg" viewBox="0 0 300 300"><path fill="none" stroke="#fff" stroke-width="3" stroke-linecap="round" class="st0" d="M93.8 94.5C82.7 77.1 68 62.1 50.8 50.7c2.9 14 4.9 28.1 6 42.4.3 3.6.5 7.3-.2 10.9-1 4.9-3.6 9.2-5.5 13.8-4.9 11.9-4.6 25.2-3.4 38 2.6 26.5 9.6 53.8 27.4 73.5 13.4 14.9 31.8 24.3 50.1 32.2 16.7 7.2 36 13.5 52.5 6 13.1-6 21-19.2 28.2-31.7 9.3-16.3 18.6-32.6 28-48.8 10.1-17.6 20.5-37.3 16.3-57.1-2.9-13.8-12.6-25.3-23.8-33.9-2.6-2-5.3-3.9-7.1-6.7-2.3-3.6-2.6-8-2.9-12.3-.8-13.1-1.7-26.2-2.5-39.3-18.5 10.7-33.3 27.6-41.6 47.3-26.2-1.9-52.8 1.3-77.8 9.2"/><path fill="none" stroke="#fff" stroke-width="3" stroke-linecap="round" class="st0" d="M191.8 244.5c-.3.5 1 .3.7-.2-.3-.5-1-.5-1.6-.4-5.5 1-11.3-1.1-15.8-4.5s-8-7.9-11.4-12.4c-5-6.5-10.2-13.4-12.9-21.2-2.9-8.3-1.7-10.8 3.5-16.8 4.3-5 7.2-11.2 8.2-17.8-8.2.6-16.4 1.3-24.6 1.9-1.5 4-2.3 9.3 0 12.9 2.3 3.6 5.3 6.7 7.2 10.6 2.8 6 2.5 12.9 1.7 19.5-.6 5-1.5 10-3.6 14.6-4.1 9.3-13.1 16.2-23.2 17.9"/><path fill="none" stroke="#fff" stroke-width="3" stroke-linecap="round" d="M118.5 138.7c.7-.2 1.5-.4 2.2-.6-15.3-6.4-34.3-2.5-45.7 9.5 4.4 5.6 8 11.7 15 13 7 1.3 14.4.2 20.9-2.7 3.6-1.6 7-3.9 9.3-7.1 2.3-3.2 3.4-7.5 2.1-11.2-.3.3-.5.6-.8.9"/><path fill="none" stroke="#fff" stroke-width="3" stroke-linecap="round" class="st0" d="M175.1 136.1c6.9-4.9 16.1-6.5 24.3-4.2 3 .8 5.8 2.1 8.6 3.3 4.5 2.1 9.3 4.3 12 8.5M174.1 139.6c0 3.9 2.9 7.2 6.1 9.5 11.9 8.8 29.3 9.2 41.7 1.1M93.4 140.1c-2.7 2.9-3.5 7.5-1.8 11.1s5.6 6 9.6 5.8c1-.1 2-.3 2.8-.8.7-.4 1.2-1.1 1.7-1.7 1.8-2.5 3-5.6 2.4-8.7-.5-3-3-5.8-6.1-6.2"/><path fill="none" stroke="#fff" stroke-width="3" stroke-linecap="round" class="st0" d="M193.3 137.9c-2.4 1.4-4 4-4.2 6.7s1.2 5.5 3.4 7.2c2.7 2 6.6 2.1 9.5.4s4.8-4.9 5-8.3c.1-.8 0-1.7-.3-2.4-.4-.9-1.2-1.5-1.9-2.1-2.4-2-5.3-4.1-8.3-3.3M71 144.6c5.8-6.7 12.9-12.3 20.6-16.5M203.8 125.1c3.9 2.3 7.8 4.6 11.8 6.9 3.2 1.9 6.7 4.1 8 7.6M119.9 248.4c-6.2 1.6-13.3-.1-18-4.5M189.8 244c5.1-1.2 9.7-4.4 12.6-8.7 1.5-2.2 2.7-5 1.9-7.6M104.9 188.5c-24.9-6-50.9-5.4-76.4-3.1-6.3.6-12.8 1.3-18.4 4.2-.5.3-1 .7-1 1.2s1.2.3.9-.1M95.6 201.9c-15.8 3.6-31.3 8.7-46.2 15.2-11.3 4.9-22.6 10.9-30.7 20.2M87.8 222.5c-9.8 7.3-19.1 15.2-28 23.6-2 1.9-4.2 4.3-3.9 7 .5.2 1.1 0 1.3-.4M195.3 186.7c14.1-8 30.3-11.6 46.4-12.9s32.3-.3 48.5.3c.9 0 2 .2 2.2 1.1s-1.6 1.1-1.3.3M209.7 199.9c17.5-1.1 35.4 3.1 50.6 11.8-1.4-.1-2.8-.1-4.2-.2M201.6 214.5c4.9-.1 9.6 1.7 14.2 3.5 11.5 4.5 22.8 9.3 34 14.4M62.1 103.7c2.2.2 4.5.4 6.6-.1 2.2-.5 4.3-1.7 5.3-3.7 1-1.9.7-4.3-.2-6.3s-2.2-3.7-3.6-5.4c-4.5-6-8.4-12.5-11.5-19.3.9 6.9 1.9 13.8 3 20.7M211.7 75.8c-.8-.8-.8-2-.8-3.2-.1-7.2-.1-14.4-.2-21.5-4.1 10-8.8 19.8-14.2 29.2-.9 1.6-1.8 3.1-2.1 4.9-.3 1.8.2 3.8 1.7 4.8.9.6 1.9.7 2.9.9 3.6.5 7.2 1.1 10.8 1.6.5.1 1 .1 1.4-.2.4-.3.5-.8.5-1.3.2-2.5.5-5.1.7-7.6M141.9 241.8c2.9.2 5.8-.9 7.8-3 1-1 2-2.3 3.4-2.3.8 0 1.5.4 2.2.7 3.5 1.7 7.6 2.2 11.5 1.5"/></svg>