<svg xmlns="http://www.w3.org/2000/svg" viewBox="0 0 300 300"><g fill="none" stroke-linecap="round" stroke-linejoin="round"><path opacity=".2" stroke="#EB2D3B" stroke-width="35" d="M125.5 198.8c-11.2 2-23.2-.1-33.3-4.5-10.1-4.4-18.5-10.9-25.7-18.1-6.2-6.2-11.9-13.4-11.9-21.4-.1-10.5 9.4-19.4 14.6-29 5.4-10 6.2-21.2 7-32 1.2-17.2 1.7-36.1-11.9-49.5 25.9 14.8 52 32.6 60.3 57.2 1.5-27 3-54 4.5-80.9 24.2 31.5 39.9 67.2 45.6 103.9C177 100.7 190 78.3 205 57.7c-4 14.3-5.2 29-3.6 43.5 17.3-19.6 54.1-21.1 75.3-38-14.6 19-29.3 38.1-43.9 57.1-8.1 10.5-16.4 21.6-17.8 33.9-1.2 11 2.8 23.5-5.8 32.1-6.2 6.1-16.7 7.9-26.4 9.3-14 2-28 4.1-42 6.1"/><path opacity=".25" stroke="#EB2D3B" stroke-width="8.5" d="M125.5 198.8c-11.2 2-23.2-.1-33.3-4.5-10.1-4.4-18.5-10.9-25.7-18.1-6.2-6.2-11.9-13.4-11.9-21.4-.1-10.5 9.4-19.4 14.6-29 5.4-10 6.2-21.2 7-32 1.2-17.2 1.7-36.1-11.9-49.5 25.9 14.8 52 32.6 60.3 57.2 1.5-27 3-54 4.5-80.9 24.2 31.5 39.9 67.2 45.6 103.9C177 100.7 190 78.3 205 57.7c-4 14.3-5.2 29-3.6 43.5 17.3-19.6 54.1-21.1 75.3-38-14.6 19-29.3 38.1-43.9 57.1-8.1 10.5-16.4 21.6-17.8 33.9-1.2 11 2.8 23.5-5.8 32.1-6.2 6.1-16.7 7.9-26.4 9.3-14 2-28 4.1-42 6.1"/><path opacity=".3" stroke="#EB2D3B" stroke-width="5" d="M125.5 198.8c-11.2 2-23.2-.1-33.3-4.5-10.1-4.4-18.5-10.9-25.7-18.1-6.2-6.2-11.9-13.4-11.9-21.4-.1-10.5 9.4-19.4 14.6-29 5.4-10 6.2-21.2 7-32 1.2-17.2 1.7-36.1-11.9-49.5 25.9 14.8 52 32.6 60.3 57.2 1.5-27 3-54 4.5-80.9 24.2 31.5 39.9 67.2 45.6 103.9C177 100.7 190 78.3 205 57.7c-4 14.3-5.2 29-3.6 43.5 17.3-19.6 54.1-21.1 75.3-38-14.6 19-29.3 38.1-43.9 57.1-8.1 10.5-16.4 21.6-17.8 33.9-1.2 11 2.8 23.5-5.8 32.1-6.2 6.1-16.7 7.9-26.4 9.3-14 2-28 4.1-42 6.1"/><path stroke="#EC4747" stroke-width="7" d="M125.5 198.8c-11.2 2-23.2-.1-33.3-4.5-10.1-4.4-18.5-10.9-25.7-18.1-6.2-6.2-11.9-13.4-11.9-21.4-.1-10.5 9.4-19.4 14.6-29 5.4-10 6.2-21.2 7-32 1.2-17.2 1.7-36.1-11.9-49.5 25.9 14.8 52 32.6 60.3 57.2 1.5-27 3-54 4.5-80.9 24.2 31.5 39.9 67.2 45.6 103.9C177 100.7 190 78.3 205 57.7c-4 14.3-5.2 29-3.6 43.5 17.3-19.6 54.1-21.1 75.3-38-14.6 19-29.3 38.1-43.9 57.1-8.1 10.5-16.4 21.6-17.8 33.9-1.2 11 2.8 23.5-5.8 32.1-6.2 6.1-16.7 7.9-26.4 9.3-14 2-28 4.1-42 6.1"/><path stroke="#F07062" stroke-width="5.5" d="M125.5 198.8c-11.2 2-23.2-.1-33.3-4.5-10.1-4.4-18.5-10.9-25.7-18.1-6.2-6.2-11.9-13.4-11.9-21.4-.1-10.5 9.4-19.4 14.6-29 5.4-10 6.2-21.2 7-32 1.2-17.2 1.7-36.1-11.9-49.5 25.9 14.8 52 32.6 60.3 57.2 1.5-27 3-54 4.5-80.9 24.2 31.5 39.9 67.2 45.6 103.9C177 100.7 190 78.3 205 57.7c-4 14.3-5.2 29-3.6 43.5 17.3-19.6 54.1-21.1 75.3-38-14.6 19-29.3 38.1-43.9 57.1-8.1 10.5-16.4 21.6-17.8 33.9-1.2 11 2.8 23.5-5.8 32.1-6.2 6.1-16.7 7.9-26.4 9.3-14 2-28 4.1-42 6.1"/><path stroke="#F38B7A" stroke-width="4" d="M125.5 198.8c-11.2 2-23.2-.1-33.3-4.5-10.1-4.4-18.5-10.9-25.7-18.1-6.2-6.2-11.9-13.4-11.9-21.4-.1-10.5 9.4-19.4 14.6-29 5.4-10 6.2-21.2 7-32 1.2-17.2 1.7-36.1-11.9-49.5 25.9 14.8 52 32.6 60.3 57.2 1.5-27 3-54 4.5-80.9 24.2 31.5 39.9 67.2 45.6 103.9C177 100.7 190 78.3 205 57.7c-4 14.3-5.2 29-3.6 43.5 17.3-19.6 54.1-21.1 75.3-38-14.6 19-29.3 38.1-43.9 57.1-8.1 10.5-16.4 21.6-17.8 33.9-1.2 11 2.8 23.5-5.8 32.1-6.2 6.1-16.7 7.9-26.4 9.3-14 2-28 4.1-42 6.1"/><path stroke="#F6A594" stroke-width="2.5" d="M125.5 198.8c-11.2 2-23.2-.1-33.3-4.5-10.1-4.4-18.5-10.9-25.7-18.1-6.2-6.2-11.9-13.4-11.9-21.4-.1-10.5 9.4-19.4 14.6-29 5.4-10 6.2-21.2 7-32 1.2-17.2 1.7-36.1-11.9-49.5 25.9 14.8 52 32.6 60.3 57.2 1.5-27 3-54 4.5-80.9 24.2 31.5 39.9 67.2 45.6 103.9C177 100.7 190 78.3 205 57.7c-4 14.3-5.2 29-3.6 43.5 17.3-19.6 54.1-21.1 75.3-38-14.6 19-29.3 38.1-43.9 57.1-8.1 10.5-16.4 21.6-17.8 33.9-1.2 11 2.8 23.5-5.8 32.1-6.2 6.1-16.7 7.9-26.4 9.3-14 2-28 4.1-42 6.1"/><path stroke="#FAC7B9" d="M125.5 198.8c-11.2 2-23.2-.1-33.3-4.5-10.1-4.4-18.5-10.9-25.7-18.1-6.2-6.2-11.9-13.4-11.9-21.4-.1-10.5 9.4-19.4 14.6-29 5.4-10 6.2-21.2 7-32 1.2-17.2 1.7-36.1-11.9-49.5 25.9 14.8 52 32.6 60.3 57.2 1.5-27 3-54 4.5-80.9 24.2 31.5 39.9 67.2 45.6 103.9C177 100.7 190 78.3 205 57.7c-4 14.3-5.2 29-3.6 43.5 17.3-19.6 54.1-21.1 75.3-38-14.6 19-29.3 38.1-43.9 57.1-8.1 10.5-16.4 21.6-17.8 33.9-1.2 11 2.8 23.5-5.8 32.1-6.2 6.1-16.7 7.9-26.4 9.3-14 2-28 4.1-42 6.1"/></g><g fill="none" stroke-linecap="round" stroke-linejoin="round"><path opacity=".2" stroke="#EB2D3B" stroke-width="35" d="M135.4 181.8c-4 .1-7.6-1.9-10.8-3.9-14.1-8.7-27.1-19.5-32-33.1-3.2-9.1-2.6-18.8-5.5-27.9 11.7 14.4 28.7 26.1 48.2 33.2 3.1-6 5.1-12.4 5.9-18.8"/><path opacity=".25" stroke="#EB2D3B" stroke-width="8.5" d="M135.4 181.8c-4 .1-7.6-1.9-10.8-3.9-14.1-8.7-27.1-19.5-32-33.1-3.2-9.1-2.6-18.8-5.5-27.9 11.7 14.4 28.7 26.1 48.2 33.2 3.1-6 5.1-12.4 5.9-18.8"/><path opacity=".3" stroke="#EB2D3B" stroke-width="5" d="M135.4 181.8c-4 .1-7.6-1.9-10.8-3.9-14.1-8.7-27.1-19.5-32-33.1-3.2-9.1-2.6-18.8-5.5-27.9 11.7 14.4 28.7 26.1 48.2 33.2 3.1-6 5.1-12.4 5.9-18.8"/><path stroke="#EC4747" stroke-width="7" d="M135.4 181.8c-4 .1-7.6-1.9-10.8-3.9-14.1-8.7-27.1-19.5-32-33.1-3.2-9.1-2.6-18.8-5.5-27.9 11.7 14.4 28.7 26.1 48.2 33.2 3.1-6 5.1-12.4 5.9-18.8"/><path stroke="#F07062" stroke-width="5.5" d="M135.4 181.8c-4 .1-7.6-1.9-10.8-3.9-14.1-8.7-27.1-19.5-32-33.1-3.2-9.1-2.6-18.8-5.5-27.9 11.7 14.4 28.7 26.1 48.2 33.2 3.1-6 5.1-12.4 5.9-18.8"/><path stroke="#F38B7A" stroke-width="4" d="M135.4 181.8c-4 .1-7.6-1.9-10.8-3.9-14.1-8.7-27.1-19.5-32-33.1-3.2-9.1-2.6-18.8-5.5-27.9 11.7 14.4 28.7 26.1 48.2 33.2 3.1-6 5.1-12.4 5.9-18.8"/><path stroke="#F6A594" stroke-width="2.5" d="M135.4 181.8c-4 .1-7.6-1.9-10.8-3.9-14.1-8.7-27.1-19.5-32-33.1-3.2-9.1-2.6-18.8-5.5-27.9 11.7 14.4 28.7 26.1 48.2 33.2 3.1-6 5.1-12.4 5.9-18.8"/><path stroke="#FAC7B9" d="M135.4 181.8c-4 .1-7.6-1.9-10.8-3.9-14.1-8.7-27.1-19.5-32-33.1-3.2-9.1-2.6-18.8-5.5-27.9 11.7 14.4 28.7 26.1 48.2 33.2 3.1-6 5.1-12.4 5.9-18.8"/></g><g fill="none" stroke-linecap="round" stroke-linejoin="round"><path opacity=".2" stroke="#EB2D3B" stroke-width="35" d="M164.3 181.7c18.4-14.7 30.4-34.3 33.6-54.8.2-1.5.6-3.2 2.4-3.8"/><path opacity=".25" stroke="#EB2D3B" stroke-width="8.5" d="M164.3 181.7c18.4-14.7 30.4-34.3 33.6-54.8.2-1.5.6-3.2 2.4-3.8"/><path opacity=".3" stroke="#EB2D3B" stroke-width="5" d="M164.3 181.7c18.4-14.7 30.4-34.3 33.6-54.8.2-1.5.6-3.2 2.4-3.8"/><path stroke="#EC4747" stroke-width="7" d="M164.3 181.7c18.4-14.7 30.4-34.3 33.6-54.8.2-1.5.6-3.2 2.4-3.8"/><path stroke="#F07062" stroke-width="5.5" d="M164.3 181.7c18.4-14.7 30.4-34.3 33.6-54.8.2-1.5.6-3.2 2.4-3.8"/><path stroke="#F38B7A" stroke-width="4" d="M164.3 181.7c18.4-14.7 30.4-34.3 33.6-54.8.2-1.5.6-3.2 2.4-3.8"/><path stroke="#F6A594" stroke-width="2.5" d="M164.3 181.7c18.4-14.7 30.4-34.3 33.6-54.8.2-1.5.6-3.2 2.4-3.8"/><path stroke="#FAC7B9" d="M164.3 181.7c18.4-14.7 30.4-34.3 33.6-54.8.2-1.5.6-3.2 2.4-3.8"/></g><g fill="none" stroke-linecap="round" stroke-linejoin="round"><path opacity=".2" stroke="#EB2D3B" stroke-width="35" d="M96.3 205.2c-24.3 0-48.5-2.1-72.3-6.1.4 10.5.9 21 1.3 31.4.1 2.3.3 4.7 2.1 6.5 3.9 3.6 11.2 1.4 16.5-.9 27-11.8 57.2-18.9 88-20.5"/><path opacity=".25" stroke="#EB2D3B" stroke-width="8.5" d="M96.3 205.2c-24.3 0-48.5-2.1-72.3-6.1.4 10.5.9 21 1.3 31.4.1 2.3.3 4.7 2.1 6.5 3.9 3.6 11.2 1.4 16.5-.9 27-11.8 57.2-18.9 88-20.5"/><path opacity=".3" stroke="#EB2D3B" stroke-width="5" d="M96.3 205.2c-24.3 0-48.5-2.1-72.3-6.1.4 10.5.9 21 1.3 31.4.1 2.3.3 4.7 2.1 6.5 3.9 3.6 11.2 1.4 16.5-.9 27-11.8 57.2-18.9 88-20.5"/><path stroke="#EC4747" stroke-width="7" d="M96.3 205.2c-24.3 0-48.5-2.1-72.3-6.1.4 10.5.9 21 1.3 31.4.1 2.3.3 4.7 2.1 6.5 3.9 3.6 11.2 1.4 16.5-.9 27-11.8 57.2-18.9 88-20.5"/><path stroke="#F07062" stroke-width="5.5" d="M96.3 205.2c-24.3 0-48.5-2.1-72.3-6.1.4 10.5.9 21 1.3 31.4.1 2.3.3 4.7 2.1 6.5 3.9 3.6 11.2 1.4 16.5-.9 27-11.8 57.2-18.9 88-20.5"/><path stroke="#F38B7A" stroke-width="4" d="M96.3 205.2c-24.3 0-48.5-2.1-72.3-6.1.4 10.5.9 21 1.3 31.4.1 2.3.3 4.7 2.1 6.5 3.9 3.6 11.2 1.4 16.5-.9 27-11.8 57.2-18.9 88-20.5"/><path stroke="#F6A594" stroke-width="2.5" d="M96.3 205.2c-24.3 0-48.5-2.1-72.3-6.1.4 10.5.9 21 1.3 31.4.1 2.3.3 4.7 2.1 6.5 3.9 3.6 11.2 1.4 16.5-.9 27-11.8 57.2-18.9 88-20.5"/><path stroke="#FAC7B9" d="M96.3 205.2c-24.3 0-48.5-2.1-72.3-6.1.4 10.5.9 21 1.3 31.4.1 2.3.3 4.7 2.1 6.5 3.9 3.6 11.2 1.4 16.5-.9 27-11.8 57.2-18.9 88-20.5"/></g><g fill="none" stroke-linecap="round" stroke-linejoin="round"><path opacity=".2" stroke="#EB2D3B" stroke-width="35" d="M118.9 226.8c18.8 13.1 32.2 31.1 37.6 50.6.2.6.5 1.4 1.2 1.5.4.1.8 0 1.2-.1 10.8-2.7 21.7-5.5 32.5-8.2.1-16.7-22.4-29.3-22.8-46 0-1.1-.7-2.7-2-2.3"/><path opacity=".25" stroke="#EB2D3B" stroke-width="8.5" d="M118.9 226.8c18.8 13.1 32.2 31.1 37.6 50.6.2.6.5 1.4 1.2 1.5.4.1.8 0 1.2-.1 10.8-2.7 21.7-5.5 32.5-8.2.1-16.7-22.4-29.3-22.8-46 0-1.1-.7-2.7-2-2.3"/><path opacity=".3" stroke="#EB2D3B" stroke-width="5" d="M118.9 226.8c18.8 13.1 32.2 31.1 37.6 50.6.2.6.5 1.4 1.2 1.5.4.1.8 0 1.2-.1 10.8-2.7 21.7-5.5 32.5-8.2.1-16.7-22.4-29.3-22.8-46 0-1.1-.7-2.7-2-2.3"/><path stroke="#EC4747" stroke-width="7" d="M118.9 226.8c18.8 13.1 32.2 31.1 37.6 50.6.2.6.5 1.4 1.2 1.5.4.1.8 0 1.2-.1 10.8-2.7 21.7-5.5 32.5-8.2.1-16.7-22.4-29.3-22.8-46 0-1.1-.7-2.7-2-2.3"/><path stroke="#F07062" stroke-width="5.5" d="M118.9 226.8c18.8 13.1 32.2 31.1 37.6 50.6.2.6.5 1.4 1.2 1.5.4.1.8 0 1.2-.1 10.8-2.7 21.7-5.5 32.5-8.2.1-16.7-22.4-29.3-22.8-46 0-1.1-.7-2.7-2-2.3"/><path stroke="#F38B7A" stroke-width="4" d="M118.9 226.8c18.8 13.1 32.2 31.1 37.6 50.6.2.6.5 1.4 1.2 1.5.4.1.8 0 1.2-.1 10.8-2.7 21.7-5.5 32.5-8.2.1-16.7-22.4-29.3-22.8-46 0-1.1-.7-2.7-2-2.3"/><path stroke="#F6A594" stroke-width="2.5" d="M118.9 226.8c18.8 13.1 32.2 31.1 37.6 50.6.2.6.5 1.4 1.2 1.5.4.1.8 0 1.2-.1 10.8-2.7 21.7-5.5 32.5-8.2.1-16.7-22.4-29.3-22.8-46 0-1.1-.7-2.7-2-2.3"/><path stroke="#FAC7B9" d="M118.9 226.8c18.8 13.1 32.2 31.1 37.6 50.6.2.6.5 1.4 1.2 1.5.4.1.8 0 1.2-.1 10.8-2.7 21.7-5.5 32.5-8.2.1-16.7-22.4-29.3-22.8-46 0-1.1-.7-2.7-2-2.3"/></g><g fill="none" stroke-linecap="round" stroke-linejoin="round"><path opacity=".2" stroke="#EB2D3B" stroke-width="35" d="M187.7 230.7c26.4.7 52.6 4.4 77.7 10.8 1.9-14.5 4.8-28.8 8.9-43-25.2 2.3-50.3 5.1-75.3 8.3"/><path opacity=".25" stroke="#EB2D3B" stroke-width="8.5" d="M187.7 230.7c26.4.7 52.6 4.4 77.7 10.8 1.9-14.5 4.8-28.8 8.9-43-25.2 2.3-50.3 5.1-75.3 8.3"/><path opacity=".3" stroke="#EB2D3B" stroke-width="5" d="M187.7 230.7c26.4.7 52.6 4.4 77.7 10.8 1.9-14.5 4.8-28.8 8.9-43-25.2 2.3-50.3 5.1-75.3 8.3"/><path stroke="#EC4747" stroke-width="7" d="M187.7 230.7c26.4.7 52.6 4.4 77.7 10.8 1.9-14.5 4.8-28.8 8.9-43-25.2 2.3-50.3 5.1-75.3 8.3"/><path stroke="#F07062" stroke-width="5.5" d="M187.7 230.7c26.4.7 52.6 4.4 77.7 10.8 1.9-14.5 4.8-28.8 8.9-43-25.2 2.3-50.3 5.1-75.3 8.3"/><path stroke="#F38B7A" stroke-width="4" d="M187.7 230.7c26.4.7 52.6 4.4 77.7 10.8 1.9-14.5 4.8-28.8 8.9-43-25.2 2.3-50.3 5.1-75.3 8.3"/><path stroke="#F6A594" stroke-width="2.5" d="M187.7 230.7c26.4.7 52.6 4.4 77.7 10.8 1.9-14.5 4.8-28.8 8.9-43-25.2 2.3-50.3 5.1-75.3 8.3"/><path stroke="#FAC7B9" d="M187.7 230.7c26.4.7 52.6 4.4 77.7 10.8 1.9-14.5 4.8-28.8 8.9-43-25.2 2.3-50.3 5.1-75.3 8.3"/></g></svg>