<svg xmlns="http://www.w3.org/2000/svg" viewBox="0 0 300 300"><g fill="none" stroke-linecap="round" stroke-linejoin="round"><path opacity=".2" stroke="#089E4C" stroke-width="10" d="M125.3 107.1c-11.5-4.9-25.1-4.3-37-.4S66 117.6 56.4 125.1c0-11.3 6.5-22.2 16-29.5s21.8-11.2 34.2-12.4C85.3 74 62.3 67.9 38.8 65.5c8.8-5.9 20.4-6.7 31.3-6.9 20.8-.4 42.1.8 61.4 7.7-7.5-13.1-17-25.4-28.1-36.1 22 2.6 42.5 14.6 54.3 31.6 5.7-11.4 11.8-22.6 18.2-33.8 4.1 12.7 6.7 25.8 7.7 39 17.8-20.6 52.3-27.3 77.8-15.2-29.5 3.4-57.9 14.1-81.3 30.8 24.1 3 46.5 16.2 59.2 35-9.1-6.1-20.6-8.2-31.7-9.6-14-1.8-28.1-2.6-42.3-2.7-2.1 0-4.3.1-6.1 1.1-2.9 1.6-3.6 5.1-3.9 8.1-4.6 39.9 1.7 80.9 18.3 118.1 3.8 8.5 8.2 17.1 9.3 26.3.2 1.5.3 3.2-.6 4.5-.9 1.4-2.7 2.4-4.4 3-13.3 5.3-28.5 7-42.8 4.4-2.3-.4-4.7-1-6-2.7-1.1-1.4-1.2-3.3-1.2-5l-.6-23.4c-.6-24.4-1.3-48.9.6-73.3 1.3-16.5 3.6-33.8-3.5-49"/><path opacity=".25" stroke="#089E4C" stroke-width="8.5" d="M125.3 107.1c-11.5-4.9-25.1-4.3-37-.4S66 117.6 56.4 125.1c0-11.3 6.5-22.2 16-29.5s21.8-11.2 34.2-12.4C85.3 74 62.3 67.9 38.8 65.5c8.8-5.9 20.4-6.7 31.3-6.9 20.8-.4 42.1.8 61.4 7.7-7.5-13.1-17-25.4-28.1-36.1 22 2.6 42.5 14.6 54.3 31.6 5.7-11.4 11.8-22.6 18.2-33.8 4.1 12.7 6.7 25.8 7.7 39 17.8-20.6 52.3-27.3 77.8-15.2-29.5 3.4-57.9 14.1-81.3 30.8 24.1 3 46.5 16.2 59.2 35-9.1-6.1-20.6-8.2-31.7-9.6-14-1.8-28.1-2.6-42.3-2.7-2.1 0-4.3.1-6.1 1.1-2.9 1.6-3.6 5.1-3.9 8.1-4.6 39.9 1.7 80.9 18.3 118.1 3.8 8.5 8.2 17.1 9.3 26.3.2 1.5.3 3.2-.6 4.5-.9 1.4-2.7 2.4-4.4 3-13.3 5.3-28.5 7-42.8 4.4-2.3-.4-4.7-1-6-2.7-1.1-1.4-1.2-3.3-1.2-5l-.6-23.4c-.6-24.4-1.3-48.9.6-73.3 1.3-16.5 3.6-33.8-3.5-49"/><path opacity=".3" stroke="#089E4C" stroke-width="5" d="M125.3 107.1c-11.5-4.9-25.1-4.3-37-.4S66 117.6 56.4 125.1c0-11.3 6.5-22.2 16-29.5s21.8-11.2 34.2-12.4C85.3 74 62.3 67.9 38.8 65.5c8.8-5.9 20.4-6.7 31.3-6.9 20.8-.4 42.1.8 61.4 7.7-7.5-13.1-17-25.4-28.1-36.1 22 2.6 42.5 14.6 54.3 31.6 5.7-11.4 11.8-22.6 18.2-33.8 4.1 12.7 6.7 25.8 7.7 39 17.8-20.6 52.3-27.3 77.8-15.2-29.5 3.4-57.9 14.1-81.3 30.8 24.1 3 46.5 16.2 59.2 35-9.1-6.1-20.6-8.2-31.7-9.6-14-1.8-28.1-2.6-42.3-2.7-2.1 0-4.3.1-6.1 1.1-2.9 1.6-3.6 5.1-3.9 8.1-4.6 39.9 1.7 80.9 18.3 118.1 3.8 8.5 8.2 17.1 9.3 26.3.2 1.5.3 3.2-.6 4.5-.9 1.4-2.7 2.4-4.4 3-13.3 5.3-28.5 7-42.8 4.4-2.3-.4-4.7-1-6-2.7-1.1-1.4-1.2-3.3-1.2-5l-.6-23.4c-.6-24.4-1.3-48.9.6-73.3 1.3-16.5 3.6-33.8-3.5-49"/><path stroke="#00A455" stroke-width="7" d="M125.3 107.1c-11.5-4.9-25.1-4.3-37-.4S66 117.6 56.4 125.1c0-11.3 6.5-22.2 16-29.5s21.8-11.2 34.2-12.4C85.3 74 62.3 67.9 38.8 65.5c8.8-5.9 20.4-6.7 31.3-6.9 20.8-.4 42.1.8 61.4 7.7-7.5-13.1-17-25.4-28.1-36.1 22 2.6 42.5 14.6 54.3 31.6 5.7-11.4 11.8-22.6 18.2-33.8 4.1 12.7 6.7 25.8 7.7 39 17.8-20.6 52.3-27.3 77.8-15.2-29.5 3.4-57.9 14.1-81.3 30.8 24.1 3 46.5 16.2 59.2 35-9.1-6.1-20.6-8.2-31.7-9.6-14-1.8-28.1-2.6-42.3-2.7-2.1 0-4.3.1-6.1 1.1-2.9 1.6-3.6 5.1-3.9 8.1-4.6 39.9 1.7 80.9 18.3 118.1 3.8 8.5 8.2 17.1 9.3 26.3.2 1.5.3 3.2-.6 4.5-.9 1.4-2.7 2.4-4.4 3-13.3 5.3-28.5 7-42.8 4.4-2.3-.4-4.7-1-6-2.7-1.1-1.4-1.2-3.3-1.2-5l-.6-23.4c-.6-24.4-1.3-48.9.6-73.3 1.3-16.5 3.6-33.8-3.5-49"/><path stroke="#3DAD6B" stroke-width="5.5" d="M125.3 107.1c-11.5-4.9-25.1-4.3-37-.4S66 117.6 56.4 125.1c0-11.3 6.5-22.2 16-29.5s21.8-11.2 34.2-12.4C85.3 74 62.3 67.9 38.8 65.5c8.8-5.9 20.4-6.7 31.3-6.9 20.8-.4 42.1.8 61.4 7.7-7.5-13.1-17-25.4-28.1-36.1 22 2.6 42.5 14.6 54.3 31.6 5.7-11.4 11.8-22.6 18.2-33.8 4.1 12.7 6.7 25.8 7.7 39 17.8-20.6 52.3-27.3 77.8-15.2-29.5 3.4-57.9 14.1-81.3 30.8 24.1 3 46.5 16.2 59.2 35-9.1-6.1-20.6-8.2-31.7-9.6-14-1.8-28.1-2.6-42.3-2.7-2.1 0-4.3.1-6.1 1.1-2.9 1.6-3.6 5.1-3.9 8.1-4.6 39.9 1.7 80.9 18.3 118.1 3.8 8.5 8.2 17.1 9.3 26.3.2 1.5.3 3.2-.6 4.5-.9 1.4-2.7 2.4-4.4 3-13.3 5.3-28.5 7-42.8 4.4-2.3-.4-4.7-1-6-2.7-1.1-1.4-1.2-3.3-1.2-5l-.6-23.4c-.6-24.4-1.3-48.9.6-73.3 1.3-16.5 3.6-33.8-3.5-49"/><path stroke="#6DBA85" stroke-width="4" d="M125.3 107.1c-11.5-4.9-25.1-4.3-37-.4S66 117.6 56.4 125.1c0-11.3 6.5-22.2 16-29.5s21.8-11.2 34.2-12.4C85.3 74 62.3 67.9 38.8 65.5c8.8-5.9 20.4-6.7 31.3-6.9 20.8-.4 42.1.8 61.4 7.7-7.5-13.1-17-25.4-28.1-36.1 22 2.6 42.5 14.6 54.3 31.6 5.7-11.4 11.8-22.6 18.2-33.8 4.1 12.7 6.7 25.8 7.7 39 17.8-20.6 52.3-27.3 77.8-15.2-29.5 3.4-57.9 14.1-81.3 30.8 24.1 3 46.5 16.2 59.2 35-9.1-6.1-20.6-8.2-31.7-9.6-14-1.8-28.1-2.6-42.3-2.7-2.1 0-4.3.1-6.1 1.1-2.9 1.6-3.6 5.1-3.9 8.1-4.6 39.9 1.7 80.9 18.3 118.1 3.8 8.5 8.2 17.1 9.3 26.3.2 1.5.3 3.2-.6 4.5-.9 1.4-2.7 2.4-4.4 3-13.3 5.3-28.5 7-42.8 4.4-2.3-.4-4.7-1-6-2.7-1.1-1.4-1.2-3.3-1.2-5l-.6-23.4c-.6-24.4-1.3-48.9.6-73.3 1.3-16.5 3.6-33.8-3.5-49"/><path stroke="#8FC69C" stroke-width="2.5" d="M125.3 107.1c-11.5-4.9-25.1-4.3-37-.4S66 117.6 56.4 125.1c0-11.3 6.5-22.2 16-29.5s21.8-11.2 34.2-12.4C85.3 74 62.3 67.9 38.8 65.5c8.8-5.9 20.4-6.7 31.3-6.9 20.8-.4 42.1.8 61.4 7.7-7.5-13.1-17-25.4-28.1-36.1 22 2.6 42.5 14.6 54.3 31.6 5.7-11.4 11.8-22.6 18.2-33.8 4.1 12.7 6.7 25.8 7.7 39 17.8-20.6 52.3-27.3 77.8-15.2-29.5 3.4-57.9 14.1-81.3 30.8 24.1 3 46.5 16.2 59.2 35-9.1-6.1-20.6-8.2-31.7-9.6-14-1.8-28.1-2.6-42.3-2.7-2.1 0-4.3.1-6.1 1.1-2.9 1.6-3.6 5.1-3.9 8.1-4.6 39.9 1.7 80.9 18.3 118.1 3.8 8.5 8.2 17.1 9.3 26.3.2 1.5.3 3.2-.6 4.5-.9 1.4-2.7 2.4-4.4 3-13.3 5.3-28.5 7-42.8 4.4-2.3-.4-4.7-1-6-2.7-1.1-1.4-1.2-3.3-1.2-5l-.6-23.4c-.6-24.4-1.3-48.9.6-73.3 1.3-16.5 3.6-33.8-3.5-49"/><path stroke="#B7D8C0" d="M125.3 107.1c-11.5-4.9-25.1-4.3-37-.4S66 117.6 56.4 125.1c0-11.3 6.5-22.2 16-29.5s21.8-11.2 34.2-12.4C85.3 74 62.3 67.9 38.8 65.5c8.8-5.9 20.4-6.7 31.3-6.9 20.8-.4 42.1.8 61.4 7.7-7.5-13.1-17-25.4-28.1-36.1 22 2.6 42.5 14.6 54.3 31.6 5.7-11.4 11.8-22.6 18.2-33.8 4.1 12.7 6.7 25.8 7.7 39 17.8-20.6 52.3-27.3 77.8-15.2-29.5 3.4-57.9 14.1-81.3 30.8 24.1 3 46.5 16.2 59.2 35-9.1-6.1-20.6-8.2-31.7-9.6-14-1.8-28.1-2.6-42.3-2.7-2.1 0-4.3.1-6.1 1.1-2.9 1.6-3.6 5.1-3.9 8.1-4.6 39.9 1.7 80.9 18.3 118.1 3.8 8.5 8.2 17.1 9.3 26.3.2 1.5.3 3.2-.6 4.5-.9 1.4-2.7 2.4-4.4 3-13.3 5.3-28.5 7-42.8 4.4-2.3-.4-4.7-1-6-2.7-1.1-1.4-1.2-3.3-1.2-5l-.6-23.4c-.6-24.4-1.3-48.9.6-73.3 1.3-16.5 3.6-33.8-3.5-49"/></g><g opacity=".2"><path fill="#089E4C" d="M131.3 85.4c-15.2-6.1-33.6-5.4-49-.4-15.8 5.1-28.9 14.1-41.8 24.2l38.4 15.9c0-.5.3-5.4 0-1.4-.3 3.7.3-.4.5-1.3.2-.7 1.6-4.9.4-1.5-1.2 3.4.6-.9.9-1.3.5-.9 1.1-1.7 1.6-2.6 2.6-4-2.2 2.1-.2.3 1-.8 1.8-1.9 2.7-2.8.5-.5 4-3.4 1.3-1.3-2.7 2.1 1.5-.9 1.7-1.1.9-.6 1.9-1.1 2.8-1.7 1.2-.7 2.5-1.2 3.7-1.8 2.4-1.2-4 1.2 0 .1 2.7-.8 5.4-1.7 8.1-2.3 1.1-.2 2.2-.4 3.3-.7 5.7-1.2-5 .5.8-.1 9.6-1 19.4-6.2 21.7-16.5 2-8.9-1.1-21.5-10.3-25.4C92.3 52.8 66.5 46 38.8 43c3.8 14 7.6 28 11.4 41.9.7-.5 6.2-2.9 2.9-1.8-3.4 1.1 1.9-.5 2.6-.6 1.5-.4 4-1.4 5.6-1.1-.9.1-1.8.3-2.7.4l3.3-.3c7.3-.5 14.7-.5 22.1-.3 4 .1 8 .3 12 .6 1.8.1 3.7.4 5.5.5 4.9.4-4-.7 1.3.1 7.8 1.3 15.4 3 22.9 5.6 8.4 2.9 18.5-1.4 23.7-8.1 5.5-7.1 6.3-17.1 1.8-25-8.6-14.9-19.4-28.7-31.6-40.7l-15.9 38.4c-2.5-.3-3.7-.6-.5 0 1.3.2 2.6.5 3.9.8 2.3.6 4.6 1.2 6.8 2 .8.3 2.9 1.4 3.7 1.3-1 .1-3.9-1.8-1.1-.4 2.3 1.1 4.6 2.3 6.9 3.6 2 1.2 3.9 2.4 5.8 3.7l1.2.9c1.3 1 .8.6-1.5-1.2.4.7 1.7 1.4 2.3 2 1.9 1.7 3.7 3.4 5.4 5.3.7.7 1.3 1.5 2 2.3 3.4 3.9-2.9-4 .1.2 4.7 6.6 10.9 11.1 19.4 11.1 7.5 0 15.9-4.2 19.4-11.1 5.7-11.4 11.8-22.7 18.2-33.8l-41.1-5.4c1.9 6 3.6 12.2 4.8 18.4.6 2.8 1 5.6 1.5 8.4.5 2.8-.3-3.8.1.6.2 1.9.4 3.8.5 5.7.7 9.2 5.1 16.9 13.8 20.6 7.9 3.3 18.6 2.1 24.6-4.7 2.1-2.4 4.6-4.3 6.7-6.5-4.3 4.5-.8.7.9-.4 1.2-.7 2.3-1.4 3.5-2.1 1.1-.6 4.3-1.5 4.9-2.4-.9.4-1.9.8-2.8 1.2.9-.3 1.7-.7 2.6-1 3.1-1.1 6.2-2 9.4-2.6 1.3-.3 3-.2 4.2-.7-3.7.5-4.2.6-1.8.3.9-.1 1.9-.1 2.8-.2 3.3-.2 6.6 0 9.8.2 4.9.2-5.2-1.1-.4-.1 1.8.4 3.7.7 5.5 1.2 1.3.4 2.7.8 4 1.2.9.3 1.7.6 2.6.9-3.2-1.4-3.7-1.6-1.6-.6 3.8-14 7.6-28 11.4-41.9-33.2 3.9-65.2 14.5-92.7 33.9-7.9 5.6-13.6 15.4-10.3 25.4 3.3 10.3 11.4 15.1 21.7 16.5-6.5-.9 1.5.4 3.3.9 2.8.7 5.6 1.5 8.3 2.4.9.3 3 .6 3.7 1.4-2.7-1.2-3.3-1.4-1.8-.8.5.2.9.4 1.4.6 2.6 1.2 5.1 2.5 7.5 4 2.2 1.3 4.3 2.8 6.4 4.2 3.4 2.3-2.3-2.1-.3-.3.9.8 1.9 1.6 2.9 2.5 2 1.9 4 3.8 5.8 5.9.7.8 1.6 2.2 2.4 2.8-.6-.7-1.1-1.5-1.7-2.2.6.8 1.2 1.6 1.7 2.4l30.8-30.8c-16.4-10.5-36.6-12.3-55.5-14-9-.8-18-1.2-27-1.3-6.2-.1-12 .6-17.7 3-8 3.4-13.8 10.5-16.2 18.7-2.5 8.6-2.6 19-2.9 27.9-.3 8.4-.1 16.8.6 25.1 1.4 18.5 4.6 36.9 10 54.6 3.2 10.6 7.3 20.8 11.8 30.9 1 2.2 1.9 4.3 2.9 6.4.3.7 1 1.7 1.1 2.4-1-2.4-1.2-2.8-.6-1.3.2.5.4 1.1.6 1.6.8 2.2 1.6 4.4 2.2 6.6.2.8.4 1.7.6 2.5.4 2.1.4 2.3.1.3-.3-1.4-.4-2.9-.1-4.4 1.9-3.3 3.9-6.6 5.8-9.9 1.6-1.3 3.5-2.3 5.5-2.8-1.1.4-2.1.8-3.2 1.2-1.6.6-3.3 1.1-5 1.5-2 .5-3.9 1-5.9 1.4-.9.2-1.7.3-2.6.5 3.1-.4 3.4-.4.8-.1-4.1.3-8.1.5-12.2.2-1.5-.1-6.5.4-1 .1-1.5.1-3-.8-4.5-.9 8.5 17.6 12.5 22.5 12 14.6 0-1.3-.1-2.6-.1-3.9 0-1.9-.1-3.9-.1-5.8-.1-4.5-.2-9.1-.4-13.6-.2-8.9-.5-17.8-.6-26.8-.2-17.5.2-35 1.7-52.5.6-7.7 1.3-15.5.7-23.2-.8-11.3-3.2-20.9-7.8-31.1-4.7-10.7-21.2-14.1-30.7-8-11.2 7.2-13.2 19.2-8.1 30.8-1.6-3.6-.4-1 .2 1 .5 1.6.8 3.3 1.2 4.9 1 4.3-.2-3.7.1.7.1 2 .3 4 .3 6 .1 7.2-.5 14.4-1.1 21.5-1.4 16.3-1.6 32.6-1.5 48.9.2 16.4.7 32.8 1.1 49.2.4 14.3 6.4 25.6 20.4 30.5 7.6 2.7 16.9 3 25 2.8 18.7-.5 46.1-5 53.2-25.1 3.3-9.4.5-20.8-3-29.9-1.8-4.5-3.7-9-5.8-13.5-.7-1.6-1.5-3.2-2.2-4.8-.4-.8-.7-1.7-1.1-2.5-1.3-3 1.3 3.4.2.3-5.3-14.2-9.9-28.4-12.7-43.4-.3-1.8-.6-3.5-.9-5.3-.1-.8-.9-6.2-.5-3.2.4 2.9-.3-2.4-.4-3.3l-.6-6.3c-.6-7.5-.8-15-.6-22.5.1-4.2.3-8.4.6-12.6l.6-6.3c.1-.7.3-3.9 0-.1-.3 1.9-.3 2.2 0 1 1-3.1-.8-1.5-5.4 4.8 3.2-3.2-6.4 8.2-8.5 5.8.2.3 3.1 0 3.5 0 2.3 0 4.5.1 6.8.1 4.5.1 9 .3 13.5.6s9 .7 13.4 1.2c1.9.2 5 0 6.7.8 0 0-4.4-.7-1.8-.2 1.1.2 2.2.3 3.3.5 3.9.7 7.7 1.5 11.5 2.7.8.2 1.6.5 2.4.8 3.6 1.2-.8-.1-.8-.4 0 0 5.4 3 5.7 3.2 8.1 5.1 20.7 3.6 27.3-3.5 6.4-7 9.3-18.9 3.5-27.3-8.9-12.8-19.9-23.6-33.4-31.5-14.1-8.3-29.2-12.5-45.2-14.7 3.8 14 7.6 28 11.4 41.9 5.6-3.9 11.3-7.5 17.3-10.8 3-1.6 6.1-3.2 9.2-4.6 1.5-.7 3.1-1.5 4.7-2.1-5.4 2 .7-.2 1.8-.6 6.5-2.5 13.1-4.5 19.8-6.2 3.4-.8 6.8-1.6 10.2-2.2 1.7-.3 3.4-.6 5.2-.9.9-.1 1.7-.3 2.6-.4-3.1.4-3.4.5-.8.1 9.6-1.1 19.3-6.2 21.7-16.5 2.1-9.1-1.1-21.2-10.3-25.4-18.8-8.6-38.2-10.8-58.4-7-17.4 3.2-34.8 12.5-46.6 25.7l38.4 15.9c-1.2-15.3-3.9-30.4-8.5-45-2.7-8.6-9.6-14.9-18.7-16.1-8.8-1.2-17.9 2.9-22.4 10.7-6.4 11.4-12.5 22.7-18.2 34.1h38.9c-8.5-11.9-18.7-21.9-31.4-29.3-13.2-7.7-27.3-11.5-42.3-13.5-8.7-1.1-17.5 6.6-20.6 13.8-3.5 8.2-1.8 18.2 4.7 24.6 2.5 2.5 5 5 7.4 7.7 1.2 1.3 2.4 2.7 3.5 4 .4.5 4.6 5.6 2.7 3.2-1.9-2.4 1.6 2.1 1.9 2.7 1 1.4 2 2.9 3 4.3 2.1 3.2 4.1 6.4 6 9.7 8.5-11 16.9-22 25.4-33.1-17.7-6.1-36.8-8.2-55.4-8.5-18.4-.3-38.5-.2-54.6 10-8.2 5.2-13.5 15.8-10.4 25.5C20.4 81.6 28.5 86.9 38.8 88c1.2.1 2.5.3 3.7.4 6 .7-3-.5.5.1 2.8.5 5.5.9 8.3 1.4 5.5 1 10.9 2.2 16.3 3.6 5.1 1.3 10.1 2.8 15.1 4.5 2.6.9 5.2 1.8 7.8 2.8 1.4.5 2.9 1.1 4.3 1.7 1 .4 5.1 2.1.6.2 3.8-14 7.6-28 11.4-41.9-18.8 2-35.9 7.4-50.7 19.5-13.4 11-21.5 27.6-22 44.9-.2 8.9 5.8 17.2 13.8 20.6 9 3.8 17.2 1.1 24.6-4.7-4.2 3.2-.8.7.1 0 1.1-.8 2.3-1.6 3.4-2.4 2.3-1.6 4.6-3.1 7-4.6 2.4-1.4 4.9-2.7 7.4-4 3.8-2-2.6.8 0-.1 1.3-.5 2.6-1 4-1.4 2.7-.9 5.5-1.5 8.3-2.1 3.8-.8-.8.2-.8.1s3.9-.2 4.3-.2c1.4 0 2.9.1 4.3.1 5.3 0-2.9-.8 0-.1 3.1.8 6 1.5 9 2.7 11 4.4 25.2-4.8 27.7-15.7 2.8-13.4-4.2-23.4-15.9-28z"/><path fill="#089E4C" d="M131.3 85.4c-15.2-6.1-33.6-5.4-49-.4-15.8 5.1-28.9 14.1-41.8 24.2l38.4 15.9c0-.5.3-5.4 0-1.4-.3 3.7.3-.4.5-1.3.2-.7 1.6-4.9.4-1.5-1.2 3.4.6-.9.9-1.3.5-.9 1.1-1.7 1.6-2.6 2.6-4-2.2 2.1-.2.3 1-.8 1.8-1.9 2.7-2.8.5-.5 4-3.4 1.3-1.3-2.7 2.1 1.5-.9 1.7-1.1.9-.6 1.9-1.1 2.8-1.7 1.2-.7 2.5-1.2 3.7-1.8 2.4-1.2-4 1.2 0 .1 2.7-.8 5.4-1.7 8.1-2.3 1.1-.2 2.2-.4 3.3-.7 5.7-1.2-5 .5.8-.1 9.6-1 19.4-6.2 21.7-16.5 2-8.9-1.1-21.5-10.3-25.4C92.3 52.8 66.5 46 38.8 43c3.8 14 7.6 28 11.4 41.9.7-.5 6.2-2.9 2.9-1.8-3.4 1.1 1.9-.5 2.6-.6 1.5-.4 4-1.4 5.6-1.1-.9.1-1.8.3-2.7.4l3.3-.3c7.3-.5 14.7-.5 22.1-.3 4 .1 8 .3 12 .6 1.8.1 3.7.4 5.5.5 4.9.4-4-.7 1.3.1 7.8 1.3 15.4 3 22.9 5.6 8.4 2.9 18.5-1.4 23.7-8.1 5.5-7.1 6.3-17.1 1.8-25-8.6-14.9-19.4-28.7-31.6-40.7l-15.9 38.4c-2.5-.3-3.7-.6-.5 0 1.3.2 2.6.5 3.9.8 2.3.6 4.6 1.2 6.8 2 .8.3 2.9 1.4 3.7 1.3-1 .1-3.9-1.8-1.1-.4 2.3 1.1 4.6 2.3 6.9 3.6 2 1.2 3.9 2.4 5.8 3.7l1.2.9c1.3 1 .8.6-1.5-1.2.4.7 1.7 1.4 2.3 2 1.9 1.7 3.7 3.4 5.4 5.3.7.7 1.3 1.5 2 2.3 3.4 3.9-2.9-4 .1.2 4.7 6.6 10.9 11.1 19.4 11.1 7.5 0 15.9-4.2 19.4-11.1 5.7-11.4 11.8-22.7 18.2-33.8l-41.1-5.4c1.9 6 3.6 12.2 4.8 18.4.6 2.8 1 5.6 1.5 8.4.5 2.8-.3-3.8.1.6.2 1.9.4 3.8.5 5.7.7 9.2 5.1 16.9 13.8 20.6 7.9 3.3 18.6 2.1 24.6-4.7 2.1-2.4 4.6-4.3 6.7-6.5-4.3 4.5-.8.7.9-.4 1.2-.7 2.3-1.4 3.5-2.1 1.1-.6 4.3-1.5 4.9-2.4-.9.4-1.9.8-2.8 1.2.9-.3 1.7-.7 2.6-1 3.1-1.1 6.2-2 9.4-2.6 1.3-.3 3-.2 4.2-.7-3.7.5-4.2.6-1.8.3.9-.1 1.9-.1 2.8-.2 3.3-.2 6.6 0 9.8.2 4.9.2-5.2-1.1-.4-.1 1.8.4 3.7.7 5.5 1.2 1.3.4 2.7.8 4 1.2.9.3 1.7.6 2.6.9-3.2-1.4-3.7-1.6-1.6-.6 3.8-14 7.6-28 11.4-41.9-33.2 3.9-65.2 14.5-92.7 33.9-7.9 5.6-13.6 15.4-10.3 25.4 3.3 10.3 11.4 15.1 21.7 16.5-6.5-.9 1.5.4 3.3.9 2.8.7 5.6 1.5 8.3 2.4.9.3 3 .6 3.7 1.4-2.7-1.2-3.3-1.4-1.8-.8.5.2.9.4 1.4.6 2.6 1.2 5.1 2.5 7.5 4 2.2 1.3 4.3 2.8 6.4 4.2 3.4 2.3-2.3-2.1-.3-.3.9.8 1.9 1.6 2.9 2.5 2 1.9 4 3.8 5.8 5.9.7.8 1.6 2.2 2.4 2.8-.6-.7-1.1-1.5-1.7-2.2.6.8 1.2 1.6 1.7 2.4l30.8-30.8c-16.4-10.5-36.6-12.3-55.5-14-9-.8-18-1.2-27-1.3-6.2-.1-12 .6-17.7 3-8 3.4-13.8 10.5-16.2 18.7-2.5 8.6-2.6 19-2.9 27.9-.3 8.4-.1 16.8.6 25.1 1.4 18.5 4.6 36.9 10 54.6 3.2 10.6 7.3 20.8 11.8 30.9 1 2.2 1.9 4.3 2.9 6.4.3.7 1 1.7 1.1 2.4-1-2.4-1.2-2.8-.6-1.3.2.5.4 1.1.6 1.6.8 2.2 1.6 4.4 2.2 6.6.2.8.4 1.7.6 2.5.4 2.1.4 2.3.1.3-.3-1.4-.4-2.9-.1-4.4 1.9-3.3 3.9-6.6 5.8-9.9 1.6-1.3 3.5-2.3 5.5-2.8-1.1.4-2.1.8-3.2 1.2-1.6.6-3.3 1.1-5 1.5-2 .5-3.9 1-5.9 1.4-.9.2-1.7.3-2.6.5 3.1-.4 3.4-.4.8-.1-4.1.3-8.1.5-12.2.2-1.5-.1-6.5.4-1 .1-1.5.1-3-.8-4.5-.9 8.5 17.6 12.5 22.5 12 14.6 0-1.3-.1-2.6-.1-3.9 0-1.9-.1-3.9-.1-5.8-.1-4.5-.2-9.1-.4-13.6-.2-8.9-.5-17.8-.6-26.8-.2-17.5.2-35 1.7-52.5.6-7.7 1.3-15.5.7-23.2-.8-11.3-3.2-20.9-7.8-31.1-4.7-10.7-21.2-14.1-30.7-8-11.2 7.2-13.2 19.2-8.1 30.8-1.6-3.6-.4-1 .2 1 .5 1.6.8 3.3 1.2 4.9 1 4.3-.2-3.7.1.7.1 2 .3 4 .3 6 .1 7.2-.5 14.4-1.1 21.5-1.4 16.3-1.6 32.6-1.5 48.9.2 16.4.7 32.8 1.1 49.2.4 14.3 6.4 25.6 20.4 30.5 7.6 2.7 16.9 3 25 2.8 18.7-.5 46.1-5 53.2-25.1 3.3-9.4.5-20.8-3-29.9-1.8-4.5-3.7-9-5.8-13.5-.7-1.6-1.5-3.2-2.2-4.8-.4-.8-.7-1.7-1.1-2.5-1.3-3 1.3 3.4.2.3-5.3-14.2-9.9-28.4-12.7-43.4-.3-1.8-.6-3.5-.9-5.3-.1-.8-.9-6.2-.5-3.2.4 2.9-.3-2.4-.4-3.3l-.6-6.3c-.6-7.5-.8-15-.6-22.5.1-4.2.3-8.4.6-12.6l.6-6.3c.1-.7.3-3.9 0-.1-.3 1.9-.3 2.2 0 1 1-3.1-.8-1.5-5.4 4.8 3.2-3.2-6.4 8.2-8.5 5.8.2.3 3.1 0 3.5 0 2.3 0 4.5.1 6.8.1 4.5.1 9 .3 13.5.6s9 .7 13.4 1.2c1.9.2 5 0 6.7.8 0 0-4.4-.7-1.8-.2 1.1.2 2.2.3 3.3.5 3.9.7 7.7 1.5 11.5 2.7.8.2 1.6.5 2.4.8 3.6 1.2-.8-.1-.8-.4 0 0 5.4 3 5.7 3.2 8.1 5.1 20.7 3.6 27.3-3.5 6.4-7 9.3-18.9 3.5-27.3-8.9-12.8-19.9-23.6-33.4-31.5-14.1-8.3-29.2-12.5-45.2-14.7 3.8 14 7.6 28 11.4 41.9 5.6-3.9 11.3-7.5 17.3-10.8 3-1.6 6.1-3.2 9.2-4.6 1.5-.7 3.1-1.5 4.7-2.1-5.4 2 .7-.2 1.8-.6 6.5-2.5 13.1-4.5 19.8-6.2 3.4-.8 6.8-1.6 10.2-2.2 1.7-.3 3.4-.6 5.2-.9.9-.1 1.7-.3 2.6-.4-3.1.4-3.4.5-.8.1 9.6-1.1 19.3-6.2 21.7-16.5 2.1-9.1-1.1-21.2-10.3-25.4-18.8-8.6-38.2-10.8-58.4-7-17.4 3.2-34.8 12.5-46.6 25.7l38.4 15.9c-1.2-15.3-3.9-30.4-8.5-45-2.7-8.6-9.6-14.9-18.7-16.1-8.8-1.2-17.9 2.9-22.4 10.7-6.4 11.4-12.5 22.7-18.2 34.1h38.9c-8.5-11.9-18.7-21.9-31.4-29.3-13.2-7.7-27.3-11.5-42.3-13.5-8.7-1.1-17.5 6.6-20.6 13.8-3.5 8.2-1.8 18.2 4.7 24.6 2.5 2.5 5 5 7.4 7.7 1.2 1.3 2.4 2.7 3.5 4 .4.5 4.6 5.6 2.7 3.2-1.9-2.4 1.6 2.1 1.9 2.7 1 1.4 2 2.9 3 4.3 2.1 3.2 4.1 6.4 6 9.7 8.5-11 16.9-22 25.4-33.1-17.7-6.1-36.8-8.2-55.4-8.5-18.4-.3-38.5-.2-54.6 10-8.2 5.2-13.5 15.8-10.4 25.5C20.4 81.6 28.5 86.9 38.8 88c1.2.1 2.5.3 3.7.4 6 .7-3-.5.5.1 2.8.5 5.5.9 8.3 1.4 5.5 1 10.9 2.2 16.3 3.6 5.1 1.3 10.1 2.8 15.1 4.5 2.6.9 5.2 1.8 7.8 2.8 1.4.5 2.9 1.1 4.3 1.7 1 .4 5.1 2.1.6.2 3.8-14 7.6-28 11.4-41.9-18.8 2-35.9 7.4-50.7 19.5-13.4 11-21.5 27.6-22 44.9-.2 8.9 5.8 17.2 13.8 20.6 9 3.8 17.2 1.1 24.6-4.7-4.2 3.2-.8.7.1 0 1.1-.8 2.3-1.6 3.4-2.4 2.3-1.6 4.6-3.1 7-4.6 2.4-1.4 4.9-2.7 7.4-4 3.8-2-2.6.8 0-.1 1.3-.5 2.6-1 4-1.4 2.7-.9 5.5-1.5 8.3-2.1 3.8-.8-.8.2-.8.1s3.9-.2 4.3-.2c1.4 0 2.9.1 4.3.1 5.3 0-2.9-.8 0-.1 3.1.8 6 1.5 9 2.7 11 4.4 25.2-4.8 27.7-15.7 2.8-13.4-4.2-23.4-15.9-28z"/><path fill="#089E4C" d="M131.3 85.4c-15.2-6.1-33.6-5.4-49-.4-15.8 5.1-28.9 14.1-41.8 24.2l38.4 15.9c0-.5.3-5.4 0-1.4-.3 3.7.3-.4.5-1.3.2-.7 1.6-4.9.4-1.5-1.2 3.4.6-.9.9-1.3.5-.9 1.1-1.7 1.6-2.6 2.6-4-2.2 2.1-.2.3 1-.8 1.8-1.9 2.7-2.8.5-.5 4-3.4 1.3-1.3-2.7 2.1 1.5-.9 1.7-1.1.9-.6 1.9-1.1 2.8-1.7 1.2-.7 2.5-1.2 3.7-1.8 2.4-1.2-4 1.2 0 .1 2.7-.8 5.4-1.7 8.1-2.3 1.1-.2 2.2-.4 3.3-.7 5.7-1.2-5 .5.8-.1 9.6-1 19.4-6.2 21.7-16.5 2-8.9-1.1-21.5-10.3-25.4C92.3 52.8 66.5 46 38.8 43c3.8 14 7.6 28 11.4 41.9.7-.5 6.2-2.9 2.9-1.8-3.4 1.1 1.9-.5 2.6-.6 1.5-.4 4-1.4 5.6-1.1-.9.1-1.8.3-2.7.4l3.3-.3c7.3-.5 14.7-.5 22.1-.3 4 .1 8 .3 12 .6 1.8.1 3.7.4 5.5.5 4.9.4-4-.7 1.3.1 7.8 1.3 15.4 3 22.9 5.6 8.4 2.9 18.5-1.4 23.7-8.1 5.5-7.1 6.3-17.1 1.8-25-8.6-14.9-19.4-28.7-31.6-40.7l-15.9 38.4c-2.5-.3-3.7-.6-.5 0 1.3.2 2.6.5 3.9.8 2.3.6 4.6 1.2 6.8 2 .8.3 2.9 1.4 3.7 1.3-1 .1-3.9-1.8-1.1-.4 2.3 1.1 4.6 2.3 6.9 3.6 2 1.2 3.9 2.4 5.8 3.7l1.2.9c1.3 1 .8.6-1.5-1.2.4.7 1.7 1.4 2.3 2 1.9 1.7 3.7 3.4 5.4 5.3.7.7 1.3 1.5 2 2.3 3.4 3.9-2.9-4 .1.2 4.7 6.6 10.9 11.1 19.4 11.1 7.5 0 15.9-4.2 19.4-11.1 5.7-11.4 11.8-22.7 18.2-33.8l-41.1-5.4c1.9 6 3.6 12.2 4.8 18.4.6 2.8 1 5.6 1.5 8.4.5 2.8-.3-3.8.1.6.2 1.9.4 3.8.5 5.7.7 9.2 5.1 16.9 13.8 20.6 7.9 3.3 18.6 2.1 24.6-4.7 2.1-2.4 4.6-4.3 6.7-6.5-4.3 4.5-.8.7.9-.4 1.2-.7 2.3-1.4 3.5-2.1 1.1-.6 4.3-1.5 4.9-2.4-.9.4-1.9.8-2.8 1.2.9-.3 1.7-.7 2.6-1 3.1-1.1 6.2-2 9.4-2.6 1.3-.3 3-.2 4.2-.7-3.7.5-4.2.6-1.8.3.9-.1 1.9-.1 2.8-.2 3.3-.2 6.6 0 9.8.2 4.9.2-5.2-1.1-.4-.1 1.8.4 3.7.7 5.5 1.2 1.3.4 2.7.8 4 1.2.9.3 1.7.6 2.6.9-3.2-1.4-3.7-1.6-1.6-.6 3.8-14 7.6-28 11.4-41.9-33.2 3.9-65.2 14.5-92.7 33.9-7.9 5.6-13.6 15.4-10.3 25.4 3.3 10.3 11.4 15.1 21.7 16.5-6.5-.9 1.5.4 3.3.9 2.8.7 5.6 1.5 8.3 2.4.9.3 3 .6 3.7 1.4-2.7-1.2-3.3-1.4-1.8-.8.5.2.9.4 1.4.6 2.6 1.2 5.1 2.5 7.5 4 2.2 1.3 4.3 2.8 6.4 4.2 3.4 2.3-2.3-2.1-.3-.3.9.8 1.9 1.6 2.9 2.5 2 1.9 4 3.8 5.8 5.9.7.8 1.6 2.2 2.4 2.8-.6-.7-1.1-1.5-1.7-2.2.6.8 1.2 1.6 1.7 2.4l30.8-30.8c-16.4-10.5-36.6-12.3-55.5-14-9-.8-18-1.2-27-1.3-6.2-.1-12 .6-17.7 3-8 3.4-13.8 10.5-16.2 18.7-2.5 8.6-2.6 19-2.9 27.9-.3 8.4-.1 16.8.6 25.1 1.4 18.5 4.6 36.9 10 54.6 3.2 10.6 7.3 20.8 11.8 30.9 1 2.2 1.9 4.3 2.9 6.4.3.7 1 1.7 1.1 2.4-1-2.4-1.2-2.8-.6-1.3.2.5.4 1.1.6 1.6.8 2.2 1.6 4.4 2.2 6.6.2.8.4 1.7.6 2.5.4 2.1.4 2.3.1.3-.3-1.4-.4-2.9-.1-4.4 1.9-3.3 3.9-6.6 5.8-9.9 1.6-1.3 3.5-2.3 5.5-2.8-1.1.4-2.1.8-3.2 1.2-1.6.6-3.3 1.1-5 1.5-2 .5-3.9 1-5.9 1.4-.9.2-1.7.3-2.6.5 3.1-.4 3.4-.4.8-.1-4.1.3-8.1.5-12.2.2-1.5-.1-6.5.4-1 .1-1.5.1-3-.8-4.5-.9 8.5 17.6 12.5 22.5 12 14.6 0-1.3-.1-2.6-.1-3.9 0-1.9-.1-3.9-.1-5.8-.1-4.5-.2-9.1-.4-13.6-.2-8.9-.5-17.8-.6-26.8-.2-17.5.2-35 1.7-52.5.6-7.7 1.3-15.5.7-23.2-.8-11.3-3.2-20.9-7.8-31.1-4.7-10.7-21.2-14.1-30.7-8-11.2 7.2-13.2 19.2-8.1 30.8-1.6-3.6-.4-1 .2 1 .5 1.6.8 3.3 1.2 4.9 1 4.3-.2-3.7.1.7.1 2 .3 4 .3 6 .1 7.2-.5 14.4-1.1 21.5-1.4 16.3-1.6 32.6-1.5 48.9.2 16.4.7 32.8 1.1 49.2.4 14.3 6.4 25.6 20.4 30.5 7.6 2.7 16.9 3 25 2.8 18.7-.5 46.1-5 53.2-25.1 3.3-9.4.5-20.8-3-29.9-1.8-4.5-3.7-9-5.8-13.5-.7-1.6-1.5-3.2-2.2-4.8-.4-.8-.7-1.7-1.1-2.5-1.3-3 1.3 3.4.2.3-5.3-14.2-9.9-28.4-12.7-43.4-.3-1.8-.6-3.5-.9-5.3-.1-.8-.9-6.2-.5-3.2.4 2.9-.3-2.4-.4-3.3l-.6-6.3c-.6-7.5-.8-15-.6-22.5.1-4.2.3-8.4.6-12.6l.6-6.3c.1-.7.3-3.9 0-.1-.3 1.9-.3 2.2 0 1 1-3.1-.8-1.5-5.4 4.8 3.2-3.2-6.4 8.2-8.5 5.8.2.3 3.1 0 3.5 0 2.3 0 4.5.1 6.8.1 4.5.1 9 .3 13.5.6s9 .7 13.4 1.2c1.9.2 5 0 6.7.8 0 0-4.4-.7-1.8-.2 1.1.2 2.2.3 3.3.5 3.9.7 7.7 1.5 11.5 2.7.8.2 1.6.5 2.4.8 3.6 1.2-.8-.1-.8-.4 0 0 5.4 3 5.7 3.2 8.1 5.1 20.7 3.6 27.3-3.5 6.4-7 9.3-18.9 3.5-27.3-8.9-12.8-19.9-23.6-33.4-31.5-14.1-8.3-29.2-12.5-45.2-14.7 3.8 14 7.6 28 11.4 41.9 5.6-3.9 11.3-7.5 17.3-10.8 3-1.6 6.1-3.2 9.2-4.6 1.5-.7 3.1-1.5 4.7-2.1-5.4 2 .7-.2 1.8-.6 6.5-2.5 13.1-4.5 19.8-6.2 3.4-.8 6.8-1.6 10.2-2.2 1.7-.3 3.4-.6 5.2-.9.9-.1 1.7-.3 2.6-.4-3.1.4-3.4.5-.8.1 9.6-1.1 19.3-6.2 21.7-16.5 2.1-9.1-1.1-21.2-10.3-25.4-18.8-8.6-38.2-10.8-58.4-7-17.4 3.2-34.8 12.5-46.6 25.7l38.4 15.9c-1.2-15.3-3.9-30.4-8.5-45-2.7-8.6-9.6-14.9-18.7-16.1-8.8-1.2-17.9 2.9-22.4 10.7-6.4 11.4-12.5 22.7-18.2 34.1h38.9c-8.5-11.9-18.7-21.9-31.4-29.3-13.2-7.7-27.3-11.5-42.3-13.5-8.7-1.1-17.5 6.6-20.6 13.8-3.5 8.2-1.8 18.2 4.7 24.6 2.5 2.5 5 5 7.4 7.7 1.2 1.3 2.4 2.7 3.5 4 .4.5 4.6 5.6 2.7 3.2-1.9-2.4 1.6 2.1 1.9 2.7 1 1.4 2 2.9 3 4.3 2.1 3.2 4.1 6.4 6 9.7 8.5-11 16.9-22 25.4-33.1-17.7-6.1-36.8-8.2-55.4-8.5-18.4-.3-38.5-.2-54.6 10-8.2 5.2-13.5 15.8-10.4 25.5C20.4 81.6 28.5 86.9 38.8 88c1.2.1 2.5.3 3.7.4 6 .7-3-.5.5.1 2.8.5 5.5.9 8.3 1.4 5.5 1 10.9 2.2 16.3 3.6 5.1 1.3 10.1 2.8 15.1 4.5 2.6.9 5.2 1.8 7.8 2.8 1.4.5 2.9 1.1 4.3 1.7 1 .4 5.1 2.1.6.2 3.8-14 7.6-28 11.4-41.9-18.8 2-35.9 7.4-50.7 19.5-13.4 11-21.5 27.6-22 44.9-.2 8.9 5.8 17.2 13.8 20.6 9 3.8 17.2 1.1 24.6-4.7-4.2 3.2-.8.7.1 0 1.1-.8 2.3-1.6 3.4-2.4 2.3-1.6 4.6-3.1 7-4.6 2.4-1.4 4.9-2.7 7.4-4 3.8-2-2.6.8 0-.1 1.3-.5 2.6-1 4-1.4 2.7-.9 5.5-1.5 8.3-2.1 3.8-.8-.8.2-.8.1s3.9-.2 4.3-.2c1.4 0 2.9.1 4.3.1 5.3 0-2.9-.8 0-.1 3.1.8 6 1.5 9 2.7 11 4.4 25.2-4.8 27.7-15.7 2.8-13.4-4.2-23.4-15.9-28z"/><path fill="#089E4C" d="M131.3 85.4c-15.2-6.1-33.6-5.4-49-.4-15.8 5.1-28.9 14.1-41.8 24.2l38.4 15.9c0-.5.3-5.4 0-1.4-.3 3.7.3-.4.5-1.3.2-.7 1.6-4.9.4-1.5-1.2 3.4.6-.9.9-1.3.5-.9 1.1-1.7 1.6-2.6 2.6-4-2.2 2.1-.2.3 1-.8 1.8-1.9 2.7-2.8.5-.5 4-3.4 1.3-1.3-2.7 2.1 1.5-.9 1.7-1.1.9-.6 1.9-1.1 2.8-1.7 1.2-.7 2.5-1.2 3.7-1.8 2.4-1.2-4 1.2 0 .1 2.7-.8 5.4-1.7 8.1-2.3 1.1-.2 2.2-.4 3.3-.7 5.7-1.2-5 .5.8-.1 9.6-1 19.4-6.2 21.7-16.5 2-8.9-1.1-21.5-10.3-25.4C92.3 52.8 66.5 46 38.8 43c3.8 14 7.6 28 11.4 41.9.7-.5 6.2-2.9 2.9-1.8-3.4 1.1 1.9-.5 2.6-.6 1.5-.4 4-1.4 5.6-1.1-.9.1-1.8.3-2.7.4l3.3-.3c7.3-.5 14.7-.5 22.1-.3 4 .1 8 .3 12 .6 1.8.1 3.7.4 5.5.5 4.9.4-4-.7 1.3.1 7.8 1.3 15.4 3 22.9 5.6 8.4 2.9 18.5-1.4 23.7-8.1 5.5-7.1 6.3-17.1 1.8-25-8.6-14.9-19.4-28.7-31.6-40.7l-15.9 38.4c-2.5-.3-3.7-.6-.5 0 1.3.2 2.6.5 3.9.8 2.3.6 4.6 1.2 6.8 2 .8.3 2.9 1.4 3.7 1.3-1 .1-3.9-1.8-1.1-.4 2.3 1.1 4.6 2.3 6.9 3.6 2 1.2 3.9 2.4 5.8 3.7l1.2.9c1.3 1 .8.6-1.5-1.2.4.7 1.7 1.4 2.3 2 1.9 1.7 3.7 3.4 5.4 5.3.7.7 1.3 1.5 2 2.3 3.4 3.9-2.9-4 .1.2 4.7 6.6 10.9 11.1 19.4 11.1 7.5 0 15.9-4.2 19.4-11.1 5.7-11.4 11.8-22.7 18.2-33.8l-41.1-5.4c1.9 6 3.6 12.2 4.8 18.4.6 2.8 1 5.6 1.5 8.4.5 2.8-.3-3.8.1.6.2 1.9.4 3.8.5 5.7.7 9.2 5.1 16.9 13.8 20.6 7.9 3.3 18.6 2.1 24.6-4.7 2.1-2.4 4.6-4.3 6.7-6.5-4.3 4.5-.8.7.9-.4 1.2-.7 2.3-1.4 3.5-2.1 1.1-.6 4.3-1.5 4.9-2.4-.9.4-1.9.8-2.8 1.2.9-.3 1.7-.7 2.6-1 3.1-1.1 6.2-2 9.4-2.6 1.3-.3 3-.2 4.2-.7-3.7.5-4.2.6-1.8.3.9-.1 1.9-.1 2.8-.2 3.3-.2 6.6 0 9.8.2 4.9.2-5.2-1.1-.4-.1 1.8.4 3.7.7 5.5 1.2 1.3.4 2.7.8 4 1.2.9.3 1.7.6 2.6.9-3.2-1.4-3.7-1.6-1.6-.6 3.8-14 7.6-28 11.4-41.9-33.2 3.9-65.2 14.5-92.7 33.9-7.9 5.6-13.6 15.4-10.3 25.4 3.3 10.3 11.4 15.1 21.7 16.5-6.5-.9 1.5.4 3.3.9 2.8.7 5.6 1.5 8.3 2.4.9.3 3 .6 3.7 1.4-2.7-1.2-3.3-1.4-1.8-.8.5.2.9.4 1.4.6 2.6 1.2 5.1 2.5 7.5 4 2.2 1.3 4.3 2.8 6.4 4.2 3.4 2.3-2.3-2.1-.3-.3.9.8 1.9 1.6 2.9 2.5 2 1.9 4 3.8 5.8 5.9.7.8 1.6 2.2 2.4 2.8-.6-.7-1.1-1.5-1.7-2.2.6.8 1.2 1.6 1.7 2.4l30.8-30.8c-16.4-10.5-36.6-12.3-55.5-14-9-.8-18-1.2-27-1.3-6.2-.1-12 .6-17.7 3-8 3.4-13.8 10.5-16.2 18.7-2.5 8.6-2.6 19-2.9 27.9-.3 8.4-.1 16.8.6 25.1 1.4 18.5 4.6 36.9 10 54.6 3.2 10.6 7.3 20.8 11.8 30.9 1 2.2 1.9 4.3 2.9 6.4.3.7 1 1.7 1.1 2.4-1-2.4-1.2-2.8-.6-1.3.2.5.4 1.1.6 1.6.8 2.2 1.6 4.4 2.2 6.6.2.8.4 1.7.6 2.5.4 2.1.4 2.3.1.3-.3-1.4-.4-2.9-.1-4.4 1.9-3.3 3.9-6.6 5.8-9.9 1.6-1.3 3.5-2.3 5.5-2.8-1.1.4-2.1.8-3.2 1.2-1.6.6-3.3 1.1-5 1.5-2 .5-3.9 1-5.9 1.4-.9.2-1.7.3-2.6.5 3.1-.4 3.4-.4.8-.1-4.1.3-8.1.5-12.2.2-1.5-.1-6.5.4-1 .1-1.5.1-3-.8-4.5-.9 8.5 17.6 12.5 22.5 12 14.6 0-1.3-.1-2.6-.1-3.9 0-1.9-.1-3.9-.1-5.8-.1-4.5-.2-9.1-.4-13.6-.2-8.9-.5-17.8-.6-26.8-.2-17.5.2-35 1.7-52.5.6-7.7 1.3-15.5.7-23.2-.8-11.3-3.2-20.9-7.8-31.1-4.7-10.7-21.2-14.1-30.7-8-11.2 7.2-13.2 19.2-8.1 30.8-1.6-3.6-.4-1 .2 1 .5 1.6.8 3.3 1.2 4.9 1 4.3-.2-3.7.1.7.1 2 .3 4 .3 6 .1 7.2-.5 14.4-1.1 21.5-1.4 16.3-1.6 32.6-1.5 48.9.2 16.4.7 32.8 1.1 49.2.4 14.3 6.4 25.6 20.4 30.5 7.6 2.7 16.9 3 25 2.8 18.7-.5 46.1-5 53.2-25.1 3.3-9.4.5-20.8-3-29.9-1.8-4.5-3.7-9-5.8-13.5-.7-1.6-1.5-3.2-2.2-4.8-.4-.8-.7-1.7-1.1-2.5-1.3-3 1.3 3.4.2.3-5.3-14.2-9.9-28.4-12.7-43.4-.3-1.8-.6-3.5-.9-5.3-.1-.8-.9-6.2-.5-3.2.4 2.9-.3-2.4-.4-3.3l-.6-6.3c-.6-7.5-.8-15-.6-22.5.1-4.2.3-8.4.6-12.6l.6-6.3c.1-.7.3-3.9 0-.1-.3 1.9-.3 2.2 0 1 1-3.1-.8-1.5-5.4 4.8 3.2-3.2-6.4 8.2-8.5 5.8.2.3 3.1 0 3.5 0 2.3 0 4.5.1 6.8.1 4.5.1 9 .3 13.5.6s9 .7 13.4 1.2c1.9.2 5 0 6.7.8 0 0-4.4-.7-1.8-.2 1.1.2 2.2.3 3.3.5 3.9.7 7.7 1.5 11.5 2.7.8.2 1.6.5 2.4.8 3.6 1.2-.8-.1-.8-.4 0 0 5.4 3 5.7 3.2 8.1 5.1 20.7 3.6 27.3-3.5 6.4-7 9.3-18.9 3.5-27.3-8.9-12.8-19.9-23.6-33.4-31.5-14.1-8.3-29.2-12.5-45.2-14.7 3.8 14 7.6 28 11.4 41.9 5.6-3.9 11.3-7.5 17.3-10.8 3-1.6 6.1-3.2 9.2-4.6 1.5-.7 3.1-1.5 4.7-2.1-5.4 2 .7-.2 1.8-.6 6.5-2.5 13.1-4.5 19.8-6.2 3.4-.8 6.8-1.6 10.2-2.2 1.7-.3 3.4-.6 5.2-.9.9-.1 1.7-.3 2.6-.4-3.1.4-3.4.5-.8.1 9.6-1.1 19.3-6.2 21.7-16.5 2.1-9.1-1.1-21.2-10.3-25.4-18.8-8.6-38.2-10.8-58.4-7-17.4 3.2-34.8 12.5-46.6 25.7l38.4 15.9c-1.2-15.3-3.9-30.4-8.5-45-2.7-8.6-9.6-14.9-18.7-16.1-8.8-1.2-17.9 2.9-22.4 10.7-6.4 11.4-12.5 22.7-18.2 34.1h38.9c-8.5-11.9-18.7-21.9-31.4-29.3-13.2-7.7-27.3-11.5-42.3-13.5-8.7-1.1-17.5 6.6-20.6 13.8-3.5 8.2-1.8 18.2 4.7 24.6 2.5 2.5 5 5 7.4 7.7 1.2 1.3 2.4 2.7 3.5 4 .4.5 4.6 5.6 2.7 3.2-1.9-2.4 1.6 2.1 1.9 2.7 1 1.4 2 2.9 3 4.3 2.1 3.2 4.1 6.4 6 9.7 8.5-11 16.9-22 25.4-33.1-17.7-6.1-36.8-8.2-55.4-8.5-18.4-.3-38.5-.2-54.6 10-8.2 5.2-13.5 15.8-10.4 25.5C20.4 81.6 28.5 86.9 38.8 88c1.2.1 2.5.3 3.7.4 6 .7-3-.5.5.1 2.8.5 5.5.9 8.3 1.4 5.5 1 10.9 2.2 16.3 3.6 5.1 1.3 10.1 2.8 15.1 4.5 2.6.9 5.2 1.8 7.8 2.8 1.4.5 2.9 1.1 4.3 1.7 1 .4 5.1 2.1.6.2 3.8-14 7.6-28 11.4-41.9-18.8 2-35.9 7.4-50.7 19.5-13.4 11-21.5 27.6-22 44.9-.2 8.9 5.8 17.2 13.8 20.6 9 3.8 17.2 1.1 24.6-4.7-4.2 3.2-.8.7.1 0 1.1-.8 2.3-1.6 3.4-2.4 2.3-1.6 4.6-3.1 7-4.6 2.4-1.4 4.9-2.7 7.4-4 3.8-2-2.6.8 0-.1 1.3-.5 2.6-1 4-1.4 2.7-.9 5.5-1.5 8.3-2.1 3.8-.8-.8.2-.8.1s3.9-.2 4.3-.2c1.4 0 2.9.1 4.3.1 5.3 0-2.9-.8 0-.1 3.1.8 6 1.5 9 2.7 11 4.4 25.2-4.8 27.7-15.7 2.8-13.4-4.2-23.4-15.9-28z"/><path fill="#089E4C" d="M131.3 85.4c-15.2-6.1-33.6-5.4-49-.4-15.8 5.1-28.9 14.1-41.8 24.2l38.4 15.9c0-.5.3-5.4 0-1.4-.3 3.7.3-.4.5-1.3.2-.7 1.6-4.9.4-1.5-1.2 3.4.6-.9.9-1.3.5-.9 1.1-1.7 1.6-2.6 2.6-4-2.2 2.1-.2.3 1-.8 1.8-1.9 2.7-2.8.5-.5 4-3.4 1.3-1.3-2.7 2.1 1.5-.9 1.7-1.1.9-.6 1.9-1.1 2.8-1.7 1.2-.7 2.5-1.2 3.7-1.8 2.4-1.2-4 1.2 0 .1 2.7-.8 5.4-1.7 8.1-2.3 1.1-.2 2.2-.4 3.3-.7 5.7-1.2-5 .5.8-.1 9.6-1 19.4-6.2 21.7-16.5 2-8.9-1.1-21.5-10.3-25.4C92.3 52.8 66.5 46 38.8 43c3.8 14 7.6 28 11.4 41.9.7-.5 6.2-2.9 2.9-1.8-3.4 1.1 1.9-.5 2.6-.6 1.5-.4 4-1.4 5.6-1.1-.9.1-1.8.3-2.7.4l3.3-.3c7.3-.5 14.7-.5 22.1-.3 4 .1 8 .3 12 .6 1.8.1 3.7.4 5.5.5 4.9.4-4-.7 1.3.1 7.8 1.3 15.4 3 22.9 5.6 8.4 2.9 18.5-1.4 23.7-8.1 5.5-7.1 6.3-17.1 1.8-25-8.6-14.9-19.4-28.7-31.6-40.7l-15.9 38.4c-2.5-.3-3.7-.6-.5 0 1.3.2 2.6.5 3.9.8 2.3.6 4.6 1.2 6.8 2 .8.3 2.9 1.4 3.7 1.3-1 .1-3.9-1.8-1.1-.4 2.3 1.1 4.6 2.3 6.9 3.6 2 1.2 3.9 2.4 5.8 3.7l1.2.9c1.3 1 .8.6-1.5-1.2.4.7 1.7 1.4 2.3 2 1.9 1.7 3.7 3.4 5.4 5.3.7.7 1.3 1.5 2 2.3 3.4 3.9-2.9-4 .1.2 4.7 6.6 10.9 11.1 19.4 11.1 7.5 0 15.9-4.2 19.4-11.1 5.7-11.4 11.8-22.7 18.2-33.8l-41.1-5.4c1.9 6 3.6 12.2 4.8 18.4.6 2.8 1 5.6 1.5 8.4.5 2.8-.3-3.8.1.6.2 1.9.4 3.8.5 5.7.7 9.2 5.1 16.9 13.8 20.6 7.9 3.3 18.6 2.1 24.6-4.7 2.1-2.4 4.6-4.3 6.7-6.5-4.3 4.5-.8.7.9-.4 1.2-.7 2.3-1.4 3.5-2.1 1.1-.6 4.3-1.5 4.9-2.4-.9.4-1.9.8-2.8 1.2.9-.3 1.7-.7 2.6-1 3.1-1.1 6.2-2 9.4-2.6 1.3-.3 3-.2 4.2-.7-3.7.5-4.2.6-1.8.3.9-.1 1.9-.1 2.8-.2 3.3-.2 6.6 0 9.8.2 4.9.2-5.2-1.1-.4-.1 1.8.4 3.7.7 5.5 1.2 1.3.4 2.7.8 4 1.2.9.3 1.7.6 2.6.9-3.2-1.4-3.7-1.6-1.6-.6 3.8-14 7.6-28 11.4-41.9-33.2 3.9-65.2 14.5-92.7 33.9-7.9 5.6-13.6 15.4-10.3 25.4 3.3 10.3 11.4 15.1 21.7 16.5-6.5-.9 1.5.4 3.3.9 2.8.7 5.6 1.5 8.3 2.4.9.3 3 .6 3.7 1.4-2.7-1.2-3.3-1.4-1.8-.8.5.2.9.4 1.4.6 2.6 1.2 5.1 2.5 7.5 4 2.2 1.3 4.3 2.8 6.4 4.2 3.4 2.3-2.3-2.1-.3-.3.9.8 1.9 1.6 2.9 2.5 2 1.9 4 3.8 5.8 5.9.7.8 1.6 2.2 2.4 2.8-.6-.7-1.1-1.5-1.7-2.2.6.8 1.2 1.6 1.7 2.4l30.8-30.8c-16.4-10.5-36.6-12.3-55.5-14-9-.8-18-1.2-27-1.3-6.2-.1-12 .6-17.7 3-8 3.4-13.8 10.5-16.2 18.7-2.5 8.6-2.6 19-2.9 27.9-.3 8.4-.1 16.8.6 25.1 1.4 18.5 4.6 36.9 10 54.6 3.2 10.6 7.3 20.8 11.8 30.9 1 2.2 1.9 4.3 2.9 6.4.3.7 1 1.7 1.1 2.4-1-2.4-1.2-2.8-.6-1.3.2.5.4 1.1.6 1.6.8 2.2 1.6 4.4 2.2 6.6.2.8.4 1.7.6 2.5.4 2.1.4 2.3.1.3-.3-1.4-.4-2.9-.1-4.4 1.9-3.3 3.9-6.6 5.8-9.9 1.6-1.3 3.5-2.3 5.5-2.8-1.1.4-2.1.8-3.2 1.2-1.6.6-3.3 1.1-5 1.5-2 .5-3.9 1-5.9 1.4-.9.2-1.7.3-2.6.5 3.1-.4 3.4-.4.8-.1-4.1.3-8.1.5-12.2.2-1.5-.1-6.5.4-1 .1-1.5.1-3-.8-4.5-.9 8.5 17.6 12.5 22.5 12 14.6 0-1.3-.1-2.6-.1-3.9 0-1.9-.1-3.9-.1-5.8-.1-4.5-.2-9.1-.4-13.6-.2-8.9-.5-17.8-.6-26.8-.2-17.5.2-35 1.7-52.5.6-7.7 1.3-15.5.7-23.2-.8-11.3-3.2-20.9-7.8-31.1-4.7-10.7-21.2-14.1-30.7-8-11.2 7.2-13.2 19.2-8.1 30.8-1.6-3.6-.4-1 .2 1 .5 1.6.8 3.3 1.2 4.9 1 4.3-.2-3.7.1.7.1 2 .3 4 .3 6 .1 7.2-.5 14.4-1.1 21.5-1.4 16.3-1.6 32.6-1.5 48.9.2 16.4.7 32.8 1.1 49.2.4 14.3 6.4 25.6 20.4 30.5 7.6 2.7 16.9 3 25 2.8 18.7-.5 46.1-5 53.2-25.1 3.3-9.4.5-20.8-3-29.9-1.8-4.5-3.7-9-5.8-13.5-.7-1.6-1.5-3.2-2.2-4.8-.4-.8-.7-1.7-1.1-2.5-1.3-3 1.3 3.4.2.3-5.3-14.2-9.9-28.4-12.7-43.4-.3-1.8-.6-3.5-.9-5.3-.1-.8-.9-6.2-.5-3.2.4 2.9-.3-2.4-.4-3.3l-.6-6.3c-.6-7.5-.8-15-.6-22.5.1-4.2.3-8.4.6-12.6l.6-6.3c.1-.7.3-3.9 0-.1-.3 1.9-.3 2.2 0 1 1-3.1-.8-1.5-5.4 4.8 3.2-3.2-6.4 8.2-8.5 5.8.2.3 3.1 0 3.5 0 2.3 0 4.5.1 6.8.1 4.5.1 9 .3 13.5.6s9 .7 13.4 1.2c1.9.2 5 0 6.7.8 0 0-4.4-.7-1.8-.2 1.1.2 2.2.3 3.3.5 3.9.7 7.7 1.5 11.5 2.7.8.2 1.6.5 2.4.8 3.6 1.2-.8-.1-.8-.4 0 0 5.4 3 5.7 3.2 8.1 5.1 20.7 3.6 27.3-3.5 6.4-7 9.3-18.9 3.5-27.3-8.9-12.8-19.9-23.6-33.4-31.5-14.1-8.3-29.2-12.5-45.2-14.7 3.8 14 7.6 28 11.4 41.9 5.6-3.9 11.3-7.5 17.3-10.8 3-1.6 6.1-3.2 9.2-4.6 1.5-.7 3.1-1.5 4.7-2.1-5.4 2 .7-.2 1.8-.6 6.5-2.5 13.1-4.5 19.8-6.2 3.4-.8 6.8-1.6 10.2-2.2 1.7-.3 3.4-.6 5.2-.9.9-.1 1.7-.3 2.6-.4-3.1.4-3.4.5-.8.1 9.6-1.1 19.3-6.2 21.7-16.5 2.1-9.1-1.1-21.2-10.3-25.4-18.8-8.6-38.2-10.8-58.4-7-17.4 3.2-34.8 12.5-46.6 25.7l38.4 15.9c-1.2-15.3-3.9-30.4-8.5-45-2.7-8.6-9.6-14.9-18.7-16.1-8.8-1.2-17.9 2.9-22.4 10.7-6.4 11.4-12.5 22.7-18.2 34.1h38.9c-8.5-11.9-18.7-21.9-31.4-29.3-13.2-7.7-27.3-11.5-42.3-13.5-8.7-1.1-17.5 6.6-20.6 13.8-3.5 8.2-1.8 18.2 4.7 24.6 2.5 2.5 5 5 7.4 7.7 1.2 1.3 2.4 2.7 3.5 4 .4.5 4.6 5.6 2.7 3.2-1.9-2.4 1.6 2.1 1.9 2.7 1 1.4 2 2.9 3 4.3 2.1 3.2 4.1 6.4 6 9.7 8.5-11 16.9-22 25.4-33.1-17.7-6.1-36.8-8.2-55.4-8.5-18.4-.3-38.5-.2-54.6 10-8.2 5.2-13.5 15.8-10.4 25.5C20.4 81.6 28.5 86.9 38.8 88c1.2.1 2.5.3 3.7.4 6 .7-3-.5.5.1 2.8.5 5.5.9 8.3 1.4 5.5 1 10.9 2.2 16.3 3.6 5.1 1.3 10.1 2.8 15.1 4.5 2.6.9 5.2 1.8 7.8 2.8 1.4.5 2.9 1.1 4.3 1.7 1 .4 5.1 2.1.6.2 3.8-14 7.6-28 11.4-41.9-18.8 2-35.9 7.4-50.7 19.5-13.4 11-21.5 27.6-22 44.9-.2 8.9 5.8 17.2 13.8 20.6 9 3.8 17.2 1.1 24.6-4.7-4.2 3.2-.8.7.1 0 1.1-.8 2.3-1.6 3.4-2.4 2.3-1.6 4.6-3.1 7-4.6 2.4-1.4 4.9-2.7 7.4-4 3.8-2-2.6.8 0-.1 1.3-.5 2.6-1 4-1.4 2.7-.9 5.5-1.5 8.3-2.1 3.8-.8-.8.2-.8.1s3.9-.2 4.3-.2c1.4 0 2.9.1 4.3.1 5.3 0-2.9-.8 0-.1 3.1.8 6 1.5 9 2.7 11 4.4 25.2-4.8 27.7-15.7 2.8-13.4-4.2-23.4-15.9-28z"/><path fill="#089E4C" d="M131.3 85.4c-15.2-6.1-33.6-5.4-49-.4-15.8 5.1-28.9 14.1-41.8 24.2l38.4 15.9c0-.5.3-5.4 0-1.4-.3 3.7.3-.4.5-1.3.2-.7 1.6-4.9.4-1.5-1.2 3.4.6-.9.9-1.3.5-.9 1.1-1.7 1.6-2.6 2.6-4-2.2 2.1-.2.3 1-.8 1.8-1.9 2.7-2.8.5-.5 4-3.4 1.3-1.3-2.7 2.1 1.5-.9 1.7-1.1.9-.6 1.9-1.1 2.8-1.7 1.2-.7 2.5-1.2 3.7-1.8 2.4-1.2-4 1.2 0 .1 2.7-.8 5.4-1.7 8.1-2.3 1.1-.2 2.2-.4 3.3-.7 5.7-1.2-5 .5.8-.1 9.6-1 19.4-6.2 21.7-16.5 2-8.9-1.1-21.5-10.3-25.4C92.3 52.8 66.5 46 38.8 43c3.8 14 7.6 28 11.4 41.9.7-.5 6.2-2.9 2.9-1.8-3.4 1.1 1.9-.5 2.6-.6 1.5-.4 4-1.4 5.6-1.1-.9.1-1.8.3-2.7.4l3.3-.3c7.3-.5 14.7-.5 22.1-.3 4 .1 8 .3 12 .6 1.8.1 3.7.4 5.5.5 4.9.4-4-.7 1.3.1 7.8 1.3 15.4 3 22.9 5.6 8.4 2.9 18.5-1.4 23.7-8.1 5.5-7.1 6.3-17.1 1.8-25-8.6-14.9-19.4-28.7-31.6-40.7l-15.9 38.4c-2.5-.3-3.7-.6-.5 0 1.3.2 2.6.5 3.9.8 2.3.6 4.6 1.2 6.8 2 .8.3 2.9 1.4 3.7 1.3-1 .1-3.9-1.8-1.1-.4 2.3 1.1 4.6 2.3 6.9 3.6 2 1.2 3.9 2.4 5.8 3.7l1.2.9c1.3 1 .8.6-1.5-1.2.4.7 1.7 1.4 2.3 2 1.9 1.7 3.7 3.4 5.4 5.3.7.7 1.3 1.5 2 2.3 3.4 3.9-2.9-4 .1.2 4.7 6.6 10.9 11.1 19.4 11.1 7.5 0 15.9-4.2 19.4-11.1 5.7-11.4 11.8-22.7 18.2-33.8l-41.1-5.4c1.9 6 3.6 12.2 4.8 18.4.6 2.8 1 5.6 1.5 8.4.5 2.8-.3-3.8.1.6.2 1.9.4 3.8.5 5.7.7 9.2 5.1 16.9 13.8 20.6 7.9 3.3 18.6 2.1 24.6-4.7 2.1-2.4 4.6-4.3 6.7-6.5-4.3 4.5-.8.7.9-.4 1.2-.7 2.3-1.4 3.5-2.1 1.1-.6 4.3-1.5 4.9-2.4-.9.4-1.9.8-2.8 1.2.9-.3 1.7-.7 2.6-1 3.1-1.1 6.2-2 9.4-2.6 1.3-.3 3-.2 4.2-.7-3.7.5-4.2.6-1.8.3.9-.1 1.9-.1 2.8-.2 3.3-.2 6.6 0 9.8.2 4.9.2-5.2-1.1-.4-.1 1.8.4 3.7.7 5.5 1.2 1.3.4 2.7.8 4 1.2.9.3 1.7.6 2.6.9-3.2-1.4-3.7-1.6-1.6-.6 3.8-14 7.6-28 11.4-41.9-33.2 3.9-65.2 14.5-92.7 33.9-7.9 5.6-13.6 15.4-10.3 25.4 3.3 10.3 11.4 15.1 21.7 16.5-6.5-.9 1.5.4 3.3.9 2.8.7 5.6 1.5 8.3 2.4.9.3 3 .6 3.7 1.4-2.7-1.2-3.3-1.4-1.8-.8.5.2.9.4 1.4.6 2.6 1.2 5.1 2.5 7.5 4 2.2 1.3 4.3 2.8 6.4 4.2 3.4 2.3-2.3-2.1-.3-.3.9.8 1.9 1.6 2.9 2.5 2 1.9 4 3.8 5.8 5.9.7.8 1.6 2.2 2.4 2.8-.6-.7-1.1-1.5-1.7-2.2.6.8 1.2 1.6 1.7 2.4l30.8-30.8c-16.4-10.5-36.6-12.3-55.5-14-9-.8-18-1.2-27-1.3-6.2-.1-12 .6-17.7 3-8 3.4-13.8 10.5-16.2 18.7-2.5 8.6-2.6 19-2.9 27.9-.3 8.4-.1 16.8.6 25.1 1.4 18.5 4.6 36.9 10 54.6 3.2 10.6 7.3 20.8 11.8 30.9 1 2.2 1.9 4.3 2.9 6.4.3.7 1 1.7 1.1 2.4-1-2.4-1.2-2.8-.6-1.3.2.5.4 1.1.6 1.6.8 2.2 1.6 4.4 2.2 6.6.2.8.4 1.7.6 2.5.4 2.1.4 2.3.1.3-.3-1.4-.4-2.9-.1-4.4 1.9-3.3 3.9-6.6 5.8-9.9 1.6-1.3 3.5-2.3 5.5-2.8-1.1.4-2.1.8-3.2 1.2-1.6.6-3.3 1.1-5 1.5-2 .5-3.9 1-5.9 1.4-.9.2-1.7.3-2.6.5 3.1-.4 3.4-.4.8-.1-4.1.3-8.1.5-12.2.2-1.5-.1-6.5.4-1 .1-1.5.1-3-.8-4.5-.9 8.5 17.6 12.5 22.5 12 14.6 0-1.3-.1-2.6-.1-3.9 0-1.9-.1-3.9-.1-5.8-.1-4.5-.2-9.1-.4-13.6-.2-8.9-.5-17.8-.6-26.8-.2-17.5.2-35 1.7-52.5.6-7.7 1.3-15.5.7-23.2-.8-11.3-3.2-20.9-7.8-31.1-4.7-10.7-21.2-14.1-30.7-8-11.2 7.2-13.2 19.2-8.1 30.8-1.6-3.6-.4-1 .2 1 .5 1.6.8 3.3 1.2 4.9 1 4.3-.2-3.7.1.7.1 2 .3 4 .3 6 .1 7.2-.5 14.4-1.1 21.5-1.4 16.3-1.6 32.6-1.5 48.9.2 16.4.7 32.8 1.1 49.2.4 14.3 6.4 25.6 20.4 30.5 7.6 2.7 16.9 3 25 2.8 18.7-.5 46.1-5 53.2-25.1 3.3-9.4.5-20.8-3-29.9-1.8-4.5-3.7-9-5.8-13.5-.7-1.6-1.5-3.2-2.2-4.8-.4-.8-.7-1.7-1.1-2.5-1.3-3 1.3 3.4.2.3-5.3-14.2-9.9-28.4-12.7-43.4-.3-1.8-.6-3.5-.9-5.3-.1-.8-.9-6.2-.5-3.2.4 2.9-.3-2.4-.4-3.3l-.6-6.3c-.6-7.5-.8-15-.6-22.5.1-4.2.3-8.4.6-12.6l.6-6.3c.1-.7.3-3.9 0-.1-.3 1.9-.3 2.2 0 1 1-3.1-.8-1.5-5.4 4.8 3.2-3.2-6.4 8.2-8.5 5.8.2.3 3.1 0 3.5 0 2.3 0 4.5.1 6.8.1 4.5.1 9 .3 13.5.6s9 .7 13.4 1.2c1.9.2 5 0 6.7.8 0 0-4.4-.7-1.8-.2 1.1.2 2.2.3 3.3.5 3.9.7 7.7 1.5 11.5 2.7.8.2 1.6.5 2.4.8 3.6 1.2-.8-.1-.8-.4 0 0 5.4 3 5.7 3.2 8.1 5.1 20.7 3.6 27.3-3.5 6.4-7 9.3-18.9 3.5-27.3-8.9-12.8-19.9-23.6-33.4-31.5-14.1-8.3-29.2-12.5-45.2-14.7 3.8 14 7.6 28 11.4 41.9 5.6-3.9 11.3-7.5 17.3-10.8 3-1.6 6.1-3.2 9.2-4.6 1.5-.7 3.1-1.5 4.7-2.1-5.4 2 .7-.2 1.8-.6 6.5-2.5 13.1-4.5 19.8-6.2 3.4-.8 6.8-1.6 10.2-2.2 1.7-.3 3.4-.6 5.2-.9.9-.1 1.7-.3 2.6-.4-3.1.4-3.4.5-.8.1 9.6-1.1 19.3-6.2 21.7-16.5 2.1-9.1-1.1-21.2-10.3-25.4-18.8-8.6-38.2-10.8-58.4-7-17.4 3.2-34.8 12.5-46.6 25.7l38.4 15.9c-1.2-15.3-3.9-30.4-8.5-45-2.7-8.6-9.6-14.9-18.7-16.1-8.8-1.2-17.9 2.9-22.4 10.7-6.4 11.4-12.5 22.7-18.2 34.1h38.9c-8.5-11.9-18.7-21.9-31.4-29.3-13.2-7.7-27.3-11.5-42.3-13.5-8.7-1.1-17.5 6.6-20.6 13.8-3.5 8.2-1.8 18.2 4.7 24.6 2.5 2.5 5 5 7.4 7.7 1.2 1.3 2.4 2.7 3.5 4 .4.5 4.6 5.6 2.7 3.2-1.9-2.4 1.6 2.1 1.9 2.7 1 1.4 2 2.9 3 4.3 2.1 3.2 4.1 6.4 6 9.7 8.5-11 16.9-22 25.4-33.1-17.7-6.1-36.8-8.2-55.4-8.5-18.4-.3-38.5-.2-54.6 10-8.2 5.2-13.5 15.8-10.4 25.5C20.4 81.6 28.5 86.9 38.8 88c1.2.1 2.5.3 3.7.4 6 .7-3-.5.5.1 2.8.5 5.5.9 8.3 1.4 5.5 1 10.9 2.2 16.3 3.6 5.1 1.3 10.1 2.8 15.1 4.5 2.6.9 5.2 1.8 7.8 2.8 1.4.5 2.9 1.1 4.3 1.7 1 .4 5.1 2.1.6.2 3.8-14 7.6-28 11.4-41.9-18.8 2-35.9 7.4-50.7 19.5-13.4 11-21.5 27.6-22 44.9-.2 8.9 5.8 17.2 13.8 20.6 9 3.8 17.2 1.1 24.6-4.7-4.2 3.2-.8.7.1 0 1.1-.8 2.3-1.6 3.4-2.4 2.3-1.6 4.6-3.1 7-4.6 2.4-1.4 4.9-2.7 7.4-4 3.8-2-2.6.8 0-.1 1.3-.5 2.6-1 4-1.4 2.7-.9 5.5-1.5 8.3-2.1 3.8-.8-.8.2-.8.1s3.9-.2 4.3-.2c1.4 0 2.9.1 4.3.1 5.3 0-2.9-.8 0-.1 3.1.8 6 1.5 9 2.7 11 4.4 25.2-4.8 27.7-15.7 2.8-13.4-4.2-23.4-15.9-28z"/><path fill="#089E4C" d="M131.3 85.4c-15.2-6.1-33.6-5.4-49-.4-15.8 5.1-28.9 14.1-41.8 24.2l38.4 15.9c0-.5.3-5.4 0-1.4-.3 3.7.3-.4.5-1.3.2-.7 1.6-4.9.4-1.5-1.2 3.4.6-.9.9-1.3.5-.9 1.1-1.7 1.6-2.6 2.6-4-2.2 2.1-.2.3 1-.8 1.8-1.9 2.7-2.8.5-.5 4-3.4 1.3-1.3-2.7 2.1 1.5-.9 1.7-1.1.9-.6 1.9-1.1 2.8-1.7 1.2-.7 2.5-1.2 3.7-1.8 2.4-1.2-4 1.2 0 .1 2.7-.8 5.4-1.7 8.1-2.3 1.1-.2 2.2-.4 3.3-.7 5.7-1.2-5 .5.8-.1 9.6-1 19.4-6.2 21.7-16.5 2-8.9-1.1-21.5-10.3-25.4C92.3 52.8 66.5 46 38.8 43c3.8 14 7.6 28 11.4 41.9.7-.5 6.2-2.9 2.9-1.8-3.4 1.1 1.9-.5 2.6-.6 1.5-.4 4-1.4 5.6-1.1-.9.1-1.8.3-2.7.4l3.3-.3c7.3-.5 14.7-.5 22.1-.3 4 .1 8 .3 12 .6 1.8.1 3.7.4 5.5.5 4.9.4-4-.7 1.3.1 7.8 1.3 15.4 3 22.9 5.6 8.4 2.9 18.5-1.4 23.7-8.1 5.5-7.1 6.3-17.1 1.8-25-8.6-14.9-19.4-28.7-31.6-40.7l-15.9 38.4c-2.5-.3-3.7-.6-.5 0 1.3.2 2.6.5 3.9.8 2.3.6 4.6 1.2 6.8 2 .8.3 2.9 1.4 3.7 1.3-1 .1-3.9-1.8-1.1-.4 2.3 1.1 4.6 2.3 6.9 3.6 2 1.2 3.9 2.4 5.8 3.7l1.2.9c1.3 1 .8.6-1.5-1.2.4.7 1.7 1.4 2.3 2 1.9 1.7 3.7 3.4 5.4 5.3.7.7 1.3 1.5 2 2.3 3.4 3.9-2.9-4 .1.2 4.7 6.6 10.9 11.1 19.4 11.1 7.5 0 15.9-4.2 19.4-11.1 5.7-11.4 11.8-22.7 18.2-33.8l-41.1-5.4c1.9 6 3.6 12.2 4.8 18.4.6 2.8 1 5.6 1.5 8.4.5 2.8-.3-3.8.1.6.2 1.9.4 3.8.5 5.7.7 9.2 5.1 16.9 13.8 20.6 7.9 3.3 18.6 2.1 24.6-4.7 2.1-2.4 4.6-4.3 6.7-6.5-4.3 4.5-.8.7.9-.4 1.2-.7 2.3-1.4 3.5-2.1 1.1-.6 4.3-1.5 4.9-2.4-.9.4-1.9.8-2.8 1.2.9-.3 1.7-.7 2.6-1 3.1-1.1 6.2-2 9.4-2.6 1.3-.3 3-.2 4.2-.7-3.7.5-4.2.6-1.8.3.9-.1 1.9-.1 2.8-.2 3.3-.2 6.6 0 9.8.2 4.9.2-5.2-1.1-.4-.1 1.8.4 3.7.7 5.5 1.2 1.3.4 2.7.8 4 1.2.9.3 1.7.6 2.6.9-3.2-1.4-3.7-1.6-1.6-.6 3.8-14 7.6-28 11.4-41.9-33.2 3.9-65.2 14.5-92.7 33.9-7.9 5.6-13.6 15.4-10.3 25.4 3.3 10.3 11.4 15.1 21.7 16.5-6.5-.9 1.5.4 3.3.9 2.8.7 5.6 1.5 8.3 2.4.9.3 3 .6 3.7 1.4-2.7-1.2-3.3-1.4-1.8-.8.5.2.9.4 1.4.6 2.6 1.2 5.1 2.5 7.5 4 2.2 1.3 4.3 2.8 6.4 4.2 3.4 2.3-2.3-2.1-.3-.3.9.8 1.9 1.6 2.9 2.5 2 1.9 4 3.8 5.8 5.9.7.8 1.6 2.2 2.4 2.8-.6-.7-1.1-1.5-1.7-2.2.6.8 1.2 1.6 1.7 2.4l30.8-30.8c-16.4-10.5-36.6-12.3-55.5-14-9-.8-18-1.2-27-1.3-6.2-.1-12 .6-17.7 3-8 3.4-13.8 10.5-16.2 18.7-2.5 8.6-2.6 19-2.9 27.9-.3 8.4-.1 16.8.6 25.1 1.4 18.5 4.6 36.9 10 54.6 3.2 10.6 7.3 20.8 11.8 30.9 1 2.2 1.9 4.3 2.9 6.4.3.7 1 1.7 1.1 2.4-1-2.4-1.2-2.8-.6-1.3.2.5.4 1.1.6 1.6.8 2.2 1.6 4.4 2.2 6.6.2.8.4 1.7.6 2.5.4 2.1.4 2.3.1.3-.3-1.4-.4-2.9-.1-4.4 1.9-3.3 3.9-6.6 5.8-9.9 1.6-1.3 3.5-2.3 5.5-2.8-1.1.4-2.1.8-3.2 1.2-1.6.6-3.3 1.1-5 1.5-2 .5-3.9 1-5.9 1.4-.9.2-1.7.3-2.6.5 3.1-.4 3.4-.4.8-.1-4.1.3-8.1.5-12.2.2-1.5-.1-6.5.4-1 .1-1.5.1-3-.8-4.5-.9 8.5 17.6 12.5 22.5 12 14.6 0-1.3-.1-2.6-.1-3.9 0-1.9-.1-3.9-.1-5.8-.1-4.5-.2-9.1-.4-13.6-.2-8.9-.5-17.8-.6-26.8-.2-17.5.2-35 1.7-52.5.6-7.7 1.3-15.5.7-23.2-.8-11.3-3.2-20.9-7.8-31.1-4.7-10.7-21.2-14.1-30.7-8-11.2 7.2-13.2 19.2-8.1 30.8-1.6-3.6-.4-1 .2 1 .5 1.6.8 3.3 1.2 4.9 1 4.3-.2-3.7.1.7.1 2 .3 4 .3 6 .1 7.2-.5 14.4-1.1 21.5-1.4 16.3-1.6 32.6-1.5 48.9.2 16.4.7 32.8 1.1 49.2.4 14.3 6.4 25.6 20.4 30.5 7.6 2.7 16.9 3 25 2.8 18.7-.5 46.1-5 53.2-25.1 3.3-9.4.5-20.8-3-29.9-1.8-4.5-3.7-9-5.8-13.5-.7-1.6-1.5-3.2-2.2-4.8-.4-.8-.7-1.7-1.1-2.5-1.3-3 1.3 3.4.2.3-5.3-14.2-9.9-28.4-12.7-43.4-.3-1.8-.6-3.5-.9-5.3-.1-.8-.9-6.2-.5-3.2.4 2.9-.3-2.4-.4-3.3l-.6-6.3c-.6-7.5-.8-15-.6-22.5.1-4.2.3-8.4.6-12.6l.6-6.3c.1-.7.3-3.9 0-.1-.3 1.9-.3 2.2 0 1 1-3.1-.8-1.5-5.4 4.8 3.2-3.2-6.4 8.2-8.5 5.8.2.3 3.1 0 3.5 0 2.3 0 4.5.1 6.8.1 4.5.1 9 .3 13.5.6s9 .7 13.4 1.2c1.9.2 5 0 6.7.8 0 0-4.4-.7-1.8-.2 1.1.2 2.2.3 3.3.5 3.9.7 7.7 1.5 11.5 2.7.8.2 1.6.5 2.4.8 3.6 1.2-.8-.1-.8-.4 0 0 5.4 3 5.7 3.2 8.1 5.1 20.7 3.6 27.3-3.5 6.4-7 9.3-18.9 3.5-27.3-8.9-12.8-19.9-23.6-33.4-31.5-14.1-8.3-29.2-12.5-45.2-14.7 3.8 14 7.6 28 11.4 41.9 5.6-3.9 11.3-7.5 17.3-10.8 3-1.6 6.1-3.2 9.2-4.6 1.5-.7 3.1-1.5 4.7-2.1-5.4 2 .7-.2 1.8-.6 6.5-2.5 13.1-4.5 19.8-6.2 3.4-.8 6.8-1.6 10.2-2.2 1.7-.3 3.4-.6 5.2-.9.9-.1 1.7-.3 2.6-.4-3.1.4-3.4.5-.8.1 9.6-1.1 19.3-6.2 21.7-16.5 2.1-9.1-1.1-21.2-10.3-25.4-18.8-8.6-38.2-10.8-58.4-7-17.4 3.2-34.8 12.5-46.6 25.7l38.4 15.9c-1.2-15.3-3.9-30.4-8.5-45-2.7-8.6-9.6-14.9-18.7-16.1-8.8-1.2-17.9 2.9-22.4 10.7-6.4 11.4-12.5 22.7-18.2 34.1h38.9c-8.5-11.9-18.7-21.9-31.4-29.3-13.2-7.7-27.3-11.5-42.3-13.5-8.7-1.1-17.5 6.6-20.6 13.8-3.5 8.2-1.8 18.2 4.7 24.6 2.5 2.5 5 5 7.4 7.7 1.2 1.3 2.4 2.7 3.5 4 .4.5 4.6 5.6 2.7 3.2-1.9-2.4 1.6 2.1 1.9 2.7 1 1.4 2 2.9 3 4.3 2.1 3.2 4.1 6.4 6 9.7 8.5-11 16.9-22 25.4-33.1-17.7-6.1-36.8-8.2-55.4-8.5-18.4-.3-38.5-.2-54.6 10-8.2 5.2-13.5 15.8-10.4 25.5C20.4 81.6 28.5 86.9 38.8 88c1.2.1 2.5.3 3.7.4 6 .7-3-.5.5.1 2.8.5 5.5.9 8.3 1.4 5.5 1 10.9 2.2 16.3 3.6 5.1 1.3 10.1 2.8 15.1 4.5 2.6.9 5.2 1.8 7.8 2.8 1.4.5 2.9 1.1 4.3 1.7 1 .4 5.1 2.1.6.2 3.8-14 7.6-28 11.4-41.9-18.8 2-35.9 7.4-50.7 19.5-13.4 11-21.5 27.6-22 44.9-.2 8.9 5.8 17.2 13.8 20.6 9 3.8 17.2 1.1 24.6-4.7-4.2 3.2-.8.7.1 0 1.1-.8 2.3-1.6 3.4-2.4 2.3-1.6 4.6-3.1 7-4.6 2.4-1.4 4.9-2.7 7.4-4 3.8-2-2.6.8 0-.1 1.3-.5 2.6-1 4-1.4 2.7-.9 5.5-1.5 8.3-2.1 3.8-.8-.8.2-.8.1s3.9-.2 4.3-.2c1.4 0 2.9.1 4.3.1 5.3 0-2.9-.8 0-.1 3.1.8 6 1.5 9 2.7 11 4.4 25.2-4.8 27.7-15.7 2.8-13.4-4.2-23.4-15.9-28z"/><path fill="#089E4C" d="M131.3 85.4c-15.2-6.1-33.6-5.4-49-.4-15.8 5.1-28.9 14.1-41.8 24.2l38.4 15.9c0-.5.3-5.4 0-1.4-.3 3.7.3-.4.5-1.3.2-.7 1.6-4.9.4-1.5-1.2 3.4.6-.9.9-1.3.5-.9 1.1-1.7 1.6-2.6 2.6-4-2.2 2.1-.2.3 1-.8 1.8-1.9 2.7-2.8.5-.5 4-3.4 1.3-1.3-2.7 2.1 1.5-.9 1.7-1.1.9-.6 1.9-1.1 2.8-1.7 1.2-.7 2.5-1.2 3.7-1.8 2.4-1.2-4 1.2 0 .1 2.7-.8 5.4-1.7 8.1-2.3 1.1-.2 2.2-.4 3.3-.7 5.7-1.2-5 .5.8-.1 9.6-1 19.4-6.2 21.7-16.5 2-8.9-1.1-21.5-10.3-25.4C92.3 52.8 66.5 46 38.8 43c3.8 14 7.6 28 11.4 41.9.7-.5 6.2-2.9 2.9-1.8-3.4 1.1 1.9-.5 2.6-.6 1.5-.4 4-1.4 5.6-1.1-.9.1-1.8.3-2.7.4l3.3-.3c7.3-.5 14.7-.5 22.1-.3 4 .1 8 .3 12 .6 1.8.1 3.7.4 5.5.5 4.9.4-4-.7 1.3.1 7.8 1.3 15.4 3 22.9 5.6 8.4 2.9 18.5-1.4 23.7-8.1 5.5-7.1 6.3-17.1 1.8-25-8.6-14.9-19.4-28.7-31.6-40.7l-15.9 38.4c-2.5-.3-3.7-.6-.5 0 1.3.2 2.6.5 3.9.8 2.3.6 4.6 1.2 6.8 2 .8.3 2.9 1.4 3.7 1.3-1 .1-3.9-1.8-1.1-.4 2.3 1.1 4.6 2.3 6.9 3.6 2 1.2 3.9 2.4 5.8 3.7l1.2.9c1.3 1 .8.6-1.5-1.2.4.7 1.7 1.4 2.3 2 1.9 1.7 3.7 3.4 5.4 5.3.7.7 1.3 1.5 2 2.3 3.4 3.9-2.9-4 .1.2 4.7 6.6 10.9 11.1 19.4 11.1 7.5 0 15.9-4.2 19.4-11.1 5.7-11.4 11.8-22.7 18.2-33.8l-41.1-5.4c1.9 6 3.6 12.2 4.8 18.4.6 2.8 1 5.6 1.5 8.4.5 2.8-.3-3.8.1.6.2 1.9.4 3.8.5 5.7.7 9.2 5.1 16.9 13.8 20.6 7.9 3.3 18.6 2.1 24.6-4.7 2.1-2.4 4.6-4.3 6.7-6.5-4.3 4.5-.8.7.9-.4 1.2-.7 2.3-1.4 3.5-2.1 1.1-.6 4.3-1.5 4.9-2.4-.9.4-1.9.8-2.8 1.2.9-.3 1.7-.7 2.6-1 3.1-1.1 6.2-2 9.4-2.6 1.3-.3 3-.2 4.2-.7-3.7.5-4.2.6-1.8.3.9-.1 1.9-.1 2.8-.2 3.3-.2 6.6 0 9.8.2 4.9.2-5.2-1.1-.4-.1 1.8.4 3.7.7 5.5 1.2 1.3.4 2.7.8 4 1.2.9.3 1.7.6 2.6.9-3.2-1.4-3.7-1.6-1.6-.6 3.8-14 7.6-28 11.4-41.9-33.2 3.9-65.2 14.5-92.7 33.9-7.9 5.6-13.6 15.4-10.3 25.4 3.3 10.3 11.4 15.1 21.7 16.5-6.5-.9 1.5.4 3.3.9 2.8.7 5.6 1.5 8.3 2.4.9.3 3 .6 3.7 1.4-2.7-1.2-3.3-1.4-1.8-.8.5.2.9.4 1.4.6 2.6 1.2 5.1 2.5 7.5 4 2.2 1.3 4.3 2.8 6.4 4.2 3.4 2.3-2.3-2.1-.3-.3.9.8 1.9 1.6 2.9 2.5 2 1.9 4 3.8 5.8 5.9.7.8 1.6 2.2 2.4 2.8-.6-.7-1.1-1.5-1.7-2.2.6.8 1.2 1.6 1.7 2.4l30.8-30.8c-16.4-10.5-36.6-12.3-55.5-14-9-.8-18-1.2-27-1.3-6.2-.1-12 .6-17.7 3-8 3.4-13.8 10.5-16.2 18.7-2.5 8.6-2.6 19-2.9 27.9-.3 8.4-.1 16.8.6 25.1 1.4 18.5 4.6 36.9 10 54.6 3.2 10.6 7.3 20.8 11.8 30.9 1 2.2 1.9 4.3 2.9 6.4.3.7 1 1.7 1.1 2.4-1-2.4-1.2-2.8-.6-1.3.2.5.4 1.1.6 1.6.8 2.2 1.6 4.4 2.2 6.6.2.8.4 1.7.6 2.5.4 2.1.4 2.3.1.3-.3-1.4-.4-2.9-.1-4.4 1.9-3.3 3.9-6.6 5.8-9.9 1.6-1.3 3.5-2.3 5.5-2.8-1.1.4-2.1.8-3.2 1.2-1.6.6-3.3 1.1-5 1.5-2 .5-3.9 1-5.9 1.4-.9.2-1.7.3-2.6.5 3.1-.4 3.4-.4.8-.1-4.1.3-8.1.5-12.2.2-1.5-.1-6.5.4-1 .1-1.5.1-3-.8-4.5-.9 8.5 17.6 12.5 22.5 12 14.6 0-1.3-.1-2.6-.1-3.9 0-1.9-.1-3.9-.1-5.8-.1-4.5-.2-9.1-.4-13.6-.2-8.9-.5-17.8-.6-26.8-.2-17.5.2-35 1.7-52.5.6-7.7 1.3-15.5.7-23.2-.8-11.3-3.2-20.9-7.8-31.1-4.7-10.7-21.2-14.1-30.7-8-11.2 7.2-13.2 19.2-8.1 30.8-1.6-3.6-.4-1 .2 1 .5 1.6.8 3.3 1.2 4.9 1 4.3-.2-3.7.1.7.1 2 .3 4 .3 6 .1 7.2-.5 14.4-1.1 21.5-1.4 16.3-1.6 32.6-1.5 48.9.2 16.4.7 32.8 1.1 49.2.4 14.3 6.4 25.6 20.4 30.5 7.6 2.7 16.9 3 25 2.8 18.7-.5 46.1-5 53.2-25.1 3.3-9.4.5-20.8-3-29.9-1.8-4.5-3.7-9-5.8-13.5-.7-1.6-1.5-3.2-2.2-4.8-.4-.8-.7-1.7-1.1-2.5-1.3-3 1.3 3.4.2.3-5.3-14.2-9.9-28.4-12.7-43.4-.3-1.8-.6-3.5-.9-5.3-.1-.8-.9-6.2-.5-3.2.4 2.9-.3-2.4-.4-3.3l-.6-6.3c-.6-7.5-.8-15-.6-22.5.1-4.2.3-8.4.6-12.6l.6-6.3c.1-.7.3-3.9 0-.1-.3 1.9-.3 2.2 0 1 1-3.1-.8-1.5-5.4 4.8 3.2-3.2-6.4 8.2-8.5 5.8.2.3 3.1 0 3.5 0 2.3 0 4.5.1 6.8.1 4.5.1 9 .3 13.5.6s9 .7 13.4 1.2c1.9.2 5 0 6.7.8 0 0-4.4-.7-1.8-.2 1.1.2 2.2.3 3.3.5 3.9.7 7.7 1.5 11.5 2.7.8.2 1.6.5 2.4.8 3.6 1.2-.8-.1-.8-.4 0 0 5.4 3 5.7 3.2 8.1 5.1 20.7 3.6 27.3-3.5 6.4-7 9.3-18.9 3.5-27.3-8.9-12.8-19.9-23.6-33.4-31.5-14.1-8.3-29.2-12.5-45.2-14.7 3.8 14 7.6 28 11.4 41.9 5.6-3.9 11.3-7.5 17.3-10.8 3-1.6 6.1-3.2 9.2-4.6 1.5-.7 3.1-1.5 4.7-2.1-5.4 2 .7-.2 1.8-.6 6.5-2.5 13.1-4.5 19.8-6.2 3.4-.8 6.8-1.6 10.2-2.2 1.7-.3 3.4-.6 5.2-.9.9-.1 1.7-.3 2.6-.4-3.1.4-3.4.5-.8.1 9.6-1.1 19.3-6.2 21.7-16.5 2.1-9.1-1.1-21.2-10.3-25.4-18.8-8.6-38.2-10.8-58.4-7-17.4 3.2-34.8 12.5-46.6 25.7l38.4 15.9c-1.2-15.3-3.9-30.4-8.5-45-2.7-8.6-9.6-14.9-18.7-16.1-8.8-1.2-17.9 2.9-22.4 10.7-6.4 11.4-12.5 22.7-18.2 34.1h38.9c-8.5-11.9-18.7-21.9-31.4-29.3-13.2-7.7-27.3-11.5-42.3-13.5-8.7-1.1-17.5 6.6-20.6 13.8-3.5 8.2-1.8 18.2 4.7 24.6 2.5 2.5 5 5 7.4 7.7 1.2 1.3 2.4 2.7 3.5 4 .4.5 4.6 5.6 2.7 3.2-1.9-2.4 1.6 2.1 1.9 2.7 1 1.4 2 2.9 3 4.3 2.1 3.2 4.1 6.4 6 9.7 8.5-11 16.9-22 25.4-33.1-17.7-6.1-36.8-8.2-55.4-8.5-18.4-.3-38.5-.2-54.6 10-8.2 5.2-13.5 15.8-10.4 25.5C20.4 81.6 28.5 86.9 38.8 88c1.2.1 2.5.3 3.7.4 6 .7-3-.5.5.1 2.8.5 5.5.9 8.3 1.4 5.5 1 10.9 2.2 16.3 3.6 5.1 1.3 10.1 2.8 15.1 4.5 2.6.9 5.2 1.8 7.8 2.8 1.4.5 2.9 1.1 4.3 1.7 1 .4 5.1 2.1.6.2 3.8-14 7.6-28 11.4-41.9-18.8 2-35.9 7.4-50.7 19.5-13.4 11-21.5 27.6-22 44.9-.2 8.9 5.8 17.2 13.8 20.6 9 3.8 17.2 1.1 24.6-4.7-4.2 3.2-.8.7.1 0 1.1-.8 2.3-1.6 3.4-2.4 2.3-1.6 4.6-3.1 7-4.6 2.4-1.4 4.9-2.7 7.4-4 3.8-2-2.6.8 0-.1 1.3-.5 2.6-1 4-1.4 2.7-.9 5.5-1.5 8.3-2.1 3.8-.8-.8.2-.8.1s3.9-.2 4.3-.2c1.4 0 2.9.1 4.3.1 5.3 0-2.9-.8 0-.1 3.1.8 6 1.5 9 2.7 11 4.4 25.2-4.8 27.7-15.7 2.8-13.4-4.2-23.4-15.9-28z"/></g><g opacity=".25" fill="none" stroke="#089E4C" stroke-width="8.5" stroke-linecap="round" stroke-linejoin="round"><path d="M125.3 107.1c-11.5-4.9-25.1-4.3-37-.4S66 117.6 56.4 125.1c0-11.3 6.5-22.2 16-29.5s21.8-11.2 34.2-12.4C85.3 74 62.3 67.9 38.8 65.5c8.8-5.9 20.4-6.7 31.3-6.9 20.8-.4 42.1.8 61.4 7.7-7.5-13.1-17-25.4-28.1-36.1 22 2.6 42.5 14.6 54.3 31.6 5.7-11.4 11.8-22.6 18.2-33.8 4.1 12.7 6.7 25.8 7.7 39 17.8-20.6 52.3-27.3 77.8-15.2-29.5 3.4-57.9 14.1-81.3 30.8 24.1 3 46.5 16.2 59.2 35-9.1-6.1-20.6-8.2-31.7-9.6-14-1.8-28.1-2.6-42.3-2.7-2.1 0-4.3.1-6.1 1.1-2.9 1.6-3.6 5.1-3.9 8.1-4.6 39.9 1.7 80.9 18.3 118.1 3.8 8.5 8.2 17.1 9.3 26.3.2 1.5.3 3.2-.6 4.5-.9 1.4-2.7 2.4-4.4 3-13.3 5.3-28.5 7-42.8 4.4-2.3-.4-4.7-1-6-2.7-1.1-1.4-1.2-3.3-1.2-5l-.6-23.4c-.6-24.4-1.3-48.9.6-73.3 1.3-16.5 3.6-33.8-3.5-49"/><path d="M125.3 107.1c-11.5-4.9-25.1-4.3-37-.4S66 117.6 56.4 125.1c0-11.3 6.5-22.2 16-29.5s21.8-11.2 34.2-12.4C85.3 74 62.3 67.9 38.8 65.5c8.8-5.9 20.4-6.7 31.3-6.9 20.8-.4 42.1.8 61.4 7.7-7.5-13.1-17-25.4-28.1-36.1 22 2.6 42.5 14.6 54.3 31.6 5.7-11.4 11.8-22.6 18.2-33.8 4.1 12.7 6.7 25.8 7.7 39 17.8-20.6 52.3-27.3 77.8-15.2-29.5 3.4-57.9 14.1-81.3 30.8 24.1 3 46.5 16.2 59.2 35-9.1-6.1-20.6-8.2-31.7-9.6-14-1.8-28.1-2.6-42.3-2.7-2.1 0-4.3.1-6.1 1.1-2.9 1.6-3.6 5.1-3.9 8.1-4.6 39.9 1.7 80.9 18.3 118.1 3.8 8.5 8.2 17.1 9.3 26.3.2 1.5.3 3.2-.6 4.5-.9 1.4-2.7 2.4-4.4 3-13.3 5.3-28.5 7-42.8 4.4-2.3-.4-4.7-1-6-2.7-1.1-1.4-1.2-3.3-1.2-5l-.6-23.4c-.6-24.4-1.3-48.9.6-73.3 1.3-16.5 3.6-33.8-3.5-49"/><path d="M125.3 107.1c-11.5-4.9-25.1-4.3-37-.4S66 117.6 56.4 125.1c0-11.3 6.5-22.2 16-29.5s21.8-11.2 34.2-12.4C85.3 74 62.3 67.9 38.8 65.5c8.8-5.9 20.4-6.7 31.3-6.9 20.8-.4 42.1.8 61.4 7.7-7.5-13.1-17-25.4-28.1-36.1 22 2.6 42.5 14.6 54.3 31.6 5.7-11.4 11.8-22.6 18.2-33.8 4.1 12.7 6.7 25.8 7.7 39 17.8-20.6 52.3-27.3 77.8-15.2-29.5 3.4-57.9 14.1-81.3 30.8 24.1 3 46.5 16.2 59.2 35-9.1-6.1-20.6-8.2-31.7-9.6-14-1.8-28.1-2.6-42.3-2.7-2.1 0-4.3.1-6.1 1.1-2.9 1.6-3.6 5.1-3.9 8.1-4.6 39.9 1.7 80.9 18.3 118.1 3.8 8.5 8.2 17.1 9.3 26.3.2 1.5.3 3.2-.6 4.5-.9 1.4-2.7 2.4-4.4 3-13.3 5.3-28.5 7-42.8 4.4-2.3-.4-4.7-1-6-2.7-1.1-1.4-1.2-3.3-1.2-5l-.6-23.4c-.6-24.4-1.3-48.9.6-73.3 1.3-16.5 3.6-33.8-3.5-49"/><path d="M125.3 107.1c-11.5-4.9-25.1-4.3-37-.4S66 117.6 56.4 125.1c0-11.3 6.5-22.2 16-29.5s21.8-11.2 34.2-12.4C85.3 74 62.3 67.9 38.8 65.5c8.8-5.9 20.4-6.7 31.3-6.9 20.8-.4 42.1.8 61.4 7.7-7.5-13.1-17-25.4-28.1-36.1 22 2.6 42.5 14.6 54.3 31.6 5.7-11.4 11.8-22.6 18.2-33.8 4.1 12.7 6.7 25.8 7.7 39 17.8-20.6 52.3-27.3 77.8-15.2-29.5 3.4-57.9 14.1-81.3 30.8 24.1 3 46.5 16.2 59.2 35-9.1-6.1-20.6-8.2-31.7-9.6-14-1.8-28.1-2.6-42.3-2.7-2.1 0-4.3.1-6.1 1.1-2.9 1.6-3.6 5.1-3.9 8.1-4.6 39.9 1.7 80.9 18.3 118.1 3.8 8.5 8.2 17.1 9.3 26.3.2 1.5.3 3.2-.6 4.5-.9 1.4-2.7 2.4-4.4 3-13.3 5.3-28.5 7-42.8 4.4-2.3-.4-4.7-1-6-2.7-1.1-1.4-1.2-3.3-1.2-5l-.6-23.4c-.6-24.4-1.3-48.9.6-73.3 1.3-16.5 3.6-33.8-3.5-49"/><path d="M125.3 107.1c-11.5-4.9-25.1-4.3-37-.4S66 117.6 56.4 125.1c0-11.3 6.5-22.2 16-29.5s21.8-11.2 34.2-12.4C85.3 74 62.3 67.9 38.8 65.5c8.8-5.9 20.4-6.7 31.3-6.9 20.8-.4 42.1.8 61.4 7.7-7.5-13.1-17-25.4-28.1-36.1 22 2.6 42.5 14.6 54.3 31.6 5.7-11.4 11.8-22.6 18.2-33.8 4.1 12.7 6.7 25.8 7.7 39 17.8-20.6 52.3-27.3 77.8-15.2-29.5 3.4-57.9 14.1-81.3 30.8 24.1 3 46.5 16.2 59.2 35-9.1-6.1-20.6-8.2-31.7-9.6-14-1.8-28.1-2.6-42.3-2.7-2.1 0-4.3.1-6.1 1.1-2.9 1.6-3.6 5.1-3.9 8.1-4.6 39.9 1.7 80.9 18.3 118.1 3.8 8.5 8.2 17.1 9.3 26.3.2 1.5.3 3.2-.6 4.5-.9 1.4-2.7 2.4-4.4 3-13.3 5.3-28.5 7-42.8 4.4-2.3-.4-4.7-1-6-2.7-1.1-1.4-1.2-3.3-1.2-5l-.6-23.4c-.6-24.4-1.3-48.9.6-73.3 1.3-16.5 3.6-33.8-3.5-49"/><path d="M125.3 107.1c-11.5-4.9-25.1-4.3-37-.4S66 117.6 56.4 125.1c0-11.3 6.5-22.2 16-29.5s21.8-11.2 34.2-12.4C85.3 74 62.3 67.9 38.8 65.5c8.8-5.9 20.4-6.7 31.3-6.9 20.8-.4 42.1.8 61.4 7.7-7.5-13.1-17-25.4-28.1-36.1 22 2.6 42.5 14.6 54.3 31.6 5.7-11.4 11.8-22.6 18.2-33.8 4.1 12.7 6.7 25.8 7.7 39 17.8-20.6 52.3-27.3 77.8-15.2-29.5 3.4-57.9 14.1-81.3 30.8 24.1 3 46.5 16.2 59.2 35-9.1-6.1-20.6-8.2-31.7-9.6-14-1.8-28.1-2.6-42.3-2.7-2.1 0-4.3.1-6.1 1.1-2.9 1.6-3.6 5.1-3.9 8.1-4.6 39.9 1.7 80.9 18.3 118.1 3.8 8.5 8.2 17.1 9.3 26.3.2 1.5.3 3.2-.6 4.5-.9 1.4-2.7 2.4-4.4 3-13.3 5.3-28.5 7-42.8 4.4-2.3-.4-4.7-1-6-2.7-1.1-1.4-1.2-3.3-1.2-5l-.6-23.4c-.6-24.4-1.3-48.9.6-73.3 1.3-16.5 3.6-33.8-3.5-49"/><path d="M125.3 107.1c-11.5-4.9-25.1-4.3-37-.4S66 117.6 56.4 125.1c0-11.3 6.5-22.2 16-29.5s21.8-11.2 34.2-12.4C85.3 74 62.3 67.9 38.8 65.5c8.8-5.9 20.4-6.7 31.3-6.9 20.8-.4 42.1.8 61.4 7.7-7.5-13.1-17-25.4-28.1-36.1 22 2.6 42.5 14.6 54.3 31.6 5.7-11.4 11.8-22.6 18.2-33.8 4.1 12.7 6.7 25.8 7.7 39 17.8-20.6 52.3-27.3 77.8-15.2-29.5 3.4-57.9 14.1-81.3 30.8 24.1 3 46.5 16.2 59.2 35-9.1-6.1-20.6-8.2-31.7-9.6-14-1.8-28.1-2.6-42.3-2.7-2.1 0-4.3.1-6.1 1.1-2.9 1.6-3.6 5.1-3.9 8.1-4.6 39.9 1.7 80.9 18.3 118.1 3.8 8.5 8.2 17.1 9.3 26.3.2 1.5.3 3.2-.6 4.5-.9 1.4-2.7 2.4-4.4 3-13.3 5.3-28.5 7-42.8 4.4-2.3-.4-4.7-1-6-2.7-1.1-1.4-1.2-3.3-1.2-5l-.6-23.4c-.6-24.4-1.3-48.9.6-73.3 1.3-16.5 3.6-33.8-3.5-49"/><path d="M125.3 107.1c-11.5-4.9-25.1-4.3-37-.4S66 117.6 56.4 125.1c0-11.3 6.5-22.2 16-29.5s21.8-11.2 34.2-12.4C85.3 74 62.3 67.9 38.8 65.5c8.8-5.9 20.4-6.7 31.3-6.9 20.8-.4 42.1.8 61.4 7.7-7.5-13.1-17-25.4-28.1-36.1 22 2.6 42.5 14.6 54.3 31.6 5.7-11.4 11.8-22.6 18.2-33.8 4.1 12.7 6.7 25.8 7.7 39 17.8-20.6 52.3-27.3 77.8-15.2-29.5 3.4-57.9 14.1-81.3 30.8 24.1 3 46.5 16.2 59.2 35-9.1-6.1-20.6-8.2-31.7-9.6-14-1.8-28.1-2.6-42.3-2.7-2.1 0-4.3.1-6.1 1.1-2.9 1.6-3.6 5.1-3.9 8.1-4.6 39.9 1.7 80.9 18.3 118.1 3.8 8.5 8.2 17.1 9.3 26.3.2 1.5.3 3.2-.6 4.5-.9 1.4-2.7 2.4-4.4 3-13.3 5.3-28.5 7-42.8 4.4-2.3-.4-4.7-1-6-2.7-1.1-1.4-1.2-3.3-1.2-5l-.6-23.4c-.6-24.4-1.3-48.9.6-73.3 1.3-16.5 3.6-33.8-3.5-49"/></g><g opacity=".3" fill="none" stroke="#089E4C" stroke-width="5" stroke-linecap="round" stroke-linejoin="round"><path d="M125.3 107.1c-11.5-4.9-25.1-4.3-37-.4S66 117.6 56.4 125.1c0-11.3 6.5-22.2 16-29.5s21.8-11.2 34.2-12.4C85.3 74 62.3 67.9 38.8 65.5c8.8-5.9 20.4-6.7 31.3-6.9 20.8-.4 42.1.8 61.4 7.7-7.5-13.1-17-25.4-28.1-36.1 22 2.6 42.5 14.6 54.3 31.6 5.7-11.4 11.8-22.6 18.2-33.8 4.1 12.7 6.7 25.8 7.7 39 17.8-20.6 52.3-27.3 77.8-15.2-29.5 3.4-57.9 14.1-81.3 30.8 24.1 3 46.5 16.2 59.2 35-9.1-6.1-20.6-8.2-31.7-9.6-14-1.8-28.1-2.6-42.3-2.7-2.1 0-4.3.1-6.1 1.1-2.9 1.6-3.6 5.1-3.9 8.1-4.6 39.9 1.7 80.9 18.3 118.1 3.8 8.5 8.2 17.1 9.3 26.3.2 1.5.3 3.2-.6 4.5-.9 1.4-2.7 2.4-4.4 3-13.3 5.3-28.5 7-42.8 4.4-2.3-.4-4.7-1-6-2.7-1.1-1.4-1.2-3.3-1.2-5l-.6-23.4c-.6-24.4-1.3-48.9.6-73.3 1.3-16.5 3.6-33.8-3.5-49"/><path d="M125.3 107.1c-11.5-4.9-25.1-4.3-37-.4S66 117.6 56.4 125.1c0-11.3 6.5-22.2 16-29.5s21.8-11.2 34.2-12.4C85.3 74 62.3 67.9 38.8 65.5c8.8-5.9 20.4-6.7 31.3-6.9 20.8-.4 42.1.8 61.4 7.7-7.5-13.1-17-25.4-28.1-36.1 22 2.6 42.5 14.6 54.3 31.6 5.7-11.4 11.8-22.6 18.2-33.8 4.1 12.7 6.7 25.8 7.7 39 17.8-20.6 52.3-27.3 77.8-15.2-29.5 3.4-57.9 14.1-81.3 30.8 24.1 3 46.5 16.2 59.2 35-9.1-6.1-20.6-8.2-31.7-9.6-14-1.8-28.1-2.6-42.3-2.7-2.1 0-4.3.1-6.1 1.1-2.9 1.6-3.6 5.1-3.9 8.1-4.6 39.9 1.7 80.9 18.3 118.1 3.8 8.5 8.2 17.1 9.3 26.3.2 1.5.3 3.2-.6 4.5-.9 1.4-2.7 2.4-4.4 3-13.3 5.3-28.5 7-42.8 4.4-2.3-.4-4.7-1-6-2.7-1.1-1.4-1.2-3.3-1.2-5l-.6-23.4c-.6-24.4-1.3-48.9.6-73.3 1.3-16.5 3.6-33.8-3.5-49"/><path d="M125.3 107.1c-11.5-4.9-25.1-4.3-37-.4S66 117.6 56.4 125.1c0-11.3 6.5-22.2 16-29.5s21.8-11.2 34.2-12.4C85.3 74 62.3 67.9 38.8 65.5c8.8-5.9 20.4-6.7 31.3-6.9 20.8-.4 42.1.8 61.4 7.7-7.5-13.1-17-25.4-28.1-36.1 22 2.6 42.5 14.6 54.3 31.6 5.7-11.4 11.8-22.6 18.2-33.8 4.1 12.7 6.7 25.8 7.7 39 17.8-20.6 52.3-27.3 77.8-15.2-29.5 3.4-57.9 14.1-81.3 30.8 24.1 3 46.5 16.2 59.2 35-9.1-6.1-20.6-8.2-31.7-9.6-14-1.8-28.1-2.6-42.3-2.7-2.1 0-4.3.1-6.1 1.1-2.9 1.6-3.6 5.1-3.9 8.1-4.6 39.9 1.7 80.9 18.3 118.1 3.8 8.5 8.2 17.1 9.3 26.3.2 1.5.3 3.2-.6 4.5-.9 1.4-2.7 2.4-4.4 3-13.3 5.3-28.5 7-42.8 4.4-2.3-.4-4.7-1-6-2.7-1.1-1.4-1.2-3.3-1.2-5l-.6-23.4c-.6-24.4-1.3-48.9.6-73.3 1.3-16.5 3.6-33.8-3.5-49"/><path d="M125.3 107.1c-11.5-4.9-25.1-4.3-37-.4S66 117.6 56.4 125.1c0-11.3 6.5-22.2 16-29.5s21.8-11.2 34.2-12.4C85.3 74 62.3 67.9 38.8 65.5c8.8-5.9 20.4-6.7 31.3-6.9 20.8-.4 42.1.8 61.4 7.7-7.5-13.1-17-25.4-28.1-36.1 22 2.6 42.5 14.6 54.3 31.6 5.7-11.4 11.8-22.6 18.2-33.8 4.1 12.7 6.7 25.8 7.7 39 17.8-20.6 52.3-27.3 77.8-15.2-29.5 3.4-57.9 14.1-81.3 30.8 24.1 3 46.5 16.2 59.2 35-9.1-6.1-20.6-8.2-31.7-9.6-14-1.8-28.1-2.6-42.3-2.7-2.1 0-4.3.1-6.1 1.1-2.9 1.6-3.6 5.1-3.9 8.1-4.6 39.9 1.7 80.9 18.3 118.1 3.8 8.5 8.2 17.1 9.3 26.3.2 1.5.3 3.2-.6 4.5-.9 1.4-2.7 2.4-4.4 3-13.3 5.3-28.5 7-42.8 4.4-2.3-.4-4.7-1-6-2.7-1.1-1.4-1.2-3.3-1.2-5l-.6-23.4c-.6-24.4-1.3-48.9.6-73.3 1.3-16.5 3.6-33.8-3.5-49"/><path d="M125.3 107.1c-11.5-4.9-25.1-4.3-37-.4S66 117.6 56.4 125.1c0-11.3 6.5-22.2 16-29.5s21.8-11.2 34.2-12.4C85.3 74 62.3 67.9 38.8 65.5c8.8-5.9 20.4-6.7 31.3-6.9 20.8-.4 42.1.8 61.4 7.7-7.5-13.1-17-25.4-28.1-36.1 22 2.6 42.5 14.6 54.3 31.6 5.7-11.4 11.8-22.6 18.2-33.8 4.1 12.7 6.7 25.8 7.7 39 17.8-20.6 52.3-27.3 77.8-15.2-29.5 3.4-57.9 14.1-81.3 30.8 24.1 3 46.5 16.2 59.2 35-9.1-6.1-20.6-8.2-31.7-9.6-14-1.8-28.1-2.6-42.3-2.7-2.1 0-4.3.1-6.1 1.1-2.9 1.6-3.6 5.1-3.9 8.1-4.6 39.9 1.7 80.9 18.3 118.1 3.8 8.5 8.2 17.1 9.3 26.3.2 1.5.3 3.2-.6 4.5-.9 1.4-2.7 2.4-4.4 3-13.3 5.3-28.5 7-42.8 4.4-2.3-.4-4.7-1-6-2.7-1.1-1.4-1.2-3.3-1.2-5l-.6-23.4c-.6-24.4-1.3-48.9.6-73.3 1.3-16.5 3.6-33.8-3.5-49"/><path d="M125.3 107.1c-11.5-4.9-25.1-4.3-37-.4S66 117.6 56.4 125.1c0-11.3 6.5-22.2 16-29.5s21.8-11.2 34.2-12.4C85.3 74 62.3 67.9 38.8 65.5c8.8-5.9 20.4-6.7 31.3-6.9 20.8-.4 42.1.8 61.4 7.7-7.5-13.1-17-25.4-28.1-36.1 22 2.6 42.5 14.6 54.3 31.6 5.7-11.4 11.8-22.6 18.2-33.8 4.1 12.7 6.7 25.8 7.7 39 17.8-20.6 52.3-27.3 77.8-15.2-29.5 3.4-57.9 14.1-81.3 30.8 24.1 3 46.5 16.2 59.2 35-9.1-6.1-20.6-8.2-31.7-9.6-14-1.8-28.1-2.6-42.3-2.7-2.1 0-4.3.1-6.1 1.1-2.9 1.6-3.6 5.1-3.9 8.1-4.6 39.9 1.7 80.9 18.3 118.1 3.8 8.5 8.2 17.1 9.3 26.3.2 1.5.3 3.2-.6 4.5-.9 1.4-2.7 2.4-4.4 3-13.3 5.3-28.5 7-42.8 4.4-2.3-.4-4.7-1-6-2.7-1.1-1.4-1.2-3.3-1.2-5l-.6-23.4c-.6-24.4-1.3-48.9.6-73.3 1.3-16.5 3.6-33.8-3.5-49"/><path d="M125.3 107.1c-11.5-4.9-25.1-4.3-37-.4S66 117.6 56.4 125.1c0-11.3 6.5-22.2 16-29.5s21.8-11.2 34.2-12.4C85.3 74 62.3 67.9 38.8 65.5c8.8-5.9 20.4-6.7 31.3-6.9 20.8-.4 42.1.8 61.4 7.7-7.5-13.1-17-25.4-28.1-36.1 22 2.6 42.5 14.6 54.3 31.6 5.7-11.4 11.8-22.6 18.2-33.8 4.1 12.7 6.7 25.8 7.7 39 17.8-20.6 52.3-27.3 77.8-15.2-29.5 3.4-57.9 14.1-81.3 30.8 24.1 3 46.5 16.2 59.2 35-9.1-6.1-20.6-8.2-31.7-9.6-14-1.8-28.1-2.6-42.3-2.7-2.1 0-4.3.1-6.1 1.1-2.9 1.6-3.6 5.1-3.9 8.1-4.6 39.9 1.7 80.9 18.3 118.1 3.8 8.5 8.2 17.1 9.3 26.3.2 1.5.3 3.2-.6 4.5-.9 1.4-2.7 2.4-4.4 3-13.3 5.3-28.5 7-42.8 4.4-2.3-.4-4.7-1-6-2.7-1.1-1.4-1.2-3.3-1.2-5l-.6-23.4c-.6-24.4-1.3-48.9.6-73.3 1.3-16.5 3.6-33.8-3.5-49"/><path d="M125.3 107.1c-11.5-4.9-25.1-4.3-37-.4S66 117.6 56.4 125.1c0-11.3 6.5-22.2 16-29.5s21.8-11.2 34.2-12.4C85.3 74 62.3 67.9 38.8 65.5c8.8-5.9 20.4-6.7 31.3-6.9 20.8-.4 42.1.8 61.4 7.7-7.5-13.1-17-25.4-28.1-36.1 22 2.6 42.5 14.6 54.3 31.6 5.7-11.4 11.8-22.6 18.2-33.8 4.1 12.7 6.7 25.8 7.7 39 17.8-20.6 52.3-27.3 77.8-15.2-29.5 3.4-57.9 14.1-81.3 30.8 24.1 3 46.5 16.2 59.2 35-9.1-6.1-20.6-8.2-31.7-9.6-14-1.8-28.1-2.6-42.3-2.7-2.1 0-4.3.1-6.1 1.1-2.9 1.6-3.6 5.1-3.9 8.1-4.6 39.9 1.7 80.9 18.3 118.1 3.8 8.5 8.2 17.1 9.3 26.3.2 1.5.3 3.2-.6 4.5-.9 1.4-2.7 2.4-4.4 3-13.3 5.3-28.5 7-42.8 4.4-2.3-.4-4.7-1-6-2.7-1.1-1.4-1.2-3.3-1.2-5l-.6-23.4c-.6-24.4-1.3-48.9.6-73.3 1.3-16.5 3.6-33.8-3.5-49"/></g><g fill="none" stroke="#00A455" stroke-width="7" stroke-linecap="round" stroke-linejoin="round"><path d="M125.3 107.1c-11.5-4.9-25.1-4.3-37-.4S66 117.6 56.4 125.1c0-11.3 6.5-22.2 16-29.5s21.8-11.2 34.2-12.4C85.3 74 62.3 67.9 38.8 65.5c8.8-5.9 20.4-6.7 31.3-6.9 20.8-.4 42.1.8 61.4 7.7-7.5-13.1-17-25.4-28.1-36.1 22 2.6 42.5 14.6 54.3 31.6 5.7-11.4 11.8-22.6 18.2-33.8 4.1 12.7 6.7 25.8 7.7 39 17.8-20.6 52.3-27.3 77.8-15.2-29.5 3.4-57.9 14.1-81.3 30.8 24.1 3 46.5 16.2 59.2 35-9.1-6.1-20.6-8.2-31.7-9.6-14-1.8-28.1-2.6-42.3-2.7-2.1 0-4.3.1-6.1 1.1-2.9 1.6-3.6 5.1-3.9 8.1-4.6 39.9 1.7 80.9 18.3 118.1 3.8 8.5 8.2 17.1 9.3 26.3.2 1.5.3 3.2-.6 4.5-.9 1.4-2.7 2.4-4.4 3-13.3 5.3-28.5 7-42.8 4.4-2.3-.4-4.7-1-6-2.7-1.1-1.4-1.2-3.3-1.2-5l-.6-23.4c-.6-24.4-1.3-48.9.6-73.3 1.3-16.5 3.6-33.8-3.5-49"/><path d="M125.3 107.1c-11.5-4.9-25.1-4.3-37-.4S66 117.6 56.4 125.1c0-11.3 6.5-22.2 16-29.5s21.8-11.2 34.2-12.4C85.3 74 62.3 67.9 38.8 65.5c8.8-5.9 20.4-6.7 31.3-6.9 20.8-.4 42.1.8 61.4 7.7-7.5-13.1-17-25.4-28.1-36.1 22 2.6 42.5 14.6 54.3 31.6 5.7-11.4 11.8-22.6 18.2-33.8 4.1 12.7 6.7 25.8 7.7 39 17.8-20.6 52.3-27.3 77.8-15.2-29.5 3.4-57.9 14.1-81.3 30.8 24.1 3 46.5 16.2 59.2 35-9.1-6.1-20.6-8.2-31.7-9.6-14-1.8-28.1-2.6-42.3-2.7-2.1 0-4.3.1-6.1 1.1-2.9 1.6-3.6 5.1-3.9 8.1-4.6 39.9 1.7 80.9 18.3 118.1 3.8 8.5 8.2 17.1 9.3 26.3.2 1.5.3 3.2-.6 4.5-.9 1.4-2.7 2.4-4.4 3-13.3 5.3-28.5 7-42.8 4.4-2.3-.4-4.7-1-6-2.7-1.1-1.4-1.2-3.3-1.2-5l-.6-23.4c-.6-24.4-1.3-48.9.6-73.3 1.3-16.5 3.6-33.8-3.5-49"/><path d="M125.3 107.1c-11.5-4.9-25.1-4.3-37-.4S66 117.6 56.4 125.1c0-11.3 6.5-22.2 16-29.5s21.8-11.2 34.2-12.4C85.3 74 62.3 67.9 38.8 65.5c8.8-5.9 20.4-6.7 31.3-6.9 20.8-.4 42.1.8 61.4 7.7-7.5-13.1-17-25.4-28.1-36.1 22 2.6 42.5 14.6 54.3 31.6 5.7-11.4 11.8-22.6 18.2-33.8 4.1 12.7 6.7 25.8 7.7 39 17.8-20.6 52.3-27.3 77.8-15.2-29.5 3.4-57.9 14.1-81.3 30.8 24.1 3 46.5 16.2 59.2 35-9.1-6.1-20.6-8.2-31.7-9.6-14-1.8-28.1-2.6-42.3-2.7-2.1 0-4.3.1-6.1 1.1-2.9 1.6-3.6 5.1-3.9 8.1-4.6 39.9 1.7 80.9 18.3 118.1 3.8 8.5 8.2 17.1 9.3 26.3.2 1.5.3 3.2-.6 4.5-.9 1.4-2.7 2.4-4.4 3-13.3 5.3-28.5 7-42.8 4.4-2.3-.4-4.7-1-6-2.7-1.1-1.4-1.2-3.3-1.2-5l-.6-23.4c-.6-24.4-1.3-48.9.6-73.3 1.3-16.5 3.6-33.8-3.5-49"/><path d="M125.3 107.1c-11.5-4.9-25.1-4.3-37-.4S66 117.6 56.4 125.1c0-11.3 6.5-22.2 16-29.5s21.8-11.2 34.2-12.4C85.3 74 62.3 67.9 38.8 65.5c8.8-5.9 20.4-6.7 31.3-6.9 20.8-.4 42.1.8 61.4 7.7-7.5-13.1-17-25.4-28.1-36.1 22 2.6 42.5 14.6 54.3 31.6 5.7-11.4 11.8-22.6 18.2-33.8 4.1 12.7 6.7 25.8 7.7 39 17.8-20.6 52.3-27.3 77.8-15.2-29.5 3.4-57.9 14.1-81.3 30.8 24.1 3 46.5 16.2 59.2 35-9.1-6.1-20.6-8.2-31.7-9.6-14-1.8-28.1-2.6-42.3-2.7-2.1 0-4.3.1-6.1 1.1-2.9 1.6-3.6 5.1-3.9 8.1-4.6 39.9 1.7 80.9 18.3 118.1 3.8 8.5 8.2 17.1 9.3 26.3.2 1.5.3 3.2-.6 4.5-.9 1.4-2.7 2.4-4.4 3-13.3 5.3-28.5 7-42.8 4.4-2.3-.4-4.7-1-6-2.7-1.1-1.4-1.2-3.3-1.2-5l-.6-23.4c-.6-24.4-1.3-48.9.6-73.3 1.3-16.5 3.6-33.8-3.5-49"/><path d="M125.3 107.1c-11.5-4.9-25.1-4.3-37-.4S66 117.6 56.4 125.1c0-11.3 6.5-22.2 16-29.5s21.8-11.2 34.2-12.4C85.3 74 62.3 67.9 38.8 65.5c8.8-5.9 20.4-6.7 31.3-6.9 20.8-.4 42.1.8 61.4 7.7-7.5-13.1-17-25.4-28.1-36.1 22 2.6 42.5 14.6 54.3 31.6 5.7-11.4 11.8-22.6 18.2-33.8 4.1 12.7 6.7 25.8 7.7 39 17.8-20.6 52.3-27.3 77.8-15.2-29.5 3.4-57.9 14.1-81.3 30.8 24.1 3 46.5 16.2 59.2 35-9.1-6.1-20.6-8.2-31.7-9.6-14-1.8-28.1-2.6-42.3-2.7-2.1 0-4.3.1-6.1 1.1-2.9 1.6-3.6 5.1-3.9 8.1-4.6 39.9 1.7 80.9 18.3 118.1 3.8 8.5 8.2 17.1 9.3 26.3.2 1.5.3 3.2-.6 4.5-.9 1.4-2.7 2.4-4.4 3-13.3 5.3-28.5 7-42.8 4.4-2.3-.4-4.7-1-6-2.7-1.1-1.4-1.2-3.3-1.2-5l-.6-23.4c-.6-24.4-1.3-48.9.6-73.3 1.3-16.5 3.6-33.8-3.5-49"/><path d="M125.3 107.1c-11.5-4.9-25.1-4.3-37-.4S66 117.6 56.4 125.1c0-11.3 6.5-22.2 16-29.5s21.8-11.2 34.2-12.4C85.3 74 62.3 67.9 38.8 65.5c8.8-5.9 20.4-6.7 31.3-6.9 20.8-.4 42.1.8 61.4 7.7-7.5-13.1-17-25.4-28.1-36.1 22 2.6 42.5 14.6 54.3 31.6 5.7-11.4 11.8-22.6 18.2-33.8 4.1 12.7 6.7 25.8 7.7 39 17.8-20.6 52.3-27.3 77.8-15.2-29.5 3.4-57.9 14.1-81.3 30.8 24.1 3 46.5 16.2 59.2 35-9.1-6.1-20.6-8.2-31.7-9.6-14-1.8-28.1-2.6-42.3-2.7-2.1 0-4.3.1-6.1 1.1-2.9 1.6-3.6 5.1-3.9 8.1-4.6 39.9 1.7 80.9 18.3 118.1 3.8 8.5 8.2 17.1 9.3 26.3.2 1.5.3 3.2-.6 4.5-.9 1.4-2.7 2.4-4.4 3-13.3 5.3-28.5 7-42.8 4.4-2.3-.4-4.7-1-6-2.7-1.1-1.4-1.2-3.3-1.2-5l-.6-23.4c-.6-24.4-1.3-48.9.6-73.3 1.3-16.5 3.6-33.8-3.5-49"/><path d="M125.3 107.1c-11.5-4.9-25.1-4.3-37-.4S66 117.6 56.4 125.1c0-11.3 6.5-22.2 16-29.5s21.8-11.2 34.2-12.4C85.3 74 62.3 67.9 38.8 65.5c8.8-5.9 20.4-6.7 31.3-6.9 20.8-.4 42.1.8 61.4 7.7-7.5-13.1-17-25.4-28.1-36.1 22 2.6 42.5 14.6 54.3 31.6 5.7-11.4 11.8-22.6 18.2-33.8 4.1 12.7 6.7 25.8 7.7 39 17.8-20.6 52.3-27.3 77.8-15.2-29.5 3.4-57.9 14.1-81.3 30.8 24.1 3 46.5 16.2 59.2 35-9.1-6.1-20.6-8.2-31.7-9.6-14-1.8-28.1-2.6-42.3-2.7-2.1 0-4.3.1-6.1 1.1-2.9 1.6-3.6 5.1-3.9 8.1-4.6 39.9 1.7 80.9 18.3 118.1 3.8 8.5 8.2 17.1 9.3 26.3.2 1.5.3 3.2-.6 4.5-.9 1.4-2.7 2.4-4.4 3-13.3 5.3-28.5 7-42.8 4.4-2.3-.4-4.7-1-6-2.7-1.1-1.4-1.2-3.3-1.2-5l-.6-23.4c-.6-24.4-1.3-48.9.6-73.3 1.3-16.5 3.6-33.8-3.5-49"/><path d="M125.3 107.1c-11.5-4.9-25.1-4.3-37-.4S66 117.6 56.4 125.1c0-11.3 6.5-22.2 16-29.5s21.8-11.2 34.2-12.4C85.3 74 62.3 67.9 38.8 65.5c8.8-5.9 20.4-6.7 31.3-6.9 20.8-.4 42.1.8 61.4 7.7-7.5-13.1-17-25.4-28.1-36.1 22 2.6 42.5 14.6 54.3 31.6 5.7-11.4 11.8-22.6 18.2-33.8 4.1 12.7 6.7 25.8 7.7 39 17.8-20.6 52.3-27.3 77.8-15.2-29.5 3.4-57.9 14.1-81.3 30.8 24.1 3 46.5 16.2 59.2 35-9.1-6.1-20.6-8.2-31.7-9.6-14-1.8-28.1-2.6-42.3-2.7-2.1 0-4.3.1-6.1 1.1-2.9 1.6-3.6 5.1-3.9 8.1-4.6 39.9 1.7 80.9 18.3 118.1 3.8 8.5 8.2 17.1 9.3 26.3.2 1.5.3 3.2-.6 4.5-.9 1.4-2.7 2.4-4.4 3-13.3 5.3-28.5 7-42.8 4.4-2.3-.4-4.7-1-6-2.7-1.1-1.4-1.2-3.3-1.2-5l-.6-23.4c-.6-24.4-1.3-48.9.6-73.3 1.3-16.5 3.6-33.8-3.5-49"/></g><g fill="none" stroke="#3DAD6B" stroke-width="5.5" stroke-linecap="round" stroke-linejoin="round"><path d="M125.3 107.1c-11.5-4.9-25.1-4.3-37-.4S66 117.6 56.4 125.1c0-11.3 6.5-22.2 16-29.5s21.8-11.2 34.2-12.4C85.3 74 62.3 67.9 38.8 65.5c8.8-5.9 20.4-6.7 31.3-6.9 20.8-.4 42.1.8 61.4 7.7-7.5-13.1-17-25.4-28.1-36.1 22 2.6 42.5 14.6 54.3 31.6 5.7-11.4 11.8-22.6 18.2-33.8 4.1 12.7 6.7 25.8 7.7 39 17.8-20.6 52.3-27.3 77.8-15.2-29.5 3.4-57.9 14.1-81.3 30.8 24.1 3 46.5 16.2 59.2 35-9.1-6.1-20.6-8.2-31.7-9.6-14-1.8-28.1-2.6-42.3-2.7-2.1 0-4.3.1-6.1 1.1-2.9 1.6-3.6 5.1-3.9 8.1-4.6 39.9 1.7 80.9 18.3 118.1 3.8 8.5 8.2 17.1 9.3 26.3.2 1.5.3 3.2-.6 4.5-.9 1.4-2.7 2.4-4.4 3-13.3 5.3-28.5 7-42.8 4.4-2.3-.4-4.7-1-6-2.7-1.1-1.4-1.2-3.3-1.2-5l-.6-23.4c-.6-24.4-1.3-48.9.6-73.3 1.3-16.5 3.6-33.8-3.5-49"/><path d="M125.3 107.1c-11.5-4.9-25.1-4.3-37-.4S66 117.6 56.4 125.1c0-11.3 6.5-22.2 16-29.5s21.8-11.2 34.2-12.4C85.3 74 62.3 67.9 38.8 65.5c8.8-5.9 20.4-6.7 31.3-6.9 20.8-.4 42.1.8 61.4 7.7-7.5-13.1-17-25.4-28.1-36.1 22 2.6 42.5 14.6 54.3 31.6 5.7-11.4 11.8-22.6 18.2-33.8 4.1 12.7 6.7 25.8 7.7 39 17.8-20.6 52.3-27.3 77.8-15.2-29.5 3.4-57.9 14.1-81.3 30.8 24.1 3 46.5 16.2 59.2 35-9.1-6.1-20.6-8.2-31.7-9.6-14-1.8-28.1-2.6-42.3-2.7-2.1 0-4.3.1-6.1 1.1-2.9 1.6-3.6 5.1-3.9 8.1-4.6 39.9 1.7 80.9 18.3 118.1 3.8 8.5 8.2 17.1 9.3 26.3.2 1.5.3 3.2-.6 4.5-.9 1.4-2.7 2.4-4.4 3-13.3 5.3-28.5 7-42.8 4.4-2.3-.4-4.7-1-6-2.7-1.1-1.4-1.2-3.3-1.2-5l-.6-23.4c-.6-24.4-1.3-48.9.6-73.3 1.3-16.5 3.6-33.8-3.5-49"/><path d="M125.3 107.1c-11.5-4.9-25.1-4.3-37-.4S66 117.6 56.4 125.1c0-11.3 6.5-22.2 16-29.5s21.8-11.2 34.2-12.4C85.3 74 62.3 67.9 38.8 65.5c8.8-5.9 20.4-6.7 31.3-6.9 20.8-.4 42.1.8 61.4 7.7-7.5-13.1-17-25.4-28.1-36.1 22 2.6 42.5 14.6 54.3 31.6 5.7-11.4 11.8-22.6 18.2-33.8 4.1 12.7 6.7 25.8 7.7 39 17.8-20.6 52.3-27.3 77.8-15.2-29.5 3.4-57.9 14.1-81.3 30.8 24.1 3 46.5 16.2 59.2 35-9.1-6.1-20.6-8.2-31.7-9.6-14-1.8-28.1-2.6-42.3-2.7-2.1 0-4.3.1-6.1 1.1-2.9 1.6-3.6 5.1-3.9 8.1-4.6 39.9 1.7 80.9 18.3 118.1 3.8 8.5 8.2 17.1 9.3 26.3.2 1.5.3 3.2-.6 4.5-.9 1.4-2.7 2.4-4.4 3-13.3 5.3-28.5 7-42.8 4.4-2.3-.4-4.7-1-6-2.7-1.1-1.4-1.2-3.3-1.2-5l-.6-23.4c-.6-24.4-1.3-48.9.6-73.3 1.3-16.5 3.6-33.8-3.5-49"/><path d="M125.3 107.1c-11.5-4.9-25.1-4.3-37-.4S66 117.6 56.4 125.1c0-11.3 6.5-22.2 16-29.5s21.8-11.2 34.2-12.4C85.3 74 62.3 67.9 38.8 65.5c8.8-5.9 20.4-6.7 31.3-6.9 20.8-.4 42.1.8 61.4 7.7-7.5-13.1-17-25.4-28.1-36.1 22 2.6 42.5 14.6 54.3 31.6 5.7-11.4 11.8-22.6 18.2-33.8 4.1 12.7 6.7 25.8 7.7 39 17.8-20.6 52.3-27.3 77.8-15.2-29.5 3.4-57.9 14.1-81.3 30.8 24.1 3 46.5 16.2 59.2 35-9.1-6.1-20.6-8.2-31.7-9.6-14-1.8-28.1-2.6-42.3-2.7-2.1 0-4.3.1-6.1 1.1-2.9 1.6-3.6 5.1-3.9 8.1-4.6 39.9 1.7 80.9 18.3 118.1 3.8 8.5 8.2 17.1 9.3 26.3.2 1.5.3 3.2-.6 4.5-.9 1.4-2.7 2.4-4.4 3-13.3 5.3-28.5 7-42.8 4.4-2.3-.4-4.7-1-6-2.7-1.1-1.4-1.2-3.3-1.2-5l-.6-23.4c-.6-24.4-1.3-48.9.6-73.3 1.3-16.5 3.6-33.8-3.5-49"/><path d="M125.3 107.1c-11.5-4.9-25.1-4.3-37-.4S66 117.6 56.4 125.1c0-11.3 6.5-22.2 16-29.5s21.8-11.2 34.2-12.4C85.3 74 62.3 67.9 38.8 65.5c8.8-5.9 20.4-6.7 31.3-6.9 20.8-.4 42.1.8 61.4 7.7-7.5-13.1-17-25.4-28.1-36.1 22 2.6 42.5 14.6 54.3 31.6 5.7-11.4 11.8-22.6 18.2-33.8 4.1 12.7 6.7 25.8 7.7 39 17.8-20.6 52.3-27.3 77.8-15.2-29.5 3.4-57.9 14.1-81.3 30.8 24.1 3 46.5 16.2 59.2 35-9.1-6.1-20.6-8.2-31.7-9.6-14-1.8-28.1-2.6-42.3-2.7-2.1 0-4.3.1-6.1 1.1-2.9 1.6-3.6 5.1-3.9 8.1-4.6 39.9 1.7 80.9 18.3 118.1 3.8 8.5 8.2 17.1 9.3 26.3.2 1.5.3 3.2-.6 4.5-.9 1.4-2.7 2.4-4.4 3-13.3 5.3-28.5 7-42.8 4.4-2.3-.4-4.7-1-6-2.7-1.1-1.4-1.2-3.3-1.2-5l-.6-23.4c-.6-24.4-1.3-48.9.6-73.3 1.3-16.5 3.6-33.8-3.5-49"/><path d="M125.3 107.1c-11.5-4.9-25.1-4.3-37-.4S66 117.6 56.4 125.1c0-11.3 6.5-22.2 16-29.5s21.8-11.2 34.2-12.4C85.3 74 62.3 67.9 38.8 65.5c8.8-5.9 20.4-6.7 31.3-6.9 20.8-.4 42.1.8 61.4 7.7-7.5-13.1-17-25.4-28.1-36.1 22 2.6 42.5 14.6 54.3 31.6 5.7-11.4 11.8-22.6 18.2-33.8 4.1 12.7 6.7 25.8 7.7 39 17.8-20.6 52.3-27.3 77.8-15.2-29.5 3.4-57.9 14.1-81.3 30.8 24.1 3 46.5 16.2 59.2 35-9.1-6.1-20.6-8.2-31.7-9.6-14-1.8-28.1-2.6-42.3-2.7-2.1 0-4.3.1-6.1 1.1-2.9 1.6-3.6 5.1-3.9 8.1-4.6 39.9 1.7 80.9 18.3 118.1 3.8 8.5 8.2 17.1 9.3 26.3.2 1.5.3 3.2-.6 4.5-.9 1.4-2.7 2.4-4.4 3-13.3 5.3-28.5 7-42.8 4.4-2.3-.4-4.7-1-6-2.7-1.1-1.4-1.2-3.3-1.2-5l-.6-23.4c-.6-24.4-1.3-48.9.6-73.3 1.3-16.5 3.6-33.8-3.5-49"/><path d="M125.3 107.1c-11.5-4.9-25.1-4.3-37-.4S66 117.6 56.4 125.1c0-11.3 6.5-22.2 16-29.5s21.8-11.2 34.2-12.4C85.3 74 62.3 67.9 38.8 65.5c8.8-5.9 20.4-6.7 31.3-6.9 20.8-.4 42.1.8 61.4 7.7-7.5-13.1-17-25.4-28.1-36.1 22 2.6 42.5 14.6 54.3 31.6 5.7-11.4 11.8-22.6 18.2-33.8 4.1 12.7 6.7 25.8 7.7 39 17.8-20.6 52.3-27.3 77.8-15.2-29.5 3.4-57.9 14.1-81.3 30.8 24.1 3 46.5 16.2 59.2 35-9.1-6.1-20.6-8.2-31.7-9.6-14-1.8-28.1-2.6-42.3-2.7-2.1 0-4.3.1-6.1 1.1-2.9 1.6-3.6 5.1-3.9 8.1-4.6 39.9 1.7 80.9 18.3 118.1 3.8 8.5 8.2 17.1 9.3 26.3.2 1.5.3 3.2-.6 4.5-.9 1.4-2.7 2.4-4.4 3-13.3 5.3-28.5 7-42.8 4.4-2.3-.4-4.7-1-6-2.7-1.1-1.4-1.2-3.3-1.2-5l-.6-23.4c-.6-24.4-1.3-48.9.6-73.3 1.3-16.5 3.6-33.8-3.5-49"/><path d="M125.3 107.1c-11.5-4.9-25.1-4.3-37-.4S66 117.6 56.4 125.1c0-11.3 6.5-22.2 16-29.5s21.8-11.2 34.2-12.4C85.3 74 62.3 67.9 38.8 65.5c8.8-5.9 20.4-6.7 31.3-6.9 20.8-.4 42.1.8 61.4 7.7-7.5-13.1-17-25.4-28.1-36.1 22 2.6 42.5 14.6 54.3 31.6 5.7-11.4 11.8-22.6 18.2-33.8 4.1 12.7 6.7 25.8 7.7 39 17.8-20.6 52.3-27.3 77.8-15.2-29.5 3.4-57.9 14.1-81.3 30.8 24.1 3 46.5 16.2 59.2 35-9.1-6.1-20.6-8.2-31.7-9.6-14-1.8-28.1-2.6-42.3-2.7-2.1 0-4.3.1-6.1 1.1-2.9 1.6-3.6 5.1-3.9 8.1-4.6 39.9 1.7 80.9 18.3 118.1 3.8 8.5 8.2 17.1 9.3 26.3.2 1.5.3 3.2-.6 4.5-.9 1.4-2.7 2.4-4.4 3-13.3 5.3-28.5 7-42.8 4.4-2.3-.4-4.7-1-6-2.7-1.1-1.4-1.2-3.3-1.2-5l-.6-23.4c-.6-24.4-1.3-48.9.6-73.3 1.3-16.5 3.6-33.8-3.5-49"/></g><g fill="none" stroke="#6DBA85" stroke-width="4" stroke-linecap="round" stroke-linejoin="round"><path d="M125.3 107.1c-11.5-4.9-25.1-4.3-37-.4S66 117.6 56.4 125.1c0-11.3 6.5-22.2 16-29.5s21.8-11.2 34.2-12.4C85.3 74 62.3 67.9 38.8 65.5c8.8-5.9 20.4-6.7 31.3-6.9 20.8-.4 42.1.8 61.4 7.7-7.5-13.1-17-25.4-28.1-36.1 22 2.6 42.5 14.6 54.3 31.6 5.7-11.4 11.8-22.6 18.2-33.8 4.1 12.7 6.7 25.8 7.7 39 17.8-20.6 52.3-27.3 77.8-15.2-29.5 3.4-57.9 14.1-81.3 30.8 24.1 3 46.5 16.2 59.2 35-9.1-6.1-20.6-8.2-31.7-9.6-14-1.8-28.1-2.6-42.3-2.7-2.1 0-4.3.1-6.1 1.1-2.9 1.6-3.6 5.1-3.9 8.1-4.6 39.9 1.7 80.9 18.3 118.1 3.8 8.5 8.2 17.1 9.3 26.3.2 1.5.3 3.2-.6 4.5-.9 1.4-2.7 2.4-4.4 3-13.3 5.3-28.5 7-42.8 4.4-2.3-.4-4.7-1-6-2.7-1.1-1.4-1.2-3.3-1.2-5l-.6-23.4c-.6-24.4-1.3-48.9.6-73.3 1.3-16.5 3.6-33.8-3.5-49"/><path d="M125.3 107.1c-11.5-4.9-25.1-4.3-37-.4S66 117.6 56.4 125.1c0-11.3 6.5-22.2 16-29.5s21.8-11.2 34.2-12.4C85.3 74 62.3 67.9 38.8 65.5c8.8-5.9 20.4-6.7 31.3-6.9 20.8-.4 42.1.8 61.4 7.7-7.5-13.1-17-25.4-28.1-36.1 22 2.6 42.5 14.6 54.3 31.6 5.7-11.4 11.8-22.6 18.2-33.8 4.1 12.7 6.7 25.8 7.7 39 17.8-20.6 52.3-27.3 77.8-15.2-29.5 3.4-57.9 14.1-81.3 30.8 24.1 3 46.5 16.2 59.2 35-9.1-6.1-20.6-8.2-31.7-9.6-14-1.8-28.1-2.6-42.3-2.7-2.1 0-4.3.1-6.1 1.1-2.9 1.6-3.6 5.1-3.9 8.1-4.6 39.9 1.7 80.9 18.3 118.1 3.8 8.5 8.2 17.1 9.3 26.3.2 1.5.3 3.2-.6 4.5-.9 1.4-2.7 2.4-4.4 3-13.3 5.3-28.5 7-42.8 4.4-2.3-.4-4.7-1-6-2.7-1.1-1.4-1.2-3.3-1.2-5l-.6-23.4c-.6-24.4-1.3-48.9.6-73.3 1.3-16.5 3.6-33.8-3.5-49"/><path d="M125.3 107.1c-11.5-4.9-25.1-4.3-37-.4S66 117.6 56.4 125.1c0-11.3 6.5-22.2 16-29.5s21.8-11.2 34.2-12.4C85.3 74 62.3 67.9 38.8 65.5c8.8-5.9 20.4-6.7 31.3-6.9 20.8-.4 42.1.8 61.4 7.7-7.5-13.1-17-25.4-28.1-36.1 22 2.6 42.5 14.6 54.3 31.6 5.7-11.4 11.8-22.6 18.2-33.8 4.1 12.7 6.7 25.8 7.7 39 17.8-20.6 52.3-27.3 77.8-15.2-29.5 3.4-57.9 14.1-81.3 30.8 24.1 3 46.5 16.2 59.2 35-9.1-6.1-20.6-8.2-31.7-9.6-14-1.8-28.1-2.6-42.3-2.7-2.1 0-4.3.1-6.1 1.1-2.9 1.6-3.6 5.1-3.9 8.1-4.6 39.9 1.7 80.9 18.3 118.1 3.8 8.5 8.2 17.1 9.3 26.3.2 1.5.3 3.2-.6 4.5-.9 1.4-2.7 2.4-4.4 3-13.3 5.3-28.5 7-42.8 4.4-2.3-.4-4.7-1-6-2.7-1.1-1.4-1.2-3.3-1.2-5l-.6-23.4c-.6-24.4-1.3-48.9.6-73.3 1.3-16.5 3.6-33.8-3.5-49"/><path d="M125.3 107.1c-11.5-4.9-25.1-4.3-37-.4S66 117.6 56.4 125.1c0-11.3 6.5-22.2 16-29.5s21.8-11.2 34.2-12.4C85.3 74 62.3 67.9 38.8 65.5c8.8-5.9 20.4-6.7 31.3-6.9 20.8-.4 42.1.8 61.4 7.7-7.5-13.1-17-25.4-28.1-36.1 22 2.6 42.5 14.6 54.3 31.6 5.7-11.4 11.8-22.6 18.2-33.8 4.1 12.7 6.7 25.8 7.7 39 17.8-20.6 52.3-27.3 77.8-15.2-29.5 3.4-57.9 14.1-81.3 30.8 24.1 3 46.5 16.2 59.2 35-9.1-6.1-20.6-8.2-31.7-9.6-14-1.8-28.1-2.6-42.3-2.7-2.1 0-4.3.1-6.1 1.1-2.9 1.6-3.6 5.1-3.9 8.1-4.6 39.9 1.7 80.9 18.3 118.1 3.8 8.5 8.2 17.1 9.3 26.3.2 1.5.3 3.2-.6 4.5-.9 1.4-2.7 2.4-4.4 3-13.3 5.3-28.5 7-42.8 4.4-2.3-.4-4.7-1-6-2.7-1.1-1.4-1.2-3.3-1.2-5l-.6-23.4c-.6-24.4-1.3-48.9.6-73.3 1.3-16.5 3.6-33.8-3.5-49"/><path d="M125.3 107.1c-11.5-4.9-25.1-4.3-37-.4S66 117.6 56.4 125.1c0-11.3 6.5-22.2 16-29.5s21.8-11.2 34.2-12.4C85.3 74 62.3 67.9 38.8 65.5c8.8-5.9 20.4-6.7 31.3-6.9 20.8-.4 42.1.8 61.4 7.7-7.5-13.1-17-25.4-28.1-36.1 22 2.6 42.5 14.6 54.3 31.6 5.7-11.4 11.8-22.6 18.2-33.8 4.1 12.7 6.7 25.8 7.7 39 17.8-20.6 52.3-27.3 77.8-15.2-29.5 3.4-57.9 14.1-81.3 30.8 24.1 3 46.5 16.2 59.2 35-9.1-6.1-20.6-8.2-31.7-9.6-14-1.8-28.1-2.6-42.3-2.7-2.1 0-4.3.1-6.1 1.1-2.9 1.6-3.6 5.1-3.9 8.1-4.6 39.9 1.7 80.9 18.3 118.1 3.8 8.5 8.2 17.1 9.3 26.3.2 1.5.3 3.2-.6 4.5-.9 1.4-2.7 2.4-4.4 3-13.3 5.3-28.5 7-42.8 4.4-2.3-.4-4.7-1-6-2.7-1.1-1.4-1.2-3.3-1.2-5l-.6-23.4c-.6-24.4-1.3-48.9.6-73.3 1.3-16.5 3.6-33.8-3.5-49"/><path d="M125.3 107.1c-11.5-4.9-25.1-4.3-37-.4S66 117.6 56.4 125.1c0-11.3 6.5-22.2 16-29.5s21.8-11.2 34.2-12.4C85.3 74 62.3 67.9 38.8 65.5c8.8-5.9 20.4-6.7 31.3-6.9 20.8-.4 42.1.8 61.4 7.7-7.5-13.1-17-25.4-28.1-36.1 22 2.6 42.5 14.6 54.3 31.6 5.7-11.4 11.8-22.6 18.2-33.8 4.1 12.7 6.7 25.8 7.7 39 17.8-20.6 52.3-27.3 77.8-15.2-29.5 3.4-57.9 14.1-81.3 30.8 24.1 3 46.5 16.2 59.2 35-9.1-6.1-20.6-8.2-31.7-9.6-14-1.8-28.1-2.6-42.3-2.7-2.1 0-4.3.1-6.1 1.1-2.9 1.6-3.6 5.1-3.9 8.1-4.6 39.9 1.7 80.9 18.3 118.1 3.8 8.5 8.2 17.1 9.3 26.3.2 1.5.3 3.2-.6 4.5-.9 1.4-2.7 2.4-4.4 3-13.3 5.3-28.5 7-42.8 4.4-2.3-.4-4.7-1-6-2.7-1.1-1.4-1.2-3.3-1.2-5l-.6-23.4c-.6-24.4-1.3-48.9.6-73.3 1.3-16.5 3.6-33.8-3.5-49"/><path d="M125.3 107.1c-11.5-4.9-25.1-4.3-37-.4S66 117.6 56.4 125.1c0-11.3 6.5-22.2 16-29.5s21.8-11.2 34.2-12.4C85.3 74 62.3 67.9 38.8 65.5c8.8-5.9 20.4-6.7 31.3-6.9 20.8-.4 42.1.8 61.4 7.7-7.5-13.1-17-25.4-28.1-36.1 22 2.6 42.5 14.6 54.3 31.6 5.7-11.4 11.8-22.6 18.2-33.8 4.1 12.7 6.7 25.8 7.7 39 17.8-20.6 52.3-27.3 77.8-15.2-29.5 3.4-57.9 14.1-81.3 30.8 24.1 3 46.5 16.2 59.2 35-9.1-6.1-20.6-8.2-31.7-9.6-14-1.8-28.1-2.6-42.3-2.7-2.1 0-4.3.1-6.1 1.1-2.9 1.6-3.6 5.1-3.9 8.1-4.6 39.9 1.7 80.9 18.3 118.1 3.8 8.5 8.2 17.1 9.3 26.3.2 1.5.3 3.2-.6 4.5-.9 1.4-2.7 2.4-4.4 3-13.3 5.3-28.5 7-42.8 4.4-2.3-.4-4.7-1-6-2.7-1.1-1.4-1.2-3.3-1.2-5l-.6-23.4c-.6-24.4-1.3-48.9.6-73.3 1.3-16.5 3.6-33.8-3.5-49"/><path d="M125.3 107.1c-11.5-4.9-25.1-4.3-37-.4S66 117.6 56.4 125.1c0-11.3 6.5-22.2 16-29.5s21.8-11.2 34.2-12.4C85.3 74 62.3 67.9 38.8 65.5c8.8-5.9 20.4-6.7 31.3-6.9 20.8-.4 42.1.8 61.4 7.7-7.5-13.1-17-25.4-28.1-36.1 22 2.6 42.5 14.6 54.3 31.6 5.7-11.4 11.8-22.6 18.2-33.8 4.1 12.7 6.7 25.8 7.7 39 17.8-20.6 52.3-27.3 77.8-15.2-29.5 3.4-57.9 14.1-81.3 30.8 24.1 3 46.5 16.2 59.2 35-9.1-6.1-20.6-8.2-31.7-9.6-14-1.8-28.1-2.6-42.3-2.7-2.1 0-4.3.1-6.1 1.1-2.9 1.6-3.6 5.1-3.9 8.1-4.6 39.9 1.7 80.9 18.3 118.1 3.8 8.5 8.2 17.1 9.3 26.3.2 1.5.3 3.2-.6 4.5-.9 1.4-2.7 2.4-4.4 3-13.3 5.3-28.5 7-42.8 4.4-2.3-.4-4.7-1-6-2.7-1.1-1.4-1.2-3.3-1.2-5l-.6-23.4c-.6-24.4-1.3-48.9.6-73.3 1.3-16.5 3.6-33.8-3.5-49"/></g><g fill="none" stroke="#8FC69C" stroke-width="2.5" stroke-linecap="round" stroke-linejoin="round"><path d="M125.3 107.1c-11.5-4.9-25.1-4.3-37-.4S66 117.6 56.4 125.1c0-11.3 6.5-22.2 16-29.5s21.8-11.2 34.2-12.4C85.3 74 62.3 67.9 38.8 65.5c8.8-5.9 20.4-6.7 31.3-6.9 20.8-.4 42.1.8 61.4 7.7-7.5-13.1-17-25.4-28.1-36.1 22 2.6 42.5 14.6 54.3 31.6 5.7-11.4 11.8-22.6 18.2-33.8 4.1 12.7 6.7 25.8 7.7 39 17.8-20.6 52.3-27.3 77.8-15.2-29.5 3.4-57.9 14.1-81.3 30.8 24.1 3 46.5 16.2 59.2 35-9.1-6.1-20.6-8.2-31.7-9.6-14-1.8-28.1-2.6-42.3-2.7-2.1 0-4.3.1-6.1 1.1-2.9 1.6-3.6 5.1-3.9 8.1-4.6 39.9 1.7 80.9 18.3 118.1 3.8 8.5 8.2 17.1 9.3 26.3.2 1.5.3 3.2-.6 4.5-.9 1.4-2.7 2.4-4.4 3-13.3 5.3-28.5 7-42.8 4.4-2.3-.4-4.7-1-6-2.7-1.1-1.4-1.2-3.3-1.2-5l-.6-23.4c-.6-24.4-1.3-48.9.6-73.3 1.3-16.5 3.6-33.8-3.5-49"/><path d="M125.3 107.1c-11.5-4.9-25.1-4.3-37-.4S66 117.6 56.4 125.1c0-11.3 6.5-22.2 16-29.5s21.8-11.2 34.2-12.4C85.3 74 62.3 67.9 38.8 65.5c8.8-5.9 20.4-6.7 31.3-6.9 20.8-.4 42.1.8 61.4 7.7-7.5-13.1-17-25.4-28.1-36.1 22 2.6 42.5 14.6 54.3 31.6 5.7-11.4 11.8-22.6 18.2-33.8 4.1 12.7 6.7 25.8 7.7 39 17.8-20.6 52.3-27.3 77.8-15.2-29.5 3.4-57.9 14.1-81.3 30.8 24.1 3 46.5 16.2 59.2 35-9.1-6.1-20.6-8.2-31.7-9.6-14-1.8-28.1-2.6-42.3-2.7-2.1 0-4.3.1-6.1 1.1-2.9 1.6-3.6 5.1-3.9 8.1-4.6 39.9 1.7 80.9 18.3 118.1 3.8 8.5 8.2 17.1 9.3 26.3.2 1.5.3 3.2-.6 4.5-.9 1.4-2.7 2.4-4.4 3-13.3 5.3-28.5 7-42.8 4.4-2.3-.4-4.7-1-6-2.7-1.1-1.4-1.2-3.3-1.2-5l-.6-23.4c-.6-24.4-1.3-48.9.6-73.3 1.3-16.5 3.6-33.8-3.5-49"/><path d="M125.3 107.1c-11.5-4.9-25.1-4.3-37-.4S66 117.6 56.4 125.1c0-11.3 6.5-22.2 16-29.5s21.8-11.2 34.2-12.4C85.3 74 62.3 67.9 38.8 65.5c8.8-5.9 20.4-6.7 31.3-6.9 20.8-.4 42.1.8 61.4 7.7-7.5-13.1-17-25.4-28.1-36.1 22 2.6 42.5 14.6 54.3 31.6 5.7-11.4 11.8-22.6 18.2-33.8 4.1 12.7 6.7 25.8 7.7 39 17.8-20.6 52.3-27.3 77.8-15.2-29.5 3.4-57.9 14.1-81.3 30.8 24.1 3 46.5 16.2 59.2 35-9.1-6.1-20.6-8.2-31.7-9.6-14-1.8-28.1-2.6-42.3-2.7-2.1 0-4.3.1-6.1 1.1-2.9 1.6-3.6 5.1-3.9 8.1-4.6 39.9 1.7 80.9 18.3 118.1 3.8 8.5 8.2 17.1 9.3 26.3.2 1.5.3 3.2-.6 4.5-.9 1.4-2.7 2.4-4.4 3-13.3 5.3-28.5 7-42.8 4.4-2.3-.4-4.7-1-6-2.7-1.1-1.4-1.2-3.3-1.2-5l-.6-23.4c-.6-24.4-1.3-48.9.6-73.3 1.3-16.5 3.6-33.8-3.5-49"/><path d="M125.3 107.1c-11.5-4.9-25.1-4.3-37-.4S66 117.6 56.4 125.1c0-11.3 6.5-22.2 16-29.5s21.8-11.2 34.2-12.4C85.3 74 62.3 67.9 38.8 65.5c8.8-5.9 20.4-6.7 31.3-6.9 20.8-.4 42.1.8 61.4 7.7-7.5-13.1-17-25.4-28.1-36.1 22 2.6 42.5 14.6 54.3 31.6 5.7-11.4 11.8-22.6 18.2-33.8 4.1 12.7 6.7 25.8 7.7 39 17.8-20.6 52.3-27.3 77.8-15.2-29.5 3.4-57.9 14.1-81.3 30.8 24.1 3 46.5 16.2 59.2 35-9.1-6.1-20.6-8.2-31.7-9.6-14-1.8-28.1-2.6-42.3-2.7-2.1 0-4.3.1-6.1 1.1-2.9 1.6-3.6 5.1-3.9 8.1-4.6 39.9 1.7 80.9 18.3 118.1 3.8 8.5 8.2 17.1 9.3 26.3.2 1.5.3 3.2-.6 4.5-.9 1.4-2.7 2.4-4.4 3-13.3 5.3-28.5 7-42.8 4.4-2.3-.4-4.7-1-6-2.7-1.1-1.4-1.2-3.3-1.2-5l-.6-23.4c-.6-24.4-1.3-48.9.6-73.3 1.3-16.5 3.6-33.8-3.5-49"/><path d="M125.3 107.1c-11.5-4.9-25.1-4.3-37-.4S66 117.6 56.4 125.1c0-11.3 6.5-22.2 16-29.5s21.8-11.2 34.2-12.4C85.3 74 62.3 67.9 38.8 65.5c8.8-5.9 20.4-6.7 31.3-6.9 20.8-.4 42.1.8 61.4 7.7-7.5-13.1-17-25.4-28.1-36.1 22 2.6 42.5 14.6 54.3 31.6 5.7-11.4 11.8-22.6 18.2-33.8 4.1 12.7 6.7 25.8 7.7 39 17.8-20.6 52.3-27.3 77.8-15.2-29.5 3.4-57.9 14.1-81.3 30.8 24.1 3 46.5 16.2 59.2 35-9.1-6.1-20.6-8.2-31.7-9.6-14-1.8-28.1-2.6-42.3-2.7-2.1 0-4.3.1-6.1 1.1-2.9 1.6-3.6 5.1-3.9 8.1-4.6 39.9 1.7 80.9 18.3 118.1 3.8 8.5 8.2 17.1 9.3 26.3.2 1.5.3 3.2-.6 4.5-.9 1.4-2.7 2.4-4.4 3-13.3 5.3-28.5 7-42.8 4.4-2.3-.4-4.7-1-6-2.7-1.1-1.4-1.2-3.3-1.2-5l-.6-23.4c-.6-24.4-1.3-48.9.6-73.3 1.3-16.5 3.6-33.8-3.5-49"/><path d="M125.3 107.1c-11.5-4.9-25.1-4.3-37-.4S66 117.6 56.4 125.1c0-11.3 6.5-22.2 16-29.5s21.8-11.2 34.2-12.4C85.3 74 62.3 67.9 38.8 65.5c8.8-5.9 20.4-6.7 31.3-6.9 20.8-.4 42.1.8 61.4 7.7-7.5-13.1-17-25.4-28.1-36.1 22 2.6 42.5 14.6 54.3 31.6 5.7-11.4 11.8-22.6 18.2-33.8 4.1 12.7 6.7 25.8 7.7 39 17.8-20.6 52.3-27.3 77.8-15.2-29.5 3.4-57.9 14.1-81.3 30.8 24.1 3 46.5 16.2 59.2 35-9.1-6.1-20.6-8.2-31.7-9.6-14-1.8-28.1-2.6-42.3-2.7-2.1 0-4.3.1-6.1 1.1-2.9 1.6-3.6 5.1-3.9 8.1-4.6 39.9 1.7 80.9 18.3 118.1 3.8 8.5 8.2 17.1 9.3 26.3.2 1.5.3 3.2-.6 4.5-.9 1.4-2.7 2.4-4.4 3-13.3 5.3-28.5 7-42.8 4.4-2.3-.4-4.7-1-6-2.7-1.1-1.4-1.2-3.3-1.2-5l-.6-23.4c-.6-24.4-1.3-48.9.6-73.3 1.3-16.5 3.6-33.8-3.5-49"/><path d="M125.3 107.1c-11.5-4.9-25.1-4.3-37-.4S66 117.6 56.4 125.1c0-11.3 6.5-22.2 16-29.5s21.8-11.2 34.2-12.4C85.3 74 62.3 67.9 38.8 65.5c8.8-5.9 20.4-6.7 31.3-6.9 20.8-.4 42.1.8 61.4 7.7-7.5-13.1-17-25.4-28.1-36.1 22 2.6 42.5 14.6 54.3 31.6 5.7-11.4 11.8-22.6 18.2-33.8 4.1 12.7 6.7 25.8 7.7 39 17.8-20.6 52.3-27.3 77.8-15.2-29.5 3.4-57.9 14.1-81.3 30.8 24.1 3 46.5 16.2 59.2 35-9.1-6.1-20.6-8.2-31.7-9.6-14-1.8-28.1-2.6-42.3-2.7-2.1 0-4.3.1-6.1 1.1-2.9 1.6-3.6 5.1-3.9 8.1-4.6 39.9 1.7 80.9 18.3 118.1 3.8 8.5 8.2 17.1 9.3 26.3.2 1.5.3 3.2-.6 4.5-.9 1.4-2.7 2.4-4.4 3-13.3 5.3-28.5 7-42.8 4.4-2.3-.4-4.7-1-6-2.7-1.1-1.4-1.2-3.3-1.2-5l-.6-23.4c-.6-24.4-1.3-48.9.6-73.3 1.3-16.5 3.6-33.8-3.5-49"/><path d="M125.3 107.1c-11.5-4.9-25.1-4.3-37-.4S66 117.6 56.4 125.1c0-11.3 6.5-22.2 16-29.5s21.8-11.2 34.2-12.4C85.3 74 62.3 67.9 38.8 65.5c8.8-5.9 20.4-6.7 31.3-6.9 20.8-.4 42.1.8 61.4 7.7-7.5-13.1-17-25.4-28.1-36.1 22 2.6 42.5 14.6 54.3 31.6 5.7-11.4 11.8-22.6 18.2-33.8 4.1 12.7 6.7 25.8 7.7 39 17.8-20.6 52.3-27.3 77.8-15.2-29.5 3.4-57.9 14.1-81.3 30.8 24.1 3 46.5 16.2 59.2 35-9.1-6.1-20.6-8.2-31.7-9.6-14-1.8-28.1-2.6-42.3-2.7-2.1 0-4.3.1-6.1 1.1-2.9 1.6-3.6 5.1-3.9 8.1-4.6 39.9 1.7 80.9 18.3 118.1 3.8 8.5 8.2 17.1 9.3 26.3.2 1.5.3 3.2-.6 4.5-.9 1.4-2.7 2.4-4.4 3-13.3 5.3-28.5 7-42.8 4.4-2.3-.4-4.7-1-6-2.7-1.1-1.4-1.2-3.3-1.2-5l-.6-23.4c-.6-24.4-1.3-48.9.6-73.3 1.3-16.5 3.6-33.8-3.5-49"/></g><g fill="none" stroke="#B7D8C0" stroke-linecap="round" stroke-linejoin="round"><path d="M125.3 107.1c-11.5-4.9-25.1-4.3-37-.4S66 117.6 56.4 125.1c0-11.3 6.5-22.2 16-29.5s21.8-11.2 34.2-12.4C85.3 74 62.3 67.9 38.8 65.5c8.8-5.9 20.4-6.7 31.3-6.9 20.8-.4 42.1.8 61.4 7.7-7.5-13.1-17-25.4-28.1-36.1 22 2.6 42.5 14.6 54.3 31.6 5.7-11.4 11.8-22.6 18.2-33.8 4.1 12.7 6.7 25.8 7.7 39 17.8-20.6 52.3-27.3 77.8-15.2-29.5 3.4-57.9 14.1-81.3 30.8 24.1 3 46.5 16.2 59.2 35-9.1-6.1-20.6-8.2-31.7-9.6-14-1.8-28.1-2.6-42.3-2.7-2.1 0-4.3.1-6.1 1.1-2.9 1.6-3.6 5.1-3.9 8.1-4.6 39.9 1.7 80.9 18.3 118.1 3.8 8.5 8.2 17.1 9.3 26.3.2 1.5.3 3.2-.6 4.5-.9 1.4-2.7 2.4-4.4 3-13.3 5.3-28.5 7-42.8 4.4-2.3-.4-4.7-1-6-2.7-1.1-1.4-1.2-3.3-1.2-5l-.6-23.4c-.6-24.4-1.3-48.9.6-73.3 1.3-16.5 3.6-33.8-3.5-49"/><path d="M125.3 107.1c-11.5-4.9-25.1-4.3-37-.4S66 117.6 56.4 125.1c0-11.3 6.5-22.2 16-29.5s21.8-11.2 34.2-12.4C85.3 74 62.3 67.9 38.8 65.5c8.8-5.9 20.4-6.7 31.3-6.9 20.8-.4 42.1.8 61.4 7.7-7.5-13.1-17-25.4-28.1-36.1 22 2.6 42.5 14.6 54.3 31.6 5.7-11.4 11.8-22.6 18.2-33.8 4.1 12.7 6.7 25.8 7.7 39 17.8-20.6 52.3-27.3 77.8-15.2-29.5 3.4-57.9 14.1-81.3 30.8 24.1 3 46.5 16.2 59.2 35-9.1-6.1-20.6-8.2-31.7-9.6-14-1.8-28.1-2.6-42.3-2.7-2.1 0-4.3.1-6.1 1.1-2.9 1.6-3.6 5.1-3.9 8.1-4.6 39.9 1.7 80.9 18.3 118.1 3.8 8.5 8.2 17.1 9.3 26.3.2 1.5.3 3.2-.6 4.5-.9 1.4-2.7 2.4-4.4 3-13.3 5.3-28.5 7-42.8 4.4-2.3-.4-4.7-1-6-2.7-1.1-1.4-1.2-3.3-1.2-5l-.6-23.4c-.6-24.4-1.3-48.9.6-73.3 1.3-16.5 3.6-33.8-3.5-49"/><path d="M125.3 107.1c-11.5-4.9-25.1-4.3-37-.4S66 117.6 56.4 125.1c0-11.3 6.5-22.2 16-29.5s21.8-11.2 34.2-12.4C85.3 74 62.3 67.9 38.8 65.5c8.8-5.9 20.4-6.7 31.3-6.9 20.8-.4 42.1.8 61.4 7.7-7.5-13.1-17-25.4-28.1-36.1 22 2.6 42.5 14.6 54.3 31.6 5.7-11.4 11.8-22.6 18.2-33.8 4.1 12.7 6.7 25.8 7.7 39 17.8-20.6 52.3-27.3 77.8-15.2-29.5 3.4-57.9 14.1-81.3 30.8 24.1 3 46.5 16.2 59.2 35-9.1-6.1-20.6-8.2-31.7-9.6-14-1.8-28.1-2.6-42.3-2.7-2.1 0-4.3.1-6.1 1.1-2.9 1.6-3.6 5.1-3.9 8.1-4.6 39.9 1.7 80.9 18.3 118.1 3.8 8.5 8.2 17.1 9.3 26.3.2 1.5.3 3.2-.6 4.5-.9 1.4-2.7 2.4-4.4 3-13.3 5.3-28.5 7-42.8 4.4-2.3-.4-4.7-1-6-2.7-1.1-1.4-1.2-3.3-1.2-5l-.6-23.4c-.6-24.4-1.3-48.9.6-73.3 1.3-16.5 3.6-33.8-3.5-49"/><path d="M125.3 107.1c-11.5-4.9-25.1-4.3-37-.4S66 117.6 56.4 125.1c0-11.3 6.5-22.2 16-29.5s21.8-11.2 34.2-12.4C85.3 74 62.3 67.9 38.8 65.5c8.8-5.9 20.4-6.7 31.3-6.9 20.8-.4 42.1.8 61.4 7.7-7.5-13.1-17-25.4-28.1-36.1 22 2.6 42.5 14.6 54.3 31.6 5.7-11.4 11.8-22.6 18.2-33.8 4.1 12.7 6.7 25.8 7.7 39 17.8-20.6 52.3-27.3 77.8-15.2-29.5 3.4-57.9 14.1-81.3 30.8 24.1 3 46.5 16.2 59.2 35-9.1-6.1-20.6-8.2-31.7-9.6-14-1.8-28.1-2.6-42.3-2.7-2.1 0-4.3.1-6.1 1.1-2.9 1.6-3.6 5.1-3.9 8.1-4.6 39.9 1.7 80.9 18.3 118.1 3.8 8.5 8.2 17.1 9.3 26.3.2 1.5.3 3.2-.6 4.5-.9 1.4-2.7 2.4-4.4 3-13.3 5.3-28.5 7-42.8 4.4-2.3-.4-4.7-1-6-2.7-1.1-1.4-1.2-3.3-1.2-5l-.6-23.4c-.6-24.4-1.3-48.9.6-73.3 1.3-16.5 3.6-33.8-3.5-49"/><path d="M125.3 107.1c-11.5-4.9-25.1-4.3-37-.4S66 117.6 56.4 125.1c0-11.3 6.5-22.2 16-29.5s21.8-11.2 34.2-12.4C85.3 74 62.3 67.9 38.8 65.5c8.8-5.9 20.4-6.7 31.3-6.9 20.8-.4 42.1.8 61.4 7.7-7.5-13.1-17-25.4-28.1-36.1 22 2.6 42.5 14.6 54.3 31.6 5.7-11.4 11.8-22.6 18.2-33.8 4.1 12.7 6.7 25.8 7.7 39 17.8-20.6 52.3-27.3 77.8-15.2-29.5 3.4-57.9 14.1-81.3 30.8 24.1 3 46.5 16.2 59.2 35-9.1-6.1-20.6-8.2-31.7-9.6-14-1.8-28.1-2.6-42.3-2.7-2.1 0-4.3.1-6.1 1.1-2.9 1.6-3.6 5.1-3.9 8.1-4.6 39.9 1.7 80.9 18.3 118.1 3.8 8.5 8.2 17.1 9.3 26.3.2 1.5.3 3.2-.6 4.5-.9 1.4-2.7 2.4-4.4 3-13.3 5.3-28.5 7-42.8 4.4-2.3-.4-4.7-1-6-2.7-1.1-1.4-1.2-3.3-1.2-5l-.6-23.4c-.6-24.4-1.3-48.9.6-73.3 1.3-16.5 3.6-33.8-3.5-49"/><path d="M125.3 107.1c-11.5-4.9-25.1-4.3-37-.4S66 117.6 56.4 125.1c0-11.3 6.5-22.2 16-29.5s21.8-11.2 34.2-12.4C85.3 74 62.3 67.9 38.8 65.5c8.8-5.9 20.4-6.7 31.3-6.9 20.8-.4 42.1.8 61.4 7.7-7.5-13.1-17-25.4-28.1-36.1 22 2.6 42.5 14.6 54.3 31.6 5.7-11.4 11.8-22.6 18.2-33.8 4.1 12.7 6.7 25.8 7.7 39 17.8-20.6 52.3-27.3 77.8-15.2-29.5 3.4-57.9 14.1-81.3 30.8 24.1 3 46.5 16.2 59.2 35-9.1-6.1-20.6-8.2-31.7-9.6-14-1.8-28.1-2.6-42.3-2.7-2.1 0-4.3.1-6.1 1.1-2.9 1.6-3.6 5.1-3.9 8.1-4.6 39.9 1.7 80.9 18.3 118.1 3.8 8.5 8.2 17.1 9.3 26.3.2 1.5.3 3.2-.6 4.5-.9 1.4-2.7 2.4-4.4 3-13.3 5.3-28.5 7-42.8 4.4-2.3-.4-4.7-1-6-2.7-1.1-1.4-1.2-3.3-1.2-5l-.6-23.4c-.6-24.4-1.3-48.9.6-73.3 1.3-16.5 3.6-33.8-3.5-49"/><path d="M125.3 107.1c-11.5-4.9-25.1-4.3-37-.4S66 117.6 56.4 125.1c0-11.3 6.5-22.2 16-29.5s21.8-11.2 34.2-12.4C85.3 74 62.3 67.9 38.8 65.5c8.8-5.9 20.4-6.7 31.3-6.9 20.8-.4 42.1.8 61.4 7.7-7.5-13.1-17-25.4-28.1-36.1 22 2.6 42.5 14.6 54.3 31.6 5.7-11.4 11.8-22.6 18.2-33.8 4.1 12.7 6.7 25.8 7.7 39 17.8-20.6 52.3-27.3 77.8-15.2-29.5 3.4-57.9 14.1-81.3 30.8 24.1 3 46.5 16.2 59.2 35-9.1-6.1-20.6-8.2-31.7-9.6-14-1.8-28.1-2.6-42.3-2.7-2.1 0-4.3.1-6.1 1.1-2.9 1.6-3.6 5.1-3.9 8.1-4.6 39.9 1.7 80.9 18.3 118.1 3.8 8.5 8.2 17.1 9.3 26.3.2 1.5.3 3.2-.6 4.5-.9 1.4-2.7 2.4-4.4 3-13.3 5.3-28.5 7-42.8 4.4-2.3-.4-4.7-1-6-2.7-1.1-1.4-1.2-3.3-1.2-5l-.6-23.4c-.6-24.4-1.3-48.9.6-73.3 1.3-16.5 3.6-33.8-3.5-49"/><path d="M125.3 107.1c-11.5-4.9-25.1-4.3-37-.4S66 117.6 56.4 125.1c0-11.3 6.5-22.2 16-29.5s21.8-11.2 34.2-12.4C85.3 74 62.3 67.9 38.8 65.5c8.8-5.9 20.4-6.7 31.3-6.9 20.8-.4 42.1.8 61.4 7.7-7.5-13.1-17-25.4-28.1-36.1 22 2.6 42.5 14.6 54.3 31.6 5.7-11.4 11.8-22.6 18.2-33.8 4.1 12.7 6.7 25.8 7.7 39 17.8-20.6 52.3-27.3 77.8-15.2-29.5 3.4-57.9 14.1-81.3 30.8 24.1 3 46.5 16.2 59.2 35-9.1-6.1-20.6-8.2-31.7-9.6-14-1.8-28.1-2.6-42.3-2.7-2.1 0-4.3.1-6.1 1.1-2.9 1.6-3.6 5.1-3.9 8.1-4.6 39.9 1.7 80.9 18.3 118.1 3.8 8.5 8.2 17.1 9.3 26.3.2 1.5.3 3.2-.6 4.5-.9 1.4-2.7 2.4-4.4 3-13.3 5.3-28.5 7-42.8 4.4-2.3-.4-4.7-1-6-2.7-1.1-1.4-1.2-3.3-1.2-5l-.6-23.4c-.6-24.4-1.3-48.9.6-73.3 1.3-16.5 3.6-33.8-3.5-49"/></g></svg>