<svg xmlns="http://www.w3.org/2000/svg" viewBox="0 0 300 300"><g fill="none" stroke-linecap="round" stroke-linejoin="round"><path opacity=".2" stroke="#EA2E3C" stroke-width="10" d="M32.5 148.7c25.7-10.9 46.6-31.4 72.6-41.3 1.8-.7 3.6-1.3 5.5-1.2 2.1.2 4 1.2 5.8 2.3l19.2 11.1c1.8 1 3.6 2.1 5.7 2.2 2 .1 3.9-.7 5.6-1.6 5.5-2.8 10.4-6.6 14.4-11.2 2.7-3 5.5-6.7 9.5-6.8 1.7-.1 3.3.5 4.9 1.1 24.8 9.3 49.7 18.6 74.5 27.9 2.7 1 15.9 4.1 16.6 6.9.8 3.4-7.6 8.7-9.7 10.5-9.5 8-19.6 15.2-30.2 21.6-11.4 6.9-23.4 12.8-35.7 17.8-9.6 3.9-19.6 7.3-29.9 8.2-10.6.9-21.2-.9-31.6-3.2-30.2-6.6-59.6-17.1-90.2-21.7 6.5-2.5 10.6-3.8 17.1-6.3 5.5-2.1 11-4.3 16.7-5.4 9.3-1.9 18.8-1.1 28.2-.8 39 1.4 77.9-4.2 116.5-9.8 8.6-1.2 17.3-2.5 25.4-5.7"/><path opacity=".25" stroke="#EA2E3C" stroke-width="8.5" d="M32.5 148.7c25.7-10.9 46.6-31.4 72.6-41.3 1.8-.7 3.6-1.3 5.5-1.2 2.1.2 4 1.2 5.8 2.3l19.2 11.1c1.8 1 3.6 2.1 5.7 2.2 2 .1 3.9-.7 5.6-1.6 5.5-2.8 10.4-6.6 14.4-11.2 2.7-3 5.5-6.7 9.5-6.8 1.7-.1 3.3.5 4.9 1.1 24.8 9.3 49.7 18.6 74.5 27.9 2.7 1 15.9 4.1 16.6 6.9.8 3.4-7.6 8.7-9.7 10.5-9.5 8-19.6 15.2-30.2 21.6-11.4 6.9-23.4 12.8-35.7 17.8-9.6 3.9-19.6 7.3-29.9 8.2-10.6.9-21.2-.9-31.6-3.2-30.2-6.6-59.6-17.1-90.2-21.7 6.5-2.5 10.6-3.8 17.1-6.3 5.5-2.1 11-4.3 16.7-5.4 9.3-1.9 18.8-1.1 28.2-.8 39 1.4 77.9-4.2 116.5-9.8 8.6-1.2 17.3-2.5 25.4-5.7"/><path opacity=".3" stroke="#EA2E3C" stroke-width="5" d="M32.5 148.7c25.7-10.9 46.6-31.4 72.6-41.3 1.8-.7 3.6-1.3 5.5-1.2 2.1.2 4 1.2 5.8 2.3l19.2 11.1c1.8 1 3.6 2.1 5.7 2.2 2 .1 3.9-.7 5.6-1.6 5.5-2.8 10.4-6.6 14.4-11.2 2.7-3 5.5-6.7 9.5-6.8 1.7-.1 3.3.5 4.9 1.1 24.8 9.3 49.7 18.6 74.5 27.9 2.7 1 15.9 4.1 16.6 6.9.8 3.4-7.6 8.7-9.7 10.5-9.5 8-19.6 15.2-30.2 21.6-11.4 6.9-23.4 12.8-35.7 17.8-9.6 3.9-19.6 7.3-29.9 8.2-10.6.9-21.2-.9-31.6-3.2-30.2-6.6-59.6-17.1-90.2-21.7 6.5-2.5 10.6-3.8 17.1-6.3 5.5-2.1 11-4.3 16.7-5.4 9.3-1.9 18.8-1.1 28.2-.8 39 1.4 77.9-4.2 116.5-9.8 8.6-1.2 17.3-2.5 25.4-5.7"/><path stroke="#EB4748" stroke-width="7" d="M32.5 148.7c25.7-10.9 46.6-31.4 72.6-41.3 1.8-.7 3.6-1.3 5.5-1.2 2.1.2 4 1.2 5.8 2.3l19.2 11.1c1.8 1 3.6 2.1 5.7 2.2 2 .1 3.9-.7 5.6-1.6 5.5-2.8 10.4-6.6 14.4-11.2 2.7-3 5.5-6.7 9.5-6.8 1.7-.1 3.3.5 4.9 1.1 24.8 9.3 49.7 18.6 74.5 27.9 2.7 1 15.9 4.1 16.6 6.9.8 3.4-7.6 8.7-9.7 10.5-9.5 8-19.6 15.2-30.2 21.6-11.4 6.9-23.4 12.8-35.7 17.8-9.6 3.9-19.6 7.3-29.9 8.2-10.6.9-21.2-.9-31.6-3.2-30.2-6.6-59.6-17.1-90.2-21.7 6.5-2.5 10.6-3.8 17.1-6.3 5.5-2.1 11-4.3 16.7-5.4 9.3-1.9 18.8-1.1 28.2-.8 39 1.4 77.9-4.2 116.5-9.8 8.6-1.2 17.3-2.5 25.4-5.7"/><path stroke="#F07062" stroke-width="5.5" d="M32.5 148.7c25.7-10.9 46.6-31.4 72.6-41.3 1.8-.7 3.6-1.3 5.5-1.2 2.1.2 4 1.2 5.8 2.3l19.2 11.1c1.8 1 3.6 2.1 5.7 2.2 2 .1 3.9-.7 5.6-1.6 5.5-2.8 10.4-6.6 14.4-11.2 2.7-3 5.5-6.7 9.5-6.8 1.7-.1 3.3.5 4.9 1.1 24.8 9.3 49.7 18.6 74.5 27.9 2.7 1 15.9 4.1 16.6 6.9.8 3.4-7.6 8.7-9.7 10.5-9.5 8-19.6 15.2-30.2 21.6-11.4 6.9-23.4 12.8-35.7 17.8-9.6 3.9-19.6 7.3-29.9 8.2-10.6.9-21.2-.9-31.6-3.2-30.2-6.6-59.6-17.1-90.2-21.7 6.5-2.5 10.6-3.8 17.1-6.3 5.5-2.1 11-4.3 16.7-5.4 9.3-1.9 18.8-1.1 28.2-.8 39 1.4 77.9-4.2 116.5-9.8 8.6-1.2 17.3-2.5 25.4-5.7"/><path stroke="#F48C7A" stroke-width="4" d="M32.5 148.7c25.7-10.9 46.6-31.4 72.6-41.3 1.8-.7 3.6-1.3 5.5-1.2 2.1.2 4 1.2 5.8 2.3l19.2 11.1c1.8 1 3.6 2.1 5.7 2.2 2 .1 3.9-.7 5.6-1.6 5.5-2.8 10.4-6.6 14.4-11.2 2.7-3 5.5-6.7 9.5-6.8 1.7-.1 3.3.5 4.9 1.1 24.8 9.3 49.7 18.6 74.5 27.9 2.7 1 15.9 4.1 16.6 6.9.8 3.4-7.6 8.7-9.7 10.5-9.5 8-19.6 15.2-30.2 21.6-11.4 6.9-23.4 12.8-35.7 17.8-9.6 3.9-19.6 7.3-29.9 8.2-10.6.9-21.2-.9-31.6-3.2-30.2-6.6-59.6-17.1-90.2-21.7 6.5-2.5 10.6-3.8 17.1-6.3 5.5-2.1 11-4.3 16.7-5.4 9.3-1.9 18.8-1.1 28.2-.8 39 1.4 77.9-4.2 116.5-9.8 8.6-1.2 17.3-2.5 25.4-5.7"/><path stroke="#F6A694" stroke-width="2.5" d="M32.5 148.7c25.7-10.9 46.6-31.4 72.6-41.3 1.8-.7 3.6-1.3 5.5-1.2 2.1.2 4 1.2 5.8 2.3l19.2 11.1c1.8 1 3.6 2.1 5.7 2.2 2 .1 3.9-.7 5.6-1.6 5.5-2.8 10.4-6.6 14.4-11.2 2.7-3 5.5-6.7 9.5-6.8 1.7-.1 3.3.5 4.9 1.1 24.8 9.3 49.7 18.6 74.5 27.9 2.7 1 15.9 4.1 16.6 6.9.8 3.4-7.6 8.7-9.7 10.5-9.5 8-19.6 15.2-30.2 21.6-11.4 6.9-23.4 12.8-35.7 17.8-9.6 3.9-19.6 7.3-29.9 8.2-10.6.9-21.2-.9-31.6-3.2-30.2-6.6-59.6-17.1-90.2-21.7 6.5-2.5 10.6-3.8 17.1-6.3 5.5-2.1 11-4.3 16.7-5.4 9.3-1.9 18.8-1.1 28.2-.8 39 1.4 77.9-4.2 116.5-9.8 8.6-1.2 17.3-2.5 25.4-5.7"/><path stroke="#FBC8BA" d="M32.5 148.7c25.7-10.9 46.6-31.4 72.6-41.3 1.8-.7 3.6-1.3 5.5-1.2 2.1.2 4 1.2 5.8 2.3l19.2 11.1c1.8 1 3.6 2.1 5.7 2.2 2 .1 3.9-.7 5.6-1.6 5.5-2.8 10.4-6.6 14.4-11.2 2.7-3 5.5-6.7 9.5-6.8 1.7-.1 3.3.5 4.9 1.1 24.8 9.3 49.7 18.6 74.5 27.9 2.7 1 15.9 4.1 16.6 6.9.8 3.4-7.6 8.7-9.7 10.5-9.5 8-19.6 15.2-30.2 21.6-11.4 6.9-23.4 12.8-35.7 17.8-9.6 3.9-19.6 7.3-29.9 8.2-10.6.9-21.2-.9-31.6-3.2-30.2-6.6-59.6-17.1-90.2-21.7 6.5-2.5 10.6-3.8 17.1-6.3 5.5-2.1 11-4.3 16.7-5.4 9.3-1.9 18.8-1.1 28.2-.8 39 1.4 77.9-4.2 116.5-9.8 8.6-1.2 17.3-2.5 25.4-5.7"/></g><g opacity=".2"><path fill="#EA2E3C" d="M43.9 168.1c15.7-6.8 29.6-16.9 43.9-26.1 7-4.5 14.2-8.8 21.8-12.3.7-.3 4-1.9 1.1-.5-2.6 1.3-.1.1.4-.1.6-.2 2.1-.5 2.7-.9h-7.6c-.8-.4-1.7-.7-2.5-1.1 1-.2 4.3 2.5 5.4 3.1l7.2 4.2c11 6.4 22.2 13 35.3 8.1 10.3-3.8 19.3-10.5 26.5-18.7.6-.7 1.3-1.3 1.9-2.1 1.2-1.4 2.8-1.3-1.5.9-1.3.3-2.6.6-3.9 1-1.7.9-3.4 1.2-5.2.8-.4 0-.9-.1-1.3-.1.8.3 1.7.6 2.5.9 5 1.8 9.9 3.7 14.9 5.6 9.3 3.5 18.6 7 28 10.5 10.3 3.9 20.5 8 31 11.6 2.4.8 4.8 1.4 7.2 2.2 1.4.4 2.8 1.1 4.2 1.4-5.8-1.5-4.2-2-2.7-1.1.2.1.5.3.7.4-2.7-1.6-4.8-3.8-6.5-6.5-1-3.8-2-7.6-3.1-11.4-.2-3 2.1-8.2 3.7-10.6 2-3 1.2-1.3.4-.7-.9.7-2 1.5-2.7 2.4 3.7-4.3 2.6-2 .8-.7-2.3 1.7-4.6 3.5-6.8 5.4-1.4 1.2-2.8 2.6-4.3 3.5 3.3-2 0 0-1.4 1-3.5 2.6-7 5.1-10.7 7.4-6.6 4.4-13.5 8.4-20.5 12.1-3.2 1.7-6.5 3.3-9.8 4.8-1.6.8-3.3 1.5-4.9 2.3-.8.4-1.7.7-2.5 1.1-3.1 1.4 5-2-.5.2-7.1 2.8-14.3 5.5-21.8 7-1.1.2-4.3 0-1.5.4 2.5.4.2 0-.6 0-1.9.1-3.7.2-5.6.2-1.9 0-3.7-.1-5.6-.2-.9-.1-1.9-.2-2.8-.2-3.4-.2 3.7.7.4.1-16.2-2.7-32-7.1-47.8-11.4-18-4.9-36-9.7-54.4-12.6v43.4c7.3-2.8 14.7-5.5 22.1-8.2 3.9-1.4 7.7-2.6 11.7-3.5 5.7-1.4-4.4 0 1.5-.2 2.5-.1 5-.2 7.5-.2 17.5.1 34.7.9 52.2-.3 18.9-1.2 37.7-3.6 56.5-6.1 17.3-2.3 36-3.3 52.5-9.5 11-4.1 19.7-15.4 15.7-27.7-3.5-10.7-15.9-20.2-27.7-15.7-8.2 3.1-16.8 4.5-25.4 5.7-4.5.6-9 1.3-13.5 1.9-1.9.3-3.9.5-5.8.8-1 .1-9.3 1.3-3.7.5-17.4 2.4-34.9 4.3-52.4 5.3-17.4 1-34.7-.4-52 .1-18.1.5-34.4 7.4-51 13.7-9 3.4-17 11.2-16.5 21.7.4 9.1 6.6 20.2 16.5 21.7 19.4 3 38.3 8.2 57.1 13.3 20 5.4 40.5 11.5 61.3 12.5 22 1 42.7-7.4 62.2-16.5 18.5-8.6 35.5-19.5 51.6-32 1.7-1.3 3.4-2.7 5.1-4.1.7-.6 1.5-1.1 2.1-1.8-4.5 4.4-4.2 3.2-2.7 2.1 3.6-2.7 7.6-5.3 10.7-8.7 11.4-12.5 10.8-31.2-4.2-40.6-5.7-3.6-12.6-5.2-18.9-7.2-8.5-2.6-16.7-6.2-25-9.3-9.6-3.6-19.3-7.2-28.9-10.8-4.7-1.7-9.3-3.5-14-5.2-6-2.2-11.9-5-18.4-5-8.4.1-15.2 3-21.5 8.4-3 2.6-5.4 5.8-8.2 8.5-.4.3-2.3 2.2-2.5 2.2-.3-.1 3.6-2.3 1.2-1.1-.5.2-4.9 2.4-5.1 3 .6-2 9-1.2 10.2-.9 4.3 1.1 2.6 1.3 1.2.3-2-1.4-4.3-2.5-6.4-3.7-12.4-7.2-24.3-15.7-39.4-11.5-10.3 2.9-20.5 8.6-29.7 14.2C54.7 109 39.1 121.2 21.1 129c-10.8 5-14.1 21.7-8 31.1 7.2 11.2 19.2 13.1 30.8 8z"/><path fill="#EA2E3C" d="M43.9 168.1c15.7-6.8 29.6-16.9 43.9-26.1 7-4.5 14.2-8.8 21.8-12.3.7-.3 4-1.9 1.1-.5-2.6 1.3-.1.1.4-.1.6-.2 2.1-.5 2.7-.9h-7.6c-.8-.4-1.7-.7-2.5-1.1 1-.2 4.3 2.5 5.4 3.1l7.2 4.2c11 6.4 22.2 13 35.3 8.1 10.3-3.8 19.3-10.5 26.5-18.7.6-.7 1.3-1.3 1.9-2.1 1.2-1.4 2.8-1.3-1.5.9-1.3.3-2.6.6-3.9 1-1.7.9-3.4 1.2-5.2.8-.4 0-.9-.1-1.3-.1.8.3 1.7.6 2.5.9 5 1.8 9.9 3.7 14.9 5.6 9.3 3.5 18.6 7 28 10.5 10.3 3.9 20.5 8 31 11.6 2.4.8 4.8 1.4 7.2 2.2 1.4.4 2.8 1.1 4.2 1.4-5.8-1.5-4.2-2-2.7-1.1.2.1.5.3.7.4-2.7-1.6-4.8-3.8-6.5-6.5-1-3.8-2-7.6-3.1-11.4-.2-3 2.1-8.2 3.7-10.6 2-3 1.2-1.3.4-.7-.9.7-2 1.5-2.7 2.4 3.7-4.3 2.6-2 .8-.7-2.3 1.7-4.6 3.5-6.8 5.4-1.4 1.2-2.8 2.6-4.3 3.5 3.3-2 0 0-1.4 1-3.5 2.6-7 5.1-10.7 7.4-6.6 4.4-13.5 8.4-20.5 12.1-3.2 1.7-6.5 3.3-9.8 4.8-1.6.8-3.3 1.5-4.9 2.3-.8.4-1.7.7-2.5 1.1-3.1 1.4 5-2-.5.2-7.1 2.8-14.3 5.5-21.8 7-1.1.2-4.3 0-1.5.4 2.5.4.2 0-.6 0-1.9.1-3.7.2-5.6.2-1.9 0-3.7-.1-5.6-.2-.9-.1-1.9-.2-2.8-.2-3.4-.2 3.7.7.4.1-16.2-2.7-32-7.1-47.8-11.4-18-4.9-36-9.7-54.4-12.6v43.4c7.3-2.8 14.7-5.5 22.1-8.2 3.9-1.4 7.7-2.6 11.7-3.5 5.7-1.4-4.4 0 1.5-.2 2.5-.1 5-.2 7.5-.2 17.5.1 34.7.9 52.2-.3 18.9-1.2 37.7-3.6 56.5-6.1 17.3-2.3 36-3.3 52.5-9.5 11-4.1 19.7-15.4 15.7-27.7-3.5-10.7-15.9-20.2-27.7-15.7-8.2 3.1-16.8 4.5-25.4 5.7-4.5.6-9 1.3-13.5 1.9-1.9.3-3.9.5-5.8.8-1 .1-9.3 1.3-3.7.5-17.4 2.4-34.9 4.3-52.4 5.3-17.4 1-34.7-.4-52 .1-18.1.5-34.4 7.4-51 13.7-9 3.4-17 11.2-16.5 21.7.4 9.1 6.6 20.2 16.5 21.7 19.4 3 38.3 8.2 57.1 13.3 20 5.4 40.5 11.5 61.3 12.5 22 1 42.7-7.4 62.2-16.5 18.5-8.6 35.5-19.5 51.6-32 1.7-1.3 3.4-2.7 5.1-4.1.7-.6 1.5-1.1 2.1-1.8-4.5 4.4-4.2 3.2-2.7 2.1 3.6-2.7 7.6-5.3 10.7-8.7 11.4-12.5 10.8-31.2-4.2-40.6-5.7-3.6-12.6-5.2-18.9-7.2-8.5-2.6-16.7-6.2-25-9.3-9.6-3.6-19.3-7.2-28.9-10.8-4.7-1.7-9.3-3.5-14-5.2-6-2.2-11.9-5-18.4-5-8.4.1-15.2 3-21.5 8.4-3 2.6-5.4 5.8-8.2 8.5-.4.3-2.3 2.2-2.5 2.2-.3-.1 3.6-2.3 1.2-1.1-.5.2-4.9 2.4-5.1 3 .6-2 9-1.2 10.2-.9 4.3 1.1 2.6 1.3 1.2.3-2-1.4-4.3-2.5-6.4-3.7-12.4-7.2-24.3-15.7-39.4-11.5-10.3 2.9-20.5 8.6-29.7 14.2C54.7 109 39.1 121.2 21.1 129c-10.8 5-14.1 21.7-8 31.1 7.2 11.2 19.2 13.1 30.8 8z"/><path fill="#EA2E3C" d="M43.9 168.1c15.7-6.8 29.6-16.9 43.9-26.1 7-4.5 14.2-8.8 21.8-12.3.7-.3 4-1.9 1.1-.5-2.6 1.3-.1.1.4-.1.6-.2 2.1-.5 2.7-.9h-7.6c-.8-.4-1.7-.7-2.5-1.1 1-.2 4.3 2.5 5.4 3.1l7.2 4.2c11 6.4 22.2 13 35.3 8.1 10.3-3.8 19.3-10.5 26.5-18.7.6-.7 1.3-1.3 1.9-2.1 1.2-1.4 2.8-1.3-1.5.9-1.3.3-2.6.6-3.9 1-1.7.9-3.4 1.2-5.2.8-.4 0-.9-.1-1.3-.1.8.3 1.7.6 2.5.9 5 1.8 9.9 3.7 14.9 5.6 9.3 3.5 18.6 7 28 10.5 10.3 3.9 20.5 8 31 11.6 2.4.8 4.8 1.4 7.2 2.2 1.4.4 2.8 1.1 4.2 1.4-5.8-1.5-4.2-2-2.7-1.1.2.1.5.3.7.4-2.7-1.6-4.8-3.8-6.5-6.5-1-3.8-2-7.6-3.1-11.4-.2-3 2.1-8.2 3.7-10.6 2-3 1.2-1.3.4-.7-.9.7-2 1.5-2.7 2.4 3.7-4.3 2.6-2 .8-.7-2.3 1.7-4.6 3.5-6.8 5.4-1.4 1.2-2.8 2.6-4.3 3.5 3.3-2 0 0-1.4 1-3.5 2.6-7 5.1-10.7 7.4-6.6 4.4-13.5 8.4-20.5 12.1-3.2 1.7-6.5 3.3-9.8 4.8-1.6.8-3.3 1.5-4.9 2.3-.8.4-1.7.7-2.5 1.1-3.1 1.4 5-2-.5.2-7.1 2.8-14.3 5.5-21.8 7-1.1.2-4.3 0-1.5.4 2.5.4.2 0-.6 0-1.9.1-3.7.2-5.6.2-1.9 0-3.7-.1-5.6-.2-.9-.1-1.9-.2-2.8-.2-3.4-.2 3.7.7.4.1-16.2-2.7-32-7.1-47.8-11.4-18-4.9-36-9.7-54.4-12.6v43.4c7.3-2.8 14.7-5.5 22.1-8.2 3.9-1.4 7.7-2.6 11.7-3.5 5.7-1.4-4.4 0 1.5-.2 2.5-.1 5-.2 7.5-.2 17.5.1 34.7.9 52.2-.3 18.9-1.2 37.7-3.6 56.5-6.1 17.3-2.3 36-3.3 52.5-9.5 11-4.1 19.7-15.4 15.7-27.7-3.5-10.7-15.9-20.2-27.7-15.7-8.2 3.1-16.8 4.5-25.4 5.7-4.5.6-9 1.3-13.5 1.9-1.9.3-3.9.5-5.8.8-1 .1-9.3 1.3-3.7.5-17.4 2.4-34.9 4.3-52.4 5.3-17.4 1-34.7-.4-52 .1-18.1.5-34.4 7.4-51 13.7-9 3.4-17 11.2-16.5 21.7.4 9.1 6.6 20.2 16.5 21.7 19.4 3 38.3 8.2 57.1 13.3 20 5.4 40.5 11.5 61.3 12.5 22 1 42.7-7.4 62.2-16.5 18.5-8.6 35.5-19.5 51.6-32 1.7-1.3 3.4-2.7 5.1-4.1.7-.6 1.5-1.1 2.1-1.8-4.5 4.4-4.2 3.2-2.7 2.1 3.6-2.7 7.6-5.3 10.7-8.7 11.4-12.5 10.8-31.2-4.2-40.6-5.7-3.6-12.6-5.2-18.9-7.2-8.5-2.6-16.7-6.2-25-9.3-9.6-3.6-19.3-7.2-28.9-10.8-4.7-1.7-9.3-3.5-14-5.2-6-2.2-11.9-5-18.4-5-8.4.1-15.2 3-21.5 8.4-3 2.6-5.4 5.8-8.2 8.5-.4.3-2.3 2.2-2.5 2.2-.3-.1 3.6-2.3 1.2-1.1-.5.2-4.9 2.4-5.1 3 .6-2 9-1.2 10.2-.9 4.3 1.1 2.6 1.3 1.2.3-2-1.4-4.3-2.5-6.4-3.7-12.4-7.2-24.3-15.7-39.4-11.5-10.3 2.9-20.5 8.6-29.7 14.2C54.7 109 39.1 121.2 21.1 129c-10.8 5-14.1 21.7-8 31.1 7.2 11.2 19.2 13.1 30.8 8z"/><path fill="#EA2E3C" d="M43.9 168.1c15.7-6.8 29.6-16.9 43.9-26.1 7-4.5 14.2-8.8 21.8-12.3.7-.3 4-1.9 1.1-.5-2.6 1.3-.1.1.4-.1.6-.2 2.1-.5 2.7-.9h-7.6c-.8-.4-1.7-.7-2.5-1.1 1-.2 4.3 2.5 5.4 3.1l7.2 4.2c11 6.4 22.2 13 35.3 8.1 10.3-3.8 19.3-10.5 26.5-18.7.6-.7 1.3-1.3 1.9-2.1 1.2-1.4 2.8-1.3-1.5.9-1.3.3-2.6.6-3.9 1-1.7.9-3.4 1.2-5.2.8-.4 0-.9-.1-1.3-.1.8.3 1.7.6 2.5.9 5 1.8 9.9 3.7 14.9 5.6 9.3 3.5 18.6 7 28 10.5 10.3 3.9 20.5 8 31 11.6 2.4.8 4.8 1.4 7.2 2.2 1.4.4 2.8 1.1 4.2 1.4-5.8-1.5-4.2-2-2.7-1.1.2.1.5.3.7.4-2.7-1.6-4.8-3.8-6.5-6.5-1-3.8-2-7.6-3.1-11.4-.2-3 2.1-8.2 3.7-10.6 2-3 1.2-1.3.4-.7-.9.7-2 1.5-2.7 2.4 3.7-4.3 2.6-2 .8-.7-2.3 1.7-4.6 3.5-6.8 5.4-1.4 1.2-2.8 2.6-4.3 3.5 3.3-2 0 0-1.4 1-3.5 2.6-7 5.1-10.7 7.4-6.6 4.4-13.5 8.4-20.5 12.1-3.2 1.7-6.5 3.3-9.8 4.8-1.6.8-3.3 1.5-4.9 2.3-.8.4-1.7.7-2.5 1.1-3.1 1.4 5-2-.5.2-7.1 2.8-14.3 5.5-21.8 7-1.1.2-4.3 0-1.5.4 2.5.4.2 0-.6 0-1.9.1-3.7.2-5.6.2-1.9 0-3.7-.1-5.6-.2-.9-.1-1.9-.2-2.8-.2-3.4-.2 3.7.7.4.1-16.2-2.7-32-7.1-47.8-11.4-18-4.9-36-9.7-54.4-12.6v43.4c7.3-2.8 14.7-5.5 22.1-8.2 3.9-1.4 7.7-2.6 11.7-3.5 5.7-1.4-4.4 0 1.5-.2 2.5-.1 5-.2 7.5-.2 17.5.1 34.7.9 52.2-.3 18.9-1.2 37.7-3.6 56.5-6.1 17.3-2.3 36-3.3 52.5-9.5 11-4.1 19.7-15.4 15.7-27.7-3.5-10.7-15.9-20.2-27.7-15.7-8.2 3.1-16.8 4.5-25.4 5.7-4.5.6-9 1.3-13.5 1.9-1.9.3-3.9.5-5.8.8-1 .1-9.3 1.3-3.7.5-17.4 2.4-34.9 4.3-52.4 5.3-17.4 1-34.7-.4-52 .1-18.1.5-34.4 7.4-51 13.7-9 3.4-17 11.2-16.5 21.7.4 9.1 6.6 20.2 16.5 21.7 19.4 3 38.3 8.2 57.1 13.3 20 5.4 40.5 11.5 61.3 12.5 22 1 42.7-7.4 62.2-16.5 18.5-8.6 35.5-19.5 51.6-32 1.7-1.3 3.4-2.7 5.1-4.1.7-.6 1.5-1.1 2.1-1.8-4.5 4.4-4.2 3.2-2.7 2.1 3.6-2.7 7.6-5.3 10.7-8.7 11.4-12.5 10.8-31.2-4.2-40.6-5.7-3.6-12.6-5.2-18.9-7.2-8.5-2.6-16.7-6.2-25-9.3-9.6-3.6-19.3-7.2-28.9-10.8-4.7-1.7-9.3-3.5-14-5.2-6-2.2-11.9-5-18.4-5-8.4.1-15.2 3-21.5 8.4-3 2.6-5.4 5.8-8.2 8.5-.4.3-2.3 2.2-2.5 2.2-.3-.1 3.6-2.3 1.2-1.1-.5.2-4.9 2.4-5.1 3 .6-2 9-1.2 10.2-.9 4.3 1.1 2.6 1.3 1.2.3-2-1.4-4.3-2.5-6.4-3.7-12.4-7.2-24.3-15.7-39.4-11.5-10.3 2.9-20.5 8.6-29.7 14.2C54.7 109 39.1 121.2 21.1 129c-10.8 5-14.1 21.7-8 31.1 7.2 11.2 19.2 13.1 30.8 8z"/><path fill="#EA2E3C" d="M43.9 168.1c15.7-6.8 29.6-16.9 43.9-26.1 7-4.5 14.2-8.8 21.8-12.3.7-.3 4-1.9 1.1-.5-2.6 1.3-.1.1.4-.1.6-.2 2.1-.5 2.7-.9h-7.6c-.8-.4-1.7-.7-2.5-1.1 1-.2 4.3 2.5 5.4 3.1l7.2 4.2c11 6.4 22.2 13 35.3 8.1 10.3-3.8 19.3-10.5 26.5-18.7.6-.7 1.3-1.3 1.9-2.1 1.2-1.4 2.8-1.3-1.5.9-1.3.3-2.6.6-3.9 1-1.7.9-3.4 1.2-5.2.8-.4 0-.9-.1-1.3-.1.8.3 1.7.6 2.5.9 5 1.8 9.9 3.7 14.9 5.6 9.3 3.5 18.6 7 28 10.5 10.3 3.9 20.5 8 31 11.6 2.4.8 4.8 1.4 7.2 2.2 1.4.4 2.8 1.1 4.2 1.4-5.8-1.5-4.2-2-2.7-1.1.2.1.5.3.7.4-2.7-1.6-4.8-3.8-6.5-6.5-1-3.8-2-7.6-3.1-11.4-.2-3 2.1-8.2 3.7-10.6 2-3 1.2-1.3.4-.7-.9.7-2 1.5-2.7 2.4 3.7-4.3 2.6-2 .8-.7-2.3 1.7-4.6 3.5-6.8 5.4-1.4 1.2-2.8 2.6-4.3 3.5 3.3-2 0 0-1.4 1-3.5 2.6-7 5.1-10.7 7.4-6.6 4.4-13.5 8.4-20.5 12.1-3.2 1.7-6.5 3.3-9.8 4.8-1.6.8-3.3 1.5-4.9 2.3-.8.4-1.7.7-2.5 1.1-3.1 1.4 5-2-.5.2-7.1 2.8-14.3 5.5-21.8 7-1.1.2-4.3 0-1.5.4 2.5.4.2 0-.6 0-1.9.1-3.7.2-5.6.2-1.9 0-3.7-.1-5.6-.2-.9-.1-1.9-.2-2.8-.2-3.4-.2 3.7.7.4.1-16.2-2.7-32-7.1-47.8-11.4-18-4.9-36-9.7-54.4-12.6v43.4c7.3-2.8 14.7-5.5 22.1-8.2 3.9-1.4 7.7-2.6 11.7-3.5 5.7-1.4-4.4 0 1.5-.2 2.5-.1 5-.2 7.5-.2 17.5.1 34.7.9 52.2-.3 18.9-1.2 37.7-3.6 56.5-6.1 17.3-2.3 36-3.3 52.5-9.5 11-4.1 19.7-15.4 15.7-27.7-3.5-10.7-15.9-20.2-27.7-15.7-8.2 3.1-16.8 4.5-25.4 5.7-4.5.6-9 1.3-13.5 1.9-1.9.3-3.9.5-5.8.8-1 .1-9.3 1.3-3.7.5-17.4 2.4-34.9 4.3-52.4 5.3-17.4 1-34.7-.4-52 .1-18.1.5-34.4 7.4-51 13.7-9 3.4-17 11.2-16.5 21.7.4 9.1 6.6 20.2 16.5 21.7 19.4 3 38.3 8.2 57.1 13.3 20 5.4 40.5 11.5 61.3 12.5 22 1 42.7-7.4 62.2-16.5 18.5-8.6 35.5-19.5 51.6-32 1.7-1.3 3.4-2.7 5.1-4.1.7-.6 1.5-1.1 2.1-1.8-4.5 4.4-4.2 3.2-2.7 2.1 3.6-2.7 7.6-5.3 10.7-8.7 11.4-12.5 10.8-31.2-4.2-40.6-5.7-3.6-12.6-5.2-18.9-7.2-8.5-2.6-16.7-6.2-25-9.3-9.6-3.6-19.3-7.2-28.9-10.8-4.7-1.7-9.3-3.5-14-5.2-6-2.2-11.9-5-18.4-5-8.4.1-15.2 3-21.5 8.4-3 2.6-5.4 5.8-8.2 8.5-.4.3-2.3 2.2-2.5 2.2-.3-.1 3.6-2.3 1.2-1.1-.5.2-4.9 2.4-5.1 3 .6-2 9-1.2 10.2-.9 4.3 1.1 2.6 1.3 1.2.3-2-1.4-4.3-2.5-6.4-3.7-12.4-7.2-24.3-15.7-39.4-11.5-10.3 2.9-20.5 8.6-29.7 14.2C54.7 109 39.1 121.2 21.1 129c-10.8 5-14.1 21.7-8 31.1 7.2 11.2 19.2 13.1 30.8 8z"/><path fill="#EA2E3C" d="M43.9 168.1c15.7-6.8 29.6-16.9 43.9-26.1 7-4.5 14.2-8.8 21.8-12.3.7-.3 4-1.9 1.1-.5-2.6 1.3-.1.1.4-.1.6-.2 2.1-.5 2.7-.9h-7.6c-.8-.4-1.7-.7-2.5-1.1 1-.2 4.3 2.5 5.4 3.1l7.2 4.2c11 6.4 22.2 13 35.3 8.1 10.3-3.8 19.3-10.5 26.5-18.7.6-.7 1.3-1.3 1.9-2.1 1.2-1.4 2.8-1.3-1.5.9-1.3.3-2.6.6-3.9 1-1.7.9-3.4 1.2-5.2.8-.4 0-.9-.1-1.3-.1.8.3 1.7.6 2.5.9 5 1.8 9.9 3.7 14.9 5.6 9.3 3.5 18.6 7 28 10.5 10.3 3.9 20.5 8 31 11.6 2.4.8 4.8 1.4 7.2 2.2 1.4.4 2.8 1.1 4.2 1.4-5.8-1.5-4.2-2-2.7-1.1.2.1.5.3.7.4-2.7-1.6-4.8-3.8-6.5-6.5-1-3.8-2-7.6-3.1-11.4-.2-3 2.1-8.2 3.7-10.6 2-3 1.2-1.3.4-.7-.9.7-2 1.5-2.7 2.4 3.7-4.3 2.6-2 .8-.7-2.3 1.7-4.6 3.5-6.8 5.4-1.4 1.2-2.8 2.6-4.3 3.5 3.3-2 0 0-1.4 1-3.5 2.6-7 5.1-10.7 7.4-6.6 4.4-13.5 8.4-20.5 12.1-3.2 1.7-6.5 3.3-9.8 4.8-1.6.8-3.3 1.5-4.9 2.3-.8.4-1.7.7-2.5 1.1-3.1 1.4 5-2-.5.2-7.1 2.8-14.3 5.5-21.8 7-1.1.2-4.3 0-1.5.4 2.5.4.2 0-.6 0-1.9.1-3.7.2-5.6.2-1.9 0-3.7-.1-5.6-.2-.9-.1-1.9-.2-2.8-.2-3.4-.2 3.7.7.4.1-16.2-2.7-32-7.1-47.8-11.4-18-4.9-36-9.7-54.4-12.6v43.4c7.3-2.8 14.7-5.5 22.1-8.2 3.9-1.4 7.7-2.6 11.7-3.5 5.7-1.4-4.4 0 1.5-.2 2.5-.1 5-.2 7.5-.2 17.5.1 34.7.9 52.2-.3 18.9-1.2 37.7-3.6 56.5-6.1 17.3-2.3 36-3.3 52.5-9.5 11-4.1 19.7-15.4 15.7-27.7-3.5-10.7-15.9-20.2-27.7-15.7-8.2 3.1-16.8 4.5-25.4 5.7-4.5.6-9 1.3-13.5 1.9-1.9.3-3.9.5-5.8.8-1 .1-9.3 1.3-3.7.5-17.4 2.4-34.9 4.3-52.4 5.3-17.4 1-34.7-.4-52 .1-18.1.5-34.4 7.4-51 13.7-9 3.4-17 11.2-16.5 21.7.4 9.1 6.6 20.2 16.5 21.7 19.4 3 38.3 8.2 57.1 13.3 20 5.4 40.5 11.5 61.3 12.5 22 1 42.7-7.4 62.2-16.5 18.5-8.6 35.5-19.5 51.6-32 1.7-1.3 3.4-2.7 5.1-4.1.7-.6 1.5-1.1 2.1-1.8-4.5 4.4-4.2 3.2-2.7 2.1 3.6-2.7 7.6-5.3 10.7-8.7 11.4-12.5 10.8-31.2-4.2-40.6-5.7-3.6-12.6-5.2-18.9-7.2-8.5-2.6-16.7-6.2-25-9.3-9.6-3.6-19.3-7.2-28.9-10.8-4.7-1.7-9.3-3.5-14-5.2-6-2.2-11.9-5-18.4-5-8.4.1-15.2 3-21.5 8.4-3 2.6-5.4 5.8-8.2 8.5-.4.3-2.3 2.2-2.5 2.2-.3-.1 3.6-2.3 1.2-1.1-.5.2-4.9 2.4-5.1 3 .6-2 9-1.2 10.2-.9 4.3 1.1 2.6 1.3 1.2.3-2-1.4-4.3-2.5-6.4-3.7-12.4-7.2-24.3-15.7-39.4-11.5-10.3 2.9-20.5 8.6-29.7 14.2C54.7 109 39.1 121.2 21.1 129c-10.8 5-14.1 21.7-8 31.1 7.2 11.2 19.2 13.1 30.8 8z"/><path fill="#EA2E3C" d="M43.9 168.1c15.7-6.8 29.6-16.9 43.9-26.1 7-4.5 14.2-8.8 21.8-12.3.7-.3 4-1.9 1.1-.5-2.6 1.3-.1.1.4-.1.6-.2 2.1-.5 2.7-.9h-7.6c-.8-.4-1.7-.7-2.5-1.1 1-.2 4.3 2.5 5.4 3.1l7.2 4.2c11 6.4 22.2 13 35.3 8.1 10.3-3.8 19.3-10.5 26.5-18.7.6-.7 1.3-1.3 1.9-2.1 1.2-1.4 2.8-1.3-1.5.9-1.3.3-2.6.6-3.9 1-1.7.9-3.4 1.2-5.2.8-.4 0-.9-.1-1.3-.1.8.3 1.7.6 2.5.9 5 1.8 9.9 3.7 14.9 5.6 9.3 3.5 18.6 7 28 10.5 10.3 3.9 20.5 8 31 11.6 2.4.8 4.8 1.4 7.2 2.2 1.4.4 2.8 1.1 4.2 1.4-5.8-1.5-4.2-2-2.7-1.1.2.1.5.3.7.4-2.7-1.6-4.8-3.8-6.5-6.5-1-3.8-2-7.6-3.1-11.4-.2-3 2.1-8.2 3.7-10.6 2-3 1.2-1.3.4-.7-.9.7-2 1.5-2.7 2.4 3.7-4.3 2.6-2 .8-.7-2.3 1.7-4.6 3.5-6.8 5.4-1.4 1.2-2.8 2.6-4.3 3.5 3.3-2 0 0-1.4 1-3.5 2.6-7 5.1-10.7 7.4-6.6 4.4-13.5 8.4-20.5 12.1-3.2 1.7-6.5 3.3-9.8 4.8-1.6.8-3.3 1.5-4.9 2.3-.8.4-1.7.7-2.5 1.1-3.1 1.4 5-2-.5.2-7.1 2.8-14.3 5.5-21.8 7-1.1.2-4.3 0-1.5.4 2.5.4.2 0-.6 0-1.9.1-3.7.2-5.6.2-1.9 0-3.7-.1-5.6-.2-.9-.1-1.9-.2-2.8-.2-3.4-.2 3.7.7.4.1-16.2-2.7-32-7.1-47.8-11.4-18-4.9-36-9.7-54.4-12.6v43.4c7.3-2.8 14.7-5.5 22.1-8.2 3.9-1.4 7.7-2.6 11.7-3.5 5.7-1.4-4.4 0 1.5-.2 2.5-.1 5-.2 7.5-.2 17.5.1 34.7.9 52.2-.3 18.9-1.2 37.7-3.6 56.5-6.1 17.3-2.3 36-3.3 52.5-9.5 11-4.1 19.7-15.4 15.7-27.7-3.5-10.7-15.9-20.2-27.7-15.7-8.2 3.1-16.8 4.5-25.4 5.7-4.5.6-9 1.3-13.5 1.9-1.9.3-3.9.5-5.8.8-1 .1-9.3 1.3-3.7.5-17.4 2.4-34.9 4.3-52.4 5.3-17.4 1-34.7-.4-52 .1-18.1.5-34.4 7.4-51 13.7-9 3.4-17 11.2-16.5 21.7.4 9.1 6.6 20.2 16.5 21.7 19.4 3 38.3 8.2 57.1 13.3 20 5.4 40.5 11.5 61.3 12.5 22 1 42.7-7.4 62.2-16.5 18.5-8.6 35.5-19.5 51.6-32 1.7-1.3 3.4-2.7 5.1-4.1.7-.6 1.5-1.1 2.1-1.8-4.5 4.4-4.2 3.2-2.7 2.1 3.6-2.7 7.6-5.3 10.7-8.7 11.4-12.5 10.8-31.2-4.2-40.6-5.7-3.6-12.6-5.2-18.9-7.2-8.5-2.6-16.7-6.2-25-9.3-9.6-3.6-19.3-7.2-28.9-10.8-4.7-1.7-9.3-3.5-14-5.2-6-2.2-11.9-5-18.4-5-8.4.1-15.2 3-21.5 8.4-3 2.6-5.4 5.8-8.2 8.5-.4.3-2.3 2.2-2.5 2.2-.3-.1 3.6-2.3 1.2-1.1-.5.2-4.9 2.4-5.1 3 .6-2 9-1.2 10.2-.9 4.3 1.1 2.6 1.3 1.2.3-2-1.4-4.3-2.5-6.4-3.7-12.4-7.2-24.3-15.7-39.4-11.5-10.3 2.9-20.5 8.6-29.7 14.2C54.7 109 39.1 121.2 21.1 129c-10.8 5-14.1 21.7-8 31.1 7.2 11.2 19.2 13.1 30.8 8z"/><path fill="#EA2E3C" d="M43.9 168.1c15.7-6.8 29.6-16.9 43.9-26.1 7-4.5 14.2-8.8 21.8-12.3.7-.3 4-1.9 1.1-.5-2.6 1.3-.1.1.4-.1.6-.2 2.1-.5 2.7-.9h-7.6c-.8-.4-1.7-.7-2.5-1.1 1-.2 4.3 2.5 5.4 3.1l7.2 4.2c11 6.4 22.2 13 35.3 8.1 10.3-3.8 19.3-10.5 26.5-18.7.6-.7 1.3-1.3 1.9-2.1 1.2-1.4 2.8-1.3-1.5.9-1.3.3-2.6.6-3.9 1-1.7.9-3.4 1.2-5.2.8-.4 0-.9-.1-1.3-.1.8.3 1.7.6 2.5.9 5 1.8 9.9 3.7 14.9 5.6 9.3 3.5 18.6 7 28 10.5 10.3 3.9 20.5 8 31 11.6 2.4.8 4.8 1.4 7.2 2.2 1.4.4 2.8 1.1 4.2 1.4-5.8-1.5-4.2-2-2.7-1.1.2.1.5.3.7.4-2.7-1.6-4.8-3.8-6.5-6.5-1-3.8-2-7.6-3.1-11.4-.2-3 2.1-8.2 3.7-10.6 2-3 1.2-1.3.4-.7-.9.7-2 1.5-2.7 2.4 3.7-4.3 2.6-2 .8-.7-2.3 1.7-4.6 3.5-6.8 5.4-1.4 1.2-2.8 2.6-4.3 3.5 3.3-2 0 0-1.4 1-3.5 2.6-7 5.1-10.7 7.4-6.6 4.4-13.5 8.4-20.5 12.1-3.2 1.7-6.5 3.3-9.8 4.8-1.6.8-3.3 1.5-4.9 2.3-.8.4-1.7.7-2.5 1.1-3.1 1.4 5-2-.5.2-7.1 2.8-14.3 5.5-21.8 7-1.1.2-4.3 0-1.5.4 2.5.4.2 0-.6 0-1.9.1-3.7.2-5.6.2-1.9 0-3.7-.1-5.6-.2-.9-.1-1.9-.2-2.8-.2-3.4-.2 3.7.7.4.1-16.2-2.7-32-7.1-47.8-11.4-18-4.9-36-9.7-54.4-12.6v43.4c7.3-2.8 14.7-5.5 22.1-8.2 3.9-1.4 7.7-2.6 11.7-3.5 5.7-1.4-4.4 0 1.5-.2 2.5-.1 5-.2 7.5-.2 17.5.1 34.7.9 52.2-.3 18.9-1.2 37.7-3.6 56.5-6.1 17.3-2.3 36-3.3 52.5-9.5 11-4.1 19.7-15.4 15.7-27.7-3.5-10.7-15.9-20.2-27.7-15.7-8.2 3.1-16.8 4.5-25.4 5.7-4.5.6-9 1.3-13.5 1.9-1.9.3-3.9.5-5.8.8-1 .1-9.3 1.3-3.7.5-17.4 2.4-34.9 4.3-52.4 5.3-17.4 1-34.7-.4-52 .1-18.1.5-34.4 7.4-51 13.7-9 3.4-17 11.2-16.5 21.7.4 9.1 6.6 20.2 16.5 21.7 19.4 3 38.3 8.2 57.1 13.3 20 5.4 40.5 11.5 61.3 12.5 22 1 42.7-7.4 62.2-16.5 18.5-8.6 35.5-19.5 51.6-32 1.7-1.3 3.4-2.7 5.1-4.1.7-.6 1.5-1.1 2.1-1.8-4.5 4.4-4.2 3.2-2.7 2.1 3.6-2.7 7.6-5.3 10.7-8.7 11.4-12.5 10.8-31.2-4.2-40.6-5.7-3.6-12.6-5.2-18.9-7.2-8.5-2.6-16.7-6.2-25-9.3-9.6-3.6-19.3-7.2-28.9-10.8-4.7-1.7-9.3-3.5-14-5.2-6-2.2-11.9-5-18.4-5-8.4.1-15.2 3-21.5 8.4-3 2.6-5.4 5.8-8.2 8.5-.4.3-2.3 2.2-2.5 2.2-.3-.1 3.6-2.3 1.2-1.1-.5.2-4.9 2.4-5.1 3 .6-2 9-1.2 10.2-.9 4.3 1.1 2.6 1.3 1.2.3-2-1.4-4.3-2.5-6.4-3.7-12.4-7.2-24.3-15.7-39.4-11.5-10.3 2.9-20.5 8.6-29.7 14.2C54.7 109 39.1 121.2 21.1 129c-10.8 5-14.1 21.7-8 31.1 7.2 11.2 19.2 13.1 30.8 8z"/></g><g opacity=".25" fill="none" stroke="#EA2E3C" stroke-width="8.5" stroke-linecap="round" stroke-linejoin="round"><path d="M32.5 148.7c25.7-10.9 46.6-31.4 72.6-41.3 1.8-.7 3.6-1.3 5.5-1.2 2.1.2 4 1.2 5.8 2.3l19.2 11.1c1.8 1 3.6 2.1 5.7 2.2 2 .1 3.9-.7 5.6-1.6 5.5-2.8 10.4-6.6 14.4-11.2 2.7-3 5.5-6.7 9.5-6.8 1.7-.1 3.3.5 4.9 1.1 24.8 9.3 49.7 18.6 74.5 27.9 2.7 1 15.9 4.1 16.6 6.9.8 3.4-7.6 8.7-9.7 10.5-9.5 8-19.6 15.2-30.2 21.6-11.4 6.9-23.4 12.8-35.7 17.8-9.6 3.9-19.6 7.3-29.9 8.2-10.6.9-21.2-.9-31.6-3.2-30.2-6.6-59.6-17.1-90.2-21.7 6.5-2.5 10.6-3.8 17.1-6.3 5.5-2.1 11-4.3 16.7-5.4 9.3-1.9 18.8-1.1 28.2-.8 39 1.4 77.9-4.2 116.5-9.8 8.6-1.2 17.3-2.5 25.4-5.7"/><path d="M32.5 148.7c25.7-10.9 46.6-31.4 72.6-41.3 1.8-.7 3.6-1.3 5.5-1.2 2.1.2 4 1.2 5.8 2.3l19.2 11.1c1.8 1 3.6 2.1 5.7 2.2 2 .1 3.9-.7 5.6-1.6 5.5-2.8 10.4-6.6 14.4-11.2 2.7-3 5.5-6.7 9.5-6.8 1.7-.1 3.3.5 4.9 1.1 24.8 9.3 49.7 18.6 74.5 27.9 2.7 1 15.9 4.1 16.6 6.9.8 3.4-7.6 8.7-9.7 10.5-9.5 8-19.6 15.2-30.2 21.6-11.4 6.9-23.4 12.8-35.7 17.8-9.6 3.9-19.6 7.3-29.9 8.2-10.6.9-21.2-.9-31.6-3.2-30.2-6.6-59.6-17.1-90.2-21.7 6.5-2.5 10.6-3.8 17.1-6.3 5.5-2.1 11-4.3 16.7-5.4 9.3-1.9 18.8-1.1 28.2-.8 39 1.4 77.9-4.2 116.5-9.8 8.6-1.2 17.3-2.5 25.4-5.7"/><path d="M32.5 148.7c25.7-10.9 46.6-31.4 72.6-41.3 1.8-.7 3.6-1.3 5.5-1.2 2.1.2 4 1.2 5.8 2.3l19.2 11.1c1.8 1 3.6 2.1 5.7 2.2 2 .1 3.9-.7 5.6-1.6 5.5-2.8 10.4-6.6 14.4-11.2 2.7-3 5.5-6.7 9.5-6.8 1.7-.1 3.3.5 4.9 1.1 24.8 9.3 49.7 18.6 74.5 27.9 2.7 1 15.9 4.1 16.6 6.9.8 3.4-7.6 8.7-9.7 10.5-9.5 8-19.6 15.2-30.2 21.6-11.4 6.9-23.4 12.8-35.7 17.8-9.6 3.9-19.6 7.3-29.9 8.2-10.6.9-21.2-.9-31.6-3.2-30.2-6.6-59.6-17.1-90.2-21.7 6.5-2.5 10.6-3.8 17.1-6.3 5.5-2.1 11-4.3 16.7-5.4 9.3-1.9 18.8-1.1 28.2-.8 39 1.4 77.9-4.2 116.5-9.8 8.6-1.2 17.3-2.5 25.4-5.7"/><path d="M32.5 148.7c25.7-10.9 46.6-31.4 72.6-41.3 1.8-.7 3.6-1.3 5.5-1.2 2.1.2 4 1.2 5.8 2.3l19.2 11.1c1.8 1 3.6 2.1 5.7 2.2 2 .1 3.9-.7 5.6-1.6 5.5-2.8 10.4-6.6 14.4-11.2 2.7-3 5.5-6.7 9.5-6.8 1.7-.1 3.3.5 4.9 1.1 24.8 9.3 49.7 18.6 74.5 27.9 2.7 1 15.9 4.1 16.6 6.9.8 3.4-7.6 8.7-9.7 10.5-9.5 8-19.6 15.2-30.2 21.6-11.4 6.9-23.4 12.8-35.7 17.8-9.6 3.9-19.6 7.3-29.9 8.2-10.6.9-21.2-.9-31.6-3.2-30.2-6.6-59.6-17.1-90.2-21.7 6.5-2.5 10.6-3.8 17.1-6.3 5.5-2.1 11-4.3 16.7-5.4 9.3-1.9 18.8-1.1 28.2-.8 39 1.4 77.9-4.2 116.5-9.8 8.6-1.2 17.3-2.5 25.4-5.7"/><path d="M32.5 148.7c25.7-10.9 46.6-31.4 72.6-41.3 1.8-.7 3.6-1.3 5.5-1.2 2.1.2 4 1.2 5.8 2.3l19.2 11.1c1.8 1 3.6 2.1 5.7 2.2 2 .1 3.9-.7 5.6-1.6 5.5-2.8 10.4-6.6 14.4-11.2 2.7-3 5.5-6.7 9.5-6.8 1.7-.1 3.3.5 4.9 1.1 24.8 9.3 49.7 18.6 74.5 27.9 2.7 1 15.9 4.1 16.6 6.9.8 3.4-7.6 8.7-9.7 10.5-9.5 8-19.6 15.2-30.2 21.6-11.4 6.9-23.4 12.8-35.7 17.8-9.6 3.9-19.6 7.3-29.9 8.2-10.6.9-21.2-.9-31.6-3.2-30.2-6.6-59.6-17.1-90.2-21.7 6.5-2.5 10.6-3.8 17.1-6.3 5.5-2.1 11-4.3 16.7-5.4 9.3-1.9 18.8-1.1 28.2-.8 39 1.4 77.9-4.2 116.5-9.8 8.6-1.2 17.3-2.5 25.4-5.7"/><path d="M32.5 148.7c25.7-10.9 46.6-31.4 72.6-41.3 1.8-.7 3.6-1.3 5.5-1.2 2.1.2 4 1.2 5.8 2.3l19.2 11.1c1.8 1 3.6 2.1 5.7 2.2 2 .1 3.9-.7 5.6-1.6 5.5-2.8 10.4-6.6 14.4-11.2 2.7-3 5.5-6.7 9.5-6.8 1.7-.1 3.3.5 4.9 1.1 24.8 9.3 49.7 18.6 74.5 27.9 2.7 1 15.9 4.1 16.6 6.9.8 3.4-7.6 8.7-9.7 10.5-9.5 8-19.6 15.2-30.2 21.6-11.4 6.9-23.4 12.8-35.7 17.8-9.6 3.9-19.6 7.3-29.9 8.2-10.6.9-21.2-.9-31.6-3.2-30.2-6.6-59.6-17.1-90.2-21.7 6.5-2.5 10.6-3.8 17.1-6.3 5.5-2.1 11-4.3 16.7-5.4 9.3-1.9 18.8-1.1 28.2-.8 39 1.4 77.9-4.2 116.5-9.8 8.6-1.2 17.3-2.5 25.4-5.7"/><path d="M32.5 148.7c25.7-10.9 46.6-31.4 72.6-41.3 1.8-.7 3.6-1.3 5.5-1.2 2.1.2 4 1.2 5.8 2.3l19.2 11.1c1.8 1 3.6 2.1 5.7 2.2 2 .1 3.9-.7 5.6-1.6 5.5-2.8 10.4-6.6 14.4-11.2 2.7-3 5.5-6.7 9.5-6.8 1.7-.1 3.3.5 4.9 1.1 24.8 9.3 49.7 18.6 74.5 27.9 2.7 1 15.9 4.1 16.6 6.9.8 3.4-7.6 8.7-9.7 10.5-9.5 8-19.6 15.2-30.2 21.6-11.4 6.9-23.4 12.8-35.7 17.8-9.6 3.9-19.6 7.3-29.9 8.2-10.6.9-21.2-.9-31.6-3.2-30.2-6.6-59.6-17.1-90.2-21.7 6.5-2.5 10.6-3.8 17.1-6.3 5.5-2.1 11-4.3 16.7-5.4 9.3-1.9 18.8-1.1 28.2-.8 39 1.4 77.9-4.2 116.5-9.8 8.6-1.2 17.3-2.5 25.4-5.7"/><path d="M32.5 148.7c25.7-10.9 46.6-31.4 72.6-41.3 1.8-.7 3.6-1.3 5.5-1.2 2.1.2 4 1.2 5.8 2.3l19.2 11.1c1.8 1 3.6 2.1 5.7 2.2 2 .1 3.9-.7 5.6-1.6 5.5-2.8 10.4-6.6 14.4-11.2 2.7-3 5.5-6.7 9.5-6.8 1.7-.1 3.3.5 4.9 1.1 24.8 9.3 49.7 18.6 74.5 27.9 2.7 1 15.9 4.1 16.6 6.9.8 3.4-7.6 8.7-9.7 10.5-9.5 8-19.6 15.2-30.2 21.6-11.4 6.9-23.4 12.8-35.7 17.8-9.6 3.9-19.6 7.3-29.9 8.2-10.6.9-21.2-.9-31.6-3.2-30.2-6.6-59.6-17.1-90.2-21.7 6.5-2.5 10.6-3.8 17.1-6.3 5.5-2.1 11-4.3 16.7-5.4 9.3-1.9 18.8-1.1 28.2-.8 39 1.4 77.9-4.2 116.5-9.8 8.6-1.2 17.3-2.5 25.4-5.7"/></g><g opacity=".3" fill="none" stroke="#EA2E3C" stroke-width="5" stroke-linecap="round" stroke-linejoin="round"><path d="M32.5 148.7c25.7-10.9 46.6-31.4 72.6-41.3 1.8-.7 3.6-1.3 5.5-1.2 2.1.2 4 1.2 5.8 2.3l19.2 11.1c1.8 1 3.6 2.1 5.7 2.2 2 .1 3.9-.7 5.6-1.6 5.5-2.8 10.4-6.6 14.4-11.2 2.7-3 5.5-6.7 9.5-6.8 1.7-.1 3.3.5 4.9 1.1 24.8 9.3 49.7 18.6 74.5 27.9 2.7 1 15.9 4.1 16.6 6.9.8 3.4-7.6 8.7-9.7 10.5-9.5 8-19.6 15.2-30.2 21.6-11.4 6.9-23.4 12.8-35.7 17.8-9.6 3.9-19.6 7.3-29.9 8.2-10.6.9-21.2-.9-31.6-3.2-30.2-6.6-59.6-17.1-90.2-21.7 6.5-2.5 10.6-3.8 17.1-6.3 5.5-2.1 11-4.3 16.7-5.4 9.3-1.9 18.8-1.1 28.2-.8 39 1.4 77.9-4.2 116.5-9.8 8.6-1.2 17.3-2.5 25.4-5.7"/><path d="M32.5 148.7c25.7-10.9 46.6-31.4 72.6-41.3 1.8-.7 3.6-1.3 5.5-1.2 2.1.2 4 1.2 5.8 2.3l19.2 11.1c1.8 1 3.6 2.1 5.7 2.2 2 .1 3.9-.7 5.6-1.6 5.5-2.8 10.4-6.6 14.4-11.2 2.7-3 5.5-6.7 9.5-6.8 1.7-.1 3.3.5 4.9 1.1 24.8 9.3 49.7 18.6 74.5 27.9 2.7 1 15.9 4.1 16.6 6.9.8 3.4-7.6 8.7-9.7 10.5-9.5 8-19.6 15.2-30.2 21.6-11.4 6.9-23.4 12.8-35.7 17.8-9.6 3.9-19.6 7.3-29.9 8.2-10.6.9-21.2-.9-31.6-3.2-30.2-6.6-59.6-17.1-90.2-21.7 6.5-2.5 10.6-3.8 17.1-6.3 5.5-2.1 11-4.3 16.7-5.4 9.3-1.9 18.8-1.1 28.2-.8 39 1.4 77.9-4.2 116.5-9.8 8.6-1.2 17.3-2.5 25.4-5.7"/><path d="M32.5 148.7c25.7-10.9 46.6-31.4 72.6-41.3 1.8-.7 3.6-1.3 5.5-1.2 2.1.2 4 1.2 5.8 2.3l19.2 11.1c1.8 1 3.6 2.1 5.7 2.2 2 .1 3.9-.7 5.6-1.6 5.5-2.8 10.4-6.6 14.4-11.2 2.7-3 5.5-6.7 9.5-6.8 1.7-.1 3.3.5 4.9 1.1 24.8 9.3 49.7 18.6 74.5 27.9 2.7 1 15.9 4.1 16.6 6.9.8 3.4-7.6 8.7-9.7 10.5-9.5 8-19.6 15.2-30.2 21.6-11.4 6.9-23.4 12.8-35.7 17.8-9.6 3.9-19.6 7.3-29.9 8.2-10.6.9-21.2-.9-31.6-3.2-30.2-6.6-59.6-17.1-90.2-21.7 6.5-2.5 10.6-3.8 17.1-6.3 5.5-2.1 11-4.3 16.7-5.4 9.3-1.9 18.8-1.1 28.2-.8 39 1.4 77.9-4.2 116.5-9.8 8.6-1.2 17.3-2.5 25.4-5.7"/><path d="M32.5 148.7c25.7-10.9 46.6-31.4 72.6-41.3 1.8-.7 3.6-1.3 5.5-1.2 2.1.2 4 1.2 5.8 2.3l19.2 11.1c1.8 1 3.6 2.1 5.7 2.2 2 .1 3.9-.7 5.6-1.6 5.5-2.8 10.4-6.6 14.4-11.2 2.7-3 5.5-6.7 9.5-6.8 1.7-.1 3.3.5 4.9 1.1 24.8 9.3 49.7 18.6 74.5 27.9 2.7 1 15.9 4.1 16.6 6.9.8 3.4-7.6 8.7-9.7 10.5-9.5 8-19.6 15.2-30.2 21.6-11.4 6.9-23.4 12.8-35.7 17.8-9.6 3.9-19.6 7.3-29.9 8.2-10.6.9-21.2-.9-31.6-3.2-30.2-6.6-59.6-17.1-90.2-21.7 6.5-2.5 10.6-3.8 17.1-6.3 5.5-2.1 11-4.3 16.7-5.4 9.3-1.9 18.8-1.1 28.2-.8 39 1.4 77.9-4.2 116.5-9.8 8.6-1.2 17.3-2.5 25.4-5.7"/><path d="M32.5 148.7c25.7-10.9 46.6-31.4 72.6-41.3 1.8-.7 3.6-1.3 5.5-1.2 2.1.2 4 1.2 5.8 2.3l19.2 11.1c1.8 1 3.6 2.1 5.7 2.2 2 .1 3.9-.7 5.6-1.6 5.5-2.8 10.4-6.6 14.4-11.2 2.7-3 5.5-6.7 9.5-6.8 1.7-.1 3.3.5 4.9 1.1 24.8 9.3 49.7 18.6 74.5 27.9 2.7 1 15.9 4.1 16.6 6.9.8 3.4-7.6 8.7-9.7 10.5-9.5 8-19.6 15.2-30.2 21.6-11.4 6.9-23.4 12.8-35.7 17.8-9.6 3.9-19.6 7.3-29.9 8.2-10.6.9-21.2-.9-31.6-3.2-30.2-6.6-59.6-17.1-90.2-21.7 6.5-2.5 10.6-3.8 17.1-6.3 5.5-2.1 11-4.3 16.7-5.4 9.3-1.9 18.8-1.1 28.2-.8 39 1.4 77.9-4.2 116.5-9.8 8.6-1.2 17.3-2.5 25.4-5.7"/><path d="M32.5 148.7c25.7-10.9 46.6-31.4 72.6-41.3 1.8-.7 3.6-1.3 5.5-1.2 2.1.2 4 1.2 5.8 2.3l19.2 11.1c1.8 1 3.6 2.1 5.7 2.2 2 .1 3.9-.7 5.6-1.6 5.5-2.8 10.4-6.6 14.4-11.2 2.7-3 5.5-6.7 9.5-6.8 1.7-.1 3.3.5 4.9 1.1 24.8 9.3 49.7 18.6 74.5 27.9 2.7 1 15.9 4.1 16.6 6.9.8 3.4-7.6 8.7-9.7 10.5-9.5 8-19.6 15.2-30.2 21.6-11.4 6.9-23.4 12.8-35.7 17.8-9.6 3.9-19.6 7.3-29.9 8.2-10.6.9-21.2-.9-31.6-3.2-30.2-6.6-59.6-17.1-90.2-21.7 6.5-2.5 10.6-3.8 17.1-6.3 5.5-2.1 11-4.3 16.7-5.4 9.3-1.9 18.8-1.1 28.2-.8 39 1.4 77.9-4.2 116.5-9.8 8.6-1.2 17.3-2.5 25.4-5.7"/><path d="M32.5 148.7c25.7-10.9 46.6-31.4 72.6-41.3 1.8-.7 3.6-1.3 5.5-1.2 2.1.2 4 1.2 5.8 2.3l19.2 11.1c1.8 1 3.6 2.1 5.7 2.2 2 .1 3.9-.7 5.6-1.6 5.5-2.8 10.4-6.6 14.4-11.2 2.7-3 5.5-6.7 9.5-6.8 1.7-.1 3.3.5 4.9 1.1 24.8 9.3 49.7 18.6 74.5 27.9 2.7 1 15.9 4.1 16.6 6.9.8 3.4-7.6 8.7-9.7 10.5-9.5 8-19.6 15.2-30.2 21.6-11.4 6.9-23.4 12.8-35.7 17.8-9.6 3.9-19.6 7.3-29.9 8.2-10.6.9-21.2-.9-31.6-3.2-30.2-6.6-59.6-17.1-90.2-21.7 6.5-2.5 10.6-3.8 17.1-6.3 5.5-2.1 11-4.3 16.7-5.4 9.3-1.9 18.8-1.1 28.2-.8 39 1.4 77.9-4.2 116.5-9.8 8.6-1.2 17.3-2.5 25.4-5.7"/><path d="M32.5 148.7c25.7-10.9 46.6-31.4 72.6-41.3 1.8-.7 3.6-1.3 5.5-1.2 2.1.2 4 1.2 5.8 2.3l19.2 11.1c1.8 1 3.6 2.1 5.7 2.2 2 .1 3.9-.7 5.6-1.6 5.5-2.8 10.4-6.6 14.4-11.2 2.7-3 5.5-6.7 9.5-6.8 1.7-.1 3.3.5 4.9 1.1 24.8 9.3 49.7 18.6 74.5 27.9 2.7 1 15.9 4.1 16.6 6.9.8 3.4-7.6 8.7-9.7 10.5-9.5 8-19.6 15.2-30.2 21.6-11.4 6.9-23.4 12.8-35.7 17.8-9.6 3.9-19.6 7.3-29.9 8.2-10.6.9-21.2-.9-31.6-3.2-30.2-6.6-59.6-17.1-90.2-21.7 6.5-2.5 10.6-3.8 17.1-6.3 5.5-2.1 11-4.3 16.7-5.4 9.3-1.9 18.8-1.1 28.2-.8 39 1.4 77.9-4.2 116.5-9.8 8.6-1.2 17.3-2.5 25.4-5.7"/></g><g fill="none" stroke="#EB4748" stroke-width="7" stroke-linecap="round" stroke-linejoin="round"><path d="M32.5 148.7c25.7-10.9 46.6-31.4 72.6-41.3 1.8-.7 3.6-1.3 5.5-1.2 2.1.2 4 1.2 5.8 2.3l19.2 11.1c1.8 1 3.6 2.1 5.7 2.2 2 .1 3.9-.7 5.6-1.6 5.5-2.8 10.4-6.6 14.4-11.2 2.7-3 5.5-6.7 9.5-6.8 1.7-.1 3.3.5 4.9 1.1 24.8 9.3 49.7 18.6 74.5 27.9 2.7 1 15.9 4.1 16.6 6.9.8 3.4-7.6 8.7-9.7 10.5-9.5 8-19.6 15.2-30.2 21.6-11.4 6.9-23.4 12.8-35.7 17.8-9.6 3.9-19.6 7.3-29.9 8.2-10.6.9-21.2-.9-31.6-3.2-30.2-6.6-59.6-17.1-90.2-21.7 6.5-2.5 10.6-3.8 17.1-6.3 5.5-2.1 11-4.3 16.7-5.4 9.3-1.9 18.8-1.1 28.2-.8 39 1.4 77.9-4.2 116.5-9.8 8.6-1.2 17.3-2.5 25.4-5.7"/><path d="M32.5 148.7c25.7-10.9 46.6-31.4 72.6-41.3 1.8-.7 3.6-1.3 5.5-1.2 2.1.2 4 1.2 5.8 2.3l19.2 11.1c1.8 1 3.6 2.1 5.7 2.2 2 .1 3.9-.7 5.6-1.6 5.5-2.8 10.4-6.6 14.4-11.2 2.7-3 5.5-6.7 9.5-6.8 1.7-.1 3.3.5 4.9 1.1 24.8 9.3 49.7 18.6 74.5 27.9 2.7 1 15.9 4.1 16.6 6.9.8 3.4-7.6 8.7-9.7 10.5-9.5 8-19.6 15.2-30.2 21.6-11.4 6.9-23.4 12.8-35.7 17.8-9.6 3.9-19.6 7.3-29.9 8.2-10.6.9-21.2-.9-31.6-3.2-30.2-6.6-59.6-17.1-90.2-21.7 6.5-2.5 10.6-3.8 17.1-6.3 5.5-2.1 11-4.3 16.7-5.4 9.3-1.9 18.8-1.1 28.2-.8 39 1.4 77.9-4.2 116.5-9.8 8.6-1.2 17.3-2.5 25.4-5.7"/><path d="M32.5 148.7c25.7-10.9 46.6-31.4 72.6-41.3 1.8-.7 3.6-1.3 5.5-1.2 2.1.2 4 1.2 5.8 2.3l19.2 11.1c1.8 1 3.6 2.1 5.7 2.2 2 .1 3.9-.7 5.6-1.6 5.5-2.8 10.4-6.6 14.4-11.2 2.7-3 5.5-6.7 9.5-6.8 1.7-.1 3.3.5 4.9 1.1 24.8 9.3 49.7 18.6 74.5 27.9 2.7 1 15.9 4.1 16.6 6.9.8 3.4-7.6 8.7-9.7 10.5-9.5 8-19.6 15.2-30.2 21.6-11.4 6.9-23.4 12.8-35.7 17.8-9.6 3.9-19.6 7.3-29.9 8.2-10.6.9-21.2-.9-31.6-3.2-30.2-6.6-59.6-17.1-90.2-21.7 6.5-2.5 10.6-3.8 17.1-6.3 5.5-2.1 11-4.3 16.7-5.4 9.3-1.9 18.8-1.1 28.2-.8 39 1.4 77.9-4.2 116.5-9.8 8.6-1.2 17.3-2.5 25.4-5.7"/><path d="M32.5 148.7c25.7-10.9 46.6-31.4 72.6-41.3 1.8-.7 3.6-1.3 5.5-1.2 2.1.2 4 1.2 5.8 2.3l19.2 11.1c1.8 1 3.6 2.1 5.7 2.2 2 .1 3.9-.7 5.6-1.6 5.5-2.8 10.4-6.6 14.4-11.2 2.7-3 5.5-6.7 9.5-6.8 1.7-.1 3.3.5 4.9 1.1 24.8 9.3 49.7 18.6 74.5 27.9 2.7 1 15.9 4.1 16.6 6.9.8 3.4-7.6 8.7-9.7 10.5-9.5 8-19.6 15.2-30.2 21.6-11.4 6.9-23.4 12.8-35.7 17.8-9.6 3.9-19.6 7.3-29.9 8.2-10.6.9-21.2-.9-31.6-3.2-30.2-6.6-59.6-17.1-90.2-21.7 6.5-2.5 10.6-3.8 17.1-6.3 5.5-2.1 11-4.3 16.7-5.4 9.3-1.9 18.8-1.1 28.2-.8 39 1.4 77.9-4.2 116.5-9.8 8.6-1.2 17.3-2.5 25.4-5.7"/><path d="M32.5 148.7c25.7-10.9 46.6-31.4 72.6-41.3 1.8-.7 3.6-1.3 5.5-1.2 2.1.2 4 1.2 5.8 2.3l19.2 11.1c1.8 1 3.6 2.1 5.7 2.2 2 .1 3.9-.7 5.6-1.6 5.5-2.8 10.4-6.6 14.4-11.2 2.7-3 5.5-6.7 9.5-6.8 1.7-.1 3.3.5 4.9 1.1 24.8 9.3 49.7 18.6 74.5 27.9 2.7 1 15.9 4.1 16.6 6.9.8 3.4-7.6 8.7-9.7 10.5-9.5 8-19.6 15.2-30.2 21.6-11.4 6.9-23.4 12.8-35.7 17.8-9.6 3.9-19.6 7.3-29.9 8.2-10.6.9-21.2-.9-31.6-3.2-30.2-6.6-59.6-17.1-90.2-21.7 6.5-2.5 10.6-3.8 17.1-6.3 5.5-2.1 11-4.3 16.7-5.4 9.3-1.9 18.8-1.1 28.2-.8 39 1.4 77.9-4.2 116.5-9.8 8.6-1.2 17.3-2.5 25.4-5.7"/><path d="M32.5 148.7c25.7-10.9 46.6-31.4 72.6-41.3 1.8-.7 3.6-1.3 5.5-1.2 2.1.2 4 1.2 5.8 2.3l19.2 11.1c1.8 1 3.6 2.1 5.7 2.2 2 .1 3.9-.7 5.6-1.6 5.5-2.8 10.4-6.6 14.4-11.2 2.7-3 5.5-6.7 9.5-6.8 1.7-.1 3.3.5 4.9 1.1 24.8 9.3 49.7 18.6 74.5 27.9 2.7 1 15.9 4.1 16.6 6.9.8 3.4-7.6 8.7-9.7 10.5-9.5 8-19.6 15.2-30.2 21.6-11.4 6.9-23.4 12.8-35.7 17.8-9.6 3.9-19.6 7.3-29.9 8.2-10.6.9-21.2-.9-31.6-3.2-30.2-6.6-59.6-17.1-90.2-21.7 6.5-2.5 10.6-3.8 17.1-6.3 5.5-2.1 11-4.3 16.7-5.4 9.3-1.9 18.8-1.1 28.2-.8 39 1.4 77.9-4.2 116.5-9.8 8.6-1.2 17.3-2.5 25.4-5.7"/><path d="M32.5 148.7c25.7-10.9 46.6-31.4 72.6-41.3 1.8-.7 3.6-1.3 5.5-1.2 2.1.2 4 1.2 5.8 2.3l19.2 11.1c1.8 1 3.6 2.1 5.7 2.2 2 .1 3.9-.7 5.6-1.6 5.5-2.8 10.4-6.6 14.4-11.2 2.7-3 5.5-6.7 9.5-6.8 1.7-.1 3.3.5 4.9 1.1 24.8 9.3 49.7 18.6 74.5 27.9 2.7 1 15.9 4.1 16.6 6.9.8 3.4-7.6 8.7-9.7 10.5-9.5 8-19.6 15.2-30.2 21.6-11.4 6.9-23.4 12.8-35.7 17.8-9.6 3.9-19.6 7.3-29.9 8.2-10.6.9-21.2-.9-31.6-3.2-30.2-6.6-59.6-17.1-90.2-21.7 6.5-2.5 10.6-3.8 17.1-6.3 5.5-2.1 11-4.3 16.7-5.4 9.3-1.9 18.8-1.1 28.2-.8 39 1.4 77.9-4.2 116.5-9.8 8.6-1.2 17.3-2.5 25.4-5.7"/><path d="M32.5 148.7c25.7-10.9 46.6-31.4 72.6-41.3 1.8-.7 3.6-1.3 5.5-1.2 2.1.2 4 1.2 5.8 2.3l19.2 11.1c1.8 1 3.6 2.1 5.7 2.2 2 .1 3.9-.7 5.6-1.6 5.5-2.8 10.4-6.6 14.4-11.2 2.7-3 5.5-6.7 9.5-6.8 1.7-.1 3.3.5 4.9 1.1 24.8 9.3 49.7 18.6 74.5 27.9 2.7 1 15.9 4.1 16.6 6.9.8 3.4-7.6 8.7-9.7 10.5-9.5 8-19.6 15.2-30.2 21.6-11.4 6.9-23.4 12.8-35.7 17.8-9.6 3.9-19.6 7.3-29.9 8.2-10.6.9-21.2-.9-31.6-3.2-30.2-6.6-59.6-17.1-90.2-21.7 6.5-2.5 10.6-3.8 17.1-6.3 5.5-2.1 11-4.3 16.7-5.4 9.3-1.9 18.8-1.1 28.2-.8 39 1.4 77.9-4.2 116.5-9.8 8.6-1.2 17.3-2.5 25.4-5.7"/></g><g fill="none" stroke="#F07062" stroke-width="5.5" stroke-linecap="round" stroke-linejoin="round"><path d="M32.5 148.7c25.7-10.9 46.6-31.4 72.6-41.3 1.8-.7 3.6-1.3 5.5-1.2 2.1.2 4 1.2 5.8 2.3l19.2 11.1c1.8 1 3.6 2.1 5.7 2.2 2 .1 3.9-.7 5.6-1.6 5.5-2.8 10.4-6.6 14.4-11.2 2.7-3 5.5-6.7 9.5-6.8 1.7-.1 3.3.5 4.9 1.1 24.8 9.3 49.7 18.6 74.5 27.9 2.7 1 15.9 4.1 16.6 6.9.8 3.4-7.6 8.7-9.7 10.5-9.5 8-19.6 15.2-30.2 21.6-11.4 6.9-23.4 12.8-35.7 17.8-9.6 3.9-19.6 7.3-29.9 8.2-10.6.9-21.2-.9-31.6-3.2-30.2-6.6-59.6-17.1-90.2-21.7 6.5-2.5 10.6-3.8 17.1-6.3 5.5-2.1 11-4.3 16.7-5.4 9.3-1.9 18.8-1.1 28.2-.8 39 1.4 77.9-4.2 116.5-9.8 8.6-1.2 17.3-2.5 25.4-5.7"/><path d="M32.5 148.7c25.7-10.9 46.6-31.4 72.6-41.3 1.8-.7 3.6-1.3 5.5-1.2 2.1.2 4 1.2 5.8 2.3l19.2 11.1c1.8 1 3.6 2.1 5.7 2.2 2 .1 3.9-.7 5.6-1.6 5.5-2.8 10.4-6.6 14.4-11.2 2.7-3 5.5-6.7 9.5-6.8 1.7-.1 3.3.5 4.9 1.1 24.8 9.3 49.7 18.6 74.5 27.9 2.7 1 15.9 4.1 16.6 6.9.8 3.4-7.6 8.7-9.7 10.5-9.5 8-19.6 15.2-30.2 21.6-11.4 6.9-23.4 12.8-35.7 17.8-9.6 3.9-19.6 7.3-29.9 8.2-10.6.9-21.2-.9-31.6-3.2-30.2-6.6-59.6-17.1-90.2-21.7 6.5-2.5 10.6-3.8 17.1-6.3 5.5-2.1 11-4.3 16.7-5.4 9.3-1.9 18.8-1.1 28.2-.8 39 1.4 77.9-4.2 116.5-9.8 8.6-1.2 17.3-2.5 25.4-5.7"/><path d="M32.5 148.7c25.7-10.9 46.6-31.4 72.6-41.3 1.8-.7 3.6-1.3 5.5-1.2 2.1.2 4 1.2 5.8 2.3l19.2 11.1c1.8 1 3.6 2.1 5.7 2.2 2 .1 3.9-.7 5.6-1.6 5.5-2.8 10.4-6.6 14.4-11.2 2.7-3 5.5-6.7 9.5-6.8 1.7-.1 3.3.5 4.9 1.1 24.8 9.3 49.7 18.6 74.5 27.9 2.7 1 15.9 4.1 16.6 6.9.8 3.4-7.6 8.7-9.7 10.5-9.5 8-19.6 15.2-30.2 21.6-11.4 6.9-23.4 12.8-35.7 17.8-9.6 3.9-19.6 7.3-29.9 8.2-10.6.9-21.2-.9-31.6-3.2-30.2-6.6-59.6-17.1-90.2-21.7 6.5-2.5 10.6-3.8 17.1-6.3 5.5-2.1 11-4.3 16.7-5.4 9.3-1.9 18.8-1.1 28.2-.8 39 1.4 77.9-4.2 116.5-9.8 8.6-1.2 17.3-2.5 25.4-5.7"/><path d="M32.5 148.7c25.7-10.9 46.6-31.4 72.6-41.3 1.8-.7 3.6-1.3 5.5-1.2 2.1.2 4 1.2 5.8 2.3l19.2 11.1c1.8 1 3.6 2.1 5.7 2.2 2 .1 3.9-.7 5.6-1.6 5.5-2.8 10.4-6.6 14.4-11.2 2.7-3 5.5-6.7 9.5-6.8 1.7-.1 3.3.5 4.9 1.1 24.8 9.3 49.7 18.6 74.5 27.9 2.7 1 15.9 4.1 16.6 6.9.8 3.4-7.6 8.7-9.7 10.5-9.5 8-19.6 15.2-30.2 21.6-11.4 6.9-23.4 12.8-35.7 17.8-9.6 3.9-19.6 7.3-29.9 8.2-10.6.9-21.2-.9-31.6-3.2-30.2-6.6-59.6-17.1-90.2-21.7 6.5-2.5 10.6-3.8 17.1-6.3 5.5-2.1 11-4.3 16.7-5.4 9.3-1.9 18.8-1.1 28.2-.8 39 1.4 77.9-4.2 116.5-9.8 8.6-1.2 17.3-2.5 25.4-5.7"/><path d="M32.5 148.7c25.7-10.9 46.6-31.4 72.6-41.3 1.8-.7 3.6-1.3 5.5-1.2 2.1.2 4 1.2 5.8 2.3l19.2 11.1c1.8 1 3.6 2.1 5.7 2.2 2 .1 3.9-.7 5.6-1.6 5.5-2.8 10.4-6.6 14.4-11.2 2.7-3 5.5-6.7 9.5-6.8 1.7-.1 3.3.5 4.9 1.1 24.8 9.3 49.7 18.6 74.5 27.9 2.7 1 15.9 4.1 16.6 6.9.8 3.4-7.6 8.7-9.7 10.5-9.5 8-19.6 15.2-30.2 21.6-11.4 6.9-23.4 12.8-35.7 17.8-9.6 3.9-19.6 7.3-29.9 8.2-10.6.9-21.2-.9-31.6-3.2-30.2-6.6-59.6-17.1-90.2-21.7 6.5-2.5 10.6-3.8 17.1-6.3 5.5-2.1 11-4.3 16.7-5.4 9.3-1.9 18.8-1.1 28.2-.8 39 1.4 77.9-4.2 116.5-9.8 8.6-1.2 17.3-2.5 25.4-5.7"/><path d="M32.5 148.7c25.7-10.9 46.6-31.4 72.6-41.3 1.8-.7 3.6-1.3 5.5-1.2 2.1.2 4 1.2 5.8 2.3l19.2 11.1c1.8 1 3.6 2.1 5.7 2.2 2 .1 3.9-.7 5.6-1.6 5.5-2.8 10.4-6.6 14.4-11.2 2.7-3 5.5-6.7 9.5-6.8 1.7-.1 3.3.5 4.9 1.1 24.8 9.3 49.7 18.6 74.5 27.9 2.7 1 15.9 4.1 16.6 6.9.8 3.4-7.6 8.7-9.7 10.5-9.5 8-19.6 15.2-30.2 21.6-11.4 6.9-23.4 12.8-35.7 17.8-9.6 3.9-19.6 7.3-29.9 8.2-10.6.9-21.2-.9-31.6-3.2-30.2-6.6-59.6-17.1-90.2-21.7 6.5-2.5 10.6-3.8 17.1-6.3 5.5-2.1 11-4.3 16.7-5.4 9.3-1.9 18.8-1.1 28.2-.8 39 1.4 77.9-4.2 116.5-9.8 8.6-1.2 17.3-2.5 25.4-5.7"/><path d="M32.5 148.7c25.7-10.9 46.6-31.4 72.6-41.3 1.8-.7 3.6-1.3 5.5-1.2 2.1.2 4 1.2 5.8 2.3l19.2 11.1c1.8 1 3.6 2.1 5.7 2.2 2 .1 3.9-.7 5.6-1.6 5.5-2.8 10.4-6.6 14.4-11.2 2.7-3 5.5-6.7 9.5-6.8 1.7-.1 3.3.5 4.9 1.1 24.8 9.3 49.7 18.6 74.5 27.9 2.7 1 15.9 4.1 16.6 6.9.8 3.4-7.6 8.7-9.7 10.5-9.5 8-19.6 15.2-30.2 21.6-11.4 6.9-23.4 12.8-35.7 17.8-9.6 3.9-19.6 7.3-29.9 8.2-10.6.9-21.2-.9-31.6-3.2-30.2-6.6-59.6-17.1-90.2-21.7 6.5-2.5 10.6-3.8 17.1-6.3 5.5-2.1 11-4.3 16.7-5.4 9.3-1.9 18.8-1.1 28.2-.8 39 1.4 77.9-4.2 116.5-9.8 8.6-1.2 17.3-2.5 25.4-5.7"/><path d="M32.5 148.7c25.7-10.9 46.6-31.4 72.6-41.3 1.8-.7 3.6-1.3 5.5-1.2 2.1.2 4 1.2 5.8 2.3l19.2 11.1c1.8 1 3.6 2.1 5.7 2.2 2 .1 3.9-.7 5.6-1.6 5.5-2.8 10.4-6.6 14.4-11.2 2.7-3 5.5-6.7 9.5-6.8 1.7-.1 3.3.5 4.9 1.1 24.8 9.3 49.7 18.6 74.5 27.9 2.7 1 15.9 4.1 16.6 6.9.8 3.4-7.6 8.7-9.7 10.5-9.5 8-19.6 15.2-30.2 21.6-11.4 6.9-23.4 12.8-35.7 17.8-9.6 3.9-19.6 7.3-29.9 8.2-10.6.9-21.2-.9-31.6-3.2-30.2-6.6-59.6-17.1-90.2-21.7 6.5-2.5 10.6-3.8 17.1-6.3 5.5-2.1 11-4.3 16.7-5.4 9.3-1.9 18.8-1.1 28.2-.8 39 1.4 77.9-4.2 116.5-9.8 8.6-1.2 17.3-2.5 25.4-5.7"/></g><g fill="none" stroke="#F48C7A" stroke-width="4" stroke-linecap="round" stroke-linejoin="round"><path d="M32.5 148.7c25.7-10.9 46.6-31.4 72.6-41.3 1.8-.7 3.6-1.3 5.5-1.2 2.1.2 4 1.2 5.8 2.3l19.2 11.1c1.8 1 3.6 2.1 5.7 2.2 2 .1 3.9-.7 5.6-1.6 5.5-2.8 10.4-6.6 14.4-11.2 2.7-3 5.5-6.7 9.5-6.8 1.7-.1 3.3.5 4.9 1.1 24.8 9.3 49.7 18.6 74.5 27.9 2.7 1 15.9 4.1 16.6 6.9.8 3.4-7.6 8.7-9.7 10.5-9.5 8-19.6 15.2-30.2 21.6-11.4 6.9-23.4 12.8-35.7 17.8-9.6 3.9-19.6 7.3-29.9 8.2-10.6.9-21.2-.9-31.6-3.2-30.2-6.6-59.6-17.1-90.2-21.7 6.5-2.5 10.6-3.8 17.1-6.3 5.5-2.1 11-4.3 16.7-5.4 9.3-1.9 18.8-1.1 28.2-.8 39 1.4 77.9-4.2 116.5-9.8 8.6-1.2 17.3-2.5 25.4-5.7"/><path d="M32.5 148.7c25.7-10.9 46.6-31.4 72.6-41.3 1.8-.7 3.6-1.3 5.5-1.2 2.1.2 4 1.2 5.8 2.3l19.2 11.1c1.8 1 3.6 2.1 5.7 2.2 2 .1 3.9-.7 5.6-1.6 5.5-2.8 10.4-6.6 14.4-11.2 2.7-3 5.5-6.7 9.5-6.8 1.7-.1 3.3.5 4.9 1.1 24.8 9.3 49.7 18.6 74.5 27.9 2.7 1 15.9 4.1 16.6 6.9.8 3.4-7.6 8.7-9.7 10.5-9.5 8-19.6 15.2-30.2 21.6-11.4 6.9-23.4 12.8-35.7 17.8-9.6 3.9-19.6 7.3-29.9 8.2-10.6.9-21.2-.9-31.6-3.2-30.2-6.6-59.6-17.1-90.2-21.7 6.5-2.5 10.6-3.8 17.1-6.3 5.5-2.1 11-4.3 16.7-5.4 9.3-1.9 18.8-1.1 28.2-.8 39 1.4 77.9-4.2 116.5-9.8 8.6-1.2 17.3-2.5 25.4-5.7"/><path d="M32.5 148.7c25.7-10.9 46.6-31.4 72.6-41.3 1.8-.7 3.6-1.3 5.5-1.2 2.1.2 4 1.2 5.8 2.3l19.2 11.1c1.8 1 3.6 2.1 5.7 2.2 2 .1 3.9-.7 5.6-1.6 5.5-2.8 10.4-6.6 14.4-11.2 2.7-3 5.5-6.7 9.5-6.8 1.7-.1 3.3.5 4.9 1.1 24.8 9.3 49.7 18.6 74.5 27.9 2.7 1 15.9 4.1 16.6 6.9.8 3.4-7.6 8.7-9.7 10.5-9.5 8-19.6 15.2-30.2 21.6-11.4 6.9-23.4 12.8-35.7 17.8-9.6 3.9-19.6 7.3-29.9 8.2-10.6.9-21.2-.9-31.6-3.2-30.2-6.6-59.6-17.1-90.2-21.7 6.5-2.5 10.6-3.8 17.1-6.3 5.5-2.1 11-4.3 16.7-5.4 9.3-1.9 18.8-1.1 28.2-.8 39 1.4 77.9-4.2 116.5-9.8 8.6-1.2 17.3-2.5 25.4-5.7"/><path d="M32.5 148.7c25.7-10.9 46.6-31.4 72.6-41.3 1.8-.7 3.6-1.3 5.5-1.2 2.1.2 4 1.2 5.8 2.3l19.2 11.1c1.8 1 3.6 2.1 5.7 2.2 2 .1 3.9-.7 5.6-1.6 5.5-2.8 10.4-6.6 14.4-11.2 2.7-3 5.5-6.7 9.5-6.8 1.7-.1 3.3.5 4.9 1.1 24.8 9.3 49.7 18.6 74.5 27.9 2.7 1 15.9 4.1 16.6 6.9.8 3.4-7.6 8.7-9.7 10.5-9.5 8-19.6 15.2-30.2 21.6-11.4 6.9-23.4 12.8-35.7 17.8-9.6 3.9-19.6 7.3-29.9 8.2-10.6.9-21.2-.9-31.6-3.2-30.2-6.6-59.6-17.1-90.2-21.7 6.5-2.5 10.6-3.8 17.1-6.3 5.5-2.1 11-4.3 16.7-5.4 9.3-1.9 18.8-1.1 28.2-.8 39 1.4 77.9-4.2 116.5-9.8 8.6-1.2 17.3-2.5 25.4-5.7"/><path d="M32.5 148.7c25.7-10.9 46.6-31.4 72.6-41.3 1.8-.7 3.6-1.3 5.5-1.2 2.1.2 4 1.2 5.8 2.3l19.2 11.1c1.8 1 3.6 2.1 5.7 2.2 2 .1 3.9-.7 5.6-1.6 5.5-2.8 10.4-6.6 14.4-11.2 2.7-3 5.5-6.7 9.5-6.8 1.7-.1 3.3.5 4.9 1.1 24.8 9.3 49.7 18.6 74.5 27.9 2.7 1 15.9 4.1 16.6 6.9.8 3.4-7.6 8.7-9.7 10.5-9.5 8-19.6 15.2-30.2 21.6-11.4 6.9-23.4 12.8-35.7 17.8-9.6 3.9-19.6 7.3-29.9 8.2-10.6.9-21.2-.9-31.6-3.2-30.2-6.6-59.6-17.1-90.2-21.7 6.5-2.5 10.6-3.8 17.1-6.3 5.5-2.1 11-4.3 16.7-5.4 9.3-1.9 18.8-1.1 28.2-.8 39 1.4 77.9-4.2 116.5-9.8 8.6-1.2 17.3-2.5 25.4-5.7"/><path d="M32.5 148.7c25.7-10.9 46.6-31.4 72.6-41.3 1.8-.7 3.6-1.3 5.5-1.2 2.1.2 4 1.2 5.8 2.3l19.2 11.1c1.8 1 3.6 2.1 5.7 2.2 2 .1 3.9-.7 5.6-1.6 5.5-2.8 10.4-6.6 14.4-11.2 2.7-3 5.5-6.7 9.5-6.8 1.7-.1 3.3.5 4.9 1.1 24.8 9.3 49.7 18.6 74.5 27.9 2.7 1 15.9 4.1 16.6 6.9.8 3.4-7.6 8.7-9.7 10.5-9.5 8-19.6 15.2-30.2 21.6-11.4 6.9-23.4 12.8-35.7 17.8-9.6 3.9-19.6 7.3-29.9 8.2-10.6.9-21.2-.9-31.6-3.2-30.2-6.6-59.6-17.1-90.2-21.7 6.5-2.5 10.6-3.8 17.1-6.3 5.5-2.1 11-4.3 16.7-5.4 9.3-1.9 18.8-1.1 28.2-.8 39 1.4 77.9-4.2 116.5-9.8 8.6-1.2 17.3-2.5 25.4-5.7"/><path d="M32.5 148.7c25.7-10.9 46.6-31.4 72.6-41.3 1.8-.7 3.6-1.3 5.5-1.2 2.1.2 4 1.2 5.8 2.3l19.2 11.1c1.8 1 3.6 2.1 5.7 2.2 2 .1 3.9-.7 5.6-1.6 5.5-2.8 10.4-6.6 14.4-11.2 2.7-3 5.5-6.7 9.5-6.8 1.7-.1 3.3.5 4.9 1.1 24.8 9.3 49.7 18.6 74.5 27.9 2.7 1 15.9 4.1 16.6 6.9.8 3.4-7.6 8.7-9.7 10.5-9.5 8-19.6 15.2-30.2 21.6-11.4 6.9-23.4 12.8-35.7 17.8-9.6 3.9-19.6 7.3-29.9 8.2-10.6.9-21.2-.9-31.6-3.2-30.2-6.6-59.6-17.1-90.2-21.7 6.5-2.5 10.6-3.8 17.1-6.3 5.5-2.1 11-4.3 16.7-5.4 9.3-1.9 18.8-1.1 28.2-.8 39 1.4 77.9-4.2 116.5-9.8 8.6-1.2 17.3-2.5 25.4-5.7"/><path d="M32.5 148.7c25.7-10.9 46.6-31.4 72.6-41.3 1.8-.7 3.6-1.3 5.5-1.2 2.1.2 4 1.2 5.8 2.3l19.2 11.1c1.8 1 3.6 2.1 5.7 2.2 2 .1 3.9-.7 5.6-1.6 5.5-2.8 10.4-6.6 14.4-11.2 2.7-3 5.5-6.7 9.5-6.8 1.7-.1 3.3.5 4.9 1.1 24.8 9.3 49.7 18.6 74.5 27.9 2.7 1 15.9 4.1 16.6 6.9.8 3.4-7.6 8.7-9.7 10.5-9.5 8-19.6 15.2-30.2 21.6-11.4 6.9-23.4 12.8-35.7 17.8-9.6 3.9-19.6 7.3-29.9 8.2-10.6.9-21.2-.9-31.6-3.2-30.2-6.6-59.6-17.1-90.2-21.7 6.5-2.5 10.6-3.8 17.1-6.3 5.5-2.1 11-4.3 16.7-5.4 9.3-1.9 18.8-1.1 28.2-.8 39 1.4 77.9-4.2 116.5-9.8 8.6-1.2 17.3-2.5 25.4-5.7"/></g><g fill="none" stroke="#F6A694" stroke-width="2.5" stroke-linecap="round" stroke-linejoin="round"><path d="M32.5 148.7c25.7-10.9 46.6-31.4 72.6-41.3 1.8-.7 3.6-1.3 5.5-1.2 2.1.2 4 1.2 5.8 2.3l19.2 11.1c1.8 1 3.6 2.1 5.7 2.2 2 .1 3.9-.7 5.6-1.6 5.5-2.8 10.4-6.6 14.4-11.2 2.7-3 5.5-6.7 9.5-6.8 1.7-.1 3.3.5 4.9 1.1 24.8 9.3 49.7 18.6 74.5 27.9 2.7 1 15.9 4.1 16.6 6.9.8 3.4-7.6 8.7-9.7 10.5-9.5 8-19.6 15.2-30.2 21.6-11.4 6.9-23.4 12.8-35.7 17.8-9.6 3.9-19.6 7.3-29.9 8.2-10.6.9-21.2-.9-31.6-3.2-30.2-6.6-59.6-17.1-90.2-21.7 6.5-2.5 10.6-3.8 17.1-6.3 5.5-2.1 11-4.3 16.7-5.4 9.3-1.9 18.8-1.1 28.2-.8 39 1.4 77.9-4.2 116.5-9.8 8.6-1.2 17.3-2.5 25.4-5.7"/><path d="M32.5 148.7c25.7-10.9 46.6-31.4 72.6-41.3 1.8-.7 3.6-1.3 5.5-1.2 2.1.2 4 1.2 5.8 2.3l19.2 11.1c1.8 1 3.6 2.1 5.7 2.2 2 .1 3.9-.7 5.6-1.6 5.5-2.8 10.4-6.6 14.4-11.2 2.7-3 5.5-6.7 9.5-6.8 1.7-.1 3.3.5 4.9 1.1 24.8 9.3 49.7 18.6 74.5 27.9 2.7 1 15.9 4.1 16.6 6.9.8 3.4-7.6 8.7-9.7 10.5-9.5 8-19.6 15.2-30.2 21.6-11.4 6.9-23.4 12.8-35.7 17.8-9.6 3.9-19.6 7.3-29.9 8.2-10.6.9-21.2-.9-31.6-3.2-30.2-6.6-59.6-17.1-90.2-21.7 6.5-2.5 10.6-3.8 17.1-6.3 5.5-2.1 11-4.3 16.7-5.4 9.3-1.9 18.8-1.1 28.2-.8 39 1.4 77.9-4.2 116.5-9.8 8.6-1.2 17.3-2.5 25.4-5.7"/><path d="M32.5 148.7c25.7-10.9 46.6-31.4 72.6-41.3 1.8-.7 3.6-1.3 5.5-1.2 2.1.2 4 1.2 5.8 2.3l19.2 11.1c1.8 1 3.6 2.1 5.7 2.2 2 .1 3.9-.7 5.6-1.6 5.5-2.8 10.4-6.6 14.4-11.2 2.7-3 5.5-6.7 9.5-6.8 1.7-.1 3.3.5 4.9 1.1 24.8 9.3 49.7 18.6 74.5 27.9 2.7 1 15.9 4.1 16.6 6.9.8 3.4-7.6 8.7-9.7 10.5-9.5 8-19.6 15.2-30.2 21.6-11.4 6.9-23.4 12.8-35.7 17.8-9.6 3.9-19.6 7.3-29.9 8.2-10.6.9-21.2-.9-31.6-3.2-30.2-6.6-59.6-17.1-90.2-21.7 6.5-2.5 10.6-3.8 17.1-6.3 5.5-2.1 11-4.3 16.7-5.4 9.3-1.9 18.8-1.1 28.2-.8 39 1.4 77.9-4.2 116.5-9.8 8.6-1.2 17.3-2.5 25.4-5.7"/><path d="M32.5 148.7c25.7-10.9 46.6-31.4 72.6-41.3 1.8-.7 3.6-1.3 5.5-1.2 2.1.2 4 1.2 5.8 2.3l19.2 11.1c1.8 1 3.6 2.1 5.7 2.2 2 .1 3.9-.7 5.6-1.6 5.5-2.8 10.4-6.6 14.4-11.2 2.7-3 5.5-6.7 9.5-6.8 1.7-.1 3.3.5 4.9 1.1 24.8 9.3 49.7 18.6 74.5 27.9 2.7 1 15.9 4.1 16.6 6.9.8 3.4-7.6 8.7-9.7 10.5-9.5 8-19.6 15.2-30.2 21.6-11.4 6.9-23.4 12.8-35.7 17.8-9.6 3.9-19.6 7.3-29.9 8.2-10.6.9-21.2-.9-31.6-3.2-30.2-6.6-59.6-17.1-90.2-21.7 6.5-2.5 10.6-3.8 17.1-6.3 5.5-2.1 11-4.3 16.7-5.4 9.3-1.9 18.8-1.1 28.2-.8 39 1.4 77.9-4.2 116.5-9.8 8.6-1.2 17.3-2.5 25.4-5.7"/><path d="M32.5 148.7c25.7-10.9 46.6-31.4 72.6-41.3 1.8-.7 3.6-1.3 5.5-1.2 2.1.2 4 1.2 5.8 2.3l19.2 11.1c1.8 1 3.6 2.1 5.7 2.2 2 .1 3.9-.7 5.6-1.6 5.5-2.8 10.4-6.6 14.4-11.2 2.7-3 5.5-6.7 9.5-6.8 1.7-.1 3.3.5 4.9 1.1 24.8 9.3 49.7 18.6 74.5 27.9 2.7 1 15.9 4.1 16.6 6.9.8 3.4-7.6 8.7-9.7 10.5-9.5 8-19.6 15.2-30.2 21.6-11.4 6.9-23.4 12.8-35.7 17.8-9.6 3.9-19.6 7.3-29.9 8.2-10.6.9-21.2-.9-31.6-3.2-30.2-6.6-59.6-17.1-90.2-21.7 6.5-2.5 10.6-3.8 17.1-6.3 5.5-2.1 11-4.3 16.7-5.4 9.3-1.9 18.8-1.1 28.2-.8 39 1.4 77.9-4.2 116.5-9.8 8.6-1.2 17.3-2.5 25.4-5.7"/><path d="M32.5 148.7c25.7-10.9 46.6-31.4 72.6-41.3 1.8-.7 3.6-1.3 5.5-1.2 2.1.2 4 1.2 5.8 2.3l19.2 11.1c1.8 1 3.6 2.1 5.7 2.2 2 .1 3.9-.7 5.6-1.6 5.5-2.8 10.4-6.6 14.4-11.2 2.7-3 5.5-6.7 9.5-6.8 1.7-.1 3.3.5 4.9 1.1 24.8 9.3 49.7 18.6 74.5 27.9 2.7 1 15.9 4.1 16.6 6.9.8 3.4-7.6 8.7-9.7 10.5-9.5 8-19.6 15.2-30.2 21.6-11.4 6.9-23.4 12.8-35.7 17.8-9.6 3.9-19.6 7.3-29.9 8.2-10.6.9-21.2-.9-31.6-3.2-30.2-6.6-59.6-17.1-90.2-21.7 6.5-2.5 10.6-3.8 17.1-6.3 5.5-2.1 11-4.3 16.7-5.4 9.3-1.9 18.8-1.1 28.2-.8 39 1.4 77.9-4.2 116.5-9.8 8.6-1.2 17.3-2.5 25.4-5.7"/><path d="M32.5 148.7c25.7-10.9 46.6-31.4 72.6-41.3 1.8-.7 3.6-1.3 5.5-1.2 2.1.2 4 1.2 5.8 2.3l19.2 11.1c1.8 1 3.6 2.1 5.7 2.2 2 .1 3.9-.7 5.6-1.6 5.5-2.8 10.4-6.6 14.4-11.2 2.7-3 5.5-6.7 9.5-6.8 1.7-.1 3.3.5 4.9 1.1 24.8 9.3 49.7 18.6 74.5 27.9 2.7 1 15.9 4.1 16.6 6.9.8 3.4-7.6 8.7-9.7 10.5-9.5 8-19.6 15.2-30.2 21.6-11.4 6.9-23.4 12.8-35.7 17.8-9.6 3.9-19.6 7.3-29.9 8.2-10.6.9-21.2-.9-31.6-3.2-30.2-6.6-59.6-17.1-90.2-21.7 6.5-2.5 10.6-3.8 17.1-6.3 5.5-2.1 11-4.3 16.7-5.4 9.3-1.9 18.8-1.1 28.2-.8 39 1.4 77.9-4.2 116.5-9.8 8.6-1.2 17.3-2.5 25.4-5.7"/><path d="M32.5 148.7c25.7-10.9 46.6-31.4 72.6-41.3 1.8-.7 3.6-1.3 5.5-1.2 2.1.2 4 1.2 5.8 2.3l19.2 11.1c1.8 1 3.6 2.1 5.7 2.2 2 .1 3.9-.7 5.6-1.6 5.5-2.8 10.4-6.6 14.4-11.2 2.7-3 5.5-6.7 9.5-6.8 1.7-.1 3.3.5 4.9 1.1 24.8 9.3 49.7 18.6 74.5 27.9 2.7 1 15.9 4.1 16.6 6.9.8 3.4-7.6 8.7-9.7 10.5-9.5 8-19.6 15.2-30.2 21.6-11.4 6.9-23.4 12.8-35.7 17.8-9.6 3.9-19.6 7.3-29.9 8.2-10.6.9-21.2-.9-31.6-3.2-30.2-6.6-59.6-17.1-90.2-21.7 6.5-2.5 10.6-3.8 17.1-6.3 5.5-2.1 11-4.3 16.7-5.4 9.3-1.9 18.8-1.1 28.2-.8 39 1.4 77.9-4.2 116.5-9.8 8.6-1.2 17.3-2.5 25.4-5.7"/></g><g fill="none" stroke="#FBC8BA" stroke-linecap="round" stroke-linejoin="round"><path d="M32.5 148.7c25.7-10.9 46.6-31.4 72.6-41.3 1.8-.7 3.6-1.3 5.5-1.2 2.1.2 4 1.2 5.8 2.3l19.2 11.1c1.8 1 3.6 2.1 5.7 2.2 2 .1 3.9-.7 5.6-1.6 5.5-2.8 10.4-6.6 14.4-11.2 2.7-3 5.5-6.7 9.5-6.8 1.7-.1 3.3.5 4.9 1.1 24.8 9.3 49.7 18.6 74.5 27.9 2.7 1 15.9 4.1 16.6 6.9.8 3.4-7.6 8.7-9.7 10.5-9.5 8-19.6 15.2-30.2 21.6-11.4 6.9-23.4 12.8-35.7 17.8-9.6 3.9-19.6 7.3-29.9 8.2-10.6.9-21.2-.9-31.6-3.2-30.2-6.6-59.6-17.1-90.2-21.7 6.5-2.5 10.6-3.8 17.1-6.3 5.5-2.1 11-4.3 16.7-5.4 9.3-1.9 18.8-1.1 28.2-.8 39 1.4 77.9-4.2 116.5-9.8 8.6-1.2 17.3-2.5 25.4-5.7"/><path d="M32.5 148.7c25.7-10.9 46.6-31.4 72.6-41.3 1.8-.7 3.6-1.3 5.5-1.2 2.1.2 4 1.2 5.8 2.3l19.2 11.1c1.8 1 3.6 2.1 5.7 2.2 2 .1 3.9-.7 5.6-1.6 5.5-2.8 10.4-6.6 14.4-11.2 2.7-3 5.5-6.7 9.5-6.8 1.7-.1 3.3.5 4.9 1.1 24.8 9.3 49.7 18.6 74.5 27.9 2.7 1 15.9 4.1 16.6 6.9.8 3.4-7.6 8.7-9.7 10.5-9.5 8-19.6 15.2-30.2 21.6-11.4 6.9-23.4 12.8-35.7 17.8-9.6 3.9-19.6 7.3-29.9 8.2-10.6.9-21.2-.9-31.6-3.2-30.2-6.6-59.6-17.1-90.2-21.7 6.5-2.5 10.6-3.8 17.1-6.3 5.5-2.1 11-4.3 16.7-5.4 9.3-1.9 18.8-1.1 28.2-.8 39 1.4 77.9-4.2 116.5-9.8 8.6-1.2 17.3-2.5 25.4-5.7"/><path d="M32.5 148.7c25.7-10.9 46.6-31.4 72.6-41.3 1.8-.7 3.6-1.3 5.5-1.2 2.1.2 4 1.2 5.8 2.3l19.2 11.1c1.8 1 3.6 2.1 5.7 2.2 2 .1 3.9-.7 5.6-1.6 5.5-2.8 10.4-6.6 14.4-11.2 2.7-3 5.5-6.7 9.5-6.8 1.7-.1 3.3.5 4.9 1.1 24.8 9.3 49.7 18.6 74.5 27.9 2.7 1 15.9 4.1 16.6 6.9.8 3.4-7.6 8.7-9.7 10.5-9.5 8-19.6 15.2-30.2 21.6-11.4 6.9-23.4 12.8-35.7 17.8-9.6 3.9-19.6 7.3-29.9 8.2-10.6.9-21.2-.9-31.6-3.2-30.2-6.6-59.6-17.1-90.2-21.7 6.5-2.5 10.6-3.8 17.1-6.3 5.5-2.1 11-4.3 16.7-5.4 9.3-1.9 18.8-1.1 28.2-.8 39 1.4 77.9-4.2 116.5-9.8 8.6-1.2 17.3-2.5 25.4-5.7"/><path d="M32.5 148.7c25.7-10.9 46.6-31.4 72.6-41.3 1.8-.7 3.6-1.3 5.5-1.2 2.1.2 4 1.2 5.8 2.3l19.2 11.1c1.8 1 3.6 2.1 5.7 2.2 2 .1 3.9-.7 5.6-1.6 5.5-2.8 10.4-6.6 14.4-11.2 2.7-3 5.5-6.7 9.5-6.8 1.7-.1 3.3.5 4.9 1.1 24.8 9.3 49.7 18.6 74.5 27.9 2.7 1 15.9 4.1 16.6 6.9.8 3.4-7.6 8.7-9.7 10.5-9.5 8-19.6 15.2-30.2 21.6-11.4 6.9-23.4 12.8-35.7 17.8-9.6 3.9-19.6 7.3-29.9 8.2-10.6.9-21.2-.9-31.6-3.2-30.2-6.6-59.6-17.1-90.2-21.7 6.5-2.5 10.6-3.8 17.1-6.3 5.5-2.1 11-4.3 16.7-5.4 9.3-1.9 18.8-1.1 28.2-.8 39 1.4 77.9-4.2 116.5-9.8 8.6-1.2 17.3-2.5 25.4-5.7"/><path d="M32.5 148.7c25.7-10.9 46.6-31.4 72.6-41.3 1.8-.7 3.6-1.3 5.5-1.2 2.1.2 4 1.2 5.8 2.3l19.2 11.1c1.8 1 3.6 2.1 5.7 2.2 2 .1 3.9-.7 5.6-1.6 5.5-2.8 10.4-6.6 14.4-11.2 2.7-3 5.5-6.7 9.5-6.8 1.7-.1 3.3.5 4.9 1.1 24.8 9.3 49.7 18.6 74.5 27.9 2.7 1 15.9 4.1 16.6 6.9.8 3.4-7.6 8.7-9.7 10.5-9.5 8-19.6 15.2-30.2 21.6-11.4 6.9-23.4 12.8-35.7 17.8-9.6 3.9-19.6 7.3-29.9 8.2-10.6.9-21.2-.9-31.6-3.2-30.2-6.6-59.6-17.1-90.2-21.7 6.5-2.5 10.6-3.8 17.1-6.3 5.5-2.1 11-4.3 16.7-5.4 9.3-1.9 18.8-1.1 28.2-.8 39 1.4 77.9-4.2 116.5-9.8 8.6-1.2 17.3-2.5 25.4-5.7"/><path d="M32.5 148.7c25.7-10.9 46.6-31.4 72.6-41.3 1.8-.7 3.6-1.3 5.5-1.2 2.1.2 4 1.2 5.8 2.3l19.2 11.1c1.8 1 3.6 2.1 5.7 2.2 2 .1 3.9-.7 5.6-1.6 5.5-2.8 10.4-6.6 14.4-11.2 2.7-3 5.5-6.7 9.5-6.8 1.7-.1 3.3.5 4.9 1.1 24.8 9.3 49.7 18.6 74.5 27.9 2.7 1 15.9 4.1 16.6 6.9.8 3.4-7.6 8.7-9.7 10.5-9.5 8-19.6 15.2-30.2 21.6-11.4 6.9-23.4 12.8-35.7 17.8-9.6 3.9-19.6 7.3-29.9 8.2-10.6.9-21.2-.9-31.6-3.2-30.2-6.6-59.6-17.1-90.2-21.7 6.5-2.5 10.6-3.8 17.1-6.3 5.5-2.1 11-4.3 16.7-5.4 9.3-1.9 18.8-1.1 28.2-.8 39 1.4 77.9-4.2 116.5-9.8 8.6-1.2 17.3-2.5 25.4-5.7"/><path d="M32.5 148.7c25.7-10.9 46.6-31.4 72.6-41.3 1.8-.7 3.6-1.3 5.5-1.2 2.1.2 4 1.2 5.8 2.3l19.2 11.1c1.8 1 3.6 2.1 5.7 2.2 2 .1 3.9-.7 5.6-1.6 5.5-2.8 10.4-6.6 14.4-11.2 2.7-3 5.5-6.7 9.5-6.8 1.7-.1 3.3.5 4.9 1.1 24.8 9.3 49.7 18.6 74.5 27.9 2.7 1 15.9 4.1 16.6 6.9.8 3.4-7.6 8.7-9.7 10.5-9.5 8-19.6 15.2-30.2 21.6-11.4 6.9-23.4 12.8-35.7 17.8-9.6 3.9-19.6 7.3-29.9 8.2-10.6.9-21.2-.9-31.6-3.2-30.2-6.6-59.6-17.1-90.2-21.7 6.5-2.5 10.6-3.8 17.1-6.3 5.5-2.1 11-4.3 16.7-5.4 9.3-1.9 18.8-1.1 28.2-.8 39 1.4 77.9-4.2 116.5-9.8 8.6-1.2 17.3-2.5 25.4-5.7"/><path d="M32.5 148.7c25.7-10.9 46.6-31.4 72.6-41.3 1.8-.7 3.6-1.3 5.5-1.2 2.1.2 4 1.2 5.8 2.3l19.2 11.1c1.8 1 3.6 2.1 5.7 2.2 2 .1 3.9-.7 5.6-1.6 5.5-2.8 10.4-6.6 14.4-11.2 2.7-3 5.5-6.7 9.5-6.8 1.7-.1 3.3.5 4.9 1.1 24.8 9.3 49.7 18.6 74.5 27.9 2.7 1 15.9 4.1 16.6 6.9.8 3.4-7.6 8.7-9.7 10.5-9.5 8-19.6 15.2-30.2 21.6-11.4 6.9-23.4 12.8-35.7 17.8-9.6 3.9-19.6 7.3-29.9 8.2-10.6.9-21.2-.9-31.6-3.2-30.2-6.6-59.6-17.1-90.2-21.7 6.5-2.5 10.6-3.8 17.1-6.3 5.5-2.1 11-4.3 16.7-5.4 9.3-1.9 18.8-1.1 28.2-.8 39 1.4 77.9-4.2 116.5-9.8 8.6-1.2 17.3-2.5 25.4-5.7"/></g></svg>