<svg xmlns="http://www.w3.org/2000/svg" viewBox="0 0 300 300"><g fill="none" stroke-linecap="round" stroke-linejoin="round"><path opacity=".2" stroke="#ED6C30" stroke-width="10" d="M138.6 267.2c-12.6 4.4-26.4-2.7-36-12.3s-16.9-21.7-26.9-31c-11.1-10.2-24.9-16.3-37.4-24.6C28.9 193 19.2 182.5 22 171c2.2-9 11.8-14.2 20.6-13.6 8.8.6 16.6 5.8 23.4 11.7 6.8 5.8 13.1 12.5 20.7 17.2 6.5 4 15.3 6.1 21.3 1.3 3.7-2.9 5.5-7.9 6.3-12.7 3-18.4-5.9-36.3-13.4-53.1-7.9-17.7-14.6-36-20-54.7-1.3-4.4-2.5-9.2-1.4-13.6 1.9-7.5 10.2-11.8 17.4-10.4 7.2 1.3 13.1 7.1 16.8 13.8s5.5 14.3 7.4 21.8c4.5 17 9.9 33.7 16.3 50.1 2 5.1 5.2 11 10.4 10.8 4-19.1 3.8-39.2-.5-58.2-4.1-18.1-11.7-37.2-5.3-54.5.9-2.3 2-4.7 4-6.1 3.3-2.5 7.8-2 11.8-1.3 7.2 1.2 15.5 3.2 19 10 1.7 3.4 1.9 7.4 2 11.2.8 28.1-.5 56.3-3.9 84.1-.4 3.2-.8 6.5.3 9.5s4.1 5.5 7 4.7c2-.6 3.4-2.5 4.4-4.3 4.6-8 6.3-17.3 8.1-26.4 3.5-17.5 7.5-34.8 12.1-52 1.3-4.9 3-10.3 7.4-12.5 4.7-2.4 10.6.4 13.8 4.7 6 8.1 4.9 19.7 3 29.9-4.1 22.1-10.6 43.6-19.3 64.2-.6 1.4-1.2 2.8-1 4.3.5 4.4 6.6 4.8 10.4 3 20.1-9.7 22.6-42.6 43-51.6 1.6-.7 3.3-1.2 5-.7.8.2 1.6.7 2.3 1.3 4.8 4 5.7 11.6 3.7 17.7s-6.3 11-10.4 15.8l-27.9 31.8c-4.7 5.4-9.5 10.8-13.4 16.9-9.9 15.4-14 34.5-24.5 49.5-9.3 13.4-23 22.4-36.3 31.2"/><path opacity=".25" stroke="#ED6C30" stroke-width="8.5" d="M138.6 267.2c-12.6 4.4-26.4-2.7-36-12.3s-16.9-21.7-26.9-31c-11.1-10.2-24.9-16.3-37.4-24.6C28.9 193 19.2 182.5 22 171c2.2-9 11.8-14.2 20.6-13.6 8.8.6 16.6 5.8 23.4 11.7 6.8 5.8 13.1 12.5 20.7 17.2 6.5 4 15.3 6.1 21.3 1.3 3.7-2.9 5.5-7.9 6.3-12.7 3-18.4-5.9-36.3-13.4-53.1-7.9-17.7-14.6-36-20-54.7-1.3-4.4-2.5-9.2-1.4-13.6 1.9-7.5 10.2-11.8 17.4-10.4 7.2 1.3 13.1 7.1 16.8 13.8s5.5 14.3 7.4 21.8c4.5 17 9.9 33.7 16.3 50.1 2 5.1 5.2 11 10.4 10.8 4-19.1 3.8-39.2-.5-58.2-4.1-18.1-11.7-37.2-5.3-54.5.9-2.3 2-4.7 4-6.1 3.3-2.5 7.8-2 11.8-1.3 7.2 1.2 15.5 3.2 19 10 1.7 3.4 1.9 7.4 2 11.2.8 28.1-.5 56.3-3.9 84.1-.4 3.2-.8 6.5.3 9.5s4.1 5.5 7 4.7c2-.6 3.4-2.5 4.4-4.3 4.6-8 6.3-17.3 8.1-26.4 3.5-17.5 7.5-34.8 12.1-52 1.3-4.9 3-10.3 7.4-12.5 4.7-2.4 10.6.4 13.8 4.7 6 8.1 4.9 19.7 3 29.9-4.1 22.1-10.6 43.6-19.3 64.2-.6 1.4-1.2 2.8-1 4.3.5 4.4 6.6 4.8 10.4 3 20.1-9.7 22.6-42.6 43-51.6 1.6-.7 3.3-1.2 5-.7.8.2 1.6.7 2.3 1.3 4.8 4 5.7 11.6 3.7 17.7s-6.3 11-10.4 15.8l-27.9 31.8c-4.7 5.4-9.5 10.8-13.4 16.9-9.9 15.4-14 34.5-24.5 49.5-9.3 13.4-23 22.4-36.3 31.2"/><path opacity=".3" stroke="#ED6C30" stroke-width="5" d="M138.6 267.2c-12.6 4.4-26.4-2.7-36-12.3s-16.9-21.7-26.9-31c-11.1-10.2-24.9-16.3-37.4-24.6C28.9 193 19.2 182.5 22 171c2.2-9 11.8-14.2 20.6-13.6 8.8.6 16.6 5.8 23.4 11.7 6.8 5.8 13.1 12.5 20.7 17.2 6.5 4 15.3 6.1 21.3 1.3 3.7-2.9 5.5-7.9 6.3-12.7 3-18.4-5.9-36.3-13.4-53.1-7.9-17.7-14.6-36-20-54.7-1.3-4.4-2.5-9.2-1.4-13.6 1.9-7.5 10.2-11.8 17.4-10.4 7.2 1.3 13.1 7.1 16.8 13.8s5.5 14.3 7.4 21.8c4.5 17 9.9 33.7 16.3 50.1 2 5.1 5.2 11 10.4 10.8 4-19.1 3.8-39.2-.5-58.2-4.1-18.1-11.7-37.2-5.3-54.5.9-2.3 2-4.7 4-6.1 3.3-2.5 7.8-2 11.8-1.3 7.2 1.2 15.5 3.2 19 10 1.7 3.4 1.9 7.4 2 11.2.8 28.1-.5 56.3-3.9 84.1-.4 3.2-.8 6.5.3 9.5s4.1 5.5 7 4.7c2-.6 3.4-2.5 4.4-4.3 4.6-8 6.3-17.3 8.1-26.4 3.5-17.5 7.5-34.8 12.1-52 1.3-4.9 3-10.3 7.4-12.5 4.7-2.4 10.6.4 13.8 4.7 6 8.1 4.9 19.7 3 29.9-4.1 22.1-10.6 43.6-19.3 64.2-.6 1.4-1.2 2.8-1 4.3.5 4.4 6.6 4.8 10.4 3 20.1-9.7 22.6-42.6 43-51.6 1.6-.7 3.3-1.2 5-.7.8.2 1.6.7 2.3 1.3 4.8 4 5.7 11.6 3.7 17.7s-6.3 11-10.4 15.8l-27.9 31.8c-4.7 5.4-9.5 10.8-13.4 16.9-9.9 15.4-14 34.5-24.5 49.5-9.3 13.4-23 22.4-36.3 31.2"/><path stroke="#F28F5D" stroke-width="7" d="M138.6 267.2c-12.6 4.4-26.4-2.7-36-12.3s-16.9-21.7-26.9-31c-11.1-10.2-24.9-16.3-37.4-24.6C28.9 193 19.2 182.5 22 171c2.2-9 11.8-14.2 20.6-13.6 8.8.6 16.6 5.8 23.4 11.7 6.8 5.8 13.1 12.5 20.7 17.2 6.5 4 15.3 6.1 21.3 1.3 3.7-2.9 5.5-7.9 6.3-12.7 3-18.4-5.9-36.3-13.4-53.1-7.9-17.7-14.6-36-20-54.7-1.3-4.4-2.5-9.2-1.4-13.6 1.9-7.5 10.2-11.8 17.4-10.4 7.2 1.3 13.1 7.1 16.8 13.8s5.5 14.3 7.4 21.8c4.5 17 9.9 33.7 16.3 50.1 2 5.1 5.2 11 10.4 10.8 4-19.1 3.8-39.2-.5-58.2-4.1-18.1-11.7-37.2-5.3-54.5.9-2.3 2-4.7 4-6.1 3.3-2.5 7.8-2 11.8-1.3 7.2 1.2 15.5 3.2 19 10 1.7 3.4 1.9 7.4 2 11.2.8 28.1-.5 56.3-3.9 84.1-.4 3.2-.8 6.5.3 9.5s4.1 5.5 7 4.7c2-.6 3.4-2.5 4.4-4.3 4.6-8 6.3-17.3 8.1-26.4 3.5-17.5 7.5-34.8 12.1-52 1.3-4.9 3-10.3 7.4-12.5 4.7-2.4 10.6.4 13.8 4.7 6 8.1 4.9 19.7 3 29.9-4.1 22.1-10.6 43.6-19.3 64.2-.6 1.4-1.2 2.8-1 4.3.5 4.4 6.6 4.8 10.4 3 20.1-9.7 22.6-42.6 43-51.6 1.6-.7 3.3-1.2 5-.7.8.2 1.6.7 2.3 1.3 4.8 4 5.7 11.6 3.7 17.7s-6.3 11-10.4 15.8l-27.9 31.8c-4.7 5.4-9.5 10.8-13.4 16.9-9.9 15.4-14 34.5-24.5 49.5-9.3 13.4-23 22.4-36.3 31.2"/><path stroke="#F4A074" stroke-width="5.5" d="M138.6 267.2c-12.6 4.4-26.4-2.7-36-12.3s-16.9-21.7-26.9-31c-11.1-10.2-24.9-16.3-37.4-24.6C28.9 193 19.2 182.5 22 171c2.2-9 11.8-14.2 20.6-13.6 8.8.6 16.6 5.8 23.4 11.7 6.8 5.8 13.1 12.5 20.7 17.2 6.5 4 15.3 6.1 21.3 1.3 3.7-2.9 5.5-7.9 6.3-12.7 3-18.4-5.9-36.3-13.4-53.1-7.9-17.7-14.6-36-20-54.7-1.3-4.4-2.5-9.2-1.4-13.6 1.9-7.5 10.2-11.8 17.4-10.4 7.2 1.3 13.1 7.1 16.8 13.8s5.5 14.3 7.4 21.8c4.5 17 9.9 33.7 16.3 50.1 2 5.1 5.2 11 10.4 10.8 4-19.1 3.8-39.2-.5-58.2-4.1-18.1-11.7-37.2-5.3-54.5.9-2.3 2-4.7 4-6.1 3.3-2.5 7.8-2 11.8-1.3 7.2 1.2 15.5 3.2 19 10 1.7 3.4 1.9 7.4 2 11.2.8 28.1-.5 56.3-3.9 84.1-.4 3.2-.8 6.5.3 9.5s4.1 5.5 7 4.7c2-.6 3.4-2.5 4.4-4.3 4.6-8 6.3-17.3 8.1-26.4 3.5-17.5 7.5-34.8 12.1-52 1.3-4.9 3-10.3 7.4-12.5 4.7-2.4 10.6.4 13.8 4.7 6 8.1 4.9 19.7 3 29.9-4.1 22.1-10.6 43.6-19.3 64.2-.6 1.4-1.2 2.8-1 4.3.5 4.4 6.6 4.8 10.4 3 20.1-9.7 22.6-42.6 43-51.6 1.6-.7 3.3-1.2 5-.7.8.2 1.6.7 2.3 1.3 4.8 4 5.7 11.6 3.7 17.7s-6.3 11-10.4 15.8l-27.9 31.8c-4.7 5.4-9.5 10.8-13.4 16.9-9.9 15.4-14 34.5-24.5 49.5-9.3 13.4-23 22.4-36.3 31.2"/><path stroke="#F7B28B" stroke-width="4" d="M138.6 267.2c-12.6 4.4-26.4-2.7-36-12.3s-16.9-21.7-26.9-31c-11.1-10.2-24.9-16.3-37.4-24.6C28.9 193 19.2 182.5 22 171c2.2-9 11.8-14.2 20.6-13.6 8.8.6 16.6 5.8 23.4 11.7 6.8 5.8 13.1 12.5 20.7 17.2 6.5 4 15.3 6.1 21.3 1.3 3.7-2.9 5.5-7.9 6.3-12.7 3-18.4-5.9-36.3-13.4-53.1-7.9-17.7-14.6-36-20-54.7-1.3-4.4-2.5-9.2-1.4-13.6 1.9-7.5 10.2-11.8 17.4-10.4 7.2 1.3 13.1 7.1 16.8 13.8s5.5 14.3 7.4 21.8c4.5 17 9.9 33.7 16.3 50.1 2 5.1 5.2 11 10.4 10.8 4-19.1 3.8-39.2-.5-58.2-4.1-18.1-11.7-37.2-5.3-54.5.9-2.3 2-4.7 4-6.1 3.3-2.5 7.8-2 11.8-1.3 7.2 1.2 15.5 3.2 19 10 1.7 3.4 1.9 7.4 2 11.2.8 28.1-.5 56.3-3.9 84.1-.4 3.2-.8 6.5.3 9.5s4.1 5.5 7 4.7c2-.6 3.4-2.5 4.4-4.3 4.6-8 6.3-17.3 8.1-26.4 3.5-17.5 7.5-34.8 12.1-52 1.3-4.9 3-10.3 7.4-12.5 4.7-2.4 10.6.4 13.8 4.7 6 8.1 4.9 19.7 3 29.9-4.1 22.1-10.6 43.6-19.3 64.2-.6 1.4-1.2 2.8-1 4.3.5 4.4 6.6 4.8 10.4 3 20.1-9.7 22.6-42.6 43-51.6 1.6-.7 3.3-1.2 5-.7.8.2 1.6.7 2.3 1.3 4.8 4 5.7 11.6 3.7 17.7s-6.3 11-10.4 15.8l-27.9 31.8c-4.7 5.4-9.5 10.8-13.4 16.9-9.9 15.4-14 34.5-24.5 49.5-9.3 13.4-23 22.4-36.3 31.2"/><path stroke="#F9C1A0" stroke-width="2.5" d="M138.6 267.2c-12.6 4.4-26.4-2.7-36-12.3s-16.9-21.7-26.9-31c-11.1-10.2-24.9-16.3-37.4-24.6C28.9 193 19.2 182.5 22 171c2.2-9 11.8-14.2 20.6-13.6 8.8.6 16.6 5.8 23.4 11.7 6.8 5.8 13.1 12.5 20.7 17.2 6.5 4 15.3 6.1 21.3 1.3 3.7-2.9 5.5-7.9 6.3-12.7 3-18.4-5.9-36.3-13.4-53.1-7.9-17.7-14.6-36-20-54.7-1.3-4.4-2.5-9.2-1.4-13.6 1.9-7.5 10.2-11.8 17.4-10.4 7.2 1.3 13.1 7.1 16.8 13.8s5.5 14.3 7.4 21.8c4.5 17 9.9 33.7 16.3 50.1 2 5.1 5.2 11 10.4 10.8 4-19.1 3.8-39.2-.5-58.2-4.1-18.1-11.7-37.2-5.3-54.5.9-2.3 2-4.7 4-6.1 3.3-2.5 7.8-2 11.8-1.3 7.2 1.2 15.5 3.2 19 10 1.7 3.4 1.9 7.4 2 11.2.8 28.1-.5 56.3-3.9 84.1-.4 3.2-.8 6.5.3 9.5s4.1 5.5 7 4.7c2-.6 3.4-2.5 4.4-4.3 4.6-8 6.3-17.3 8.1-26.4 3.5-17.5 7.5-34.8 12.1-52 1.3-4.9 3-10.3 7.4-12.5 4.7-2.4 10.6.4 13.8 4.7 6 8.1 4.9 19.7 3 29.9-4.1 22.1-10.6 43.6-19.3 64.2-.6 1.4-1.2 2.8-1 4.3.5 4.4 6.6 4.8 10.4 3 20.1-9.7 22.6-42.6 43-51.6 1.6-.7 3.3-1.2 5-.7.8.2 1.6.7 2.3 1.3 4.8 4 5.7 11.6 3.7 17.7s-6.3 11-10.4 15.8l-27.9 31.8c-4.7 5.4-9.5 10.8-13.4 16.9-9.9 15.4-14 34.5-24.5 49.5-9.3 13.4-23 22.4-36.3 31.2"/><path stroke="#FBD4BC" d="M138.6 267.2c-12.6 4.4-26.4-2.7-36-12.3s-16.9-21.7-26.9-31c-11.1-10.2-24.9-16.3-37.4-24.6C28.9 193 19.2 182.5 22 171c2.2-9 11.8-14.2 20.6-13.6 8.8.6 16.6 5.8 23.4 11.7 6.8 5.8 13.1 12.5 20.7 17.2 6.5 4 15.3 6.1 21.3 1.3 3.7-2.9 5.5-7.9 6.3-12.7 3-18.4-5.9-36.3-13.4-53.1-7.9-17.7-14.6-36-20-54.7-1.3-4.4-2.5-9.2-1.4-13.6 1.9-7.5 10.2-11.8 17.4-10.4 7.2 1.3 13.1 7.1 16.8 13.8s5.5 14.3 7.4 21.8c4.5 17 9.9 33.7 16.3 50.1 2 5.1 5.2 11 10.4 10.8 4-19.1 3.8-39.2-.5-58.2-4.1-18.1-11.7-37.2-5.3-54.5.9-2.3 2-4.7 4-6.1 3.3-2.5 7.8-2 11.8-1.3 7.2 1.2 15.5 3.2 19 10 1.7 3.4 1.9 7.4 2 11.2.8 28.1-.5 56.3-3.9 84.1-.4 3.2-.8 6.5.3 9.5s4.1 5.5 7 4.7c2-.6 3.4-2.5 4.4-4.3 4.6-8 6.3-17.3 8.1-26.4 3.5-17.5 7.5-34.8 12.1-52 1.3-4.9 3-10.3 7.4-12.5 4.7-2.4 10.6.4 13.8 4.7 6 8.1 4.9 19.7 3 29.9-4.1 22.1-10.6 43.6-19.3 64.2-.6 1.4-1.2 2.8-1 4.3.5 4.4 6.6 4.8 10.4 3 20.1-9.7 22.6-42.6 43-51.6 1.6-.7 3.3-1.2 5-.7.8.2 1.6.7 2.3 1.3 4.8 4 5.7 11.6 3.7 17.7s-6.3 11-10.4 15.8l-27.9 31.8c-4.7 5.4-9.5 10.8-13.4 16.9-9.9 15.4-14 34.5-24.5 49.5-9.3 13.4-23 22.4-36.3 31.2"/></g></svg>