<svg xmlns="http://www.w3.org/2000/svg" viewBox="0 0 300 300"><g fill="none" stroke-linecap="round" stroke-linejoin="round"><path opacity=".2" stroke="#F18CB9" stroke-width="7" d="M79.5 79.8h142.2V222H79.5z"/><path opacity=".25" stroke="#ED7AB0" stroke-width="6" d="M79.5 79.8h142.2V222H79.5z"/><path opacity=".3" stroke="#EB60A3" stroke-width="5" d="M79.5 79.8h142.2V222H79.5z"/><path stroke="#E93E95" stroke-width="4" d="M79.5 79.8h142.2V222H79.5z"/><path stroke="#ED669F" stroke-width="3.25" d="M79.5 79.8h142.2V222H79.5z"/><path stroke="#EF7CA8" stroke-width="2.5" d="M79.5 79.8h142.2V222H79.5z"/><path stroke="#F292B4" stroke-width="1.65" d="M79.5 79.8h142.2V222H79.5z"/><path stroke="#F5B3D0" stroke-width=".65" d="M79.5 79.8h142.2V222H79.5z"/><g opacity=".2" stroke="#B2D339" stroke-width="10"><path d="M79.5 79.8h142.2V222H79.5z"/><path d="M79.5 79.8h142.2V222H79.5z"/><path d="M79.5 79.8h142.2V222H79.5z"/><path d="M79.5 79.8h142.2V222H79.5z"/><path d="M79.5 79.8h142.2V222H79.5z"/><path d="M79.5 79.8h142.2V222H79.5z"/><path d="M79.5 79.8h142.2V222H79.5z"/><path d="M79.5 79.8h142.2V222H79.5z"/></g><g opacity=".25" stroke="#B2D339" stroke-width="8.5"><path d="M79.5 79.8h142.2V222H79.5z"/><path d="M79.5 79.8h142.2V222H79.5z"/><path d="M79.5 79.8h142.2V222H79.5z"/><path d="M79.5 79.8h142.2V222H79.5z"/><path d="M79.5 79.8h142.2V222H79.5z"/><path d="M79.5 79.8h142.2V222H79.5z"/><path d="M79.5 79.8h142.2V222H79.5z"/><path d="M79.5 79.8h142.2V222H79.5z"/></g><g opacity=".3" stroke="#B2D339" stroke-width="5"><path d="M79.5 79.8h142.2V222H79.5z"/><path d="M79.5 79.8h142.2V222H79.5z"/><path d="M79.5 79.8h142.2V222H79.5z"/><path d="M79.5 79.8h142.2V222H79.5z"/><path d="M79.5 79.8h142.2V222H79.5z"/><path d="M79.5 79.8h142.2V222H79.5z"/><path d="M79.5 79.8h142.2V222H79.5z"/><path d="M79.5 79.8h142.2V222H79.5z"/></g><g stroke="#B2D339" stroke-width="7"><path d="M79.5 79.8h142.2V222H79.5z"/><path d="M79.5 79.8h142.2V222H79.5z"/><path d="M79.5 79.8h142.2V222H79.5z"/><path d="M79.5 79.8h142.2V222H79.5z"/><path d="M79.5 79.8h142.2V222H79.5z"/><path d="M79.5 79.8h142.2V222H79.5z"/><path d="M79.5 79.8h142.2V222H79.5z"/><path d="M79.5 79.8h142.2V222H79.5z"/></g><g stroke="#C3DB69" stroke-width="5.5"><path d="M79.5 79.8h142.2V222H79.5z"/><path d="M79.5 79.8h142.2V222H79.5z"/><path d="M79.5 79.8h142.2V222H79.5z"/><path d="M79.5 79.8h142.2V222H79.5z"/><path d="M79.5 79.8h142.2V222H79.5z"/><path d="M79.5 79.8h142.2V222H79.5z"/><path d="M79.5 79.8h142.2V222H79.5z"/><path d="M79.5 79.8h142.2V222H79.5z"/></g><g stroke="#D2E392" stroke-width="4"><path d="M79.5 79.8h142.2V222H79.5z"/><path d="M79.5 79.8h142.2V222H79.5z"/><path d="M79.5 79.8h142.2V222H79.5z"/><path d="M79.5 79.8h142.2V222H79.5z"/><path d="M79.5 79.8h142.2V222H79.5z"/><path d="M79.5 79.8h142.2V222H79.5z"/><path d="M79.5 79.8h142.2V222H79.5z"/><path d="M79.5 79.8h142.2V222H79.5z"/></g><g stroke="#DEEBB1" stroke-width="2.5"><path d="M79.5 79.8h142.2V222H79.5z"/><path d="M79.5 79.8h142.2V222H79.5z"/><path d="M79.5 79.8h142.2V222H79.5z"/><path d="M79.5 79.8h142.2V222H79.5z"/><path d="M79.5 79.8h142.2V222H79.5z"/><path d="M79.5 79.8h142.2V222H79.5z"/><path d="M79.5 79.8h142.2V222H79.5z"/><path d="M79.5 79.8h142.2V222H79.5z"/></g><g stroke="#EAF2CE"><path d="M79.5 79.8h142.2V222H79.5z"/><path d="M79.5 79.8h142.2V222H79.5z"/><path d="M79.5 79.8h142.2V222H79.5z"/><path d="M79.5 79.8h142.2V222H79.5z"/><path d="M79.5 79.8h142.2V222H79.5z"/><path d="M79.5 79.8h142.2V222H79.5z"/><path d="M79.5 79.8h142.2V222H79.5z"/><path d="M79.5 79.8h142.2V222H79.5z"/></g></g><g fill="none" stroke-linecap="round" stroke-linejoin="round"><path opacity=".2" stroke="#F18CB9" stroke-width="7" d="M79.5 221.5L221.7 79.8 79.5 221.5z"/><path opacity=".25" stroke="#ED7AB0" stroke-width="6" d="M79.5 221.5L221.7 79.8 79.5 221.5z"/><path opacity=".3" stroke="#EB60A3" stroke-width="5" d="M79.5 221.5L221.7 79.8 79.5 221.5z"/><path stroke="#E93E95" stroke-width="4" d="M79.5 221.5L221.7 79.8 79.5 221.5z"/><path stroke="#ED669F" stroke-width="3.25" d="M79.5 221.5L221.7 79.8 79.5 221.5z"/><path stroke="#EF7CA8" stroke-width="2.5" d="M79.5 221.5L221.7 79.8 79.5 221.5z"/><path stroke="#F292B4" stroke-width="1.65" d="M79.5 221.5L221.7 79.8 79.5 221.5z"/><path stroke="#F5B3D0" stroke-width=".65" d="M79.5 221.5L221.7 79.8 79.5 221.5z"/><g opacity=".2" stroke="#B2D339" stroke-width="10"><path d="M79.5 221.5L221.7 79.8 79.5 221.5zM79.5 221.5L221.7 79.8 79.5 221.5zM79.5 221.5L221.7 79.8 79.5 221.5zM79.5 221.5L221.7 79.8 79.5 221.5zM79.5 221.5L221.7 79.8 79.5 221.5zM79.5 221.5L221.7 79.8 79.5 221.5zM79.5 221.5L221.7 79.8 79.5 221.5zM79.5 221.5L221.7 79.8 79.5 221.5z"/></g><g opacity=".25" stroke="#B2D339" stroke-width="8.5"><path d="M79.5 221.5L221.7 79.8 79.5 221.5zM79.5 221.5L221.7 79.8 79.5 221.5zM79.5 221.5L221.7 79.8 79.5 221.5zM79.5 221.5L221.7 79.8 79.5 221.5zM79.5 221.5L221.7 79.8 79.5 221.5zM79.5 221.5L221.7 79.8 79.5 221.5zM79.5 221.5L221.7 79.8 79.5 221.5zM79.5 221.5L221.7 79.8 79.5 221.5z"/></g><g opacity=".3" stroke="#B2D339" stroke-width="5"><path d="M79.5 221.5L221.7 79.8 79.5 221.5zM79.5 221.5L221.7 79.8 79.5 221.5zM79.5 221.5L221.7 79.8 79.5 221.5zM79.5 221.5L221.7 79.8 79.5 221.5zM79.5 221.5L221.7 79.8 79.5 221.5zM79.5 221.5L221.7 79.8 79.5 221.5zM79.5 221.5L221.7 79.8 79.5 221.5zM79.5 221.5L221.7 79.8 79.5 221.5z"/></g><g stroke="#B2D339" stroke-width="7"><path d="M79.5 221.5L221.7 79.8 79.5 221.5zM79.5 221.5L221.7 79.8 79.5 221.5zM79.5 221.5L221.7 79.8 79.5 221.5zM79.5 221.5L221.7 79.8 79.5 221.5zM79.5 221.5L221.7 79.8 79.5 221.5zM79.5 221.5L221.7 79.8 79.5 221.5zM79.5 221.5L221.7 79.8 79.5 221.5zM79.5 221.5L221.7 79.8 79.5 221.5z"/></g><g stroke="#C3DB69" stroke-width="5.5"><path d="M79.5 221.5L221.7 79.8 79.5 221.5zM79.5 221.5L221.7 79.8 79.5 221.5zM79.5 221.5L221.7 79.8 79.5 221.5zM79.5 221.5L221.7 79.8 79.5 221.5zM79.5 221.5L221.7 79.8 79.5 221.5zM79.5 221.5L221.7 79.8 79.5 221.5zM79.5 221.5L221.7 79.8 79.5 221.5zM79.5 221.5L221.7 79.8 79.5 221.5z"/></g><g stroke="#D2E392" stroke-width="4"><path d="M79.5 221.5L221.7 79.8 79.5 221.5zM79.5 221.5L221.7 79.8 79.5 221.5zM79.5 221.5L221.7 79.8 79.5 221.5zM79.5 221.5L221.7 79.8 79.5 221.5zM79.5 221.5L221.7 79.8 79.5 221.5zM79.5 221.5L221.7 79.8 79.5 221.5zM79.5 221.5L221.7 79.8 79.5 221.5zM79.5 221.5L221.7 79.8 79.5 221.5z"/></g><g stroke="#DEEBB1" stroke-width="2.5"><path d="M79.5 221.5L221.7 79.8 79.5 221.5zM79.5 221.5L221.7 79.8 79.5 221.5zM79.5 221.5L221.7 79.8 79.5 221.5zM79.5 221.5L221.7 79.8 79.5 221.5zM79.5 221.5L221.7 79.8 79.5 221.5zM79.5 221.5L221.7 79.8 79.5 221.5zM79.5 221.5L221.7 79.8 79.5 221.5zM79.5 221.5L221.7 79.8 79.5 221.5z"/></g><g stroke="#EAF2CE"><path d="M79.5 221.5L221.7 79.8 79.5 221.5zM79.5 221.5L221.7 79.8 79.5 221.5zM79.5 221.5L221.7 79.8 79.5 221.5zM79.5 221.5L221.7 79.8 79.5 221.5zM79.5 221.5L221.7 79.8 79.5 221.5zM79.5 221.5L221.7 79.8 79.5 221.5zM79.5 221.5L221.7 79.8 79.5 221.5zM79.5 221.5L221.7 79.8 79.5 221.5z"/></g></g></svg>