<svg xmlns="http://www.w3.org/2000/svg" viewBox="0 0 300 300"><circle fill="none" stroke="#fff" stroke-width="3" stroke-linecap="round" class="st0" cx="62.3" cy="140.5" r="53.8"/><path fill="none" stroke="#fff" stroke-width="3" stroke-linecap="round" class="st0" d="M185.2 145.2c-.1-1.5-.2-3.1-.2-4.7 0-29.7 24.1-53.8 53.8-53.8s53.8 24.1 53.8 53.8c0 29.7-24.1 53.8-53.8 53.8-22.3 0-42.8-14.2-50.5-35.1-1.6-4.3-1.5-11.2-4.7-14.2-3.9-3.7-15.7-4.6-20.9-5.5-15.3-2.5-31-2-46.1 1.6M62.8 95.3c-12.2 1.5-23.6 8.4-31.1 18.1s-11.4 22.1-11.5 34.5c0 8.4 1.8 17 6.2 24.2 8.1 13.1 24.2 19.7 39.7 19.7 7.3 0 14.9-1.3 21.1-5.2 5.2-3.3 9.1-8.2 12.1-13.6 8-14.2 9.6-32.4 1.8-46.7S75.5 103.2 60 108c-5.2 1.6-9.9 4.5-13.9 8.3-10.6 9.9-15.5 26-10.8 39.6C40 169.6 55 179.4 69.2 177c14.3-2.5 25.3-18.1 21.5-32.1-1.2-4.3-3.5-8.1-6.3-11.5-5.5-6.6-14-11.7-22.4-9.9-2.8.6-5.3 1.9-7.5 3.7-5.7 4.6-8.9 12.4-7.3 19.5s8 13.1 15.3 13.5 14.6-5.3 15.5-12.6c.2-1.8.1-3.8-.8-5.4-1.4-2.8-4.4-4.4-7.4-5.1-2.9-.7-6-.6-8.5 1s-3.9 4.9-2.7 7.6c1.2 2.7 5.5 3.5 7.2 1.1"/><path fill="none" stroke="#fff" stroke-width="3" stroke-linecap="round" class="st0" d="M230.6 91.9c-20.4 7.1-34.9 28.6-33.7 50.2 1.2 21.6 18 41.4 39.1 46.1 8.8 2 18.5 1.4 26.4-3 7-4 12.2-10.8 15.4-18.2 8-18.7 3.3-42.2-11.5-56.3-3.7-3.5-7.9-6.5-12.8-8-11.9-3.7-25.3 2.4-32.7 12.3-3.8 5.1-6.4 11.1-6.8 17.4-.7 9.9 4.1 20 12.3 25.6s19.3 6.6 28.3 2.4c3.5-1.6 6.8-4.1 9-7.3 4.9-7.2 3.9-17.2-.4-24.8-3.2-5.7-8.2-10.6-14.4-12.7-6.2-2.1-13.6-1.1-18.4 3.4-6.9 6.4-5.9 19.3 1.9 24.5 3.6 2.4 8.3 3.2 12.2 1.5 4-1.7 6.8-6 6.2-10.2-.6-4.2-5.1-7.7-9.3-6.7-2.1.5-4 2.1-4.4 4.2s.8 4.5 2.9 5"/></svg>