<svg xmlns="http://www.w3.org/2000/svg" viewBox="0 0 195 275"><g fill="none" stroke-linecap="round" stroke-linejoin="round"><path opacity=".2" stroke="#B2D339" stroke-width="10" d="M47 104.3c-10.5 5.1-19.2 13.2-29.7 18.3 5.9-19.7 22.5-35.7 42.3-41.1-13.4-16-29.4-29.8-47.3-40.6C32.7 43.6 49.1 59.4 69 65c-5-15.1-7.5-31-7.3-46.9C70.1 31.9 78.6 45.8 87 59.6c9.7-14.1 19.5-28.3 29.2-42.4-5.4 15-6.4 31.4-3.1 47 20-10.9 41.5-19.1 63.7-24.2-19.7 9.1-36.5 24.1-47.7 42.6 10.9-3.5 23.1-2.4 33.2 3.1 10 5.5 17.7 15.2 20.6 26.2-17-11.9-39.3-15.9-59.4-10.6-4.8 1.2-9.7 3.2-12.5 7.3-2.1 3.1-2.6 7.1-2.9 10.9-1 13.9.4 27.9 1.8 41.9 2.1 20.9 4.3 41.9 8.6 62.5 1.3 6.1 2.8 12.2 5.7 17.7 1.7 3.3 4 6.3 5.2 9.7 1.3 3.5 1.4 7.6-.8 10.6-3.1 4-9 4-14.1 3.7-5.3-.4-10.6-.8-15.8-1.2-1.2-.1-2.5-.2-3.5-.9-1.9-1.4-1.9-4.1-1.6-6.5 3.4-35.3.9-71.5-3.6-106.7-1.8-13.9-4.3-27.9-2.3-41.8-4.1-7.2-14.7-7.1-22.7-9.3-3-.8-6.7-.7-9.5.6s-5.5 3.1-8.5 3.8v.7z"/><path opacity=".25" stroke="#B2D339" stroke-width="8.5" d="M47 104.3c-10.5 5.1-19.2 13.2-29.7 18.3 5.9-19.7 22.5-35.7 42.3-41.1-13.4-16-29.4-29.8-47.3-40.6C32.7 43.6 49.1 59.4 69 65c-5-15.1-7.5-31-7.3-46.9C70.1 31.9 78.6 45.8 87 59.6c9.7-14.1 19.5-28.3 29.2-42.4-5.4 15-6.4 31.4-3.1 47 20-10.9 41.5-19.1 63.7-24.2-19.7 9.1-36.5 24.1-47.7 42.6 10.9-3.5 23.1-2.4 33.2 3.1 10 5.5 17.7 15.2 20.6 26.2-17-11.9-39.3-15.9-59.4-10.6-4.8 1.2-9.7 3.2-12.5 7.3-2.1 3.1-2.6 7.1-2.9 10.9-1 13.9.4 27.9 1.8 41.9 2.1 20.9 4.3 41.9 8.6 62.5 1.3 6.1 2.8 12.2 5.7 17.7 1.7 3.3 4 6.3 5.2 9.7 1.3 3.5 1.4 7.6-.8 10.6-3.1 4-9 4-14.1 3.7-5.3-.4-10.6-.8-15.8-1.2-1.2-.1-2.5-.2-3.5-.9-1.9-1.4-1.9-4.1-1.6-6.5 3.4-35.3.9-71.5-3.6-106.7-1.8-13.9-4.3-27.9-2.3-41.8-4.1-7.2-14.7-7.1-22.7-9.3-3-.8-6.7-.7-9.5.6s-5.5 3.1-8.5 3.8v.7z"/><path opacity=".3" stroke="#B2D339" stroke-width="5" d="M47 104.3c-10.5 5.1-19.2 13.2-29.7 18.3 5.9-19.7 22.5-35.7 42.3-41.1-13.4-16-29.4-29.8-47.3-40.6C32.7 43.6 49.1 59.4 69 65c-5-15.1-7.5-31-7.3-46.9C70.1 31.9 78.6 45.8 87 59.6c9.7-14.1 19.5-28.3 29.2-42.4-5.4 15-6.4 31.4-3.1 47 20-10.9 41.5-19.1 63.7-24.2-19.7 9.1-36.5 24.1-47.7 42.6 10.9-3.5 23.1-2.4 33.2 3.1 10 5.5 17.7 15.2 20.6 26.2-17-11.9-39.3-15.9-59.4-10.6-4.8 1.2-9.7 3.2-12.5 7.3-2.1 3.1-2.6 7.1-2.9 10.9-1 13.9.4 27.9 1.8 41.9 2.1 20.9 4.3 41.9 8.6 62.5 1.3 6.1 2.8 12.2 5.7 17.7 1.7 3.3 4 6.3 5.2 9.7 1.3 3.5 1.4 7.6-.8 10.6-3.1 4-9 4-14.1 3.7-5.3-.4-10.6-.8-15.8-1.2-1.2-.1-2.5-.2-3.5-.9-1.9-1.4-1.9-4.1-1.6-6.5 3.4-35.3.9-71.5-3.6-106.7-1.8-13.9-4.3-27.9-2.3-41.8-4.1-7.2-14.7-7.1-22.7-9.3-3-.8-6.7-.7-9.5.6s-5.5 3.1-8.5 3.8v.7z"/><path stroke="#B2D339" stroke-width="7" d="M47 104.3c-10.5 5.1-19.2 13.2-29.7 18.3 5.9-19.7 22.5-35.7 42.3-41.1-13.4-16-29.4-29.8-47.3-40.6C32.7 43.6 49.1 59.4 69 65c-5-15.1-7.5-31-7.3-46.9C70.1 31.9 78.6 45.8 87 59.6c9.7-14.1 19.5-28.3 29.2-42.4-5.4 15-6.4 31.4-3.1 47 20-10.9 41.5-19.1 63.7-24.2-19.7 9.1-36.5 24.1-47.7 42.6 10.9-3.5 23.1-2.4 33.2 3.1 10 5.5 17.7 15.2 20.6 26.2-17-11.9-39.3-15.9-59.4-10.6-4.8 1.2-9.7 3.2-12.5 7.3-2.1 3.1-2.6 7.1-2.9 10.9-1 13.9.4 27.9 1.8 41.9 2.1 20.9 4.3 41.9 8.6 62.5 1.3 6.1 2.8 12.2 5.7 17.7 1.7 3.3 4 6.3 5.2 9.7 1.3 3.5 1.4 7.6-.8 10.6-3.1 4-9 4-14.1 3.7-5.3-.4-10.6-.8-15.8-1.2-1.2-.1-2.5-.2-3.5-.9-1.9-1.4-1.9-4.1-1.6-6.5 3.4-35.3.9-71.5-3.6-106.7-1.8-13.9-4.3-27.9-2.3-41.8-4.1-7.2-14.7-7.1-22.7-9.3-3-.8-6.7-.7-9.5.6s-5.5 3.1-8.5 3.8v.7z"/><path stroke="#C3DB69" stroke-width="5.5" d="M47 104.3c-10.5 5.1-19.2 13.2-29.7 18.3 5.9-19.7 22.5-35.7 42.3-41.1-13.4-16-29.4-29.8-47.3-40.6C32.7 43.6 49.1 59.4 69 65c-5-15.1-7.5-31-7.3-46.9C70.1 31.9 78.6 45.8 87 59.6c9.7-14.1 19.5-28.3 29.2-42.4-5.4 15-6.4 31.4-3.1 47 20-10.9 41.5-19.1 63.7-24.2-19.7 9.1-36.5 24.1-47.7 42.6 10.9-3.5 23.1-2.4 33.2 3.1 10 5.5 17.7 15.2 20.6 26.2-17-11.9-39.3-15.9-59.4-10.6-4.8 1.2-9.7 3.2-12.5 7.3-2.1 3.1-2.6 7.1-2.9 10.9-1 13.9.4 27.9 1.8 41.9 2.1 20.9 4.3 41.9 8.6 62.5 1.3 6.1 2.8 12.2 5.7 17.7 1.7 3.3 4 6.3 5.2 9.7 1.3 3.5 1.4 7.6-.8 10.6-3.1 4-9 4-14.1 3.7-5.3-.4-10.6-.8-15.8-1.2-1.2-.1-2.5-.2-3.5-.9-1.9-1.4-1.9-4.1-1.6-6.5 3.4-35.3.9-71.5-3.6-106.7-1.8-13.9-4.3-27.9-2.3-41.8-4.1-7.2-14.7-7.1-22.7-9.3-3-.8-6.7-.7-9.5.6s-5.5 3.1-8.5 3.8v.7z"/><path stroke="#D2E392" stroke-width="4" d="M47 104.3c-10.5 5.1-19.2 13.2-29.7 18.3 5.9-19.7 22.5-35.7 42.3-41.1-13.4-16-29.4-29.8-47.3-40.6C32.7 43.6 49.1 59.4 69 65c-5-15.1-7.5-31-7.3-46.9C70.1 31.9 78.6 45.8 87 59.6c9.7-14.1 19.5-28.3 29.2-42.4-5.4 15-6.4 31.4-3.1 47 20-10.9 41.5-19.1 63.7-24.2-19.7 9.1-36.5 24.1-47.7 42.6 10.9-3.5 23.1-2.4 33.2 3.1 10 5.5 17.7 15.2 20.6 26.2-17-11.9-39.3-15.9-59.4-10.6-4.8 1.2-9.7 3.2-12.5 7.3-2.1 3.1-2.6 7.1-2.9 10.9-1 13.9.4 27.9 1.8 41.9 2.1 20.9 4.3 41.9 8.6 62.5 1.3 6.1 2.8 12.2 5.7 17.7 1.7 3.3 4 6.3 5.2 9.7 1.3 3.5 1.4 7.6-.8 10.6-3.1 4-9 4-14.1 3.7-5.3-.4-10.6-.8-15.8-1.2-1.2-.1-2.5-.2-3.5-.9-1.9-1.4-1.9-4.1-1.6-6.5 3.4-35.3.9-71.5-3.6-106.7-1.8-13.9-4.3-27.9-2.3-41.8-4.1-7.2-14.7-7.1-22.7-9.3-3-.8-6.7-.7-9.5.6s-5.5 3.1-8.5 3.8v.7z"/><path stroke="#DEEBB1" stroke-width="2.5" d="M47 104.3c-10.5 5.1-19.2 13.2-29.7 18.3 5.9-19.7 22.5-35.7 42.3-41.1-13.4-16-29.4-29.8-47.3-40.6C32.7 43.6 49.1 59.4 69 65c-5-15.1-7.5-31-7.3-46.9C70.1 31.9 78.6 45.8 87 59.6c9.7-14.1 19.5-28.3 29.2-42.4-5.4 15-6.4 31.4-3.1 47 20-10.9 41.5-19.1 63.7-24.2-19.7 9.1-36.5 24.1-47.7 42.6 10.9-3.5 23.1-2.4 33.2 3.1 10 5.5 17.7 15.2 20.6 26.2-17-11.9-39.3-15.9-59.4-10.6-4.8 1.2-9.7 3.2-12.5 7.3-2.1 3.1-2.6 7.1-2.9 10.9-1 13.9.4 27.9 1.8 41.9 2.1 20.9 4.3 41.9 8.6 62.5 1.3 6.1 2.8 12.2 5.7 17.7 1.7 3.3 4 6.3 5.2 9.7 1.3 3.5 1.4 7.6-.8 10.6-3.1 4-9 4-14.1 3.7-5.3-.4-10.6-.8-15.8-1.2-1.2-.1-2.5-.2-3.5-.9-1.9-1.4-1.9-4.1-1.6-6.5 3.4-35.3.9-71.5-3.6-106.7-1.8-13.9-4.3-27.9-2.3-41.8-4.1-7.2-14.7-7.1-22.7-9.3-3-.8-6.7-.7-9.5.6s-5.5 3.1-8.5 3.8v.7z"/><path stroke="#EAF2CE" d="M47 104.3c-10.5 5.1-19.2 13.2-29.7 18.3 5.9-19.7 22.5-35.7 42.3-41.1-13.4-16-29.4-29.8-47.3-40.6C32.7 43.6 49.1 59.4 69 65c-5-15.1-7.5-31-7.3-46.9C70.1 31.9 78.6 45.8 87 59.6c9.7-14.1 19.5-28.3 29.2-42.4-5.4 15-6.4 31.4-3.1 47 20-10.9 41.5-19.1 63.7-24.2-19.7 9.1-36.5 24.1-47.7 42.6 10.9-3.5 23.1-2.4 33.2 3.1 10 5.5 17.7 15.2 20.6 26.2-17-11.9-39.3-15.9-59.4-10.6-4.8 1.2-9.7 3.2-12.5 7.3-2.1 3.1-2.6 7.1-2.9 10.9-1 13.9.4 27.9 1.8 41.9 2.1 20.9 4.3 41.9 8.6 62.5 1.3 6.1 2.8 12.2 5.7 17.7 1.7 3.3 4 6.3 5.2 9.7 1.3 3.5 1.4 7.6-.8 10.6-3.1 4-9 4-14.1 3.7-5.3-.4-10.6-.8-15.8-1.2-1.2-.1-2.5-.2-3.5-.9-1.9-1.4-1.9-4.1-1.6-6.5 3.4-35.3.9-71.5-3.6-106.7-1.8-13.9-4.3-27.9-2.3-41.8-4.1-7.2-14.7-7.1-22.7-9.3-3-.8-6.7-.7-9.5.6s-5.5 3.1-8.5 3.8v.7z"/></g></svg>