<?xml version="1.0" encoding="utf-8"?>
<!-- Generator: Adobe Illustrator 19.1.0, SVG Export Plug-In . SVG Version: 6.00 Build 0)  -->
<svg version="1.1" id="Layer_1" xmlns="http://www.w3.org/2000/svg" xmlns:xlink="http://www.w3.org/1999/xlink" x="0px" y="0px"
	 viewBox="0 0 42 41.2" style="enable-background:new 0 0 42 41.2;" xml:space="preserve">
<style type="text/css">
	.Magenta_x0020_Neon{fill:none;stroke:#F18AB9;stroke-width:7;stroke-linecap:round;stroke-linejoin:round;}
	.st0{opacity:0.2;fill:none;stroke:#F18AB9;stroke-width:7;stroke-linecap:round;stroke-linejoin:round;}
	.st1{opacity:0.25;fill:none;stroke:#EF7AB0;stroke-width:6;stroke-linecap:round;stroke-linejoin:round;}
	.st2{opacity:0.3;fill:none;stroke:#ED5FA3;stroke-width:5;stroke-linecap:round;stroke-linejoin:round;}
	.st3{fill:none;stroke:#EB3B95;stroke-width:4;stroke-linecap:round;stroke-linejoin:round;}
	.st4{fill:none;stroke:#EE659F;stroke-width:3.25;stroke-linecap:round;stroke-linejoin:round;}
	.st5{fill:none;stroke:#F07CA8;stroke-width:2.5;stroke-linecap:round;stroke-linejoin:round;}
	.st6{fill:none;stroke:#F291B4;stroke-width:1.65;stroke-linecap:round;stroke-linejoin:round;}
	.st7{fill:none;stroke:#F6B3D1;stroke-width:0.65;stroke-linecap:round;stroke-linejoin:round;}
</style>
<g>
	<rect x="5.5" y="4.8" class="st0" width="31.5" height="31.5"/>
	<rect x="5.5" y="4.8" class="st1" width="31.5" height="31.5"/>
	<rect x="5.5" y="4.8" class="st2" width="31.5" height="31.5"/>
	<rect x="5.5" y="4.8" class="st3" width="31.5" height="31.5"/>
	<rect x="5.5" y="4.8" class="st4" width="31.5" height="31.5"/>
	<rect x="5.5" y="4.8" class="st5" width="31.5" height="31.5"/>
	<rect x="5.5" y="4.8" class="st6" width="31.5" height="31.5"/>
	<rect x="5.5" y="4.8" class="st7" width="31.5" height="31.5"/>
</g>
<g>
	<path class="st0" d="M5.5,36.2L37,4.8L5.5,36.2z"/>
	<path class="st1" d="M5.5,36.2L37,4.8L5.5,36.2z"/>
	<path class="st2" d="M5.5,36.2L37,4.8L5.5,36.2z"/>
	<path class="st3" d="M5.5,36.2L37,4.8L5.5,36.2z"/>
	<path class="st4" d="M5.5,36.2L37,4.8L5.5,36.2z"/>
	<path class="st5" d="M5.5,36.2L37,4.8L5.5,36.2z"/>
	<path class="st6" d="M5.5,36.2L37,4.8L5.5,36.2z"/>
	<path class="st7" d="M5.5,36.2L37,4.8L5.5,36.2z"/>
</g>
</svg>
