<svg xmlns="http://www.w3.org/2000/svg" viewBox="0 0 300 300"><path fill="none" stroke="#fff" stroke-width="3" stroke-linecap="round" stroke-linejoin="round" d="M87.3 68.1c-16-1.5-31.9 6.9-42.9 19.6s-17.7 29.6-21.3 46.9c-3.9 18.5-4.2 39 4.8 55.2 5.9 10.7 17.9 19 28.3 14.1 6.9-3.2 11.1-11.4 12.5-19.6 1.4-8.2.6-16.6.5-24.9-.2-17.8 2.9-35.6 9.1-51.9-8.4 36.2-7.2 75.1 3.3 110.7 2.8 9.6 6.5 19.1 12.4 26.8 5.7 7.4 13.3 12.7 21.4 16.6 23.4 11.3 50.4 10.5 75.2 3.9 15.2-4.1 30.9-11.1 39.8-25.4 4.2-6.8 6.6-14.9 8.5-22.9 4.3-18.3 6.4-37.4 4.2-56.1-2.2-18.7-9-37.1-20.9-50.6 13.5 17.8 27.5 36.5 32.5 59.2 1 4.7 1.7 9.7 3.8 13.9s6.2 7.8 10.6 7.4c3.9-.4 7-3.9 8.5-7.9s1.6-8.4 1.5-12.7c-.1-16-1.7-32.6-8.8-46.5-4-7.9-9.6-14.7-15.8-20.6-19.5-19-44.5-29.6-69.8-34.8s-51.3-5.4-77-5.5c-6.8 0-14.1.1-19.4 4.8"/><path fill="none" stroke="#fff" stroke-width="3" stroke-linecap="round" stroke-linejoin="round" d="M99.6 132.3c-2.1 6.9-4.1 14-4 21.3s2.9 14.9 8.6 18.7c1.6 1 3.4 1.7 5.2 2.3 9.6 2.8 20.6.4 27.5-7.5s8.5-21.3 2.5-30c-2.4-3.6-5.9-6.2-9.5-8.2-10-5.4-22.8-5.7-31.8 1.5M182.8 120c-11.3 5.7-17.5 21.5-13.5 34.5 1.4 4.6 3.9 8.8 6.8 12.5 3 3.7 6.5 7 10.7 9 10.6 5 24.4-.9 29.2-12.6 1.2-3 1.9-6.3 1.6-9.5-.4-4.1-2.4-7.8-4.5-11.2-4-6.4-8.7-12.5-14.5-16.8s-13-7-20-6.1"/><path fill="none" stroke="#fff" stroke-width="3" stroke-linecap="round" stroke-linejoin="round" d="M192.6 138.8c-1.1-.7-2.6-.2-3.5.7-.9 1-1.4 2.4-1.8 3.7-.4 1.2-.8 2.5-.5 3.7.4 1.5 1.8 2.3 3.2 2.5 2.5.4 5.1-1 6.3-3.4 1.2-2.4.7-5.8-1.2-7.6-1.9-1.8-5.1-1.7-6.8.3M109.7 142.8c-.9 1.5-.6 3.6.2 5 .9 1.5 2.3 2.5 3.8 3.2 2.4 1.2 5.5 1.6 7.4-.4 1.3-1.4 1.6-3.6 1.1-5.5s-1.9-3.4-3.5-4.2c-1.5-.8-3.2-1.1-4.7-.4-1.5.6-2.8 2.2-2.8 4M172.7 122.1c6.4-10.1 17.2-16.6 28.4-16.9M93 131.1c2.1-9.6 8-18 15.8-22.8.3-.2.6-.3.9-.2.3.1.5.7.2.8M141.6 199.4c-1.2 7.6 1.6 15.6 6.4 21.2 3.5 4 8.1 6.9 13.1 7.1 8.5.3 15.6-7 20.5-14.7 2.7-4.3 5.2-9.8 3.3-14.7-1.6-4.1-5.8-6.1-9.7-7.6-6.2-2.3-12.7-4.2-19.2-3.3s-12.9 5.2-15 12.1"/><path fill="none" stroke="#fff" stroke-width="3" stroke-linecap="round" stroke-linejoin="round" d="M98.7 225.6c3.5 9.6 10.1 17.8 18.3 22.9 7.9 4.8 17.4 6.7 26 3.8 8.6-2.9 15.9-10.9 17.6-20.7.6 4.3 3.4 8.1 6.8 10.2 3.4 2.1 7.4 2.9 11.4 3.2 8.9.6 17.9-1.2 25.9-5.5 5.5-3 10.5-7.2 13.8-12.8s4.5-13 2.4-19.3"/></svg>