<svg xmlns="http://www.w3.org/2000/svg" viewBox="0 0 300 300"><g fill="none" stroke-linecap="round" stroke-linejoin="round"><path opacity=".2" stroke="#F18CB9" stroke-width="7" d="M35.3 35.4h229.3v229.3H35.3z"/><path opacity=".25" stroke="#ED7AB0" stroke-width="6" d="M35.3 35.4h229.3v229.3H35.3z"/><path opacity=".3" stroke="#EB60A3" stroke-width="5" d="M35.3 35.4h229.3v229.3H35.3z"/><path stroke="#E93E95" stroke-width="4" d="M35.3 35.4h229.3v229.3H35.3z"/><path stroke="#ED669F" stroke-width="3.25" d="M35.3 35.4h229.3v229.3H35.3z"/><path stroke="#EF7CA8" stroke-width="2.5" d="M35.3 35.4h229.3v229.3H35.3z"/><path stroke="#F292B4" stroke-width="1.65" d="M35.3 35.4h229.3v229.3H35.3z"/><path stroke="#F5B3D0" stroke-width=".65" d="M35.3 35.4h229.3v229.3H35.3z"/><g opacity=".2" stroke="#00BAD5" stroke-width="10"><path d="M35.3 35.4h229.3v229.3H35.3z"/><path d="M35.3 35.4h229.3v229.3H35.3z"/><path d="M35.3 35.4h229.3v229.3H35.3z"/><path d="M35.3 35.4h229.3v229.3H35.3z"/><path d="M35.3 35.4h229.3v229.3H35.3z"/><path d="M35.3 35.4h229.3v229.3H35.3z"/><path d="M35.3 35.4h229.3v229.3H35.3z"/><path d="M35.3 35.4h229.3v229.3H35.3z"/></g><g opacity=".25" stroke="#00BAD5" stroke-width="8.5"><path d="M35.3 35.4h229.3v229.3H35.3z"/><path d="M35.3 35.4h229.3v229.3H35.3z"/><path d="M35.3 35.4h229.3v229.3H35.3z"/><path d="M35.3 35.4h229.3v229.3H35.3z"/><path d="M35.3 35.4h229.3v229.3H35.3z"/><path d="M35.3 35.4h229.3v229.3H35.3z"/><path d="M35.3 35.4h229.3v229.3H35.3z"/><path d="M35.3 35.4h229.3v229.3H35.3z"/></g><g opacity=".3" stroke="#00BAD5" stroke-width="5"><path d="M35.3 35.4h229.3v229.3H35.3z"/><path d="M35.3 35.4h229.3v229.3H35.3z"/><path d="M35.3 35.4h229.3v229.3H35.3z"/><path d="M35.3 35.4h229.3v229.3H35.3z"/><path d="M35.3 35.4h229.3v229.3H35.3z"/><path d="M35.3 35.4h229.3v229.3H35.3z"/><path d="M35.3 35.4h229.3v229.3H35.3z"/><path d="M35.3 35.4h229.3v229.3H35.3z"/></g><g stroke="#00BBD5" stroke-width="7"><path d="M35.3 35.4h229.3v229.3H35.3z"/><path d="M35.3 35.4h229.3v229.3H35.3z"/><path d="M35.3 35.4h229.3v229.3H35.3z"/><path d="M35.3 35.4h229.3v229.3H35.3z"/><path d="M35.3 35.4h229.3v229.3H35.3z"/><path d="M35.3 35.4h229.3v229.3H35.3z"/><path d="M35.3 35.4h229.3v229.3H35.3z"/><path d="M35.3 35.4h229.3v229.3H35.3z"/></g><g stroke="#31C2D9" stroke-width="5"><path d="M35.3 35.4h229.3v229.3H35.3z"/><path d="M35.3 35.4h229.3v229.3H35.3z"/><path d="M35.3 35.4h229.3v229.3H35.3z"/><path d="M35.3 35.4h229.3v229.3H35.3z"/><path d="M35.3 35.4h229.3v229.3H35.3z"/><path d="M35.3 35.4h229.3v229.3H35.3z"/><path d="M35.3 35.4h229.3v229.3H35.3z"/><path d="M35.3 35.4h229.3v229.3H35.3z"/></g><g stroke="#26C0D8" stroke-width="4"><path d="M35.3 35.4h229.3v229.3H35.3z"/><path d="M35.3 35.4h229.3v229.3H35.3z"/><path d="M35.3 35.4h229.3v229.3H35.3z"/><path d="M35.3 35.4h229.3v229.3H35.3z"/><path d="M35.3 35.4h229.3v229.3H35.3z"/><path d="M35.3 35.4h229.3v229.3H35.3z"/><path d="M35.3 35.4h229.3v229.3H35.3z"/><path d="M35.3 35.4h229.3v229.3H35.3z"/></g><g stroke="#63CAE0" stroke-width="3"><path d="M35.3 35.4h229.3v229.3H35.3z"/><path d="M35.3 35.4h229.3v229.3H35.3z"/><path d="M35.3 35.4h229.3v229.3H35.3z"/><path d="M35.3 35.4h229.3v229.3H35.3z"/><path d="M35.3 35.4h229.3v229.3H35.3z"/><path d="M35.3 35.4h229.3v229.3H35.3z"/><path d="M35.3 35.4h229.3v229.3H35.3z"/><path d="M35.3 35.4h229.3v229.3H35.3z"/></g><g stroke="#92D7E6"><path d="M35.3 35.4h229.3v229.3H35.3z"/><path d="M35.3 35.4h229.3v229.3H35.3z"/><path d="M35.3 35.4h229.3v229.3H35.3z"/><path d="M35.3 35.4h229.3v229.3H35.3z"/><path d="M35.3 35.4h229.3v229.3H35.3z"/><path d="M35.3 35.4h229.3v229.3H35.3z"/><path d="M35.3 35.4h229.3v229.3H35.3z"/><path d="M35.3 35.4h229.3v229.3H35.3z"/></g></g><g fill="none" stroke-linecap="round" stroke-linejoin="round"><path opacity=".2" stroke="#F18CB9" stroke-width="7" d="M35.3 263.9L264.6 35.4 35.3 263.9z"/><path opacity=".25" stroke="#ED7AB0" stroke-width="6" d="M35.3 263.9L264.6 35.4 35.3 263.9z"/><path opacity=".3" stroke="#EB60A3" stroke-width="5" d="M35.3 263.9L264.6 35.4 35.3 263.9z"/><path stroke="#E93E95" stroke-width="4" d="M35.3 263.9L264.6 35.4 35.3 263.9z"/><path stroke="#ED669F" stroke-width="3.25" d="M35.3 263.9L264.6 35.4 35.3 263.9z"/><path stroke="#EF7CA8" stroke-width="2.5" d="M35.3 263.9L264.6 35.4 35.3 263.9z"/><path stroke="#F292B4" stroke-width="1.65" d="M35.3 263.9L264.6 35.4 35.3 263.9z"/><path stroke="#F5B3D0" stroke-width=".65" d="M35.3 263.9L264.6 35.4 35.3 263.9z"/><g opacity=".2" stroke="#00BAD5" stroke-width="10"><path d="M35.3 263.9L264.6 35.4 35.3 263.9zM35.3 263.9L264.6 35.4 35.3 263.9zM35.3 263.9L264.6 35.4 35.3 263.9zM35.3 263.9L264.6 35.4 35.3 263.9zM35.3 263.9L264.6 35.4 35.3 263.9zM35.3 263.9L264.6 35.4 35.3 263.9zM35.3 263.9L264.6 35.4 35.3 263.9zM35.3 263.9L264.6 35.4 35.3 263.9z"/></g><g opacity=".25" stroke="#00BAD5" stroke-width="8.5"><path d="M35.3 263.9L264.6 35.4 35.3 263.9zM35.3 263.9L264.6 35.4 35.3 263.9zM35.3 263.9L264.6 35.4 35.3 263.9zM35.3 263.9L264.6 35.4 35.3 263.9zM35.3 263.9L264.6 35.4 35.3 263.9zM35.3 263.9L264.6 35.4 35.3 263.9zM35.3 263.9L264.6 35.4 35.3 263.9zM35.3 263.9L264.6 35.4 35.3 263.9z"/></g><g opacity=".3" stroke="#00BAD5" stroke-width="5"><path d="M35.3 263.9L264.6 35.4 35.3 263.9zM35.3 263.9L264.6 35.4 35.3 263.9zM35.3 263.9L264.6 35.4 35.3 263.9zM35.3 263.9L264.6 35.4 35.3 263.9zM35.3 263.9L264.6 35.4 35.3 263.9zM35.3 263.9L264.6 35.4 35.3 263.9zM35.3 263.9L264.6 35.4 35.3 263.9zM35.3 263.9L264.6 35.4 35.3 263.9z"/></g><g stroke="#00BBD5" stroke-width="7"><path d="M35.3 263.9L264.6 35.4 35.3 263.9zM35.3 263.9L264.6 35.4 35.3 263.9zM35.3 263.9L264.6 35.4 35.3 263.9zM35.3 263.9L264.6 35.4 35.3 263.9zM35.3 263.9L264.6 35.4 35.3 263.9zM35.3 263.9L264.6 35.4 35.3 263.9zM35.3 263.9L264.6 35.4 35.3 263.9zM35.3 263.9L264.6 35.4 35.3 263.9z"/></g><g stroke="#31C2D9" stroke-width="5"><path d="M35.3 263.9L264.6 35.4 35.3 263.9zM35.3 263.9L264.6 35.4 35.3 263.9zM35.3 263.9L264.6 35.4 35.3 263.9zM35.3 263.9L264.6 35.4 35.3 263.9zM35.3 263.9L264.6 35.4 35.3 263.9zM35.3 263.9L264.6 35.4 35.3 263.9zM35.3 263.9L264.6 35.4 35.3 263.9zM35.3 263.9L264.6 35.4 35.3 263.9z"/></g><g stroke="#26C0D8" stroke-width="4"><path d="M35.3 263.9L264.6 35.4 35.3 263.9zM35.3 263.9L264.6 35.4 35.3 263.9zM35.3 263.9L264.6 35.4 35.3 263.9zM35.3 263.9L264.6 35.4 35.3 263.9zM35.3 263.9L264.6 35.4 35.3 263.9zM35.3 263.9L264.6 35.4 35.3 263.9zM35.3 263.9L264.6 35.4 35.3 263.9zM35.3 263.9L264.6 35.4 35.3 263.9z"/></g><g stroke="#63CAE0" stroke-width="3"><path d="M35.3 263.9L264.6 35.4 35.3 263.9zM35.3 263.9L264.6 35.4 35.3 263.9zM35.3 263.9L264.6 35.4 35.3 263.9zM35.3 263.9L264.6 35.4 35.3 263.9zM35.3 263.9L264.6 35.4 35.3 263.9zM35.3 263.9L264.6 35.4 35.3 263.9zM35.3 263.9L264.6 35.4 35.3 263.9zM35.3 263.9L264.6 35.4 35.3 263.9z"/></g><g stroke="#92D7E6"><path d="M35.3 263.9L264.6 35.4 35.3 263.9zM35.3 263.9L264.6 35.4 35.3 263.9zM35.3 263.9L264.6 35.4 35.3 263.9zM35.3 263.9L264.6 35.4 35.3 263.9zM35.3 263.9L264.6 35.4 35.3 263.9zM35.3 263.9L264.6 35.4 35.3 263.9zM35.3 263.9L264.6 35.4 35.3 263.9zM35.3 263.9L264.6 35.4 35.3 263.9z"/></g></g></svg>