<svg xmlns="http://www.w3.org/2000/svg" viewBox="0 0 300 300"><g fill="none" stroke-linecap="round" stroke-linejoin="round"><path opacity=".2" stroke="#0073BC" stroke-width="35" d="M236.4 32.3c-6.4-3.3-13.5-4.7-20.6-5.7-39.1-5.7-79.2-3.4-117.4 6.8-1.2.3-2.4.6-3.4 1.4-1.8 1.5-2.3 4-2.7 6.4-1.4 7.5-3.9 15.2-9.4 20.2-4.3 3.9-9.9 5.7-15.4 7.4-5.7 1.8-11.3 3.6-17 5.4-1.3-3.8-5.6-5.8-9.5-5.7s-7.6 1.9-11.2 3.6c-1.5.8-3.2 1.6-3.9 3.2-.9 1.9 0 4.1.8 6.1 5 11.8 10.1 23.7 15.1 35.5.6 1.4 1.2 2.8 2.4 3.7 1.5 1 3.4 1 5.2.8 4.6-.5 9.2-1.6 13.6-3.3 3.6-1.3 7.4-3.6 8.1-7.4.9-5.1-4.5-9.2-5.4-14.3 9.5-7.1 20.5-11.9 32.1-14 9.5-1.7 20.7-1.1 27.1 6.4 6.7 7.7 12.9 14.8 18.4 23.5 3.6 5.7 7.2 11.4 9.9 17.6 4 8.9 6.3 18.5 8.8 27.9 10.4 39.3 25 77.2 39.6 115.1.5 1.2 1 2.4 1.9 3.3 1.9 1.9 5 1.5 7.6 1 13.4-2.8 26.3-7.5 38.4-14 .6-.3 1.3-.7 1.5-1.4.2-.6 0-1.3-.3-2-6.5-15.8-19.4-28-27.4-43.1-4.4-8.4-7.3-17.5-11.4-26.1-3.4-7.1-7.6-13.9-10.1-21.4-2.6-7.6-3.3-15.7-5.3-23.5-2.6-10.4-7.3-20.2-9.9-30.6-1.8-7.3-2.6-14.9-2.4-22.4.1-3.2-6.4-4.4-9.5-3.5L148 97c-1.1-1.9 1.5-3.9 3.6-4.5 12.4-3.9 24.7-7.8 37.1-11.7-.5-5.5-5.2-9.5-8.4-14-3.1-4.3-5-9.4-5.4-14.7-.1-1.7-.1-3.4.7-4.9 1.3-2.3 4.1-3.1 6.7-3.7 21.6-4.6 44.1-5 65.9-1.1"/><path opacity=".25" stroke="#0073BC" stroke-width="8.5" d="M236.4 32.3c-6.4-3.3-13.5-4.7-20.6-5.7-39.1-5.7-79.2-3.4-117.4 6.8-1.2.3-2.4.6-3.4 1.4-1.8 1.5-2.3 4-2.7 6.4-1.4 7.5-3.9 15.2-9.4 20.2-4.3 3.9-9.9 5.7-15.4 7.4-5.7 1.8-11.3 3.6-17 5.4-1.3-3.8-5.6-5.8-9.5-5.7s-7.6 1.9-11.2 3.6c-1.5.8-3.2 1.6-3.9 3.2-.9 1.9 0 4.1.8 6.1 5 11.8 10.1 23.7 15.1 35.5.6 1.4 1.2 2.8 2.4 3.7 1.5 1 3.4 1 5.2.8 4.6-.5 9.2-1.6 13.6-3.3 3.6-1.3 7.4-3.6 8.1-7.4.9-5.1-4.5-9.2-5.4-14.3 9.5-7.1 20.5-11.9 32.1-14 9.5-1.7 20.7-1.1 27.1 6.4 6.7 7.7 12.9 14.8 18.4 23.5 3.6 5.7 7.2 11.4 9.9 17.6 4 8.9 6.3 18.5 8.8 27.9 10.4 39.3 25 77.2 39.6 115.1.5 1.2 1 2.4 1.9 3.3 1.9 1.9 5 1.5 7.6 1 13.4-2.8 26.3-7.5 38.4-14 .6-.3 1.3-.7 1.5-1.4.2-.6 0-1.3-.3-2-6.5-15.8-19.4-28-27.4-43.1-4.4-8.4-7.3-17.5-11.4-26.1-3.4-7.1-7.6-13.9-10.1-21.4-2.6-7.6-3.3-15.7-5.3-23.5-2.6-10.4-7.3-20.2-9.9-30.6-1.8-7.3-2.6-14.9-2.4-22.4.1-3.2-6.4-4.4-9.5-3.5L148 97c-1.1-1.9 1.5-3.9 3.6-4.5 12.4-3.9 24.7-7.8 37.1-11.7-.5-5.5-5.2-9.5-8.4-14-3.1-4.3-5-9.4-5.4-14.7-.1-1.7-.1-3.4.7-4.9 1.3-2.3 4.1-3.1 6.7-3.7 21.6-4.6 44.1-5 65.9-1.1"/><path opacity=".3" stroke="#0073BC" stroke-width="5" d="M236.4 32.3c-6.4-3.3-13.5-4.7-20.6-5.7-39.1-5.7-79.2-3.4-117.4 6.8-1.2.3-2.4.6-3.4 1.4-1.8 1.5-2.3 4-2.7 6.4-1.4 7.5-3.9 15.2-9.4 20.2-4.3 3.9-9.9 5.7-15.4 7.4-5.7 1.8-11.3 3.6-17 5.4-1.3-3.8-5.6-5.8-9.5-5.7s-7.6 1.9-11.2 3.6c-1.5.8-3.2 1.6-3.9 3.2-.9 1.9 0 4.1.8 6.1 5 11.8 10.1 23.7 15.1 35.5.6 1.4 1.2 2.8 2.4 3.7 1.5 1 3.4 1 5.2.8 4.6-.5 9.2-1.6 13.6-3.3 3.6-1.3 7.4-3.6 8.1-7.4.9-5.1-4.5-9.2-5.4-14.3 9.5-7.1 20.5-11.9 32.1-14 9.5-1.7 20.7-1.1 27.1 6.4 6.7 7.7 12.9 14.8 18.4 23.5 3.6 5.7 7.2 11.4 9.9 17.6 4 8.9 6.3 18.5 8.8 27.9 10.4 39.3 25 77.2 39.6 115.1.5 1.2 1 2.4 1.9 3.3 1.9 1.9 5 1.5 7.6 1 13.4-2.8 26.3-7.5 38.4-14 .6-.3 1.3-.7 1.5-1.4.2-.6 0-1.3-.3-2-6.5-15.8-19.4-28-27.4-43.1-4.4-8.4-7.3-17.5-11.4-26.1-3.4-7.1-7.6-13.9-10.1-21.4-2.6-7.6-3.3-15.7-5.3-23.5-2.6-10.4-7.3-20.2-9.9-30.6-1.8-7.3-2.6-14.9-2.4-22.4.1-3.2-6.4-4.4-9.5-3.5L148 97c-1.1-1.9 1.5-3.9 3.6-4.5 12.4-3.9 24.7-7.8 37.1-11.7-.5-5.5-5.2-9.5-8.4-14-3.1-4.3-5-9.4-5.4-14.7-.1-1.7-.1-3.4.7-4.9 1.3-2.3 4.1-3.1 6.7-3.7 21.6-4.6 44.1-5 65.9-1.1"/><path stroke="#2C80C3" stroke-width="7" d="M236.4 32.3c-6.4-3.3-13.5-4.7-20.6-5.7-39.1-5.7-79.2-3.4-117.4 6.8-1.2.3-2.4.6-3.4 1.4-1.8 1.5-2.3 4-2.7 6.4-1.4 7.5-3.9 15.2-9.4 20.2-4.3 3.9-9.9 5.7-15.4 7.4-5.7 1.8-11.3 3.6-17 5.4-1.3-3.8-5.6-5.8-9.5-5.7s-7.6 1.9-11.2 3.6c-1.5.8-3.2 1.6-3.9 3.2-.9 1.9 0 4.1.8 6.1 5 11.8 10.1 23.7 15.1 35.5.6 1.4 1.2 2.8 2.4 3.7 1.5 1 3.4 1 5.2.8 4.6-.5 9.2-1.6 13.6-3.3 3.6-1.3 7.4-3.6 8.1-7.4.9-5.1-4.5-9.2-5.4-14.3 9.5-7.1 20.5-11.9 32.1-14 9.5-1.7 20.7-1.1 27.1 6.4 6.7 7.7 12.9 14.8 18.4 23.5 3.6 5.7 7.2 11.4 9.9 17.6 4 8.9 6.3 18.5 8.8 27.9 10.4 39.3 25 77.2 39.6 115.1.5 1.2 1 2.4 1.9 3.3 1.9 1.9 5 1.5 7.6 1 13.4-2.8 26.3-7.5 38.4-14 .6-.3 1.3-.7 1.5-1.4.2-.6 0-1.3-.3-2-6.5-15.8-19.4-28-27.4-43.1-4.4-8.4-7.3-17.5-11.4-26.1-3.4-7.1-7.6-13.9-10.1-21.4-2.6-7.6-3.3-15.7-5.3-23.5-2.6-10.4-7.3-20.2-9.9-30.6-1.8-7.3-2.6-14.9-2.4-22.4.1-3.2-6.4-4.4-9.5-3.5L148 97c-1.1-1.9 1.5-3.9 3.6-4.5 12.4-3.9 24.7-7.8 37.1-11.7-.5-5.5-5.2-9.5-8.4-14-3.1-4.3-5-9.4-5.4-14.7-.1-1.7-.1-3.4.7-4.9 1.3-2.3 4.1-3.1 6.7-3.7 21.6-4.6 44.1-5 65.9-1.1"/><path stroke="#4F8CCA" stroke-width="5.5" d="M236.4 32.3c-6.4-3.3-13.5-4.7-20.6-5.7-39.1-5.7-79.2-3.4-117.4 6.8-1.2.3-2.4.6-3.4 1.4-1.8 1.5-2.3 4-2.7 6.4-1.4 7.5-3.9 15.2-9.4 20.2-4.3 3.9-9.9 5.7-15.4 7.4-5.7 1.8-11.3 3.6-17 5.4-1.3-3.8-5.6-5.8-9.5-5.7s-7.6 1.9-11.2 3.6c-1.5.8-3.2 1.6-3.9 3.2-.9 1.9 0 4.1.8 6.1 5 11.8 10.1 23.7 15.1 35.5.6 1.4 1.2 2.8 2.4 3.7 1.5 1 3.4 1 5.2.8 4.6-.5 9.2-1.6 13.6-3.3 3.6-1.3 7.4-3.6 8.1-7.4.9-5.1-4.5-9.2-5.4-14.3 9.5-7.1 20.5-11.9 32.1-14 9.5-1.7 20.7-1.1 27.1 6.4 6.7 7.7 12.9 14.8 18.4 23.5 3.6 5.7 7.2 11.4 9.9 17.6 4 8.9 6.3 18.5 8.8 27.9 10.4 39.3 25 77.2 39.6 115.1.5 1.2 1 2.4 1.9 3.3 1.9 1.9 5 1.5 7.6 1 13.4-2.8 26.3-7.5 38.4-14 .6-.3 1.3-.7 1.5-1.4.2-.6 0-1.3-.3-2-6.5-15.8-19.4-28-27.4-43.1-4.4-8.4-7.3-17.5-11.4-26.1-3.4-7.1-7.6-13.9-10.1-21.4-2.6-7.6-3.3-15.7-5.3-23.5-2.6-10.4-7.3-20.2-9.9-30.6-1.8-7.3-2.6-14.9-2.4-22.4.1-3.2-6.4-4.4-9.5-3.5L148 97c-1.1-1.9 1.5-3.9 3.6-4.5 12.4-3.9 24.7-7.8 37.1-11.7-.5-5.5-5.2-9.5-8.4-14-3.1-4.3-5-9.4-5.4-14.7-.1-1.7-.1-3.4.7-4.9 1.3-2.3 4.1-3.1 6.7-3.7 21.6-4.6 44.1-5 65.9-1.1"/><path stroke="#709CD2" stroke-width="4" d="M236.4 32.3c-6.4-3.3-13.5-4.7-20.6-5.7-39.1-5.7-79.2-3.4-117.4 6.8-1.2.3-2.4.6-3.4 1.4-1.8 1.5-2.3 4-2.7 6.4-1.4 7.5-3.9 15.2-9.4 20.2-4.3 3.9-9.9 5.7-15.4 7.4-5.7 1.8-11.3 3.6-17 5.4-1.3-3.8-5.6-5.8-9.5-5.7s-7.6 1.9-11.2 3.6c-1.5.8-3.2 1.6-3.9 3.2-.9 1.9 0 4.1.8 6.1 5 11.8 10.1 23.7 15.1 35.5.6 1.4 1.2 2.8 2.4 3.7 1.5 1 3.4 1 5.2.8 4.6-.5 9.2-1.6 13.6-3.3 3.6-1.3 7.4-3.6 8.1-7.4.9-5.1-4.5-9.2-5.4-14.3 9.5-7.1 20.5-11.9 32.1-14 9.5-1.7 20.7-1.1 27.1 6.4 6.7 7.7 12.9 14.8 18.4 23.5 3.6 5.7 7.2 11.4 9.9 17.6 4 8.9 6.3 18.5 8.8 27.9 10.4 39.3 25 77.2 39.6 115.1.5 1.2 1 2.4 1.9 3.3 1.9 1.9 5 1.5 7.6 1 13.4-2.8 26.3-7.5 38.4-14 .6-.3 1.3-.7 1.5-1.4.2-.6 0-1.3-.3-2-6.5-15.8-19.4-28-27.4-43.1-4.4-8.4-7.3-17.5-11.4-26.1-3.4-7.1-7.6-13.9-10.1-21.4-2.6-7.6-3.3-15.7-5.3-23.5-2.6-10.4-7.3-20.2-9.9-30.6-1.8-7.3-2.6-14.9-2.4-22.4.1-3.2-6.4-4.4-9.5-3.5L148 97c-1.1-1.9 1.5-3.9 3.6-4.5 12.4-3.9 24.7-7.8 37.1-11.7-.5-5.5-5.2-9.5-8.4-14-3.1-4.3-5-9.4-5.4-14.7-.1-1.7-.1-3.4.7-4.9 1.3-2.3 4.1-3.1 6.7-3.7 21.6-4.6 44.1-5 65.9-1.1"/><path stroke="#85A9D9" stroke-width="3" d="M236.4 32.3c-6.4-3.3-13.5-4.7-20.6-5.7-39.1-5.7-79.2-3.4-117.4 6.8-1.2.3-2.4.6-3.4 1.4-1.8 1.5-2.3 4-2.7 6.4-1.4 7.5-3.9 15.2-9.4 20.2-4.3 3.9-9.9 5.7-15.4 7.4-5.7 1.8-11.3 3.6-17 5.4-1.3-3.8-5.6-5.8-9.5-5.7s-7.6 1.9-11.2 3.6c-1.5.8-3.2 1.6-3.9 3.2-.9 1.9 0 4.1.8 6.1 5 11.8 10.1 23.7 15.1 35.5.6 1.4 1.2 2.8 2.4 3.7 1.5 1 3.4 1 5.2.8 4.6-.5 9.2-1.6 13.6-3.3 3.6-1.3 7.4-3.6 8.1-7.4.9-5.1-4.5-9.2-5.4-14.3 9.5-7.1 20.5-11.9 32.1-14 9.5-1.7 20.7-1.1 27.1 6.4 6.7 7.7 12.9 14.8 18.4 23.5 3.6 5.7 7.2 11.4 9.9 17.6 4 8.9 6.3 18.5 8.8 27.9 10.4 39.3 25 77.2 39.6 115.1.5 1.2 1 2.4 1.9 3.3 1.9 1.9 5 1.5 7.6 1 13.4-2.8 26.3-7.5 38.4-14 .6-.3 1.3-.7 1.5-1.4.2-.6 0-1.3-.3-2-6.5-15.8-19.4-28-27.4-43.1-4.4-8.4-7.3-17.5-11.4-26.1-3.4-7.1-7.6-13.9-10.1-21.4-2.6-7.6-3.3-15.7-5.3-23.5-2.6-10.4-7.3-20.2-9.9-30.6-1.8-7.3-2.6-14.9-2.4-22.4.1-3.2-6.4-4.4-9.5-3.5L148 97c-1.1-1.9 1.5-3.9 3.6-4.5 12.4-3.9 24.7-7.8 37.1-11.7-.5-5.5-5.2-9.5-8.4-14-3.1-4.3-5-9.4-5.4-14.7-.1-1.7-.1-3.4.7-4.9 1.3-2.3 4.1-3.1 6.7-3.7 21.6-4.6 44.1-5 65.9-1.1"/><path stroke="#A3BCE2" d="M236.4 32.3c-6.4-3.3-13.5-4.7-20.6-5.7-39.1-5.7-79.2-3.4-117.4 6.8-1.2.3-2.4.6-3.4 1.4-1.8 1.5-2.3 4-2.7 6.4-1.4 7.5-3.9 15.2-9.4 20.2-4.3 3.9-9.9 5.7-15.4 7.4-5.7 1.8-11.3 3.6-17 5.4-1.3-3.8-5.6-5.8-9.5-5.7s-7.6 1.9-11.2 3.6c-1.5.8-3.2 1.6-3.9 3.2-.9 1.9 0 4.1.8 6.1 5 11.8 10.1 23.7 15.1 35.5.6 1.4 1.2 2.8 2.4 3.7 1.5 1 3.4 1 5.2.8 4.6-.5 9.2-1.6 13.6-3.3 3.6-1.3 7.4-3.6 8.1-7.4.9-5.1-4.5-9.2-5.4-14.3 9.5-7.1 20.5-11.9 32.1-14 9.5-1.7 20.7-1.1 27.1 6.4 6.7 7.7 12.9 14.8 18.4 23.5 3.6 5.7 7.2 11.4 9.9 17.6 4 8.9 6.3 18.5 8.8 27.9 10.4 39.3 25 77.2 39.6 115.1.5 1.2 1 2.4 1.9 3.3 1.9 1.9 5 1.5 7.6 1 13.4-2.8 26.3-7.5 38.4-14 .6-.3 1.3-.7 1.5-1.4.2-.6 0-1.3-.3-2-6.5-15.8-19.4-28-27.4-43.1-4.4-8.4-7.3-17.5-11.4-26.1-3.4-7.1-7.6-13.9-10.1-21.4-2.6-7.6-3.3-15.7-5.3-23.5-2.6-10.4-7.3-20.2-9.9-30.6-1.8-7.3-2.6-14.9-2.4-22.4.1-3.2-6.4-4.4-9.5-3.5L148 97c-1.1-1.9 1.5-3.9 3.6-4.5 12.4-3.9 24.7-7.8 37.1-11.7-.5-5.5-5.2-9.5-8.4-14-3.1-4.3-5-9.4-5.4-14.7-.1-1.7-.1-3.4.7-4.9 1.3-2.3 4.1-3.1 6.7-3.7 21.6-4.6 44.1-5 65.9-1.1"/></g></svg>