<svg xmlns="http://www.w3.org/2000/svg" viewBox="0 0 390 256"><path fill="#56CBF5" d="M250 7.3h130.4L8.7 241V8.3 241L250 7.3H8.5"/><path fill="#79C9AA" d="M250 7.3l65.2-1 65.2-.7 6-.1-5.1 3.2L289 68.1l-46.2 29.5-46.3 29.6-92.6 58.9-92.7 58.8-7 4.4-.1-8.3-.1-58.2-.1-58.2L3.8 8.3h9.9l-.1 116.3v58.2l-.2 58.2-7.9-3.3L66 179.5l30.3-29.1 30.3-29.1 60.7-58.1 60.8-57.9 1.9 4.8-60.4-.6-60.3-.6-60.4-.7-60.4-.9 60.4-.9 60.4-.7 60.3-.7 60.4-.5 6.9-.1-4.9 4.9-59.9 58.9-60 58.8-30 29.4-30 29.3L12 244.3 4.1 252v-11l-.2-58.2v-58.2L3.8 8.3h9.9l-.1 116.3-.1 58.2-.2 58.2-7-3.9L99.4 179l93.3-57.9 46.6-28.9L286 63.4l93.5-57.6.9 3.2-65.2-.8z"/></svg>