<svg id="Layer_1" xmlns="http://www.w3.org/2000/svg" viewBox="0 0 100 100"><style>.st0{opacity:.66;fill:url(#SVGID_1_)}</style><linearGradient id="SVGID_1_" gradientUnits="userSpaceOnUse" x1="1.587" y1="51.071" x2="91.706" y2="51.071" gradientTransform="matrix(-1 0 0 1 96.83 0)"><stop offset="0" stop-color="#FFF"/><stop offset="1"/></linearGradient><path class="st0" d="M59.2 38.6L74.4 34l11.3 7.1L74.4 34l.7-17.5L71 4.3 87.1 27l-1.4 14.1-4.6 6.8 14.1 18.5-1.6 5.2h-6.5v7l-1.4 4-8.5 9.4-5.7 5.8-18.5-2-20.8-13.2-8.6-16.2-5-27.8L34 22.7l13.2-6.2h27.9l12 10.5-9-22.7H44L10 9.8 5.1 38.6l5.5 22.5 11.9-.9-11.9.9 21.6 21.5 32.7-32.9v-.8l16.2 22.7h6-6l-6 9 10.6 2v15.2H71.5l3.6-17.2-33.3-7.7L5.1 38.6h13.5l46.3 10.3 13.3 2.5 2.9-3.5-3.9-4.5v8-8l-12.3 5.5-17.7-32.4-7.7-11.4L34 22.7 10 9.8"/></svg>