<svg xmlns="http://www.w3.org/2000/svg" viewBox="0 0 300 300"><path fill="none" stroke="#fff" stroke-width="3" stroke-linecap="round" stroke-linejoin="round" d="M252.4 29.5c-6.4-3.6-13.6-5-20.7-6.2-39.2-6.2-79.5-3.7-117.7 7.3-1.2.3-2.5.7-3.4 1.6-1.8 1.6-2.3 4.3-2.7 6.8-1.4 8-3.9 16.3-9.5 21.7-4.3 4.2-10 6.1-15.4 8-5.7 1.9-11.4 3.9-17 5.8-1.3-4.1-5.6-6.3-9.6-6.2-3.9.1-7.6 2-11.2 3.9-1.5.8-3.2 1.8-3.9 3.5-.9 2.1 0 4.4.8 6.5 5.1 12.8 10.1 25.5 15.2 38.3.6 1.5 1.2 3.1 2.5 4 1.5 1.1 3.4 1 5.2.8 4.6-.6 9.2-1.8 13.6-3.5 3.6-1.4 7.4-3.9 8.1-8 .9-5.5-4.5-9.9-5.4-15.4 9.5-7.6 20.6-12.9 32.2-15.1 9.6-1.9 20.7-1.1 27.2 6.9 6.7 8.3 12.9 15.9 18.4 25.3 3.6 6.1 7.2 12.3 10 18.9 4 9.6 6.3 19.9 8.8 30.1 10.4 42.3 25.1 83.2 39.7 124 .5 1.3 1 2.6 1.9 3.6 1.9 2 5 1.6 7.6 1 13.4-3 26.4-8.1 38.5-15.1.6-.4 1.3-.8 1.5-1.5.2-.7 0-1.5-.3-2.1-6.5-17.1-19.4-30.2-27.5-46.4-4.5-9-7.3-18.9-11.4-28.1-3.4-7.7-7.6-15-10.2-23.1-2.6-8.2-3.3-16.9-5.3-25.3-2.6-11.2-7.3-21.7-9.9-32.9-1.8-7.9-2.6-16-2.4-24.1.1-3.5-6.5-4.7-9.5-3.7l-26.7 8.4c-1.2-2.1 1.5-4.2 3.6-4.9l37.2-12.6c-.6-5.9-5.2-10.2-8.4-15-3.1-4.6-5-10.2-5.4-15.9-.1-1.8-.1-3.7.7-5.3 1.3-2.5 4.1-3.4 6.7-4 21.7-5 44.2-5.4 66.1-1.2"/></svg>