<svg xmlns="http://www.w3.org/2000/svg" viewBox="0 0 300 300"><g fill="none" stroke-linecap="round" stroke-linejoin="round"><path opacity=".2" stroke="#00BAD5" stroke-width="35" d="M41 45.7h216v216H41z"/><path opacity=".25" stroke="#00BAD5" stroke-width="8.5" d="M41 45.7h216v216H41z"/><path opacity=".3" stroke="#00BAD5" stroke-width="5" d="M41 45.7h216v216H41z"/><path stroke="#00BBD5" stroke-width="7" d="M41 45.7h216v216H41z"/><path stroke="#31C2D9" stroke-width="5" d="M41 45.7h216v216H41z"/><path stroke="#26C0D8" stroke-width="4" d="M41 45.7h216v216H41z"/><path stroke="#63CAE0" stroke-width="3" d="M41 45.7h216v216H41z"/><path stroke="#92D7E6" d="M41 45.7h216v216H41z"/></g><g fill="none" stroke-linecap="round" stroke-linejoin="round"><path opacity=".2" stroke="#00BAD5" stroke-width="35" d="M39.6 44.4l217.8 217.7"/><path opacity=".25" stroke="#00BAD5" stroke-width="8.5" d="M39.6 44.4l217.8 217.7"/><path opacity=".3" stroke="#00BAD5" stroke-width="5" d="M39.6 44.4l217.8 217.7"/><path stroke="#00BBD5" stroke-width="7" d="M39.6 44.4l217.8 217.7"/><path stroke="#31C2D9" stroke-width="5" d="M39.6 44.4l217.8 217.7"/><path stroke="#26C0D8" stroke-width="4" d="M39.6 44.4l217.8 217.7"/><path stroke="#63CAE0" stroke-width="3" d="M39.6 44.4l217.8 217.7"/><path stroke="#92D7E6" d="M39.6 44.4l217.8 217.7"/></g><g fill="none" stroke-linecap="round" stroke-linejoin="round"><path opacity=".2" stroke="#00BAD5" stroke-width="35" d="M257.1 45.6L40.9 261.9"/><path opacity=".25" stroke="#00BAD5" stroke-width="8.5" d="M257.1 45.6L40.9 261.9"/><path opacity=".3" stroke="#00BAD5" stroke-width="5" d="M257.1 45.6L40.9 261.9"/><path stroke="#00BBD5" stroke-width="7" d="M257.1 45.6L40.9 261.9"/><path stroke="#31C2D9" stroke-width="5" d="M257.1 45.6L40.9 261.9"/><path stroke="#26C0D8" stroke-width="4" d="M257.1 45.6L40.9 261.9"/><path stroke="#63CAE0" stroke-width="3" d="M257.1 45.6L40.9 261.9"/><path stroke="#92D7E6" d="M257.1 45.6L40.9 261.9"/></g></svg>