<svg id="Layer_1" xmlns="http://www.w3.org/2000/svg" viewBox="0 0 150.9 70.3"><style>.Thick_x0020_Aqua_x0020_Neon{fill:none;stroke:#00bad5;stroke-width:10;stroke-linecap:round;stroke-linejoin:round}.st0{opacity:.2;stroke:#00bad5;stroke-width:10}.st0,.st1{fill:none;stroke-linecap:round;stroke-linejoin:round}.st1{opacity:.25;stroke-width:8.5}.st1,.st2{stroke:#00bad5}.st2{opacity:.3;stroke-width:5}.st2,.st3{fill:none;stroke-linecap:round;stroke-linejoin:round}.st3{stroke:#00bbd5;stroke-width:7}.st4{stroke:#31c2d9;stroke-width:5}.st4,.st5{fill:none;stroke-linecap:round;stroke-linejoin:round}.st5{stroke:#26c0d8;stroke-width:4}.st6{stroke:#63cae0;stroke-width:3}.st6,.st7{fill:none;stroke-linecap:round;stroke-linejoin:round}.st7{stroke:#92d7e6}</style><path class="st0" d="M74.3 19.2l40-1.2 30.8 39.6h-30.8V17.9L88.7 6.6 114.3 18 96.5 57.5l7.7 6.8h7l8.2-6.8-8.2 6.8-1.3-6.8h3.5L29.5 15.4 6.4 35.5 60.6 31V6l-31.1 9.3L6.4 35.5v22h107.9L60.6 6v25L6.4 57.5h8.5c.4 0 .9.1 1.2.4l8.3 6.4h9l6.5-6.8H29.5l-5.1 6.8L79.9 19S63.9 8.7 61.6 6.1c-.7-.9 28.6.5 27.2.5"/><path class="st1" d="M74.3 19.2l40-1.2 30.8 39.6h-30.8V17.9L88.7 6.6 114.3 18 96.5 57.5l7.7 6.8h7l8.2-6.8-8.2 6.8-1.3-6.8h3.5L29.5 15.4 6.4 35.5 60.6 31V6l-31.1 9.3L6.4 35.5v22h107.9L60.6 6v25L6.4 57.5h8.5c.4 0 .9.1 1.2.4l8.3 6.4h9l6.5-6.8H29.5l-5.1 6.8L79.9 19S63.9 8.7 61.6 6.1c-.7-.9 28.6.5 27.2.5"/><path class="st2" d="M74.3 19.2l40-1.2 30.8 39.6h-30.8V17.9L88.7 6.6 114.3 18 96.5 57.5l7.7 6.8h7l8.2-6.8-8.2 6.8-1.3-6.8h3.5L29.5 15.4 6.4 35.5 60.6 31V6l-31.1 9.3L6.4 35.5v22h107.9L60.6 6v25L6.4 57.5h8.5c.4 0 .9.1 1.2.4l8.3 6.4h9l6.5-6.8H29.5l-5.1 6.8L79.9 19S63.9 8.7 61.6 6.1c-.7-.9 28.6.5 27.2.5"/><path class="st3" d="M74.3 19.2l40-1.2 30.8 39.6h-30.8V17.9L88.7 6.6 114.3 18 96.5 57.5l7.7 6.8h7l8.2-6.8-8.2 6.8-1.3-6.8h3.5L29.5 15.4 6.4 35.5 60.6 31V6l-31.1 9.3L6.4 35.5v22h107.9L60.6 6v25L6.4 57.5h8.5c.4 0 .9.1 1.2.4l8.3 6.4h9l6.5-6.8H29.5l-5.1 6.8L79.9 19S63.9 8.7 61.6 6.1c-.7-.9 28.6.5 27.2.5"/><path class="st4" d="M74.3 19.2l40-1.2 30.8 39.6h-30.8V17.9L88.7 6.6 114.3 18 96.5 57.5l7.7 6.8h7l8.2-6.8-8.2 6.8-1.3-6.8h3.5L29.5 15.4 6.4 35.5 60.6 31V6l-31.1 9.3L6.4 35.5v22h107.9L60.6 6v25L6.4 57.5h8.5c.4 0 .9.1 1.2.4l8.3 6.4h9l6.5-6.8H29.5l-5.1 6.8L79.9 19S63.9 8.7 61.6 6.1c-.7-.9 28.6.5 27.2.5"/><path class="st5" d="M74.3 19.2l40-1.2 30.8 39.6h-30.8V17.9L88.7 6.6 114.3 18 96.5 57.5l7.7 6.8h7l8.2-6.8-8.2 6.8-1.3-6.8h3.5L29.5 15.4 6.4 35.5 60.6 31V6l-31.1 9.3L6.4 35.5v22h107.9L60.6 6v25L6.4 57.5h8.5c.4 0 .9.1 1.2.4l8.3 6.4h9l6.5-6.8H29.5l-5.1 6.8L79.9 19S63.9 8.7 61.6 6.1c-.7-.9 28.6.5 27.2.5"/><path class="st6" d="M74.3 19.2l40-1.2 30.8 39.6h-30.8V17.9L88.7 6.6 114.3 18 96.5 57.5l7.7 6.8h7l8.2-6.8-8.2 6.8-1.3-6.8h3.5L29.5 15.4 6.4 35.5 60.6 31V6l-31.1 9.3L6.4 35.5v22h107.9L60.6 6v25L6.4 57.5h8.5c.4 0 .9.1 1.2.4l8.3 6.4h9l6.5-6.8H29.5l-5.1 6.8L79.9 19S63.9 8.7 61.6 6.1c-.7-.9 28.6.5 27.2.5"/><path class="st7" d="M74.3 19.2l40-1.2 30.8 39.6h-30.8V17.9L88.7 6.6 114.3 18 96.5 57.5l7.7 6.8h7l8.2-6.8-8.2 6.8-1.3-6.8h3.5L29.5 15.4 6.4 35.5 60.6 31V6l-31.1 9.3L6.4 35.5v22h107.9L60.6 6v25L6.4 57.5h8.5c.4 0 .9.1 1.2.4l8.3 6.4h9l6.5-6.8H29.5l-5.1 6.8L79.9 19S63.9 8.7 61.6 6.1c-.7-.9 28.6.5 27.2.5"/></svg>