<svg id="Layer_1" xmlns="http://www.w3.org/2000/svg" viewBox="0 0 42 41.2"><style>.Magenta_x0020_Neon{fill:none;stroke-linecap:round;stroke-linejoin:round}.Magenta_x0020_Neon,.st0{stroke:#f18ab9;stroke-width:7}.st0{opacity:.2}.st0,.st1{fill:none;stroke-linecap:round;stroke-linejoin:round}.st1{opacity:.25;stroke:#ef7ab0;stroke-width:6}.st2{opacity:.3;stroke:#ed5fa3;stroke-width:5}.st2,.st3{fill:none;stroke-linecap:round;stroke-linejoin:round}.st3{stroke:#eb3b95;stroke-width:4}.st4{stroke:#ee659f;stroke-width:3.25}.st4,.st5{fill:none;stroke-linecap:round;stroke-linejoin:round}.st5{stroke:#f07ca8;stroke-width:2.5}.st6{stroke:#f291b4;stroke-width:1.65}.st6,.st7{fill:none;stroke-linecap:round;stroke-linejoin:round}.st7{stroke:#f6b3d1;stroke-width:.65}</style><path class="st0" d="M5.5 4.8H37v31.5H5.5z"/><path class="st1" d="M5.5 4.8H37v31.5H5.5z"/><path class="st2" d="M5.5 4.8H37v31.5H5.5z"/><path class="st3" d="M5.5 4.8H37v31.5H5.5z"/><path class="st4" d="M5.5 4.8H37v31.5H5.5z"/><path class="st5" d="M5.5 4.8H37v31.5H5.5z"/><path class="st6" d="M5.5 4.8H37v31.5H5.5z"/><path class="st7" d="M5.5 4.8H37v31.5H5.5z"/><g><path class="st0" d="M5.5 36.2L37 4.8 5.5 36.2z"/><path class="st1" d="M5.5 36.2L37 4.8 5.5 36.2z"/><path class="st2" d="M5.5 36.2L37 4.8 5.5 36.2z"/><path class="st3" d="M5.5 36.2L37 4.8 5.5 36.2z"/><path class="st4" d="M5.5 36.2L37 4.8 5.5 36.2z"/><path class="st5" d="M5.5 36.2L37 4.8 5.5 36.2z"/><path class="st6" d="M5.5 36.2L37 4.8 5.5 36.2z"/><path class="st7" d="M5.5 36.2L37 4.8 5.5 36.2z"/></g></svg>