<svg xmlns="http://www.w3.org/2000/svg" viewBox="0 0 300 300"><g fill="none" stroke-linecap="round" stroke-linejoin="round"><path opacity=".2" stroke="#B2D339" stroke-width="20" d="M41 45.7h216v216H41z"/><path opacity=".25" stroke="#B2D339" stroke-width="8.5" d="M41 45.7h216v216H41z"/><path opacity=".3" stroke="#B2D339" stroke-width="5" d="M41 45.7h216v216H41z"/><path stroke="#B2D339" stroke-width="7" d="M41 45.7h216v216H41z"/><path stroke="#C3DB69" stroke-width="5.5" d="M41 45.7h216v216H41z"/><path stroke="#D2E392" stroke-width="4" d="M41 45.7h216v216H41z"/><path stroke="#DEEBB1" stroke-width="2.5" d="M41 45.7h216v216H41z"/><path stroke="#EAF2CE" d="M41 45.7h216v216H41z"/></g><g fill="none" stroke-linecap="round" stroke-linejoin="round"><path opacity=".2" stroke="#B2D339" stroke-width="20" d="M39.6 44.4l217.8 217.7"/><path opacity=".25" stroke="#B2D339" stroke-width="8.5" d="M39.6 44.4l217.8 217.7"/><path opacity=".3" stroke="#B2D339" stroke-width="5" d="M39.6 44.4l217.8 217.7"/><path stroke="#B2D339" stroke-width="7" d="M39.6 44.4l217.8 217.7"/><path stroke="#C3DB69" stroke-width="5.5" d="M39.6 44.4l217.8 217.7"/><path stroke="#D2E392" stroke-width="4" d="M39.6 44.4l217.8 217.7"/><path stroke="#DEEBB1" stroke-width="2.5" d="M39.6 44.4l217.8 217.7"/><path stroke="#EAF2CE" d="M39.6 44.4l217.8 217.7"/></g><g fill="none" stroke-linecap="round" stroke-linejoin="round"><path opacity=".2" stroke="#B2D339" stroke-width="20" d="M257.1 45.6L40.9 261.9"/><path opacity=".25" stroke="#B2D339" stroke-width="8.5" d="M257.1 45.6L40.9 261.9"/><path opacity=".3" stroke="#B2D339" stroke-width="5" d="M257.1 45.6L40.9 261.9"/><path stroke="#B2D339" stroke-width="7" d="M257.1 45.6L40.9 261.9"/><path stroke="#C3DB69" stroke-width="5.5" d="M257.1 45.6L40.9 261.9"/><path stroke="#D2E392" stroke-width="4" d="M257.1 45.6L40.9 261.9"/><path stroke="#DEEBB1" stroke-width="2.5" d="M257.1 45.6L40.9 261.9"/><path stroke="#EAF2CE" d="M257.1 45.6L40.9 261.9"/></g></svg>